<svg width="25" height="18" viewBox="0 0 25 18" fill="none" xmlns="http://www.w3.org/2000/svg">
<path d="M24.4276 15.9537C24.4276 16.5816 23.9173 17.09 23.2894 17.09H1.1363C0.508394 17.09 0 16.5816 0 15.9537V1.1363C0 0.508394 0.508394 0 1.1363 0H23.2894C23.9173 0 24.4276 0.508394 24.4276 1.1363V15.9537Z" fill="#E6E7E8"/>
<path d="M0 15.9535C0 16.5814 0.508394 17.0898 1.1363 17.0898H23.2894C23.9173 17.0898 24.4276 16.5814 24.4276 15.9535V15.7676H0V15.9535Z" fill="#DA2128"/>
<path d="M24.4276 13.1348H0V14.457H24.4276V13.1348Z" fill="#DA2128"/>
<path d="M24.4276 10.5039H0V11.8242H24.4276V10.5039Z" fill="#DA2128"/>
<path d="M24.4276 7.87061H0V9.19281H24.4276V7.87061Z" fill="#DA2128"/>
<path d="M24.4276 5.23975H0V6.56195H24.4276V5.23975Z" fill="#DA2128"/>
<path d="M24.4276 2.60645H0V3.92865H24.4276V2.60645Z" fill="#DA2128"/>
<path d="M24.4276 1.1363C24.4276 0.508394 23.9173 0 23.2894 0H1.1363C0.508394 0 0 0.508394 0 1.1363V1.3222H24.4276V1.1363Z" fill="#DA2128"/>
<path d="M12.763 0H1.1344C0.508394 0 0 0.510291 0 1.1363V9.19851H12.763V0Z" fill="#006BB5"/>
<path d="M0.85927 0.207031L0.984472 0.582636H1.36577L1.05656 0.814068L1.17227 1.19347L0.85927 0.962034L0.550061 1.19347L0.669571 0.814068L0.356567 0.582636H0.73976L0.85927 0.207031Z" fill="#EDEDEE"/>
<path d="M2.95941 0.207031L3.08082 0.582636H3.46781L3.1586 0.814068L3.27811 1.19347L2.95941 0.962034L2.6559 1.19347L2.77541 0.814068L2.4624 0.582636H2.84559L2.95941 0.207031Z" fill="#EDEDEE"/>
<path d="M5.16379 0.207031L5.27951 0.582636H5.6608L5.35159 0.814068L5.4711 1.19347L5.16379 0.962034L4.84889 1.19347L4.9646 0.814068L4.6554 0.582636H5.04238L5.16379 0.207031Z" fill="#EDEDEE"/>
<path d="M7.35658 0.207031L7.47609 0.582636H7.85929L7.54628 0.814068L7.66579 1.19347L7.35658 0.962034L7.04168 1.19347L7.1574 0.814068L6.85388 0.582636H7.23707L7.35658 0.207031Z" fill="#EDEDEE"/>
<path d="M9.54953 0.207031L9.66525 0.582636H10.0579L9.74302 0.814068L9.85874 1.19347L9.54953 0.962034L9.23463 1.19347L9.35604 0.814068L9.04114 0.582636H9.43002L9.54953 0.207031Z" fill="#EDEDEE"/>
<path d="M1.87046 1.23877L1.98618 1.61627H2.37317L2.06016 1.8496L2.17967 2.229L1.87046 1.99567L1.55556 2.229L1.67697 1.8496L1.35828 1.61627H1.75095L1.87046 1.23877Z" fill="#EDEDEE"/>
<path d="M3.97049 1.23877L4.09189 1.61627H4.47509L4.16588 1.8496L4.28539 2.229L3.97049 1.99567L3.65748 2.229L3.77699 1.8496L3.46399 1.61627H3.85098L3.97049 1.23877Z" fill="#EDEDEE"/>
<path d="M6.16525 1.23877L6.28476 1.61627H6.67175L6.35875 1.8496L6.47826 2.229L6.16525 1.99567L5.85035 2.229L5.97556 1.8496L5.65686 1.61627H6.04385L6.16525 1.23877Z" fill="#EDEDEE"/>
<path d="M8.35817 1.23877L8.47768 1.61627H8.86657L8.55167 1.8496L8.67118 2.229L8.35817 1.99567L8.04896 2.229L8.16847 1.8496L7.85547 1.61627H8.23866L8.35817 1.23877Z" fill="#EDEDEE"/>
<path d="M10.5568 1.23877L10.6707 1.61627H11.0595L10.7503 1.8496L10.8661 2.229L10.5568 1.99567L10.2419 2.229L10.3615 1.8496L10.0522 1.61627H10.4354L10.5568 1.23877Z" fill="#EDEDEE"/>
<path d="M1.87046 3.12256L1.98618 3.49627H2.37317L2.06016 3.73149L2.17967 4.10899L1.87046 3.87756L1.55556 4.10899L1.67697 3.73149L1.35828 3.49627H1.75095L1.87046 3.12256Z" fill="#EDEDEE"/>
<path d="M3.97049 3.12256L4.09189 3.49627H4.47509L4.16588 3.73149L4.28539 4.10899L3.97049 3.87756L3.65748 4.10899L3.77699 3.73149L3.46399 3.49627H3.85098L3.97049 3.12256Z" fill="#EDEDEE"/>
<path d="M6.16525 3.12256L6.28476 3.49627H6.67175L6.35875 3.73149L6.47826 4.10899L6.16525 3.87756L5.85035 4.10899L5.97556 3.73149L5.65686 3.49627H6.04385L6.16525 3.12256Z" fill="#EDEDEE"/>
<path d="M8.35817 3.12256L8.47768 3.49627H8.86657L8.55167 3.73149L8.67118 4.10899L8.35817 3.87756L8.04896 4.10899L8.16847 3.73149L7.85547 3.49627H8.23866L8.35817 3.12256Z" fill="#EDEDEE"/>
<path d="M10.5568 3.12256L10.6707 3.49627H11.0595L10.7503 3.73149L10.8661 4.10899L10.5568 3.87756L10.2419 4.10899L10.3615 3.73149L10.0522 3.49627H10.4354L10.5568 3.12256Z" fill="#EDEDEE"/>
<path d="M1.87046 5.00098L1.98618 5.37848H2.37317L2.06016 5.6137L2.17967 5.98741L1.87046 5.75219L1.55556 5.98741L1.67697 5.6137L1.35828 5.37848H1.75095L1.87046 5.00098Z" fill="#EDEDEE"/>
<path d="M3.97049 5.00098L4.09189 5.37848H4.47509L4.16588 5.6137L4.28539 5.98741L3.97049 5.75219L3.65748 5.98741L3.77699 5.6137L3.46399 5.37848H3.85098L3.97049 5.00098Z" fill="#EDEDEE"/>
<path d="M6.16525 5.00098L6.28476 5.37848H6.67175L6.35875 5.6137L6.47826 5.98741L6.16525 5.75219L5.85035 5.98741L5.97556 5.6137L5.65686 5.37848H6.04385L6.16525 5.00098Z" fill="#EDEDEE"/>
<path d="M8.35817 5.00098L8.47768 5.37848H8.86657L8.55167 5.6137L8.67118 5.98741L8.35817 5.75219L8.04896 5.98741L8.16847 5.6137L7.85547 5.37848H8.23866L8.35817 5.00098Z" fill="#EDEDEE"/>
<path d="M10.5568 5.00098L10.6707 5.37848H11.0595L10.7503 5.6137L10.8661 5.98741L10.5568 5.75219L10.2419 5.98741L10.3615 5.6137L10.0522 5.37848H10.4354L10.5568 5.00098Z" fill="#EDEDEE"/>
<path d="M1.87046 6.88086L1.98618 7.25646H2.37317L2.06016 7.49169L2.17967 7.86919L1.87046 7.63586L1.55556 7.86919L1.67697 7.49169L1.35828 7.25646H1.75095L1.87046 6.88086Z" fill="#EDEDEE"/>
<path d="M3.97049 6.88086L4.09189 7.25646H4.47509L4.16588 7.49169L4.28539 7.86919L3.97049 7.63586L3.65748 7.86919L3.77699 7.49169L3.46399 7.25646H3.85098L3.97049 6.88086Z" fill="#EDEDEE"/>
<path d="M6.16525 6.88086L6.28476 7.25646H6.67175L6.35875 7.49169L6.47826 7.86919L6.16525 7.63586L5.85035 7.86919L5.97556 7.49169L5.65686 7.25646H6.04385L6.16525 6.88086Z" fill="#EDEDEE"/>
<path d="M8.35817 6.88086L8.47768 7.25646H8.86657L8.55167 7.49169L8.67118 7.86919L8.35817 7.63586L8.04896 7.86919L8.16847 7.49169L7.85547 7.25646H8.23866L8.35817 6.88086Z" fill="#EDEDEE"/>
<path d="M10.5568 6.88086L10.6707 7.25646H11.0595L10.7503 7.49169L10.8661 7.86919L10.5568 7.63586L10.2419 7.86919L10.3615 7.49169L10.0522 7.25646H10.4354L10.5568 6.88086Z" fill="#EDEDEE"/>
<path d="M11.7424 0.207031L11.862 0.582636H12.2452L11.9359 0.814068L12.0573 1.19347L11.7424 0.962034L11.4294 1.19347L11.549 0.814068L11.2397 0.582636H11.6229L11.7424 0.207031Z" fill="#EDEDEE"/>
<path d="M0.859392 2.08691L0.984594 2.46631H1.36589L1.05668 2.69585L1.1724 3.07525L0.859392 2.84192L0.550183 3.07525L0.669693 2.69585L0.356689 2.46631H0.739882L0.859392 2.08691Z" fill="#EDEDEE"/>
<path d="M2.95941 2.08691L3.08082 2.46631H3.46781L3.1586 2.69585L3.27811 3.07525L2.95941 2.84192L2.6559 3.07525L2.77541 2.69585L2.4624 2.46631H2.84559L2.95941 2.08691Z" fill="#EDEDEE"/>
<path d="M5.16379 2.08691L5.27951 2.46631H5.6608L5.35159 2.69585L5.4711 3.07525L5.16379 2.84192L4.84889 3.07525L4.9646 2.69585L4.6554 2.46631H5.04238L5.16379 2.08691Z" fill="#EDEDEE"/>
<path d="M7.35658 2.08691L7.47609 2.46631H7.85929L7.54628 2.69585L7.66579 3.07525L7.35658 2.84192L7.04168 3.07525L7.1574 2.69585L6.85388 2.46631H7.23707L7.35658 2.08691Z" fill="#EDEDEE"/>
<path d="M9.54953 2.08691L9.66525 2.46631H10.0579L9.74302 2.69585L9.85874 3.07525L9.54953 2.84192L9.23463 3.07525L9.35604 2.69585L9.04114 2.46631H9.43002L9.54953 2.08691Z" fill="#EDEDEE"/>
<path d="M11.7424 2.08691L11.862 2.46631H12.2452L11.9359 2.69585L12.0573 3.07525L11.7424 2.84192L11.4294 3.07525L11.549 2.69585L11.2397 2.46631H11.6229L11.7424 2.08691Z" fill="#EDEDEE"/>
<path d="M0.859392 3.9668L0.984594 4.3424H1.36589L1.05668 4.57763L1.1724 4.95323L0.859392 4.7199L0.550183 4.95323L0.669693 4.57763L0.356689 4.3424H0.739882L0.859392 3.9668Z" fill="#EDEDEE"/>
<path d="M2.95941 3.9668L3.08082 4.3424H3.46781L3.1586 4.57763L3.27811 4.95323L2.95941 4.7199L2.6559 4.95323L2.77541 4.57763L2.4624 4.3424H2.84559L2.95941 3.9668Z" fill="#EDEDEE"/>
<path d="M5.16379 3.9668L5.27951 4.3424H5.6608L5.35159 4.57763L5.4711 4.95323L5.16379 4.7199L4.84889 4.95323L4.9646 4.57763L4.6554 4.3424H5.04238L5.16379 3.9668Z" fill="#EDEDEE"/>
<path d="M7.35658 3.9668L7.47609 4.3424H7.85929L7.54628 4.57763L7.66579 4.95323L7.35658 4.7199L7.04168 4.95323L7.1574 4.57763L6.85388 4.3424H7.23707L7.35658 3.9668Z" fill="#EDEDEE"/>
<path d="M9.54953 3.9668L9.66525 4.3424H10.0579L9.74302 4.57763L9.85874 4.95323L9.54953 4.7199L9.23463 4.95323L9.35604 4.57763L9.04114 4.3424H9.43002L9.54953 3.9668Z" fill="#EDEDEE"/>
<path d="M11.7424 3.9668L11.862 4.3424H12.2452L11.9359 4.57763L12.0573 4.95323L11.7424 4.7199L11.4294 4.95323L11.549 4.57763L11.2397 4.3424H11.6229L11.7424 3.9668Z" fill="#EDEDEE"/>
<path d="M0.859392 5.84863L0.984594 6.22613H1.36589L1.05668 6.45567L1.1724 6.83317L0.859392 6.60174L0.550183 6.83317L0.669693 6.45567L0.356689 6.22613H0.739882L0.859392 5.84863Z" fill="#EDEDEE"/>
<path d="M2.95941 5.84863L3.08082 6.22613H3.46781L3.1586 6.45567L3.27811 6.83317L2.95941 6.60174L2.6559 6.83317L2.77541 6.45567L2.4624 6.22613H2.84559L2.95941 5.84863Z" fill="#EDEDEE"/>
<path d="M5.16379 5.84863L5.27951 6.22613H5.6608L5.35159 6.45567L5.4711 6.83317L5.16379 6.60174L4.84889 6.83317L4.9646 6.45567L4.6554 6.22613H5.04238L5.16379 5.84863Z" fill="#EDEDEE"/>
<path d="M7.35658 5.84863L7.47609 6.22613H7.85929L7.54628 6.45567L7.66579 6.83317L7.35658 6.60174L7.04168 6.83317L7.1574 6.45567L6.85388 6.22613H7.23707L7.35658 5.84863Z" fill="#EDEDEE"/>
<path d="M9.54953 5.84863L9.66525 6.22613H10.0579L9.74302 6.45567L9.85874 6.83317L9.54953 6.60174L9.23463 6.83317L9.35604 6.45567L9.04114 6.22613H9.43002L9.54953 5.84863Z" fill="#EDEDEE"/>
<path d="M11.7424 5.84863L11.862 6.22613H12.2452L11.9359 6.45567L12.0573 6.83317L11.7424 6.60174L11.4294 6.83317L11.549 6.45567L11.2397 6.22613H11.6229L11.7424 5.84863Z" fill="#EDEDEE"/>
<path d="M0.859392 7.72461L0.984594 8.1059H1.36589L1.05668 8.33734L1.1724 8.71294L0.859392 8.48151L0.550183 8.71294L0.669693 8.33734L0.356689 8.1059H0.739882L0.859392 7.72461Z" fill="#EDEDEE"/>
<path d="M2.95941 7.72461L3.08082 8.1059H3.46781L3.1586 8.33734L3.27811 8.71294L2.95941 8.48151L2.6559 8.71294L2.77541 8.33734L2.4624 8.1059H2.84559L2.95941 7.72461Z" fill="#EDEDEE"/>
<path d="M5.16379 7.72461L5.27951 8.1059H5.6608L5.35159 8.33734L5.4711 8.71294L5.16379 8.48151L4.84889 8.71294L4.9646 8.33734L4.6554 8.1059H5.04238L5.16379 7.72461Z" fill="#EDEDEE"/>
<path d="M7.35658 7.72461L7.47609 8.1059H7.85929L7.54628 8.33734L7.66579 8.71294L7.35658 8.48151L7.04168 8.71294L7.1574 8.33734L6.85388 8.1059H7.23707L7.35658 7.72461Z" fill="#EDEDEE"/>
<path d="M9.54953 7.72461L9.66525 8.1059H10.0579L9.74302 8.33734L9.85874 8.71294L9.54953 8.48151L9.23463 8.71294L9.35604 8.33734L9.04114 8.1059H9.43002L9.54953 7.72461Z" fill="#EDEDEE"/>
<path d="M11.7424 7.72461L11.862 8.1059H12.2452L11.9359 8.33734L12.0573 8.71294L11.7424 8.48151L11.4294 8.71294L11.549 8.33734L11.2397 8.1059H11.6229L11.7424 7.72461Z" fill="#EDEDEE"/>
</svg>
