<svg width="60" height="60" viewBox="0 0 60 60" fill="none" xmlns="http://www.w3.org/2000/svg">
<path fill-rule="evenodd" clip-rule="evenodd" d="M60 30L48.6042 34.5868L50.1638 38.352L46.3985 39.9117L49.6419 49.6418L39.9118 46.3984L38.3521 50.1637L34.5868 48.6042L30 60L25.4132 48.6042L21.6479 50.1638L20.0883 46.3985L10.3582 49.6419L13.6016 39.9118L9.83626 38.3521L11.3958 34.5868L0 30L11.3959 25.4133L9.83626 21.648L13.6016 20.0883L10.3582 10.3582L20.0882 13.6015L21.6479 9.83615L25.4132 11.3958L30 0L34.5868 11.3958L38.3521 9.83615L39.9118 13.6015L49.6419 10.3581L46.3985 20.0882L50.1638 21.6479L48.6042 25.4132L60 30Z" fill="#D63333"/>
<path fill-rule="evenodd" clip-rule="evenodd" d="M60 30L48.6042 34.5868L50.1638 38.352L46.3985 39.9117L49.6419 49.6418L39.9118 46.3984L38.3521 50.1637L34.5868 48.6042L30 60L25.4132 48.6042L21.6479 50.1638L20.0883 46.3985L10.3582 49.6419L13.6016 39.9118L9.83626 38.3521L11.3958 34.5868L0 30L11.3959 25.4133L9.83626 21.648L13.6016 20.0883L10.3582 10.3582L20.0882 13.6015L21.6479 9.83615L25.4132 11.3958L30 0L34.5868 11.3958L38.3521 9.83615L39.9118 13.6015L49.6419 10.3581L46.3985 20.0882L50.1638 21.6479L48.6042 25.4132L60 30Z" fill="url(#paint0_radial_849_36186)" fill-opacity="0.36"/>
<path d="M4.471 20L6.89631 19.1185L7.77778 16.693L4.50127 15.6009C4.20475 15.502 3.84745 15.5612 3.59299 15.8149C3.35587 16.0528 3.27244 16.4043 3.37898 16.7233L4.471 20Z" fill="#D63333"/>
<path d="M4.471 20L6.89631 19.1185L7.77778 16.693L4.50127 15.6009C4.20475 15.502 3.84745 15.5612 3.59299 15.8149C3.35587 16.0528 3.27244 16.4043 3.37898 16.7233L4.471 20Z" fill="url(#paint1_radial_849_36186)" fill-opacity="0.36"/>
<path d="M4.471 40L6.89631 40.8815L7.77778 43.307L4.50127 44.3991C4.20475 44.498 3.84745 44.4388 3.59299 44.1851C3.35587 43.9472 3.27244 43.5957 3.37898 43.2767L4.471 40Z" fill="#D63333"/>
<path d="M4.471 40L6.89631 40.8815L7.77778 43.307L4.50127 44.3991C4.20475 44.498 3.84745 44.4388 3.59299 44.1851C3.35587 43.9472 3.27244 43.5957 3.37898 43.2767L4.471 40Z" fill="url(#paint2_radial_849_36186)" fill-opacity="0.36"/>
<path d="M53.1037 40.8815L55.529 40L56.621 43.2767C56.7276 43.5957 56.6441 43.9472 56.407 44.1851C56.1526 44.4388 55.7953 44.498 55.4987 44.3991L52.2222 43.307L53.1037 40.8815Z" fill="#D63333"/>
<path d="M53.1037 40.8815L55.529 40L56.621 43.2767C56.7276 43.5957 56.6441 43.9472 56.407 44.1851C56.1526 44.4388 55.7953 44.498 55.4987 44.3991L52.2222 43.307L53.1037 40.8815Z" fill="url(#paint3_radial_849_36186)" fill-opacity="0.36"/>
<path d="M55.529 20L53.1037 19.1185L52.2222 16.693L55.4987 15.6009C55.7953 15.502 56.1526 15.5612 56.407 15.8149C56.6441 16.0528 56.7276 16.4043 56.621 16.7233L55.529 20Z" fill="#D63333"/>
<path d="M55.529 20L53.1037 19.1185L52.2222 16.693L55.4987 15.6009C55.7953 15.502 56.1526 15.5612 56.407 15.8149C56.6441 16.0528 56.7276 16.4043 56.621 16.7233L55.529 20Z" fill="url(#paint4_radial_849_36186)" fill-opacity="0.36"/>
<path d="M36.9215 22.17L29.4445 25.6592L21.9674 22.17C21.7068 22.0484 21.3982 22.1028 21.1949 22.3061C20.9916 22.5094 20.9372 22.818 21.0588 23.0786L24.548 30.5557L21.0588 38.0327C20.9372 38.2933 20.9916 38.6019 21.1949 38.8052C21.3982 39.0085 21.7068 39.0629 21.9674 38.9413L29.4445 35.4521L36.9217 38.9414C37.1821 39.0629 37.4908 39.0085 37.6941 38.8052C37.8973 38.6019 37.9517 38.2933 37.8301 38.0327L34.3409 30.5557L37.8303 23.0785C37.9517 22.818 37.8973 22.5094 37.6941 22.3061C37.4908 22.1028 37.1821 22.0484 36.9215 22.17Z" fill="black" fill-opacity="0.56"/>
<defs>
<radialGradient id="paint0_radial_849_36186" cx="0" cy="0" r="1" gradientUnits="userSpaceOnUse" gradientTransform="translate(30) rotate(90) scale(60)">
<stop stop-color="#EFF6FF" stop-opacity="0.881019"/>
<stop offset="1" stop-color="#79B7FF" stop-opacity="0"/>
</radialGradient>
<radialGradient id="paint1_radial_849_36186" cx="0" cy="0" r="1" gradientUnits="userSpaceOnUse" gradientTransform="translate(30) rotate(90) scale(60)">
<stop stop-color="#EFF6FF" stop-opacity="0.881019"/>
<stop offset="1" stop-color="#79B7FF" stop-opacity="0"/>
</radialGradient>
<radialGradient id="paint2_radial_849_36186" cx="0" cy="0" r="1" gradientUnits="userSpaceOnUse" gradientTransform="translate(30) rotate(90) scale(60)">
<stop stop-color="#EFF6FF" stop-opacity="0.881019"/>
<stop offset="1" stop-color="#79B7FF" stop-opacity="0"/>
</radialGradient>
<radialGradient id="paint3_radial_849_36186" cx="0" cy="0" r="1" gradientUnits="userSpaceOnUse" gradientTransform="translate(30) rotate(90) scale(60)">
<stop stop-color="#EFF6FF" stop-opacity="0.881019"/>
<stop offset="1" stop-color="#79B7FF" stop-opacity="0"/>
</radialGradient>
<radialGradient id="paint4_radial_849_36186" cx="0" cy="0" r="1" gradientUnits="userSpaceOnUse" gradientTransform="translate(30) rotate(90) scale(60)">
<stop stop-color="#EFF6FF" stop-opacity="0.881019"/>
<stop offset="1" stop-color="#79B7FF" stop-opacity="0"/>
</radialGradient>
</defs>
</svg>
