<svg xmlns="http://www.w3.org/2000/svg" xmlns:xlink="http://www.w3.org/1999/xlink" viewBox="0 0 108 93.01"><defs><style>.cls-1{fill:none;}.cls-2{fill:url(#linear-gradient);}.cls-15,.cls-16,.cls-18,.cls-19,.cls-20,.cls-23,.cls-3,.cls-6,.cls-9{opacity:0.5;}.cls-3{fill:url(#radial-gradient);}.cls-4{fill:url(#linear-gradient-2);}.cls-5{fill:url(#linear-gradient-3);}.cls-6{fill:url(#radial-gradient-2);}.cls-7{fill:url(#linear-gradient-4);}.cls-8{fill:url(#linear-gradient-5);}.cls-9{fill:url(#linear-gradient-6);}.cls-10{fill:url(#linear-gradient-7);}.cls-11{fill:url(#linear-gradient-8);}.cls-12{clip-path:url(#clip-path);}.cls-13{fill:#cd886b;}.cls-14{fill:#cd886d;}.cls-15{fill:#febda2;}.cls-16{fill:#955f49;}.cls-17{fill:url(#radial-gradient-3);}.cls-18{fill:url(#linear-gradient-9);}.cls-19{fill:url(#linear-gradient-10);}.cls-20{fill:url(#linear-gradient-11);}.cls-21{fill:url(#radial-gradient-4);}.cls-22{fill:url(#linear-gradient-12);}.cls-23{fill:#fff;}</style><linearGradient id="linear-gradient" x1="10" y1="66.03" x2="10" y2="22.62" gradientUnits="userSpaceOnUse"><stop offset="0" stop-color="#a06049"/><stop offset="0.74" stop-color="#fcb79f"/><stop offset="0.93" stop-color="#fec0a4"/></linearGradient><radialGradient id="radial-gradient" cx="0.59" cy="30.75" r="17.78" gradientUnits="userSpaceOnUse"><stop offset="0" stop-color="#fedac3"/><stop offset="0.41" stop-color="#fbd6c0"/><stop offset="0.83" stop-color="#f1c9b6"/><stop offset="1" stop-color="#ecc2b0"/></radialGradient><linearGradient id="linear-gradient-2" x1="-0.84" y1="43.52" x2="20.25" y2="48.27" gradientUnits="userSpaceOnUse"><stop offset="0" stop-color="#ba7056"/><stop offset="0.93" stop-color="#e19c7d"/></linearGradient><linearGradient id="linear-gradient-3" x1="-536.73" y1="66.03" x2="-536.73" y2="22.62" gradientTransform="matrix(1, 0, 0, -1, 634.73, 93.6)" xlink:href="#linear-gradient"/><radialGradient id="radial-gradient-2" cx="106.91" cy="28.08" r="14.9" xlink:href="#radial-gradient"/><linearGradient id="linear-gradient-4" x1="108.74" y1="46.64" x2="93.97" y2="47.69" xlink:href="#linear-gradient-2"/><linearGradient id="linear-gradient-5" x1="75.57" y1="80.52" x2="33.24" y2="13.66" gradientUnits="userSpaceOnUse"><stop offset="0.4" stop-color="#cb7f61"/><stop offset="0.5" stop-color="#efc6b9"/><stop offset="0.59" stop-color="#e19c7d"/></linearGradient><linearGradient id="linear-gradient-6" x1="36.23" y1="9.92" x2="74.21" y2="83.77" gradientUnits="userSpaceOnUse"><stop offset="0" stop-color="#fec5ac"/><stop offset="0.52" stop-color="#fdc1a8"/><stop offset="1" stop-color="#fbb89d"/></linearGradient><linearGradient id="linear-gradient-7" x1="54.03" y1="9.98" x2="54.03" y2="89.19" xlink:href="#linear-gradient"/><linearGradient id="linear-gradient-8" x1="74.52" y1="66.99" x2="30.33" y2="22.81" gradientUnits="userSpaceOnUse"><stop offset="0.01" stop-color="#d48c70"/><stop offset="0.84" stop-color="#e09578"/></linearGradient><clipPath id="clip-path"><path class="cls-1" d="M85.18,60.28V32.73a7.3,7.3,0,0,0-3.65-6.32L57.68,12.64a7.32,7.32,0,0,0-7.3,0L26.53,26.41a7.3,7.3,0,0,0-3.65,6.32V60.28a7.28,7.28,0,0,0,3.65,6.31L50.38,80.36a7.27,7.27,0,0,0,7.3,0L81.53,66.59A7.28,7.28,0,0,0,85.18,60.28Z"/></clipPath><radialGradient id="radial-gradient-3" cx="56.53" cy="48.49" r="22.26" xlink:href="#radial-gradient"/><linearGradient id="linear-gradient-9" x1="53.94" y1="39.57" x2="71.81" y2="39.57" gradientUnits="userSpaceOnUse"><stop offset="0" stop-color="#fff"/><stop offset="0.33" stop-color="#f0d6cd"/><stop offset="0.78" stop-color="#dda28c"/><stop offset="1" stop-color="#d68d73"/></linearGradient><linearGradient id="linear-gradient-10" x1="36.07" y1="56.94" x2="53.94" y2="56.94" xlink:href="#linear-gradient-9"/><linearGradient id="linear-gradient-11" x1="-443.22" y1="-357.9" x2="-424.03" y2="-357.9" gradientTransform="translate(-303.85 481.88) rotate(90)" gradientUnits="userSpaceOnUse"><stop offset="0" stop-color="#d78c6d"/><stop offset="1" stop-color="#da906f"/></linearGradient><radialGradient id="radial-gradient-4" cx="-433.63" cy="-357.85" r="8.44" gradientTransform="translate(-303.85 481.88) rotate(90)" xlink:href="#radial-gradient"/><linearGradient id="linear-gradient-12" x1="21.2" y1="19.74" x2="86.86" y2="19.74" xlink:href="#linear-gradient"/></defs><g id="Layer_2" data-name="Layer 2"><g id="Layer_1-2" data-name="Layer 1"><path class="cls-2" d="M1.83,28.25H20a0,0,0,0,1,0,0v37.1a0,0,0,0,1,0,0h0a20,20,0,0,1-20-20V30.08a1.83,1.83,0,0,1,1.83-1.83Z"/><path class="cls-3" d="M3.06,30.89.53,28.8h0A1.8,1.8,0,0,0,0,30.08V45.35A19.93,19.93,0,0,0,5.52,59.12Z"/><path class="cls-4" d="M21,66.25V30.06H3.41A1.35,1.35,0,0,0,2,31.34V49.06A17.15,17.15,0,0,0,7.38,61.39,21.09,21.09,0,0,0,21,66.25Z"/><path class="cls-5" d="M108,28.25h0a0,0,0,0,1,0,0v37.1a0,0,0,0,1,0,0H89.83A1.83,1.83,0,0,1,88,63.52V48.25A20,20,0,0,1,108,28.25Z" transform="translate(196 93.6) rotate(-180)"/><path class="cls-6" d="M88,28.25v5l15.45-.5,4-4a1.84,1.84,0,0,0-1.26-.51Z"/><path class="cls-7" d="M87,66.25V30.06h17.59A1.35,1.35,0,0,1,106,31.34V49.06a17.15,17.15,0,0,1-5.38,12.33A21.09,21.09,0,0,1,87,66.25Z"/><path class="cls-8" d="M95.28,66.11V26.9a7.29,7.29,0,0,0-3.65-6.32L57.68,1a7.27,7.27,0,0,0-7.3,0L16.43,20.58a7.29,7.29,0,0,0-3.65,6.32V66.11a7.28,7.28,0,0,0,3.65,6.31L50.38,92a7.32,7.32,0,0,0,7.3,0L91.63,72.42A7.28,7.28,0,0,0,95.28,66.11Z"/><path class="cls-9" d="M48.28,2.19,39.7,9.31a7.07,7.07,0,0,0-1.48,9.19L72.07,72.65a6.92,6.92,0,0,0,8,2.92l13-4.25L57.68,92l10-9.52a6.94,6.94,0,0,0,1-8.78L34.19,20.28A7.08,7.08,0,0,0,26,17.4l-9.58,3.18Z"/><path class="cls-10" d="M86.86,61.25V31.76a7.31,7.31,0,0,0-3.64-6.32L57.68,10.7a7.32,7.32,0,0,0-7.3,0L24.84,25.44a7.31,7.31,0,0,0-3.64,6.32V61.25a7.29,7.29,0,0,0,3.64,6.31L50.38,82.31a7.32,7.32,0,0,0,7.3,0L83.22,67.56A7.29,7.29,0,0,0,86.86,61.25Z"/><path class="cls-11" d="M85.18,60.28V32.73a7.3,7.3,0,0,0-3.65-6.32L57.68,12.64a7.32,7.32,0,0,0-7.3,0L26.53,26.41a7.3,7.3,0,0,0-3.65,6.32V60.28a7.28,7.28,0,0,0,3.65,6.31L50.38,80.36a7.27,7.27,0,0,0,7.3,0L81.53,66.59A7.28,7.28,0,0,0,85.18,60.28Z"/><g class="cls-12"><path class="cls-13" d="M29.07,70.42a1.47,1.47,0,0,1,1.05-1.35c2-.85,2-.83.65-2.39-.07-.14-.06-.23,0-.27s.14-.06.18,0c1,.1,1.11-.54,1.12-1.3,0-.42-.05-1,.53-1s.68.44.87.85a18.81,18.81,0,0,0,6.2,7.79,1.16,1.16,0,0,1,.58,1,1.11,1.11,0,0,0,1.13,1.07c.61,0,1.49,0,1.62-.68.37-1.81,1.72-1.46,2.94-1.46-.72-2-.93-2.06-2.31-.89a.6.6,0,0,1-1.06-.22C42.33,71,42,70,42.8,70c1.22,0,.85-.77,1-1.31.67-2.29,1.7-3.06,3.66-2.73.26.14.75.12.47.64l-.29,3.15c1.26-.56,1.07-2.25,2.37-2.57a2.94,2.94,0,0,1,3.1,1.2v0a2,2,0,0,1-.64,1.48c-.65.64-1.36,1.34-.8,2.44.24.47-.06.7-.46.82-.6.19-1.32.29-1,1.2s.55,1.57,1.56,1.67c.13,0,.31-.07.37,0,2.74,2.35,5.31,1.52,8-.68a3.46,3.46,0,0,1-1.88,2.47c-1.14.83-1.2,1.5,0,2.25,1,.84.08,1.77.18,2.66-.33,1.3.1,3.3-2.59,2.56A5.82,5.82,0,0,0,56,79.63c-.59,1.74-1.77,3-2,4.72C50.82,83,48,81,45,79.41c-3.48-1.87-6.73-4.16-10.36-5.76Z"/><path class="cls-13" d="M47.94,66.57l-.47-.64c0-.12,0-.24,0-.37-.07-1.31.54-2.25,1.85-2.25.94,0,.9,1,.88,1.78C50.18,66.63,49.29,67,47.94,66.57Z"/><path class="cls-13" d="M15.42,49.16a1,1,0,0,1,1.41-.45c.68.34.63.85.26,1.37s-.92,1-1.53.59S15.13,49.7,15.42,49.16Z"/><path class="cls-13" d="M58.44,82.63c-.49-.38-.91-.85-.29-1.34s.14-.88.11-1.32a2.47,2.47,0,0,1,1.36,1.46C60.1,82.62,59.74,83.1,58.44,82.63Z"/><path class="cls-13" d="M58.9,85c.31-.32.64-.94,1.13-.63s.4,1,.08,1.49-.6.7-1,.45S58.69,85.46,58.9,85Z"/><path class="cls-13" d="M53.12,68.35c.49-.81.77-1.81,2.14-2.17-.34,1.29-.29,2.58-2.15,2.15Z"/><path class="cls-13" d="M23.49,60.31c.34-.47.43-1.28,1.33-.93a.86.86,0,0,1,.63.85.87.87,0,0,1-.37.57c-.72.5-1.12-.14-1.59-.52Z"/><path class="cls-13" d="M28.31,65.31c.43.39.2.77,0,1.13s-.64.61-1.05.21a.77.77,0,0,1-.09-1.14A.88.88,0,0,1,28.31,65.31Z"/><path class="cls-13" d="M32.79,61.1a.55.55,0,0,1,.36.89c-.35.53-.9.23-1.34.06s-.68-.45-.39-.87S32.35,61.14,32.79,61.1Z"/><path class="cls-13" d="M27.35,61.4a1,1,0,0,1-.15-1.17.69.69,0,0,1,1-.18c.52.3.35.71.09,1.08S27.76,61.65,27.35,61.4Z"/><path class="cls-13" d="M6.9,54c.24-.38.48-.72.92-.5s.33.61.13.95-.44.83-1,.48S6.79,54.29,6.9,54Z"/><path class="cls-13" d="M37.25,58.79c.41.27.36.6.16,1s-.44.49-.76.3a.76.76,0,0,1-.23-1.13A.58.58,0,0,1,37.25,58.79Z"/><path class="cls-13" d="M24.71,64.35c.14-.2.3-.44.57-.26a1,1,0,0,1,.38,1.26c-.1.28-.41.24-.61.11A.88.88,0,0,1,24.71,64.35Z"/><path class="cls-13" d="M40.73,67.74c.24-.4.54-.54.85-.35s.31.64.06,1a.52.52,0,0,1-.81.13A.54.54,0,0,1,40.73,67.74Z"/><path class="cls-13" d="M13.85,55.58a.64.64,0,0,1-.87.19c-.35-.22-.18-.53,0-.78a.56.56,0,0,1,.77-.26C14,54.9,14.1,55.19,13.85,55.58Z"/><path class="cls-13" d="M23.49,60.28c-.31.45-.56,1.11-1.27.47-.14-.13-.25-.55-.16-.67.56-.72,1,.08,1.43.23Z"/><path class="cls-13" d="M11.36,42.49c.25-.28.49-.5.79-.16a.69.69,0,0,1,0,.87.48.48,0,0,1-.79.09C11.09,43,11.26,42.73,11.36,42.49Z"/><path class="cls-13" d="M17.69,45.11a.68.68,0,0,1-.22-1,.47.47,0,0,1,.74-.21.54.54,0,0,1,.17.78C18.23,45,18.06,45.24,17.69,45.11Z"/><path class="cls-13" d="M40,55.4a.5.5,0,0,1,.76-.16.67.67,0,0,1,.28.93c-.15.28-.42.19-.63.09S39.84,55.83,40,55.4Z"/><path class="cls-13" d="M39.94,64.76a.65.65,0,0,1,.13.81.55.55,0,0,1-.77.22c-.33-.19-.24-.5-.08-.77S39.59,64.56,39.94,64.76Z"/><path class="cls-13" d="M31,66.38l-.2.3c-.77-.73-.48-1.43,0-2.21C31.39,65.12,30.63,65.79,31,66.38Z"/><path class="cls-13" d="M12.37,47.34c-.2-.15-.4-.32-.22-.58a.55.55,0,0,1,.77-.18.53.53,0,0,1,.14.44C13,47.37,12.7,47.45,12.37,47.34Z"/></g><path class="cls-14" d="M57.68,80.36,81.53,66.59a7.26,7.26,0,0,0,2.7-2.72C81.71,65.49,66.53,74.94,47.38,70a46.67,46.67,0,0,1-24.5-16.08v6.41a7.28,7.28,0,0,0,3.65,6.31L50.38,80.36A7.27,7.27,0,0,0,57.68,80.36Z"/><ellipse class="cls-15" cx="60.44" cy="32.75" rx="13.5" ry="18.5" transform="translate(6.4 75.25) rotate(-66.63)"/><path class="cls-16" d="M71.64,47.13,56,31.32a2.89,2.89,0,0,0-4.1,0L36.24,47.13a2.89,2.89,0,0,0,0,4.06L51.89,67A2.89,2.89,0,0,0,56,67L71.64,51.19A2.89,2.89,0,0,0,71.64,47.13Z"/><path class="cls-17" d="M70.71,46.3,55.92,31.36a2.79,2.79,0,0,0-4,0L37.17,46.3a2.78,2.78,0,0,0,0,3.91L52,65.15a2.79,2.79,0,0,0,4,0L70.71,50.21A2.78,2.78,0,0,0,70.71,46.3Z"/><path class="cls-18" d="M56.4,31.84a3.48,3.48,0,0,0-2.46-.95V48.25H71.81a2.14,2.14,0,0,0-.66-1.51Z"/><path class="cls-19" d="M36.07,48.25a2.12,2.12,0,0,0,.67,1.52l14.75,14.9a3.45,3.45,0,0,0,2.45,1V48.25Z"/><path class="cls-20" d="M54.6,57.63l8.92-8.83a.76.76,0,0,0,0-1.08L54.6,38.89a.76.76,0,0,0-1.08,0L44.6,47.72a.76.76,0,0,0,0,1.08l8.92,8.83A.76.76,0,0,0,54.6,57.63Z"/><path class="cls-21" d="M54.49,56.46l7.78-7.7a.7.7,0,0,0,0-1l-7.78-7.7a.69.69,0,0,0-1,0l-7.78,7.7a.7.7,0,0,0,0,1l7.78,7.7A.69.69,0,0,0,54.49,56.46Z"/><path class="cls-22" d="M83.22,23.44,57.68,8.7a7.27,7.27,0,0,0-7.3,0L24.84,23.44a7.31,7.31,0,0,0-3.64,6.32v2a7.31,7.31,0,0,1,3.64-6.32L50.38,10.7a7.27,7.27,0,0,1,7.3,0L83.22,25.44a7.31,7.31,0,0,1,3.64,6.32v-2A7.31,7.31,0,0,0,83.22,23.44Z"/><path class="cls-23" d="M50.61,47.23c-.22-2.67-.45-5.34-.67-8l-1,8.33-8,.93,8,.4,1,8.31,1-8.31,8-.4Z"/></g></g></svg>