<svg xmlns="http://www.w3.org/2000/svg" xmlns:xlink="http://www.w3.org/1999/xlink" viewBox="0 0 88.55 93.01"><defs><style>.cls-1{fill:none;}.cls-2{fill:url(#linear-gradient);}.cls-3{fill:url(#linear-gradient-2);}.cls-4{fill:url(#linear-gradient-3);}.cls-5{clip-path:url(#clip-path);}.cls-6{fill:#5e3a2d;}.cls-7{fill:#66402f;}.cls-8{fill:url(#radial-gradient);}.cls-10,.cls-9{opacity:0.5;}.cls-9{fill:url(#linear-gradient-4);}.cls-10{fill:url(#linear-gradient-5);}.cls-11{fill:url(#linear-gradient-6);}.cls-12{fill:url(#linear-gradient-7);}.cls-13{fill:url(#linear-gradient-8);}</style><linearGradient id="linear-gradient" x1="63.42" y1="81.16" x2="17.53" y2="9.42" gradientUnits="userSpaceOnUse"><stop offset="0.34" stop-color="#6a4736"/><stop offset="0.5" stop-color="#a3765f"/><stop offset="0.6" stop-color="#925f3f"/></linearGradient><linearGradient id="linear-gradient-2" x1="41.25" y1="9.98" x2="41.25" y2="89.19" gradientUnits="userSpaceOnUse"><stop offset="0" stop-color="#6a4736"/><stop offset="0.74" stop-color="#a3765f"/><stop offset="0.93" stop-color="#925f3f"/></linearGradient><linearGradient id="linear-gradient-3" x1="-229.66" y1="-142.88" x2="-277.6" y2="-190.82" gradientTransform="translate(-125.6 300.13) rotate(90)" gradientUnits="userSpaceOnUse"><stop offset="0" stop-color="#6a4736"/><stop offset="0.84" stop-color="#935c50"/></linearGradient><clipPath id="clip-path" transform="translate(6.05)"><path class="cls-1" d="M72.4,60.28V32.73a7.3,7.3,0,0,0-3.65-6.32L44.9,12.64a7.32,7.32,0,0,0-7.3,0L13.75,26.41a7.3,7.3,0,0,0-3.65,6.32V60.28a7.28,7.28,0,0,0,3.65,6.31L37.6,80.36a7.27,7.27,0,0,0,7.3,0L68.75,66.59A7.28,7.28,0,0,0,72.4,60.28Z"/></clipPath><radialGradient id="radial-gradient" cx="40.7" cy="11.38" r="34.18" gradientTransform="translate(0 23.44) scale(1 0.79)" gradientUnits="userSpaceOnUse"><stop offset="0" stop-color="#a98773"/><stop offset="0.28" stop-color="#a6836f"/><stop offset="0.57" stop-color="#9d7762"/><stop offset="0.87" stop-color="#8d634d"/><stop offset="1" stop-color="#855842"/></radialGradient><linearGradient id="linear-gradient-4" x1="43.7" y1="45.97" x2="51.98" y2="37.69" gradientUnits="userSpaceOnUse"><stop offset="0" stop-color="#634033"/><stop offset="0.63" stop-color="#96614a"/><stop offset="1" stop-color="#af7155"/></linearGradient><linearGradient id="linear-gradient-5" x1="36.33" y1="52.84" x2="26.65" y2="62.52" gradientUnits="userSpaceOnUse"><stop offset="0" stop-color="#634033"/><stop offset="0.21" stop-color="#6c4637"/><stop offset="0.54" stop-color="#835541"/><stop offset="0.95" stop-color="#aa6e53"/><stop offset="1" stop-color="#af7155"/></linearGradient><linearGradient id="linear-gradient-6" x1="-263.31" y1="-165.21" x2="-244.12" y2="-165.21" gradientTransform="translate(-123.93 301.97) rotate(90)" gradientUnits="userSpaceOnUse"><stop offset="0" stop-color="#b77656"/><stop offset="0.28" stop-color="#b37354"/><stop offset="0.57" stop-color="#a66c4f"/><stop offset="0.87" stop-color="#915f47"/><stop offset="1" stop-color="#855842"/></linearGradient><linearGradient id="linear-gradient-7" x1="-253.72" y1="-171.96" x2="-253.72" y2="-156.05" xlink:href="#linear-gradient-6"/><linearGradient id="linear-gradient-8" x1="8.42" y1="19.74" x2="74.08" y2="19.74" gradientTransform="matrix(1, 0, 0, 1, 0, 0)" xlink:href="#linear-gradient-6"/></defs><g id="Layer_2" data-name="Layer 2"><g id="Layer_1-2" data-name="Layer 1"><path class="cls-2" d="M82.5,66.11V26.9a7.29,7.29,0,0,0-3.65-6.32L44.9,1a7.27,7.27,0,0,0-7.3,0L3.65,20.58A7.29,7.29,0,0,0,0,26.9V66.11a7.28,7.28,0,0,0,3.65,6.31L37.6,92a7.32,7.32,0,0,0,7.3,0L78.85,72.42A7.28,7.28,0,0,0,82.5,66.11Z" transform="translate(6.05)"/><path class="cls-3" d="M74.08,61.25V31.76a7.31,7.31,0,0,0-3.64-6.32L44.9,10.7a7.32,7.32,0,0,0-7.3,0L12.06,25.44a7.31,7.31,0,0,0-3.64,6.32V61.25a7.29,7.29,0,0,0,3.64,6.31L37.6,82.31a7.32,7.32,0,0,0,7.3,0L70.44,67.56A7.29,7.29,0,0,0,74.08,61.25Z" transform="translate(6.05)"/><path class="cls-4" d="M72.4,60.28V32.73a7.3,7.3,0,0,0-3.65-6.32L44.9,12.64a7.32,7.32,0,0,0-7.3,0L13.75,26.41a7.3,7.3,0,0,0-3.65,6.32V60.28a7.28,7.28,0,0,0,3.65,6.31L37.6,80.36a7.27,7.27,0,0,0,7.3,0L68.75,66.59A7.28,7.28,0,0,0,72.4,60.28Z" transform="translate(6.05)"/><g class="cls-5"><path class="cls-6" d="M16.29,70.42a1.47,1.47,0,0,1,1.05-1.35c2-.85,2-.83.65-2.39-.07-.14-.06-.23,0-.27s.14-.06.18,0c1,.1,1.11-.54,1.12-1.3,0-.42,0-1,.53-1s.68.44.87.85a18.81,18.81,0,0,0,6.2,7.79,1.16,1.16,0,0,1,.58,1,1.11,1.11,0,0,0,1.13,1.07c.61,0,1.49,0,1.62-.68.37-1.81,1.72-1.46,2.94-1.46-.72-2-.93-2.06-2.31-.89a.6.6,0,0,1-1.06-.22C29.55,71,29.22,70,30,70c1.22,0,.85-.77,1-1.31.67-2.29,1.69-3.06,3.66-2.73.26.14.75.12.47.64l-.29,3.15c1.26-.56,1.07-2.25,2.37-2.57a2.94,2.94,0,0,1,3.1,1.2v0a2,2,0,0,1-.64,1.48c-.65.64-1.36,1.34-.8,2.44.24.47-.06.7-.46.82-.6.19-1.32.29-1,1.2S38,75.84,39,75.94c.13,0,.31-.07.37,0,2.74,2.35,5.31,1.52,8-.68a3.46,3.46,0,0,1-1.88,2.47c-1.14.83-1.2,1.5,0,2.25,1,.84.08,1.77.18,2.66-.33,1.3.1,3.3-2.59,2.56a5.82,5.82,0,0,0,.13-5.56c-.59,1.74-1.77,3-2,4.72C38,83,35.25,81,32.25,79.41c-3.48-1.87-6.73-4.16-10.36-5.76Z" transform="translate(6.05)"/><path class="cls-6" d="M35.16,66.57l-.47-.64c0-.12,0-.24,0-.37-.06-1.31.55-2.25,1.86-2.25.94,0,.9,1,.88,1.78C37.4,66.63,36.51,67,35.16,66.57Z" transform="translate(6.05)"/><path class="cls-6" d="M2.64,49.16a1,1,0,0,1,1.41-.45c.68.34.63.85.26,1.37s-.92,1-1.53.59S2.35,49.7,2.64,49.16Z" transform="translate(6.05)"/><path class="cls-6" d="M45.66,82.63c-.49-.38-.91-.85-.29-1.34s.14-.88.11-1.32a2.47,2.47,0,0,1,1.36,1.46C47.32,82.62,47,83.1,45.66,82.63Z" transform="translate(6.05)"/><path class="cls-6" d="M46.12,85c.31-.32.64-.94,1.13-.63s.4,1,.08,1.49-.6.7-1,.45S45.91,85.46,46.12,85Z" transform="translate(6.05)"/><path class="cls-6" d="M40.34,68.35c.49-.81.77-1.81,2.14-2.17-.34,1.29-.29,2.58-2.15,2.15Z" transform="translate(6.05)"/><path class="cls-6" d="M10.71,60.31c.34-.47.43-1.28,1.33-.93a.86.86,0,0,1,.63.85.87.87,0,0,1-.37.57c-.72.5-1.12-.14-1.59-.52Z" transform="translate(6.05)"/><path class="cls-6" d="M15.53,65.31c.43.39.2.77,0,1.13s-.64.61-1,.21a.77.77,0,0,1-.09-1.14A.88.88,0,0,1,15.53,65.31Z" transform="translate(6.05)"/><path class="cls-6" d="M20,61.1a.55.55,0,0,1,.36.89c-.35.53-.9.23-1.34.06s-.68-.45-.39-.87S19.57,61.14,20,61.1Z" transform="translate(6.05)"/><path class="cls-6" d="M14.57,61.4a1,1,0,0,1-.15-1.17.69.69,0,0,1,1-.18c.52.3.35.71.09,1.08S15,61.65,14.57,61.4Z" transform="translate(6.05)"/><path class="cls-6" d="M-5.88,54c.24-.38.48-.72.92-.5s.33.61.13.95-.44.83-1,.48S-6,54.29-5.88,54Z" transform="translate(6.05)"/><path class="cls-6" d="M24.47,58.79c.41.27.36.6.16,1s-.44.49-.76.3a.76.76,0,0,1-.23-1.13A.58.58,0,0,1,24.47,58.79Z" transform="translate(6.05)"/><path class="cls-6" d="M11.93,64.35c.14-.2.3-.44.57-.26a1,1,0,0,1,.38,1.26c-.1.28-.41.24-.61.11A.88.88,0,0,1,11.93,64.35Z" transform="translate(6.05)"/><path class="cls-6" d="M28,67.74c.24-.4.54-.54.85-.35s.31.64.06,1a.52.52,0,0,1-.81.13A.54.54,0,0,1,28,67.74Z" transform="translate(6.05)"/><path class="cls-6" d="M1.07,55.58a.64.64,0,0,1-.87.19c-.35-.22-.18-.53,0-.78A.56.56,0,0,1,1,54.73C1.26,54.9,1.32,55.19,1.07,55.58Z" transform="translate(6.05)"/><path class="cls-6" d="M10.71,60.28c-.31.45-.56,1.11-1.27.47-.14-.13-.25-.55-.16-.67.56-.72,1,.08,1.43.23Z" transform="translate(6.05)"/><path class="cls-6" d="M-1.42,42.49c.25-.28.49-.5.79-.16a.69.69,0,0,1,0,.87.48.48,0,0,1-.79.09C-1.69,43-1.52,42.73-1.42,42.49Z" transform="translate(6.05)"/><path class="cls-6" d="M4.91,45.11a.68.68,0,0,1-.22-1A.47.47,0,0,1,5.43,44a.54.54,0,0,1,.17.78C5.45,45,5.28,45.24,4.91,45.11Z" transform="translate(6.05)"/><path class="cls-6" d="M27.25,55.4a.5.5,0,0,1,.76-.16.67.67,0,0,1,.28.93c-.15.28-.42.19-.63.09S27.06,55.83,27.25,55.4Z" transform="translate(6.05)"/><path class="cls-6" d="M27.16,64.76a.65.65,0,0,1,.13.81.55.55,0,0,1-.77.22c-.33-.19-.24-.5-.08-.77S26.81,64.56,27.16,64.76Z" transform="translate(6.05)"/><path class="cls-6" d="M18.19,66.38l-.2.3c-.77-.73-.48-1.43,0-2.21C18.61,65.12,17.85,65.79,18.19,66.38Z" transform="translate(6.05)"/><path class="cls-6" d="M-.41,47.34c-.2-.15-.4-.32-.22-.58a.55.55,0,0,1,.77-.18A.53.53,0,0,1,.28,47C.19,47.37-.08,47.45-.41,47.34Z" transform="translate(6.05)"/></g><path class="cls-7" d="M58.86,47.13,43.21,31.32a2.89,2.89,0,0,0-4.1,0L23.46,47.13a2.89,2.89,0,0,0,0,4.06L39.11,67a2.89,2.89,0,0,0,4.1,0L58.86,51.19A2.89,2.89,0,0,0,58.86,47.13Z" transform="translate(6.05)"/><path class="cls-8" d="M57.93,46.3,43.14,31.36a2.79,2.79,0,0,0-4,0L24.39,46.3a2.78,2.78,0,0,0,0,3.91L39.18,65.15a2.79,2.79,0,0,0,4,0L57.93,50.21A2.78,2.78,0,0,0,57.93,46.3Z" transform="translate(6.05)"/><path class="cls-9" d="M43.62,31.84a3.48,3.48,0,0,0-2.46-.95V48.25H59a2.14,2.14,0,0,0-.66-1.51Z" transform="translate(6.05)"/><path class="cls-10" d="M23.29,48.25A2.12,2.12,0,0,0,24,49.77l14.75,14.9a3.45,3.45,0,0,0,2.45,1V48.25Z" transform="translate(6.05)"/><path class="cls-11" d="M41.81,57.63l8.93-8.83a.76.76,0,0,0,0-1.08l-8.93-8.83a.75.75,0,0,0-1.07,0l-8.92,8.83a.76.76,0,0,0,0,1.08l8.92,8.83A.75.75,0,0,0,41.81,57.63Z" transform="translate(6.05)"/><path class="cls-12" d="M41.77,56.46l7.78-7.7a.7.7,0,0,0,0-1l-7.78-7.7a.69.69,0,0,0-1,0L33,47.76a.7.7,0,0,0,0,1l7.78,7.7A.69.69,0,0,0,41.77,56.46Z" transform="translate(6.05)"/><path class="cls-13" d="M70.44,23.44,44.9,8.7a7.27,7.27,0,0,0-7.3,0L12.06,23.44a7.31,7.31,0,0,0-3.64,6.32v2a7.31,7.31,0,0,1,3.64-6.32L37.6,10.7a7.27,7.27,0,0,1,7.3,0L70.44,25.44a7.31,7.31,0,0,1,3.64,6.32v-2A7.31,7.31,0,0,0,70.44,23.44Z" transform="translate(6.05)"/></g></g></svg>