<svg xmlns="http://www.w3.org/2000/svg" xmlns:xlink="http://www.w3.org/1999/xlink" viewBox="0 0 168.6 168.75"><defs><style>.cls-1{isolation:isolate;}.cls-2,.cls-49,.cls-54{fill:#61378f;}.cls-3{fill:url(#radial-gradient);}.cls-4{fill:url(#linear-gradient);}.cls-5{fill:url(#radial-gradient-2);}.cls-6{fill:url(#linear-gradient-2);}.cls-7{fill:url(#radial-gradient-3);}.cls-8{fill:url(#linear-gradient-3);}.cls-9{fill:url(#radial-gradient-4);}.cls-10{fill:url(#linear-gradient-4);}.cls-11{fill:url(#radial-gradient-5);}.cls-12{fill:url(#linear-gradient-5);}.cls-13{fill:url(#radial-gradient-6);}.cls-14{fill:url(#linear-gradient-6);}.cls-15{fill:url(#linear-gradient-7);}.cls-16{fill:url(#radial-gradient-7);}.cls-17{fill:url(#linear-gradient-8);}.cls-18{fill:url(#linear-gradient-9);}.cls-19{fill:url(#radial-gradient-8);}.cls-20{fill:url(#linear-gradient-10);}.cls-21{fill:url(#linear-gradient-11);}.cls-22{fill:url(#radial-gradient-9);}.cls-23{fill:url(#linear-gradient-12);}.cls-24{fill:url(#linear-gradient-13);}.cls-25{fill:url(#radial-gradient-10);}.cls-26{fill:url(#linear-gradient-14);}.cls-27{fill:url(#linear-gradient-15);}.cls-28{fill:url(#radial-gradient-11);}.cls-29{fill:url(#linear-gradient-16);}.cls-30{fill:url(#linear-gradient-17);}.cls-31{fill:url(#radial-gradient-12);}.cls-32{fill:url(#linear-gradient-18);}.cls-33{fill:url(#linear-gradient-19);}.cls-34{fill:url(#radial-gradient-13);}.cls-35{fill:url(#linear-gradient-20);}.cls-36{fill:url(#linear-gradient-21);}.cls-37{fill:url(#radial-gradient-14);}.cls-38{fill:url(#linear-gradient-22);}.cls-39{fill:url(#linear-gradient-23);}.cls-40{fill:url(#radial-gradient-15);}.cls-41{fill:url(#linear-gradient-24);}.cls-42{fill:url(#linear-gradient-25);}.cls-43{fill:url(#radial-gradient-16);}.cls-44{fill:url(#linear-gradient-26);}.cls-45{fill:url(#linear-gradient-27);}.cls-46,.cls-49,.cls-50,.cls-59,.cls-63,.cls-65,.cls-68,.cls-81,.cls-82,.cls-83,.cls-87,.cls-90{opacity:0.5;}.cls-46{fill:url(#linear-gradient-28);}.cls-47{fill:url(#linear-gradient-29);}.cls-48{fill:url(#linear-gradient-30);}.cls-50{fill:url(#radial-gradient-17);}.cls-51{fill:url(#radial-gradient-18);}.cls-52{fill:url(#linear-gradient-31);}.cls-53{fill:url(#linear-gradient-32);}.cls-54{opacity:0.2;}.cls-55,.cls-70,.cls-78,.cls-92{opacity:0.75;}.cls-55,.cls-78{mix-blend-mode:soft-light;}.cls-55{fill:url(#linear-gradient-33);}.cls-100,.cls-101,.cls-102,.cls-103,.cls-104,.cls-105,.cls-106,.cls-107,.cls-108,.cls-109,.cls-56,.cls-57,.cls-58,.cls-59,.cls-60,.cls-61,.cls-62,.cls-63,.cls-64,.cls-65,.cls-66,.cls-67,.cls-68,.cls-69,.cls-70,.cls-71,.cls-72,.cls-73,.cls-74,.cls-75,.cls-76,.cls-77,.cls-78,.cls-79,.cls-80,.cls-81,.cls-82,.cls-83,.cls-84,.cls-85,.cls-86,.cls-87,.cls-88,.cls-89,.cls-90,.cls-91,.cls-92,.cls-93,.cls-94,.cls-95,.cls-96,.cls-97,.cls-98,.cls-99{fill-rule:evenodd;}.cls-56{fill:url(#linear-gradient-34);}.cls-57{fill:#fff;}.cls-58{fill:#626c82;}.cls-100,.cls-101,.cls-102,.cls-103,.cls-104,.cls-105,.cls-106,.cls-107,.cls-108,.cls-109,.cls-59,.cls-60,.cls-61,.cls-64,.cls-65,.cls-69,.cls-71,.cls-73,.cls-74,.cls-75,.cls-77,.cls-79,.cls-82,.cls-84,.cls-87,.cls-88,.cls-90,.cls-92,.cls-94,.cls-95,.cls-96,.cls-97,.cls-98,.cls-99{mix-blend-mode:screen;}.cls-59{fill:url(#New_Gradient_Swatch_27);}.cls-60{fill:url(#radial-gradient-19);}.cls-61{fill:url(#radial-gradient-20);}.cls-62{fill:#b8dfff;}.cls-63,.cls-68,.cls-70,.cls-76,.cls-80,.cls-81,.cls-83,.cls-85,.cls-86,.cls-89,.cls-91,.cls-93{mix-blend-mode:multiply;}.cls-63{fill:url(#radial-gradient-21);}.cls-64{fill:url(#radial-gradient-22);}.cls-65{fill:url(#radial-gradient-23);}.cls-66{fill:#5a6fa7;}.cls-67{fill:#9bb0bc;}.cls-68{fill:url(#New_Gradient_Swatch_31);}.cls-69{fill:url(#radial-gradient-24);}.cls-70{fill:url(#radial-gradient-25);}.cls-71{fill:url(#radial-gradient-26);}.cls-72{fill:url(#radial-gradient-27);}.cls-73{fill:url(#radial-gradient-28);}.cls-74{fill:url(#New_Gradient_Swatch_31-2);}.cls-75{fill:url(#New_Gradient_Swatch_31-3);}.cls-76{opacity:0.35;fill:url(#New_Gradient_Swatch_31-4);}.cls-77{fill:url(#New_Gradient_Swatch_31-5);}.cls-78{fill:url(#linear-gradient-35);}.cls-79{fill:url(#New_Gradient_Swatch_31-6);}.cls-80{fill:url(#linear-gradient-36);}.cls-81{fill:url(#linear-gradient-37);}.cls-82{fill:url(#New_Gradient_Swatch_31-7);}.cls-83{fill:url(#linear-gradient-38);}.cls-84{fill:url(#radial-gradient-29);}.cls-85{fill:url(#radial-gradient-30);}.cls-86{fill:url(#radial-gradient-31);}.cls-87{fill:url(#radial-gradient-32);}.cls-88{opacity:0.3;fill:url(#radial-gradient-33);}.cls-89{fill:url(#radial-gradient-34);}.cls-90{fill:url(#radial-gradient-35);}.cls-91{fill:url(#radial-gradient-36);}.cls-92{fill:url(#radial-gradient-37);}.cls-93{fill:url(#radial-gradient-38);}.cls-94{fill:url(#radial-gradient-39);}.cls-95{opacity:0.45;fill:url(#New_Gradient_Swatch_34);}.cls-96{fill:url(#radial-gradient-40);}.cls-97{fill:url(#radial-gradient-41);}.cls-98{fill:url(#radial-gradient-42);}.cls-99{fill:url(#radial-gradient-43);}.cls-100{fill:url(#radial-gradient-44);}.cls-101{fill:url(#radial-gradient-45);}.cls-102{fill:url(#radial-gradient-46);}.cls-103{fill:url(#radial-gradient-47);}.cls-104{fill:url(#radial-gradient-48);}.cls-105{fill:url(#radial-gradient-49);}.cls-106{fill:url(#radial-gradient-50);}.cls-107{fill:url(#radial-gradient-51);}.cls-108{fill:url(#radial-gradient-52);}.cls-109{fill:url(#radial-gradient-53);}</style><radialGradient id="radial-gradient" cx="90.3" cy="26.31" r="18.99" gradientUnits="userSpaceOnUse"><stop offset="0.19" stop-color="#f1c4fc"/><stop offset="0.39" stop-color="#edbdfb"/><stop offset="0.66" stop-color="#e3abf8"/><stop offset="0.98" stop-color="#d18df3"/><stop offset="1" stop-color="#d08bf3"/></radialGradient><linearGradient id="linear-gradient" x1="84.3" y1="10.12" x2="84.3" y2="53.39" gradientUnits="userSpaceOnUse"><stop offset="0.11" stop-color="#fde9d2"/><stop offset="0.37" stop-color="#f0effe"/><stop offset="0.61" stop-color="#834cf8"/></linearGradient><radialGradient id="radial-gradient-2" cx="83.18" cy="165.56" r="46.95" gradientUnits="userSpaceOnUse"><stop offset="0.19" stop-color="#ddb08e"/><stop offset="0.3" stop-color="#d7a98e"/><stop offset="0.44" stop-color="#c6978d"/><stop offset="0.61" stop-color="#ab798d"/><stop offset="0.8" stop-color="#844f8c"/><stop offset="1" stop-color="#551c8b"/></radialGradient><linearGradient id="linear-gradient-2" x1="83.54" y1="144.28" x2="83.54" y2="169.73" gradientUnits="userSpaceOnUse"><stop offset="0.06" stop-color="#561585"/><stop offset="1" stop-color="#d770ef"/></linearGradient><radialGradient id="radial-gradient-3" cx="134.83" cy="161.2" r="32.05" xlink:href="#radial-gradient-2"/><linearGradient id="linear-gradient-3" x1="127.18" y1="146.12" x2="127.18" y2="160.3" xlink:href="#linear-gradient-2"/><radialGradient id="radial-gradient-4" cx="118.39" cy="150.55" r="24.86" xlink:href="#radial-gradient-2"/><linearGradient id="linear-gradient-4" x1="112.46" y1="138.85" x2="112.46" y2="149.85" xlink:href="#linear-gradient-2"/><radialGradient id="radial-gradient-5" cx="197.93" cy="161.2" r="32.05" gradientTransform="matrix(-1, 0, 0, 1, 230.18, 0)" xlink:href="#radial-gradient-2"/><linearGradient id="linear-gradient-5" x1="190.28" y1="146.12" x2="190.28" y2="160.3" gradientTransform="matrix(-1, 0, 0, 1, 230.18, 0)" xlink:href="#linear-gradient-2"/><radialGradient id="radial-gradient-6" cx="181.5" cy="150.55" r="24.86" gradientTransform="matrix(-1, 0, 0, 1, 230.18, 0)" xlink:href="#radial-gradient-2"/><linearGradient id="linear-gradient-6" x1="175.56" y1="138.85" x2="175.56" y2="149.85" gradientTransform="matrix(-1, 0, 0, 1, 230.18, 0)" xlink:href="#linear-gradient-2"/><linearGradient id="linear-gradient-7" x1="54.63" y1="65.27" x2="-8.64" y2="65.96" gradientUnits="userSpaceOnUse"><stop offset="0.06" stop-color="#d89df4"/><stop offset="0.49" stop-color="#d7a7f6"/><stop offset="0.89" stop-color="#7930f9"/></linearGradient><radialGradient id="radial-gradient-7" cx="29.36" cy="53.92" r="20.37" xlink:href="#radial-gradient"/><linearGradient id="linear-gradient-8" x1="-0.18" y1="27.05" x2="40.26" y2="77.35" xlink:href="#linear-gradient-7"/><linearGradient id="linear-gradient-9" x1="2.34" y1="53.04" x2="-70.31" y2="75.6" gradientTransform="matrix(0.93, -0.38, 0.38, 0.93, 57.89, -39.03)" xlink:href="#linear-gradient-7"/><radialGradient id="radial-gradient-8" cx="-378.06" cy="131.51" r="18.33" gradientTransform="matrix(0.99, -0.07, 0.07, 0.9, 402.63, -108.81)" xlink:href="#radial-gradient"/><linearGradient id="linear-gradient-10" x1="-61.08" y1="39.4" x2="-43.85" y2="81.65" gradientTransform="matrix(0.93, -0.38, 0.38, 0.93, 57.89, -39.03)" gradientUnits="userSpaceOnUse"><stop offset="0.06" stop-color="#f9fad4"/><stop offset="0.72" stop-color="#bf89e2"/><stop offset="1" stop-color="#7930f9"/></linearGradient><linearGradient id="linear-gradient-11" x1="46.1" y1="69.02" x2="1.12" y2="82.99" gradientTransform="matrix(0.99, -0.1, 0.1, 0.99, 32.08, -41)" xlink:href="#linear-gradient-7"/><radialGradient id="radial-gradient-9" cx="-251.3" cy="122.24" r="18.33" gradientTransform="matrix(0.48, 0.07, -0.22, 0.88, 204.9, -63.45)" xlink:href="#radial-gradient"/><linearGradient id="linear-gradient-12" x1="4.85" y1="56" x2="18.32" y2="89.04" gradientTransform="matrix(0.99, -0.1, 0.1, 0.99, 32.08, -41)" xlink:href="#linear-gradient-7"/><linearGradient id="linear-gradient-13" x1="5.82" y1="40.45" x2="42.11" y2="87.85" gradientTransform="matrix(1.04, 0.01, -0.01, 1.04, -1.17, 16.13)" xlink:href="#linear-gradient-7"/><radialGradient id="radial-gradient-10" cx="2.15" cy="79.4" r="6.47" gradientTransform="translate(18.71 -3.12) rotate(-2.84)" xlink:href="#radial-gradient"/><linearGradient id="linear-gradient-14" x1="15.56" y1="73.48" x2="32.68" y2="94.57" gradientUnits="userSpaceOnUse"><stop offset="0" stop-color="#d7a7f6"/><stop offset="0.89" stop-color="#7930f9"/></linearGradient><linearGradient id="linear-gradient-15" x1="-169.55" y1="1.85" x2="-134.14" y2="48.1" gradientTransform="translate(156.35 18.02) rotate(-23.48)" xlink:href="#linear-gradient-7"/><radialGradient id="radial-gradient-11" cx="-151.36" cy="18.7" r="6.02" gradientTransform="translate(156.35 18.02) rotate(-23.48)" xlink:href="#radial-gradient"/><linearGradient id="linear-gradient-16" x1="13.14" y1="94.77" x2="35.44" y2="105.32" xlink:href="#linear-gradient-7"/><linearGradient id="linear-gradient-17" x1="170.26" y1="65.27" x2="106.99" y2="65.96" gradientTransform="matrix(-1, 0, 0, 1, 284.23, 0)" xlink:href="#linear-gradient-7"/><radialGradient id="radial-gradient-12" cx="144.99" cy="53.92" r="20.37" gradientTransform="matrix(-1, 0, 0, 1, 284.23, 0)" xlink:href="#radial-gradient"/><linearGradient id="linear-gradient-18" x1="115.44" y1="27.05" x2="155.89" y2="77.35" gradientTransform="matrix(-1, 0, 0, 1, 284.23, 0)" xlink:href="#linear-gradient-7"/><linearGradient id="linear-gradient-19" x1="109.41" y1="96.7" x2="36.76" y2="119.27" gradientTransform="matrix(-0.93, -0.38, -0.38, 0.93, 226.34, -39.03)" xlink:href="#linear-gradient-7"/><radialGradient id="radial-gradient-13" cx="-261.94" cy="140.01" r="18.33" gradientTransform="matrix(-0.99, -0.07, -0.07, 0.9, -118.4, -108.81)" xlink:href="#radial-gradient"/><linearGradient id="linear-gradient-20" x1="45.99" y1="83.07" x2="63.21" y2="125.32" gradientTransform="matrix(-0.93, -0.38, -0.38, 0.93, 226.34, -39.03)" xlink:href="#linear-gradient-10"/><linearGradient id="linear-gradient-21" x1="161.09" y1="81.08" x2="116.12" y2="95.05" gradientTransform="matrix(-0.99, -0.1, -0.1, 0.99, 252.15, -41)" xlink:href="#linear-gradient-7"/><radialGradient id="radial-gradient-14" cx="-17.31" cy="103.62" r="18.33" gradientTransform="matrix(-0.48, 0.07, 0.22, 0.88, 79.33, -63.45)" xlink:href="#radial-gradient"/><linearGradient id="linear-gradient-22" x1="120.85" y1="68.17" x2="134.32" y2="101.21" gradientTransform="matrix(-0.99, -0.1, -0.1, 0.99, 252.15, -41)" xlink:href="#linear-gradient-7"/><linearGradient id="linear-gradient-23" x1="117.23" y1="39.75" x2="153.52" y2="87.14" gradientTransform="matrix(-1.04, 0.01, 0.01, 1.04, 285.41, 16.13)" xlink:href="#linear-gradient-7"/><radialGradient id="radial-gradient-15" cx="117.64" cy="85.13" r="6.47" gradientTransform="matrix(-1, -0.05, -0.05, 1, 265.52, -3.12)" xlink:href="#radial-gradient"/><linearGradient id="linear-gradient-24" x1="131.19" y1="73.48" x2="148.3" y2="94.57" gradientTransform="matrix(-1, 0, 0, 1, 284.23, 0)" xlink:href="#linear-gradient-14"/><linearGradient id="linear-gradient-25" x1="-63.5" y1="47.93" x2="-28.09" y2="94.18" gradientTransform="matrix(-0.92, -0.4, -0.4, 0.92, 127.88, 18.02)" xlink:href="#linear-gradient-7"/><radialGradient id="radial-gradient-16" cx="-45.31" cy="64.78" r="6.02" gradientTransform="matrix(-0.92, -0.4, -0.4, 0.92, 127.88, 18.02)" xlink:href="#radial-gradient"/><linearGradient id="linear-gradient-26" x1="128.77" y1="94.77" x2="151.07" y2="105.32" gradientTransform="matrix(-1, 0, 0, 1, 284.23, 0)" xlink:href="#linear-gradient-7"/><linearGradient id="linear-gradient-27" x1="84.43" y1="32.03" x2="84.43" y2="153.76" xlink:href="#linear-gradient"/><linearGradient id="linear-gradient-28" x1="60.26" y1="40.08" x2="114.53" y2="142.07" gradientUnits="userSpaceOnUse"><stop offset="0" stop-color="#fff"/><stop offset="0.22" stop-color="#c2c2ff" stop-opacity="0.88"/><stop offset="0.6" stop-color="#5b5bff" stop-opacity="0.68"/><stop offset="0.87" stop-color="#1919ff" stop-opacity="0.55"/><stop offset="1" stop-color="blue" stop-opacity="0.5"/></linearGradient><linearGradient id="linear-gradient-29" x1="84.43" y1="134.62" x2="84.43" y2="21.73" xlink:href="#linear-gradient"/><linearGradient id="linear-gradient-30" x1="62.06" y1="45.72" x2="103.24" y2="123.59" gradientUnits="userSpaceOnUse"><stop offset="0.06" stop-color="#d28bf5"/><stop offset="0.49" stop-color="#ab60f4"/><stop offset="0.89" stop-color="#6e32e0"/></linearGradient><radialGradient id="radial-gradient-17" cx="92.84" cy="70.01" r="21.23" gradientTransform="translate(120.28 -42.98) rotate(66.63)" xlink:href="#radial-gradient"/><radialGradient id="radial-gradient-18" cx="57.81" cy="49.87" r="62.65" xlink:href="#radial-gradient"/><linearGradient id="linear-gradient-31" x1="84.29" y1="23.33" x2="84.29" y2="56.03" xlink:href="#linear-gradient-2"/><linearGradient id="linear-gradient-32" x1="84.29" y1="52.34" x2="84.29" y2="7.21" xlink:href="#linear-gradient"/><linearGradient id="linear-gradient-33" x1="69.63" y1="46.29" x2="98.96" y2="46.29" gradientUnits="userSpaceOnUse"><stop offset="0" stop-color="#fff"/><stop offset="0.16" stop-color="#f0f5f8"/><stop offset="0.46" stop-color="#cadae6"/><stop offset="0.88" stop-color="#8cb0c8"/><stop offset="1" stop-color="#78a2bf"/></linearGradient><linearGradient id="linear-gradient-34" x1="103.89" y1="114.35" x2="55.36" y2="60.22" xlink:href="#linear-gradient-30"/><radialGradient id="New_Gradient_Swatch_27" cx="81.85" cy="64.17" r="52.56" gradientUnits="userSpaceOnUse"><stop offset="0" stop-color="#7ba0c6"/><stop offset="0.98" stop-color="#080819"/></radialGradient><radialGradient id="radial-gradient-19" cx="80.98" cy="65.73" r="28.29" gradientUnits="userSpaceOnUse"><stop offset="0" stop-color="#c4dcff"/><stop offset="1" stop-color="#b1cde6"/></radialGradient><radialGradient id="radial-gradient-20" cx="60.46" cy="76.81" r="20.58" gradientUnits="userSpaceOnUse"><stop offset="0" stop-color="#dde4e6"/><stop offset="1" stop-color="#4d65ab"/></radialGradient><radialGradient id="radial-gradient-21" cx="71.31" cy="94.84" r="25.45" gradientUnits="userSpaceOnUse"><stop offset="0" stop-color="#5a6fa7"/><stop offset="1" stop-color="#fff"/></radialGradient><radialGradient id="radial-gradient-22" cx="66.86" cy="111.42" r="27.41" gradientUnits="userSpaceOnUse"><stop offset="0" stop-color="#fff"/><stop offset="1" stop-color="#000800"/></radialGradient><radialGradient id="radial-gradient-23" cx="71.56" cy="112.84" r="19.85" gradientUnits="userSpaceOnUse"><stop offset="0" stop-color="#dde4e6"/><stop offset="1" stop-color="#0e131f"/></radialGradient><linearGradient id="New_Gradient_Swatch_31" x1="84.43" y1="72.77" x2="92.06" y2="72.77" gradientUnits="userSpaceOnUse"><stop offset="0" stop-color="#080819"/><stop offset="0.1" stop-color="#161727"/><stop offset="0.29" stop-color="#3a3e4e"/><stop offset="0.56" stop-color="#747c8b"/><stop offset="0.88" stop-color="#c3d2df"/><stop offset="1" stop-color="#e1f2ff"/></linearGradient><radialGradient id="radial-gradient-24" cx="107.55" cy="78.82" r="32.69" xlink:href="#radial-gradient-20"/><radialGradient id="radial-gradient-25" cx="109.85" cy="83.49" r="21.05" xlink:href="#radial-gradient-21"/><radialGradient id="radial-gradient-26" cx="104.73" cy="117.89" r="32.39" xlink:href="#radial-gradient-22"/><radialGradient id="radial-gradient-27" cx="100.82" cy="110.94" r="5.87" gradientUnits="userSpaceOnUse"><stop offset="0" stop-color="#d6f7ff"/><stop offset="1" stop-color="#6f8dab"/></radialGradient><radialGradient id="radial-gradient-28" cx="89.62" cy="116.14" r="12.34" xlink:href="#radial-gradient-23"/><linearGradient id="New_Gradient_Swatch_31-2" x1="58.95" y1="83.46" x2="82.02" y2="81.46" xlink:href="#New_Gradient_Swatch_31"/><linearGradient id="New_Gradient_Swatch_31-3" x1="73.01" y1="92.72" x2="85.26" y2="65.47" xlink:href="#New_Gradient_Swatch_31"/><linearGradient id="New_Gradient_Swatch_31-4" x1="60.55" y1="88.51" x2="74.86" y2="88.51" xlink:href="#New_Gradient_Swatch_31"/><linearGradient id="New_Gradient_Swatch_31-5" x1="69.67" y1="102.25" x2="74.86" y2="102.25" xlink:href="#New_Gradient_Swatch_31"/><linearGradient id="linear-gradient-35" x1="62.68" y1="115.29" x2="85.66" y2="100.19" xlink:href="#linear-gradient-33"/><linearGradient id="New_Gradient_Swatch_31-6" x1="90.35" y1="82.43" x2="108.32" y2="82.43" xlink:href="#New_Gradient_Swatch_31"/><linearGradient id="linear-gradient-36" x1="84.43" y1="73.91" x2="91.49" y2="73.91" xlink:href="#linear-gradient-33"/><linearGradient id="linear-gradient-37" x1="111.74" y1="77.52" x2="95.4" y2="94.04" xlink:href="#linear-gradient-33"/><linearGradient id="New_Gradient_Swatch_31-7" x1="94.01" y1="102.25" x2="99.2" y2="102.25" xlink:href="#New_Gradient_Swatch_31"/><linearGradient id="linear-gradient-38" x1="103.69" y1="114.02" x2="81.61" y2="98.88" xlink:href="#linear-gradient-33"/><radialGradient id="radial-gradient-29" cx="71.64" cy="77.84" r="19.86" gradientUnits="userSpaceOnUse"><stop offset="0" stop-color="#5a6fa7"/><stop offset="1" stop-color="#000800"/></radialGradient><radialGradient id="radial-gradient-30" cx="85.63" cy="103.89" r="26.95" xlink:href="#radial-gradient-21"/><radialGradient id="radial-gradient-31" cx="74.22" cy="91" r="25.29" xlink:href="#radial-gradient-21"/><radialGradient id="radial-gradient-32" cx="85.53" cy="90.62" r="21.97" xlink:href="#radial-gradient-29"/><radialGradient id="radial-gradient-33" cx="101.64" cy="103.08" r="24.68" xlink:href="#radial-gradient-29"/><radialGradient id="radial-gradient-34" cx="79.79" cy="96.56" r="19.76" xlink:href="#radial-gradient-21"/><radialGradient id="radial-gradient-35" cx="100" cy="98.71" r="22.33" xlink:href="#radial-gradient-29"/><radialGradient id="radial-gradient-36" cx="84.96" cy="90.49" r="22.1" xlink:href="#radial-gradient-21"/><radialGradient id="radial-gradient-37" cx="99.47" cy="70.67" r="35.71" xlink:href="#radial-gradient-29"/><radialGradient id="radial-gradient-38" cx="85.02" cy="90.65" r="22.39" xlink:href="#radial-gradient-21"/><radialGradient id="radial-gradient-39" cx="109.29" cy="89.03" r="21.32" gradientUnits="userSpaceOnUse"><stop offset="0" stop-color="#5aa6a7"/><stop offset="1" stop-color="#000800"/></radialGradient><radialGradient id="New_Gradient_Swatch_34" cx="83.91" cy="104.9" r="20.12" gradientUnits="userSpaceOnUse"><stop offset="0" stop-color="#6e99ba"/><stop offset="1" stop-color="#000800"/></radialGradient><radialGradient id="radial-gradient-40" cx="73.65" cy="107.3" r="21.27" xlink:href="#radial-gradient-39"/><radialGradient id="radial-gradient-41" cx="84.37" cy="91.8" r="21.34" xlink:href="#radial-gradient-39"/><radialGradient id="radial-gradient-42" cx="73.22" cy="72.14" r="68.72" gradientUnits="userSpaceOnUse"><stop offset="0" stop-color="#91a0c7"/><stop offset="1" stop-color="#000800"/></radialGradient><radialGradient id="radial-gradient-43" cx="76.31" cy="70.85" r="18.27" gradientUnits="userSpaceOnUse"><stop offset="0" stop-color="#cff3ff"/><stop offset="1" stop-color="#000800"/></radialGradient><radialGradient id="radial-gradient-44" cx="74.71" cy="99.24" r="17.68" xlink:href="#radial-gradient-22"/><radialGradient id="radial-gradient-45" cx="70.27" cy="104.7" r="18.43" xlink:href="#radial-gradient-22"/><radialGradient id="radial-gradient-46" cx="98.23" cy="108" r="20.86" xlink:href="#radial-gradient-29"/><radialGradient id="radial-gradient-47" cx="72.04" cy="109.15" r="18.19" xlink:href="#radial-gradient-29"/><radialGradient id="radial-gradient-48" cx="64.24" cy="80.63" r="8.97" xlink:href="#radial-gradient-22"/><radialGradient id="radial-gradient-49" cx="76.86" cy="70.77" r="20.52" gradientUnits="userSpaceOnUse"><stop offset="0" stop-color="#c4f0ff"/><stop offset="1" stop-color="#000800"/></radialGradient><radialGradient id="radial-gradient-50" cx="110.19" cy="78.95" r="26.35" xlink:href="#radial-gradient-22"/><radialGradient id="radial-gradient-51" cx="65.38" cy="73.15" r="19.36" gradientUnits="userSpaceOnUse"><stop offset="0" stop-color="#dde4e6"/><stop offset="1"/></radialGradient><radialGradient id="radial-gradient-52" cx="83.86" cy="69.13" r="49.9" gradientUnits="userSpaceOnUse"><stop offset="0" stop-color="#becae8"/><stop offset="1" stop-color="#000800"/></radialGradient><radialGradient id="radial-gradient-53" cx="80.31" cy="81.72" r="39.64" gradientUnits="userSpaceOnUse"><stop offset="0.34" stop-color="#080819"/><stop offset="0.42" stop-color="#0b0d1e"/><stop offset="0.53" stop-color="#151a2d"/><stop offset="0.64" stop-color="#262f46"/><stop offset="0.76" stop-color="#3d4e68"/><stop offset="0.88" stop-color="#5a7494"/><stop offset="1" stop-color="#7ba0c6"/></radialGradient></defs><g class="cls-1"><g id="Layer_2" data-name="Layer 2"><g id="Layer_1-2" data-name="Layer 1"><path class="cls-2" d="M83.75.45l-11.45,52h24L84.85.45A.56.56,0,0,0,83.75.45Z"/><path class="cls-3" d="M87.15,45.92l8.42,6.57h.73L84.89.62A.59.59,0,0,0,84.3.14V14.82Z"/><path class="cls-4" d="M84,4.12,73.91,50.05H94.69L84.59,4.12A.3.3,0,0,0,84,4.12Z"/><polygon class="cls-5" points="54.95 118.44 54.95 151.98 83.54 168.75 112.13 151.98 112.13 118.44 83.54 101.67 54.95 118.44"/><polygon class="cls-6" points="57.11 119.7 57.11 150.71 83.54 166.22 109.97 150.71 109.97 119.7 83.54 104.2 57.11 119.7"/><polygon class="cls-7" points="133.61 161.96 120.75 152.31 120.75 120.15 133.61 120.15 133.61 161.96"/><polygon class="cls-8" points="132 158.34 122.35 151.11 122.35 123.77 132 123.77 132 158.34"/><polygon class="cls-9" points="117.45 151.14 107.47 143.66 107.47 118.71 117.45 118.71 117.45 151.14"/><polygon class="cls-10" points="116.2 148.33 108.72 142.72 108.72 121.51 116.2 121.51 116.2 148.33"/><polygon class="cls-11" points="33.47 161.96 46.33 152.31 46.33 120.15 33.47 120.15 33.47 161.96"/><polygon class="cls-12" points="35.08 158.34 44.72 151.11 44.72 123.77 35.08 123.77 35.08 158.34"/><polygon class="cls-13" points="49.63 151.14 59.61 143.66 59.61 118.71 49.63 118.71 49.63 151.14"/><polygon class="cls-14" points="50.88 148.33 58.36 142.72 58.36 121.51 50.88 121.51 50.88 148.33"/><path class="cls-15" d="M59.63,66.42l-51.7-29a2.45,2.45,0,0,0-3.15.6C0,44.64-13.29,70.45,44.19,94.12Z"/><path class="cls-16" d="M52.73,62.55,7.93,37.38A2.54,2.54,0,0,0,6,37.18l3.9,5.65L50.35,70.76Z"/><path class="cls-17" d="M60.3,68.66,10,40.41A2.4,2.4,0,0,0,7,41C2.32,47.48-10.62,72.58,45.28,95.6Z"/><path class="cls-18" d="M62.49,46.54,19.59,19.88a1.49,1.49,0,0,0-2.25.45C14.81,26,8.85,48.2,55.23,70.31Z"/><path class="cls-19" d="M56.77,43,19.59,19.88a1.76,1.76,0,0,0-1.47-.22l3.76,5,34.37,25.4Z"/><path class="cls-20" d="M63.33,48.5,21.6,22.58a1.45,1.45,0,0,0-2.19.43C17,28.55,11.16,50.12,56.27,71.62Z"/><path class="cls-21" d="M66.6,40.71,54.18,9.34c-.25-.64-.78-.59-1.16.13-2.76,5.13-11.71,25.62,3.59,53.09Z"/><path class="cls-22" d="M64.94,36.52,54.18,9.34c-.14-.36-.37-.48-.62-.4l.34,5.33,8.82,29Z"/><path class="cls-23" d="M66.44,42.71,54.36,12.21c-.25-.63-.76-.58-1.13.12-2.68,5-11.38,24.92,3.49,51.63Z"/><path class="cls-24" d="M32,75.64,17,73.22a1.63,1.63,0,0,0-1.86,1.2c-1.49,5.52-5.15,25.4,17.28,30a1.67,1.67,0,0,0,2-1.7l-1-25.48A1.65,1.65,0,0,0,32,75.64Z"/><path class="cls-25" d="M33.4,77.2A1.65,1.65,0,0,0,32,75.64L17,73.22a1.68,1.68,0,0,0-.92.14l2.74,3.83,14.63,1.74Z"/><path class="cls-26" d="M33.47,76.93l-15-2.41a1.64,1.64,0,0,0-1.86,1.19c-1.48,5.53-5.15,25.41,17.29,30a1.67,1.67,0,0,0,2-1.69l-1-25.48A1.65,1.65,0,0,0,33.47,76.93Z"/><path class="cls-27" d="M32.52,91.79l-15.3,4.27a1.3,1.3,0,0,0-.84,1.48c.61,5,4.4,23.35,27.22,17.57a1.41,1.41,0,0,0,.69-2.09L34.15,92.67A1.47,1.47,0,0,0,32.52,91.79Z"/><path class="cls-28" d="M17.22,96.06a1,1,0,0,0-.62.48l3.63,1.26L33.3,94.67l-1-2.81Z"/><path class="cls-29" d="M33.7,92.68l-14.48,4a1.23,1.23,0,0,0-.79,1.4c.58,4.72,4.16,22.08,25.75,16.62a1.34,1.34,0,0,0,.65-2l-9.6-19.25A1.38,1.38,0,0,0,33.7,92.68Z"/><path class="cls-30" d="M109,66.42l51.7-29a2.47,2.47,0,0,1,3.16.6c4.76,6.66,18.06,32.47-39.42,56.14Z"/><path class="cls-31" d="M115.87,62.55l44.81-25.17a2.51,2.51,0,0,1,1.93-.2l-3.9,5.65L118.25,70.76Z"/><path class="cls-32" d="M108.3,68.66l50.29-28.25a2.4,2.4,0,0,1,3.06.59c4.63,6.48,17.57,31.58-38.33,54.6Z"/><path class="cls-33" d="M106.11,46.54,149,19.88a1.49,1.49,0,0,1,2.25.45c2.53,5.69,8.49,27.87-37.89,50Z"/><path class="cls-34" d="M111.83,43,149,19.88a1.76,1.76,0,0,1,1.47-.22l-3.76,5-34.37,25.4Z"/><path class="cls-35" d="M105.27,48.5,147,22.58a1.45,1.45,0,0,1,2.19.43c2.45,5.54,8.25,27.11-36.86,48.61Z"/><path class="cls-36" d="M102,40.71,114.42,9.34c.25-.64.78-.59,1.17.13,2.75,5.13,11.7,25.62-3.6,53.09Z"/><path class="cls-37" d="M103.66,36.52,114.42,9.34c.14-.36.38-.48.62-.4l-.34,5.33-8.82,29Z"/><path class="cls-38" d="M101.16,42.71l12.08-30.5c.25-.63.76-.58,1.13.12,2.69,5,11.39,24.92-3.49,51.63Z"/><path class="cls-39" d="M136.6,75.64l15-2.42a1.63,1.63,0,0,1,1.86,1.2c1.49,5.52,5.15,25.4-17.28,30a1.67,1.67,0,0,1-2-1.7l1-25.48A1.66,1.66,0,0,1,136.6,75.64Z"/><path class="cls-40" d="M135.2,77.2a1.66,1.66,0,0,1,1.4-1.56l15-2.42a1.68,1.68,0,0,1,.92.14l-2.73,3.83-14.64,1.74Z"/><path class="cls-41" d="M135.13,76.93l15-2.41A1.64,1.64,0,0,1,152,75.71c1.48,5.53,5.15,25.41-17.28,30a1.66,1.66,0,0,1-2-1.69l1-25.48A1.65,1.65,0,0,1,135.13,76.93Z"/><path class="cls-42" d="M136.08,91.79l15.3,4.27a1.3,1.3,0,0,1,.84,1.48c-.61,5-4.4,23.35-27.22,17.57a1.41,1.41,0,0,1-.69-2.09l10.15-20.35A1.45,1.45,0,0,1,136.08,91.79Z"/><path class="cls-43" d="M151.38,96.06a1.08,1.08,0,0,1,.63.48l-3.64,1.26L135.3,94.67l1-2.81Z"/><path class="cls-44" d="M134.9,92.68l14.48,4a1.22,1.22,0,0,1,.79,1.4c-.57,4.72-4.16,22.08-25.75,16.62a1.34,1.34,0,0,1-.65-2l9.6-19.25A1.38,1.38,0,0,1,134.9,92.68Z"/><path class="cls-45" d="M138.51,115V61a7.3,7.3,0,0,0-3.65-6.32l-46.78-27a7.25,7.25,0,0,0-7.29,0L34,54.7A7.3,7.3,0,0,0,30.36,61v54A7.28,7.28,0,0,0,34,121.35l46.78,27a7.3,7.3,0,0,0,7.29,0l46.78-27A7.28,7.28,0,0,0,138.51,115Z"/><path class="cls-46" d="M76.89,29.94,65.65,39.27a9.27,9.27,0,0,0-1.94,12l44.37,71a9.08,9.08,0,0,0,10.53,3.82l17-5.57L89.21,147.71l13.09-12.48a9.08,9.08,0,0,0,1.36-11.51L58.42,53.65a9.26,9.26,0,0,0-10.71-3.77L35.14,54.05Z"/><path class="cls-47" d="M127.47,108.66V67.39a7.31,7.31,0,0,0-3.65-6.32L88.08,40.44a7.25,7.25,0,0,0-7.29,0L45,61.07a7.32,7.32,0,0,0-3.64,6.32v41.27A7.3,7.3,0,0,0,45,115l35.75,20.64a7.3,7.3,0,0,0,7.29,0L123.82,115A7.29,7.29,0,0,0,127.47,108.66Z"/><path class="cls-48" d="M125.26,107.39V68.66a7.29,7.29,0,0,0-3.64-6.31L88.08,43a7.25,7.25,0,0,0-7.29,0L47.25,62.35a7.28,7.28,0,0,0-3.65,6.31v38.73a7.3,7.3,0,0,0,3.65,6.32l33.54,19.36a7.3,7.3,0,0,0,7.29,0l33.54-19.36A7.31,7.31,0,0,0,125.26,107.39Z"/><path class="cls-49" d="M89.21,132.41l31.27-18a9.55,9.55,0,0,0,3.54-3.57c-3.3,2.13-23.21,14.51-48.3,8A61.22,61.22,0,0,1,43.6,97.68v8.4a9.58,9.58,0,0,0,4.78,8.28l31.27,18A9.55,9.55,0,0,0,89.21,132.41Z"/><ellipse class="cls-50" cx="92.84" cy="70.01" rx="17.7" ry="24.25" transform="translate(-8.25 127.46) rotate(-66.63)"/><path class="cls-51" d="M122.69,57.8,89.21,38.47a9.55,9.55,0,0,0-9.56,0L46.18,57.8a9.55,9.55,0,0,0-4.78,8.28V68.7a9.55,9.55,0,0,1,4.78-8.28L79.65,41.09a9.55,9.55,0,0,1,9.56,0l33.48,19.33a9.55,9.55,0,0,1,4.78,8.28V66.08A9.55,9.55,0,0,0,122.69,57.8Z"/><path class="cls-52" d="M85.64,54.71,97.81,50a3.76,3.76,0,0,0,2.3-4.43L95.29,26.44a3.75,3.75,0,0,0-3.65-2.85H77a3.75,3.75,0,0,0-3.65,2.85L68.47,45.61A3.77,3.77,0,0,0,70.78,50L83,54.71A3.67,3.67,0,0,0,85.64,54.71Z"/><path class="cls-53" d="M85.54,52.23l11.19-4.3a3.46,3.46,0,0,0,2.12-4.08L94.41,26.21a3.47,3.47,0,0,0-3.36-2.62H77.53a3.45,3.45,0,0,0-3.35,2.62L69.74,43.85a3.46,3.46,0,0,0,2.11,4.08l11.2,4.3A3.56,3.56,0,0,0,85.54,52.23Z"/><path class="cls-54" d="M93.48,43.16H75.11a1.86,1.86,0,0,1-1.66-2.23l2.1-15.79a1.79,1.79,0,0,1,1.66-1.64H91.37A1.77,1.77,0,0,1,93,25.14l2.11,15.79A1.86,1.86,0,0,1,93.48,43.16Z"/><path class="cls-55" d="M69.74,43.85a3.46,3.46,0,0,0,2.11,4.08l3.06,1.17c7.23-4,15.79-2.21,20.5-.66l1.32-.51a3.46,3.46,0,0,0,2.12-4.08l-.09-.36H69.83Z"/><path class="cls-56" d="M97.4,95.21l13-12a1,1,0,0,0-.58-1.78l-17-2A1,1,0,0,1,92,78.9L84.91,63.36a1,1,0,0,0-1.87,0L75.91,78.9a1,1,0,0,1-.81.59l-17,2a1,1,0,0,0-.58,1.78L70.12,94.82a1,1,0,0,1,.31,1l-3.37,16.76a1,1,0,0,0,1.51,1.1l14.9-8.39a1.06,1.06,0,0,1,1,0l14.89,8.39a1,1,0,0,0,1.52-1.1L97.4,95.21Z"/><polygon class="cls-57" points="108.32 82.78 109.43 82.42 108.8 81.98 108.32 82.78 108.32 82.78"/><polygon class="cls-58" points="109.43 82.42 109.17 83.14 108.32 82.78 109.43 82.42 109.43 82.42"/><polygon class="cls-59" points="84.43 103.52 99.11 111.78 99.89 111.8 100.1 111.06 96.78 94.55 109.17 83.14 109.43 82.42 108.8 81.98 92.06 80.04 85.05 64.72 84.43 64.25 83.82 64.72 76.8 80.04 60.07 81.98 59.43 82.42 59.7 83.14 72.09 94.55 68.77 111.06 68.98 111.8 69.75 111.78 84.43 103.52 84.43 103.52"/><polygon class="cls-57" points="84.43 64.25 84.43 65.42 83.82 64.72 84.43 64.25 84.43 64.25"/><polygon class="cls-60" points="83.82 64.72 76.8 80.04 77.38 80.82 84.43 65.42 83.82 64.72 83.82 64.72"/><polygon class="cls-57" points="60.55 82.78 59.43 82.42 60.07 81.98 60.55 82.78 60.55 82.78"/><polygon class="cls-61" points="60.07 81.98 60.55 82.78 77.38 80.82 76.8 80.04 60.07 81.98 60.07 81.98"/><polygon class="cls-62" points="59.43 82.42 59.7 83.14 60.55 82.78 59.43 82.42 59.43 82.42"/><polygon class="cls-63" points="72.09 94.55 73.01 94.25 60.55 82.78 59.7 83.14 72.09 94.55 72.09 94.55"/><polygon class="cls-64" points="73.01 94.25 69.67 110.86 68.77 111.06 72.09 94.55 73.01 94.25 73.01 94.25"/><polygon class="cls-57" points="69.67 110.86 68.98 111.8 68.77 111.06 69.67 110.86 69.67 110.86"/><polygon class="cls-65" points="84.43 102.55 84.43 103.52 69.75 111.78 69.67 110.86 84.43 102.55 84.43 102.55"/><polygon class="cls-66" points="69.75 111.78 69.67 110.86 68.98 111.8 69.75 111.78 69.75 111.78"/><polygon class="cls-67" points="84.43 64.25 84.43 65.42 85.05 64.72 84.43 64.25 84.43 64.25"/><polygon class="cls-68" points="85.05 64.72 92.06 80.04 91.49 80.82 84.43 65.42 85.05 64.72 85.05 64.72"/><polygon class="cls-69" points="108.8 81.98 108.32 82.78 91.49 80.82 92.06 80.04 108.8 81.98 108.8 81.98"/><polygon class="cls-70" points="96.78 94.55 95.86 94.25 108.32 82.78 109.17 83.14 96.78 94.55 96.78 94.55"/><polygon class="cls-71" points="95.86 94.25 99.2 110.86 100.1 111.06 96.78 94.55 95.86 94.25 95.86 94.25"/><polygon class="cls-72" points="99.2 110.86 99.89 111.8 100.1 111.06 99.2 110.86 99.2 110.86"/><polygon class="cls-73" points="84.43 102.55 84.43 103.52 99.11 111.78 99.2 110.86 84.43 102.55 84.43 102.55"/><polygon class="cls-66" points="99.11 111.78 99.2 110.86 99.89 111.8 99.11 111.78 99.11 111.78"/><polygon class="cls-74" points="60.55 82.78 64.41 84.03 78.52 82.39 77.38 80.82 60.55 82.78 60.55 82.78"/><polygon class="cls-75" points="77.38 80.82 84.43 65.42 84.43 69.49 78.52 82.39 77.38 80.82 77.38 80.82"/><polygon class="cls-76" points="64.41 84.03 60.55 82.78 73.01 94.25 74.86 93.65 64.41 84.03 64.41 84.03"/><polygon class="cls-77" points="73.01 94.25 69.67 110.86 72.06 107.57 74.86 93.65 73.01 94.25 73.01 94.25"/><polygon class="cls-78" points="84.43 100.61 84.43 102.55 69.67 110.86 72.06 107.57 84.43 100.61 84.43 100.61"/><polygon class="cls-79" points="108.32 82.78 104.46 84.03 90.35 82.39 91.49 80.82 108.32 82.78 108.32 82.78"/><polygon class="cls-80" points="91.49 80.82 84.43 65.42 84.43 69.49 90.35 82.39 91.49 80.82 91.49 80.82"/><polygon class="cls-81" points="104.46 84.03 108.32 82.78 95.86 94.25 94.01 93.65 104.46 84.03 104.46 84.03"/><polygon class="cls-82" points="95.86 94.25 99.2 110.86 96.81 107.57 94.01 93.65 95.86 94.25 95.86 94.25"/><polygon class="cls-83" points="84.43 100.61 84.43 102.55 99.2 110.86 96.81 107.57 84.43 100.61 84.43 100.61"/><polygon class="cls-84" points="84.43 90.54 78.52 82.39 64.41 84.03 84.43 90.54 84.43 90.54"/><polygon class="cls-85" points="84.43 90.54 64.41 84.03 74.86 93.65 84.43 90.54 84.43 90.54"/><polygon class="cls-86" points="84.43 90.54 74.86 93.65 72.06 107.57 84.43 90.54 84.43 90.54"/><polygon class="cls-87" points="84.43 90.54 72.06 107.57 84.43 100.61 84.43 90.54 84.43 90.54"/><polygon class="cls-88" points="84.43 90.54 84.43 100.61 96.81 107.57 84.43 90.54 84.43 90.54"/><polygon class="cls-89" points="84.43 90.54 96.81 107.57 94.01 93.65 84.43 90.54 84.43 90.54"/><polygon class="cls-90" points="84.43 90.54 94.01 93.65 104.46 84.03 84.43 90.54 84.43 90.54"/><polygon class="cls-91" points="84.43 90.54 104.46 84.03 90.35 82.39 84.43 90.54 84.43 90.54"/><polygon class="cls-92" points="84.43 90.54 90.35 82.39 84.43 69.49 84.43 90.54 84.43 90.54"/><polygon class="cls-93" points="84.43 90.54 84.43 69.49 78.52 82.39 84.43 90.54 84.43 90.54"/><polygon class="cls-94" points="90.16 92.4 94.01 93.65 104.46 84.03 90.16 92.4 90.16 92.4"/><polygon class="cls-95" points="84.43 94.57 84.43 100.61 96.81 107.57 84.43 94.57 84.43 94.57"/><polygon class="cls-96" points="84.43 90.54 80.77 91.73 72.06 107.57 84.43 90.54 84.43 90.54"/><polygon class="cls-97" points="84.43 90.54 87.76 85.96 84.43 69.49 84.43 90.54 84.43 90.54"/><polygon class="cls-98" points="94.01 93.65 104.46 84.03 90.35 82.39 84.43 69.49 78.52 82.39 64.41 84.03 74.86 93.65 72.06 107.57 84.43 100.61 96.81 107.57 94.01 93.65 94.01 93.65"/><polygon class="cls-99" points="61.02 82.72 77.25 80.65 84.21 65.9 77.45 80.93 61.02 82.72 61.02 82.72"/><polygon class="cls-100" points="70.51 89.64 74.64 93.72 73.69 99.44 75.07 93.58 70.51 89.64 70.51 89.64"/><polygon class="cls-101" points="70.71 92.13 72.89 94.29 70.19 108.27 73.12 94.21 70.71 92.13 70.71 92.13"/><polygon class="cls-102" points="86.71 101.89 96.8 107.72 98.45 109.83 96.94 107.58 94.68 96.97 96.59 107.28 86.71 101.89 86.71 101.89"/><polygon class="cls-103" points="73.62 99.79 71.94 107.56 70.17 110.17 72.17 107.68 78.98 103.67 72.25 107.31 73.62 99.79 73.62 99.79"/><polygon class="cls-104" points="68.3 87.61 64.27 84.07 60.9 82.89 64.35 83.92 69.78 83.41 64.57 84.08 68.3 87.61 68.3 87.61"/><polygon class="cls-105" points="69.78 83.41 78.4 82.24 84.08 70.26 78.61 82.52 69.78 83.41 69.78 83.41"/><polygon class="cls-106" points="87.44 71.99 91.39 80.96 107.12 82.64 91.58 80.69 87.44 71.99 87.44 71.99"/><polygon class="cls-107" points="72.09 94.55 73.01 94.25 60.55 82.78 59.7 83.14 72.09 94.55 72.09 94.55"/><polygon class="cls-108" points="73.87 98.57 99.96 83.51 90.35 82.39 84.43 69.49 78.52 82.39 64.41 84.03 74.86 93.65 73.87 98.57 73.87 98.57"/><polygon class="cls-109" points="94.01 93.65 104.46 84.03 90.35 82.39 84.43 69.49 78.52 82.39 64.41 84.03 74.86 93.65 72.06 107.57 84.43 100.61 96.81 107.57 94.01 93.65 94.01 93.65"/></g></g></g></svg>