<svg xmlns="http://www.w3.org/2000/svg" xmlns:xlink="http://www.w3.org/1999/xlink" viewBox="0 0 132 93.01"><defs><style>.cls-1{fill:url(#linear-gradient);}.cls-2{fill:url(#linear-gradient-2);}.cls-3{fill:url(#linear-gradient-3);}.cls-4{fill:url(#linear-gradient-4);}.cls-5{fill:url(#linear-gradient-5);}.cls-6{fill:url(#linear-gradient-6);}.cls-7{fill:url(#linear-gradient-7);}.cls-8{fill:url(#linear-gradient-8);}.cls-9{fill:url(#linear-gradient-9);}.cls-10{fill:url(#linear-gradient-10);}.cls-11{fill:url(#linear-gradient-11);}.cls-12{fill:url(#linear-gradient-12);}.cls-13{fill:url(#linear-gradient-13);}.cls-14,.cls-17,.cls-18,.cls-19,.cls-20,.cls-22,.cls-23,.cls-25{opacity:0.5;}.cls-14{fill:url(#linear-gradient-14);}.cls-15{fill:url(#linear-gradient-15);}.cls-16{fill:url(#linear-gradient-16);}.cls-17{fill:#e38628;}.cls-18{fill:#fbeebe;}.cls-19{fill:url(#linear-gradient-17);}.cls-20{fill:#c46f1f;}.cls-21{fill:url(#radial-gradient);}.cls-22{fill:url(#linear-gradient-18);}.cls-23{fill:url(#linear-gradient-19);}.cls-24{fill:url(#radial-gradient-2);}.cls-25{fill:#fff;}</style><linearGradient id="linear-gradient" x1="20.58" y1="7.93" x2="75.91" y2="80.2" gradientTransform="matrix(0.97, 0.23, -0.23, 0.97, -16.49, -32.69)" gradientUnits="userSpaceOnUse"><stop offset="0.06" stop-color="#d89830"/><stop offset="0.49" stop-color="#b78835"/><stop offset="0.89" stop-color="#c67c2c"/></linearGradient><linearGradient id="linear-gradient-2" x1="35.08" y1="29.24" x2="4.55" y2="5.47" gradientUnits="userSpaceOnUse"><stop offset="0.06" stop-color="#fff" stop-opacity="0"/><stop offset="1" stop-color="#fbeebe" stop-opacity="0.5"/></linearGradient><linearGradient id="linear-gradient-3" x1="6.4" y1="10.79" x2="45.96" y2="56.68" gradientUnits="userSpaceOnUse"><stop offset="0.06" stop-color="#f7cc89"/><stop offset="0.49" stop-color="#f5bd4e"/><stop offset="0.89" stop-color="#e3983e"/></linearGradient><linearGradient id="linear-gradient-4" x1="302.3" y1="-59.12" x2="357.63" y2="13.15" gradientTransform="matrix(-0.97, 0.23, 0.23, 0.97, 438.09, -32.69)" xlink:href="#linear-gradient"/><linearGradient id="linear-gradient-5" x1="324.67" y1="30.24" x2="294.15" y2="6.47" gradientTransform="matrix(-1, 0, 0, 1, 421.59, 0)" xlink:href="#linear-gradient-2"/><linearGradient id="linear-gradient-6" x1="123.35" y1="12.06" x2="88.01" y2="57.69" xlink:href="#linear-gradient-3"/><linearGradient id="linear-gradient-7" x1="9.01" y1="22.57" x2="36.69" y2="58.73" gradientTransform="matrix(1.04, 0.01, -0.01, 1.04, -5.69, 1.25)" xlink:href="#linear-gradient"/><linearGradient id="linear-gradient-8" x1="6.72" y1="23.3" x2="19.39" y2="39.86" gradientTransform="translate(3.45 5.91) rotate(-2.84)" xlink:href="#linear-gradient-2"/><linearGradient id="linear-gradient-9" x1="15.95" y1="41.41" x2="36.26" y2="66.46" xlink:href="#linear-gradient-3"/><linearGradient id="linear-gradient-10" x1="288.04" y1="21.76" x2="315.72" y2="57.92" gradientTransform="matrix(-1.04, 0.01, 0.01, 1.04, 427.29, 1.25)" xlink:href="#linear-gradient"/><linearGradient id="linear-gradient-11" x1="295.91" y1="38.66" x2="308.58" y2="55.21" gradientTransform="matrix(-1, -0.05, -0.05, 1, 418.15, 5.91)" xlink:href="#linear-gradient-2"/><linearGradient id="linear-gradient-12" x1="115.43" y1="42.82" x2="101.45" y2="61.28" xlink:href="#linear-gradient-3"/><linearGradient id="linear-gradient-13" x1="39.33" y1="-6.08" x2="85.75" y2="85.43" gradientUnits="userSpaceOnUse"><stop offset="0.44" stop-color="#ffcc7b"/><stop offset="0.52" stop-color="#f7daa6"/><stop offset="0.61" stop-color="#e3983e"/></linearGradient><linearGradient id="linear-gradient-14" x1="47.56" y1="9.93" x2="88.96" y2="87.73" gradientUnits="userSpaceOnUse"><stop offset="0" stop-color="#fff"/><stop offset="0.01" stop-color="#fffefd"/><stop offset="0.5" stop-color="#fdd596"/><stop offset="0.84" stop-color="#fcba54"/><stop offset="1" stop-color="#fbb03b"/></linearGradient><linearGradient id="linear-gradient-15" x1="66" y1="80.73" x2="66" y2="10.57" xlink:href="#linear-gradient-3"/><linearGradient id="linear-gradient-16" x1="47.77" y1="28.28" x2="110.07" y2="90.58" xlink:href="#linear-gradient-3"/><linearGradient id="linear-gradient-17" x1="35.32" y1="18.66" x2="91.49" y2="22.88" gradientUnits="userSpaceOnUse"><stop offset="0" stop-color="#f7d997"/><stop offset="0.23" stop-color="#f0bf78"/><stop offset="0.75" stop-color="#e28837"/><stop offset="1" stop-color="#dd721e"/></linearGradient><radialGradient id="radial-gradient" cx="58.35" cy="39.72" r="24.65" gradientUnits="userSpaceOnUse"><stop offset="0.06" stop-color="#f7c179"/><stop offset="1" stop-color="#fbb03b"/></radialGradient><linearGradient id="linear-gradient-18" x1="65.38" y1="37.94" x2="81.14" y2="37.94" xlink:href="#linear-gradient-14"/><linearGradient id="linear-gradient-19" x1="65.92" y1="61.74" x2="65.92" y2="48.28" xlink:href="#linear-gradient-14"/><radialGradient id="radial-gradient-2" cx="61.71" cy="41.63" r="12.29" gradientUnits="userSpaceOnUse"><stop offset="0.06" stop-color="#f7c179"/><stop offset="1" stop-color="#f1b556"/></radialGradient></defs><g id="Layer_2" data-name="Layer 2"><g id="Layer_1-2" data-name="Layer 1"><path class="cls-1" d="M45.49,31,6.05,8.84a1.89,1.89,0,0,0-2.41.46C0,14.38-10.14,34.07,33.71,52.13Z"/><path class="cls-2" d="M40.23,28,6.05,8.84a1.92,1.92,0,0,0-1.48-.15l3,4.31L38.41,34.31Z"/><path class="cls-3" d="M46,32.7,7.64,11.15a1.84,1.84,0,0,0-2.34.45c-3.53,5-13.4,24.09,29.24,41.65Z"/><path class="cls-4" d="M86.51,32,126,9.84a1.89,1.89,0,0,1,2.41.46c3.63,5.08,13.78,24.77-30.07,42.83Z"/><path class="cls-5" d="M91.77,29,126,9.84a1.92,1.92,0,0,1,1.48-.15l-3,4.31L93.59,35.31Z"/><path class="cls-6" d="M86,33.7l38.36-21.55a1.84,1.84,0,0,1,2.34.45c3.53,5,13.4,24.09-29.24,41.65Z"/><path class="cls-7" d="M24.42,38,13,36.18a1.26,1.26,0,0,0-1.42.92C10.43,41.31,7.64,56.48,24.75,60a1.27,1.27,0,0,0,1.52-1.29l-.79-19.44A1.26,1.26,0,0,0,24.42,38Z"/><path class="cls-8" d="M25.48,39.22A1.26,1.26,0,0,0,24.42,38L13,36.18a1.2,1.2,0,0,0-.7.11l2.09,2.92,11.16,1.33Z"/><path class="cls-9" d="M25.53,39,14.1,37.17a1.26,1.26,0,0,0-1.42.91C11.55,42.3,8.75,57.47,25.87,60.94a1.27,1.27,0,0,0,1.52-1.29L26.6,40.21A1.26,1.26,0,0,0,25.53,39Z"/><path class="cls-10" d="M107.58,39,119,37.18a1.26,1.26,0,0,1,1.42.92c1.13,4.21,3.92,19.38-13.19,22.85a1.27,1.27,0,0,1-1.52-1.29l.79-19.44A1.26,1.26,0,0,1,107.58,39Z"/><path class="cls-11" d="M106.52,40.22A1.26,1.26,0,0,1,107.58,39L119,37.18a1.2,1.2,0,0,1,.7.11l-2.09,2.92-11.16,1.33Z"/><path class="cls-12" d="M106.47,40l11.43-1.85a1.26,1.26,0,0,1,1.42.91c1.13,4.22,3.93,19.39-13.19,22.86a1.27,1.27,0,0,1-1.52-1.29l.79-19.44A1.26,1.26,0,0,1,106.47,40Z"/><path class="cls-13" d="M107.25,66.11V26.9a7.29,7.29,0,0,0-3.65-6.32L69.65,1a7.27,7.27,0,0,0-7.3,0L28.4,20.58a7.29,7.29,0,0,0-3.65,6.32V66.11a7.28,7.28,0,0,0,3.65,6.31L62.35,92a7.32,7.32,0,0,0,7.3,0L103.6,72.42A7.28,7.28,0,0,0,107.25,66.11Z"/><path class="cls-14" d="M60.25,2.19,51.67,9.31a7.07,7.07,0,0,0-1.48,9.19L84,72.65a6.92,6.92,0,0,0,8,2.92l13-4.25L69.65,92l10-9.52a6.94,6.94,0,0,0,1-8.78L46.16,20.28A7.08,7.08,0,0,0,38,17.4L28.4,20.58Z"/><path class="cls-15" d="M98.83,61.25V31.76a7.31,7.31,0,0,0-3.64-6.32L69.65,10.7a7.32,7.32,0,0,0-7.3,0L36.81,25.44a7.31,7.31,0,0,0-3.64,6.32V61.25a7.29,7.29,0,0,0,3.64,6.31L62.35,82.31a7.32,7.32,0,0,0,7.3,0L95.19,67.56A7.29,7.29,0,0,0,98.83,61.25Z"/><path class="cls-16" d="M97.15,60.28V32.73a7.3,7.3,0,0,0-3.65-6.32L69.65,12.64a7.32,7.32,0,0,0-7.3,0L38.5,26.41a7.3,7.3,0,0,0-3.65,6.32V60.28a7.28,7.28,0,0,0,3.65,6.31L62.35,80.36a7.27,7.27,0,0,0,7.3,0L93.5,66.59A7.28,7.28,0,0,0,97.15,60.28Z"/><path class="cls-17" d="M69.65,80.36,93.5,66.59a7.26,7.26,0,0,0,2.7-2.72C93.68,65.49,78.5,74.94,59.35,70a46.67,46.67,0,0,1-24.5-16.08v6.41a7.28,7.28,0,0,0,3.65,6.31L62.35,80.36A7.27,7.27,0,0,0,69.65,80.36Z"/><ellipse class="cls-18" cx="72.41" cy="32.75" rx="13.5" ry="18.5" transform="translate(13.62 86.24) rotate(-66.63)"/><path class="cls-19" d="M95.19,23.44,69.65,8.7a7.27,7.27,0,0,0-7.3,0L36.81,23.44a7.31,7.31,0,0,0-3.64,6.32v2a7.31,7.31,0,0,1,3.64-6.32L62.35,10.7a7.27,7.27,0,0,1,7.3,0L95.19,25.44a7.31,7.31,0,0,1,3.64,6.32v-2A7.31,7.31,0,0,0,95.19,23.44Z"/><path class="cls-20" d="M64.54,30.43,48.46,41.92a1.45,1.45,0,0,0-.53,1.64l6.13,18.56a1.44,1.44,0,0,0,1.38,1H75.33a1.45,1.45,0,0,0,1.38-1l6.13-18.56a1.47,1.47,0,0,0-.53-1.64L66.23,30.43A1.46,1.46,0,0,0,64.54,30.43Z"/><path class="cls-21" d="M64.21,30.67l-13.9,10.1A2,2,0,0,0,49.58,43l5.31,16.34a2,2,0,0,0,1.9,1.38H74a2,2,0,0,0,1.89-1.38L81.18,43a2,2,0,0,0-.72-2.24l-13.9-10.1A2,2,0,0,0,64.21,30.67Z"/><path class="cls-22" d="M81.14,41.89a2.19,2.19,0,0,0-.83-1.22L66.7,30.78a2.19,2.19,0,0,0-1.32-.43V45.54Z"/><path class="cls-23" d="M65.38,45.54,56,60.49a2.19,2.19,0,0,0,.95.24H73.8a2.24,2.24,0,0,0,2-1.33Z"/><path class="cls-20" d="M64.53,38.85,58,43.6a1.47,1.47,0,0,0-.53,1.63L60,52.92a1.44,1.44,0,0,0,1.38,1h8.08a1.46,1.46,0,0,0,1.39-1l2.5-7.69a1.47,1.47,0,0,0-.53-1.63l-6.54-4.75A1.46,1.46,0,0,0,64.53,38.85Z"/><path class="cls-24" d="M64.53,39.85l-5.6,4.06a1.46,1.46,0,0,0-.52,1.63l2.13,6.57a1.47,1.47,0,0,0,1.39,1h6.91a1.45,1.45,0,0,0,1.38-1l2.14-6.57a1.45,1.45,0,0,0-.53-1.63l-5.59-4.06A1.46,1.46,0,0,0,64.53,39.85Z"/><path class="cls-25" d="M62.58,47.23c-.22-2.67-.45-5.34-.67-8l-1,8.33-8,.93,8,.4,1,8.31,1-8.31,8-.4Z"/></g></g></svg>