<svg xmlns="http://www.w3.org/2000/svg" xmlns:xlink="http://www.w3.org/1999/xlink" viewBox="0 0 132 94.75"><defs><style>.cls-1{fill:url(#linear-gradient);}.cls-2{fill:url(#linear-gradient-2);}.cls-3{fill:url(#linear-gradient-3);}.cls-4{fill:url(#linear-gradient-4);}.cls-5{fill:url(#linear-gradient-5);}.cls-6{fill:url(#linear-gradient-6);}.cls-7{fill:url(#linear-gradient-7);}.cls-8{fill:url(#linear-gradient-8);}.cls-9{fill:url(#linear-gradient-9);}.cls-10{fill:url(#linear-gradient-10);}.cls-11{fill:url(#linear-gradient-11);}.cls-12{fill:url(#linear-gradient-12);}.cls-13{fill:url(#linear-gradient-13);}.cls-14{fill:url(#linear-gradient-14);}.cls-15{fill:url(#linear-gradient-15);}.cls-16{fill:url(#linear-gradient-16);}.cls-17{fill:url(#linear-gradient-17);}.cls-18{fill:url(#linear-gradient-18);}.cls-19{fill:url(#linear-gradient-19);}.cls-20,.cls-23,.cls-24,.cls-25,.cls-26,.cls-28,.cls-29,.cls-31,.cls-34{opacity:0.5;}.cls-20{fill:url(#linear-gradient-20);}.cls-21{fill:url(#linear-gradient-21);}.cls-22{fill:url(#linear-gradient-22);}.cls-23{fill:#e38628;}.cls-24{fill:#fbeebe;}.cls-25{fill:url(#linear-gradient-23);}.cls-26{fill:#c46f1f;}.cls-27{fill:url(#radial-gradient);}.cls-28{fill:url(#linear-gradient-24);}.cls-29{fill:url(#linear-gradient-25);}.cls-30{fill:url(#linear-gradient-26);}.cls-31{fill:#fff;}.cls-32{fill:url(#linear-gradient-27);}.cls-33{fill:url(#linear-gradient-28);}.cls-34{fill:url(#linear-gradient-29);}</style><linearGradient id="linear-gradient" x1="15.39" y1="-35.6" x2="70.72" y2="36.66" gradientTransform="matrix(0.97, 0.23, -0.23, 0.97, -21.68, 12.59)" gradientUnits="userSpaceOnUse"><stop offset="0.06" stop-color="#d89830"/><stop offset="0.49" stop-color="#b78835"/><stop offset="0.89" stop-color="#c67c2c"/></linearGradient><linearGradient id="linear-gradient-2" x1="35.08" y1="30.98" x2="4.55" y2="7.21" gradientUnits="userSpaceOnUse"><stop offset="0.06" stop-color="#fff" stop-opacity="0"/><stop offset="1" stop-color="#fbeebe" stop-opacity="0.5"/></linearGradient><linearGradient id="linear-gradient-3" x1="5.65" y1="15.09" x2="44.6" y2="54.05" gradientUnits="userSpaceOnUse"><stop offset="0.06" stop-color="#f7cc89"/><stop offset="0.49" stop-color="#f5bd4e"/><stop offset="0.89" stop-color="#e3983e"/></linearGradient><linearGradient id="linear-gradient-4" x1="-77.43" y1="-12.14" x2="-22.1" y2="60.12" gradientTransform="matrix(-0.97, 0.23, 0.23, 0.97, 57.95, 12.59)" xlink:href="#linear-gradient"/><linearGradient id="linear-gradient-5" x1="-60.65" y1="31.98" x2="-91.18" y2="8.21" gradientTransform="matrix(-1, 0, 0, 1, 36.27, 0)" xlink:href="#linear-gradient-2"/><linearGradient id="linear-gradient-6" x1="125.18" y1="15.39" x2="84.04" y2="60.29" xlink:href="#linear-gradient-3"/><linearGradient id="linear-gradient-7" x1="1.98" y1="23.11" x2="29.67" y2="59.26" gradientTransform="matrix(1.04, 0.01, -0.01, 1.04, 1.6, 2.49)" xlink:href="#linear-gradient"/><linearGradient id="linear-gradient-8" x1="6.44" y1="34.6" x2="19.11" y2="51.15" gradientTransform="translate(3.17 -3.64) rotate(-2.84)" xlink:href="#linear-gradient-2"/><linearGradient id="linear-gradient-9" x1="13.2" y1="41.56" x2="30.98" y2="59.34" xlink:href="#linear-gradient-3"/><linearGradient id="linear-gradient-10" x1="-90.25" y1="24.65" x2="-62.57" y2="60.8" gradientTransform="matrix(-1.04, 0.01, 0.01, 1.04, 34.67, 2.49)" xlink:href="#linear-gradient"/><linearGradient id="linear-gradient-11" x1="-89.22" y1="30.85" x2="-76.55" y2="47.4" gradientTransform="matrix(-1, -0.05, -0.05, 1, 33.1, -3.64)" xlink:href="#linear-gradient-2"/><linearGradient id="linear-gradient-12" x1="118.56" y1="44.18" x2="98.18" y2="61" xlink:href="#linear-gradient-3"/><linearGradient id="linear-gradient-13" x1="-31.26" y1="-0.5" x2="-4.25" y2="34.78" gradientTransform="translate(30.08 36.65) rotate(-23.48)" xlink:href="#linear-gradient"/><linearGradient id="linear-gradient-14" x1="-23.42" y1="3.41" x2="-12.2" y2="18.05" gradientTransform="translate(30.08 36.65) rotate(-23.48)" xlink:href="#linear-gradient-2"/><linearGradient id="linear-gradient-15" x1="18.08" y1="55.47" x2="34.96" y2="72.35" xlink:href="#linear-gradient-3"/><linearGradient id="linear-gradient-16" x1="198.45" y1="101.49" x2="225.47" y2="136.77" gradientTransform="matrix(-0.92, -0.4, -0.4, 0.92, 353.08, 36.65)" xlink:href="#linear-gradient"/><linearGradient id="linear-gradient-17" x1="206.3" y1="105.39" x2="217.51" y2="120.04" gradientTransform="matrix(-0.92, -0.4, -0.4, 0.92, 353.08, 36.65)" xlink:href="#linear-gradient-2"/><linearGradient id="linear-gradient-18" x1="115.89" y1="59.08" x2="91.37" y2="70.94" xlink:href="#linear-gradient-3"/><linearGradient id="linear-gradient-19" x1="39.33" y1="-4.34" x2="85.75" y2="87.18" gradientUnits="userSpaceOnUse"><stop offset="0.44" stop-color="#ffcc7b"/><stop offset="0.52" stop-color="#f7daa6"/><stop offset="0.61" stop-color="#e3983e"/></linearGradient><linearGradient id="linear-gradient-20" x1="47.56" y1="11.67" x2="88.96" y2="89.47" gradientUnits="userSpaceOnUse"><stop offset="0" stop-color="#fff"/><stop offset="0.01" stop-color="#fffefd"/><stop offset="0.5" stop-color="#fdd596"/><stop offset="0.84" stop-color="#fcba54"/><stop offset="1" stop-color="#fbb03b"/></linearGradient><linearGradient id="linear-gradient-21" x1="66" y1="83.58" x2="66" y2="10.65" xlink:href="#linear-gradient-3"/><linearGradient id="linear-gradient-22" x1="43.71" y1="25.96" x2="112.72" y2="94.97" xlink:href="#linear-gradient-3"/><linearGradient id="linear-gradient-23" x1="145.93" y1="63.25" x2="1.67" y2="0.22" gradientUnits="userSpaceOnUse"><stop offset="0" stop-color="#f7d997"/><stop offset="0.23" stop-color="#f0bf78"/><stop offset="0.75" stop-color="#e28837"/><stop offset="1" stop-color="#dd721e"/></linearGradient><radialGradient id="radial-gradient" cx="56.89" cy="40.46" r="26.78" gradientUnits="userSpaceOnUse"><stop offset="0.06" stop-color="#f7c179"/><stop offset="1" stop-color="#fbb03b"/></radialGradient><linearGradient id="linear-gradient-24" x1="65.38" y1="39.69" x2="81.14" y2="39.69" xlink:href="#linear-gradient-20"/><linearGradient id="linear-gradient-25" x1="65.92" y1="62.09" x2="65.92" y2="47.28" xlink:href="#linear-gradient-20"/><linearGradient id="linear-gradient-26" x1="71.37" y1="54.98" x2="59.9" y2="43.64" xlink:href="#linear-gradient-3"/><linearGradient id="linear-gradient-27" x1="66.22" y1="-0.42" x2="66.22" y2="19.29" xlink:href="#linear-gradient-3"/><linearGradient id="linear-gradient-28" x1="66.22" y1="21.21" x2="66.22" y2="-7.55" gradientUnits="userSpaceOnUse"><stop offset="0.06" stop-color="#f9be50"/><stop offset="0.49" stop-color="#f5bd4e"/><stop offset="0.89" stop-color="#e3983e"/></linearGradient><linearGradient id="linear-gradient-29" x1="66.22" y1="-2.79" x2="66.22" y2="20.52" gradientUnits="userSpaceOnUse"><stop offset="0" stop-color="#fff"/><stop offset="0.12" stop-color="#faece0"/><stop offset="0.56" stop-color="#ebab79"/><stop offset="0.86" stop-color="#e18237"/><stop offset="1" stop-color="#dd721e"/></linearGradient></defs><g id="Layer_2" data-name="Layer 2"><g id="Layer_1-2" data-name="Layer 1"><path class="cls-1" d="M45.49,32.74,6.05,10.59a1.88,1.88,0,0,0-2.41.46C0,16.13-10.14,35.82,33.71,53.87Z"/><path class="cls-2" d="M40.23,29.79,6.05,10.59a1.92,1.92,0,0,0-1.48-.15l3,4.31,30.87,21.3Z"/><path class="cls-3" d="M46,34.45,7.64,12.9a1.82,1.82,0,0,0-2.34.45C1.77,18.29-8.1,37.44,34.54,55Z"/><path class="cls-4" d="M86.51,33.74,126,11.59a1.88,1.88,0,0,1,2.41.46c3.63,5.08,13.78,24.77-30.07,42.82Z"/><path class="cls-5" d="M91.77,30.79,126,11.59a1.92,1.92,0,0,1,1.48-.15l-3,4.31L93.59,37.05Z"/><path class="cls-6" d="M86,35.45,124.36,13.9a1.82,1.82,0,0,1,2.34.45c3.53,4.94,13.4,24.09-29.24,41.65Z"/><path class="cls-7" d="M24.42,39.77,13,37.93a1.25,1.25,0,0,0-1.42.91C10.43,43.06,7.64,58.22,24.75,61.7a1.28,1.28,0,0,0,1.52-1.3L25.48,41A1.28,1.28,0,0,0,24.42,39.77Z"/><path class="cls-8" d="M25.48,41a1.28,1.28,0,0,0-1.06-1.2L13,37.93a1.28,1.28,0,0,0-.7.1L14.37,41l11.16,1.32Z"/><path class="cls-9" d="M25.53,40.76,14.1,38.92a1.25,1.25,0,0,0-1.42.91C11.55,44,8.75,59.21,25.87,62.69a1.28,1.28,0,0,0,1.52-1.3L26.6,42A1.28,1.28,0,0,0,25.53,40.76Z"/><path class="cls-10" d="M107.58,40.77,119,38.93a1.25,1.25,0,0,1,1.42.91c1.13,4.22,3.92,19.38-13.19,22.86a1.28,1.28,0,0,1-1.52-1.3L106.52,42A1.28,1.28,0,0,1,107.58,40.77Z"/><path class="cls-11" d="M106.52,42a1.28,1.28,0,0,1,1.06-1.2L119,38.93a1.28,1.28,0,0,1,.7.1L117.63,42l-11.16,1.32Z"/><path class="cls-12" d="M106.47,41.76l11.43-1.84a1.25,1.25,0,0,1,1.42.91c1.13,4.21,3.93,19.38-13.19,22.86a1.28,1.28,0,0,1-1.52-1.3L105.4,43A1.28,1.28,0,0,1,106.47,41.76Z"/><path class="cls-13" d="M24.81,52.09,13.13,55.35a1,1,0,0,0-.63,1.13c.46,3.8,3.35,17.81,20.76,13.41a1.08,1.08,0,0,0,.53-1.6L26.05,52.77A1.13,1.13,0,0,0,24.81,52.09Z"/><path class="cls-14" d="M13.13,55.35a.82.82,0,0,0-.47.37l2.77,1,10-2.38-.81-2.15Z"/><path class="cls-15" d="M25.71,52.77l-11,3.08a.94.94,0,0,0-.6,1.07c.44,3.6,3.18,16.85,19.64,12.69a1,1,0,0,0,.5-1.52L26.88,53.41A1.07,1.07,0,0,0,25.71,52.77Z"/><path class="cls-16" d="M107,54.09l11.68,3.26a1,1,0,0,1,.63,1.13c-.46,3.8-3.35,17.81-20.76,13.41a1.08,1.08,0,0,1-.53-1.6l7.74-15.52A1.13,1.13,0,0,1,107,54.09Z"/><path class="cls-17" d="M118.7,57.35a.82.82,0,0,1,.47.37l-2.77,1-10-2.38.8-2.15Z"/><path class="cls-18" d="M106.12,54.77l11,3.08a.93.93,0,0,1,.6,1.07c-.44,3.6-3.17,16.85-19.64,12.69a1,1,0,0,1-.5-1.52L105,55.41A1.07,1.07,0,0,1,106.12,54.77Z"/><path class="cls-19" d="M107.25,67.85V28.64a7.28,7.28,0,0,0-3.65-6.31L69.65,2.72a7.32,7.32,0,0,0-7.3,0L28.4,22.33a7.28,7.28,0,0,0-3.65,6.31V67.85a7.29,7.29,0,0,0,3.65,6.32l34,19.6a7.27,7.27,0,0,0,7.3,0l33.95-19.6A7.29,7.29,0,0,0,107.25,67.85Z"/><path class="cls-20" d="M60.25,3.94l-8.58,7.11a7.08,7.08,0,0,0-1.48,9.2L84,74.4a6.93,6.93,0,0,0,8,2.91l13-4.25L69.65,93.77l10-9.52a6.93,6.93,0,0,0,1-8.77L46.16,22A7.09,7.09,0,0,0,38,19.14L28.4,22.33Z"/><path class="cls-21" d="M98.83,63V33.5a7.29,7.29,0,0,0-3.64-6.31L69.65,12.44a7.32,7.32,0,0,0-7.3,0L36.81,27.19a7.29,7.29,0,0,0-3.64,6.31V63a7.3,7.3,0,0,0,3.64,6.32L62.35,84.05a7.27,7.27,0,0,0,7.3,0L95.19,69.31A7.3,7.3,0,0,0,98.83,63Z"/><path class="cls-22" d="M97.15,62V34.48a7.29,7.29,0,0,0-3.65-6.32L69.65,14.39a7.27,7.27,0,0,0-7.3,0L38.5,28.16a7.29,7.29,0,0,0-3.65,6.32V62a7.3,7.3,0,0,0,3.65,6.32L62.35,82.11a7.32,7.32,0,0,0,7.3,0L93.5,68.34A7.3,7.3,0,0,0,97.15,62Z"/><path class="cls-23" d="M69.65,82.11,93.5,68.34a7.26,7.26,0,0,0,2.7-2.72c-2.52,1.62-17.7,11.06-36.85,6.08a46.67,46.67,0,0,1-24.5-16.08V62a7.3,7.3,0,0,0,3.65,6.32L62.35,82.11A7.32,7.32,0,0,0,69.65,82.11Z"/><ellipse class="cls-24" cx="72.41" cy="34.5" rx="13.5" ry="18.5" transform="translate(12.02 87.29) rotate(-66.63)"/><path class="cls-25" d="M95.19,25.19,69.65,10.44a7.32,7.32,0,0,0-7.3,0L36.81,25.19a7.29,7.29,0,0,0-3.64,6.31v2a7.29,7.29,0,0,1,3.64-6.31L62.35,12.44a7.32,7.32,0,0,1,7.3,0L95.19,27.19a7.29,7.29,0,0,1,3.64,6.31v-2A7.29,7.29,0,0,0,95.19,25.19Z"/><path class="cls-26" d="M64.54,32.18,48.46,43.67a1.45,1.45,0,0,0-.53,1.64l6.13,18.55a1.44,1.44,0,0,0,1.38,1H75.33a1.45,1.45,0,0,0,1.38-1l6.13-18.55a1.46,1.46,0,0,0-.53-1.64L66.23,32.18A1.46,1.46,0,0,0,64.54,32.18Z"/><path class="cls-27" d="M64.18,32.44,50.34,42.49a2.05,2.05,0,0,0-.74,2.3l5.28,16.26a2,2,0,0,0,1.95,1.42h17.1a2.06,2.06,0,0,0,2-1.42l5.28-16.26a2.05,2.05,0,0,0-.74-2.3L66.59,32.44A2.06,2.06,0,0,0,64.18,32.44Z"/><path class="cls-28" d="M81.14,43.63a2.23,2.23,0,0,0-.83-1.22L66.7,32.52a2.25,2.25,0,0,0-1.32-.42V47.28Z"/><path class="cls-29" d="M65.38,47.28,56,62.23a2.19,2.19,0,0,0,.95.24H73.8a2.22,2.22,0,0,0,2-1.33Z"/><path class="cls-26" d="M64.53,40.6,58,45.35A1.47,1.47,0,0,0,57.46,47L60,54.66a1.45,1.45,0,0,0,1.38,1h8.08a1.47,1.47,0,0,0,1.39-1L73.31,47a1.47,1.47,0,0,0-.53-1.63L66.24,40.6A1.46,1.46,0,0,0,64.53,40.6Z"/><path class="cls-30" d="M64.53,41.59l-5.6,4.07a1.45,1.45,0,0,0-.52,1.62l2.13,6.58a1.46,1.46,0,0,0,1.39,1h6.91a1.44,1.44,0,0,0,1.38-1l2.14-6.58a1.44,1.44,0,0,0-.53-1.62l-5.59-4.07A1.46,1.46,0,0,0,64.53,41.59Z"/><path class="cls-31" d="M62.58,49c-.22-2.67-.45-5.33-.67-8l-1,8.33-8,.94,8,.4,1,8.3,1-8.3,8-.4Z"/><path class="cls-32" d="M67.25,23.81l9.28-3.57a2.87,2.87,0,0,0,1.76-3.38L74.61,2.24A2.87,2.87,0,0,0,71.82.07H60.62a2.87,2.87,0,0,0-2.79,2.17L54.15,16.86a2.87,2.87,0,0,0,1.76,3.38l9.28,3.57A2.92,2.92,0,0,0,67.25,23.81Z"/><path class="cls-33" d="M67.17,21.91l8.54-3.28a2.63,2.63,0,0,0,1.61-3.11L73.94,2.06a2.64,2.64,0,0,0-2.56-2H61.06a2.64,2.64,0,0,0-2.56,2L55.12,15.52a2.63,2.63,0,0,0,1.61,3.11l8.54,3.28A2.6,2.6,0,0,0,67.17,21.91Z"/><path class="cls-34" d="M73.23,15h-14A1.42,1.42,0,0,1,58,13.3l1.6-12A1.36,1.36,0,0,1,60.82,0h10.8a1.36,1.36,0,0,1,1.27,1.25l1.6,12.05A1.42,1.42,0,0,1,73.23,15Z"/><path class="cls-24" d="M55.12,15.52a2.63,2.63,0,0,0,1.61,3.11l2.33.9c5.52-3.05,12-1.69,15.64-.51l1-.39a2.63,2.63,0,0,0,1.61-3.11l-.06-.27H55.19Z"/></g></g></svg>