<svg xmlns="http://www.w3.org/2000/svg" xmlns:xlink="http://www.w3.org/1999/xlink" viewBox="0 0 132 101.19"><defs><style>.cls-1{fill:url(#linear-gradient);}.cls-2{fill:url(#linear-gradient-2);}.cls-3{fill:url(#linear-gradient-3);}.cls-4{fill:url(#linear-gradient-4);}.cls-5{fill:url(#linear-gradient-5);}.cls-6{fill:url(#linear-gradient-6);}.cls-7{fill:url(#linear-gradient-7);}.cls-8{fill:url(#linear-gradient-8);}.cls-9{fill:url(#linear-gradient-9);}.cls-10{fill:url(#linear-gradient-10);}.cls-11{fill:url(#linear-gradient-11);}.cls-12{fill:url(#linear-gradient-12);}.cls-13{fill:url(#linear-gradient-13);}.cls-14{fill:url(#linear-gradient-14);}.cls-15{fill:url(#linear-gradient-15);}.cls-16{fill:url(#linear-gradient-16);}.cls-17{fill:url(#linear-gradient-17);}.cls-18{fill:url(#linear-gradient-18);}.cls-19{fill:url(#linear-gradient-19);}.cls-20{fill:url(#linear-gradient-20);}.cls-21{fill:url(#linear-gradient-21);}.cls-22{fill:url(#linear-gradient-22);}.cls-23{fill:url(#linear-gradient-23);}.cls-24{fill:url(#linear-gradient-24);}.cls-25{fill:url(#linear-gradient-25);}.cls-26,.cls-29,.cls-30,.cls-31,.cls-32,.cls-34,.cls-35,.cls-37,.cls-40,.cls-43{opacity:0.5;}.cls-26{fill:url(#linear-gradient-26);}.cls-27{fill:url(#linear-gradient-27);}.cls-28{fill:url(#linear-gradient-28);}.cls-29{fill:#e38628;}.cls-30{fill:#fbeebe;}.cls-31{fill:url(#linear-gradient-29);}.cls-32{fill:#c46f1f;}.cls-33{fill:url(#radial-gradient);}.cls-34{fill:url(#linear-gradient-30);}.cls-35{fill:url(#linear-gradient-31);}.cls-36{fill:url(#linear-gradient-32);}.cls-37{fill:#fff;}.cls-38{fill:url(#linear-gradient-33);}.cls-39{fill:url(#linear-gradient-34);}.cls-40{fill:url(#linear-gradient-35);}.cls-41{fill:url(#linear-gradient-36);}.cls-42{fill:url(#linear-gradient-37);}.cls-43{fill:url(#linear-gradient-38);}</style><linearGradient id="linear-gradient" x1="10.28" y1="-77.24" x2="65.61" y2="-4.98" gradientTransform="matrix(0.97, 0.23, -0.23, 0.97, -26.5, 59.46)" gradientUnits="userSpaceOnUse"><stop offset="0.06" stop-color="#d89830"/><stop offset="0.49" stop-color="#b78835"/><stop offset="0.89" stop-color="#c67c2c"/></linearGradient><linearGradient id="linear-gradient-2" x1="35.08" y1="36.18" x2="4.55" y2="12.41" gradientUnits="userSpaceOnUse"><stop offset="0.06" stop-color="#fff" stop-opacity="0"/><stop offset="1" stop-color="#fbeebe" stop-opacity="0.5"/></linearGradient><linearGradient id="linear-gradient-3" x1="6.74" y1="19.08" x2="27.91" y2="42.62" gradientUnits="userSpaceOnUse"><stop offset="0.06" stop-color="#f7cc89"/><stop offset="0.49" stop-color="#f5bd4e"/><stop offset="0.89" stop-color="#e3983e"/></linearGradient><linearGradient id="linear-gradient-4" x1="-469.69" y1="39.78" x2="-414.36" y2="112.04" gradientTransform="matrix(-0.97, 0.23, 0.23, 0.97, -335.54, 59.46)" xlink:href="#linear-gradient"/><linearGradient id="linear-gradient-5" x1="-458.95" y1="37.18" x2="-489.48" y2="13.41" gradientTransform="matrix(-1, 0, 0, 1, -362.03, 0)" xlink:href="#linear-gradient-2"/><linearGradient id="linear-gradient-6" x1="123.18" y1="18.48" x2="103.6" y2="44.58" gradientUnits="userSpaceOnUse"><stop offset="0.06" stop-color="#f9be50"/><stop offset="0.49" stop-color="#f5bd4e"/><stop offset="0.89" stop-color="#e3983e"/></linearGradient><linearGradient id="linear-gradient-7" x1="-434.43" y1="-2.85" x2="-379.55" y2="68.82" gradientTransform="matrix(-0.85, 0.52, 0.52, 0.85, -261.84, 202.23)" xlink:href="#linear-gradient"/><linearGradient id="linear-gradient-8" x1="-417.35" y1="4.27" x2="-445.12" y2="-17.35" gradientTransform="matrix(-0.95, 0.31, 0.31, 0.95, -305.41, 153.87)" xlink:href="#linear-gradient-2"/><linearGradient id="linear-gradient-9" x1="113.98" y1="8.69" x2="88.07" y2="53.59" xlink:href="#linear-gradient-3"/><linearGradient id="linear-gradient-10" x1="-431.05" y1="-4.93" x2="-376.16" y2="66.74" gradientTransform="translate(390.47 202.23) rotate(31.59)" xlink:href="#linear-gradient"/><linearGradient id="linear-gradient-11" x1="-413.57" y1="3.04" x2="-441.34" y2="-18.58" gradientTransform="translate(434.04 153.87) rotate(18)" xlink:href="#linear-gradient-2"/><linearGradient id="linear-gradient-12" x1="16.64" y1="11.06" x2="46.31" y2="50.82" gradientUnits="userSpaceOnUse"><stop offset="0.18" stop-color="#f7cc89"/><stop offset="0.49" stop-color="#f5bd4e"/><stop offset="0.89" stop-color="#e3983e"/></linearGradient><linearGradient id="linear-gradient-13" x1="-5.27" y1="27" x2="22.41" y2="63.16" gradientTransform="matrix(1.04, 0.01, -0.01, 1.04, 9.16, 3.66)" xlink:href="#linear-gradient"/><linearGradient id="linear-gradient-14" x1="6.1" y1="49.66" x2="18.77" y2="66.21" gradientTransform="translate(2.76 -13.51) rotate(-2.84)" xlink:href="#linear-gradient-2"/><linearGradient id="linear-gradient-15" x1="13.5" y1="46.28" x2="28.93" y2="63.29" xlink:href="#linear-gradient-3"/><linearGradient id="linear-gradient-16" x1="-481.27" y1="30.97" x2="-453.59" y2="67.13" gradientTransform="matrix(-1.04, 0.01, 0.01, 1.04, -371.19, 3.66)" xlink:href="#linear-gradient"/><linearGradient id="linear-gradient-17" x1="-487.38" y1="26.17" x2="-474.71" y2="42.72" gradientTransform="matrix(-1, -0.05, -0.05, 1, -364.8, -13.51)" xlink:href="#linear-gradient-2"/><linearGradient id="linear-gradient-18" x1="117.6" y1="47.77" x2="103.36" y2="64.58" xlink:href="#linear-gradient-3"/><linearGradient id="linear-gradient-19" x1="-48.54" y1="83.89" x2="-21.53" y2="119.17" gradientTransform="translate(12.3 -42.44) rotate(-23.48)" xlink:href="#linear-gradient"/><linearGradient id="linear-gradient-20" x1="-40.7" y1="87.8" x2="-29.49" y2="102.44" gradientTransform="translate(12.3 -42.44) rotate(-23.48)" xlink:href="#linear-gradient-2"/><linearGradient id="linear-gradient-21" x1="14.34" y1="60.55" x2="33.33" y2="71.63" xlink:href="#linear-gradient-3"/><linearGradient id="linear-gradient-22" x1="-184.14" y1="27.16" x2="-157.13" y2="62.44" gradientTransform="matrix(-0.92, -0.4, -0.4, 0.92, -27.44, -42.44)" xlink:href="#linear-gradient"/><linearGradient id="linear-gradient-23" x1="-176.3" y1="31.06" x2="-165.08" y2="45.71" gradientTransform="matrix(-0.92, -0.4, -0.4, 0.92, -27.44, -42.44)" xlink:href="#linear-gradient-2"/><linearGradient id="linear-gradient-24" x1="116.99" y1="65" x2="97.8" y2="71.72" xlink:href="#linear-gradient-3"/><linearGradient id="linear-gradient-25" x1="39.33" y1="0.86" x2="85.75" y2="92.37" gradientUnits="userSpaceOnUse"><stop offset="0.44" stop-color="#ffcc7b"/><stop offset="0.52" stop-color="#f7daa6"/><stop offset="0.61" stop-color="#e3983e"/></linearGradient><linearGradient id="linear-gradient-26" x1="47.56" y1="16.86" x2="88.96" y2="94.67" gradientUnits="userSpaceOnUse"><stop offset="0" stop-color="#fff"/><stop offset="0.01" stop-color="#fffefd"/><stop offset="0.5" stop-color="#fdd596"/><stop offset="0.84" stop-color="#fcba54"/><stop offset="1" stop-color="#fbb03b"/></linearGradient><linearGradient id="linear-gradient-27" x1="66" y1="90.22" x2="66" y2="18.46" xlink:href="#linear-gradient-3"/><linearGradient id="linear-gradient-28" x1="48.7" y1="28.31" x2="99.34" y2="101.89" xlink:href="#linear-gradient-3"/><linearGradient id="linear-gradient-29" x1="145.93" y1="68.44" x2="1.67" y2="5.41" gradientUnits="userSpaceOnUse"><stop offset="0" stop-color="#f7d997"/><stop offset="0.23" stop-color="#f0bf78"/><stop offset="0.75" stop-color="#e28837"/><stop offset="1" stop-color="#dd721e"/></linearGradient><radialGradient id="radial-gradient" cx="55.81" cy="44.34" r="23.15" gradientUnits="userSpaceOnUse"><stop offset="0.06" stop-color="#f7c179"/><stop offset="1" stop-color="#fbb03b"/></radialGradient><linearGradient id="linear-gradient-30" x1="65.38" y1="44.88" x2="81.14" y2="44.88" xlink:href="#linear-gradient-26"/><linearGradient id="linear-gradient-31" x1="65.92" y1="67.68" x2="65.92" y2="55.41" xlink:href="#linear-gradient-26"/><linearGradient id="linear-gradient-32" x1="71.37" y1="60.18" x2="59.9" y2="48.84" xlink:href="#linear-gradient-6"/><linearGradient id="linear-gradient-33" x1="66.22" y1="5.18" x2="66.22" y2="26.95" xlink:href="#linear-gradient-3"/><linearGradient id="linear-gradient-34" x1="66.22" y1="27.33" x2="66.22" y2="8.86" xlink:href="#linear-gradient-6"/><linearGradient id="linear-gradient-35" x1="66.22" y1="3.2" x2="66.22" y2="27.73" gradientUnits="userSpaceOnUse"><stop offset="0" stop-color="#fff"/><stop offset="0.12" stop-color="#faece0"/><stop offset="0.56" stop-color="#ebab79"/><stop offset="0.86" stop-color="#e18237"/><stop offset="1" stop-color="#dd721e"/></linearGradient><linearGradient id="linear-gradient-36" x1="66.22" y1="101.71" x2="66.22" y2="80.88" xlink:href="#linear-gradient-3"/><linearGradient id="linear-gradient-37" x1="66.2" y1="80.49" x2="66.3" y2="104.32" xlink:href="#linear-gradient-6"/><linearGradient id="linear-gradient-38" x1="65.84" y1="101.11" x2="66.24" y2="86.96" xlink:href="#linear-gradient-29"/></defs><g id="Layer_2" data-name="Layer 2"><g id="Layer_1-2" data-name="Layer 1"><path class="cls-1" d="M45.49,37.94,6.05,15.78a1.88,1.88,0,0,0-2.41.46C0,21.32-10.14,41,33.71,59.07Z"/><path class="cls-2" d="M40.23,35,6.05,15.78a1.92,1.92,0,0,0-1.48-.15l3,4.31L38.41,41.25Z"/><path class="cls-3" d="M46,39.64,7.64,18.09a1.83,1.83,0,0,0-2.34.45C1.77,23.48-8.1,42.63,34.54,60.19Z"/><path class="cls-4" d="M86.51,38.94,126,16.78a1.88,1.88,0,0,1,2.41.46C132,22.32,142.14,42,98.29,60.07Z"/><path class="cls-5" d="M91.77,36,126,16.78a1.92,1.92,0,0,1,1.48-.15l-3,4.31L93.59,42.25Z"/><path class="cls-6" d="M86,40.64l38.36-21.55a1.83,1.83,0,0,1,2.34.45c3.53,4.94,13.4,24.09-29.24,41.65Z"/><path class="cls-7" d="M86.63,33.88l22-33.26a1.09,1.09,0,0,1,1.74-.3c3.61,3.71,14.92,19.3-11,50Z"/><path class="cls-8" d="M89.57,29.44,108.66.62a1.26,1.26,0,0,1,1-.6l-1.08,5L92.2,34.84Z"/><path class="cls-9" d="M86.66,35.66,108.09,3.31A1.06,1.06,0,0,1,109.78,3c3.51,3.61,14.51,18.77-10.73,48.65Z"/><path class="cls-10" d="M46,33.88,23.94.62A1.09,1.09,0,0,0,22.2.32c-3.61,3.71-14.91,19.3,11,50Z"/><path class="cls-11" d="M43,29.44,23.94.62A1.25,1.25,0,0,0,23,0L24,5,40.4,34.84Z"/><path class="cls-12" d="M45.94,35.66,24.52,3.31A1.07,1.07,0,0,0,22.82,3C19.31,6.63,8.32,21.79,33.55,51.67Z"/><path class="cls-13" d="M24.42,45,13,43.12a1.26,1.26,0,0,0-1.42.91c-1.13,4.22-3.92,19.39,13.19,22.86a1.27,1.27,0,0,0,1.52-1.29l-.79-19.44A1.28,1.28,0,0,0,24.42,45Z"/><path class="cls-14" d="M25.48,46.16A1.28,1.28,0,0,0,24.42,45L13,43.12a1.2,1.2,0,0,0-.7.11l2.09,2.92,11.16,1.33Z"/><path class="cls-15" d="M25.53,46,14.1,44.11a1.26,1.26,0,0,0-1.42.91c-1.13,4.22-3.93,19.39,13.19,22.86a1.27,1.27,0,0,0,1.52-1.3L26.6,47.15A1.28,1.28,0,0,0,25.53,46Z"/><path class="cls-16" d="M107.58,46,119,44.12a1.26,1.26,0,0,1,1.42.91c1.13,4.22,3.92,19.39-13.19,22.86a1.27,1.27,0,0,1-1.52-1.29l.79-19.44A1.28,1.28,0,0,1,107.58,46Z"/><path class="cls-17" d="M106.52,47.16a1.28,1.28,0,0,1,1.06-1.2L119,44.12a1.2,1.2,0,0,1,.7.11l-2.09,2.92-11.16,1.33Z"/><path class="cls-18" d="M106.47,47l11.43-1.84a1.26,1.26,0,0,1,1.42.91c1.13,4.22,3.93,19.39-13.19,22.86a1.27,1.27,0,0,1-1.52-1.3l.79-19.43A1.28,1.28,0,0,1,106.47,47Z"/><path class="cls-19" d="M24.81,57.29,13.13,60.54a1,1,0,0,0-.63,1.13c.46,3.81,3.35,17.82,20.76,13.41a1.08,1.08,0,0,0,.53-1.6L26.05,58A1.11,1.11,0,0,0,24.81,57.29Z"/><path class="cls-20" d="M13.13,60.54a.87.87,0,0,0-.47.37l2.77,1,10-2.38-.81-2.15Z"/><path class="cls-21" d="M25.71,58l-11,3.08a.93.93,0,0,0-.6,1.07C14.5,65.71,17.24,79,33.7,74.8a1,1,0,0,0,.5-1.52L26.88,58.6A1.06,1.06,0,0,0,25.71,58Z"/><path class="cls-22" d="M107,59.29l11.68,3.25a1,1,0,0,1,.63,1.13c-.46,3.81-3.35,17.82-20.76,13.41a1.08,1.08,0,0,1-.53-1.6L105.78,60A1.11,1.11,0,0,1,107,59.29Z"/><path class="cls-23" d="M118.7,62.54a.87.87,0,0,1,.47.37l-2.77,1-10-2.38.8-2.15Z"/><path class="cls-24" d="M106.12,60l11,3.08a.92.92,0,0,1,.6,1.07C117.33,67.71,114.6,81,98.13,76.8a1,1,0,0,1-.5-1.52L105,60.6A1.06,1.06,0,0,1,106.12,60Z"/><path class="cls-25" d="M107.25,73.05V33.84a7.29,7.29,0,0,0-3.65-6.32L69.65,7.92a7.27,7.27,0,0,0-7.3,0L28.4,27.52a7.29,7.29,0,0,0-3.65,6.32V73.05a7.28,7.28,0,0,0,3.65,6.31L62.35,99a7.32,7.32,0,0,0,7.3,0L103.6,79.36A7.28,7.28,0,0,0,107.25,73.05Z"/><path class="cls-26" d="M60.25,9.13l-8.58,7.11a7.09,7.09,0,0,0-1.48,9.2L84,79.59a6.93,6.93,0,0,0,8,2.92l13-4.25L69.65,99l10-9.52a6.94,6.94,0,0,0,1-8.78L46.16,27.22A7.08,7.08,0,0,0,38,24.34L28.4,27.52Z"/><path class="cls-27" d="M98.83,68.19V38.7a7.3,7.3,0,0,0-3.64-6.32L69.65,17.64a7.27,7.27,0,0,0-7.3,0L36.81,32.38a7.3,7.3,0,0,0-3.64,6.32V68.19a7.29,7.29,0,0,0,3.64,6.31L62.35,89.25a7.32,7.32,0,0,0,7.3,0L95.19,74.5A7.29,7.29,0,0,0,98.83,68.19Z"/><path class="cls-28" d="M97.15,67.21V39.67a7.3,7.3,0,0,0-3.65-6.32L69.65,19.58a7.32,7.32,0,0,0-7.3,0L38.5,33.35a7.3,7.3,0,0,0-3.65,6.32V67.21a7.29,7.29,0,0,0,3.65,6.32L62.35,87.3a7.27,7.27,0,0,0,7.3,0L93.5,73.53A7.29,7.29,0,0,0,97.15,67.21Z"/><path class="cls-29" d="M69.65,87.3,93.5,73.53a7.26,7.26,0,0,0,2.7-2.72c-2.52,1.62-17.7,11.06-36.85,6.08a46.67,46.67,0,0,1-24.5-16.08v6.4a7.29,7.29,0,0,0,3.65,6.32L62.35,87.3A7.27,7.27,0,0,0,69.65,87.3Z"/><ellipse class="cls-30" cx="72.41" cy="39.69" rx="13.5" ry="18.5" transform="translate(7.25 90.42) rotate(-66.63)"/><path class="cls-31" d="M95.19,30.38,69.65,15.64a7.27,7.27,0,0,0-7.3,0L36.81,30.38a7.3,7.3,0,0,0-3.64,6.32v2a7.3,7.3,0,0,1,3.64-6.32L62.35,17.64a7.27,7.27,0,0,1,7.3,0L95.19,32.38a7.3,7.3,0,0,1,3.64,6.32v-2A7.3,7.3,0,0,0,95.19,30.38Z"/><path class="cls-32" d="M64.54,37.37,48.46,48.86a1.45,1.45,0,0,0-.53,1.64l6.13,18.55a1.44,1.44,0,0,0,1.38,1H75.33a1.45,1.45,0,0,0,1.38-1L82.84,50.5a1.46,1.46,0,0,0-.53-1.64L66.23,37.37A1.46,1.46,0,0,0,64.54,37.37Z"/><path class="cls-33" d="M64.18,37.64l-13.84,10A2,2,0,0,0,49.6,50l5.28,16.27a2.05,2.05,0,0,0,1.95,1.42h17.1a2.08,2.08,0,0,0,2-1.42L81.17,50a2,2,0,0,0-.74-2.29l-13.84-10A2,2,0,0,0,64.18,37.64Z"/><path class="cls-34" d="M81.14,48.82a2.2,2.2,0,0,0-.83-1.21L66.7,37.72a2.19,2.19,0,0,0-1.32-.43V52.48Z"/><path class="cls-35" d="M65.38,52.48,56,67.42a2.07,2.07,0,0,0,.95.25H73.8a2.24,2.24,0,0,0,2-1.33Z"/><path class="cls-32" d="M64.53,45.79,58,50.54a1.47,1.47,0,0,0-.53,1.63L60,59.86a1.45,1.45,0,0,0,1.38,1h8.08a1.48,1.48,0,0,0,1.39-1l2.5-7.69a1.47,1.47,0,0,0-.53-1.63l-6.54-4.75A1.46,1.46,0,0,0,64.53,45.79Z"/><path class="cls-36" d="M64.53,46.79l-5.6,4.06a1.46,1.46,0,0,0-.52,1.63l2.13,6.57a1.47,1.47,0,0,0,1.39,1h6.91a1.45,1.45,0,0,0,1.38-1l2.14-6.57a1.45,1.45,0,0,0-.53-1.63l-5.59-4.06A1.46,1.46,0,0,0,64.53,46.79Z"/><path class="cls-37" d="M62.58,54.16c-.22-2.66-.45-5.33-.67-8l-1,8.34-8,.93,8,.4,1,8.3,1-8.3,8-.4Z"/><path class="cls-38" d="M67.25,29l9.28-3.56a2.87,2.87,0,0,0,1.76-3.38L74.61,7.43a2.88,2.88,0,0,0-2.79-2.17H60.62a2.88,2.88,0,0,0-2.79,2.17L54.15,22.06a2.87,2.87,0,0,0,1.76,3.38L65.19,29A2.82,2.82,0,0,0,67.25,29Z"/><path class="cls-39" d="M67.17,27.11l8.54-3.28a2.64,2.64,0,0,0,1.61-3.11L73.94,7.26a2.64,2.64,0,0,0-2.56-2H61.06a2.64,2.64,0,0,0-2.56,2L55.12,20.72a2.64,2.64,0,0,0,1.61,3.11l8.54,3.28A2.7,2.7,0,0,0,67.17,27.11Z"/><path class="cls-40" d="M73.23,20.19h-14A1.42,1.42,0,0,1,58,18.49l1.6-12a1.37,1.37,0,0,1,1.27-1.26h10.8a1.37,1.37,0,0,1,1.27,1.26l1.6,12A1.42,1.42,0,0,1,73.23,20.19Z"/><path class="cls-41" d="M65.19,77.38,55.91,81a2.87,2.87,0,0,0-1.76,3.38L57.83,99a2.88,2.88,0,0,0,2.79,2.18h11.2A2.88,2.88,0,0,0,74.61,99l3.68-14.62A2.87,2.87,0,0,0,76.53,81l-9.28-3.57A2.92,2.92,0,0,0,65.19,77.38Z"/><path class="cls-42" d="M65.27,79.28l-8.54,3.28a2.63,2.63,0,0,0-1.61,3.11L58.5,99.13a2.65,2.65,0,0,0,2.56,2H71.38a2.65,2.65,0,0,0,2.56-2l3.38-13.46a2.63,2.63,0,0,0-1.61-3.11l-8.54-3.28A2.7,2.7,0,0,0,65.27,79.28Z"/><path class="cls-43" d="M59.21,86.19h14a1.43,1.43,0,0,1,1.26,1.71l-1.6,12a1.36,1.36,0,0,1-1.27,1.25H60.82a1.36,1.36,0,0,1-1.27-1.25L58,87.9A1.43,1.43,0,0,1,59.21,86.19Z"/><path class="cls-30" d="M55.12,20.72a2.64,2.64,0,0,0,1.61,3.11l2.33.89c5.52-3,12-1.68,15.64-.5l1-.39a2.64,2.64,0,0,0,1.61-3.11l-.06-.28H55.19Z"/><path class="cls-30" d="M75.71,82.56,74,81.9c-2,.24-9.58,1-15.58,0l-1.69.65a2.64,2.64,0,0,0-1.41,1.28c7.42-.4,20.06-.5,21.56,3.61l.44-1.78A2.63,2.63,0,0,0,75.71,82.56Z"/></g></g></svg>