<svg xmlns="http://www.w3.org/2000/svg" xmlns:xlink="http://www.w3.org/1999/xlink" viewBox="0 0 130 105.97"><defs><style>.cls-1{fill:url(#radial-gradient);}.cls-2{fill:url(#linear-gradient);}.cls-3{fill:#3a4d8f;}.cls-4{fill:url(#linear-gradient-2);}.cls-5{fill:url(#linear-gradient-3);}.cls-6{fill:#406ebf;}.cls-7{fill:url(#linear-gradient-4);}.cls-8{fill:url(#linear-gradient-5);}.cls-9{fill:url(#linear-gradient-6);}.cls-10{fill:url(#linear-gradient-7);}.cls-11{fill:url(#linear-gradient-8);}.cls-12{fill:url(#linear-gradient-9);}.cls-13{fill:url(#linear-gradient-10);}.cls-14,.cls-24{opacity:0.5;}.cls-14{fill:url(#linear-gradient-11);}.cls-15{fill:url(#linear-gradient-12);}.cls-16{fill:url(#linear-gradient-13);}.cls-17{fill:#8ec6e5;}.cls-18{fill:url(#linear-gradient-14);}.cls-19{fill:url(#radial-gradient-2);}.cls-20{fill:url(#linear-gradient-15);}.cls-21{fill:url(#linear-gradient-16);}.cls-22{fill:url(#linear-gradient-17);}.cls-23{fill:url(#radial-gradient-3);}.cls-24{fill:#fff;}</style><radialGradient id="radial-gradient" cx="65.29" cy="105.29" r="24.79" gradientUnits="userSpaceOnUse"><stop offset="0.19" stop-color="#ddb08e"/><stop offset="0.28" stop-color="#d6ac8e"/><stop offset="0.4" stop-color="#c4a18d"/><stop offset="0.55" stop-color="#a68f8d"/><stop offset="0.71" stop-color="#7c758b"/><stop offset="0.88" stop-color="#47558a"/><stop offset="1" stop-color="#1d3c89"/></radialGradient><linearGradient id="linear-gradient" x1="64.81" y1="89.28" x2="64.81" y2="106.64" gradientUnits="userSpaceOnUse"><stop offset="0.06" stop-color="#173684"/><stop offset="1" stop-color="#7287ed"/></linearGradient><linearGradient id="linear-gradient-2" x1="4.57" y1="21.08" x2="40.23" y2="21.08" gradientUnits="userSpaceOnUse"><stop offset="0.06" stop-color="#acdee5"/><stop offset="0.49" stop-color="#85bede"/><stop offset="0.89" stop-color="#5c81c1"/></linearGradient><linearGradient id="linear-gradient-3" x1="-0.14" y1="0.59" x2="30.72" y2="38.96" xlink:href="#linear-gradient-2"/><linearGradient id="linear-gradient-4" x1="-0.27" y1="32.67" x2="12.77" y2="32.67" gradientTransform="translate(11.05 5.67) rotate(-2.84)" xlink:href="#linear-gradient-2"/><linearGradient id="linear-gradient-5" x1="11.87" y1="36.01" x2="24.93" y2="52.1" xlink:href="#linear-gradient-2"/><linearGradient id="linear-gradient-6" x1="-355.78" y1="21.08" x2="-320.12" y2="21.08" gradientTransform="matrix(-1, 0, 0, 1, -230.35, 0)" xlink:href="#linear-gradient-2"/><linearGradient id="linear-gradient-7" x1="-360.49" y1="0.59" x2="-329.63" y2="38.96" gradientTransform="matrix(-1, 0, 0, 1, -230.35, 0)" xlink:href="#linear-gradient-2"/><linearGradient id="linear-gradient-8" x1="-360.17" y1="14.81" x2="-347.14" y2="14.81" gradientTransform="matrix(-1, -0.05, -0.05, 1, -241.4, 5.67)" xlink:href="#linear-gradient-2"/><linearGradient id="linear-gradient-9" x1="-348.47" y1="36.01" x2="-335.42" y2="52.1" gradientTransform="matrix(-1, 0, 0, 1, -230.35, 0)" xlink:href="#linear-gradient-2"/><linearGradient id="linear-gradient-10" x1="38.33" y1="-6.08" x2="84.75" y2="85.43" gradientUnits="userSpaceOnUse"><stop offset="0.44" stop-color="#9cd8e2"/><stop offset="0.52" stop-color="#f0effe"/><stop offset="0.61" stop-color="#6cafd3"/></linearGradient><linearGradient id="linear-gradient-11" x1="46.56" y1="9.93" x2="87.96" y2="87.73" gradientUnits="userSpaceOnUse"><stop offset="0" stop-color="#fff"/><stop offset="0.22" stop-color="#c2c2ff" stop-opacity="0.88"/><stop offset="0.6" stop-color="#5b5bff" stop-opacity="0.68"/><stop offset="0.87" stop-color="#1919ff" stop-opacity="0.55"/><stop offset="1" stop-color="blue" stop-opacity="0.5"/></linearGradient><linearGradient id="linear-gradient-12" x1="65" y1="84.41" x2="65" y2="6.6" xlink:href="#linear-gradient-2"/><linearGradient id="linear-gradient-13" x1="47.95" y1="14.26" x2="79.33" y2="73.6" xlink:href="#linear-gradient-2"/><linearGradient id="linear-gradient-14" x1="38.93" y1="15.92" x2="97.09" y2="37.48" gradientUnits="userSpaceOnUse"><stop offset="0.06" stop-color="#fff"/><stop offset="0.49" stop-color="#85bede"/><stop offset="0.89" stop-color="#5c81c1"/></linearGradient><radialGradient id="radial-gradient-2" cx="59.23" cy="31.59" r="31.16" gradientUnits="userSpaceOnUse"><stop offset="0.19" stop-color="#66c2d1"/><stop offset="0.37" stop-color="#62bbce"/><stop offset="0.61" stop-color="#56a9c6"/><stop offset="0.89" stop-color="#438bb8"/><stop offset="1" stop-color="#3a7eb2"/></radialGradient><linearGradient id="linear-gradient-15" x1="77.43" y1="31.61" x2="55.67" y2="40.51" gradientUnits="userSpaceOnUse"><stop offset="0.06" stop-color="#80dded"/><stop offset="1" stop-color="#3d84b2"/></linearGradient><linearGradient id="linear-gradient-16" x1="49.02" y1="45.81" x2="65" y2="45.81" xlink:href="#linear-gradient-15"/><linearGradient id="linear-gradient-17" x1="66.14" y1="64.14" x2="75.04" y2="45.75" xlink:href="#linear-gradient-15"/><radialGradient id="radial-gradient-3" cx="59.42" cy="40.89" r="11.82" xlink:href="#radial-gradient-2"/></defs><g id="Layer_2" data-name="Layer 2"><g id="Layer_1-2" data-name="Layer 1"><polygon class="cls-1" points="45.31 71.66 45.31 94.53 64.81 105.97 84.31 94.53 84.31 71.66 64.81 60.22 45.31 71.66"/><polygon class="cls-2" points="46.78 72.52 46.78 93.67 64.81 104.25 82.84 93.67 82.84 72.52 64.81 61.94 46.78 72.52"/><path class="cls-3" d="M45.49,30.62,6.05,8.46a1.9,1.9,0,0,0-2.41.46C0,14-10.14,33.7,33.71,51.75Z"/><path class="cls-4" d="M40.23,27.66,6.05,8.46a2,2,0,0,0-1.48-.14l3,4.31,30.87,21.3Z"/><path class="cls-5" d="M46,32.33,7.64,10.78a1.82,1.82,0,0,0-2.34.45C1.77,16.17-8.1,35.32,34.54,52.88Z"/><path class="cls-6" d="M24.42,37.65,13,35.81a1.25,1.25,0,0,0-1.42.91C10.43,40.93,7.64,56.1,24.75,59.57a1.26,1.26,0,0,0,1.52-1.29l-.79-19.43A1.28,1.28,0,0,0,24.42,37.65Z"/><path class="cls-7" d="M25.48,38.85a1.28,1.28,0,0,0-1.06-1.2L13,35.81a1.28,1.28,0,0,0-.7.1l2.09,2.93,11.16,1.32Z"/><path class="cls-8" d="M25.53,38.64,14.1,36.8a1.25,1.25,0,0,0-1.42.91c-1.13,4.21-3.93,19.38,13.19,22.85a1.27,1.27,0,0,0,1.52-1.29L26.6,39.84A1.28,1.28,0,0,0,25.53,38.64Z"/><path class="cls-3" d="M84.51,30.62,124,8.46a1.9,1.9,0,0,1,2.41.46C130,14,140.14,33.7,96.29,51.75Z"/><path class="cls-9" d="M89.77,27.66,124,8.46a2,2,0,0,1,1.48-.14l-3,4.31L91.59,33.93Z"/><path class="cls-10" d="M84,32.33l38.36-21.55a1.82,1.82,0,0,1,2.34.45c3.53,4.94,13.4,24.09-29.24,41.65Z"/><path class="cls-3" d="M105.58,37.65,117,35.81a1.25,1.25,0,0,1,1.42.91c1.13,4.21,3.92,19.38-13.19,22.85a1.26,1.26,0,0,1-1.52-1.29l.79-19.43A1.28,1.28,0,0,1,105.58,37.65Z"/><path class="cls-11" d="M104.52,38.85a1.28,1.28,0,0,1,1.06-1.2L117,35.81a1.28,1.28,0,0,1,.7.1l-2.09,2.93-11.16,1.32Z"/><path class="cls-12" d="M104.47,38.64,115.9,36.8a1.25,1.25,0,0,1,1.42.91c1.13,4.21,3.93,19.38-13.19,22.85a1.27,1.27,0,0,1-1.52-1.29l.79-19.43A1.28,1.28,0,0,1,104.47,38.64Z"/><path class="cls-13" d="M106.25,66.11V26.9a7.29,7.29,0,0,0-3.65-6.32L68.65,1a7.27,7.27,0,0,0-7.3,0L27.4,20.58a7.29,7.29,0,0,0-3.65,6.32V66.11a7.28,7.28,0,0,0,3.65,6.31L61.35,92a7.32,7.32,0,0,0,7.3,0L102.6,72.42A7.28,7.28,0,0,0,106.25,66.11Z"/><path class="cls-14" d="M59.25,2.19,50.67,9.31a7.07,7.07,0,0,0-1.48,9.19L83,72.65a6.92,6.92,0,0,0,8,2.92l13-4.25L68.65,92l10-9.52a6.94,6.94,0,0,0,1-8.78L45.16,20.28A7.08,7.08,0,0,0,37,17.4L27.4,20.58Z"/><path class="cls-15" d="M97.83,61.25V31.76a7.31,7.31,0,0,0-3.64-6.32L68.65,10.7a7.32,7.32,0,0,0-7.3,0L35.81,25.44a7.31,7.31,0,0,0-3.64,6.32V61.25a7.29,7.29,0,0,0,3.64,6.31L61.35,82.31a7.32,7.32,0,0,0,7.3,0L94.19,67.56A7.29,7.29,0,0,0,97.83,61.25Z"/><path class="cls-16" d="M96.15,60.28V32.73a7.3,7.3,0,0,0-3.65-6.32L68.65,12.64a7.32,7.32,0,0,0-7.3,0L37.5,26.41a7.3,7.3,0,0,0-3.65,6.32V60.28a7.28,7.28,0,0,0,3.65,6.31L61.35,80.36a7.27,7.27,0,0,0,7.3,0L92.5,66.59A7.28,7.28,0,0,0,96.15,60.28Z"/><path class="cls-6" d="M68.65,80.36,92.5,66.59a7.26,7.26,0,0,0,2.7-2.72C92.68,65.49,77.5,74.94,58.35,70a46.67,46.67,0,0,1-24.5-16.08v6.41a7.28,7.28,0,0,0,3.65,6.31L61.35,80.36A7.27,7.27,0,0,0,68.65,80.36Z"/><ellipse class="cls-17" cx="71.41" cy="32.75" rx="13.5" ry="18.5" transform="translate(13.02 85.32) rotate(-66.63)"/><path class="cls-18" d="M94.19,23.44,68.65,8.7a7.27,7.27,0,0,0-7.3,0L35.81,23.44a7.31,7.31,0,0,0-3.64,6.32v2a7.31,7.31,0,0,1,3.64-6.32L61.35,10.7a7.27,7.27,0,0,1,7.3,0L94.19,25.44a7.31,7.31,0,0,1,3.64,6.32v-2A7.31,7.31,0,0,0,94.19,23.44Z"/><path class="cls-3" d="M48.3,38.34V54.67a2.56,2.56,0,0,0,1.28,2.22l14.14,8.16a2.55,2.55,0,0,0,2.56,0l14.14-8.16a2.56,2.56,0,0,0,1.28-2.22V38.34a2.55,2.55,0,0,0-1.28-2.22L66.28,28a2.55,2.55,0,0,0-2.56,0L49.58,36.12A2.55,2.55,0,0,0,48.3,38.34Z"/><path class="cls-19" d="M49,38V53.52a2.55,2.55,0,0,0,1.29,2.22l13.41,7.75a2.6,2.6,0,0,0,2.56,0l13.41-7.75A2.55,2.55,0,0,0,81,53.52V38a2.57,2.57,0,0,0-1.29-2.22L66.28,28.07a2.55,2.55,0,0,0-2.56,0L50.31,35.81A2.57,2.57,0,0,0,49,38Z"/><path class="cls-20" d="M80.48,36.37a2.11,2.11,0,0,0-.43-.36L65.93,27.87a1.83,1.83,0,0,0-.93-.25V45.78Z"/><path class="cls-21" d="M49.27,36.7a1.88,1.88,0,0,0-.25.93v16.3a1.8,1.8,0,0,0,.3,1L65,45.78Z"/><path class="cls-22" d="M80.05,55.54a1.91,1.91,0,0,0,.51-.47L65,45.78V63.94a1.93,1.93,0,0,0,.93-.25Z"/><path class="cls-3" d="M57.45,42.9v5.75a2.57,2.57,0,0,0,1.29,2.23l5,2.87a2.55,2.55,0,0,0,2.56,0l5-2.87a2.57,2.57,0,0,0,1.29-2.23V42.9a2.55,2.55,0,0,0-1.29-2.22l-5-2.88a2.55,2.55,0,0,0-2.56,0l-5,2.88A2.55,2.55,0,0,0,57.45,42.9Z"/><path class="cls-23" d="M58.08,43.26v5a2.57,2.57,0,0,0,1.28,2.22L63.72,53a2.55,2.55,0,0,0,2.56,0l4.36-2.51a2.57,2.57,0,0,0,1.28-2.22v-5A2.58,2.58,0,0,0,70.64,41l-4.36-2.51a2.55,2.55,0,0,0-2.56,0L59.36,41A2.58,2.58,0,0,0,58.08,43.26Z"/><path class="cls-24" d="M61.91,47.23q-.34-4-.67-8l-1,8.33-8,.93,8,.4,1,8.31,1-8.31,8-.4Z"/></g></g></svg>