<svg xmlns="http://www.w3.org/2000/svg" xmlns:xlink="http://www.w3.org/1999/xlink" viewBox="0 0 126.31 123.7"><defs><style>.cls-1{fill:url(#radial-gradient);}.cls-2{fill:url(#linear-gradient);}.cls-3{fill:#3a4d8f;}.cls-4{fill:url(#linear-gradient-2);}.cls-5{fill:url(#linear-gradient-3);}.cls-6{fill:url(#radial-gradient-2);}.cls-7{fill:url(#linear-gradient-4);}.cls-8{fill:url(#radial-gradient-3);}.cls-9{fill:url(#linear-gradient-5);}.cls-10{fill:url(#linear-gradient-6);}.cls-11{fill:url(#linear-gradient-7);}.cls-12{fill:url(#linear-gradient-8);}.cls-13{fill:url(#linear-gradient-9);}.cls-14{fill:url(#linear-gradient-10);}.cls-15{fill:url(#linear-gradient-11);}.cls-16{fill:url(#linear-gradient-12);}.cls-17{fill:url(#linear-gradient-13);}.cls-18{fill:url(#linear-gradient-14);}.cls-19{fill:url(#linear-gradient-15);}.cls-20{fill:url(#linear-gradient-16);}.cls-21{fill:url(#linear-gradient-17);}.cls-22{fill:url(#linear-gradient-18);}.cls-23{fill:url(#linear-gradient-19);}.cls-24{fill:url(#linear-gradient-20);}.cls-25{fill:url(#linear-gradient-21);}.cls-26{fill:url(#linear-gradient-22);}.cls-27,.cls-30,.cls-38{opacity:0.5;}.cls-27{fill:url(#linear-gradient-23);}.cls-28{fill:url(#linear-gradient-24);}.cls-29{fill:url(#linear-gradient-25);}.cls-30{fill:#406ebf;}.cls-31{fill:#8ec6e5;}.cls-32{fill:url(#linear-gradient-26);}.cls-33{fill:url(#radial-gradient-4);}.cls-34{fill:url(#linear-gradient-27);}.cls-35{fill:url(#linear-gradient-28);}.cls-36{fill:url(#linear-gradient-29);}.cls-37{fill:url(#radial-gradient-5);}.cls-38,.cls-41{fill:#fff;}.cls-39{fill:url(#linear-gradient-30);}.cls-40{fill:url(#linear-gradient-31);}.cls-41{opacity:0.2;}</style><radialGradient id="radial-gradient" cx="33.45" cy="104.92" r="19.93" gradientUnits="userSpaceOnUse"><stop offset="0.19" stop-color="#ddb08e"/><stop offset="0.28" stop-color="#d6ac8e"/><stop offset="0.4" stop-color="#c4a18d"/><stop offset="0.55" stop-color="#a68f8d"/><stop offset="0.71" stop-color="#7c758b"/><stop offset="0.88" stop-color="#47558a"/><stop offset="1" stop-color="#1d3c89"/></radialGradient><linearGradient id="linear-gradient" x1="28.69" y1="95.54" x2="28.69" y2="104.36" gradientUnits="userSpaceOnUse"><stop offset="0.06" stop-color="#173684"/><stop offset="1" stop-color="#7287ed"/></linearGradient><linearGradient id="linear-gradient-2" x1="31.72" y1="10.12" x2="94.15" y2="10.12" gradientUnits="userSpaceOnUse"><stop offset="0.06" stop-color="#acdee5"/><stop offset="0.49" stop-color="#85bede"/><stop offset="0.89" stop-color="#5c81c1"/></linearGradient><linearGradient id="linear-gradient-3" x1="63.99" y1="39.49" x2="63" y2="-4.23" xlink:href="#linear-gradient-2"/><radialGradient id="radial-gradient-2" cx="-537.25" cy="104.92" r="19.93" gradientTransform="matrix(-1, 0, 0, 1, -444.32, 0)" xlink:href="#radial-gradient"/><linearGradient id="linear-gradient-4" x1="-542.01" y1="95.54" x2="-542.01" y2="104.36" gradientTransform="matrix(-1, 0, 0, 1, -444.32, 0)" xlink:href="#linear-gradient"/><radialGradient id="radial-gradient-3" cx="62.82" cy="120.75" r="43.52" xlink:href="#radial-gradient"/><linearGradient id="linear-gradient-5" x1="63.16" y1="101.02" x2="63.16" y2="124.61" xlink:href="#linear-gradient"/><linearGradient id="linear-gradient-6" x1="4.57" y1="30.6" x2="40.23" y2="30.6" xlink:href="#linear-gradient-2"/><linearGradient id="linear-gradient-7" x1="-0.14" y1="10.1" x2="30.72" y2="48.48" xlink:href="#linear-gradient-2"/><linearGradient id="linear-gradient-8" x1="-385.26" y1="109.25" x2="-357.08" y2="109.25" gradientTransform="matrix(0.99, -0.07, 0.07, 0.9, 388.47, -107.06)" xlink:href="#linear-gradient-2"/><linearGradient id="linear-gradient-9" x1="-12.33" y1="118.93" x2="0.81" y2="151.16" gradientTransform="matrix(0.93, -0.38, 0.38, 0.93, -21.13, -109.66)" xlink:href="#linear-gradient-2"/><linearGradient id="linear-gradient-10" x1="-0.86" y1="61.66" x2="12.18" y2="61.66" gradientTransform="translate(10.2 -13.8) rotate(-2.84)" xlink:href="#linear-gradient-2"/><linearGradient id="linear-gradient-11" x1="11.87" y1="45.53" x2="24.93" y2="61.61" xlink:href="#linear-gradient-2"/><linearGradient id="linear-gradient-12" x1="-101.72" y1="87.18" x2="-89.35" y2="87.18" gradientTransform="translate(71.94 -55.73) rotate(-23.48)" xlink:href="#linear-gradient-2"/><linearGradient id="linear-gradient-13" x1="10.03" y1="61.77" x2="27.04" y2="69.81" xlink:href="#linear-gradient-2"/><linearGradient id="linear-gradient-14" x1="-560.38" y1="30.6" x2="-524.72" y2="30.6" gradientTransform="matrix(-1, 0, 0, 1, -438.63, 0)" xlink:href="#linear-gradient-2"/><linearGradient id="linear-gradient-15" x1="-565.09" y1="10.1" x2="-534.23" y2="48.48" gradientTransform="matrix(-1, 0, 0, 1, -438.63, 0)" xlink:href="#linear-gradient-2"/><linearGradient id="linear-gradient-16" x1="-952.61" y1="67.7" x2="-924.44" y2="67.7" gradientTransform="matrix(-0.99, -0.07, -0.07, 0.9, -827.1, -107.06)" xlink:href="#linear-gradient-2"/><linearGradient id="linear-gradient-17" x1="-535.43" y1="-94.43" x2="-522.29" y2="-62.2" gradientTransform="matrix(-0.93, -0.38, -0.38, 0.93, -417.5, -109.66)" xlink:href="#linear-gradient-2"/><linearGradient id="linear-gradient-18" x1="-565.11" y1="33.66" x2="-552.07" y2="33.66" gradientTransform="matrix(-1, -0.05, -0.05, 1, -448.83, -13.8)" xlink:href="#linear-gradient-2"/><linearGradient id="linear-gradient-19" x1="-553.07" y1="45.53" x2="-540.02" y2="61.61" gradientTransform="matrix(-1, 0, 0, 1, -438.63, 0)" xlink:href="#linear-gradient-2"/><linearGradient id="linear-gradient-20" x1="-619.87" y1="-137.94" x2="-607.5" y2="-137.94" gradientTransform="matrix(-0.92, -0.4, -0.4, 0.92, -510.57, -55.73)" xlink:href="#linear-gradient-2"/><linearGradient id="linear-gradient-21" x1="-554.92" y1="61.77" x2="-537.91" y2="69.81" gradientTransform="matrix(-1, 0, 0, 1, -438.63, 0)" xlink:href="#linear-gradient-2"/><linearGradient id="linear-gradient-22" x1="36.49" y1="3.44" x2="82.9" y2="94.95" gradientUnits="userSpaceOnUse"><stop offset="0.44" stop-color="#9cd8e2"/><stop offset="0.52" stop-color="#f0effe"/><stop offset="0.61" stop-color="#6cafd3"/></linearGradient><linearGradient id="linear-gradient-23" x1="44.71" y1="19.44" x2="86.12" y2="97.25" gradientUnits="userSpaceOnUse"><stop offset="0" stop-color="#fff"/><stop offset="0.22" stop-color="#c2c2ff" stop-opacity="0.88"/><stop offset="0.6" stop-color="#5b5bff" stop-opacity="0.68"/><stop offset="0.87" stop-color="#1919ff" stop-opacity="0.55"/><stop offset="1" stop-color="blue" stop-opacity="0.5"/></linearGradient><linearGradient id="linear-gradient-24" x1="63.16" y1="92.8" x2="63.16" y2="19.48" xlink:href="#linear-gradient-2"/><linearGradient id="linear-gradient-25" x1="46.11" y1="23.78" x2="77.49" y2="83.12" xlink:href="#linear-gradient-2"/><linearGradient id="linear-gradient-26" x1="30.33" y1="29.26" x2="95.99" y2="29.26" gradientUnits="userSpaceOnUse"><stop offset="0.06" stop-color="#fff"/><stop offset="0.49" stop-color="#85bede"/><stop offset="0.89" stop-color="#5c81c1"/></linearGradient><radialGradient id="radial-gradient-4" cx="54.77" cy="44.83" r="31.41" gradientUnits="userSpaceOnUse"><stop offset="0.19" stop-color="#66c2d1"/><stop offset="0.37" stop-color="#62bbce"/><stop offset="0.61" stop-color="#56a9c6"/><stop offset="0.89" stop-color="#438bb8"/><stop offset="1" stop-color="#3a7eb2"/></radialGradient><linearGradient id="linear-gradient-27" x1="63.16" y1="46.21" x2="78.63" y2="46.21" gradientUnits="userSpaceOnUse"><stop offset="0.06" stop-color="#80dded"/><stop offset="1" stop-color="#3d84b2"/></linearGradient><linearGradient id="linear-gradient-28" x1="47.18" y1="55.33" x2="63.16" y2="55.33" xlink:href="#linear-gradient-27"/><linearGradient id="linear-gradient-29" x1="63.16" y1="64.37" x2="78.72" y2="64.37" xlink:href="#linear-gradient-27"/><radialGradient id="radial-gradient-5" cx="62.89" cy="49.2" r="9.82" xlink:href="#radial-gradient-4"/><linearGradient id="linear-gradient-30" x1="63.16" y1="8.5" x2="63.16" y2="27.98" xlink:href="#linear-gradient-2"/><linearGradient id="linear-gradient-31" x1="63.41" y1="29.22" x2="62.36" y2="6.02" xlink:href="#linear-gradient-2"/></defs><g id="Layer_2" data-name="Layer 2"><g id="Layer_1-2" data-name="Layer 1"><polygon class="cls-1" points="32.69 105.4 24.69 99.4 24.69 79.4 32.69 79.4 32.69 105.4"/><polygon class="cls-2" points="31.69 103.15 25.69 98.65 25.69 81.65 31.69 81.65 31.69 103.15"/><path class="cls-3" d="M65.1,43.55,94.32,3.85A2.41,2.41,0,0,0,92.38,0H33.93A2.41,2.41,0,0,0,32,3.85l29.22,39.7A2.42,2.42,0,0,0,65.1,43.55Z"/><path class="cls-4" d="M33.93,0a2.38,2.38,0,0,0-2.21,1.49L58.4,20.24H70.76L94.15.78A2.36,2.36,0,0,0,92.38,0Z"/><path class="cls-5" d="M64.24,41.92,92.49,3.54A1.34,1.34,0,0,0,91.41,1.4H34.9a1.34,1.34,0,0,0-1.08,2.14L62.07,41.92A1.35,1.35,0,0,0,64.24,41.92Z"/><polygon class="cls-6" points="93.69 105.4 101.69 99.4 101.69 79.4 93.69 79.4 93.69 105.4"/><polygon class="cls-7" points="94.69 103.15 100.69 98.65 100.69 81.65 94.69 81.65 94.69 103.15"/><polygon class="cls-8" points="36.66 77.07 36.66 108.16 63.16 123.7 89.66 108.16 89.66 77.07 63.16 61.52 36.66 77.07"/><polygon class="cls-9" points="38.66 78.24 38.66 106.98 63.16 121.36 87.66 106.98 87.66 78.24 63.16 63.87 38.66 78.24"/><path class="cls-3" d="M45.49,40.14,6.05,18a1.89,1.89,0,0,0-2.41.46C0,23.53-10.14,43.21,33.71,61.27Z"/><path class="cls-10" d="M40.23,37.18,6.05,18a2,2,0,0,0-1.48-.15l3,4.31L38.41,43.45Z"/><path class="cls-11" d="M46,41.84,7.64,20.29a1.84,1.84,0,0,0-2.34.45c-3.53,5-13.4,24.09,29.24,41.66Z"/><path class="cls-3" d="M47.67,25,14.94,4.63A1.13,1.13,0,0,0,13.23,5C11.3,9.32,6.75,26.23,42.13,43.1Z"/><path class="cls-12" d="M43.31,22.25,14.94,4.63a1.35,1.35,0,0,0-1.12-.16L16.69,8.3,42.91,27.68Z"/><path class="cls-13" d="M48.31,26.47,16.48,6.69A1.11,1.11,0,0,0,14.81,7c-1.87,4.23-6.3,20.68,28.12,37.09Z"/><path class="cls-3" d="M24.42,47.17,13,45.32a1.26,1.26,0,0,0-1.42.92c-1.13,4.21-3.92,19.38,13.19,22.85a1.26,1.26,0,0,0,1.52-1.29l-.79-19.44A1.26,1.26,0,0,0,24.42,47.17Z"/><path class="cls-14" d="M25.48,48.36a1.26,1.26,0,0,0-1.06-1.19L13,45.32a1.28,1.28,0,0,0-.7.11l2.09,2.92,11.16,1.33Z"/><path class="cls-15" d="M25.53,48.16,14.1,46.31a1.26,1.26,0,0,0-1.42.92c-1.13,4.21-3.93,19.38,13.19,22.85a1.27,1.27,0,0,0,1.52-1.29L26.6,49.35A1.26,1.26,0,0,0,25.53,48.16Z"/><path class="cls-3" d="M24.81,59.49,13.13,62.75a1,1,0,0,0-.63,1.13c.46,3.8,3.35,17.81,20.76,13.4a1.08,1.08,0,0,0,.53-1.6L26.05,60.16A1.11,1.11,0,0,0,24.81,59.49Z"/><path class="cls-16" d="M13.13,62.75a.81.81,0,0,0-.47.36l2.77,1,10-2.39-.81-2.14Z"/><path class="cls-17" d="M25.71,60.17l-11,3.08a.94.94,0,0,0-.6,1.07C14.5,67.92,17.24,81.17,33.7,77a1,1,0,0,0,.5-1.51L26.88,60.81A1.07,1.07,0,0,0,25.71,60.17Z"/><path class="cls-3" d="M80.82,40.14,120.27,18a1.88,1.88,0,0,1,2.4.46c3.63,5.09,13.78,24.77-30.07,42.83Z"/><path class="cls-18" d="M86.09,37.18,120.27,18a2,2,0,0,1,1.48-.15l-3,4.31L87.9,43.45Z"/><path class="cls-19" d="M80.31,41.84l38.37-21.55a1.83,1.83,0,0,1,2.33.45c3.53,5,13.4,24.09-29.24,41.66Z"/><path class="cls-3" d="M78.64,25,111.37,4.63a1.14,1.14,0,0,1,1.72.34C115,9.32,119.56,26.23,84.18,43.1Z"/><path class="cls-20" d="M83,22.25,111.37,4.63a1.35,1.35,0,0,1,1.12-.16L109.62,8.3,83.4,27.68Z"/><path class="cls-21" d="M78,26.47,109.83,6.69A1.11,1.11,0,0,1,111.5,7c1.88,4.23,6.3,20.68-28.11,37.09Z"/><path class="cls-3" d="M101.9,47.17l11.43-1.85a1.26,1.26,0,0,1,1.42.92c1.13,4.21,3.93,19.38-13.18,22.85A1.27,1.27,0,0,1,100,67.8l.8-19.44A1.24,1.24,0,0,1,101.9,47.17Z"/><path class="cls-22" d="M100.84,48.36a1.24,1.24,0,0,1,1.06-1.19l11.43-1.85a1.27,1.27,0,0,1,.7.11l-2.09,2.92-11.16,1.33Z"/><path class="cls-23" d="M100.78,48.16l11.43-1.85a1.26,1.26,0,0,1,1.42.92c1.13,4.21,3.93,19.38-13.18,22.85a1.27,1.27,0,0,1-1.53-1.29l.8-19.44A1.25,1.25,0,0,1,100.78,48.16Z"/><path class="cls-3" d="M101.5,59.49l11.68,3.26a1,1,0,0,1,.63,1.13c-.46,3.8-3.35,17.81-20.76,13.4a1.08,1.08,0,0,1-.53-1.6l7.75-15.52A1.1,1.1,0,0,1,101.5,59.49Z"/><path class="cls-24" d="M113.18,62.75a.81.81,0,0,1,.47.36l-2.77,1-10-2.39.8-2.14Z"/><path class="cls-25" d="M100.61,60.17l11,3.08a.93.93,0,0,1,.6,1.07c-.43,3.6-3.17,16.85-19.64,12.68a1,1,0,0,1-.5-1.51l7.33-14.68A1.05,1.05,0,0,1,100.61,60.17Z"/><path class="cls-26" d="M104.41,75.63V36.42a7.29,7.29,0,0,0-3.65-6.32l-34-19.61a7.3,7.3,0,0,0-7.29,0l-34,19.61a7.3,7.3,0,0,0-3.64,6.32V75.63a7.29,7.29,0,0,0,3.64,6.31l34,19.61a7.3,7.3,0,0,0,7.29,0l34-19.61A7.28,7.28,0,0,0,104.41,75.63Z"/><path class="cls-27" d="M57.41,11.71l-8.58,7.11A7.07,7.07,0,0,0,47.35,28L81.19,82.17a6.92,6.92,0,0,0,8,2.91l13-4.25L66.8,101.55l10-9.52a7,7,0,0,0,1-8.78L43.31,29.79a7.06,7.06,0,0,0-8.17-2.87L25.55,30.1Z"/><path class="cls-28" d="M96,70.77V41.28A7.29,7.29,0,0,0,92.34,35L66.8,20.21a7.3,7.3,0,0,0-7.29,0L34,35a7.3,7.3,0,0,0-3.64,6.32V70.77A7.29,7.29,0,0,0,34,77.08L59.51,91.83a7.3,7.3,0,0,0,7.29,0L92.34,77.08A7.28,7.28,0,0,0,96,70.77Z"/><path class="cls-29" d="M94.3,69.79V42.25a7.3,7.3,0,0,0-3.64-6.32L66.8,22.16a7.3,7.3,0,0,0-7.29,0L35.66,35.93A7.29,7.29,0,0,0,32,42.25V69.79a7.29,7.29,0,0,0,3.65,6.32L59.51,89.88a7.3,7.3,0,0,0,7.29,0L90.66,76.11A7.3,7.3,0,0,0,94.3,69.79Z"/><path class="cls-30" d="M66.8,89.88,90.66,76.11a7.31,7.31,0,0,0,2.69-2.72C90.84,75,75.65,84.45,56.51,79.47A46.63,46.63,0,0,1,32,63.39v6.4a7.29,7.29,0,0,0,3.65,6.32L59.51,89.88A7.3,7.3,0,0,0,66.8,89.88Z"/><ellipse class="cls-31" cx="69.57" cy="42.27" rx="13.5" ry="18.5" transform="translate(3.17 89.37) rotate(-66.63)"/><path class="cls-32" d="M92.34,33,66.8,18.21a7.3,7.3,0,0,0-7.29,0L34,33a7.3,7.3,0,0,0-3.64,6.32v2A7.3,7.3,0,0,1,34,35L59.51,20.21a7.3,7.3,0,0,1,7.29,0L92.34,35A7.29,7.29,0,0,1,96,41.28v-2A7.29,7.29,0,0,0,92.34,33Z"/><path class="cls-3" d="M46.45,47.86V64.18a2.57,2.57,0,0,0,1.29,2.23l14.13,8.16a2.57,2.57,0,0,0,2.57,0l14.14-8.16a2.58,2.58,0,0,0,1.28-2.23V47.86a2.55,2.55,0,0,0-1.28-2.22L64.44,37.47a2.57,2.57,0,0,0-2.57,0L47.74,45.64A2.54,2.54,0,0,0,46.45,47.86Z"/><path class="cls-33" d="M47.18,47.55V63a2.58,2.58,0,0,0,1.28,2.22L61.87,73a2.57,2.57,0,0,0,2.57,0l13.41-7.74A2.56,2.56,0,0,0,79.13,63V47.55a2.55,2.55,0,0,0-1.28-2.22L64.44,37.59a2.57,2.57,0,0,0-2.57,0L48.46,45.33A2.57,2.57,0,0,0,47.18,47.55Z"/><path class="cls-34" d="M78.63,45.88a1.88,1.88,0,0,0-.43-.35L64.09,37.38a1.93,1.93,0,0,0-.93-.25V55.29Z"/><path class="cls-35" d="M47.43,46.22a1.85,1.85,0,0,0-.25.93V63.44a1.84,1.84,0,0,0,.3,1l15.68-9.15Z"/><path class="cls-36" d="M78.2,65.06a1.81,1.81,0,0,0,.52-.47l-15.56-9.3V73.46a1.93,1.93,0,0,0,.93-.25Z"/><path class="cls-3" d="M55.61,52.42v5.75a2.57,2.57,0,0,0,1.28,2.22l5,2.88a2.57,2.57,0,0,0,2.57,0l5-2.88a2.55,2.55,0,0,0,1.28-2.22V52.42a2.53,2.53,0,0,0-1.28-2.22l-5-2.88a2.57,2.57,0,0,0-2.57,0l-5,2.88A2.55,2.55,0,0,0,55.61,52.42Z"/><path class="cls-37" d="M56.24,52.78v5A2.58,2.58,0,0,0,57.52,60l4.35,2.51a2.57,2.57,0,0,0,2.57,0L68.79,60a2.57,2.57,0,0,0,1.29-2.22v-5a2.55,2.55,0,0,0-1.29-2.22l-4.35-2.51a2.57,2.57,0,0,0-2.57,0l-4.35,2.51A2.57,2.57,0,0,0,56.24,52.78Z"/><path class="cls-38" d="M60.82,52.74l-.66-8-1,8.34-8,.93,8,.4,1,8.3,1-8.3,8-.4Z"/><path class="cls-39" d="M64.19,31.21l9.28-3.57a2.87,2.87,0,0,0,1.76-3.38L71.55,9.63a2.89,2.89,0,0,0-2.79-2.17H57.55a2.88,2.88,0,0,0-2.78,2.17L51.09,24.26a2.87,2.87,0,0,0,1.75,3.38l9.29,3.57A2.92,2.92,0,0,0,64.19,31.21Z"/><path class="cls-40" d="M64.1,29.31,72.65,26a2.65,2.65,0,0,0,1.61-3.11L70.88,9.46a2.66,2.66,0,0,0-2.57-2H58a2.64,2.64,0,0,0-2.56,2L52.05,22.92A2.65,2.65,0,0,0,53.67,26l8.54,3.28A2.67,2.67,0,0,0,64.1,29.31Z"/><path class="cls-41" d="M70.16,22.4h-14a1.43,1.43,0,0,1-1.27-1.71l1.61-12A1.35,1.35,0,0,1,57.76,7.4h10.8a1.34,1.34,0,0,1,1.26,1.25l1.61,12A1.43,1.43,0,0,1,70.16,22.4Z"/><path class="cls-31" d="M52.05,22.92A2.65,2.65,0,0,0,53.67,26l2.33.89c5.52-3.05,12-1.68,15.63-.5l1-.39a2.65,2.65,0,0,0,1.61-3.11l-.07-.28H52.12Z"/></g></g></svg>