<svg xmlns="http://www.w3.org/2000/svg" xmlns:xlink="http://www.w3.org/1999/xlink" viewBox="0 0 130 121.5"><defs><style>.cls-1{fill:url(#radial-gradient);}.cls-2{fill:url(#linear-gradient);}.cls-3{fill:#3a4d8f;}.cls-4{fill:url(#linear-gradient-2);}.cls-5{fill:url(#linear-gradient-3);}.cls-6{fill:url(#linear-gradient-4);}.cls-7{fill:url(#linear-gradient-5);}.cls-8{fill:url(#linear-gradient-6);}.cls-9{fill:url(#linear-gradient-7);}.cls-10{fill:url(#linear-gradient-8);}.cls-11{fill:url(#linear-gradient-9);}.cls-12{fill:url(#linear-gradient-10);}.cls-13{fill:url(#linear-gradient-11);}.cls-14{fill:url(#linear-gradient-12);}.cls-15{fill:url(#linear-gradient-13);}.cls-16{fill:url(#linear-gradient-14);}.cls-17{fill:url(#linear-gradient-15);}.cls-18{fill:url(#linear-gradient-16);}.cls-19{fill:url(#linear-gradient-17);}.cls-20{fill:url(#linear-gradient-18);}.cls-21,.cls-24,.cls-32{opacity:0.5;}.cls-21{fill:url(#linear-gradient-19);}.cls-22{fill:url(#linear-gradient-20);}.cls-23{fill:url(#linear-gradient-21);}.cls-24{fill:#406ebf;}.cls-25{fill:#8ec6e5;}.cls-26{fill:url(#linear-gradient-22);}.cls-27{fill:url(#radial-gradient-2);}.cls-28{fill:url(#linear-gradient-23);}.cls-29{fill:url(#linear-gradient-24);}.cls-30{fill:url(#linear-gradient-25);}.cls-31{fill:url(#radial-gradient-3);}.cls-32,.cls-35{fill:#fff;}.cls-33{fill:url(#linear-gradient-26);}.cls-34{fill:url(#linear-gradient-27);}.cls-35{opacity:0.2;}</style><radialGradient id="radial-gradient" cx="65.46" cy="120.58" r="33.68" gradientUnits="userSpaceOnUse"><stop offset="0.19" stop-color="#ddb08e"/><stop offset="0.28" stop-color="#d6ac8e"/><stop offset="0.4" stop-color="#c4a18d"/><stop offset="0.55" stop-color="#a68f8d"/><stop offset="0.71" stop-color="#7c758b"/><stop offset="0.88" stop-color="#47558a"/><stop offset="1" stop-color="#1d3c89"/></radialGradient><linearGradient id="linear-gradient" x1="64.81" y1="98.82" x2="64.81" y2="122.41" gradientUnits="userSpaceOnUse"><stop offset="0.06" stop-color="#173684"/><stop offset="1" stop-color="#7287ed"/></linearGradient><linearGradient id="linear-gradient-2" x1="4.57" y1="28.4" x2="40.23" y2="28.4" gradientUnits="userSpaceOnUse"><stop offset="0.06" stop-color="#acdee5"/><stop offset="0.49" stop-color="#85bede"/><stop offset="0.89" stop-color="#5c81c1"/></linearGradient><linearGradient id="linear-gradient-3" x1="-0.14" y1="7.9" x2="30.72" y2="46.27" xlink:href="#linear-gradient-2"/><linearGradient id="linear-gradient-4" x1="-382.53" y1="48.47" x2="-354.36" y2="48.47" gradientTransform="translate(397.47 85.31) rotate(18)" xlink:href="#linear-gradient-2"/><linearGradient id="linear-gradient-5" x1="19.83" y1="0.7" x2="33.81" y2="34.98" xlink:href="#linear-gradient-2"/><linearGradient id="linear-gradient-6" x1="-0.48" y1="49.53" x2="12.55" y2="49.53" gradientTransform="translate(10.43 -3.87) rotate(-2.84)" xlink:href="#linear-gradient-2"/><linearGradient id="linear-gradient-7" x1="11.87" y1="43.32" x2="24.93" y2="59.41" xlink:href="#linear-gradient-2"/><linearGradient id="linear-gradient-8" x1="-84.1" y1="5.38" x2="-71.72" y2="5.38" gradientTransform="translate(88.37 24.12) rotate(-23.48)" xlink:href="#linear-gradient-2"/><linearGradient id="linear-gradient-9" x1="10.03" y1="59.56" x2="27.04" y2="67.61" xlink:href="#linear-gradient-2"/><linearGradient id="linear-gradient-10" x1="-741.1" y1="28.4" x2="-705.45" y2="28.4" gradientTransform="matrix(-1, 0, 0, 1, -615.67, 0)" xlink:href="#linear-gradient-2"/><linearGradient id="linear-gradient-11" x1="-745.81" y1="7.9" x2="-714.96" y2="46.27" gradientTransform="matrix(-1, 0, 0, 1, -615.67, 0)" xlink:href="#linear-gradient-2"/><linearGradient id="linear-gradient-12" x1="-1091.71" y1="278.89" x2="-1063.54" y2="278.89" gradientTransform="matrix(-0.95, 0.31, 0.31, 0.95, -1013.15, 85.31)" xlink:href="#linear-gradient-2"/><linearGradient id="linear-gradient-13" x1="-725.84" y1="0.7" x2="-711.86" y2="34.98" gradientTransform="matrix(-1, 0, 0, 1, -615.67, 0)" xlink:href="#linear-gradient-2"/><linearGradient id="linear-gradient-14" x1="-745.24" y1="12.57" x2="-732.2" y2="12.57" gradientTransform="matrix(-1, -0.05, -0.05, 1, -626.1, -3.87)" xlink:href="#linear-gradient-2"/><linearGradient id="linear-gradient-15" x1="-733.8" y1="43.32" x2="-720.74" y2="59.41" gradientTransform="matrix(-1, 0, 0, 1, -615.67, 0)" xlink:href="#linear-gradient-2"/><linearGradient id="linear-gradient-16" x1="-768.01" y1="-291.76" x2="-755.63" y2="-291.76" gradientTransform="matrix(-0.92, -0.4, -0.4, 0.92, -704.04, 24.12)" xlink:href="#linear-gradient-2"/><linearGradient id="linear-gradient-17" x1="-735.65" y1="59.56" x2="-718.63" y2="67.61" gradientTransform="matrix(-1, 0, 0, 1, -615.67, 0)" xlink:href="#linear-gradient-2"/><linearGradient id="linear-gradient-18" x1="38.33" y1="1.23" x2="84.75" y2="92.75" gradientUnits="userSpaceOnUse"><stop offset="0.44" stop-color="#9cd8e2"/><stop offset="0.52" stop-color="#f0effe"/><stop offset="0.61" stop-color="#6cafd3"/></linearGradient><linearGradient id="linear-gradient-19" x1="46.56" y1="17.24" x2="87.96" y2="95.04" gradientUnits="userSpaceOnUse"><stop offset="0" stop-color="#fff"/><stop offset="0.22" stop-color="#c2c2ff" stop-opacity="0.88"/><stop offset="0.6" stop-color="#5b5bff" stop-opacity="0.68"/><stop offset="0.87" stop-color="#1919ff" stop-opacity="0.55"/><stop offset="1" stop-color="blue" stop-opacity="0.5"/></linearGradient><linearGradient id="linear-gradient-20" x1="65" y1="90.19" x2="65" y2="20.93" xlink:href="#linear-gradient-2"/><linearGradient id="linear-gradient-21" x1="47.95" y1="21.58" x2="79.33" y2="80.92" xlink:href="#linear-gradient-2"/><linearGradient id="linear-gradient-22" x1="32.17" y1="27.05" x2="97.83" y2="27.05" gradientUnits="userSpaceOnUse"><stop offset="0.06" stop-color="#fff"/><stop offset="0.49" stop-color="#85bede"/><stop offset="0.89" stop-color="#5c81c1"/></linearGradient><radialGradient id="radial-gradient-2" cx="58.53" cy="42.52" r="30.36" gradientUnits="userSpaceOnUse"><stop offset="0.19" stop-color="#66c2d1"/><stop offset="0.37" stop-color="#62bbce"/><stop offset="0.61" stop-color="#56a9c6"/><stop offset="0.89" stop-color="#438bb8"/><stop offset="1" stop-color="#3a7eb2"/></radialGradient><linearGradient id="linear-gradient-23" x1="65" y1="44.01" x2="80.48" y2="44.01" gradientUnits="userSpaceOnUse"><stop offset="0.06" stop-color="#80dded"/><stop offset="1" stop-color="#3d84b2"/></linearGradient><linearGradient id="linear-gradient-24" x1="49.02" y1="53.13" x2="65" y2="53.13" xlink:href="#linear-gradient-23"/><linearGradient id="linear-gradient-25" x1="65" y1="62.17" x2="80.56" y2="62.17" xlink:href="#linear-gradient-23"/><radialGradient id="radial-gradient-3" cx="64.73" cy="47" r="9.82" xlink:href="#radial-gradient-2"/><linearGradient id="linear-gradient-26" x1="65.56" y1="6.72" x2="65.56" y2="27.89" xlink:href="#linear-gradient-22"/><linearGradient id="linear-gradient-27" x1="65.56" y1="32.83" x2="65.56" y2="2.51" xlink:href="#linear-gradient-2"/></defs><g id="Layer_2" data-name="Layer 2"><g id="Layer_1-2" data-name="Layer 1"><polygon class="cls-1" points="38.31 74.86 38.31 105.95 64.81 121.5 91.31 105.95 91.31 74.86 64.81 59.32 38.31 74.86"/><polygon class="cls-2" points="40.31 76.04 40.31 104.78 64.81 119.15 89.31 104.78 89.31 76.04 64.81 61.66 40.31 76.04"/><path class="cls-3" d="M45.49,37.94,6.05,15.78a1.88,1.88,0,0,0-2.41.46C0,21.32-10.14,41,33.71,59.07Z"/><path class="cls-4" d="M40.23,35,6.05,15.78a1.92,1.92,0,0,0-1.48-.15l3,4.31L38.41,41.25Z"/><path class="cls-5" d="M46,39.64,7.64,18.09a1.83,1.83,0,0,0-2.34.45C1.77,23.48-8.1,42.63,34.54,60.19Z"/><path class="cls-3" d="M46,33.88,23.94.62A1.09,1.09,0,0,0,22.2.32c-3.61,3.71-14.91,19.3,11,50Z"/><path class="cls-6" d="M43,29.44,23.94.62A1.25,1.25,0,0,0,23,0L24,5,40.4,34.84Z"/><path class="cls-7" d="M45.94,35.66,24.52,3.31A1.07,1.07,0,0,0,22.82,3C19.31,6.63,8.32,21.79,33.55,51.67Z"/><path class="cls-3" d="M24.42,45,13,43.12a1.26,1.26,0,0,0-1.42.91c-1.13,4.22-3.92,19.39,13.19,22.86a1.27,1.27,0,0,0,1.52-1.29l-.79-19.44A1.28,1.28,0,0,0,24.42,45Z"/><path class="cls-8" d="M25.48,46.16A1.28,1.28,0,0,0,24.42,45L13,43.12a1.2,1.2,0,0,0-.7.11l2.09,2.92,11.16,1.33Z"/><path class="cls-9" d="M25.53,46,14.1,44.11a1.26,1.26,0,0,0-1.42.91c-1.13,4.22-3.93,19.39,13.19,22.86a1.27,1.27,0,0,0,1.52-1.3L26.6,47.15A1.28,1.28,0,0,0,25.53,46Z"/><path class="cls-3" d="M24.81,57.29,13.13,60.54a1,1,0,0,0-.63,1.13c.46,3.81,3.35,17.82,20.76,13.41a1.08,1.08,0,0,0,.53-1.6L26.05,58A1.11,1.11,0,0,0,24.81,57.29Z"/><path class="cls-10" d="M13.13,60.54a.87.87,0,0,0-.47.37l2.77,1,10-2.38-.81-2.15Z"/><path class="cls-11" d="M25.71,58l-11,3.08a.93.93,0,0,0-.6,1.07C14.5,65.71,17.24,79,33.7,74.8a1,1,0,0,0,.5-1.52L26.88,58.6A1.06,1.06,0,0,0,25.71,58Z"/><path class="cls-3" d="M84.51,37.94,124,15.78a1.88,1.88,0,0,1,2.41.46C130,21.32,140.14,41,96.29,59.07Z"/><path class="cls-12" d="M89.77,35,124,15.78a1.92,1.92,0,0,1,1.48-.15l-3,4.31L91.59,41.25Z"/><path class="cls-13" d="M84,39.64l38.36-21.55a1.83,1.83,0,0,1,2.34.45c3.53,4.94,13.4,24.09-29.24,41.65Z"/><path class="cls-3" d="M84,33.88l22-33.26a1.09,1.09,0,0,1,1.74-.3c3.61,3.71,14.91,19.3-11,50Z"/><path class="cls-14" d="M87,29.44,106.06.62a1.25,1.25,0,0,1,1-.6L106,5,89.6,34.84Z"/><path class="cls-15" d="M84.06,35.66,105.48,3.31a1.07,1.07,0,0,1,1.7-.29c3.51,3.61,14.5,18.77-10.73,48.65Z"/><path class="cls-3" d="M105.58,45,117,43.12a1.26,1.26,0,0,1,1.42.91c1.13,4.22,3.92,19.39-13.19,22.86a1.27,1.27,0,0,1-1.52-1.29l.79-19.44A1.28,1.28,0,0,1,105.58,45Z"/><path class="cls-16" d="M104.52,46.16a1.28,1.28,0,0,1,1.06-1.2L117,43.12a1.2,1.2,0,0,1,.7.11l-2.09,2.92-11.16,1.33Z"/><path class="cls-17" d="M104.47,46l11.43-1.84a1.26,1.26,0,0,1,1.42.91c1.13,4.22,3.93,19.39-13.19,22.86a1.27,1.27,0,0,1-1.52-1.3l.79-19.43A1.28,1.28,0,0,1,104.47,46Z"/><path class="cls-3" d="M105.19,57.29l11.68,3.25a1,1,0,0,1,.63,1.13c-.46,3.81-3.35,17.82-20.76,13.41a1.08,1.08,0,0,1-.53-1.6L104,58A1.11,1.11,0,0,1,105.19,57.29Z"/><path class="cls-18" d="M116.87,60.54a.87.87,0,0,1,.47.37l-2.77,1-10-2.38.81-2.15Z"/><path class="cls-19" d="M104.29,58l11,3.08a.93.93,0,0,1,.6,1.07C115.5,65.71,112.76,79,96.3,74.8a1,1,0,0,1-.5-1.52l7.32-14.68A1.06,1.06,0,0,1,104.29,58Z"/><path class="cls-20" d="M106.25,73.42V34.21a7.28,7.28,0,0,0-3.65-6.31L68.65,8.29a7.32,7.32,0,0,0-7.3,0L27.4,27.9a7.28,7.28,0,0,0-3.65,6.31V73.42a7.29,7.29,0,0,0,3.65,6.32l34,19.6a7.27,7.27,0,0,0,7.3,0l33.95-19.6A7.29,7.29,0,0,0,106.25,73.42Z"/><path class="cls-21" d="M59.25,9.51l-8.58,7.11a7.08,7.08,0,0,0-1.48,9.2L83,80a6.93,6.93,0,0,0,8,2.91l13-4.25L68.65,99.34l10-9.52a6.93,6.93,0,0,0,1-8.77L45.16,27.59A7.09,7.09,0,0,0,37,24.71L27.4,27.9Z"/><path class="cls-22" d="M97.83,68.56V39.07a7.29,7.29,0,0,0-3.64-6.31L68.65,18a7.32,7.32,0,0,0-7.3,0L35.81,32.76a7.29,7.29,0,0,0-3.64,6.31V68.56a7.3,7.3,0,0,0,3.64,6.32L61.35,89.62a7.27,7.27,0,0,0,7.3,0L94.19,74.88A7.3,7.3,0,0,0,97.83,68.56Z"/><path class="cls-23" d="M96.15,67.59V40a7.28,7.28,0,0,0-3.65-6.31L68.65,20a7.27,7.27,0,0,0-7.3,0L37.5,33.73A7.28,7.28,0,0,0,33.85,40V67.59a7.3,7.3,0,0,0,3.65,6.32L61.35,87.68a7.32,7.32,0,0,0,7.3,0L92.5,73.91A7.3,7.3,0,0,0,96.15,67.59Z"/><path class="cls-24" d="M68.65,87.68,92.5,73.91a7.34,7.34,0,0,0,2.7-2.72c-2.52,1.62-17.7,11.06-36.85,6.08a46.68,46.68,0,0,1-24.5-16.09v6.41a7.3,7.3,0,0,0,3.65,6.32L61.35,87.68A7.32,7.32,0,0,0,68.65,87.68Z"/><ellipse class="cls-25" cx="71.41" cy="40.07" rx="13.5" ry="18.5" transform="translate(6.31 89.73) rotate(-66.63)"/><path class="cls-26" d="M94.19,30.76,68.65,16a7.32,7.32,0,0,0-7.3,0L35.81,30.76a7.29,7.29,0,0,0-3.64,6.31v2a7.29,7.29,0,0,1,3.64-6.31L61.35,18a7.32,7.32,0,0,1,7.3,0L94.19,32.76a7.29,7.29,0,0,1,3.64,6.31v-2A7.29,7.29,0,0,0,94.19,30.76Z"/><path class="cls-3" d="M48.3,45.66V62a2.55,2.55,0,0,0,1.28,2.22l14.14,8.16a2.55,2.55,0,0,0,2.56,0L80.42,64.2A2.55,2.55,0,0,0,81.7,62V45.66a2.56,2.56,0,0,0-1.28-2.23L66.28,35.27a2.55,2.55,0,0,0-2.56,0L49.58,43.43A2.56,2.56,0,0,0,48.3,45.66Z"/><path class="cls-27" d="M49,45.35V60.83a2.57,2.57,0,0,0,1.29,2.23L63.72,70.8a2.55,2.55,0,0,0,2.56,0l13.41-7.74A2.57,2.57,0,0,0,81,60.83V45.35a2.54,2.54,0,0,0-1.29-2.22L66.28,35.38a2.55,2.55,0,0,0-2.56,0L50.31,43.13A2.54,2.54,0,0,0,49,45.35Z"/><path class="cls-28" d="M80.48,43.68a1.79,1.79,0,0,0-.43-.35L65.93,35.18a1.83,1.83,0,0,0-.93-.25V53.09Z"/><path class="cls-29" d="M49.27,44a1.81,1.81,0,0,0-.25.92v16.3a1.86,1.86,0,0,0,.3,1L65,53.09Z"/><path class="cls-30" d="M80.05,62.85a1.87,1.87,0,0,0,.51-.46L65,53.09V71.25a1.83,1.83,0,0,0,.93-.25Z"/><path class="cls-3" d="M57.45,50.22V56a2.57,2.57,0,0,0,1.29,2.22l5,2.88a2.6,2.6,0,0,0,2.56,0l5-2.88A2.57,2.57,0,0,0,72.55,56V50.22A2.57,2.57,0,0,0,71.26,48l-5-2.87a2.55,2.55,0,0,0-2.56,0l-5,2.87A2.57,2.57,0,0,0,57.45,50.22Z"/><path class="cls-31" d="M58.08,50.58v5a2.58,2.58,0,0,0,1.28,2.23l4.36,2.51a2.55,2.55,0,0,0,2.56,0l4.36-2.51a2.58,2.58,0,0,0,1.28-2.23v-5a2.55,2.55,0,0,0-1.28-2.22l-4.36-2.52a2.55,2.55,0,0,0-2.56,0l-4.36,2.52A2.55,2.55,0,0,0,58.08,50.58Z"/><path class="cls-32" d="M61.91,54.54c-.23-2.67-.45-5.33-.67-8l-1,8.33-8,.94,8,.4,1,8.3,1-8.3,8-.4Z"/><path class="cls-33" d="M66.59,29l9.29-3.56a2.87,2.87,0,0,0,1.75-3.38L74,7.43a2.88,2.88,0,0,0-2.78-2.17H60a2.87,2.87,0,0,0-2.78,2.17L53.5,22.06a2.86,2.86,0,0,0,1.75,3.38L64.53,29A2.82,2.82,0,0,0,66.59,29Z"/><path class="cls-34" d="M66.51,27.11l8.54-3.28a2.65,2.65,0,0,0,1.62-3.11L73.28,7.26a2.63,2.63,0,0,0-2.56-2H60.41a2.65,2.65,0,0,0-2.57,2L54.46,20.72a2.65,2.65,0,0,0,1.61,3.11l8.55,3.28A2.67,2.67,0,0,0,66.51,27.11Z"/><path class="cls-35" d="M72.57,20.19h-14a1.42,1.42,0,0,1-1.27-1.7l1.61-12a1.35,1.35,0,0,1,1.26-1.26H71a1.36,1.36,0,0,1,1.26,1.26l1.61,12A1.42,1.42,0,0,1,72.57,20.19Z"/><path class="cls-25" d="M54.46,20.72a2.65,2.65,0,0,0,1.61,3.11l2.33.89c5.52-3,12.05-1.68,15.64-.5l1-.39a2.65,2.65,0,0,0,1.62-3.11l-.07-.28H54.53Z"/></g></g></svg>