<svg xmlns="http://www.w3.org/2000/svg" xmlns:xlink="http://www.w3.org/1999/xlink" viewBox="0 0 116.48 93.01"><defs><style>.cls-1,.cls-14{fill:#8a9093;}.cls-2{fill:url(#linear-gradient);}.cls-3{fill:url(#linear-gradient-2);}.cls-4{fill:url(#linear-gradient-3);}.cls-5{fill:url(#linear-gradient-4);}.cls-6{fill:url(#linear-gradient-5);}.cls-7{fill:url(#linear-gradient-6);}.cls-8{fill:url(#linear-gradient-7);}.cls-9{fill:url(#linear-gradient-8);}.cls-10{fill:url(#linear-gradient-9);}.cls-11,.cls-15,.cls-17,.cls-18,.cls-21{opacity:0.5;}.cls-11{fill:url(#linear-gradient-10);}.cls-12{fill:url(#linear-gradient-11);}.cls-13{fill:url(#linear-gradient-12);}.cls-14{opacity:0.2;}.cls-15{fill:url(#linear-gradient-13);}.cls-16{fill:url(#radial-gradient);}.cls-17{fill:url(#linear-gradient-14);}.cls-18{fill:url(#linear-gradient-15);}.cls-19{fill:#c7ccd0;}.cls-20{fill:url(#linear-gradient-16);}.cls-21{fill:#fff;}</style><linearGradient id="linear-gradient" x1="1.22" y1="64.97" x2="6.74" y2="64.97" gradientTransform="matrix(0.99, -0.1, 0.07, 0.71, -4.85, -8.33)" gradientUnits="userSpaceOnUse"><stop offset="0" stop-color="#e6ebee"/><stop offset="0.28" stop-color="#bec7ca"/><stop offset="0.77" stop-color="#7d8d91"/><stop offset="1" stop-color="#64767a"/></linearGradient><linearGradient id="linear-gradient-2" x1="-9.09" y1="9.01" x2="19.19" y2="42.84" gradientUnits="userSpaceOnUse"><stop offset="0" stop-color="#dce1e2"/><stop offset="0.23" stop-color="#d8ddde"/><stop offset="0.47" stop-color="#cbd1d3"/><stop offset="0.72" stop-color="#b6bdc0"/><stop offset="0.97" stop-color="#99a0a6"/><stop offset="1" stop-color="#959da3"/></linearGradient><linearGradient id="linear-gradient-3" x1="0.61" y1="87.51" x2="6.12" y2="87.51" xlink:href="#linear-gradient"/><linearGradient id="linear-gradient-4" x1="3.39" y1="40.01" x2="18.22" y2="56.03" xlink:href="#linear-gradient-2"/><linearGradient id="linear-gradient-5" x1="90.53" y1="77.66" x2="96.05" y2="77.66" gradientTransform="matrix(-0.99, -0.1, -0.07, 0.71, 211.1, -8.33)" xlink:href="#linear-gradient"/><linearGradient id="linear-gradient-6" x1="80.68" y1="9.01" x2="108.96" y2="42.84" gradientTransform="matrix(-1, 0, 0, 1, 206.25, 0)" xlink:href="#linear-gradient-2"/><linearGradient id="linear-gradient-7" x1="89.92" y1="100.2" x2="95.44" y2="100.2" gradientTransform="matrix(-0.99, -0.1, -0.07, 0.71, 211.1, -8.33)" xlink:href="#linear-gradient"/><linearGradient id="linear-gradient-8" x1="93.16" y1="40.01" x2="107.99" y2="56.03" gradientTransform="matrix(-1, 0, 0, 1, 206.25, 0)" xlink:href="#linear-gradient-2"/><linearGradient id="linear-gradient-9" x1="79.97" y1="83.02" x2="31.71" y2="1.92" gradientUnits="userSpaceOnUse"><stop offset="0.39" stop-color="#a3b1b4"/><stop offset="0.48" stop-color="#dae6ea"/><stop offset="0.58" stop-color="#d9dee2"/></linearGradient><linearGradient id="linear-gradient-10" x1="20.62" y1="47.11" x2="97.28" y2="47.11" gradientTransform="matrix(1, 0, 0, 1, 0, 0)" xlink:href="#linear-gradient"/><linearGradient id="linear-gradient-11" x1="58.22" y1="11.11" x2="58.22" y2="101.03" xlink:href="#linear-gradient-9"/><linearGradient id="linear-gradient-12" x1="35.25" y1="21.03" x2="103.06" y2="96.22" gradientUnits="userSpaceOnUse"><stop offset="0.06" stop-color="#d4dcdd"/><stop offset="0.88" stop-color="#a3b1b4"/><stop offset="1" stop-color="#d9dee2"/></linearGradient><linearGradient id="linear-gradient-13" x1="50.78" y1="20.85" x2="101.42" y2="64.36" gradientTransform="translate(69.07 -39.57) rotate(66.63)" xlink:href="#linear-gradient"/><radialGradient id="radial-gradient" cx="49.43" cy="39.39" r="23.71" gradientUnits="userSpaceOnUse"><stop offset="0" stop-color="#acb4b6"/><stop offset="0.34" stop-color="#afb8ba"/><stop offset="0.69" stop-color="#b9c2c7"/><stop offset="1" stop-color="#c7d1d8"/></radialGradient><linearGradient id="linear-gradient-14" x1="60.25" y1="39.96" x2="74.29" y2="39.17" gradientTransform="matrix(1, 0, 0, 1, 0, 0)" xlink:href="#linear-gradient"/><linearGradient id="linear-gradient-15" x1="47.89" y1="57.65" x2="59.95" y2="51.12" gradientTransform="matrix(1, 0, 0, 1, 0, 0)" xlink:href="#linear-gradient"/><linearGradient id="linear-gradient-16" x1="138.15" y1="61.5" x2="-6.11" y2="-1.53" gradientTransform="matrix(1, 0, 0, 1, 0, 0)" xlink:href="#linear-gradient"/></defs><g id="Layer_2" data-name="Layer 2"><g id="Layer_1-2" data-name="Layer 1"><path class="cls-1" d="M3,25.31H21.15a0,0,0,0,1,0,0V51.66a0,0,0,0,1,0,0h0a20,20,0,0,1-20-20V27.14A1.83,1.83,0,0,1,3,25.31Z" transform="translate(-3.81 1.31) rotate(-5.76)"/><path class="cls-2" d="M3.11,27.93.44,26.71h0a1.18,1.18,0,0,0-.44,1L1.09,38.46c.39,3.78,2.83,7,6.48,9.18Z"/><path class="cls-3" d="M23.48,51.13,20.9,25.55,3.4,27.31c-.78.08-1.37.55-1.32,1.05L3.35,40.89c.34,3.37,2.69,6.22,6.23,8.17A26.8,26.8,0,0,0,23.48,51.13Z"/><path class="cls-1" d="M4,41.31H22.15a0,0,0,0,1,0,0V67.66a0,0,0,0,1,0,0h0a20,20,0,0,1-20-20V43.14A1.83,1.83,0,0,1,4,41.31Z" transform="translate(-5.41 1.5) rotate(-5.76)"/><path class="cls-4" d="M4.11,43.93,1.44,42.71h0a1.18,1.18,0,0,0-.44,1L2.09,54.46c.39,3.78,2.83,7,6.48,9.18Z"/><path class="cls-5" d="M24.48,67.13,21.9,41.55,4.4,43.31c-.78.08-1.37.55-1.32,1L4.35,56.89c.34,3.37,2.69,6.22,6.23,8.17A26.8,26.8,0,0,0,24.48,67.13Z"/><path class="cls-1" d="M115.33,25.31h0a0,0,0,0,1,0,0V51.66a0,0,0,0,1,0,0H97.16a1.83,1.83,0,0,1-1.83-1.83V45.31a20,20,0,0,1,20-20Z" transform="translate(206.27 87.36) rotate(-174.24)"/><path class="cls-6" d="M113.37,27.93,116,26.71h0a1.18,1.18,0,0,1,.44,1l-1.09,10.79c-.39,3.78-2.83,7-6.48,9.18Z"/><path class="cls-7" d="M93,51.13l2.58-25.58,17.5,1.76c.78.08,1.37.55,1.32,1.05l-1.27,12.53c-.34,3.37-2.69,6.22-6.23,8.17A26.8,26.8,0,0,1,93,51.13Z"/><path class="cls-1" d="M114.33,41.31h0a0,0,0,0,1,0,0V67.66a0,0,0,0,1,0,0H96.16a1.83,1.83,0,0,1-1.83-1.83V61.31A20,20,0,0,1,114.33,41.31Z" transform="translate(202.67 119.17) rotate(-174.24)"/><path class="cls-8" d="M112.37,43.93,115,42.71h0a1.18,1.18,0,0,1,.44,1l-1.09,10.79c-.39,3.78-2.83,7-6.48,9.18Z"/><path class="cls-9" d="M92,67.13l2.58-25.58,17.5,1.76c.78.08,1.37.55,1.32,1l-1.27,12.53c-.34,3.37-2.69,6.22-6.23,8.17A26.8,26.8,0,0,1,92,67.13Z"/><path class="cls-10" d="M99.49,66.11V26.9a7.29,7.29,0,0,0-3.65-6.32L61.89,1a7.27,7.27,0,0,0-7.3,0L20.64,20.58A7.29,7.29,0,0,0,17,26.9V66.11a7.28,7.28,0,0,0,3.65,6.31L54.59,92a7.32,7.32,0,0,0,7.3,0l34-19.61A7.28,7.28,0,0,0,99.49,66.11Z"/><path class="cls-11" d="M52.47,2.19,43.9,9.31a7.07,7.07,0,0,0-1.49,9.19L76.26,72.65a6.92,6.92,0,0,0,8,2.92l13-4.25L61.87,92l10-9.52a6.93,6.93,0,0,0,1-8.78L38.38,20.28a7.07,7.07,0,0,0-8.17-2.88l-9.59,3.18Z"/><path class="cls-12" d="M91.06,61.25V31.76a7.3,7.3,0,0,0-3.65-6.32L61.87,10.7a7.3,7.3,0,0,0-7.29,0L29,25.44a7.3,7.3,0,0,0-3.65,6.32V61.25A7.28,7.28,0,0,0,29,67.56L54.58,82.31a7.3,7.3,0,0,0,7.29,0L87.41,67.56A7.28,7.28,0,0,0,91.06,61.25Z"/><path class="cls-13" d="M89.37,60.28V32.73a7.31,7.31,0,0,0-3.64-6.32L61.87,12.64a7.3,7.3,0,0,0-7.29,0L30.72,26.41a7.31,7.31,0,0,0-3.64,6.32V60.28a7.29,7.29,0,0,0,3.64,6.31L54.58,80.36a7.25,7.25,0,0,0,7.29,0L85.73,66.59A7.29,7.29,0,0,0,89.37,60.28Z"/><path class="cls-14" d="M61.87,80.36,85.73,66.59a7.31,7.31,0,0,0,2.69-2.72C85.91,65.49,70.72,74.94,51.58,70a46.63,46.63,0,0,1-24.5-16.08v6.41a7.29,7.29,0,0,0,3.64,6.31L54.58,80.36A7.25,7.25,0,0,0,61.87,80.36Z"/><ellipse class="cls-15" cx="64.63" cy="32.75" rx="13.5" ry="18.5" transform="translate(8.93 79.1) rotate(-66.63)"/><path class="cls-1" d="M75.84,47.13,60.18,31.32a2.87,2.87,0,0,0-4.09,0L40.43,47.13a2.89,2.89,0,0,0,0,4.06L56.09,67a2.87,2.87,0,0,0,4.09,0L75.84,51.19A2.89,2.89,0,0,0,75.84,47.13Z"/><path class="cls-16" d="M74.9,46.3,60.11,31.36a2.78,2.78,0,0,0-4,0L41.36,46.3a2.78,2.78,0,0,0,0,3.91l14.8,14.94a2.78,2.78,0,0,0,4,0L74.9,50.21A2.76,2.76,0,0,0,74.9,46.3Z"/><path class="cls-17" d="M60.59,31.84a3.46,3.46,0,0,0-2.46-.95V48.25H76a2.14,2.14,0,0,0-.66-1.51Z"/><path class="cls-18" d="M40.27,48.25a2.14,2.14,0,0,0,.66,1.52l14.75,14.9a3.45,3.45,0,0,0,2.45,1V48.25Z"/><path class="cls-1" d="M58.79,57.63l8.92-8.83a.76.76,0,0,0,0-1.08l-8.92-8.83a.75.75,0,0,0-1.07,0L48.8,47.72a.74.74,0,0,0,0,1.08l8.92,8.83A.75.75,0,0,0,58.79,57.63Z"/><path class="cls-19" d="M58.69,56.46l7.78-7.7a.72.72,0,0,0,0-1l-7.78-7.7a.71.71,0,0,0-1,0l-7.78,7.7a.7.7,0,0,0,0,1l7.78,7.7A.71.71,0,0,0,58.69,56.46Z"/><path class="cls-20" d="M87.41,23.44,61.87,8.7a7.25,7.25,0,0,0-7.29,0L29,23.44a7.3,7.3,0,0,0-3.65,6.32v2A7.3,7.3,0,0,1,29,25.44L54.58,10.7a7.25,7.25,0,0,1,7.29,0L87.41,25.44a7.3,7.3,0,0,1,3.65,6.32v-2A7.3,7.3,0,0,0,87.41,23.44Z"/><path class="cls-21" d="M54.8,47.23q-.33-4-.67-8l-1,8.33-8,.93,8,.4,1,8.31,1-8.31,8-.4Z"/></g></g></svg>