<svg width="25" height="18" viewBox="0 0 25 18" fill="none" xmlns="http://www.w3.org/2000/svg">
                <path d="M24.5272 15.9537C24.5272 16.5816 24.0169 17.09 23.389 17.09H1.23591C0.608003 17.09 0.0996094 16.5816 0.0996094 15.9537V1.1363C0.0996094 0.508394 0.608003 0 1.23591 0H23.389C24.0169 0 24.5272 0.508394 24.5272 1.1363V15.9537Z" fill="#E6E7E8"/>
                <path d="M0.0996094 15.9535C0.0996094 16.5814 0.608003 17.0898 1.23591 17.0898H23.389C24.0169 17.0898 24.5272 16.5814 24.5272 15.9535V15.7676H0.0996094V15.9535Z" fill="#DA2128"/>
                <path d="M24.5272 13.1348H0.0996094V14.457H24.5272V13.1348Z" fill="#DA2128"/>
                <path d="M24.5272 10.5039H0.0996094V11.8242H24.5272V10.5039Z" fill="#DA2128"/>
                <path d="M24.5272 7.87061H0.0996094V9.19281H24.5272V7.87061Z" fill="#DA2128"/>
                <path d="M24.5272 5.23975H0.0996094V6.56195H24.5272V5.23975Z" fill="#DA2128"/>
                <path d="M24.5272 2.60645H0.0996094V3.92865H24.5272V2.60645Z" fill="#DA2128"/>
                <path d="M24.5272 1.1363C24.5272 0.508394 24.0169 0 23.389 0H1.23591C0.608003 0 0.0996094 0.508394 0.0996094 1.1363V1.3222H24.5272V1.1363Z" fill="#DA2128"/>
                <path d="M12.8626 0H1.23401C0.608003 0 0.0996094 0.510291 0.0996094 1.1363V9.19851H12.8626V0Z" fill="#006BB5"/>
                <path d="M0.958757 0.207031L1.08396 0.582636H1.46525L1.15604 0.814068L1.27176 1.19347L0.958757 0.962034L0.649548 1.19347L0.769058 0.814068L0.456055 0.582636H0.839247L0.958757 0.207031Z" fill="#EDEDEE"/>
                <path d="M3.05854 0.207031L3.17994 0.582636H3.56693L3.25772 0.814068L3.37723 1.19347L3.05854 0.962034L2.75502 1.19347L2.87453 0.814068L2.56152 0.582636H2.94472L3.05854 0.207031Z" fill="#EDEDEE"/>
                <path d="M5.26328 0.207031L5.37899 0.582636H5.76029L5.45108 0.814068L5.57059 1.19347L5.26328 0.962034L4.94838 1.19347L5.06409 0.814068L4.75488 0.582636H5.14187L5.26328 0.207031Z" fill="#EDEDEE"/>
                <path d="M7.45583 0.207031L7.57534 0.582636H7.95853L7.64553 0.814068L7.76504 1.19347L7.45583 0.962034L7.14093 1.19347L7.25664 0.814068L6.95312 0.582636H7.33632L7.45583 0.207031Z" fill="#EDEDEE"/>
                <path d="M9.64902 0.207031L9.76474 0.582636H10.1574L9.84251 0.814068L9.95823 1.19347L9.64902 0.962034L9.33412 1.19347L9.45553 0.814068L9.14062 0.582636H9.52951L9.64902 0.207031Z" fill="#EDEDEE"/>
                <path d="M1.9702 1.23877L2.08591 1.61627H2.4729L2.15989 1.8496L2.27941 2.229L1.9702 1.99567L1.65529 2.229L1.7767 1.8496L1.45801 1.61627H1.85069L1.9702 1.23877Z" fill="#EDEDEE"/>
                <path d="M4.06997 1.23877L4.19138 1.61627H4.57457L4.26536 1.8496L4.38487 2.229L4.06997 1.99567L3.75697 2.229L3.87648 1.8496L3.56348 1.61627H3.95046L4.06997 1.23877Z" fill="#EDEDEE"/>
                <path d="M6.26523 1.23877L6.38474 1.61627H6.77173L6.45872 1.8496L6.57823 2.229L6.26523 1.99567L5.95033 2.229L6.07553 1.8496L5.75684 1.61627H6.14382L6.26523 1.23877Z" fill="#EDEDEE"/>
                <path d="M8.45778 1.23877L8.57729 1.61627H8.96617L8.65127 1.8496L8.77078 2.229L8.45778 1.99567L8.14857 2.229L8.26808 1.8496L7.95508 1.61627H8.33827L8.45778 1.23877Z" fill="#EDEDEE"/>
                <path d="M10.656 1.23877L10.7698 1.61627H11.1587L10.8495 1.8496L10.9652 2.229L10.656 1.99567L10.3411 2.229L10.4606 1.8496L10.1514 1.61627H10.5346L10.656 1.23877Z" fill="#EDEDEE"/>
                <path d="M1.9702 3.12256L2.08591 3.49627H2.4729L2.15989 3.73149L2.27941 4.10899L1.9702 3.87756L1.65529 4.10899L1.7767 3.73149L1.45801 3.49627H1.85069L1.9702 3.12256Z" fill="#EDEDEE"/>
                <path d="M4.06997 3.12256L4.19138 3.49627H4.57457L4.26536 3.73149L4.38487 4.10899L4.06997 3.87756L3.75697 4.10899L3.87648 3.73149L3.56348 3.49627H3.95046L4.06997 3.12256Z" fill="#EDEDEE"/>
                <path d="M6.26523 3.12256L6.38474 3.49627H6.77173L6.45872 3.73149L6.57823 4.10899L6.26523 3.87756L5.95033 4.10899L6.07553 3.73149L5.75684 3.49627H6.14382L6.26523 3.12256Z" fill="#EDEDEE"/>
                <path d="M8.45778 3.12256L8.57729 3.49627H8.96617L8.65127 3.73149L8.77078 4.10899L8.45778 3.87756L8.14857 4.10899L8.26808 3.73149L7.95508 3.49627H8.33827L8.45778 3.12256Z" fill="#EDEDEE"/>
                <path d="M10.656 3.12256L10.7698 3.49627H11.1587L10.8495 3.73149L10.9652 4.10899L10.656 3.87756L10.3411 4.10899L10.4606 3.73149L10.1514 3.49627H10.5346L10.656 3.12256Z" fill="#EDEDEE"/>
                <path d="M1.9702 5.00098L2.08591 5.37848H2.4729L2.15989 5.6137L2.27941 5.98741L1.9702 5.75219L1.65529 5.98741L1.7767 5.6137L1.45801 5.37848H1.85069L1.9702 5.00098Z" fill="#EDEDEE"/>
                <path d="M4.06997 5.00098L4.19138 5.37848H4.57457L4.26536 5.6137L4.38487 5.98741L4.06997 5.75219L3.75697 5.98741L3.87648 5.6137L3.56348 5.37848H3.95046L4.06997 5.00098Z" fill="#EDEDEE"/>
                <path d="M6.26523 5.00098L6.38474 5.37848H6.77173L6.45872 5.6137L6.57823 5.98741L6.26523 5.75219L5.95033 5.98741L6.07553 5.6137L5.75684 5.37848H6.14382L6.26523 5.00098Z" fill="#EDEDEE"/>
                <path d="M8.45778 5.00098L8.57729 5.37848H8.96617L8.65127 5.6137L8.77078 5.98741L8.45778 5.75219L8.14857 5.98741L8.26808 5.6137L7.95508 5.37848H8.33827L8.45778 5.00098Z" fill="#EDEDEE"/>
                <path d="M10.656 5.00098L10.7698 5.37848H11.1587L10.8495 5.6137L10.9652 5.98741L10.656 5.75219L10.3411 5.98741L10.4606 5.6137L10.1514 5.37848H10.5346L10.656 5.00098Z" fill="#EDEDEE"/>
                <path d="M1.9702 6.88086L2.08591 7.25646H2.4729L2.15989 7.49169L2.27941 7.86919L1.9702 7.63586L1.65529 7.86919L1.7767 7.49169L1.45801 7.25646H1.85069L1.9702 6.88086Z" fill="#EDEDEE"/>
                <path d="M4.06997 6.88086L4.19138 7.25646H4.57457L4.26536 7.49169L4.38487 7.86919L4.06997 7.63586L3.75697 7.86919L3.87648 7.49169L3.56348 7.25646H3.95046L4.06997 6.88086Z" fill="#EDEDEE"/>
                <path d="M6.26523 6.88086L6.38474 7.25646H6.77173L6.45872 7.49169L6.57823 7.86919L6.26523 7.63586L5.95033 7.86919L6.07553 7.49169L5.75684 7.25646H6.14382L6.26523 6.88086Z" fill="#EDEDEE"/>
                <path d="M8.45778 6.88086L8.57729 7.25646H8.96617L8.65127 7.49169L8.77078 7.86919L8.45778 7.63586L8.14857 7.86919L8.26808 7.49169L7.95508 7.25646H8.33827L8.45778 6.88086Z" fill="#EDEDEE"/>
                <path d="M10.656 6.88086L10.7698 7.25646H11.1587L10.8495 7.49169L10.9652 7.86919L10.656 7.63586L10.3411 7.86919L10.4606 7.49169L10.1514 7.25646H10.5346L10.656 6.88086Z" fill="#EDEDEE"/>
                <path d="M11.8416 0.207031L11.9611 0.582636H12.3443L12.0351 0.814068L12.1565 1.19347L11.8416 0.962034L11.5286 1.19347L11.6481 0.814068L11.3389 0.582636H11.7221L11.8416 0.207031Z" fill="#EDEDEE"/>
                <path d="M0.958757 2.08691L1.08396 2.46631H1.46525L1.15604 2.69585L1.27176 3.07525L0.958757 2.84192L0.649548 3.07525L0.769058 2.69585L0.456055 2.46631H0.839247L0.958757 2.08691Z" fill="#EDEDEE"/>
                <path d="M3.05854 2.08691L3.17994 2.46631H3.56693L3.25772 2.69585L3.37723 3.07525L3.05854 2.84192L2.75502 3.07525L2.87453 2.69585L2.56152 2.46631H2.94472L3.05854 2.08691Z" fill="#EDEDEE"/>
                <path d="M5.26328 2.08691L5.37899 2.46631H5.76029L5.45108 2.69585L5.57059 3.07525L5.26328 2.84192L4.94838 3.07525L5.06409 2.69585L4.75488 2.46631H5.14187L5.26328 2.08691Z" fill="#EDEDEE"/>
                <path d="M7.45583 2.08691L7.57534 2.46631H7.95853L7.64553 2.69585L7.76504 3.07525L7.45583 2.84192L7.14093 3.07525L7.25664 2.69585L6.95312 2.46631H7.33632L7.45583 2.08691Z" fill="#EDEDEE"/>
                <path d="M9.64902 2.08691L9.76474 2.46631H10.1574L9.84251 2.69585L9.95823 3.07525L9.64902 2.84192L9.33412 3.07525L9.45553 2.69585L9.14062 2.46631H9.52951L9.64902 2.08691Z" fill="#EDEDEE"/>
                <path d="M11.8416 2.08691L11.9611 2.46631H12.3443L12.0351 2.69585L12.1565 3.07525L11.8416 2.84192L11.5286 3.07525L11.6481 2.69585L11.3389 2.46631H11.7221L11.8416 2.08691Z" fill="#EDEDEE"/>
                <path d="M0.958757 3.9668L1.08396 4.3424H1.46525L1.15604 4.57763L1.27176 4.95323L0.958757 4.7199L0.649548 4.95323L0.769058 4.57763L0.456055 4.3424H0.839247L0.958757 3.9668Z" fill="#EDEDEE"/>
                <path d="M3.05854 3.9668L3.17994 4.3424H3.56693L3.25772 4.57763L3.37723 4.95323L3.05854 4.7199L2.75502 4.95323L2.87453 4.57763L2.56152 4.3424H2.94472L3.05854 3.9668Z" fill="#EDEDEE"/>
                <path d="M5.26328 3.9668L5.37899 4.3424H5.76029L5.45108 4.57763L5.57059 4.95323L5.26328 4.7199L4.94838 4.95323L5.06409 4.57763L4.75488 4.3424H5.14187L5.26328 3.9668Z" fill="#EDEDEE"/>
                <path d="M7.45583 3.9668L7.57534 4.3424H7.95853L7.64553 4.57763L7.76504 4.95323L7.45583 4.7199L7.14093 4.95323L7.25664 4.57763L6.95312 4.3424H7.33632L7.45583 3.9668Z" fill="#EDEDEE"/>
                <path d="M9.64902 3.9668L9.76474 4.3424H10.1574L9.84251 4.57763L9.95823 4.95323L9.64902 4.7199L9.33412 4.95323L9.45553 4.57763L9.14062 4.3424H9.52951L9.64902 3.9668Z" fill="#EDEDEE"/>
                <path d="M11.8416 3.9668L11.9611 4.3424H12.3443L12.0351 4.57763L12.1565 4.95323L11.8416 4.7199L11.5286 4.95323L11.6481 4.57763L11.3389 4.3424H11.7221L11.8416 3.9668Z" fill="#EDEDEE"/>
                <path d="M0.958757 5.84863L1.08396 6.22613H1.46525L1.15604 6.45567L1.27176 6.83317L0.958757 6.60174L0.649548 6.83317L0.769058 6.45567L0.456055 6.22613H0.839247L0.958757 5.84863Z" fill="#EDEDEE"/>
                <path d="M3.05854 5.84863L3.17994 6.22613H3.56693L3.25772 6.45567L3.37723 6.83317L3.05854 6.60174L2.75502 6.83317L2.87453 6.45567L2.56152 6.22613H2.94472L3.05854 5.84863Z" fill="#EDEDEE"/>
                <path d="M5.26328 5.84863L5.37899 6.22613H5.76029L5.45108 6.45567L5.57059 6.83317L5.26328 6.60174L4.94838 6.83317L5.06409 6.45567L4.75488 6.22613H5.14187L5.26328 5.84863Z" fill="#EDEDEE"/>
                <path d="M7.45583 5.84863L7.57534 6.22613H7.95853L7.64553 6.45567L7.76504 6.83317L7.45583 6.60174L7.14093 6.83317L7.25664 6.45567L6.95312 6.22613H7.33632L7.45583 5.84863Z" fill="#EDEDEE"/>
                <path d="M9.64902 5.84863L9.76474 6.22613H10.1574L9.84251 6.45567L9.95823 6.83317L9.64902 6.60174L9.33412 6.83317L9.45553 6.45567L9.14062 6.22613H9.52951L9.64902 5.84863Z" fill="#EDEDEE"/>
                <path d="M11.8416 5.84863L11.9611 6.22613H12.3443L12.0351 6.45567L12.1565 6.83317L11.8416 6.60174L11.5286 6.83317L11.6481 6.45567L11.3389 6.22613H11.7221L11.8416 5.84863Z" fill="#EDEDEE"/>
                <path d="M0.958757 7.72461L1.08396 8.1059H1.46525L1.15604 8.33734L1.27176 8.71294L0.958757 8.48151L0.649548 8.71294L0.769058 8.33734L0.456055 8.1059H0.839247L0.958757 7.72461Z" fill="#EDEDEE"/>
                <path d="M3.05854 7.72461L3.17994 8.1059H3.56693L3.25772 8.33734L3.37723 8.71294L3.05854 8.48151L2.75502 8.71294L2.87453 8.33734L2.56152 8.1059H2.94472L3.05854 7.72461Z" fill="#EDEDEE"/>
                <path d="M5.26328 7.72461L5.37899 8.1059H5.76029L5.45108 8.33734L5.57059 8.71294L5.26328 8.48151L4.94838 8.71294L5.06409 8.33734L4.75488 8.1059H5.14187L5.26328 7.72461Z" fill="#EDEDEE"/>
                <path d="M7.45583 7.72461L7.57534 8.1059H7.95853L7.64553 8.33734L7.76504 8.71294L7.45583 8.48151L7.14093 8.71294L7.25664 8.33734L6.95312 8.1059H7.33632L7.45583 7.72461Z" fill="#EDEDEE"/>
                <path d="M9.64902 7.72461L9.76474 8.1059H10.1574L9.84251 8.33734L9.95823 8.71294L9.64902 8.48151L9.33412 8.71294L9.45553 8.33734L9.14062 8.1059H9.52951L9.64902 7.72461Z" fill="#EDEDEE"/>
                <path d="M11.8416 7.72461L11.9611 8.1059H12.3443L12.0351 8.33734L12.1565 8.71294L11.8416 8.48151L11.5286 8.71294L11.6481 8.33734L11.3389 8.1059H11.7221L11.8416 7.72461Z" fill="#EDEDEE"/>
                </svg>