<svg width="152" height="36" viewBox="0 0 152 36" fill="none" xmlns="http://www.w3.org/2000/svg">
<path d="M31.6333 29.6685C31.3351 29.5807 30.9877 29.6513 30.6789 30.1663L25.9556 30.1801L25.2889 31.994C25.2165 32.1906 25.0842 32.3606 24.91 32.4808C24.7358 32.601 24.5281 32.6656 24.3152 32.6659L25.2275 30.1819H24.5362L23.8713 31.9923C23.7985 32.189 23.6659 32.359 23.4914 32.4792C23.3169 32.5994 23.1089 32.664 22.8957 32.6641L23.8081 30.1836H23.1168L22.4588 31.994C22.3869 32.1909 22.2547 32.3611 22.0804 32.4814C21.906 32.6017 21.6981 32.6661 21.4851 32.6659L22.3957 30.1887L17.3075 30.2025H13.8177C13.8805 29.9695 14.02 29.7633 14.2145 29.6162C14.4091 29.4692 14.6477 29.3894 14.8933 29.3895H17.5251L21.5605 15.3864H14.4459C12.5895 21.1984 10.7332 27.7599 8.87694 33.7235C8.56288 34.7295 9.32259 35.9629 10.3946 35.9784C16.9671 36.0525 23.5396 35.9061 30.1139 35.9784C30.2963 35.9808 30.4742 35.9235 30.6197 35.8156C30.7652 35.7077 30.87 35.5553 30.9175 35.3824L32.2071 30.7227C32.269 30.5083 32.2438 30.2786 32.1368 30.082C32.0298 29.8854 31.8493 29.7372 31.6333 29.6685Z" fill="url(#paint0_linear_208_28498)"/>
<path d="M26.0117 0.0155035V3.92405e-10H18.7146C18.5525 -4.05779e-06 18.3921 0.0314687 18.2425 0.0926051C18.0929 0.153741 17.9571 0.243333 17.843 0.356218C17.7288 0.469104 17.6385 0.603051 17.5773 0.750345C17.5161 0.897638 17.4852 1.05537 17.4864 1.21444H21.113C21.0297 1.43348 20.882 1.62328 20.6886 1.75976C20.4953 1.89624 20.265 1.97325 20.0269 1.981L18.6338 2.02062C18.0092 4.02229 17.3834 6.02397 16.7565 8.02564H23.7062L25.666 1.21444H25.859C26.0138 1.21658 26.164 1.16286 26.2811 1.06346C26.3982 0.964072 26.474 0.825929 26.4942 0.675263C26.5115 0.526107 26.4718 0.375946 26.3826 0.253999C26.2934 0.132052 26.1612 0.0470397 26.0117 0.0155035Z" fill="url(#paint1_linear_208_28498)"/>
<path d="M31.842 10.3529L31.8262 10.172C31.442 5.95503 27.789 2.75615 23.4746 2.75615H10.9893C10.4828 2.75585 9.98855 2.90861 9.57358 3.19368C9.15861 3.47875 8.84306 3.88232 8.6698 4.34956C8.34345 5.12474 8.01594 5.89991 7.68726 6.67509H6.59944C6.22824 6.6755 5.86208 6.75941 5.52904 6.92036C5.19601 7.0813 4.90495 7.31502 4.67822 7.60357H10.8612C11.4034 7.60357 11.9403 7.61907 12.4754 7.62941C12.6605 7.6333 12.8427 7.67608 13.0095 7.75486C13.1764 7.83365 13.3242 7.94661 13.4429 8.08616C13.5616 8.2257 13.6484 8.38859 13.6976 8.56385C13.7469 8.73912 13.7573 8.9227 13.7281 9.10224L12.2701 13.0298H11.5806L12.9702 9.24005H12.5386L11.1472 13.0298H10.2699L11.663 9.24005C9.3646 9.19526 7.50478 9.1522 5.20633 9.10913C4.93498 9.10432 4.6676 9.17361 4.43401 9.30927C4.20042 9.44492 4.0098 9.64162 3.88341 9.87742C3.77435 10.0817 3.69408 10.2996 3.64479 10.5251C3.62668 10.6075 3.62882 10.6929 3.65102 10.7743C3.67323 10.8557 3.71486 10.9308 3.77248 10.9932C3.8301 11.0557 3.90204 11.1038 3.98235 11.1335C4.06267 11.1632 4.14904 11.1738 4.23432 11.1642H4.2466C4.37097 11.1427 4.48839 11.0926 4.58931 11.018C4.69023 10.9435 4.77179 10.8466 4.82735 10.7353H8.82771C8.82911 10.8111 8.81513 10.8864 8.78659 10.9569C8.75805 11.0274 8.71552 11.0916 8.66148 11.1458C8.60743 11.1999 8.54295 11.243 8.47179 11.2725C8.40062 11.302 8.3242 11.3173 8.24695 11.3175H6.15554C3.26055 19.7686 1.22879 25.8546 0.388362 27.734C-0.452063 29.6134 0.26379 30.3989 0.877879 30.6952C1.14337 30.8201 1.43444 30.8837 1.72883 30.8812H7.00649L10.5156 20.8125H9.47513C9.20524 20.8125 8.9464 20.7073 8.75556 20.5199C8.56472 20.3325 8.4575 20.0784 8.4575 19.8134H14.351C16.8477 23.2587 19.3444 26.7521 21.8411 30.2025C24.2414 30.2025 26.6416 30.1663 29.0348 30.1663L20.706 19.1692L23.4588 19.2432C25.4581 19.2511 27.3942 18.5558 28.9165 17.2834C30.4388 16.0109 31.4468 14.2453 31.7578 12.3063C31.8589 11.6602 31.8871 11.0051 31.842 10.3529ZM10.6489 14.3838H9.84183L10.2366 13.3123H11.0419L10.6489 14.3838ZM11.7701 14.3838H11.1595L11.5508 13.3192H12.1648L11.7701 14.3838ZM15.3757 14.3838C14.5896 14.3838 13.6305 14.3838 12.4982 14.3838L12.8912 13.3244H15.7669L15.3757 14.3838ZM12.9983 13.0298L14.358 9.36408C15.5265 9.37958 16.4951 9.38647 17.2109 9.3882L15.8722 13.0298H12.9983ZM16.7547 14.3907H16.102L16.4933 13.3157H17.1477L16.7547 14.3907ZM16.5986 13.0298L17.9373 9.38992H18.5988L17.253 13.0298H16.5986ZM20.3866 13.7447C19.3901 14.2391 18.4566 14.3614 17.4829 14.3855L17.8759 13.3157C18.4942 13.3479 19.1139 13.3479 19.7322 13.3157C20.6533 13.2692 21.0709 13.1762 21.4867 12.9592C21.6613 12.8668 21.8254 12.7565 21.9762 12.6301C21.5096 13.0817 20.9731 13.4579 20.3866 13.7447ZM22.4237 11.6775C22.2482 12.296 21.6078 12.5905 21.2604 12.749C20.7937 12.9592 20.3831 12.9885 19.5883 13.0332C19.0531 13.0654 18.5164 13.0654 17.9812 13.0332L19.3146 9.4037C19.4901 9.37269 20.934 9.15909 21.8411 10.1065C21.964 10.2306 22.6342 10.9213 22.4237 11.6741V11.6775Z" fill="url(#paint2_linear_208_28498)"/>
<path d="M12.5562 10.3838L12.9738 9.24689H12.5369L11.8737 11.0539L12.5562 10.3838Z" fill="url(#paint3_linear_208_28498)"/>
<path d="M13.3017 7.94293C13.4668 8.08501 13.5925 8.26588 13.6671 8.46863C13.7417 8.67137 13.7627 8.88937 13.7281 9.10224L13.6526 9.30206L20.3322 2.75615H18.5987L13.3017 7.94293Z" fill="url(#paint4_linear_208_28498)"/>
<path d="M10.4998 12.4028L11.4841 9.72756L4.29046 16.7903C3.984 17.6906 3.69158 18.5479 3.41319 19.3621L10.4998 12.4028Z" fill="url(#paint5_linear_208_28498)"/>
<path d="M28.5049 4.38053L22.2044 10.5664C22.3145 10.7273 22.3906 10.9082 22.4282 11.0984C22.4659 11.2887 22.4643 11.4845 22.4237 11.6741C22.2482 12.2925 21.6078 12.587 21.2604 12.7455C20.8165 12.9453 20.4253 12.9815 19.7006 13.0246L19.3901 13.3312L19.7322 13.3157C20.6533 13.2692 21.0709 13.1762 21.4867 12.9592C21.6613 12.8668 21.8254 12.7565 21.9762 12.6301C21.5128 13.0809 20.98 13.4569 20.3972 13.7446C19.7677 14.0564 19.0859 14.2536 18.3847 14.3269L12.786 19.8099H14.3511C14.7113 20.3061 15.0704 20.8033 15.4283 21.3017L30.5174 6.48728C29.978 5.67431 29.2967 4.96113 28.5049 4.38053Z" fill="url(#paint6_linear_208_28498)"/>
<path d="M9.85935 22.6868L1.52352 30.8709C1.59172 30.8778 1.66027 30.8812 1.72883 30.8812L5.67477 30.8812L7.69775 28.8933L9.85935 22.6868Z" fill="url(#paint7_linear_208_28498)"/>
<path d="M23.4746 2.75615L21.6938 2.75609L14.9493 9.37091C15.8547 9.38125 16.6196 9.38647 17.2109 9.3882L15.8722 13.0298H12.9983L14.0159 10.2873L12.872 11.4105L12.2701 13.0298H11.5806L11.7841 12.4751L10.9314 13.3157H11.042L10.6489 14.3838H9.84183L2.71141 21.3861C1.63061 24.5195 0.839279 26.7314 0.388362 27.734C-0.313455 29.2998 0.0567879 30.0887 0.549814 30.4901L10.4068 20.8125L9.47513 20.8125C9.20524 20.8125 8.9464 20.7073 8.75556 20.5199C8.56472 20.3325 8.4575 20.0784 8.4575 19.8134L11.4245 19.8134L17.7829 13.5706L17.8759 13.3157L18.0356 13.3157L18.3163 13.0384C18.1987 13.0384 18.0865 13.0383 17.9812 13.0228L19.3146 9.39331C19.4778 9.36574 20.6656 9.19004 21.564 9.85152L27.682 3.84478C26.4009 3.12631 24.95 2.75095 23.4746 2.75615ZM11.7701 14.3768H11.1595L11.5508 13.3122H12.1649L11.7701 14.3768ZM15.3757 14.3768C14.5897 14.3768 13.6305 14.3768 12.4982 14.3768L12.8913 13.3174H15.767L15.3757 14.3768ZM16.7548 14.3872H16.1021L16.4933 13.3157H17.1477L16.7548 14.3872ZM17.2531 13.0263H16.5986L17.9373 9.38642H18.5988L17.2531 13.0263Z" fill="url(#paint8_linear_208_28498)"/>
<path d="M38.7181 28.4385V8.3356H44.0273C45.2278 8.31163 46.4251 8.46612 47.5785 8.79382C48.509 9.05755 49.316 9.6329 49.8594 10.42C50.3916 11.1986 50.6572 12.2741 50.656 13.6464C50.6629 14.3859 50.5888 15.124 50.4349 15.8479C50.3074 16.4497 50.0488 17.0174 49.677 17.5119C49.2753 18.012 48.7481 18.4009 48.147 18.6403L50.9788 28.4436H46.7065L44.3554 19.3345H42.8886V28.4436L38.7181 28.4385ZM42.8886 16.897H44.1028C44.7765 16.897 45.307 16.789 45.6942 16.5731C46.0828 16.3579 46.3761 16.0086 46.517 15.593C46.6905 15.0682 46.7718 14.5183 46.7574 13.9668C46.7574 13.0412 46.5819 12.3344 46.231 11.8463C45.8801 11.3582 45.2368 11.1142 44.301 11.1142H42.8851L42.8886 16.897Z" fill="#CFD7FF"/>
<path d="M58.6479 28.7125C57.0969 28.7125 55.8915 28.4518 55.0318 27.9304C54.1748 27.4105 53.5342 26.6081 53.2246 25.6669C52.8737 24.6816 52.6983 23.4861 52.6983 22.0804V8.33571H56.8179V22.6558C56.8177 23.146 56.8559 23.6355 56.932 24.12C56.9845 24.5479 57.1597 24.9523 57.4373 25.2862C57.6981 25.5848 58.0988 25.7341 58.6391 25.7341C59.1796 25.7341 59.5889 25.5848 59.8673 25.2862C60.1431 24.9524 60.3143 24.5473 60.3604 24.12C60.4274 23.6347 60.4608 23.1455 60.4604 22.6558V8.33571H64.5818V22.0856C64.5818 23.4912 64.4063 24.6867 64.0554 25.6721C63.7453 26.6117 63.1047 27.4122 62.2482 27.9304C61.3979 28.4506 60.1978 28.7113 58.6479 28.7125Z" fill="#CFD7FF"/>
<path d="M72.3562 28.7124C71.0918 28.7124 70.0391 28.4828 69.1981 28.0234C68.3471 27.5597 67.676 26.833 67.2891 25.9563C66.8598 25.0375 66.6113 23.8673 66.5434 22.4456L70.1332 21.8496C70.1504 22.5456 70.2392 23.2382 70.3982 23.9167C70.4936 24.3829 70.7218 24.8129 71.0561 25.157C71.2031 25.2929 71.3759 25.3991 71.5646 25.4694C71.7534 25.5398 71.9544 25.5729 72.1562 25.567C72.6954 25.567 73.0615 25.4016 73.2545 25.0708C73.4537 24.7225 73.5542 24.3281 73.5458 23.9288C73.5724 23.1749 73.3556 22.4321 72.9265 21.8065C72.4531 21.1721 71.9061 20.594 71.2965 20.0839L69.1717 18.2717C68.4351 17.6678 67.8075 16.9463 67.3154 16.1374C66.8347 15.3427 66.5943 14.3665 66.5943 13.209C66.5943 11.5552 67.0873 10.2857 68.0734 9.40026C69.0594 8.51484 70.411 8.08017 72.1281 8.09625C73.1563 8.09625 73.9991 8.26162 74.6564 8.59236C75.2786 8.89218 75.8071 9.35095 76.1864 9.92049C76.548 10.4749 76.8047 11.0888 76.9444 11.7327C77.0855 12.3741 77.1741 13.0256 77.2093 13.6809L73.6458 14.1977C73.6188 13.6544 73.5638 13.1128 73.4809 12.575C73.4332 12.1772 73.2761 11.7997 73.0265 11.4829C72.8974 11.3449 72.7381 11.2374 72.5607 11.1685C72.3832 11.0995 72.1921 11.071 72.0018 11.085C71.7888 11.0716 71.5761 11.114 71.3853 11.2079C71.1945 11.3017 71.0324 11.4435 70.9157 11.619C70.6825 11.969 70.5604 12.379 70.5648 12.7972C70.5377 13.4189 70.7108 14.0331 71.0596 14.5526C71.4535 15.0773 71.9073 15.5559 72.4124 15.9789L74.4845 17.767C75.3397 18.4903 76.0847 19.3303 76.697 20.2613C77.3111 21.1961 77.6187 22.3503 77.6199 23.7238C77.6325 24.6178 77.4056 25.4993 76.9619 26.2801C76.5329 27.0316 75.8984 27.6503 75.1302 28.0665C74.2781 28.5139 73.3222 28.7365 72.3562 28.7124Z" fill="#CFD7FF"/>
<path d="M81.7184 28.4386V11.3847H78.5602V8.33571H89.026V11.3882H85.9152V28.442L81.7184 28.4386Z" fill="#CFD7FF"/>
<path d="M94.0896 28.4386V20.4715L90.0963 8.33571H94.0142L96.2126 15.4087L98.2549 8.33571H102.048L98.104 20.4715V28.4386H94.0896Z" fill="#CFD7FF"/>
<path d="M103.656 28.4386V8.33571H107.826V25.6669H112.63V28.4472L103.656 28.4386Z" fill="#FFB436"/>
<path d="M120.034 28.7125C118.535 28.7125 117.346 28.4477 116.469 27.9183C115.597 27.3928 114.933 26.5915 114.586 25.6462C114.207 24.6632 114.018 23.4843 114.018 22.1097V14.6146C114.018 13.2365 114.207 12.0617 114.586 11.0901C114.931 10.1522 115.596 9.36074 116.469 8.85076C117.346 8.34776 118.535 8.09626 120.034 8.09626C121.534 8.09626 122.734 8.35694 123.636 8.87832C124.512 9.38838 125.181 10.1793 125.531 11.1177C125.91 12.0858 126.1 13.2566 126.101 14.6301V22.1252C126.101 23.5033 125.911 24.6821 125.531 25.6617C125.183 26.6097 124.514 27.4117 123.636 27.9338C122.751 28.4529 121.55 28.7125 120.034 28.7125ZM120.034 25.7582C120.573 25.7582 120.969 25.6393 121.222 25.3982C121.488 25.1342 121.664 24.7961 121.727 24.43C121.814 24.0012 121.856 23.5649 121.854 23.1278V13.6224C121.857 13.1892 121.814 12.7568 121.727 12.3322C121.664 11.9678 121.487 11.6315 121.222 11.3692C120.969 11.1395 120.573 11.0247 120.034 11.0247C119.529 11.0247 119.157 11.1453 118.895 11.3847C118.631 11.6452 118.455 11.9788 118.39 12.3408C118.303 12.7655 118.261 13.1978 118.264 13.631V23.1364C118.262 23.5729 118.3 24.0088 118.378 24.4387C118.433 24.8047 118.606 25.1439 118.871 25.4068C119.123 25.6393 119.511 25.7582 120.034 25.7582Z" fill="#FFB436"/>
<path d="M134.092 28.7125C132.592 28.7125 131.404 28.4477 130.526 27.9183C129.654 27.3928 128.99 26.5915 128.644 25.6462C128.269 24.6632 128.082 23.4843 128.082 22.1097V14.6146C128.082 13.2365 128.272 12.0617 128.651 11.0901C128.995 10.1522 129.661 9.36074 130.533 8.85076C131.405 8.34776 132.591 8.09626 134.092 8.09626C135.592 8.09626 136.793 8.35694 137.694 8.87832C138.569 9.38838 139.238 10.1793 139.589 11.1177C139.967 12.0858 140.157 13.2566 140.157 14.6301V22.1252C140.157 23.5033 139.967 24.6821 139.589 25.6617C139.24 26.6097 138.571 27.4117 137.694 27.9338C136.808 28.4529 135.607 28.7125 134.092 28.7125ZM134.092 25.7582C134.63 25.7582 135.027 25.6393 135.279 25.3982C135.545 25.1342 135.722 24.7961 135.785 24.43C135.871 24.0012 135.914 23.5649 135.911 23.1278V13.6224C135.914 13.1892 135.872 12.7568 135.785 12.3322C135.72 11.9674 135.542 11.6311 135.276 11.3692C135.026 11.1395 134.631 11.0247 134.092 11.0247C133.584 11.0247 133.204 11.1447 132.953 11.3847C132.689 11.6452 132.512 11.9788 132.448 12.3408C132.36 12.7655 132.318 13.1978 132.321 13.631V23.1364C132.319 23.5729 132.357 24.0088 132.435 24.4387C132.49 24.8047 132.663 25.1439 132.928 25.4068C133.181 25.6393 133.569 25.7582 134.092 25.7582Z" fill="#FFB436"/>
<path d="M144.692 28.4386V11.3847H141.534V8.33571H152V11.3882H148.889V28.442L144.692 28.4386Z" fill="#FFB436"/>
<defs>
<linearGradient id="paint0_linear_208_28498" x1="124.586" y1="-21.14" x2="118.493" y2="69.7778" gradientUnits="userSpaceOnUse">
<stop stop-color="#FF922E"/>
<stop offset="1" stop-color="#FFC239"/>
</linearGradient>
<linearGradient id="paint1_linear_208_28498" x1="78.1864" y1="7.74243" x2="61.4854" y2="241.12" gradientUnits="userSpaceOnUse">
<stop stop-color="#FF922E"/>
<stop offset="1" stop-color="#FFC239"/>
</linearGradient>
<linearGradient id="paint2_linear_208_28498" x1="108.78" y1="4.21583" x2="101.92" y2="61.4995" gradientUnits="userSpaceOnUse">
<stop stop-color="#CFD7FF"/>
<stop offset="1" stop-color="#B5B5B5"/>
</linearGradient>
<linearGradient id="paint3_linear_208_28498" x1="-2258.91" y1="338.791" x2="-2030.61" y2="-1246.89" gradientUnits="userSpaceOnUse">
<stop stop-color="#D0A5A5"/>
<stop offset="1" stop-color="#B5B5B5"/>
</linearGradient>
<linearGradient id="paint4_linear_208_28498" x1="-388.099" y1="128.264" x2="-281.485" y2="-291.46" gradientUnits="userSpaceOnUse">
<stop stop-color="#F9F9F9"/>
<stop offset="1" stop-color="#B5B5B5"/>
</linearGradient>
<linearGradient id="paint5_linear_208_28498" x1="-150.447" y1="61.3667" x2="-92.5755" y2="-230.736" gradientUnits="userSpaceOnUse">
<stop stop-color="#F9F9F9"/>
<stop offset="1" stop-color="#B5B5B5"/>
</linearGradient>
<linearGradient id="paint6_linear_208_28498" x1="-95.0865" y1="59.6384" x2="-54.7309" y2="-103.206" gradientUnits="userSpaceOnUse">
<stop stop-color="#F9F9F9"/>
<stop offset="0.135417" stop-color="#F7F7F7"/>
<stop offset="1" stop-color="#B5B5B5"/>
</linearGradient>
<linearGradient id="paint7_linear_208_28498" x1="5.27888" y1="43.2499" x2="86.4463" y2="-294.141" gradientUnits="userSpaceOnUse">
<stop stop-color="#F9F9F9"/>
<stop offset="1" stop-color="#B5B5B5"/>
</linearGradient>
<linearGradient id="paint8_linear_208_28498" x1="-9.40907" y1="34.0793" x2="14.1702" y2="-65.8117" gradientUnits="userSpaceOnUse">
<stop stop-color="#F9F9F9"/>
<stop offset="1" stop-color="#B5B5B5"/>
</linearGradient>
</defs>
</svg>
