<svg width="29" height="27" viewBox="0 0 29 27" fill="none" xmlns="http://www.w3.org/2000/svg">
<path fill-rule="evenodd" clip-rule="evenodd" d="M17.3397 14.8724V14.8696C17.1849 14.8812 16.3873 14.9309 14.6076 14.9309C13.1867 14.9309 12.1864 14.887 11.8347 14.8696V14.874C6.36479 14.6238 2.28208 13.6335 2.28208 12.4486C2.28208 11.2652 6.36479 10.2749 11.8347 10.0203V13.888C12.192 13.9143 13.2162 13.9772 14.6315 13.9772C16.3296 13.9772 17.1808 13.9041 17.3397 13.8895V10.0233C22.7984 10.2763 26.8713 11.2666 26.8713 12.4486C26.8713 13.6335 22.7984 14.6209 17.3397 14.8724ZM17.3397 9.62098V6.16H24.9565V0.882202H4.21792V6.16H11.8347V9.61952C5.64448 9.91502 0.989166 11.1906 0.989166 12.7177C0.989166 14.2449 5.64448 15.5191 11.8347 15.8159V26.9069H17.3397V15.8131C23.5201 15.5175 28.1642 14.2434 28.1642 12.7177C28.1642 11.192 23.5201 9.91794 17.3397 9.62098Z" fill="#A2A5C6"/>
</svg>
