<svg width="24" height="30" viewBox="0 0 24 30" fill="none" xmlns="http://www.w3.org/2000/svg">
<path d="M23.9756 8.70008C23.8956 8.88304 23.8408 9.08222 23.7358 9.24665C22.4254 11.2662 21.1082 13.2787 19.7909 15.2936C17.8938 18.1955 15.9965 21.0951 14.1017 23.9969C13.0767 25.5626 12.0539 27.1304 11.0265 28.6961C10.9717 28.7795 10.9124 28.8651 10.8393 28.9346C10.6361 29.1246 10.4101 29.0921 10.2686 28.8489C10.2092 28.747 10.1704 28.6288 10.1293 28.5177C8.75042 24.6918 7.37378 20.8658 5.99486 17.0398C4.12968 11.8591 2.2622 6.67593 0.397006 1.49283C0.30797 1.24733 0.143595 0.980999 0.353629 0.733192C0.568228 0.478436 0.849035 0.624341 1.09788 0.684555C7.04275 2.17372 12.9899 3.65592 18.9279 5.16825C19.5101 5.31648 20.0785 5.59902 20.5922 5.91631C21.5647 6.51845 22.4939 7.19702 23.4459 7.83624C23.7519 8.04004 23.9299 8.30638 23.9756 8.70008ZM11.7091 14.0777C13.9829 11.3634 16.2294 8.68155 18.5056 5.96725C13.1429 4.62169 7.83722 3.29233 2.53387 1.96296C2.52246 1.98381 2.51104 2.00465 2.49962 2.02549C5.5611 6.0321 8.62257 10.0364 11.7114 14.0801L11.7091 14.0777ZM1.7919 2.55817C1.77136 2.56743 1.75081 2.57437 1.73255 2.58364C4.55658 10.4301 7.38291 18.2743 10.207 26.1207C10.2732 26.0697 10.2823 26.0351 10.2846 26.0003C10.5859 22.3572 10.8896 18.712 11.1841 15.0667C11.1932 14.9463 11.1407 14.7934 11.0654 14.6961C8.54951 11.3912 6.02454 8.0933 3.50414 4.79306C2.9334 4.04733 2.36265 3.3039 1.79418 2.55817H1.7919ZM11.0973 26.848C11.1201 26.8549 11.1453 26.8595 11.1681 26.8665C14.9578 21.0696 18.7476 15.2751 22.5783 9.4134C22.4689 9.45972 22.4277 9.4713 22.3935 9.48983C19.0101 11.3333 15.6244 13.1745 12.2456 15.0249C12.1567 15.0735 12.0722 15.2148 12.0607 15.3215C11.99 16.0209 11.9397 16.7226 11.8804 17.422C11.6703 19.9487 11.458 22.4778 11.248 25.0044C11.1978 25.6181 11.1475 26.2319 11.0973 26.8456V26.848ZM22.6149 8.355C22.3546 8.17437 22.1447 8.02846 21.9323 7.88487C21.1857 7.38694 20.437 6.88901 19.6881 6.39339C19.517 6.2799 19.3914 6.27759 19.2338 6.4675C17.7659 8.2392 16.2819 9.99934 14.8049 11.7641C14.4099 12.2342 14.0195 12.7067 13.6268 13.1792C13.6406 13.1977 13.652 13.2139 13.6656 13.2324C16.6335 11.6159 19.6014 9.99934 22.6149 8.35733V8.355Z" fill="#A2A5C6"/>
</svg>
