<svg width="35" height="36" viewBox="0 0 35 36" fill="none" xmlns="http://www.w3.org/2000/svg">
<path fill-rule="evenodd" clip-rule="evenodd" d="M14.1161 0H23.5445C23.5445 0 22.1303 2.93549 21.6588 8.80647H16.0018C15.5304 2.93549 14.1161 0 14.1161 0ZM16.0071 10.7639H21.6642V13.6993H16.0071V10.7639ZM18.7452 16.6335L20.6309 18.5905L18.7452 20.5475L16.8595 18.5905L18.7452 16.6335ZM13.9969 15.6557V21.5267H11.1684V15.6557H13.9969ZM0.833954 23.4903V13.7053C0.833954 13.7053 3.66249 15.173 9.31956 15.6623V21.5333C3.66249 22.0226 0.833954 23.4903 0.833954 23.4903ZM20.1711 24.1379L24.1709 19.987L26.1708 22.0624L22.171 26.2134L20.1711 24.1379ZM34.7177 28.2845L28.0514 35.2065C28.0514 35.2065 27.0533 32.0914 23.3851 27.5926L27.3848 23.4417C31.7198 27.2486 34.7177 28.2845 34.7177 28.2845Z" fill="#A2A5C6"/>
</svg>
