<svg width="30" height="31" viewBox="0 0 30 31" fill="none" xmlns="http://www.w3.org/2000/svg">
<path fill-rule="evenodd" clip-rule="evenodd" d="M14.8877 17.3729C14.8877 17.3729 14.8877 17.3729 14.8877 17.373L14.8867 17.3739C14.887 17.3735 14.8874 17.3732 14.8877 17.3729ZM10.3614 12.8354C11.864 14.3417 13.3692 15.8506 14.8877 17.3729C18.1363 14.115 21.3227 10.9194 24.5768 7.6569V20.1521C24.6258 20.1549 24.67 20.1581 24.7109 20.161C24.7905 20.1668 24.8579 20.1716 24.9254 20.1716C25.2924 20.1719 25.6593 20.1713 26.0262 20.1708C26.9147 20.1696 27.803 20.1683 28.6912 20.1782C28.9441 20.1809 29.0547 20.1038 29.1272 19.86C29.8848 17.3115 29.9815 14.7406 29.408 12.1447C27.9735 5.659 22.1264 0.80286 15.491 0.596374C11.847 0.4829 8.58039 1.54137 5.69678 3.78109C0.887064 7.51832 -1.15433 14.0691 0.680694 19.8693C0.750413 20.0898 0.838725 20.1818 1.08786 20.1791C1.96187 20.1696 2.83631 20.1705 3.7106 20.1714C4.11491 20.1718 4.51918 20.1722 4.92336 20.1716C4.98133 20.1716 5.03893 20.1655 5.10776 20.1581C5.14597 20.154 5.18765 20.1496 5.23477 20.1456V7.69596C6.95077 9.41639 8.65442 11.1242 10.3614 12.8354ZM8.45951 15.4651V23.2131H2.21728C4.80528 27.5622 10.2573 31.0818 16.8027 30.2206C21.4795 29.6058 25.0323 27.1911 27.6464 23.1869H21.3297V15.4233C21.3107 15.4131 21.2914 15.4031 21.2721 15.3931C21.2528 15.3831 21.2335 15.3731 21.2144 15.3628C19.5766 17.0059 17.9388 18.6496 16.2619 20.3325C15.7764 20.8197 15.2876 21.3102 14.7947 21.8049L14.2168 21.2266C12.2968 19.3055 10.3781 17.3857 8.45951 15.4651Z" fill="#A2A5C6"/>
</svg>
