<svg width="33" height="32" viewBox="0 0 33 32" fill="none" xmlns="http://www.w3.org/2000/svg">
<path d="M17.7877 23.7215V26.2765H15.0372V23.6576C12.2139 23.2494 10.3565 21.9149 10.2867 18.8217H13.2565C13.2749 18.9124 13.3009 19.0068 13.3124 19.1026C13.4788 20.4228 14.2085 21.2244 15.5217 21.4786C16.3489 21.6386 17.1753 21.5998 17.9764 21.3127C18.6195 21.082 19.1009 20.6717 19.35 20.0239C19.7479 18.9885 19.4336 18.1076 18.4693 17.5526C17.7701 17.1507 16.9936 17.0046 16.2086 16.8843C14.9921 16.6986 13.8031 16.4184 12.713 15.8215C10.6271 14.6796 9.96628 12.5274 11.0755 10.4292C11.8337 8.99569 13.0495 8.13694 14.6195 7.75401C14.7428 7.72356 14.8678 7.69843 15.0273 7.66265V5.02856H17.7916C17.7916 5.4861 17.7916 5.94973 17.7916 6.4126C17.7916 6.76813 17.8031 7.12365 17.7877 7.47842C17.7785 7.69235 17.843 7.78675 18.0637 7.84157C18.8925 8.04711 19.6475 8.41177 20.2883 8.98122C21.413 9.98157 21.8852 11.2583 21.9227 12.7565H19.1691C19.1185 12.4741 19.1262 12.1741 19.0089 11.9343C18.8134 11.5323 18.6065 11.0961 18.2853 10.8022C17.3937 9.98614 15.6106 9.86661 14.5765 10.4886C14.0016 10.835 13.6107 11.3154 13.5486 12.0051C13.4804 12.7512 13.7486 13.38 14.4486 13.6556C15.1384 13.9266 15.882 14.1024 16.6187 14.2098C18.1435 14.4314 19.5999 14.8067 20.8449 15.7545C22.0108 16.6414 22.6432 17.7925 22.451 19.2838C22.2033 21.2061 21.196 22.5773 19.3531 23.2814C18.8579 23.4702 18.3304 23.5715 17.7877 23.7215Z" fill="#A2A5C6"/>
<path d="M20.5848 0.294067C26.7819 1.78621 32.5245 7.6109 32.6578 15.5482C32.792 23.5205 27.1821 29.7175 20.5848 31.3512C20.5848 30.8122 20.5825 30.2862 20.5848 29.7608C20.5872 29.3428 20.4522 28.8351 20.6438 28.5321C20.821 28.2527 21.3514 28.1957 21.724 28.0365C27.0226 25.7686 30.3374 20.4678 29.7869 14.78C29.2481 9.2081 26.2331 5.3803 20.9796 3.32403C20.6845 3.20831 20.5657 3.08651 20.5756 2.76219C20.601 1.95142 20.5848 1.13911 20.5848 0.294067Z" fill="#A2A5C6"/>
<path d="M12.2268 31.2864C6.40537 29.8895 0.435195 24.1949 0.311008 16.0712C0.184521 7.83546 6.11866 1.84099 12.2268 0.349609C12.2268 0.875666 12.2284 1.38954 12.2268 1.90341C12.2253 2.32213 12.3663 2.83144 12.1762 3.13368C11.993 3.42449 11.4671 3.50519 11.09 3.67191C6.03434 5.90632 2.94193 10.8471 3.13358 16.3872C3.31679 21.6888 6.80475 26.4286 11.9018 28.287C12.1417 28.3744 12.2414 28.4719 12.2352 28.7399C12.2153 29.5758 12.2284 30.4117 12.2284 31.2872L12.2268 31.2864Z" fill="#A2A5C6"/>
</svg>
