<svg width="27" height="34" viewBox="0 0 27 34" fill="none" xmlns="http://www.w3.org/2000/svg">
<path d="M9.63114 0.610371C10.2377 0.0613001 11.148 -0.142022 11.9367 0.101992C12.24 0.203729 12.5029 0.386838 12.7861 0.569678C13.0087 0.712105 13.2716 0.773145 13.4737 0.935907C13.5749 1.01729 13.494 1.15957 13.494 1.26117C13.7569 1.89163 13.8985 2.58312 13.6761 3.25427C13.494 3.47794 13.1704 3.53912 12.9075 3.6407C12.867 3.92541 12.9682 4.18977 13.0087 4.47448C12.948 4.51517 12.9075 4.55587 12.8468 4.59656C13.2311 4.57621 13.6154 4.49483 13.9997 4.41359C14.1412 4.27116 14.3636 4.35255 14.5457 4.3322C14.566 4.04736 14.6672 3.783 14.6672 3.49829C14.7077 3.49829 14.7885 3.47794 14.8289 3.45759C14.8491 3.66105 14.8289 3.86452 14.8896 4.06784C14.9906 4.14923 15.1525 4.10853 15.2739 4.12874C15.2739 4.21012 15.2739 4.29151 15.2939 4.37289C17.6401 4.35255 20.0064 4.37289 22.3526 4.37289V4.71864H22.5751V3.39669H22.838C22.838 3.76278 22.8177 4.1084 22.838 4.47448C22.8657 4.49995 22.9016 4.51442 22.9392 4.51517C22.9392 4.55587 22.9593 4.63725 22.9593 4.67795C23.0403 4.59656 23.1414 4.53552 23.2627 4.57621C23.2829 4.63725 23.3031 4.69829 23.3234 4.77968C23.2424 4.86107 23.2019 4.96265 23.2424 5.08459C23.8898 5.10494 24.537 5.08459 25.2044 5.08459C25.2649 5.00321 25.3661 4.96252 25.4673 4.92183C25.5078 4.94231 25.5683 4.983 25.5888 5.00321H26.5391C26.5796 5.16598 26.5796 5.32875 26.5594 5.47103H25.5885C25.5683 5.49138 25.5077 5.55242 25.4672 5.57276C25.3661 5.51172 25.2852 5.47103 25.1841 5.40999H23.4245C23.0806 5.51172 22.7166 5.49138 22.3728 5.43034V5.81678H19.4806C19.3591 5.91851 19.2379 5.97955 19.0761 5.9999C19.1367 6.30495 18.7929 6.38619 18.6716 6.61001C18.5907 6.73209 18.4694 6.81333 18.3481 6.85402C18.2469 7.48448 18.4694 8.07424 18.6313 8.66415C18.4492 8.70483 18.2469 8.76573 18.0647 8.80643C17.9637 9.21322 17.8625 9.6402 17.7818 10.0468C17.7009 10.4131 17.4176 10.7181 17.0739 10.8604C16.831 11.1452 16.5076 11.43 16.1233 11.4503C15.9816 11.491 15.8805 11.3893 15.7795 11.3079C15.2739 11.3486 14.8086 11.1044 14.3636 10.9012C13.8783 10.6774 13.4332 10.3927 12.9682 10.1284C13.0087 10.4131 12.867 10.6571 12.7659 10.9012C12.9884 11.0029 13.2918 11.0842 13.4131 11.3283C13.494 11.5112 13.5749 11.7147 13.5749 11.9383C13.5547 12.6706 13.4737 13.4025 13.4332 14.1348C13.4535 14.6636 13.1906 15.1924 12.8265 15.5787C12.5839 15.5585 12.3817 15.4567 12.1592 15.355C12.0782 15.5382 11.8962 15.7212 11.9972 15.9449C12.0782 16.2092 12.0782 16.4939 12.1995 16.738C12.8872 17.4702 13.4737 18.2836 13.8985 19.1988C14.3232 20.0733 14.6468 20.9886 14.9906 21.9037C15.0513 21.9037 15.1727 21.8833 15.2334 21.8833C15.3144 22.1477 15.2334 22.4528 15.3953 22.697C15.5368 22.9206 15.4963 23.185 15.4963 23.4494C15.4558 24.0594 15.4154 24.6695 15.3547 25.2797C15.3142 25.7068 15.2132 26.1339 15.1525 26.561C15.1727 26.8863 15.3144 27.2117 15.2939 27.5371C15.2739 27.8423 15.2739 28.1676 15.031 28.3913C15.0513 29.0828 14.8692 29.7742 15.112 30.4453C15.4357 30.8928 15.7997 31.32 16.184 31.7063C16.6086 31.9097 17.1144 31.9504 17.4784 32.3165C17.6199 32.5402 17.5389 32.8046 17.4987 33.0485C16.6332 33.1706 15.7551 33.1706 14.8896 33.0485C14.5457 32.9672 14.2221 32.8249 13.8783 32.7842C13.4131 32.8046 12.867 32.9876 12.4424 32.6621C12.4019 32.1131 12.6041 31.5843 12.7053 31.0555C12.7458 30.8725 12.9277 30.7504 12.9075 30.5675C12.867 29.937 12.8265 29.2862 12.7861 28.6557C12.7052 28.615 12.5636 28.5744 12.5839 28.4522C12.5839 28.1474 12.4828 27.8423 12.4019 27.5574C12.2603 26.7847 12.1995 25.9915 12.1794 25.1984C12.1592 24.9746 12.3007 24.8119 12.4627 24.6695C12.5031 24.3238 12.5436 23.9578 12.5636 23.6121C12.5029 23.429 12.3613 23.2865 12.2804 23.1239C11.9165 23.1646 11.3907 23.246 11.1682 22.8596C10.6423 22.0664 10.0962 21.2528 9.57044 20.4598C9.34787 20.4394 9.08496 20.4598 8.88276 20.3174C8.6602 20.0732 8.51855 19.7479 8.37706 19.443C8.31636 19.6869 8.27589 19.9513 8.13424 20.1546C8.01298 20.3581 7.81078 20.5003 7.66915 20.6835C7.52765 21.0089 7.40625 21.3343 7.28499 21.6597C7.14335 22.0664 6.94115 22.4731 6.90068 22.9206C6.88045 23.1443 6.83998 23.3477 6.75904 23.5511C6.65801 23.7139 6.47591 23.7748 6.31417 23.8561C6.19277 24.1204 6.11184 24.3848 5.92987 24.6086C5.80846 24.7509 5.60613 24.7916 5.52533 24.9746C5.4444 25.2188 5.32299 25.4424 5.22197 25.6661C5.1815 25.9103 5.34336 26.1746 5.26243 26.4186C5.12079 27.0288 4.81742 27.5981 4.53428 28.1474C4.39279 28.554 4.29163 28.9811 4.08943 29.3675C4.00849 29.5304 3.80614 29.571 3.64441 29.5913C3.46245 30.0387 3.26012 30.4657 3.13885 30.9336C3.07815 31.3809 3.07815 31.8487 3.09838 32.296C3.09838 32.4995 3.21978 32.6622 3.30072 32.8453C3.38151 33.0894 3.32082 33.3333 3.28035 33.5774C2.49164 33.679 1.68257 33.7604 0.914097 33.5164C0.833161 33.4554 0.853394 33.3536 0.83316 33.2722C0.772459 32.9063 0.731991 32.5198 0.853395 32.1741C1.1163 31.2182 1.33873 30.2624 1.60163 29.3065C1.5006 29.2048 1.35896 29.1236 1.35896 28.9608C1.33873 28.6964 1.35896 28.4118 1.41966 28.1474C1.54107 27.6997 1.86467 27.3542 2.0264 26.927C2.08711 26.744 2.06687 26.5609 2.08711 26.3779C2.08711 25.9508 2.32991 25.6051 2.51188 25.2391C2.69384 24.934 2.83534 24.6086 3.07815 24.3441C3.24002 24.2019 3.24002 23.9782 3.36128 23.7951C3.48268 23.5714 3.68488 23.3882 3.68488 23.1239C3.72535 22.7985 3.60394 22.4731 3.64441 22.1477C3.72535 21.1918 3.90732 20.2564 4.06919 19.3006C3.98825 19.1988 3.86685 19.0972 3.82638 18.9547C3.84661 18.8532 3.86685 18.7718 3.88708 18.67L3.70512 18.3649C3.78606 18.2429 3.86699 18.1006 3.94792 17.9785C3.86699 17.9175 3.76582 17.8363 3.68488 17.7751C3.78606 17.4702 3.74559 17.0227 4.10952 16.8804C4.14998 16.9007 4.25116 16.921 4.29163 16.9413C4.23092 16.4126 4.23092 15.8636 4.17022 15.3347C4.02872 14.7652 4.00834 14.1756 4.06919 13.6059C4.27139 13.301 4.65569 13.1789 4.99953 13.1586C4.55452 13.057 4.10952 13.0163 3.68488 12.8739C3.66465 12.5078 3.72535 12.1417 3.78606 11.7757C3.96802 11.0639 3.88708 10.3318 3.98825 9.59951C4.08943 9.39619 4.35232 9.3555 4.57475 9.39619C4.83766 9.43688 5.10056 9.3555 5.3636 9.27411C5.3636 9.17252 5.38383 9.05044 5.3636 8.94871C5.20173 8.23701 5.2422 7.50482 5.3636 6.81333C5.52547 5.91851 5.8894 5.04391 6.5567 4.41359C7.00185 3.98645 7.64892 3.783 8.2558 3.80334C8.458 3.80334 8.57926 4.0068 8.74112 4.12888C8.82206 4.04749 8.903 3.9661 8.96356 3.88472C8.86253 3.53898 8.70065 3.17289 8.72089 2.80693C8.76136 1.99336 9.02439 1.15957 9.63114 0.610371ZM15.9411 6.36585C15.9816 6.40654 15.9816 6.40654 15.9411 6.36585V6.36585ZM16.2245 6.40654C16.2445 6.54897 16.285 6.69139 16.2043 6.81333C16.1031 6.85402 15.9816 6.85402 15.8805 6.91506C16.1638 6.91506 16.4469 6.93541 16.73 6.91506C16.9524 6.85402 16.8717 6.56931 16.8717 6.40654C16.73 6.24377 16.4267 6.3455 16.2245 6.40654ZM15.5166 7.26081C15.7189 7.48448 15.8199 7.83022 16.0019 8.05389C16.2648 7.70814 16.4671 7.34205 16.7705 7.037C16.4064 7.01665 16.0423 7.05734 15.6783 7.01665C15.6175 7.09804 15.5775 7.17942 15.5166 7.26081Z" fill="#A2A5C6"/>
</svg>
