<svg width="59" height="21" viewBox="0 0 59 21" fill="none" xmlns="http://www.w3.org/2000/svg">
<path d="M25.3286 19.79H20.6027L23.5562 1.09828H28.2826L25.3286 19.79ZM16.627 1.09828L12.1216 13.9546L11.5885 11.1862L9.99875 2.78131C9.99875 2.78131 9.80645 1.09828 7.75694 1.09828H0.308663L0.221313 1.4148C0.221313 1.4148 2.49897 1.90279 5.16458 3.55127L9.27046 19.7905H14.1944L21.7131 1.09828H16.627ZM53.7983 19.79H58.1376L54.3542 1.09776H50.5552C48.801 1.09776 48.3737 2.4908 48.3737 2.4908L41.3254 19.79H46.2519L47.237 17.0135H53.2448L53.7983 19.79ZM48.598 13.1781L51.0811 6.18323L52.4781 13.1781H48.598ZM41.695 5.59328L42.3694 1.57927C42.3694 1.57927 40.2884 0.764282 38.1189 0.764282C35.7737 0.764282 30.2044 1.81984 30.2044 6.95216C30.2044 11.7812 36.7409 11.8412 36.7409 14.3777C36.7409 16.9141 30.878 16.4595 28.943 14.8601L28.2404 19.0571C28.2404 19.0571 30.3506 20.1125 33.5746 20.1125C36.7996 20.1125 41.6649 18.3931 41.6649 13.7132C41.6649 8.85324 35.0696 8.40072 35.0696 6.2878C35.0701 4.17423 39.6727 4.44572 41.695 5.59328Z" fill="#A2A5C6"/>
</svg>
