<svg width="28" height="35" viewBox="0 0 28 35" fill="none" xmlns="http://www.w3.org/2000/svg">
<path d="M23.4727 18.7C25.479 18.2265 27.0005 16.8938 27.3692 14.16C27.8897 10.4231 25.1364 8.46828 21.1852 7.15984L22.3854 2.10052L19.2492 1.34824L18.0823 6.26701C17.2676 6.0716 16.4278 5.89138 15.5882 5.71119L16.7645 0.752281L13.6283 0L12.4281 5.05931C11.2669 4.81706 9.92795 4.47818 6.1354 3.54988L5.35433 6.84239C7.8407 7.39315 9.17711 7.54792 9.10348 9.18454L5.81722 23.0374C5.33358 24.2339 4.36789 23.8132 2.13261 23.2357L0.629822 26.7584C6.34809 28.1301 6.91779 28.2879 6.91779 28.2879L5.88995 32.6206L9.02619 33.3729L10.0397 29.1004C10.8902 29.3255 11.7252 29.5259 12.5195 29.7164L11.5107 33.9689L14.6469 34.7211L15.6748 30.3884C20.9956 31.3676 24.8175 30.9051 26.4433 26.1389C27.7384 22.3119 26.2792 20.1158 23.4727 18.7ZM14.792 9.3396C16.5637 9.76459 22.2317 10.5513 21.3696 14.1851C20.5457 17.6584 15.1017 15.928 13.3299 15.5031L14.792 9.3396ZM10.9867 25.3807L12.5965 18.595C14.7144 19.103 21.3382 20.0764 20.3952 24.0517C19.4854 27.8862 13.1046 25.8888 10.9867 25.3807Z" fill="#A2A5C6"/>
</svg>
