<svg width="32" height="32" viewBox="0 0 32 32" fill="none" xmlns="http://www.w3.org/2000/svg">
<path d="M31.2519 7.50652C31.1304 1.72628 31.1228 2.97572 31.2412 1.1742C31.2482 1.0674 31.1679 0.975108 31.0619 0.967805C22.5007 0.379069 22.1762 0.311187 21.5129 0.311187C9.83385 0.310245 15.9653 0.118368 0.376329 1.04291C0.270405 1.04926 0.189459 1.1403 0.195001 1.24672C1.19968 20.626 1.16299 17.4647 0.649764 30.3804C0.646095 30.4732 0.708306 30.5556 0.798229 30.5769C1.96495 30.8542 1.75818 30.745 4.47981 30.747C4.48426 30.7483 9.58016 30.1889 9.58477 30.1884C9.60881 30.1924 16.6316 31.3512 16.656 31.3512C16.6614 31.3512 16.6667 31.351 16.672 31.3505C24.9025 30.6571 22.5434 30.8247 27.8532 30.5287L30.9711 31.1628C31.0924 31.1872 31.2036 31.093 31.2023 30.9705C31.1348 24.6595 31.2519 7.50652 31.2519 7.50652ZM18.5957 7.04649C18.6189 7.04084 18.6521 7.03268 18.6934 7.02162L20.9127 6.51882C22.0494 6.23245 22.2174 6.16269 23.1901 5.70288C23.6393 5.85953 24.8708 6.54464 25.1829 6.93796C25.3892 7.19835 25.3756 7.25626 25.3108 7.53509C25.2983 7.58862 25.284 7.65022 25.269 7.72297C25.268 7.72775 25.2672 7.7327 25.2665 7.73756L24.7785 11.577C24.2956 11.5949 24.2554 11.5577 24.1218 11.434C24.0667 11.3829 23.9981 11.3193 23.8771 11.2378C23.1428 10.7423 20.7397 8.95467 19.981 8.33933L18.4892 7.13439L18.5012 7.12269C18.5174 7.10653 18.5318 7.08479 18.5413 7.06399C18.5488 7.0581 18.5783 7.05081 18.5957 7.04649ZM22.054 26.3778C22.0103 26.3339 3.40574 6.50468 3.39208 6.4773L5.01747 5.2237L27.7314 20.3448C27.5436 20.8856 27.4687 21.5061 27.3559 22.0215C26.9568 23.8416 26.4437 24.638 25.6413 26.3673C24.4927 26.4133 22.133 26.4043 22.054 26.3778ZM5.12987 21.013C5.33899 20.5077 5.62647 19.6948 5.86814 19.2831C7.05617 20.0294 11.6971 24.7176 12.1008 25.3506C11.8773 25.434 10.917 25.5774 9.32156 26.2183C8.31071 26.6236 7.35622 27.0082 6.43429 26.6937C6.34233 26.6626 6.09724 26.4534 5.7338 26.138C5.07 25.5619 4.46888 25.1468 4.11934 24.9395C3.52313 24.5856 3.61602 24.6602 5.12987 21.013Z" fill="#A2A5C6"/>
</svg>
