<svg width="278" height="166" viewBox="0 0 278 166" fill="none" xmlns="http://www.w3.org/2000/svg">
<path opacity="0.1" d="M276.1 92.7C274.8 91.6 275.6 88.9 277.4 88.7V92.7999C277 92.8999 276.6 92.9 276.1 92.7Z" fill="#FFC701"/>
<path opacity="0.1" d="M274.4 81.8999C275.4 81.2999 276.4 80.6999 277.4 79.8999V84.0999C275.9 83.5999 274.5 82.9999 274.4 81.8999Z" fill="#FFC701"/>
<path opacity="0.1" d="M212.9 33.3999C214.7 30.0999 215.7 24.1999 219.3 25.9999C218.5 28.8999 216.5 28.2999 215.3 30.0999C216.1 31.9999 217.1 33.6999 216.5 36.2999C215 35.4999 214.5 34.1999 212.9 33.3999Z" fill="#FFC701"/>
<path opacity="0.1" d="M217.401 54.1C216.301 58.2 217.901 61 219.701 63.7C217.401 65.7 215.001 61.7 212.601 60.8C212.001 59.7 213.001 57.8999 212.701 56.4999C208.401 54.6999 209.001 50.6 206.301 48.1C205.601 49.6 205.101 51.8 203.801 51.8C202.401 48.8 202.201 44.3999 205.701 45.3999C208.101 46.0999 207.701 50.6999 210.901 51.3999C214.501 47.6999 222.501 50.4999 222.601 55.6999C221.101 55.3999 218.801 53.6 217.401 54.1Z" fill="#FFC701"/>
<path opacity="0.1" d="M265.1 132.5C264.5 132.2 263.6 132 263.8 131.5C264.5 131.7 264.7 130.2 265.5 130.7C265 131.4 265.4 131.8 265.1 132.5Z" fill="#FFC701"/>
<path opacity="0.1" d="M123.1 12.1999C122.4 10.8999 123.8 8.99989 125.3 9.19989C124.6 10.3999 124.3 12.5999 123.1 12.1999Z" fill="#FFC701"/>
<path opacity="0.1" d="M176.4 46.3C177.5 47.3 177 49 177.2 50.5C183.9 55.9 172.3 58.6 171.2 63C168.5 60.7 172.1 55.5 168.8 53.3C170.8 48.8 171.8 44.3 176.4 46.3Z" fill="#FFC701"/>
<path opacity="0.1" d="M155.9 35.3999C160.3 38.1999 154.1 42.7999 152.3 44.4999C152.2 41.4999 149 40.4999 150 37.7999C150.9 35.0999 154.3 34.3999 155.9 35.3999Z" fill="#FFC701"/>
<path opacity="0.1" d="M248.1 121.4C250 123.5 251.3 125.5 251.8 127.5C249.7 124.9 247.4 122.1 248.1 121.4Z" fill="#FFC701"/>
<path opacity="0.1" d="M219.3 79.4C218.8 80.9 217.8 81.3 216.8 81.2C216.8 80.4 216.3 79.7 217.1 78.5C218.1 79.2 218.9 78.2 219.3 79.4Z" fill="#FFC701"/>
<path opacity="0.1" d="M238.5 127.8C237.4 128.6 235.5 127.7 234.6 126.7C234.1 121.4 241.7 123.4 238.5 127.8Z" fill="#FFC701"/>
<path opacity="0.1" d="M88.6002 2.89986C88.8002 2.09986 88.2002 1.59986 88.8002 0.59986C89.4002 0.29986 90.3002 0.69986 91.2002 1.09986C90.7002 2.59986 89.9002 3.29986 88.6002 2.89986Z" fill="#FFC701"/>
<path opacity="0.1" d="M236.2 121C235.9 121.7 235.6 122.4 235.3 123C234.6 123.4 233.5 122.8 232.5 122.3C231.9 119.4 235.9 118.3 236.2 121Z" fill="#FFC701"/>
<path opacity="0.1" d="M88.9 9.20007C89 8.90007 88.8 8.60007 88.3 8.50007C88.8 5.70007 91 6.00006 92 7.10006C91.4 9.00006 90.4 10.1001 88.9 9.20007Z" fill="#FFC701"/>
<path opacity="0.1" d="M187.3 20.8999C187.4 20.5999 187.6 20.2999 187.7 20.0999C191.8 21.4999 194.6 23.4999 193.3 27.2999C191.5 26.1999 188.7 23.1999 187.3 20.8999Z" fill="#FFC701"/>
<path opacity="0.1" d="M111.3 14.1999C111.2 13.4999 111.6 12.4999 111.5 11.8999C112.3 11.8999 113.6 11.4999 113.9 12.3999C113.3 13.8999 112.5 14.5999 111.3 14.1999Z" fill="#FFC701"/>
<path opacity="0.1" d="M158.8 24.6C159.2 23.6 159.7 22.6 160.3 22.3C161.5 22.4 161 23.3 161.9 23.5C161.4 25.3 160.2 25.1 158.8 24.6Z" fill="#FFC701"/>
<path opacity="0.1" d="M249.8 119.4C249 121.6 247.5 122 245.5 121C245.1 117.9 249.2 117.1 249.8 119.4Z" fill="#FFC701"/>
<path opacity="0.1" d="M240.6 83.7999C231.8 83.1999 243.3 75.2999 240.6 83.7999V83.7999Z" fill="#FFC701"/>
<path opacity="0.1" d="M272.001 147.3C272.201 147.8 272.401 148.4 272.601 148.9C271.901 150.5 270.901 150.8 269.701 150.5C268.101 149.2 269.501 146.1 272.001 147.3Z" fill="#FFC701"/>
<path opacity="0.1" d="M257.3 93.5999C257.9 93.2999 258.8 93.6999 259.7 94.0999C259.2 95.5999 258.4 96.2999 257.2 95.8999C257.1 95.2999 257.4 94.2999 257.3 93.5999Z" fill="#FFC701"/>
<path opacity="0.1" d="M250.7 137C253.6 138.1 254.5 140 255.5 141.9C254.6 141.6 254.7 140.8 253.5 140.5C253.3 141.3 253.9 141.8 253.3 142.8C251.9 141.6 250.8 140.2 249.2 139.2C249.6 138.3 250 137.4 250.7 137Z" fill="#FFC701"/>
<path opacity="0.1" d="M276.4 162.2C275.5 165.2 273.8 165.7 271.4 164.5C270.3 161.2 275.4 159.2 276.4 162.2Z" fill="#FFC701"/>
<path opacity="0.1" d="M245 130C244.9 130.5 245.1 130.8 245.4 131.1C244.7 133.3 243.5 134.1 241.7 133.4C239.9 131.7 242.1 127.7 245 130Z" fill="#FFC701"/>
<path opacity="0.1" d="M193.2 39.3001C192.5 38.1001 191.3 37.1001 190.2 36.2001C189.7 26.8001 202 29.4001 198.5 36.2001C197.4 38.3001 195.4 38.3001 193.2 39.3001Z" fill="#FFC701"/>
<path opacity="0.1" d="M256.5 122.1C253.6 132.3 248.1 116.8 256.5 122.1V122.1Z" fill="#FFC701"/>
<path opacity="0.1" d="M140.4 19.8001C140.2 21.1001 141.7 21.8001 141 23.4001C139.5 22.8001 138.9 24.8001 137.7 24.9001C137.6 23.3001 136.6 22.2001 136.5 20.6001C137.8 20.5001 138.8 19.5001 140.4 19.8001Z" fill="#FFC701"/>
<path opacity="0.1" d="M114.3 61.4999C114.3 62.2999 114.7 63.0999 114.5 63.9999C109.9 68.1999 107.6 57.6999 114.3 61.4999Z" fill="#FFC701"/>
<path opacity="0.1" d="M104.4 66.0999C102.4 65.2999 102.1 62.0999 103.8 60.5999C107.2 59.7999 107.8 65.6999 104.4 66.0999Z" fill="#FFC701"/>
<path opacity="0.1" d="M108.7 52.5C110.2 52.9 110.1 54.1 110.7 54.8C109.8 56 108.7 56.9 107.6 57.8C107.2 56.5 106.7 53.9 108.7 52.5Z" fill="#FFC701"/>
<path opacity="0.1" d="M123.7 35.5999C124.6 35.7999 125.1 36.1999 125.4 36.6999C124.7 38.6999 123.3 38.2999 122.5 37.3999C122.6 36.1999 123.4 36.6999 123.7 35.5999Z" fill="#FFC701"/>
<path opacity="0.1" d="M53.1006 13.2999C52.8006 13.9999 52.5006 14.6999 52.2006 15.2999C50.5006 16.0999 48.9006 14.5999 48.3006 13.1999C48.9006 9.89991 52.8006 11.5999 53.1006 13.2999Z" fill="#FFC701"/>
<path opacity="0.1" d="M124.4 16.2C122.7 15.8 122.3 12.1 122 9.90005C125.4 8.60005 127.9 4.90005 131.8 4.80005C132.6 5.80005 132.2 7.20005 133.5 7.90005C132.6 9.20005 131.9 10.7 130.7 11.1C130.5 10.2 129.6 9.60005 128.5 9.20005C127.3 11.4 125.7 12.1 124.1 13.1C123.7 14.3 125.1 14.8 124.4 16.2ZM125.3 9.20005C123.8 9.00005 122.4 10.8 123.1 12.2C124.3 12.6 124.6 10.4 125.3 9.20005Z" fill="#FFC701"/>
<path opacity="0.1" d="M101.501 20.8C99.8006 21 98.4006 22.2 96.5006 22.1C96.4006 20.4 94.4006 19.6 94.4006 17.9C95.9006 16.8 97.0006 15 98.4006 13.8C99.5006 14.4 100.001 13.6 101.201 14.5C102.401 13.2 103.401 11.7 104.801 11.2C104.301 12.3 103.801 13.4 103.401 14.5C108.101 16.9 103.001 24.5 99.8006 26.5C102.601 28 102.801 30.7 104.001 33C104.801 31.2999 106.201 31.2 106.901 29.4C105.701 28.1 103.601 27.3 103.301 25.5C104.901 23.9 106.301 21.7 107.901 20.2C109.901 20.7 110.101 22 111.101 22.9C113.101 20.3 115.601 19.1 118.801 20.3C118.601 19.5 119.601 16.5 120.601 16.2C123.001 17.9 119.601 22.2 124.201 23C123.701 24.4 123.101 25.3 122.401 26.1C122.301 27 124.501 26.9 124.301 27.9C122.701 27.8 119.501 28.1 118.401 26.4C118.901 26.2 120.501 24.5 119.901 24.1C118.801 24.4 117.601 24 116.601 24.7C116.701 30.7 126.401 36.3 119.601 42.2C119.501 36.5 118.201 31.4 113.701 27.7C112.301 27.5 111.101 28.2 110.201 29.6C111.101 30.4 112.101 31.1 112.001 32.3C110.501 31.7 109.001 31.1 107.501 30.5C106.801 31.7999 105.901 32.6 105.301 34.4C103.401 33.8 102.301 35.5 100.901 36.4C99.2006 34.9 97.8006 33.3 96.4006 31.7C95.9006 32.7 95.2006 32.6 94.9006 34C93.5006 33.6 92.5006 32.9 91.7006 32.2C93.5006 24.2 98.6006 25.5 101.501 20.8Z" fill="#FFC701"/>
<path opacity="0.1" d="M91.9004 59.6001C91.5004 60.4001 91.2004 61.2001 90.8004 62.0001C89.9004 61.6001 89.4004 62.2001 88.4004 61.5001C87.1004 58.8001 91.3004 56.8001 91.9004 59.6001Z" fill="#FFC701"/>
<path opacity="0.1" d="M141.7 26.7C146.9 28.4 147.9 32.1 150.3 35.1C152.7 30.4 159.1 25.2 161.7 30.2C159.7 30.5 157.2 29.4 155.6 31C157.7 33.9 159.5 36.9 161.8 39.8C164.3 38.5 166.2 35.2 169.1 35.2C168.3 37.4 169 38.9 168.8 40.9C167.4 40.2 168.1 38.6 167.1 37.8C161.2 38.6 166.2 45.4 166.5 49.1C168 47.5 169.5 45.9 170.7 43.6C174.5 44.6 176.3 39.3 178.5 35.8C178.7 37 180.9 37.3 180.2 38.9C179.5 38.9 178.5 37.6 178.2 38.5C178.9 42.9 179.7 47.1 179.8 51.6C182.9 52.9 184.3 54.9 188 55.9C189.8 54.7 191.5 53.8 193.4 52.8C193.7 53.7 192.6 55.3 192.1 56.6C189.4 57.7 186 56.9 182.3 55C181.4 57.7999 179.3 56.6 178.3 59.1C179.4 59.6 181.1 60 181.5 60.9C181.1 62.5 180.2 62.7 179.5 63.5C177 63.0999 177.4 61.4 175.9 60.6C174.1 60.4 173.5 63 173.2 64.8C174.1 64.8 174.9 64.2999 176.2 65.0999C175.5 67.0999 176.8 68 176.3 69.9C175.1 69.7 174.1 69.7 173 69.5C173.2 64.2999 169.9 61.6 164.2 62.1C165.6 60.2 167.8 60.7 169.2 58.9C170.4 55.6 165.7 54.1 163.6 55.6C163.7 57.2 164.9 60 163.3 61.3C161.8 57.8 159.6 58.5 155.8 56.3C156.8 55.3 157.4 53.5 158.5 53.1C159.3 54.5 161 55.2 162.8 55.3C163.8 52.1 166.3 53 167.8 51.1C166.6 49.4 164.7 50.3 163.2 50.7C164.4 46.2 163.2 42.7 157.7 41.2C156.3 43 155 45.1 153.5 46.7C152.2 46.2 151.1 45.7 149.8 45.2C148.7 47.7 147.5 50.4 146.4 52.9C144.1 49.1 151.1 40.8 148.6 37C146.4 37.2 145.1 40.4 142.7 40.4C142.5 37.8 145.2 35.8 145.9 33.1C143.8 31.1 141.6 29.4 141.7 26.7ZM171.2 62.9C172.3 58.6 183.9 55.8 177.2 50.4C177 49 177.5 47.3 176.4 46.2C171.8 44.2 170.8 48.6 168.9 53.2C172.1 55.4 168.6 60.6 171.2 62.9ZM152.2 44.5C154.1 42.7999 160.2 38.2 155.8 35.4C154.2 34.4 150.9 35.1 149.9 37.8C149 40.6 152.1 41.5 152.2 44.5Z" fill="#FFC701"/>
<path opacity="0.1" d="M153.4 58.5C151.6 57.5 150.7 56.1 152.1 53.6C155.2 52.8 156.5 57.4 153.4 58.5Z" fill="#FFC701"/>
<path opacity="0.1" d="M201.2 67.5999C200.6 69.2999 199.9 70.5999 198.9 70.8999C198.1 70.5999 197.4 70.2999 196.7 69.9999C196.7 68.3999 196.9 67.4999 197.9 66.1999C198.7 65.8999 200.9 66.6999 201.2 67.5999Z" fill="#FFC701"/>
<path opacity="0.1" d="M134.6 1.09988C135.4 1.19988 135.8 0.199877 136.8 1.09988C137.1 2.39988 135.7 4.19988 134.3 2.89988C134.6 2.19988 134.7 1.59988 134.6 1.09988Z" fill="#FFC701"/>
<path opacity="0.1" d="M163.5 70.2998C164.4 70.3998 165.6 69.6998 165.9 70.8998C165.3 72.3998 164.4 72.7998 163.1 72.0998C163.6 71.2998 163.2 70.9998 163.5 70.2998Z" fill="#FFC701"/>
<path opacity="0.1" d="M139.901 32.7C138.701 32.5 138.801 31.7 137.901 31.4C138.401 28.8 139.801 28.2 141.701 29.6C141.801 31.1 141.001 32 139.901 32.7Z" fill="#FFC701"/>
<path opacity="0.1" d="M217.101 13.3999C216.201 12.6999 216.401 11.5999 217.201 10.0999C218.801 8.9999 221.001 10.7999 221.101 12.1999C221.001 13.9999 218.801 14.2999 219.401 14.8999C219.901 15.0999 220.401 15.2999 220.901 15.4999C221.501 14.2999 222.001 13.0999 222.501 11.7999C219.201 9.4999 217.601 4.2999 222.501 0.899902C225.001 2.1999 228.401 1.7999 230.001 3.8999C228.901 4.8999 228.001 6.7999 227.101 8.4999C225.701 7.9999 223.701 5.9999 222.801 6.2999C222.701 7.0999 221.301 8.4999 222.101 8.8999C224.901 8.2999 229.501 10.4999 230.601 7.4999C230.001 8.7999 230.901 9.4999 229.901 10.9999C228.401 10.9999 227.001 11.1999 225.701 11.6999C226.501 13.5999 227.801 15.2999 229.101 16.9999C226.601 19.5999 223.401 20.3999 220.701 22.1999C218.901 20.6999 216.901 19.3999 215.101 17.9999C215.601 16.3999 215.301 15.0999 215.801 13.4999C216.201 13.4999 216.701 13.8999 217.101 13.3999Z" fill="#FFC701"/>
<path opacity="0.1" d="M141.301 44.2999C141.601 45.0999 140.701 46.4999 140.201 47.6999C139.301 47.3999 138.501 46.8999 137.601 46.5999C137.701 44.6999 139.201 42.7999 141.301 44.2999Z" fill="#FFC701"/>
<path opacity="0.1" d="M242.7 99.6C240.2 98.8 243.1 92 245.7 93.6C247.9 96.1 244.6 100.3 242.7 99.6Z" fill="#FFC701"/>
<path opacity="0.1" d="M274.7 73.1C275.9 71.3 275.2 70.2 276.3 68.5C276.7 68.6 277 68.8 277.3 68.9V75.7C275.6 75.2 276 73.7 274.7 73.1Z" fill="#FFC701"/>
<path opacity="0.1" d="M210.2 15.9C207 18.9 203.5 21.2 199.4 21.5C195.2 16.6 187.9 13.2 190.4 5.30002C195.2 4.10002 195.2 1.70012 200.2 1.00012C197 4.10022 204.9 6.70002 204.7 6.50002L208.7 5.00012C210.4 11.0001 214.5 7.30003 210.2 15.9ZM191.1 10.5C192.7 10.9 193.3 8.30002 194.2 6.50002C193 7.30002 192 8.70002 191.1 10.5Z" fill="#FFC701"/>
<path opacity="0.1" d="M272.9 107.1C273.4 105.8 274.3 105.8 275.1 105.1C274 104.7 273.1 104.3 273.8 103.1C274 102.7 274.2 102.3 274.4 101.9C275.9 101.6 276.6 101.9 277.4 102.8V109.3C276 108.5 274.9 107.6 272.9 107.1Z" fill="#FFC701"/>
<path opacity="0.1" d="M252.9 110.8C253.4 110.7 253.9 110.7 254.4 110.7C254 110.9 253.4 110.9 252.9 110.8Z" fill="#FFC701"/>
<path opacity="0.1" d="M255.1 132.4C255.2 132.3 255.2 132.1 255.3 132C255.3 132.2 255.3 132.4 255.1 132.4Z" fill="#FFC701"/>
<path opacity="0.1" d="M264.7 134.5C262.5 136.1 253.4 135.9 250.9 133.5C252.1 131.5 252.3 129.5 251.8 127.6C253.4 129.5 254.9 131.3 255.2 132.1C255.1 132.2 255.1 132.4 255 132.5C255.2 132.5 255.3 132.3 255.2 132.1C257.3 127.5 259.8 126.3 263.9 129.4C267.3 127.3 265.4 124 263.4 122.5C263.8 122.5 265.2 120.6 264.7 120.6C263.2 120.3 260.5 121.5 259.7 120C261.5 119.2 263 118 264.7 116.7C262.4 112.7 258.3 110.8 254.4 110.7C255 110.5 255.5 110 255.8 109.2C255.2 105.5 245.4 108.1 246.5 102.4C248.6 103.4 250 102.9 252 103.7C255.1 101.2 256.8 94.6999 261.5 96.9999C261.5 98.3999 260.4 98.9999 259.7 101.1C262.3 102.9 264.9 104.8 266.2 107.2C263.5 107.7 259.6 104.7 257.3 106.4C263.6 107.1 271.7 112.7 277.3 111.2V135.3C272.6 135.3 267.8 136.1 264.7 134.5ZM263.7 131.4C263.5 132 264.5 132.2 265 132.4C265.4 131.7 264.9 131.3 265.3 130.6C264.6 130.1 264.4 131.6 263.7 131.4Z" fill="#FFC701"/>
<path opacity="0.1" d="M274.4 81.9C274.6 83 275.9 83.5999 277.4 84.0999V88.5999C275.6 88.7999 274.8 91.4999 276.1 92.5999C276.6 92.8999 277 92.8999 277.4 92.7V94.2999C276.9 93.9999 276.5 93.7 276 93.3999C275.2 95.7999 275.5 97.6999 275.9 99.5999C274.3 99.0999 272.2 98.1999 272.4 100.6C270.8 99.9999 269.2 99.2999 267.6 98.5999C269.4 94.7999 273.1 91.4999 273.8 87.5999C268 86.5999 260.4 80.0999 257.4 87.0999C258.4 89.2999 260.3 92.3999 263.7 91.5999C263.3 92.3999 263 93.1999 262.6 93.9999C260.5 93.1999 258.6 92.9999 256.7 92.4999C253.5 90.2999 257.5 82.8 259.8 82.7C259.2 82.5 256.6 83.1 257.6 81.7C258.3 79.3 260.7 82.0999 261.8 81C262.1 80.2999 262.4 79.5999 262.7 79C261.7 78.2999 260.4 77.7 259.7 76.8C255 80.3 246.5 76.5 244 71.7C242.4 70.9 240.1 72.5 239.4 71.3C240.7 70.3 242.5 70.4 243.4 68.2C242.5 65.6 239.8 63.8 237.5 61.9C237.2 62.6 236.9 63.3 236.6 63.9C234.9 63.4 233.9 62.5 232.7 61.8C232.2 63.1 231.3 63.2 230.9 64.9C233.7 66.4 235 68.6 237.2 70.4C235.1 74.3 230.6 70.1 228.9 68.4C228 69.8 227.1 71.4 226 72C225.1 69.5 226.4 63.2 221.9 64.5C221.6 65.5 221.6 66.4 221.6 67.2C220.5 67 218.9 65.5 218.1 66.3C218.3 67.4 218.6 68.5 218.3 69.7C217.1 70.3 216.1 71.3999 214.6 71.0999C215.4 69.3999 216.1 67.6 217 65.8C215.2 65.4 213.9 63 212.4 63.4C211.3 65.9 212.6 68.9 211 70.5C210 68.7 209.8 66.5 210.9 63.7C208.7 61.9 209.7 58.6 209 56.1C204 55.7 201.8 51.5 199.5 48.8C200.7 48 201.1 44.9999 202.4 44.1999C201.8 43.9999 201.1 43.6999 200.6 43.4C202.6 40.2999 203.1 38 204.5 34.4C205.5 34.8 206.5 35.2 207.5 35.6C207 37.3 205.1 39.6999 205.6 40.9999C206.8 39.9999 207.6 38.2999 209.3 38.6999C209 39.9999 207.3 42 207.8 42.9C209.2 42.4 210.9 42.6 212.2 41.8C211.4 40.1 209.8 38.6 208.1 37.2C208.3 28.4 216 17.5 224.1 24.1C222.7 25.9 221 27 219.7 29C219.4 30.3 220.4 32.7999 221.2 32.4999C221.7 31.3999 222.1 30.4 222.6 29.1999C224.6 29.7999 225.1 31.1 227.3 31.6C228.1 30 228.6 27.9 229.8 27.9C229.9 29.8 230.6 31.4 230.4 33.4C227.4 33.6 224 32.8 221.2 33.4C222.3 33.9 222.4 35 223.2 35.7C222.7 37.7 221.6 38.2999 220.9 39.9999C219.3 39.3999 217.7 38.6999 216.1 37.9999C216.2 39.1999 215.7 40.5999 215.8 41.6999C217.7 42.7999 218.9 44.1999 220.8 45.1999C223.5 44.0999 226.1 42.7999 228.5 40.6999C227.2 38.7999 225.6 37.1 224.9 34.9C226.5 34.5 228.3 35.0999 229.7 33.9999C231.4 34.8999 230.2 37 231.9 37.8C232.2 36.4 233.1 36.8999 233.4 35.4999C234.9 36.1999 234.6 37.7999 236.6 38.1999C236.9 37.4999 237.2 36.9 237.5 36.2C239.2 37.3 239.3 37.2 240.6 36.1C240.3 34.7 240.2 33.2 240.3 31.7C243.4 32.3 241 35.5 241.8 37.1C247.6 40.9 258 39.8 259.5 45.8C256.5 45.5 253.9 46 250.8 45.6C249.4 47.5 247.8 48.8 246.6 51.1C249.3 52.8 252.1 54.2999 254.4 56.2C255.2 54.5 254.9 53.4 256 51.6C257.5 52.4 256.9 54.2 257.4 55.5C252.3 57.5999 249.5 65.9 244.8 69C247.9 73.5999 254.6 77.9 260.2 74.9C261.6 73 263.3 69.3 262.7 67.3C261.1 66 257.4 67.7 257.9 66.9C259.6 66.6 260.3 63 260.8 61.3C259.5 60.1 258 59.2 257.6 57.6C260.4 58.4 262.2 59.5999 262.4 61.5C262.9 59.7999 264.1 60.2 265.3 60.8C266.5 62.2 263.8 64 264 64.5999C265.5 64.7999 266.7 64 267.7 62.3C269.7 63.4 272.8 64.0999 273.1 66C271.8 65.4 270.4 64.9 269 64.3C267.7 65.8 266 66.3 265 68.4C266 69.8 268.6 70.6 269.5 72.2C268.8 72.4 268.1 72.4 267.5 72.9C268.9 73.3 268.1 74.5 268.6 75.3C272.2 76.8 275.1 76.5 277.7 75.3V79.9C276.4 80.6 275.4 81.3 274.4 81.9ZM216.5 36.3C217.1 33.7 216.1 31.9 215.3 30.1C216.5 28.3 218.5 28.9 219.3 26C215.7 24.2 214.7 30.1 212.9 33.4C214.5 34.2 215 35.5 216.5 36.3ZM211 51.4999C207.8 50.6999 208.2 46.0999 205.8 45.4999C202.3 44.4999 202.5 48.9 203.9 51.9C205.2 51.9 205.7 49.6999 206.4 48.1999C209.1 50.6999 208.5 54.8 212.8 56.6C213 57.9 212.1 59.8 212.7 60.9C215.1 61.8 217.4 65.8 219.8 63.8C218 61.1 216.4 58.2999 217.5 54.2C218.9 53.7 221.2 55.5 222.8 55.9C222.6 50.6 214.6 47.7999 211 51.4999ZM231.6 44.6C228.1 44.3 225 45.5 223.4 51.1999C224.2 51.6999 224.5 50.8 225.4 51.6C224.8 52.7 224 53 223.4 54.2C225.6 55.2999 225.1 57.5 224.5 60.4C223.7 61.3 222.9 61.8 221.6 61.1C221.6 61.9 222.7 62.3 222.4 63.3C224.9 63 227.1 62.1 229.2 60.9C231.6 54.8 232.6 49.2999 231.6 44.6ZM262.9 81C262.7 82 265 82.2999 265.5 82.0999C265.1 80.8999 264 80.4 262.9 81ZM265.4 74.4C264.9 75.7 265.4 76.5 265.3 77.7C266.2 77.8 266.4 75.7999 267 75C266.4 74.7999 265.9 74.6 265.4 74.4Z" fill="#FFC701"/>
<path opacity="0.1" d="M15.1004 8.49985C16.7004 9.39985 18.0004 9.19985 19.4004 8.79985C16.9004 12.8999 15.6004 17.0999 15.8004 20.7999C17.9004 19.8999 20.1004 17.2999 22.4004 19.6999C20.7004 22.0999 18.2004 22.4999 15.8004 22.6999C12.8004 20.1999 7.00038 20.9999 2.30038 17.5999C1.40038 15.0999 0.000396729 12.7999 0.000396729 9.89985C1.2004 9.09985 2.50038 8.09985 3.70038 7.09985H14.8004C14.6004 7.69985 14.5004 8.29985 15.1004 8.49985Z" fill="#FFC701"/>
<path opacity="0.1" d="M33.1006 15.7C28.9006 16.7 28.4006 11.5 31.0006 10.2H33.8006C33.9006 10.2 34.0006 10.3 34.1006 10.3C33.8006 12.1 33.4006 13.9 33.1006 15.7Z" fill="#FFC701"/>
<path opacity="0.1" d="M276.9 52.6999C274.7 54.4999 272.3 55.5999 269.7 55.9999C269.4 53.8999 269.3 51.5999 269.6 49.1999C270.9 48.9999 272.3 48.7999 273.4 48.2999C272.8 45.3999 273.1 39.8999 277.4 40.8999V42.1999C276.4 46.0999 273.2 50.8999 276.9 52.6999Z" fill="#FFC701"/>
<path opacity="0.1" d="M234.4 21.7999C236.5 18.1999 239.1 16.6999 242.2 16.0999C242.1 16.8999 240.7 18.2999 241.5 18.6999C242.6 19.0999 243.7 19.5999 244.9 20.0999C245.4 18.0999 247 18.6999 247.6 16.8999C249.6 17.4999 250.2 18.6999 251.2 19.7999C250.7 21.6999 249.6 22.0999 249 23.6999C246 23.3999 243.7 25.1999 241.3 26.2999C241.1 25.3999 241.9 24.0999 241.2 23.3999C240.4 23.8999 240.1 25.6999 239.2 25.9999C237.9 24.4999 236.4 22.9999 234.4 21.7999Z" fill="#FFC701"/>
<path opacity="0.1" d="M258.301 11.3001C258.601 12.7001 258.101 13.5001 256.901 14.6001C253.101 14.2001 255.501 9.00007 258.301 11.3001Z" fill="#FFC701"/>
<path opacity="0.1" d="M237.3 14.1999C237.6 17.6999 233.1 18.5999 232.1 15.8999C232.9 12.3999 235.4 13.9999 237.3 14.1999Z" fill="#FFC701"/>
<path opacity="0.1" d="M256.101 38.1999C255.801 38.8999 255.501 39.5999 255.201 40.1999C254.301 40.0999 253.701 40.7999 252.601 40.0999C251.201 37.4999 255.301 35.2999 256.101 38.1999Z" fill="#FFC701"/>
<path opacity="0.1" d="M237.4 27.6999C236.6 30.1999 234.6 30.4999 233.3 28.8999C233.8 27.8999 234.1 26.9999 234.6 26.0999C236.2 26.3999 236.8 26.4999 237.4 27.6999Z" fill="#FFC701"/>
<path opacity="0.1" d="M241.7 9.30012C240.8 9.00012 239.9 8.60012 239.1 8.20012C239.6 4.80012 242.7 4.80012 243.2 7.00012C242.9 8.40012 241.9 7.90012 241.7 9.30012Z" fill="#FFC701"/>
</svg>
