<svg width="34" height="34" viewBox="0 0 34 34" fill="none" xmlns="http://www.w3.org/2000/svg">
<g filter="url(#filter0_d_1180_46049)">
<rect x="6" y="6" width="22" height="22" rx="11" fill="url(#paint0_linear_1180_46049)" shape-rendering="crispEdges"/>
<rect x="6" y="6" width="22" height="22" rx="11" fill="url(#paint1_radial_1180_46049)" fill-opacity="0.08" shape-rendering="crispEdges"/>
<rect x="6" y="6" width="22" height="22" rx="11" fill="white" fill-opacity="0.12" shape-rendering="crispEdges"/>
<rect x="6" y="6" width="22" height="22" rx="11" fill="url(#paint2_radial_1180_46049)" fill-opacity="0.28" shape-rendering="crispEdges"/>
<rect x="6" y="6" width="22" height="22" rx="11" stroke="url(#paint3_linear_1180_46049)" stroke-opacity="0.16" stroke-width="4" shape-rendering="crispEdges"/>
<rect x="6" y="6" width="22" height="22" rx="11" stroke="url(#paint4_linear_1180_46049)" stroke-opacity="0.36" stroke-width="4" shape-rendering="crispEdges"/>
</g>
<g filter="url(#filter1_d_1180_46049)">
<path fill-rule="evenodd" clip-rule="evenodd" d="M20.1831 11.0847C20.1554 11.044 20.1144 11.0157 20.0681 11.0052V11H17.8047C17.7544 11 17.7047 11.0105 17.6583 11.0309C17.6119 11.0513 17.5698 11.0811 17.5344 11.1187C17.499 11.1564 17.471 11.201 17.452 11.2501C17.433 11.2992 17.4234 11.3518 17.4238 11.4048H18.5486C18.5228 11.4778 18.477 11.5411 18.417 11.5866C18.357 11.6321 18.2856 11.6578 18.2118 11.6603L17.7797 11.6735L17.7085 11.9187H15.4086C15.2515 11.9186 15.0982 11.9695 14.9695 12.0646C14.8407 12.1596 14.7429 12.2941 14.6891 12.4499C14.5879 12.7082 14.4863 12.9666 14.3844 13.225H14.047C13.9318 13.2252 13.8182 13.2531 13.7149 13.3068C13.6117 13.3604 13.5214 13.4383 13.451 13.5345H15.3688C15.537 13.5345 15.7035 13.5397 15.8695 13.5431C15.9269 13.5444 15.9834 13.5587 16.0352 13.585C16.087 13.6112 16.1328 13.6489 16.1696 13.6954C16.2064 13.7419 16.2333 13.7962 16.2486 13.8546C16.2639 13.913 16.2671 13.9742 16.2581 14.0341L16.2347 14.1007L16.2353 14.1L15.8058 15.3433H15.592L15.8919 14.464L15.8946 14.4613L16.0241 14.0823H16.0222L16.023 14.08H15.8891L15.8886 14.0823L15.4575 15.3433H15.1854L15.2567 15.1343L15.6175 14.08L15.4012 14.0754C15.2617 14.0724 15.1266 14.0694 14.9937 14.0665L14.7167 14.0602C14.5456 14.0564 14.3754 14.0526 14.2011 14.0487L13.9627 14.0436C13.8497 14.0412 13.7342 14.0388 13.6148 14.0364C13.5307 14.0348 13.4478 14.0579 13.3753 14.1031C13.3029 14.1483 13.2437 14.2139 13.2045 14.2925C13.1707 14.3606 13.1458 14.4332 13.1305 14.5084L13.1297 14.5125C13.1293 14.5147 13.129 14.5169 13.1286 14.519L13.128 14.524C13.1271 14.5317 13.1267 14.5395 13.1267 14.5473C13.1268 14.5567 13.1276 14.5661 13.1291 14.5754C13.1295 14.5778 13.1299 14.5803 13.1304 14.5827L13.1313 14.5865L13.1324 14.5914C13.1393 14.6186 13.1522 14.6436 13.1701 14.6644C13.188 14.6852 13.2103 14.7013 13.2352 14.7112C13.2601 14.7211 13.2869 14.7246 13.3134 14.7214H13.3172C13.3558 14.7142 13.3922 14.6975 13.4235 14.6727C13.4548 14.6478 13.4801 14.6155 13.4973 14.5784H14.7381C14.7385 14.6037 14.7342 14.6288 14.7253 14.6523C14.7165 14.6758 14.7033 14.6972 14.6865 14.7153C14.6698 14.7333 14.6498 14.7477 14.6277 14.7575C14.6056 14.7673 14.5819 14.7724 14.558 14.7725H13.9093L13.4365 16.2591C12.7896 18.2959 12.3326 19.7348 12.1205 20.2447C11.9028 20.7666 12.0176 21.0296 12.1705 21.1634L12.171 21.1628C12.1916 21.1809 12.2129 21.1965 12.2342 21.2099C12.2469 21.2179 12.2597 21.2252 12.2723 21.2317C12.3546 21.2734 12.4449 21.2946 12.5362 21.2937H14.1732L15.2616 17.9375H14.9389C14.8552 17.9375 14.7749 17.9024 14.7157 17.84C14.6565 17.7775 14.6233 17.6928 14.6233 17.6045H16.0537C15.8758 18.2328 15.6979 18.8744 15.52 19.516L15.5199 19.5164L15.5186 19.5209L15.5185 19.5214C15.2634 20.4411 15.0084 21.3607 14.7534 22.2412C14.6559 22.5765 14.8916 22.9876 15.2241 22.9928C16.2474 23.0052 17.2707 22.9991 18.2941 22.993C19.3095 22.9869 20.3249 22.9808 21.3404 22.9928C21.397 22.9936 21.4522 22.9745 21.4973 22.9385C21.5425 22.9025 21.575 22.8518 21.5897 22.7941L21.9897 21.2409C22.0089 21.1694 22.0011 21.0929 21.9679 21.0273C21.9347 20.9618 21.8787 20.9124 21.8117 20.8895C21.7192 20.8602 21.6115 20.8838 21.5157 21.0554L20.0791 21.06C20.3883 21.0575 20.6972 21.0554 21.0057 21.0554L18.4224 17.3897L19.2762 17.4144C19.8964 17.417 20.4969 17.1853 20.969 16.7611C21.4412 16.337 21.7539 15.7484 21.8503 15.1021C21.8817 14.8867 21.8904 14.6684 21.8765 14.4509L21.8716 14.3907C21.814 13.7123 21.5204 13.1129 21.0814 12.6743C21.0057 12.598 20.9256 12.5265 20.8414 12.4602L20.8405 12.4611C20.7585 12.397 20.6728 12.3378 20.5838 12.284L20.5862 12.2816C20.3432 12.1352 20.0806 12.0315 19.8086 11.9734L19.9609 11.4048H20.0207C20.0687 11.4055 20.1153 11.3876 20.1516 11.3545C20.1879 11.3214 20.2115 11.2753 20.2177 11.2251C20.2231 11.1754 20.2108 11.1253 20.1831 11.0847ZM17.6779 15.3496L17.6812 15.3461C17.6451 15.3461 17.6107 15.3461 17.5784 15.3411L17.9908 14.1346C18.0452 14.1242 18.4931 14.053 18.7745 14.3688C18.7915 14.3873 18.8422 14.4432 18.8874 14.5219L18.8872 14.5221L18.8893 14.5256L18.8919 14.5297C18.9131 14.5676 18.9328 14.6105 18.9468 14.6567C18.9485 14.6629 18.9501 14.6692 18.9516 14.6755C18.9528 14.6808 18.954 14.6861 18.955 14.6914L18.9566 14.6995C18.9683 14.7629 18.9678 14.8281 18.9552 14.8914C18.9007 15.0975 18.7021 15.1957 18.5944 15.2485C18.4567 15.3151 18.3353 15.3272 18.1106 15.3415L18.1098 15.3423L18.0757 15.3444C17.9432 15.353 17.8105 15.3547 17.6779 15.3496ZM17.5446 15.4386L17.5157 15.5235L17.5154 15.5239L17.4227 15.7952C17.7247 15.7871 18.0142 15.7464 18.3233 15.5816C18.5053 15.486 18.6717 15.3606 18.8164 15.21C18.7696 15.2522 18.7187 15.2889 18.6646 15.3197C18.5356 15.3921 18.4061 15.4231 18.1203 15.4386L18.0887 15.4403C18.0743 15.441 18.0599 15.4416 18.0455 15.4422L18.0142 15.4437L18.0145 15.4434C17.8579 15.4489 17.7011 15.4473 17.5446 15.4386ZM15.3906 15.4386L15.3917 15.4374H15.1751L15.0527 15.7946H15.303L15.4245 15.4386H15.3906ZM16.0317 15.3433H16.9231L17.3383 14.1294C17.1163 14.1288 16.8159 14.1265 16.4534 14.1214L16.0317 15.3433ZM20.0506 21.0602L19.8243 21.062L19.5418 21.8886C19.6079 21.8885 19.6723 21.867 19.7264 21.8269C19.7804 21.7869 19.8214 21.7302 19.8439 21.6647L20.0506 21.0602ZM19.3832 21.0653L19.1016 21.888C19.1677 21.888 19.2322 21.8665 19.2863 21.8264C19.3405 21.7863 19.3816 21.7297 19.4042 21.6641L19.6094 21.0637L19.3832 21.0653ZM19.1684 21.0665C19.0939 21.0668 19.0195 21.0671 18.945 21.0673L18.664 21.8886C18.7301 21.8887 18.7946 21.8672 18.8487 21.8271C18.9028 21.787 18.9438 21.7303 18.9661 21.6647L19.1684 21.0665ZM17.3683 21.0675L18.7717 21.0634C18.4366 20.5656 18.1013 20.0651 17.7662 19.5644L17.4358 20.7965H16.6194C16.5433 20.7965 16.4693 20.8231 16.4089 20.8721C16.3486 20.9211 16.3053 20.9898 16.2859 21.0675H17.3683ZM15.7724 15.4397L15.6507 15.7923H15.4621L15.5827 15.4397H15.7724ZM16.8897 15.4415L16.7691 15.7923H15.8774L15.9985 15.4415H16.8897ZM17.1968 15.7957L17.3187 15.4386H17.1157L16.9948 15.7957H17.1968ZM17.1488 15.3421L17.5636 14.13H17.7684L17.3514 15.3421H17.1488Z" fill="#7B7BCC"/>
<path fill-rule="evenodd" clip-rule="evenodd" d="M20.1831 11.0847C20.1554 11.044 20.1144 11.0157 20.0681 11.0052V11H17.8047C17.7544 11 17.7047 11.0105 17.6583 11.0309C17.6119 11.0513 17.5698 11.0811 17.5344 11.1187C17.499 11.1564 17.471 11.201 17.452 11.2501C17.433 11.2992 17.4234 11.3518 17.4238 11.4048H18.5486C18.5228 11.4778 18.477 11.5411 18.417 11.5866C18.357 11.6321 18.2856 11.6578 18.2118 11.6603L17.7797 11.6735L17.7085 11.9187H15.4086C15.2515 11.9186 15.0982 11.9695 14.9695 12.0646C14.8407 12.1596 14.7429 12.2941 14.6891 12.4499C14.5879 12.7082 14.4863 12.9666 14.3844 13.225H14.047C13.9318 13.2252 13.8182 13.2531 13.7149 13.3068C13.6117 13.3604 13.5214 13.4383 13.451 13.5345H15.3688C15.537 13.5345 15.7035 13.5397 15.8695 13.5431C15.9269 13.5444 15.9834 13.5587 16.0352 13.585C16.087 13.6112 16.1328 13.6489 16.1696 13.6954C16.2064 13.7419 16.2333 13.7962 16.2486 13.8546C16.2639 13.913 16.2671 13.9742 16.2581 14.0341L16.2347 14.1007L16.2353 14.1L15.8058 15.3433H15.592L15.8919 14.464L15.8946 14.4613L16.0241 14.0823H16.0222L16.023 14.08H15.8891L15.8886 14.0823L15.4575 15.3433H15.1854L15.2567 15.1343L15.6175 14.08L15.4012 14.0754C15.2617 14.0724 15.1266 14.0694 14.9937 14.0665L14.7167 14.0602C14.5456 14.0564 14.3754 14.0526 14.2011 14.0487L13.9627 14.0436C13.8497 14.0412 13.7342 14.0388 13.6148 14.0364C13.5307 14.0348 13.4478 14.0579 13.3753 14.1031C13.3029 14.1483 13.2437 14.2139 13.2045 14.2925C13.1707 14.3606 13.1458 14.4332 13.1305 14.5084L13.1297 14.5125C13.1293 14.5147 13.129 14.5169 13.1286 14.519L13.128 14.524C13.1271 14.5317 13.1267 14.5395 13.1267 14.5473C13.1268 14.5567 13.1276 14.5661 13.1291 14.5754C13.1295 14.5778 13.1299 14.5803 13.1304 14.5827L13.1313 14.5865L13.1324 14.5914C13.1393 14.6186 13.1522 14.6436 13.1701 14.6644C13.188 14.6852 13.2103 14.7013 13.2352 14.7112C13.2601 14.7211 13.2869 14.7246 13.3134 14.7214H13.3172C13.3558 14.7142 13.3922 14.6975 13.4235 14.6727C13.4548 14.6478 13.4801 14.6155 13.4973 14.5784H14.7381C14.7385 14.6037 14.7342 14.6288 14.7253 14.6523C14.7165 14.6758 14.7033 14.6972 14.6865 14.7153C14.6698 14.7333 14.6498 14.7477 14.6277 14.7575C14.6056 14.7673 14.5819 14.7724 14.558 14.7725H13.9093L13.4365 16.2591C12.7896 18.2959 12.3326 19.7348 12.1205 20.2447C11.9028 20.7666 12.0176 21.0296 12.1705 21.1634L12.171 21.1628C12.1916 21.1809 12.2129 21.1965 12.2342 21.2099C12.2469 21.2179 12.2597 21.2252 12.2723 21.2317C12.3546 21.2734 12.4449 21.2946 12.5362 21.2937H14.1732L15.2616 17.9375H14.9389C14.8552 17.9375 14.7749 17.9024 14.7157 17.84C14.6565 17.7775 14.6233 17.6928 14.6233 17.6045H16.0537C15.8758 18.2328 15.6979 18.8744 15.52 19.516L15.5199 19.5164L15.5186 19.5209L15.5185 19.5214C15.2634 20.4411 15.0084 21.3607 14.7534 22.2412C14.6559 22.5765 14.8916 22.9876 15.2241 22.9928C16.2474 23.0052 17.2707 22.9991 18.2941 22.993C19.3095 22.9869 20.3249 22.9808 21.3404 22.9928C21.397 22.9936 21.4522 22.9745 21.4973 22.9385C21.5425 22.9025 21.575 22.8518 21.5897 22.7941L21.9897 21.2409C22.0089 21.1694 22.0011 21.0929 21.9679 21.0273C21.9347 20.9618 21.8787 20.9124 21.8117 20.8895C21.7192 20.8602 21.6115 20.8838 21.5157 21.0554L20.0791 21.06C20.3883 21.0575 20.6972 21.0554 21.0057 21.0554L18.4224 17.3897L19.2762 17.4144C19.8964 17.417 20.4969 17.1853 20.969 16.7611C21.4412 16.337 21.7539 15.7484 21.8503 15.1021C21.8817 14.8867 21.8904 14.6684 21.8765 14.4509L21.8716 14.3907C21.814 13.7123 21.5204 13.1129 21.0814 12.6743C21.0057 12.598 20.9256 12.5265 20.8414 12.4602L20.8405 12.4611C20.7585 12.397 20.6728 12.3378 20.5838 12.284L20.5862 12.2816C20.3432 12.1352 20.0806 12.0315 19.8086 11.9734L19.9609 11.4048H20.0207C20.0687 11.4055 20.1153 11.3876 20.1516 11.3545C20.1879 11.3214 20.2115 11.2753 20.2177 11.2251C20.2231 11.1754 20.2108 11.1253 20.1831 11.0847ZM17.6779 15.3496L17.6812 15.3461C17.6451 15.3461 17.6107 15.3461 17.5784 15.3411L17.9908 14.1346C18.0452 14.1242 18.4931 14.053 18.7745 14.3688C18.7915 14.3873 18.8422 14.4432 18.8874 14.5219L18.8872 14.5221L18.8893 14.5256L18.8919 14.5297C18.9131 14.5676 18.9328 14.6105 18.9468 14.6567C18.9485 14.6629 18.9501 14.6692 18.9516 14.6755C18.9528 14.6808 18.954 14.6861 18.955 14.6914L18.9566 14.6995C18.9683 14.7629 18.9678 14.8281 18.9552 14.8914C18.9007 15.0975 18.7021 15.1957 18.5944 15.2485C18.4567 15.3151 18.3353 15.3272 18.1106 15.3415L18.1098 15.3423L18.0757 15.3444C17.9432 15.353 17.8105 15.3547 17.6779 15.3496ZM17.5446 15.4386L17.5157 15.5235L17.5154 15.5239L17.4227 15.7952C17.7247 15.7871 18.0142 15.7464 18.3233 15.5816C18.5053 15.486 18.6717 15.3606 18.8164 15.21C18.7696 15.2522 18.7187 15.2889 18.6646 15.3197C18.5356 15.3921 18.4061 15.4231 18.1203 15.4386L18.0887 15.4403C18.0743 15.441 18.0599 15.4416 18.0455 15.4422L18.0142 15.4437L18.0145 15.4434C17.8579 15.4489 17.7011 15.4473 17.5446 15.4386ZM15.3906 15.4386L15.3917 15.4374H15.1751L15.0527 15.7946H15.303L15.4245 15.4386H15.3906ZM16.0317 15.3433H16.9231L17.3383 14.1294C17.1163 14.1288 16.8159 14.1265 16.4534 14.1214L16.0317 15.3433ZM20.0506 21.0602L19.8243 21.062L19.5418 21.8886C19.6079 21.8885 19.6723 21.867 19.7264 21.8269C19.7804 21.7869 19.8214 21.7302 19.8439 21.6647L20.0506 21.0602ZM19.3832 21.0653L19.1016 21.888C19.1677 21.888 19.2322 21.8665 19.2863 21.8264C19.3405 21.7863 19.3816 21.7297 19.4042 21.6641L19.6094 21.0637L19.3832 21.0653ZM19.1684 21.0665C19.0939 21.0668 19.0195 21.0671 18.945 21.0673L18.664 21.8886C18.7301 21.8887 18.7946 21.8672 18.8487 21.8271C18.9028 21.787 18.9438 21.7303 18.9661 21.6647L19.1684 21.0665ZM17.3683 21.0675L18.7717 21.0634C18.4366 20.5656 18.1013 20.0651 17.7662 19.5644L17.4358 20.7965H16.6194C16.5433 20.7965 16.4693 20.8231 16.4089 20.8721C16.3486 20.9211 16.3053 20.9898 16.2859 21.0675H17.3683ZM15.7724 15.4397L15.6507 15.7923H15.4621L15.5827 15.4397H15.7724ZM16.8897 15.4415L16.7691 15.7923H15.8774L15.9985 15.4415H16.8897ZM17.1968 15.7957L17.3187 15.4386H17.1157L16.9948 15.7957H17.1968ZM17.1488 15.3421L17.5636 14.13H17.7684L17.3514 15.3421H17.1488Z" fill="url(#paint5_radial_1180_46049)" fill-opacity="0.72"/>
</g>
<defs>
<filter id="filter0_d_1180_46049" x="0" y="0" width="34" height="34" filterUnits="userSpaceOnUse" color-interpolation-filters="sRGB">
<feFlood flood-opacity="0" result="BackgroundImageFix"/>
<feColorMatrix in="SourceAlpha" type="matrix" values="0 0 0 0 0 0 0 0 0 0 0 0 0 0 0 0 0 0 127 0" result="hardAlpha"/>
<feOffset/>
<feGaussianBlur stdDeviation="2"/>
<feComposite in2="hardAlpha" operator="out"/>
<feColorMatrix type="matrix" values="0 0 0 0 1 0 0 0 0 0.705882 0 0 0 0 0.211765 0 0 0 0.36 0"/>
<feBlend mode="normal" in2="BackgroundImageFix" result="effect1_dropShadow_1180_46049"/>
<feBlend mode="normal" in="SourceGraphic" in2="effect1_dropShadow_1180_46049" result="shape"/>
</filter>
<filter id="filter1_d_1180_46049" x="10" y="11" width="14" height="16" filterUnits="userSpaceOnUse" color-interpolation-filters="sRGB">
<feFlood flood-opacity="0" result="BackgroundImageFix"/>
<feColorMatrix in="SourceAlpha" type="matrix" values="0 0 0 0 0 0 0 0 0 0 0 0 0 0 0 0 0 0 127 0" result="hardAlpha"/>
<feOffset dy="2"/>
<feGaussianBlur stdDeviation="1"/>
<feComposite in2="hardAlpha" operator="out"/>
<feColorMatrix type="matrix" values="0 0 0 0 0 0 0 0 0 0 0 0 0 0 0 0 0 0 0.12 0"/>
<feBlend mode="normal" in2="BackgroundImageFix" result="effect1_dropShadow_1180_46049"/>
<feBlend mode="normal" in="SourceGraphic" in2="effect1_dropShadow_1180_46049" result="shape"/>
</filter>
<linearGradient id="paint0_linear_1180_46049" x1="6" y1="17" x2="28" y2="17" gradientUnits="userSpaceOnUse">
<stop stop-color="#2E3465"/>
<stop offset="0.500659" stop-color="#2C39A9"/>
<stop offset="1" stop-color="#171B3F"/>
</linearGradient>
<radialGradient id="paint1_radial_1180_46049" cx="0" cy="0" r="1" gradientUnits="userSpaceOnUse" gradientTransform="translate(17 6.91667) rotate(-90) scale(14.2083)">
<stop stop-color="white"/>
<stop offset="1" stop-color="white" stop-opacity="0"/>
</radialGradient>
<radialGradient id="paint2_radial_1180_46049" cx="0" cy="0" r="1" gradientUnits="userSpaceOnUse" gradientTransform="translate(16.5305 -5.275) rotate(90.5743) scale(40.152 16.0592)">
<stop stop-color="#FFB436"/>
<stop offset="1" stop-color="#FFB436" stop-opacity="0"/>
</radialGradient>
<linearGradient id="paint3_linear_1180_46049" x1="17" y1="6" x2="17" y2="28" gradientUnits="userSpaceOnUse">
<stop stop-color="white"/>
<stop offset="1" stop-color="white" stop-opacity="0"/>
</linearGradient>
<linearGradient id="paint4_linear_1180_46049" x1="17" y1="-2.16667" x2="17" y2="28" gradientUnits="userSpaceOnUse">
<stop stop-color="#FFB436" stop-opacity="0"/>
<stop offset="1" stop-color="#FFB436"/>
</linearGradient>
<radialGradient id="paint5_radial_1180_46049" cx="0" cy="0" r="1" gradientUnits="userSpaceOnUse" gradientTransform="translate(16.7866 4.85) rotate(90.4786) scale(21.9008 7.29976)">
<stop stop-color="#FFB436"/>
<stop offset="1" stop-color="#FFB436" stop-opacity="0"/>
</radialGradient>
</defs>
</svg>
