<svg
  width="76" 
  height="80" 
  viewBox="-15 -15 76 80"
  fill="none"
  xmlns="http://www.w3.org/2000/svg"
>
  <g filter="url(#filter0_di_1427_3504)">
    <path
      fill-rule="evenodd"
      clip-rule="evenodd"
      d="M36.369 0.324538C36.2528 0.168716 36.0806 0.0601052 35.8858 0.0198011V0H26.3797C26.1687 0 25.9597 0.0401933 25.7648 0.118326C25.57 0.196459 25.3931 0.310944 25.2443 0.455166C25.0956 0.599426 24.978 0.77058 24.8983 0.958764C24.8186 1.14699 24.7783 1.34851 24.7798 1.5518H29.5043C29.3957 1.83167 29.2033 2.0742 28.9514 2.24857C28.6995 2.42297 28.3995 2.52139 28.0894 2.53129L26.2746 2.5819L25.9755 3.52175H16.316C15.6562 3.52138 15.0123 3.71655 14.4717 4.08083C13.9311 4.44509 13.52 4.96073 13.2943 5.55779C12.8691 6.54829 12.4425 7.53878 12.0143 8.52928H10.5972C10.1136 8.5298 9.6366 8.63701 9.20277 8.84266C8.76894 9.04832 8.38978 9.34696 8.09437 9.71568H16.1491C16.8554 9.71568 17.5548 9.73549 18.2519 9.74867C18.4931 9.75366 18.7304 9.80834 18.9478 9.909C19.1652 10.0097 19.3577 10.154 19.5122 10.3323C19.6669 10.5106 19.7801 10.7187 19.8441 10.9427C19.9082 11.1667 19.9218 11.4012 19.8839 11.6306L19.7856 11.886L19.7882 11.8834L17.9845 16.6492H17.0862L18.3462 13.2788L18.3572 13.2682L18.9012 11.8154H18.8932L18.8965 11.8067H18.3342L18.3321 11.8154L16.5216 16.6492H15.3789L15.6783 15.848L17.1937 11.8067L16.2851 11.7891C15.6992 11.7776 15.1319 11.7661 14.5736 11.7548L13.4103 11.7309C12.6914 11.7161 11.9765 11.7015 11.2446 11.6869L10.2434 11.6671C9.76885 11.6579 9.2836 11.6487 8.78236 11.6395C8.42891 11.6333 8.08057 11.7218 7.77627 11.8952C7.47198 12.0685 7.22362 12.3199 7.05895 12.6211C6.91691 12.8822 6.81233 13.1606 6.74817 13.4487L6.74478 13.4646C6.74312 13.4729 6.74161 13.4813 6.74025 13.4897L6.73754 13.5087C6.73384 13.5383 6.73211 13.5682 6.73234 13.598C6.73264 13.634 6.73596 13.6701 6.74229 13.7057C6.74395 13.715 6.74576 13.7243 6.74779 13.7335L6.75126 13.7484L6.75624 13.7672C6.78519 13.8712 6.8394 13.9671 6.91449 14.0469C6.98951 14.1267 7.08323 14.1881 7.18788 14.2262C7.29253 14.2641 7.40502 14.2776 7.51616 14.2654H7.53214C7.69417 14.2378 7.84715 14.1738 7.97856 14.0786C8.11005 13.9834 8.21629 13.8596 8.28867 13.7173H13.5C13.5018 13.8142 13.4836 13.9104 13.4465 14.0005C13.4093 14.0905 13.3539 14.1726 13.2835 14.2418C13.213 14.3111 13.129 14.3661 13.0364 14.4038C12.9436 14.4415 12.844 14.461 12.7435 14.4613H10.0189L8.0333 20.1599C5.31639 27.9677 3.39703 33.4833 2.50592 35.4379C1.59166 37.4387 2.07397 38.4467 2.71627 38.9596L2.71839 38.9576C2.80464 39.0267 2.89398 39.0864 2.98348 39.1379C3.03701 39.1687 3.09062 39.1965 3.14362 39.2216C3.48946 39.3812 3.86871 39.4625 4.25217 39.4593H11.1275L15.6988 26.5938H14.3434C13.9918 26.5938 13.6546 26.4593 13.406 26.2199C13.1574 25.9805 13.0178 25.6557 13.0178 25.3172H19.0256C18.2783 27.7257 17.5311 30.1851 16.7839 32.6445L16.7834 32.6462L16.7782 32.6636L16.7775 32.6654C15.7064 36.1908 14.6353 39.7159 13.5642 43.0912C13.155 44.3766 14.1447 45.9526 15.5413 45.9724C19.8391 46.0199 24.137 45.9965 28.4352 45.973C32.6997 45.9497 36.9645 45.9264 41.2299 45.9724C41.4674 45.9755 41.6993 45.9022 41.8888 45.7643C42.0783 45.6264 42.2148 45.4317 42.2767 45.2108L43.9567 39.2568C44.0373 38.9828 44.0045 38.6893 43.8651 38.4381C43.7258 38.1869 43.4907 37.9975 43.2093 37.9098C42.8207 37.7975 42.3681 37.8878 41.9659 38.5459L35.9324 38.5632C37.2307 38.5538 38.5282 38.5458 39.8241 38.5458L28.974 24.4939L32.5602 24.5886C35.1648 24.5986 37.6869 23.7103 39.67 22.0843C41.6531 20.4584 42.9662 18.2023 43.3714 15.7247C43.5031 14.8991 43.5399 14.062 43.4811 13.2286L43.4605 12.9975C43.219 10.397 41.9855 8.09946 40.142 6.41818C39.8239 6.12567 39.4875 5.85174 39.1339 5.59735L39.1302 5.6009C38.7857 5.35509 38.4257 5.12833 38.0521 4.92212L38.0619 4.91278C37.0416 4.35151 35.9385 3.95412 34.7961 3.73154L35.4356 1.5518H35.687C35.8886 1.55453 36.0843 1.48586 36.2368 1.35889C36.3893 1.23188 36.4881 1.05537 36.5144 0.862825C36.537 0.67224 36.4852 0.480361 36.369 0.324538ZM25.8472 16.6734L25.8609 16.6601C25.7095 16.6601 25.5649 16.6601 25.4291 16.641L27.1614 12.0158C27.39 11.9762 29.2712 11.7033 30.4529 12.9139C30.5242 12.9845 30.7373 13.1991 30.9272 13.5005L30.9261 13.5015L30.9352 13.5148L30.9458 13.5305C31.0349 13.6758 31.1176 13.8401 31.1764 14.0174C31.1836 14.0412 31.1903 14.0652 31.1966 14.0893C31.2018 14.1096 31.2066 14.13 31.2111 14.1504L31.2177 14.1813C31.2667 14.4244 31.2647 14.6746 31.2117 14.9169C30.9831 15.7071 30.1489 16.0834 29.6963 16.286C29.118 16.5413 28.6084 16.5875 27.6644 16.6425L27.6612 16.6456L27.5181 16.6536C26.9616 16.6863 26.4041 16.693 25.8472 16.6734ZM25.2872 17.0146L25.1661 17.3402L25.1647 17.3416L24.7752 18.3815C26.0438 18.3506 27.2598 18.1944 28.558 17.5626C29.3221 17.1962 30.021 16.7156 30.6288 16.1385C30.4323 16.3 30.2185 16.4409 29.9911 16.5589C29.4494 16.8363 28.9054 16.9551 27.7054 17.0146L27.5724 17.021C27.512 17.0237 27.4515 17.0262 27.3909 17.0285L27.2598 17.0343L27.2611 17.033C26.6033 17.0542 25.9447 17.0481 25.2872 17.0146ZM16.2406 17.0145L16.245 17.0102H15.3354L14.8212 18.3793H15.8726L16.3829 17.0145H16.2406ZM18.9331 16.6492H22.677L24.4209 11.996C23.4884 11.9938 22.2267 11.985 20.7044 11.9652L18.9331 16.6492ZM35.8126 38.564L34.8623 38.571L33.6758 41.7397C33.9531 41.7394 34.2237 41.6568 34.4507 41.5032C34.6776 41.3496 34.85 41.1325 34.9443 40.8813L35.8126 38.564ZM33.0093 38.5836L31.8267 41.7375C32.1043 41.7373 32.3752 41.6548 32.6026 41.5012C32.83 41.3477 33.0027 41.1304 33.0975 40.8791L33.9593 38.5775L33.0093 38.5836ZM32.1071 38.5883C31.7944 38.5896 31.4817 38.5906 31.169 38.5913L29.9889 41.7397C30.2665 41.74 30.5374 41.6576 30.7645 41.504C30.9916 41.3503 31.1638 41.1328 31.2575 40.8813L32.1071 38.5883ZM24.5468 38.5921L30.4413 38.5765C29.0335 36.6681 27.6256 34.7495 26.2178 32.83L24.8302 37.5532H21.4017C21.0818 37.5532 20.771 37.6551 20.5175 37.843C20.2641 38.0309 20.0823 38.2943 20.0006 38.5921H24.5468ZM17.8441 17.019L17.3331 18.3704H16.541L17.0474 17.019H17.8441ZM22.5365 17.0256L22.0302 18.3704H18.2849L18.7936 17.0256H22.5365ZM23.8267 18.3836L24.3387 17.0146H23.4861L22.9781 18.3836H23.8267ZM23.6249 16.6447L25.3672 11.9982H26.2273L24.4758 16.6447H23.6249Z"
      fill="#FFFFFF"
      fill-opacity="1"
    />
    <path
      fill-rule="evenodd"
      clip-rule="evenodd"
      d="M36.369 0.324538C36.2528 0.168716 36.0806 0.0601052 35.8858 0.0198011V0H26.3797C26.1687 0 25.9597 0.0401933 25.7648 0.118326C25.57 0.196459 25.3931 0.310944 25.2443 0.455166C25.0956 0.599426 24.978 0.77058 24.8983 0.958764C24.8186 1.14699 24.7783 1.34851 24.7798 1.5518H29.5043C29.3957 1.83167 29.2033 2.0742 28.9514 2.24857C28.6995 2.42297 28.3995 2.52139 28.0894 2.53129L26.2746 2.5819L25.9755 3.52175H16.316C15.6562 3.52138 15.0123 3.71655 14.4717 4.08083C13.9311 4.44509 13.52 4.96073 13.2943 5.55779C12.8691 6.54829 12.4425 7.53878 12.0143 8.52928H10.5972C10.1136 8.5298 9.6366 8.63701 9.20277 8.84266C8.76894 9.04832 8.38978 9.34696 8.09437 9.71568H16.1491C16.8554 9.71568 17.5548 9.73549 18.2519 9.74867C18.4931 9.75366 18.7304 9.80834 18.9478 9.909C19.1652 10.0097 19.3577 10.154 19.5122 10.3323C19.6669 10.5106 19.7801 10.7187 19.8441 10.9427C19.9082 11.1667 19.9218 11.4012 19.8839 11.6306L19.7856 11.886L19.7882 11.8834L17.9845 16.6492H17.0862L18.3462 13.2788L18.3572 13.2682L18.9012 11.8154H18.8932L18.8965 11.8067H18.3342L18.3321 11.8154L16.5216 16.6492H15.3789L15.6783 15.848L17.1937 11.8067L16.2851 11.7891C15.6992 11.7776 15.1319 11.7661 14.5736 11.7548L13.4103 11.7309C12.6914 11.7161 11.9765 11.7015 11.2446 11.6869L10.2434 11.6671C9.76885 11.6579 9.2836 11.6487 8.78236 11.6395C8.42891 11.6333 8.08057 11.7218 7.77627 11.8952C7.47198 12.0685 7.22362 12.3199 7.05895 12.6211C6.91691 12.8822 6.81233 13.1606 6.74817 13.4487L6.74478 13.4646C6.74312 13.4729 6.74161 13.4813 6.74025 13.4897L6.73754 13.5087C6.73384 13.5383 6.73211 13.5682 6.73234 13.598C6.73264 13.634 6.73596 13.6701 6.74229 13.7057C6.74395 13.715 6.74576 13.7243 6.74779 13.7335L6.75126 13.7484L6.75624 13.7672C6.78519 13.8712 6.8394 13.9671 6.91449 14.0469C6.98951 14.1267 7.08323 14.1881 7.18788 14.2262C7.29253 14.2641 7.40502 14.2776 7.51616 14.2654H7.53214C7.69417 14.2378 7.84715 14.1738 7.97856 14.0786C8.11005 13.9834 8.21629 13.8596 8.28867 13.7173H13.5C13.5018 13.8142 13.4836 13.9104 13.4465 14.0005C13.4093 14.0905 13.3539 14.1726 13.2835 14.2418C13.213 14.3111 13.129 14.3661 13.0364 14.4038C12.9436 14.4415 12.844 14.461 12.7435 14.4613H10.0189L8.0333 20.1599C5.31639 27.9677 3.39703 33.4833 2.50592 35.4379C1.59166 37.4387 2.07397 38.4467 2.71627 38.9596L2.71839 38.9576C2.80464 39.0267 2.89398 39.0864 2.98348 39.1379C3.03701 39.1687 3.09062 39.1965 3.14362 39.2216C3.48946 39.3812 3.86871 39.4625 4.25217 39.4593H11.1275L15.6988 26.5938H14.3434C13.9918 26.5938 13.6546 26.4593 13.406 26.2199C13.1574 25.9805 13.0178 25.6557 13.0178 25.3172H19.0256C18.2783 27.7257 17.5311 30.1851 16.7839 32.6445L16.7834 32.6462L16.7782 32.6636L16.7775 32.6654C15.7064 36.1908 14.6353 39.7159 13.5642 43.0912C13.155 44.3766 14.1447 45.9526 15.5413 45.9724C19.8391 46.0199 24.137 45.9965 28.4352 45.973C32.6997 45.9497 36.9645 45.9264 41.2299 45.9724C41.4674 45.9755 41.6993 45.9022 41.8888 45.7643C42.0783 45.6264 42.2148 45.4317 42.2767 45.2108L43.9567 39.2568C44.0373 38.9828 44.0045 38.6893 43.8651 38.4381C43.7258 38.1869 43.4907 37.9975 43.2093 37.9098C42.8207 37.7975 42.3681 37.8878 41.9659 38.5459L35.9324 38.5632C37.2307 38.5538 38.5282 38.5458 39.8241 38.5458L28.974 24.4939L32.5602 24.5886C35.1648 24.5986 37.6869 23.7103 39.67 22.0843C41.6531 20.4584 42.9662 18.2023 43.3714 15.7247C43.5031 14.8991 43.5399 14.062 43.4811 13.2286L43.4605 12.9975C43.219 10.397 41.9855 8.09946 40.142 6.41818C39.8239 6.12567 39.4875 5.85174 39.1339 5.59735L39.1302 5.6009C38.7857 5.35509 38.4257 5.12833 38.0521 4.92212L38.0619 4.91278C37.0416 4.35151 35.9385 3.95412 34.7961 3.73154L35.4356 1.5518H35.687C35.8886 1.55453 36.0843 1.48586 36.2368 1.35889C36.3893 1.23188 36.4881 1.05537 36.5144 0.862825C36.537 0.67224 36.4852 0.480361 36.369 0.324538ZM25.8472 16.6734L25.8609 16.6601C25.7095 16.6601 25.5649 16.6601 25.4291 16.641L27.1614 12.0158C27.39 11.9762 29.2712 11.7033 30.4529 12.9139C30.5242 12.9845 30.7373 13.1991 30.9272 13.5005L30.9261 13.5015L30.9352 13.5148L30.9458 13.5305C31.0349 13.6758 31.1176 13.8401 31.1764 14.0174C31.1836 14.0412 31.1903 14.0652 31.1966 14.0893C31.2018 14.1096 31.2066 14.13 31.2111 14.1504L31.2177 14.1813C31.2667 14.4244 31.2647 14.6746 31.2117 14.9169C30.9831 15.7071 30.1489 16.0834 29.6963 16.286C29.118 16.5413 28.6084 16.5875 27.6644 16.6425L27.6612 16.6456L27.5181 16.6536C26.9616 16.6863 26.4041 16.693 25.8472 16.6734ZM25.2872 17.0146L25.1661 17.3402L25.1647 17.3416L24.7752 18.3815C26.0438 18.3506 27.2598 18.1944 28.558 17.5626C29.3221 17.1962 30.021 16.7156 30.6288 16.1385C30.4323 16.3 30.2185 16.4409 29.9911 16.5589C29.4494 16.8363 28.9054 16.9551 27.7054 17.0146L27.5724 17.021C27.512 17.0237 27.4515 17.0262 27.3909 17.0285L27.2598 17.0343L27.2611 17.033C26.6033 17.0542 25.9447 17.0481 25.2872 17.0146ZM16.2406 17.0145L16.245 17.0102H15.3354L14.8212 18.3793H15.8726L16.3829 17.0145H16.2406ZM18.9331 16.6492H22.677L24.4209 11.996C23.4884 11.9938 22.2267 11.985 20.7044 11.9652L18.9331 16.6492ZM35.8126 38.564L34.8623 38.571L33.6758 41.7397C33.9531 41.7394 34.2237 41.6568 34.4507 41.5032C34.6776 41.3496 34.85 41.1325 34.9443 40.8813L35.8126 38.564ZM33.0093 38.5836L31.8267 41.7375C32.1043 41.7373 32.3752 41.6548 32.6026 41.5012C32.83 41.3477 33.0027 41.1304 33.0975 40.8791L33.9593 38.5775L33.0093 38.5836ZM32.1071 38.5883C31.7944 38.5896 31.4817 38.5906 31.169 38.5913L29.9889 41.7397C30.2665 41.74 30.5374 41.6576 30.7645 41.504C30.9916 41.3503 31.1638 41.1328 31.2575 40.8813L32.1071 38.5883ZM24.5468 38.5921L30.4413 38.5765C29.0335 36.6681 27.6256 34.7495 26.2178 32.83L24.8302 37.5532H21.4017C21.0818 37.5532 20.771 37.6551 20.5175 37.843C20.2641 38.0309 20.0823 38.2943 20.0006 38.5921H24.5468ZM17.8441 17.019L17.3331 18.3704H16.541L17.0474 17.019H17.8441ZM22.5365 17.0256L22.0302 18.3704H18.2849L18.7936 17.0256H22.5365ZM23.8267 18.3836L24.3387 17.0146H23.4861L22.9781 18.3836H23.8267ZM23.6249 16.6447L25.3672 11.9982H26.2273L24.4758 16.6447H23.6249Z"
      fill="url(#paint0_radial_1427_3504)"
      fill-opacity="0.12"
    />
  </g>
  <defs>
    <filter
      id="filter0_di_1427_3504"
      x="0"
      y="0"
      width="46"
      height="50"
      filterUnits="userSpaceOnUse"
      color-interpolation-filters="sRGB"
    >
      <feFlood flood-opacity="0" result="BackgroundImageFix" />
      <feColorMatrix
        in="SourceAlpha"
        type="matrix"
        values="0 0 0 0 0 0 0 0 0 0 0 0 0 0 0 0 0 0 127 0"
        result="hardAlpha"
      />
      <feOffset dy="2" />
      <feGaussianBlur stdDeviation="1" />
      <feComposite in2="hardAlpha" operator="out" />
      <feColorMatrix
        type="matrix"
        values="0 0 0 0 0 0 0 0 0 0 0 0 0 0 0 0 0 0 0.12 0"
      />
      <feBlend
        mode="normal"
        in2="BackgroundImageFix"
        result="effect1_dropShadow_1427_3504"
      />
      <feBlend
        mode="normal"
        in="SourceGraphic"
        in2="effect1_dropShadow_1427_3504"
        result="shape"
      />
      <feColorMatrix
        in="SourceAlpha"
        type="matrix"
        values="0 0 0 0 0 0 0 0 0 0 0 0 0 0 0 0 0 0 127 0"
        result="hardAlpha"
      />
      <feOffset dy="1" />
      <feComposite in2="hardAlpha" operator="arithmetic" k2="-1" k3="1" />
      <feColorMatrix
        type="matrix"
        values="0 0 0 0 0.300885 0 0 0 0 0.316214 0 0 0 0 0.454167 0 0 0 1 0"
      />
      <feBlend
        mode="normal"
        in2="shape"
        result="effect2_innerShadow_1427_3504"
      />
    </filter>
  </defs>
</svg>
