<svg
          width="25"
          height="25"
          viewBox="0 0 25 25"
          fill="none"
          xmlns="http://www.w3.org/2000/svg"
        >
          <path
            d="M15.02 18.0701L3.14001 6.36013C1.79407 5.04168 1.02469 3.24408 1 1.36013C2.88453 1.33283 4.7034 2.05175 6.06 3.36012L17.95 15.0701L15.02 18.0701Z"
            stroke="#4D5B97"
            stroke-width="1.5"
            stroke-linecap="round"
            stroke-linejoin="round"
          />
          <path
            d="M20.0494 17.6797L23.3994 20.9697C23.5669 21.1361 23.6998 21.3339 23.7905 21.5519C23.8812 21.7698 23.9279 22.0036 23.9279 22.2397C23.9279 22.4758 23.8812 22.7095 23.7905 22.9275C23.6998 23.1455 23.5669 23.3433 23.3994 23.5097C23.0646 23.8389 22.6139 24.0234 22.1444 24.0234C21.6749 24.0234 21.2242 23.8389 20.8894 23.5097L17.4893 20.1997"
            stroke="#4D5B97"
            stroke-width="1.5"
            stroke-linecap="round"
            stroke-linejoin="round"
          />
          <path
            d="M14.2695 23.1402L22.9995 14.4102"
            stroke="#3B436B"
            stroke-width="1.5"
            stroke-linecap="round"
            stroke-linejoin="round"
          />
          <path
            d="M10.1397 17.9105L7.13965 14.9805"
            stroke="#2D3660"
            stroke-width="1.5"
            stroke-linecap="round"
            stroke-linejoin="round"
          />
          <path
            d="M14.7002 7.31L18.8103 3.13C20.131 1.78865 21.928 1.02313 23.8103 1C23.8365 2.88433 23.1177 4.70281 21.8103 6.06L17.7402 10.32"
            stroke="#2D3660"
            stroke-width="1.5"
            stroke-linecap="round"
            stroke-linejoin="round"
          />
          <path
            d="M7.50012 20.0109L4.20013 23.3609C4.03531 23.5293 3.8385 23.6631 3.62127 23.7545C3.40405 23.8459 3.17077 23.8929 2.93512 23.8929C2.69946 23.8929 2.46618 23.8459 2.24896 23.7545C2.03173 23.6631 1.83499 23.5293 1.67016 23.3609C1.33919 23.0291 1.15332 22.5795 1.15332 22.1109C1.15332 21.6422 1.33919 21.1927 1.67016 20.8609L4.97015 17.4609"
            stroke="#3B436B"
            stroke-width="1.5"
            stroke-linecap="round"
            stroke-linejoin="round"
          />
          <path
            d="M2.04004 14.2305L10.76 22.9505"
            stroke="#2D3660"
            stroke-width="1.5"
            stroke-linecap="round"
            stroke-linejoin="round"
          />
        </svg>