<svg width="288" height="168" viewBox="0 0 288 168" fill="none" xmlns="http://www.w3.org/2000/svg">
<path opacity="0.1" d="M286.346 93.6031C285.002 92.4865 285.829 89.7455 287.689 89.5425V93.7046C287.276 93.8062 286.863 93.8062 286.346 93.6031Z" fill="#EDEDEE"/>
<path opacity="0.1" d="M284.589 82.6387C285.622 82.0296 286.656 81.4205 287.689 80.6084V84.8721C286.139 84.3645 284.692 83.7554 284.589 82.6387Z" fill="#EDEDEE"/>
<path opacity="0.1" d="M221.03 33.4031C222.89 30.0531 223.924 24.0636 227.645 25.8909C226.818 28.8349 224.751 28.2258 223.511 30.0531C224.337 31.9819 225.371 33.7077 224.751 36.3471C223.201 35.535 222.684 34.2153 221.03 33.4031Z" fill="#EDEDEE"/>
<path opacity="0.1" d="M225.681 54.4174C224.544 58.5796 226.197 61.4221 228.058 64.163C225.681 66.1933 223.2 62.1327 220.72 61.219C220.1 60.1023 221.133 58.275 220.823 56.8538C216.379 55.0265 216.999 50.8643 214.209 48.3264C213.485 49.8492 212.969 52.0825 211.625 52.0825C210.178 49.0371 209.971 44.5703 213.589 45.5855C216.069 46.2961 215.656 50.9659 218.963 51.6765C222.683 47.9204 230.951 50.7628 231.055 56.0417C229.504 55.7371 227.127 53.9098 225.681 54.4174Z" fill="#EDEDEE"/>
<path opacity="0.1" d="M274.979 134.006C274.359 133.701 273.429 133.498 273.636 132.991C274.359 133.194 274.566 131.671 275.393 132.179C274.876 132.889 275.289 133.295 274.979 134.006Z" fill="#EDEDEE"/>
<path opacity="0.1" d="M128.222 11.8816C127.499 10.5619 128.946 8.63307 130.496 8.8361C129.773 10.0543 129.463 12.2877 128.222 11.8816Z" fill="#EDEDEE"/>
<path opacity="0.1" d="M183.306 46.4995C184.442 47.5147 183.926 49.2405 184.132 50.7632C191.057 56.2451 179.068 58.986 177.931 63.4528C175.141 61.1179 178.862 55.839 175.451 53.6057C177.518 49.0374 178.552 44.4692 183.306 46.4995Z" fill="#EDEDEE"/>
<path opacity="0.1" d="M162.12 35.4338C166.667 38.2763 160.26 42.946 158.399 44.6718C158.296 41.6263 154.989 40.6111 156.022 37.8702C156.952 35.1293 160.466 34.4186 162.12 35.4338Z" fill="#EDEDEE"/>
<path opacity="0.1" d="M257.409 122.738C259.372 124.869 260.716 126.9 261.232 128.93C259.062 126.291 256.685 123.448 257.409 122.738Z" fill="#EDEDEE"/>
<path opacity="0.1" d="M227.645 80.1004C227.128 81.6232 226.094 82.0292 225.061 81.9277C225.061 81.1156 224.544 80.405 225.371 79.1868C226.404 79.8974 227.231 78.8822 227.645 80.1004Z" fill="#EDEDEE"/>
<path opacity="0.1" d="M247.487 129.236C246.35 130.048 244.387 129.134 243.457 128.119C242.94 122.739 250.794 124.769 247.487 129.236Z" fill="#EDEDEE"/>
<path opacity="0.1" d="M92.5666 2.44121C92.7733 1.62908 92.1532 1.1215 92.7733 0.106331C93.3934 -0.198218 94.3235 0.207848 95.2537 0.613913C94.7369 2.13666 93.9101 2.84727 92.5666 2.44121Z" fill="#EDEDEE"/>
<path opacity="0.1" d="M245.109 122.332C244.799 123.043 244.489 123.754 244.179 124.363C243.456 124.769 242.319 124.16 241.285 123.652C240.665 120.708 244.799 119.591 245.109 122.332Z" fill="#EDEDEE"/>
<path opacity="0.1" d="M92.8782 8.83694C92.9815 8.53239 92.7748 8.22784 92.2581 8.12633C92.7748 5.28387 95.0485 5.58842 96.082 6.7051C95.4619 8.63391 94.4284 9.75059 92.8782 8.83694Z" fill="#EDEDEE"/>
<path opacity="0.1" d="M194.572 20.715C194.676 20.4104 194.882 20.1059 194.986 19.9028C199.223 21.3241 202.117 23.3544 200.773 27.212C198.913 26.0953 196.019 23.0498 194.572 20.715Z" fill="#EDEDEE"/>
<path opacity="0.1" d="M116.026 13.9128C115.922 13.2022 116.336 12.1871 116.233 11.578C117.059 11.578 118.403 11.1719 118.713 12.0855C118.093 13.6083 117.266 14.3189 116.026 13.9128Z" fill="#EDEDEE"/>
<path opacity="0.1" d="M165.116 24.4701C165.53 23.455 166.047 22.4398 166.667 22.1353C167.907 22.2368 167.39 23.1504 168.32 23.3535C167.804 25.1807 166.563 24.9777 165.116 24.4701Z" fill="#EDEDEE"/>
<path opacity="0.1" d="M259.166 120.707C258.339 122.94 256.789 123.346 254.722 122.331C254.309 119.184 258.546 118.372 259.166 120.707Z" fill="#EDEDEE"/>
<path opacity="0.1" d="M249.656 84.5685C240.561 83.9594 252.447 75.9396 249.656 84.5685V84.5685Z" fill="#EDEDEE"/>
<path opacity="0.1" d="M282.11 149.03C282.317 149.538 282.524 150.147 282.73 150.654C282.007 152.279 280.974 152.583 279.733 152.279C278.08 150.959 279.527 147.812 282.11 149.03Z" fill="#EDEDEE"/>
<path opacity="0.1" d="M266.916 94.5165C267.536 94.2119 268.466 94.618 269.396 95.0241C268.88 96.5468 268.053 97.2574 266.813 96.8514C266.709 96.2423 267.019 95.2271 266.916 94.5165Z" fill="#EDEDEE"/>
<path opacity="0.1" d="M260.096 138.574C263.093 139.69 264.023 141.619 265.057 143.548C264.126 143.243 264.23 142.431 262.99 142.127C262.783 142.939 263.403 143.447 262.783 144.462C261.336 143.243 260.199 141.822 258.546 140.807C258.959 139.893 259.372 138.98 260.096 138.574Z" fill="#EDEDEE"/>
<path opacity="0.1" d="M286.656 164.158C285.726 167.203 283.969 167.711 281.489 166.493C280.352 163.143 285.623 161.112 286.656 164.158Z" fill="#EDEDEE"/>
<path opacity="0.1" d="M254.204 131.468C254.1 131.975 254.307 132.28 254.617 132.584C253.894 134.818 252.654 135.63 250.793 134.919C248.933 133.193 251.207 129.133 254.204 131.468Z" fill="#EDEDEE"/>
<path opacity="0.1" d="M200.671 39.3939C199.947 38.1757 198.707 37.1605 197.57 36.2469C197.053 26.7043 209.765 29.3437 206.148 36.2469C205.011 38.3787 202.944 38.3787 200.671 39.3939Z" fill="#EDEDEE"/>
<path opacity="0.1" d="M266.09 123.449C263.093 133.804 257.409 118.069 266.09 123.449V123.449Z" fill="#EDEDEE"/>
<path opacity="0.1" d="M146.102 19.5988C145.895 20.9185 147.446 21.6291 146.722 23.2534C145.172 22.6443 144.552 24.6746 143.312 24.7761C143.208 23.1518 142.175 22.0352 142.072 20.4109C143.415 20.3094 144.449 19.2942 146.102 19.5988Z" fill="#EDEDEE"/>
<path opacity="0.1" d="M119.126 61.9299C119.126 62.7421 119.539 63.5542 119.333 64.4679C114.579 68.7315 112.202 58.0723 119.126 61.9299Z" fill="#EDEDEE"/>
<path opacity="0.1" d="M108.894 66.6007C106.827 65.7885 106.517 62.54 108.274 61.0173C111.788 60.2051 112.408 66.1946 108.894 66.6007Z" fill="#EDEDEE"/>
<path opacity="0.1" d="M113.339 52.7944C114.89 53.2005 114.786 54.4187 115.406 55.1293C114.476 56.3475 113.339 57.2612 112.202 58.1748C111.789 56.8551 111.272 54.2157 113.339 52.7944Z" fill="#EDEDEE"/>
<path opacity="0.1" d="M128.841 35.6377C129.771 35.8407 130.288 36.2468 130.598 36.7544C129.874 38.7847 128.427 38.3786 127.601 37.465C127.704 36.2468 128.531 36.7544 128.841 35.6377Z" fill="#EDEDEE"/>
<path opacity="0.1" d="M55.8789 12.9989C55.5689 13.7095 55.2588 14.4201 54.9487 15.0292C53.1918 15.8414 51.5382 14.3186 50.9181 12.8974C51.5382 9.54736 55.5689 11.2731 55.8789 12.9989Z" fill="#EDEDEE"/>
<path opacity="0.1" d="M129.566 15.9427C127.809 15.5367 127.396 11.7806 127.086 9.54721C130.599 8.22749 133.183 4.47139 137.214 4.36987C138.041 5.38504 137.627 6.80627 138.971 7.51688C138.041 8.83659 137.317 10.3593 136.077 10.7654C135.87 9.85176 134.94 9.24266 133.803 8.83659C132.563 11.07 130.909 11.7806 129.256 12.7957C128.842 14.0139 130.289 14.5215 129.566 15.9427ZM130.496 8.83659C128.946 8.63356 127.499 10.4609 128.222 11.8821C129.463 12.2881 129.773 10.0548 130.496 8.83659Z" fill="#EDEDEE"/>
<path opacity="0.1" d="M105.9 20.613C104.143 20.816 102.696 22.0342 100.732 21.9327C100.629 20.2069 98.5619 19.3948 98.5619 17.669C100.112 16.5523 101.249 14.7251 102.696 13.5069C103.833 14.116 104.349 13.3038 105.59 14.2175C106.83 12.8978 107.863 11.375 109.31 10.8674C108.793 11.9841 108.277 13.1008 107.863 14.2175C112.721 16.6539 107.45 24.3691 104.143 26.3994C107.036 27.9222 107.243 30.6631 108.483 32.998C109.31 31.2722 110.757 31.1707 111.481 29.3434C110.24 28.0237 108.07 27.2116 107.76 25.3843C109.414 23.76 110.86 21.5266 112.514 20.0039C114.581 20.5115 114.788 21.8312 115.821 22.7448C117.888 20.1054 120.472 18.8872 123.779 20.1054C123.572 19.2933 124.606 16.2478 125.639 15.9432C128.12 17.669 124.606 22.0342 129.36 22.8464C128.843 24.2676 128.223 25.1812 127.5 25.9934C127.396 26.907 129.67 26.8055 129.463 27.8207C127.81 27.7191 124.503 28.0237 123.366 26.2979C123.882 26.0949 125.536 24.3691 124.916 23.963C123.779 24.2676 122.539 23.8615 121.505 24.5721C121.609 30.6631 131.634 36.348 124.606 42.3375C124.503 36.5511 123.159 31.3737 118.508 27.6176C117.061 27.4146 115.821 28.1252 114.891 29.5464C115.821 30.3586 116.855 31.0692 116.751 32.2874C115.201 31.6783 113.651 31.0692 112.101 30.4601C111.377 31.7798 110.447 32.5919 109.827 34.4192C107.863 33.8101 106.726 35.5359 105.28 36.4496C103.523 34.9268 102.076 33.3025 100.629 31.6783C100.112 32.6935 99.3887 32.5919 99.0786 34.0132C97.6317 33.6071 96.5982 32.8965 95.7714 32.1859C97.6317 24.0646 102.903 25.3843 105.9 20.613Z" fill="#EDEDEE"/>
<path opacity="0.1" d="M95.9766 60.0007C95.5632 60.8129 95.2531 61.625 94.8397 62.4371C93.9096 62.031 93.3928 62.6401 92.3593 61.9295C91.0158 59.1886 95.3565 57.1583 95.9766 60.0007Z" fill="#EDEDEE"/>
<path opacity="0.1" d="M147.443 26.6025C152.818 28.3283 153.851 32.0844 156.332 35.1299C158.812 30.3586 165.426 25.0798 168.113 30.1556C166.046 30.4602 163.463 29.3435 161.809 30.9677C163.979 33.9117 165.84 36.9572 168.217 39.9012C170.8 38.5815 172.764 35.2314 175.761 35.2314C174.934 37.4648 175.658 38.9875 175.451 41.0179C174.004 40.3072 174.728 38.683 173.694 37.8709C167.597 38.683 172.764 45.5861 173.074 49.3422C174.624 47.7179 176.175 46.0937 177.415 43.7588C181.342 44.774 183.202 39.3936 185.476 35.8405C185.683 37.0587 187.956 37.3633 187.233 38.9875C186.509 38.9875 185.476 37.6678 185.166 38.5815C185.889 43.0482 186.716 47.3119 186.82 51.8801C190.023 53.1998 191.47 55.2302 195.294 56.2453C197.154 55.0271 198.911 54.1135 200.875 53.0983C201.185 54.012 200.048 55.6362 199.531 56.9559C196.741 58.0726 193.227 57.2605 189.403 55.3317C188.473 58.1741 186.303 56.9559 185.269 59.4938C186.406 60.0014 188.163 60.4075 188.576 61.3211C188.163 62.9454 187.233 63.1484 186.509 63.9606C183.926 63.5545 184.339 61.8287 182.789 61.0166C180.929 60.8136 180.309 63.453 179.998 65.2803C180.929 65.2803 181.755 64.7727 183.099 65.5848C182.376 67.6152 183.719 68.5288 183.202 70.4576C181.962 70.2546 180.929 70.2546 179.792 70.0515C179.998 64.7727 176.588 62.0318 170.697 62.5393C172.144 60.6105 174.418 61.1181 175.865 59.2908C177.105 55.9408 172.247 54.418 170.077 55.9408C170.18 57.565 171.42 60.4075 169.767 61.7272C168.217 58.1741 165.943 58.8847 162.016 56.6514C163.049 55.6362 163.669 53.8089 164.806 53.4029C165.633 54.8241 167.39 55.5347 169.25 55.6362C170.284 52.3877 172.867 53.3013 174.418 51.3725C173.177 49.6468 171.214 50.5604 169.664 50.9665C170.904 46.3982 169.664 42.8452 163.979 41.3224C162.532 43.1497 161.189 45.2815 159.639 46.9058C158.295 46.3982 157.158 45.8906 155.815 45.3831C154.678 47.921 153.438 50.6619 152.301 53.1998C149.924 49.3422 157.158 40.9163 154.575 37.0587C152.301 37.2618 150.957 40.5103 148.477 40.5103C148.27 37.8709 151.061 35.8405 151.784 33.0996C149.614 31.0693 147.34 29.3435 147.443 26.6025ZM177.931 63.3515C179.068 58.9863 191.057 56.1438 184.132 50.6619C183.926 49.2407 184.442 47.5149 183.306 46.3982C178.552 44.3679 177.518 48.8346 175.554 53.5044C178.862 55.7377 175.244 61.0166 177.931 63.3515ZM158.295 44.6725C160.259 42.9467 166.563 38.2769 162.016 35.4345C160.362 34.4193 156.952 35.1299 155.918 37.8709C154.988 40.7133 158.192 41.627 158.295 44.6725Z" fill="#EDEDEE"/>
<path opacity="0.1" d="M159.537 58.8843C157.677 57.8691 156.747 56.4479 158.194 53.91C161.398 53.0978 162.741 57.7676 159.537 58.8843Z" fill="#EDEDEE"/>
<path opacity="0.1" d="M208.938 68.1224C208.317 69.8481 207.594 71.1678 206.56 71.4724C205.734 71.1678 205.01 70.8633 204.287 70.5587C204.287 68.9345 204.493 68.0208 205.527 66.7011C206.354 66.3966 208.627 67.2087 208.938 68.1224Z" fill="#EDEDEE"/>
<path opacity="0.1" d="M140.108 0.614408C140.935 0.715925 141.348 -0.299239 142.381 0.614408C142.692 1.93412 141.245 3.76142 139.798 2.4417C140.108 1.73109 140.211 1.12199 140.108 0.614408Z" fill="#EDEDEE"/>
<path opacity="0.1" d="M169.975 70.8633C170.905 70.9648 172.145 70.2542 172.455 71.4724C171.835 72.9952 170.905 73.4012 169.561 72.6906C170.078 71.8785 169.665 71.5739 169.975 70.8633Z" fill="#EDEDEE"/>
<path opacity="0.1" d="M145.584 32.6925C144.344 32.4894 144.447 31.6773 143.517 31.3728C144.034 28.7333 145.481 28.1242 147.444 29.5455C147.548 31.0682 146.721 31.9819 145.584 32.6925Z" fill="#EDEDEE"/>
<path opacity="0.1" d="M225.37 13.0999C224.44 12.3893 224.647 11.2727 225.473 9.74991C227.127 8.63323 229.401 10.4605 229.504 11.8818C229.401 13.709 227.127 14.0136 227.747 14.6227C228.264 14.8257 228.781 15.0288 229.297 15.2318C229.917 14.0136 230.434 12.7954 230.951 11.4757C227.54 9.14081 225.887 3.86196 230.951 0.4104C233.535 1.73011 237.049 1.32405 238.702 3.45589C237.565 4.47106 236.635 6.39987 235.705 8.12564C234.258 7.61806 232.191 5.58774 231.261 5.89228C231.158 6.70442 229.711 8.12564 230.538 8.53171C233.431 7.92261 238.185 10.156 239.322 7.11048C238.702 8.43019 239.632 9.14081 238.599 10.6636C237.049 10.6636 235.602 10.8666 234.258 11.3742C235.085 13.303 236.428 15.0288 237.772 16.7545C235.188 19.394 231.881 20.2061 229.091 22.0334C227.23 20.5106 225.163 19.1909 223.303 17.7697C223.82 16.1454 223.51 14.8257 224.027 13.2015C224.44 13.2015 224.957 13.6075 225.37 13.0999Z" fill="#EDEDEE"/>
<path opacity="0.1" d="M147.032 44.4685C147.342 45.2807 146.412 46.7019 145.895 47.9201C144.965 47.6156 144.138 47.108 143.208 46.8034C143.311 44.8746 144.862 42.9458 147.032 44.4685Z" fill="#EDEDEE"/>
<path opacity="0.1" d="M251.829 100.607C249.246 99.7949 252.243 92.8918 254.93 94.5161C257.204 97.054 253.793 101.318 251.829 100.607Z" fill="#EDEDEE"/>
<path opacity="0.1" d="M284.899 73.7049C286.139 71.8776 285.416 70.7609 286.552 69.0352C286.966 69.1367 287.276 69.3397 287.586 69.4412V76.3443C285.829 75.8368 286.242 74.314 284.899 73.7049Z" fill="#EDEDEE"/>
<path opacity="0.1" d="M218.24 15.6393C214.933 18.6848 211.315 21.0196 207.078 21.3242C202.737 16.3499 195.193 12.8983 197.777 4.87853C202.737 3.66034 202.738 1.22404 207.905 0.513428C204.598 3.66053 212.763 6.29976 212.556 6.09673L216.69 4.57408C218.447 10.6651 222.684 6.90886 218.24 15.6393ZM198.5 10.1574C200.154 10.5634 200.774 7.92402 201.704 6.09673C200.464 6.90886 199.43 8.33009 198.5 10.1574Z" fill="#EDEDEE"/>
<path opacity="0.1" d="M283.039 108.222C283.555 106.902 284.486 106.902 285.312 106.192C284.176 105.786 283.245 105.379 283.969 104.161C284.176 103.755 284.382 103.349 284.589 102.943C286.139 102.639 286.863 102.943 287.689 103.857V110.455C286.243 109.643 285.106 108.729 283.039 108.222Z" fill="#EDEDEE"/>
<path opacity="0.1" d="M262.368 111.978C262.884 111.876 263.401 111.876 263.918 111.876C263.505 112.079 262.884 112.079 262.368 111.978Z" fill="#EDEDEE"/>
<path opacity="0.1" d="M264.643 133.904C264.746 133.803 264.746 133.6 264.85 133.498C264.85 133.701 264.85 133.904 264.643 133.904Z" fill="#EDEDEE"/>
<path opacity="0.1" d="M274.564 136.036C272.29 137.66 262.885 137.457 260.302 135.021C261.542 132.991 261.749 130.96 261.232 129.031C262.885 130.96 264.436 132.788 264.746 133.6C264.642 133.701 264.642 133.904 264.539 134.006C264.746 134.006 264.849 133.803 264.746 133.6C266.916 128.93 269.5 127.712 273.737 130.859C277.251 128.727 275.287 125.377 273.22 123.854C273.634 123.854 275.081 121.925 274.564 121.925C273.014 121.621 270.223 122.839 269.396 121.316C271.257 120.504 272.807 119.286 274.564 117.966C272.187 113.906 267.95 111.977 263.919 111.875C264.539 111.672 265.056 111.165 265.366 110.352C264.746 106.596 254.618 109.236 255.754 103.449C257.925 104.464 259.372 103.957 261.439 104.769C264.642 102.231 266.399 95.6326 271.257 97.9674C271.257 99.3887 270.12 99.9978 269.396 102.13C272.084 103.957 274.771 105.886 276.114 108.322C273.324 108.83 269.293 105.784 266.916 107.51C273.427 108.221 281.798 113.906 287.586 112.383V136.848C282.729 136.848 277.768 137.66 274.564 136.036ZM273.53 132.889C273.324 133.498 274.357 133.701 274.874 133.904C275.287 133.194 274.771 132.788 275.184 132.077C274.461 131.569 274.254 133.092 273.53 132.889Z" fill="#EDEDEE"/>
<path opacity="0.1" d="M284.589 82.6394C284.796 83.7561 286.14 84.3652 287.69 84.8727V89.441C285.83 89.644 285.003 92.385 286.346 93.5016C286.863 93.8062 287.277 93.8062 287.69 93.6032V95.2274C287.173 94.9229 286.76 94.6183 286.243 94.3138C285.416 96.7502 285.726 98.679 286.14 100.608C284.486 100.1 282.316 99.1866 282.522 101.623C280.869 101.014 279.215 100.303 277.562 99.5926C279.422 95.735 283.246 92.385 283.969 88.4258C277.975 87.4107 270.121 80.8121 267.02 87.9182C268.054 90.1516 270.017 93.2986 273.531 92.4865C273.118 93.2986 272.808 94.1107 272.394 94.9229C270.224 94.1107 268.26 93.9077 266.297 93.4001C262.989 91.1668 267.123 83.553 269.5 83.4515C268.88 83.2485 266.193 83.8576 267.227 82.4364C267.95 80 270.431 82.8424 271.567 81.7257C271.878 81.0151 272.188 80.3045 272.498 79.6954C271.464 78.9848 270.121 78.3757 269.397 77.4621C264.54 81.0151 255.755 77.1575 253.171 72.2847C251.518 71.4726 249.141 73.0969 248.417 71.8787C249.761 70.8635 251.621 70.965 252.551 68.7317C251.621 66.0922 248.831 64.2649 246.454 62.3361C246.144 63.0467 245.834 63.7574 245.523 64.3664C243.767 63.8589 242.733 62.9452 241.493 62.2346C240.976 63.5543 240.046 63.6558 239.633 65.3816C242.526 66.9044 243.87 69.1377 246.144 70.965C243.973 74.9241 239.323 70.6605 237.566 68.9347C236.635 70.3559 235.705 71.9802 234.568 72.5893C233.638 70.0514 234.982 63.6558 230.331 64.9755C230.021 65.9907 230.021 66.9044 230.021 67.7165C228.884 67.5135 227.231 65.9907 226.404 66.8028C226.611 67.9195 226.921 69.0362 226.611 70.2544C225.37 70.8635 224.337 71.9802 222.787 71.6756C223.613 69.9498 224.337 68.1226 225.267 66.2953C223.407 65.8892 222.063 63.4528 220.513 63.8589C219.376 66.3968 220.72 69.4423 219.066 71.0665C218.033 69.2392 217.826 67.0059 218.963 64.1634C216.689 62.3361 217.723 58.9861 216.999 56.4482C211.832 56.0421 209.558 51.7784 207.181 49.0375C208.421 48.2253 208.835 45.1799 210.178 44.3677C209.558 44.1647 208.835 43.8601 208.318 43.5556C210.385 40.4086 210.901 38.0737 212.348 34.4191C213.382 34.8252 214.415 35.2312 215.449 35.6373C214.932 37.3631 212.968 39.7995 213.485 41.1192C214.725 40.104 215.552 38.3783 217.309 38.7843C216.999 40.104 215.242 42.1344 215.759 43.048C217.206 42.5404 218.963 42.7435 220.306 41.9313C219.479 40.2056 217.826 38.6828 216.069 37.2616C216.276 28.3281 224.234 17.2629 232.605 23.9629C231.158 25.7902 229.401 26.9069 228.057 28.9372C227.747 30.2569 228.781 32.7949 229.608 32.4903C230.124 31.3736 230.538 30.3585 231.055 29.1403C233.122 29.7494 233.638 31.0691 235.912 31.5767C236.739 29.9524 237.256 27.8206 238.496 27.8206C238.599 29.7494 239.323 31.3736 239.116 33.404C236.015 33.607 232.501 32.7949 229.608 33.404C230.745 33.9115 230.848 35.0282 231.675 35.7388C231.158 37.7692 230.021 38.3783 229.298 40.104C227.644 39.4949 225.99 38.7843 224.337 38.0737C224.44 39.2919 223.923 40.7131 224.027 41.8298C225.99 42.9465 227.231 44.3677 229.194 45.3829C231.985 44.2662 234.672 42.9465 237.152 40.8146C235.809 38.8858 234.155 37.1601 233.432 34.9267C235.085 34.5206 236.945 35.1297 238.392 34.0131C240.149 34.9267 238.909 37.0585 240.666 37.8707C240.976 36.4494 241.906 36.957 242.216 35.5358C243.767 36.2464 243.456 37.8707 245.523 38.2767C245.834 37.5661 246.144 36.957 246.454 36.2464C248.211 37.3631 248.314 37.2616 249.657 36.1449C249.347 34.7237 249.244 33.2009 249.347 31.6782C252.551 32.2873 250.071 35.5358 250.898 37.1601C256.892 41.0177 267.64 39.901 269.19 45.992C266.09 45.6874 263.403 46.195 260.199 45.789C258.752 47.7178 257.099 49.0375 255.858 51.3724C258.649 53.0981 261.543 54.6209 263.92 56.5497C264.746 54.8239 264.436 53.7072 265.573 51.8799C267.123 52.6921 266.503 54.5194 267.02 55.8391C261.749 57.9709 258.856 66.3968 253.998 69.5438C257.202 74.2135 264.126 78.5787 269.914 75.5332C271.361 73.6044 273.118 69.8483 272.498 67.818C270.844 66.4983 267.02 68.2241 267.537 67.4119C269.294 67.1074 270.017 63.4528 270.534 61.727C269.19 60.5088 267.64 59.5952 267.227 57.9709C270.121 58.783 271.981 60.0012 272.188 61.9301C272.704 60.2043 273.945 60.6103 275.185 61.2194C276.425 62.6407 273.634 64.468 273.841 65.0771C275.391 65.2801 276.632 64.468 277.665 62.7422C279.732 63.8589 282.936 64.5695 283.246 66.4983C281.902 65.8892 280.456 65.3816 279.009 64.7725C277.665 66.2953 275.908 66.8028 274.875 68.9347C275.908 70.3559 278.595 71.168 279.525 72.7923C278.802 72.9953 278.078 72.9953 277.458 73.5029C278.905 73.909 278.078 75.1272 278.595 75.9393C282.316 77.4621 285.313 77.1575 288 75.9393V80.6091C286.656 81.3197 285.623 82.0303 284.589 82.6394ZM224.75 36.3479C225.37 33.7085 224.337 31.8812 223.51 30.0539C224.75 28.2266 226.817 28.8357 227.644 25.8917C223.923 24.0644 222.89 30.0539 221.03 33.404C222.683 34.2161 223.2 35.5358 224.75 36.3479ZM219.066 51.7784C215.759 50.9663 216.172 46.2965 213.692 45.6874C210.075 44.6723 210.281 49.139 211.728 52.1845C213.072 52.1845 213.589 49.9511 214.312 48.4284C217.102 50.9663 216.482 55.1285 220.926 56.9558C221.133 58.2755 220.203 60.2043 220.823 61.321C223.303 62.2346 225.68 66.2953 228.161 64.2649C226.301 61.524 224.647 58.6815 225.784 54.5194C227.231 54.0118 229.608 55.8391 231.261 56.2451C231.055 50.8648 222.787 48.0223 219.066 51.7784ZM240.356 44.7738C236.739 44.4692 233.535 45.6874 231.881 51.4739C232.708 51.9814 233.018 51.0678 233.948 51.8799C233.328 52.9966 232.501 53.3012 231.881 54.5194C234.155 55.636 233.638 57.8694 233.018 60.8134C232.191 61.727 231.365 62.2346 230.021 61.524C230.021 62.3361 231.158 62.7422 230.848 63.7574C233.432 63.4528 235.705 62.5392 237.876 61.321C240.356 55.1285 241.39 49.5451 240.356 44.7738ZM272.704 81.7257C272.498 82.7409 274.875 83.0455 275.391 82.8424C274.978 81.6242 273.841 81.1166 272.704 81.7257ZM275.288 75.0257C274.771 76.3454 275.288 77.1575 275.185 78.3757C276.115 78.4772 276.322 76.4469 276.942 75.6348C276.322 75.4317 275.805 75.2287 275.288 75.0257Z" fill="#EDEDEE"/>
<path opacity="0.1" d="M16.604 8.1268C18.2575 9.04044 19.6011 8.83741 21.048 8.43134C18.4642 12.5935 17.1207 16.8572 17.3274 20.6133C19.4977 19.6997 21.7714 17.0602 24.1484 19.4966C22.3915 21.933 19.8078 22.3391 17.3274 22.5421C14.2269 20.0042 8.23265 20.8163 3.37524 17.3648C2.4451 14.8269 0.99822 12.492 0.99822 9.54802C2.23841 8.73589 3.58193 7.72073 4.82212 6.70557H16.2939C16.0872 7.31466 15.9839 7.92376 16.604 8.1268Z" fill="#EDEDEE"/>
<path opacity="0.1" d="M35.2087 15.4357C30.868 16.4509 30.3513 11.172 33.0384 9.85229H35.9321C36.0355 9.85229 36.1388 9.95381 36.2422 9.95381C35.9321 11.7811 35.5187 13.6084 35.2087 15.4357Z" fill="#EDEDEE"/>
<path opacity="0.1" d="M287.173 52.9966C284.899 54.8239 282.419 55.9406 279.732 56.3467C279.422 54.2148 279.318 51.88 279.628 49.4436C280.972 49.2405 282.419 49.0375 283.555 48.5299C282.935 45.586 283.245 40.0026 287.689 41.0177V42.3374C286.656 46.2966 283.349 51.1694 287.173 52.9966Z" fill="#EDEDEE"/>
<path opacity="0.1" d="M243.251 21.6285C245.421 17.9739 248.108 16.4511 251.312 15.842C251.209 16.6542 249.762 18.0754 250.588 18.4815C251.725 18.8875 252.862 19.3951 254.102 19.9027C254.619 17.8724 256.273 18.4815 256.893 16.6542C258.96 17.2633 259.58 18.4815 260.613 19.5981C260.097 21.527 258.96 21.933 258.34 23.5573C255.239 23.2527 252.862 25.08 250.382 26.1967C250.175 25.2831 251.002 23.9633 250.278 23.2527C249.452 23.7603 249.142 25.5876 248.211 25.8922C246.868 24.3694 245.318 22.8467 243.251 21.6285Z" fill="#EDEDEE"/>
<path opacity="0.1" d="M267.951 10.9693C268.261 12.3906 267.744 13.2027 266.504 14.3194C262.577 13.9133 265.057 8.63446 267.951 10.9693Z" fill="#EDEDEE"/>
<path opacity="0.1" d="M246.245 13.9136C246.555 17.4667 241.904 18.3803 240.871 15.6394C241.698 12.0863 244.281 13.7106 246.245 13.9136Z" fill="#EDEDEE"/>
<path opacity="0.1" d="M265.678 38.2759C265.368 38.9865 265.058 39.6971 264.748 40.3062C263.817 40.2047 263.197 40.9153 262.061 40.2047C260.614 37.5653 264.851 35.3319 265.678 38.2759Z" fill="#EDEDEE"/>
<path opacity="0.1" d="M246.35 27.6179C245.523 30.1558 243.456 30.4604 242.112 28.8361C242.629 27.8209 242.939 26.9073 243.456 25.9937C245.109 26.2982 245.73 26.3997 246.35 27.6179Z" fill="#EDEDEE"/>
<path opacity="0.1" d="M250.794 8.93831C249.863 8.63377 248.933 8.2277 248.106 7.82164C248.623 4.37008 251.827 4.37008 252.344 6.60344C252.034 8.02467 251 7.51709 250.794 8.93831Z" fill="#EDEDEE"/>
</svg>
