<svg width="334" height="78" viewBox="0 0 334 78" fill="none" xmlns="http://www.w3.org/2000/svg">
<g filter="url(#filter0_f_136_75885)">
<path d="M1 14.4039V71C1 74.3137 3.68629 77 7 77H319.092C320.638 77 322.123 76.4039 323.24 75.3359L331.147 67.7721C332.331 66.6402 333 65.0738 333 63.4363V7C333 3.68629 330.314 1 327 1H14.0674C12.4277 1 10.8594 1.67106 9.72727 2.85715L2.65987 10.2611C1.59445 11.3772 1 12.8609 1 14.4039Z" fill="#202337"/>
<path d="M0.75 14.4039V71C0.75 74.4518 3.54822 77.25 7 77.25H319.092C320.702 77.25 322.249 76.6291 323.413 75.5165L331.32 67.9528C332.553 66.7737 333.25 65.142 333.25 63.4363V7C333.25 3.54822 330.452 0.75 327 0.75H14.0674C12.3594 0.75 10.7258 1.44902 9.54643 2.68453L2.47903 10.0885C1.36922 11.2511 0.75 12.7966 0.75 14.4039Z" stroke="url(#paint0_linear_136_75885)" stroke-width="0.5"/>
</g>
<defs>
<filter id="filter0_f_136_75885" x="0.3" y="0.3" width="333.4" height="77.4" filterUnits="userSpaceOnUse" color-interpolation-filters="sRGB">
<feFlood flood-opacity="0" result="BackgroundImageFix"/>
<feBlend mode="normal" in="SourceGraphic" in2="BackgroundImageFix" result="shape"/>
<feGaussianBlur stdDeviation="0.1" result="effect1_foregroundBlur_136_75885"/>
</filter>
<linearGradient id="paint0_linear_136_75885" x1="131.5" y1="-26" x2="153" y2="56.5" gradientUnits="userSpaceOnUse">
<stop stop-color="#FFC701"/>
<stop offset="0.284059" stop-color="#FFC701" stop-opacity="0.453125"/>
<stop offset="1" stop-color="#FFC701" stop-opacity="0"/>
</linearGradient>
</defs>
</svg>
