<svg width="149" height="87" viewBox="0 0 149 87" fill="none" xmlns="http://www.w3.org/2000/svg">
<path opacity="0.1" d="M148.142 48.7328C147.449 48.1514 147.876 46.7244 148.835 46.6187V48.7856C148.622 48.8385 148.409 48.8385 148.142 48.7328Z" fill="white" fill-opacity="0.5"/>
<path opacity="0.1" d="M147.236 43.0245C147.769 42.7074 148.302 42.3903 148.835 41.9674V44.1872C148.036 43.923 147.289 43.6059 147.236 43.0245Z" fill="white" fill-opacity="0.5"/>
<path opacity="0.1" d="M114.457 17.3913C115.417 15.6472 115.95 12.5289 117.868 13.4802C117.442 15.013 116.376 14.6958 115.736 15.6472C116.163 16.6514 116.696 17.5499 116.376 18.924C115.577 18.5012 115.31 17.8141 114.457 17.3913Z" fill="white" fill-opacity="0.5"/>
<path opacity="0.1" d="M116.853 28.3316C116.267 30.4986 117.119 31.9785 118.079 33.4055C116.853 34.4625 115.574 32.3484 114.295 31.8728C113.975 31.2914 114.508 30.34 114.348 29.6001C112.056 28.6488 112.376 26.4818 110.937 25.1605C110.564 25.9533 110.298 27.116 109.605 27.116C108.859 25.5305 108.752 23.2049 110.618 23.7335C111.897 24.1034 111.683 26.5346 113.389 26.9046C115.307 24.9491 119.571 26.4289 119.624 29.1773C118.825 29.0187 117.599 28.0674 116.853 28.3316Z" fill="white" fill-opacity="0.5"/>
<path opacity="0.1" d="M142.272 69.7683C141.952 69.6098 141.473 69.5041 141.579 69.2398C141.952 69.3455 142.059 68.5527 142.485 68.817C142.219 69.187 142.432 69.3984 142.272 69.7683Z" fill="white" fill-opacity="0.5"/>
<path opacity="0.1" d="M66.599 6.18655C66.226 5.49947 66.9721 4.49527 67.7715 4.60097C67.3984 5.2352 67.2386 6.39796 66.599 6.18655Z" fill="white" fill-opacity="0.5"/>
<path opacity="0.1" d="M95.0107 24.2089C95.5969 24.7375 95.3304 25.636 95.437 26.4287C99.0076 29.2828 92.8257 30.7098 92.2394 33.0353C90.8005 31.8197 92.7191 29.0714 90.9604 27.9086C92.0263 25.5302 92.5592 23.1519 95.0107 24.2089Z" fill="white" fill-opacity="0.5"/>
<path opacity="0.1" d="M84.0808 18.4479C86.4257 19.9278 83.1216 22.359 82.1623 23.2575C82.109 21.6719 80.4036 21.1434 80.9365 19.7164C81.4162 18.2894 83.2281 17.9194 84.0808 18.4479Z" fill="white" fill-opacity="0.5"/>
<path opacity="0.1" d="M133.22 63.9011C134.232 65.011 134.925 66.068 135.191 67.1251C134.072 65.7509 132.847 64.271 133.22 63.9011Z" fill="white" fill-opacity="0.5"/>
<path opacity="0.1" d="M117.868 41.703C117.602 42.4958 117.069 42.7072 116.536 42.6543C116.536 42.2315 116.269 41.8615 116.696 41.2273C117.229 41.5973 117.655 41.0687 117.868 41.703Z" fill="white" fill-opacity="0.5"/>
<path opacity="0.1" d="M128.096 67.284C127.51 67.7069 126.497 67.2312 126.018 66.7027C125.751 63.9015 129.801 64.9585 128.096 67.284Z" fill="white" fill-opacity="0.5"/>
<path opacity="0.1" d="M48.212 1.27097C48.3186 0.848148 47.9989 0.583885 48.3186 0.0553594C48.6384 -0.103198 49.118 0.108212 49.5977 0.319622C49.3312 1.11241 48.9048 1.48238 48.212 1.27097Z" fill="white" fill-opacity="0.5"/>
<path opacity="0.1" d="M126.877 63.6897C126.717 64.0597 126.557 64.4296 126.397 64.7468C126.024 64.9582 125.438 64.6411 124.905 64.3768C124.585 62.8441 126.717 62.2627 126.877 63.6897Z" fill="white" fill-opacity="0.5"/>
<path opacity="0.1" d="M48.3772 4.60069C48.4305 4.44214 48.3239 4.28358 48.0575 4.23073C48.3239 2.75085 49.4964 2.90941 50.0293 3.49079C49.7095 4.49499 49.1766 5.07637 48.3772 4.60069Z" fill="white" fill-opacity="0.5"/>
<path opacity="0.1" d="M100.814 10.7847C100.867 10.6261 100.974 10.4676 101.027 10.3619C103.212 11.1018 104.704 12.1589 104.011 14.1673C103.052 13.5859 101.56 12.0003 100.814 10.7847Z" fill="white" fill-opacity="0.5"/>
<path opacity="0.1" d="M60.3107 7.24344C60.2574 6.87348 60.4706 6.34495 60.4173 6.02784C60.8436 6.02784 61.5364 5.81643 61.6963 6.2921C61.3765 7.08489 60.9502 7.45485 60.3107 7.24344Z" fill="white" fill-opacity="0.5"/>
<path opacity="0.1" d="M85.6282 12.7405C85.8414 12.2119 86.1078 11.6834 86.4276 11.5248C87.0671 11.5777 86.8006 12.0534 87.2803 12.1591C87.0138 13.1104 86.3743 13.0047 85.6282 12.7405Z" fill="white" fill-opacity="0.5"/>
<path opacity="0.1" d="M134.129 62.8443C133.703 64.007 132.903 64.2184 131.837 63.6899C131.624 62.0515 133.809 61.6287 134.129 62.8443Z" fill="white" fill-opacity="0.5"/>
<path opacity="0.1" d="M129.217 44.0286C124.527 43.7115 130.656 39.5361 129.217 44.0286V44.0286Z" fill="white" fill-opacity="0.5"/>
<path opacity="0.1" d="M145.95 77.5901C146.056 77.8544 146.163 78.1715 146.27 78.4357C145.896 79.2814 145.364 79.4399 144.724 79.2814C143.871 78.5943 144.617 76.9559 145.95 77.5901Z" fill="white" fill-opacity="0.5"/>
<path opacity="0.1" d="M138.116 49.2085C138.436 49.0499 138.916 49.2613 139.396 49.4727C139.129 50.2655 138.703 50.6355 138.063 50.4241C138.01 50.107 138.17 49.5784 138.116 49.2085Z" fill="white" fill-opacity="0.5"/>
<path opacity="0.1" d="M134.598 72.1461C136.144 72.7275 136.623 73.7317 137.156 74.7359C136.677 74.5773 136.73 74.1545 136.09 73.996C135.984 74.4188 136.304 74.683 135.984 75.2116C135.238 74.5773 134.651 73.8374 133.799 73.3089C134.012 72.8332 134.225 72.3575 134.598 72.1461Z" fill="white" fill-opacity="0.5"/>
<path opacity="0.1" d="M148.299 85.4651C147.819 87.0507 146.913 87.315 145.634 86.6807C145.048 84.9366 147.766 83.8796 148.299 85.4651Z" fill="white" fill-opacity="0.5"/>
<path opacity="0.1" d="M131.572 68.4468C131.519 68.7111 131.625 68.8696 131.785 69.0282C131.412 70.191 130.773 70.6138 129.813 70.2438C128.854 69.3453 130.026 67.2312 131.572 68.4468Z" fill="white" fill-opacity="0.5"/>
<path opacity="0.1" d="M103.956 20.5095C103.583 19.8753 102.944 19.3468 102.357 18.8711C102.091 13.903 108.646 15.2771 106.781 18.8711C106.194 19.981 105.129 19.981 103.956 20.5095Z" fill="white" fill-opacity="0.5"/>
<path opacity="0.1" d="M137.692 64.2715C136.147 69.6625 133.216 61.4703 137.692 64.2715V64.2715Z" fill="white" fill-opacity="0.5"/>
<path opacity="0.1" d="M75.8245 10.2031C75.7179 10.8902 76.5173 11.2602 76.1442 12.1058C75.3448 11.7887 75.0251 12.8458 74.3856 12.8986C74.3323 12.053 73.7993 11.4716 73.746 10.626C74.4388 10.5731 74.9718 10.0446 75.8245 10.2031Z" fill="white" fill-opacity="0.5"/>
<path opacity="0.1" d="M61.9173 32.2429C61.9173 32.6657 62.1305 33.0885 62.0239 33.5642C59.5724 35.784 58.3467 30.2345 61.9173 32.2429Z" fill="white" fill-opacity="0.5"/>
<path opacity="0.1" d="M56.64 34.6736C55.5741 34.2508 55.4143 32.5595 56.3202 31.7667C58.1322 31.3439 58.452 34.4622 56.64 34.6736Z" fill="white" fill-opacity="0.5"/>
<path opacity="0.1" d="M58.9273 27.486C59.7267 27.6974 59.6734 28.3316 59.9932 28.7016C59.5135 29.3358 58.9273 29.8115 58.3411 30.2871C58.1279 29.6001 57.8615 28.2259 58.9273 27.486Z" fill="white" fill-opacity="0.5"/>
<path opacity="0.1" d="M66.9182 18.5542C67.3979 18.6599 67.6643 18.8713 67.8242 19.1355C67.4512 20.1926 66.7051 19.9812 66.2787 19.5055C66.332 18.8713 66.7584 19.1355 66.9182 18.5542Z" fill="white" fill-opacity="0.5"/>
<path opacity="0.1" d="M29.3008 6.76757C29.1409 7.13754 28.981 7.50751 28.8211 7.82462C27.9152 8.24744 27.0625 7.45465 26.7427 6.71472C27.0625 4.97058 29.1409 5.86908 29.3008 6.76757Z" fill="white" fill-opacity="0.5"/>
<path opacity="0.1" d="M67.2949 8.30031C66.3889 8.0889 66.1757 6.13335 66.0159 4.9706C67.8278 4.28351 69.1601 2.32797 71.2385 2.27512C71.6649 2.80364 71.4517 3.54358 72.1445 3.91355C71.6649 4.60063 71.2918 5.39342 70.6523 5.60483C70.5457 5.12915 70.0661 4.81204 69.4799 4.60063C68.8404 5.76338 67.9877 6.13335 67.135 6.66188C66.9218 7.29611 67.6679 7.56037 67.2949 8.30031ZM67.7745 4.60063C66.9751 4.49492 66.229 5.44627 66.6021 6.18621C67.2416 6.39762 67.4015 5.23486 67.7745 4.60063Z" fill="white" fill-opacity="0.5"/>
<path opacity="0.1" d="M55.0885 10.7317C54.1825 10.8374 53.4364 11.4716 52.4239 11.4188C52.3706 10.5203 51.3047 10.0975 51.3047 9.19899C52.1041 8.61761 52.6903 7.66626 53.4364 7.03203C54.0226 7.34915 54.2891 6.92633 54.9286 7.402C55.5681 6.71492 56.1011 5.92213 56.8472 5.65787C56.5807 6.23925 56.3142 6.82062 56.1011 7.402C58.6058 8.67046 55.8879 12.6873 54.1825 13.7443C55.6747 14.5371 55.7813 15.9641 56.4208 17.1797C56.8472 16.2812 57.5933 16.2284 57.9663 15.277C57.3268 14.59 56.2076 14.1671 56.0478 13.2158C56.9005 12.3701 57.6466 11.2074 58.4992 10.4146C59.5651 10.6789 59.6717 11.3659 60.2046 11.8416C61.2705 10.4675 62.6028 9.83322 64.3081 10.4675C64.2016 10.0446 64.7345 8.45905 65.2674 8.30049C66.5464 9.19899 64.7345 11.4716 67.186 11.8945C66.9195 12.6344 66.5997 13.1101 66.2267 13.5329C66.1734 14.0086 67.3458 13.9557 67.2392 14.4842C66.3866 14.4314 64.6812 14.5899 64.095 13.6915C64.3614 13.5858 65.2141 12.6873 64.8944 12.4758C64.3081 12.6344 63.6686 12.423 63.1357 12.793C63.189 15.9641 68.3584 18.9239 64.7345 22.0422C64.6812 19.0296 63.9884 16.3341 61.5902 14.3785C60.8441 14.2728 60.2046 14.6428 59.725 15.3827C60.2046 15.8056 60.7375 16.1755 60.6842 16.8098C59.8849 16.4926 59.0855 16.1755 58.2861 15.8584C57.913 16.5455 57.4334 16.9683 57.1136 17.9197C56.1011 17.6025 55.5148 18.501 54.7687 18.9767C53.8628 18.1839 53.1167 17.3383 52.3706 16.4926C52.1041 17.0212 51.7311 16.9683 51.5712 17.7083C50.8251 17.4968 50.2922 17.1269 49.8658 16.7569C50.8251 12.5287 53.543 13.2158 55.0885 10.7317Z" fill="white" fill-opacity="0.5"/>
<path opacity="0.1" d="M49.9766 31.2382C49.7634 31.661 49.6035 32.0839 49.3903 32.5067C48.9107 32.2953 48.6442 32.6124 48.1113 32.2424C47.4185 30.8154 49.6568 29.7584 49.9766 31.2382Z" fill="white" fill-opacity="0.5"/>
<path opacity="0.1" d="M76.5084 13.8502C79.2796 14.7487 79.8125 16.7042 81.0915 18.2898C82.3706 15.8057 85.7813 13.0574 87.1669 15.7C86.1011 15.8586 84.7687 15.2772 83.9161 16.1228C85.0352 17.6555 85.9945 19.2411 87.2202 20.7738C88.5525 20.0868 89.5651 18.3426 91.1106 18.3426C90.6842 19.5054 91.0573 20.2982 90.9507 21.3552C90.2046 20.9853 90.5776 20.1396 90.0447 19.7168C86.9005 20.1396 89.5651 23.7336 89.725 25.6891C90.5244 24.8435 91.3237 23.9979 91.9633 22.7822C93.9884 23.3108 94.9477 20.5096 96.1201 18.6597C96.2267 19.294 97.3991 19.4525 97.0261 20.2982C96.653 20.2982 96.1201 19.6111 95.9602 20.0868C96.3333 22.4123 96.7596 24.6321 96.8129 27.0104C98.465 27.6975 99.2111 28.7546 101.183 29.2831C102.142 28.6489 103.048 28.1732 104.061 27.6447C104.221 28.1204 103.634 28.966 103.368 29.6531C101.929 30.2345 100.117 29.8116 98.1452 28.8074C97.6656 30.2873 96.5464 29.6531 96.0135 30.9744C96.5997 31.2387 97.5057 31.4501 97.7189 31.9257C97.5057 32.7714 97.0261 32.8771 96.653 33.2999C95.3207 33.0885 95.5339 32.19 94.7345 31.7672C93.7752 31.6615 93.4555 33.0356 93.2956 33.987C93.7752 33.987 94.2016 33.7227 94.8944 34.1455C94.5213 35.2026 95.2141 35.6783 94.9477 36.6825C94.3081 36.5768 93.7752 36.5768 93.189 36.4711C93.2956 33.7227 91.5369 32.2957 88.4992 32.56C89.2453 31.5558 90.4178 31.82 91.1639 30.8687C91.8034 29.1245 89.2986 28.3318 88.1795 29.1245C88.2328 29.9702 88.8723 31.4501 88.0196 32.1371C87.2202 30.2873 86.0478 30.6573 84.0226 29.4945C84.5556 28.966 84.8753 28.0146 85.4615 27.8032C85.8879 28.5432 86.7939 28.9131 87.7531 28.966C88.2861 27.2747 89.6184 27.7504 90.4178 26.7462C89.7783 25.8477 88.7657 26.3234 87.9663 26.5348C88.6058 24.1564 87.9663 22.3066 85.0352 21.5138C84.2891 22.4651 83.5963 23.575 82.7969 24.4207C82.1041 24.1564 81.5179 23.8921 80.8251 23.6279C80.2389 24.9492 79.5994 26.3762 79.0131 27.6975C77.7874 25.6891 81.5179 21.3024 80.1856 19.294C79.0131 19.3997 78.3203 21.091 77.0413 21.091C76.9347 19.7168 78.3736 18.6597 78.7467 17.2327C77.6275 16.1757 76.4551 15.2772 76.5084 13.8502ZM92.2297 32.9828C92.8159 30.7101 98.9979 29.2303 95.4273 26.3762C95.3207 25.6363 95.5872 24.7378 95.0009 24.1564C92.5495 23.0994 92.0166 25.4249 91.004 27.8561C92.7094 29.0188 90.8441 31.7672 92.2297 32.9828ZM82.1041 23.2579C83.1167 22.3594 86.3675 19.9282 84.0226 18.4483C83.17 17.9198 81.4113 18.2898 80.8784 19.7168C80.3987 21.1967 82.0508 21.6723 82.1041 23.2579Z" fill="white" fill-opacity="0.5"/>
<path opacity="0.1" d="M82.7507 30.6571C81.7914 30.1286 81.3118 29.3887 82.0579 28.0673C83.7099 27.6445 84.4027 30.0757 82.7507 30.6571Z" fill="white" fill-opacity="0.5"/>
<path opacity="0.1" d="M108.219 35.4663C107.899 36.3648 107.526 37.0519 106.993 37.2105C106.567 37.0519 106.194 36.8933 105.821 36.7348C105.821 35.8891 105.927 35.4135 106.46 34.7264C106.886 34.5678 108.059 34.9906 108.219 35.4663Z" fill="white" fill-opacity="0.5"/>
<path opacity="0.1" d="M72.7266 0.319377C73.153 0.37223 73.3661 -0.156296 73.8991 0.319377C74.0589 1.00646 73.3129 1.95781 72.5668 1.27072C72.7266 0.900755 72.7799 0.58364 72.7266 0.319377Z" fill="white" fill-opacity="0.5"/>
<path opacity="0.1" d="M88.135 36.8933C88.6147 36.9462 89.2542 36.5762 89.4141 37.2104C89.0943 38.0032 88.6147 38.2146 87.9219 37.8446C88.1883 37.4218 87.9752 37.2633 88.135 36.8933Z" fill="white" fill-opacity="0.5"/>
<path opacity="0.1" d="M75.5538 17.0211C74.9143 16.9154 74.9676 16.4926 74.488 16.334C74.7544 14.9599 75.5005 14.6428 76.5131 15.3827C76.5664 16.1755 76.14 16.6512 75.5538 17.0211Z" fill="white" fill-opacity="0.5"/>
<path opacity="0.1" d="M116.697 6.82028C116.217 6.45032 116.324 5.86894 116.75 5.07615C117.603 4.49477 118.776 5.44612 118.829 6.18605C118.776 7.1374 117.603 7.29596 117.923 7.61307C118.189 7.71878 118.456 7.82448 118.722 7.93019C119.042 7.29596 119.308 6.66173 119.575 5.97464C117.816 4.75903 116.964 2.0107 119.575 0.213715C120.907 0.900798 122.719 0.689388 123.572 1.79929C122.986 2.32782 122.506 3.33202 122.026 4.23051C121.28 3.96625 120.214 2.9092 119.735 3.06775C119.681 3.49057 118.935 4.23051 119.362 4.44192C120.854 4.1248 123.305 5.28756 123.892 3.70198C123.572 4.38907 124.051 4.75903 123.519 5.55182C122.719 5.55182 121.973 5.65753 121.28 5.92179C121.707 6.92599 122.399 7.82448 123.092 8.72298C121.76 10.0971 120.055 10.52 118.616 11.4713C117.656 10.6785 116.591 9.99144 115.631 9.2515C115.898 8.40586 115.738 7.71878 116.004 6.87314C116.217 6.87314 116.484 7.08455 116.697 6.82028Z" fill="white" fill-opacity="0.5"/>
<path opacity="0.1" d="M76.2962 23.1517C76.4561 23.5745 75.9765 24.3145 75.71 24.9487C75.2304 24.7902 74.804 24.5259 74.3244 24.3673C74.3777 23.3631 75.1771 22.3589 76.2962 23.1517Z" fill="white" fill-opacity="0.5"/>
<path opacity="0.1" d="M130.334 52.3796C129.002 51.9568 130.547 48.3628 131.933 49.2085C133.105 50.5298 131.346 52.7496 130.334 52.3796Z" fill="white" fill-opacity="0.5"/>
<path opacity="0.1" d="M147.397 38.3733C148.036 37.422 147.663 36.8406 148.249 35.9421C148.462 35.995 148.622 36.1007 148.782 36.1535V39.7475C147.876 39.4832 148.089 38.6904 147.397 38.3733Z" fill="white" fill-opacity="0.5"/>
<path opacity="0.1" d="M113.019 8.1421C111.313 9.72768 109.448 10.9433 107.263 11.1018C105.025 8.51207 101.135 6.71508 102.467 2.53973C105.025 1.9055 105.025 0.637088 107.69 0.26712C105.984 1.9056 110.194 3.27966 110.088 3.17396L112.22 2.38122C113.126 5.55238 115.31 3.59678 113.019 8.1421ZM102.84 5.28806C103.693 5.49947 104.012 4.12531 104.492 3.17396C103.852 3.59678 103.32 4.33672 102.84 5.28806Z" fill="white" fill-opacity="0.5"/>
<path opacity="0.1" d="M146.437 56.3431C146.703 55.656 147.183 55.656 147.609 55.286C147.023 55.0746 146.543 54.8632 146.916 54.229C147.023 54.0176 147.13 53.8061 147.236 53.5947C148.036 53.4362 148.409 53.5947 148.835 54.0704V57.5058C148.089 57.083 147.503 56.6073 146.437 56.3431Z" fill="white" fill-opacity="0.5"/>
<path opacity="0.1" d="M135.779 58.2987C136.045 58.2458 136.312 58.2458 136.578 58.2458C136.365 58.3515 136.045 58.3515 135.779 58.2987Z" fill="white" fill-opacity="0.5"/>
<path opacity="0.1" d="M136.945 69.7149C136.998 69.6621 136.998 69.5564 137.052 69.5035C137.052 69.6092 137.052 69.7149 136.945 69.7149Z" fill="white" fill-opacity="0.5"/>
<path opacity="0.1" d="M142.067 70.8251C140.895 71.6708 136.045 71.5651 134.713 70.2966C135.352 69.2396 135.459 68.1825 135.193 67.1783C136.045 68.1825 136.845 69.1339 137.005 69.5567C136.951 69.6095 136.951 69.7152 136.898 69.7681C137.005 69.7681 137.058 69.6624 137.005 69.5567C138.124 67.1255 139.456 66.4912 141.641 68.1297C143.453 67.0198 142.44 65.2756 141.375 64.4828C141.588 64.4828 142.334 63.4786 142.067 63.4786C141.268 63.3201 139.829 63.9543 139.403 63.1615C140.362 62.7387 141.161 62.1045 142.067 61.4174C140.842 59.3033 138.657 58.2991 136.578 58.2462C136.898 58.1405 137.164 57.8763 137.324 57.4534C137.005 55.4979 131.782 56.8721 132.368 53.8595C133.487 54.388 134.233 54.1237 135.299 54.5465C136.951 53.2252 137.857 49.7898 140.362 51.0054C140.362 51.7454 139.776 52.0625 139.403 53.1724C140.788 54.1237 142.174 55.1279 142.867 56.3964C141.428 56.6607 139.349 55.0751 138.124 55.9736C141.481 56.3435 145.798 59.3033 148.782 58.5105V71.248C146.277 71.248 143.719 71.6708 142.067 70.8251ZM141.534 69.1867C141.428 69.5038 141.961 69.6095 142.227 69.7152C142.44 69.3453 142.174 69.1339 142.387 68.7639C142.014 68.4996 141.907 69.2924 141.534 69.1867Z" fill="white" fill-opacity="0.5"/>
<path opacity="0.1" d="M147.234 43.0247C147.34 43.606 148.033 43.9231 148.832 44.1874V46.5658C147.873 46.6715 147.447 48.0985 148.14 48.6799C148.406 48.8384 148.619 48.8384 148.832 48.7327V49.5784C148.566 49.4198 148.353 49.2613 148.086 49.1027C147.66 50.3712 147.82 51.3754 148.033 52.3796C147.18 52.1153 146.061 51.6396 146.168 52.9081C145.315 52.591 144.462 52.221 143.61 51.851C144.569 49.8426 146.541 48.0985 146.914 46.0372C143.823 45.5087 139.773 42.0733 138.174 45.773C138.707 46.9357 139.719 48.5742 141.531 48.1513C141.318 48.5742 141.158 48.997 140.945 49.4198C139.826 48.997 138.813 48.8913 137.801 48.627C136.095 47.4643 138.227 43.5003 139.453 43.4475C139.133 43.3418 137.747 43.6589 138.28 42.9189C138.653 41.6505 139.932 43.1304 140.519 42.549C140.679 42.179 140.838 41.809 140.998 41.4919C140.465 41.122 139.773 40.8048 139.399 40.3292C136.895 42.179 132.365 40.1706 131.033 37.6337C130.18 37.2109 128.954 38.0565 128.581 37.4223C129.274 36.8938 130.233 36.9466 130.713 35.7839C130.233 34.4097 128.794 33.4583 127.569 32.4541C127.409 32.8241 127.249 33.1941 127.089 33.5112C126.183 33.2469 125.65 32.7713 125.01 32.4013C124.744 33.0884 124.264 33.1412 124.051 34.0397C125.543 34.8325 126.236 35.9953 127.409 36.9466C126.289 39.0079 123.891 36.7881 122.985 35.8896C122.506 36.6295 122.026 37.4751 121.44 37.7922C120.96 36.4709 121.653 33.1412 119.255 33.8283C119.095 34.3568 119.095 34.8325 119.095 35.2553C118.509 35.1496 117.656 34.3568 117.23 34.7797C117.336 35.361 117.496 35.9424 117.336 36.5766C116.697 36.8938 116.164 37.4751 115.364 37.3166C115.791 36.4181 116.164 35.4667 116.644 34.5154C115.684 34.304 114.991 33.0355 114.192 33.2469C113.606 34.5682 114.299 36.1538 113.446 36.9995C112.913 36.0481 112.806 34.8854 113.393 33.4055C112.22 32.4541 112.753 30.71 112.38 29.3887C109.715 29.1773 108.543 26.9575 107.317 25.5305C107.957 25.1076 108.17 23.5221 108.863 23.0992C108.543 22.9935 108.17 22.835 107.904 22.6764C108.969 21.038 109.236 19.8224 109.982 17.9197C110.515 18.1311 111.048 18.3425 111.581 18.5539C111.314 19.4524 110.302 20.7209 110.568 21.408C111.208 20.8794 111.634 19.9809 112.54 20.1923C112.38 20.8794 111.474 21.9365 111.741 22.4122C112.487 22.1479 113.393 22.2536 114.085 21.8308C113.659 20.9323 112.806 20.1395 111.9 19.3996C112.007 14.7485 116.111 8.9876 120.427 12.4759C119.681 13.4272 118.775 14.0086 118.082 15.0656C117.923 15.7527 118.455 17.074 118.882 16.9155C119.148 16.3341 119.361 15.8056 119.628 15.1714C120.694 15.4885 120.96 16.1756 122.133 16.4398C122.559 15.5942 122.825 14.4843 123.465 14.4843C123.518 15.4885 123.891 16.3341 123.785 17.3912C122.186 17.4969 120.374 17.074 118.882 17.3912C119.468 17.6554 119.521 18.2368 119.948 18.6068C119.681 19.6638 119.095 19.9809 118.722 20.8794C117.869 20.5623 117.017 20.1923 116.164 19.8224C116.217 20.4566 115.951 21.1965 116.004 21.7779C117.017 22.3593 117.656 23.0992 118.669 23.6278C120.108 23.0464 121.493 22.3593 122.772 21.2494C122.079 20.2452 121.227 19.3467 120.854 18.1839C121.706 17.9725 122.666 18.2897 123.412 17.7083C124.318 18.1839 123.678 19.2939 124.584 19.7167C124.744 18.9767 125.224 19.241 125.384 18.5011C126.183 18.871 126.023 19.7167 127.089 19.9281C127.249 19.5581 127.409 19.241 127.569 18.871C128.474 19.4524 128.528 19.3996 129.221 18.8182C129.061 18.0782 129.007 17.2855 129.061 16.4927C130.713 16.8098 129.434 18.5011 129.86 19.3467C132.951 21.3551 138.494 20.7737 139.293 23.9449C137.694 23.7863 136.309 24.0506 134.656 23.8392C133.91 24.8434 133.058 25.5305 132.418 26.7461C133.857 27.6446 135.349 28.4373 136.575 29.4415C137.001 28.5431 136.841 27.9617 137.428 27.0103C138.227 27.4331 137.907 28.3845 138.174 29.0716C135.456 30.1815 133.964 34.5682 131.459 36.2067C133.111 38.6379 136.682 40.9106 139.666 39.325C140.412 38.3208 141.318 36.3652 140.998 35.3082C140.146 34.6211 138.174 35.5196 138.44 35.0968C139.346 34.9382 139.719 33.0355 139.986 32.137C139.293 31.5028 138.494 31.0271 138.28 30.1815C139.773 30.6043 140.732 31.2385 140.838 32.2427C141.105 31.3442 141.744 31.5556 142.384 31.8728C143.023 32.6127 141.585 33.564 141.691 33.8812C142.49 33.9869 143.13 33.564 143.663 32.6656C144.729 33.2469 146.381 33.6169 146.541 34.6211C145.848 34.304 145.102 34.0397 144.356 33.7226C143.663 34.5154 142.757 34.7797 142.224 35.8896C142.757 36.6295 144.143 37.0523 144.622 37.898C144.249 38.0037 143.876 38.0037 143.556 38.2679C144.302 38.4793 143.876 39.1136 144.143 39.5364C146.061 40.3292 147.607 40.1706 148.992 39.5364V41.9676C148.299 42.3376 147.766 42.7075 147.234 43.0247ZM116.377 18.9239C116.697 17.5497 116.164 16.5984 115.738 15.647C116.377 14.6957 117.443 15.0128 117.869 13.4801C115.951 12.5287 115.418 15.647 114.459 17.3912C115.311 17.814 115.578 18.5011 116.377 18.9239ZM113.446 26.9575C111.741 26.5347 111.954 24.1034 110.675 23.7863C108.809 23.2578 108.916 25.5833 109.662 27.1689C110.355 27.1689 110.621 26.0061 110.994 25.2133C112.433 26.5347 112.114 28.7016 114.405 29.653C114.512 30.34 114.032 31.3442 114.352 31.9256C115.631 32.4013 116.857 34.5154 118.136 33.4583C117.176 32.0313 116.324 30.5514 116.91 28.3845C117.656 28.1202 118.882 29.0716 119.734 29.283C119.628 26.4818 115.364 25.0019 113.446 26.9575ZM124.424 23.3106C122.559 23.1521 120.907 23.7863 120.054 26.7989C120.481 27.0632 120.64 26.5875 121.12 27.0103C120.8 27.5917 120.374 27.7503 120.054 28.3845C121.227 28.9659 120.96 30.1286 120.64 31.6614C120.214 32.137 119.788 32.4013 119.095 32.0313C119.095 32.4541 119.681 32.6656 119.521 33.1941C120.854 33.0355 122.026 32.5598 123.145 31.9256C124.424 28.7016 124.957 25.7947 124.424 23.3106ZM141.105 42.549C140.998 43.0775 142.224 43.2361 142.49 43.1304C142.277 42.4961 141.691 42.2319 141.105 42.549ZM142.437 39.0607C142.171 39.7478 142.437 40.1706 142.384 40.8048C142.864 40.8577 142.97 39.8006 143.29 39.3778C142.97 39.2721 142.704 39.1664 142.437 39.0607Z" fill="white" fill-opacity="0.5"/>
<path opacity="0.1" d="M9.04421 4.23081C9.89689 4.70648 10.5897 4.60078 11.3358 4.38937C10.0035 6.55632 9.31066 8.77613 9.41725 10.7317C10.5364 10.256 11.7088 8.88184 12.9346 10.1503C12.0286 11.4188 10.6963 11.6302 9.41725 11.7359C7.81847 10.4146 4.72749 10.8374 2.22273 9.04039C1.7431 7.71908 0.997005 6.50347 0.997005 4.97075C1.63652 4.54793 2.32931 4.0194 2.96883 3.49088H8.88432C8.77774 3.80799 8.72445 4.12511 9.04421 4.23081Z" fill="white" fill-opacity="0.5"/>
<path opacity="0.1" d="M18.635 8.03635C16.3967 8.56487 16.1303 5.81654 17.5159 5.12946H19.0081C19.0614 5.12946 19.1147 5.18231 19.168 5.18231C19.0081 6.13365 18.7949 7.085 18.635 8.03635Z" fill="white" fill-opacity="0.5"/>
<path opacity="0.1" d="M148.568 27.5918C147.396 28.5432 146.117 29.1246 144.731 29.336C144.572 28.2261 144.518 27.0105 144.678 25.742C145.371 25.6363 146.117 25.5306 146.703 25.2663C146.383 23.7336 146.543 20.8267 148.835 21.3552V22.0423C148.302 24.1036 146.597 26.6405 148.568 27.5918Z" fill="white" fill-opacity="0.5"/>
<path opacity="0.1" d="M125.912 11.2603C127.031 9.35758 128.417 8.5648 130.069 8.24768C130.016 8.6705 129.269 9.41044 129.696 9.62185C130.282 9.83326 130.868 10.0975 131.508 10.3618C131.774 9.30473 132.627 9.62185 132.947 8.6705C134.013 8.98762 134.332 9.62185 134.865 10.2032C134.599 11.2074 134.013 11.4188 133.693 12.2645C132.094 12.1059 130.868 13.0573 129.589 13.6386C129.483 13.163 129.909 12.4759 129.536 12.1059C129.11 12.3702 128.95 13.3215 128.47 13.4801C127.777 12.6873 126.978 11.8945 125.912 11.2603Z" fill="white" fill-opacity="0.5"/>
<path opacity="0.1" d="M138.657 5.71084C138.817 6.45078 138.55 6.8736 137.911 7.45498C135.886 7.24357 137.165 4.49523 138.657 5.71084Z" fill="white" fill-opacity="0.5"/>
<path opacity="0.1" d="M127.468 7.24317C127.628 9.09301 125.23 9.56868 124.697 8.14166C125.123 6.29183 126.455 7.13747 127.468 7.24317Z" fill="white" fill-opacity="0.5"/>
<path opacity="0.1" d="M137.482 19.9281C137.323 20.298 137.163 20.668 137.003 20.9851C136.523 20.9323 136.203 21.3022 135.617 20.9323C134.871 19.5581 137.056 18.3953 137.482 19.9281Z" fill="white" fill-opacity="0.5"/>
<path opacity="0.1" d="M127.518 14.3785C127.091 15.6998 126.025 15.8584 125.333 15.0127C125.599 14.4842 125.759 14.0085 126.025 13.5329C126.878 13.6914 127.198 13.7443 127.518 14.3785Z" fill="white" fill-opacity="0.5"/>
<path opacity="0.1" d="M129.809 4.65347C129.329 4.49491 128.85 4.2835 128.423 4.07209C128.69 2.27511 130.342 2.27511 130.608 3.43786C130.449 4.1778 129.916 3.91354 129.809 4.65347Z" fill="white" fill-opacity="0.5"/>
</svg>
