<svg width="64" height="64" viewBox="0 0 64 64" fill="none" xmlns="http://www.w3.org/2000/svg">
<mask id="mask0_3576_65" style="mask-type:alpha" maskUnits="userSpaceOnUse" x="0" y="0" width="64" height="64">
<circle cx="32" cy="32" r="32" fill="#C4C4C4"/>
</mask>
<g mask="url(#mask0_3576_65)">
<rect width="64" height="64" fill="#22273E"/>
<path d="M32.0655 31.1691C26.1538 31.1802 21.2635 35.8323 20.9682 41.7113C20.9603 41.8782 20.9867 42.0449 21.0457 42.2012C21.1047 42.3576 21.1951 42.5004 21.3114 42.621C21.4277 42.7415 21.5675 42.8373 21.7222 42.9025C21.8769 42.9676 22.0434 43.0008 22.2114 43H41.9679C42.1351 42.9995 42.3005 42.9654 42.4541 42.8996C42.6077 42.8339 42.7463 42.7379 42.8616 42.6175C42.9768 42.4971 43.0664 42.3547 43.1248 42.199C43.1832 42.0433 43.2093 41.8774 43.2015 41.7113C42.9058 35.8249 38.0039 31.1698 32.0848 31.1691H32.0655Z" fill="#4F5677"/>
<path d="M32.0835 20C28.9498 20 26.395 22.5513 26.395 25.6695C26.395 28.7877 28.9498 31.3478 32.0835 31.3478C35.2172 31.3478 37.7808 28.7877 37.7808 25.6695C37.7808 22.5513 35.2172 20 32.0835 20V20Z" fill="#4F5677"/>
<circle cx="32" cy="32" r="31" stroke="#4F5677" stroke-width="2" stroke-dasharray="5 5"/>
</g>
</svg>
