<svg width="657" height="74" viewBox="0 0 657 74" fill="none" xmlns="http://www.w3.org/2000/svg">
<g opacity="0.2">
<path d="M651.2 18.5C646 17.8 647.7 25.3 648 27.8C650 25.6 653.1 26.9 654.1 24.1C655.1 21.5 653 18.8 651.2 18.5Z" fill="#897E9D"/>
<path d="M522 2.8999H518.5C521.7 3.9999 524.9 5.0999 527.3 6.6999C526.9 4.5999 524.2 3.8999 522 2.8999Z" fill="#897E9D"/>
<path d="M402.301 4.2999C403.001 4.2999 404.001 6.2999 404.301 4.4999C404.001 4.0999 403.901 3.4999 403.901 2.8999H402.701C402.501 3.3999 402.401 3.7999 402.301 4.2999Z" fill="#897E9D"/>
<path d="M505.4 20C505.2 20.8 504.7 20.8 504.5 21.6C505.1 21.8 505.9 22.2 506.2 21.7C505.6 21.4 506.4 20.1 505.4 20Z" fill="#897E9D"/>
<path d="M628.398 13.5C626.898 13.6 626.198 15.2 625.098 16.2C616.498 15.9 623.498 25.6 621.498 29.6C625.098 29.6 625.698 23.3 629.598 23.7C631.098 19 633.198 14.9 628.398 13.5Z" fill="#897E9D"/>
<path d="M533.998 31.5999C533.798 32.2999 533.598 33.0999 533.398 33.6999C533.698 34.4999 534.898 34.6999 535.998 34.9999C538.298 33.1999 535.998 29.6999 533.998 31.5999Z" fill="#897E9D"/>
<path d="M589.798 3.2999C588.998 5.8999 586.098 7.3999 586.198 9.6999C588.098 8.8999 589.698 7.4999 590.698 4.5999C592.098 4.5999 593.198 3.7999 594.098 2.8999H589.298C589.498 2.9999 589.698 3.0999 589.798 3.2999Z" fill="#897E9D"/>
<path d="M242.198 8.6001C239.998 8.8001 238.498 15.0001 241.398 15.4001C243.098 13.7001 244.098 10.0001 242.198 8.6001Z" fill="#897E9D"/>
<path d="M650.098 10.6999C651.498 12.1999 654.098 12.9999 654.198 15.2999C650.698 16.1999 647.398 17.2999 643.698 17.9999C642.698 15.3999 643.298 11.5999 641.098 9.6999C640.298 11.8999 638.798 12.5999 637.598 14.1999C639.098 14.5999 639.598 12.8999 640.898 12.8999C644.898 17.3999 636.698 19.2999 633.998 21.8999C633.998 19.6999 633.798 17.4999 634.298 14.9999C630.698 13.2999 632.798 8.0999 633.398 3.8999C632.498 4.6999 630.598 3.4999 630.098 5.1999C630.598 5.5999 632.198 5.2999 631.898 6.1999C628.598 9.0999 625.198 11.7999 622.098 15.1999C618.898 14.1999 616.498 14.7999 612.998 13.1999C612.398 11.0999 611.698 9.2999 610.898 7.2999C610.098 7.7999 609.898 9.6999 609.398 10.9999C610.698 13.5999 613.898 15.1999 617.898 16.0999C616.698 18.7999 619.198 19.2999 618.298 21.8999C617.098 21.5999 615.598 20.6999 614.698 21.1999C613.998 22.6999 614.498 23.3999 614.598 24.4999C616.698 25.7999 617.498 24.2999 619.198 24.5999C620.698 25.5999 619.498 27.8999 618.598 29.4999C617.898 28.8999 617.598 27.8999 616.098 27.7999C615.398 29.6999 613.698 29.5999 612.898 31.4999C613.898 32.0999 614.698 32.7999 615.698 33.3999C618.998 29.2999 623.198 29.3999 627.198 33.3999C627.398 31.0999 625.398 29.9999 625.498 27.6999C626.698 24.3999 631.298 26.2999 631.898 28.7999C630.798 29.8999 628.098 31.3999 628.398 33.2999C631.798 31.5999 633.098 33.4999 637.298 34.2999C637.198 32.8999 637.898 31.0999 637.298 30.0999C635.798 30.5999 633.998 29.9999 632.598 28.9999C633.898 25.8999 631.398 24.9999 631.598 22.4999C633.598 21.9999 634.498 23.8999 635.398 25.1999C637.398 20.8999 640.598 19.0999 645.698 21.4999C645.598 23.7999 645.198 26.1999 645.398 28.3999C646.698 28.7999 647.898 29.1999 649.198 29.6999C648.398 32.3999 647.598 35.0999 646.798 37.7999C651.098 36.3999 651.098 25.4999 655.498 24.1999C656.498 25.1999 656.398 26.8999 656.698 28.3999V21.4999C656.298 21.5999 655.798 21.6999 655.398 21.7999C656.898 16.7999 655.398 8.5999 650.098 10.6999ZM629.598 23.6999C625.698 23.1999 625.098 29.4999 621.498 29.5999C623.498 25.5999 616.398 15.8999 625.098 16.1999C626.198 15.2999 626.898 13.5999 628.398 13.4999C633.198 14.8999 631.098 18.9999 629.598 23.6999ZM654.098 24.1999C652.998 26.9999 649.998 25.5999 647.998 27.8999C647.698 25.3999 645.998 17.7999 651.198 18.5999C652.998 18.7999 655.098 21.4999 654.098 24.1999Z" fill="#897E9D"/>
<path d="M524.698 24.2C521.898 24.5 519.598 25.1999 517.898 26.4C521.198 25.8 524.798 25.2 524.698 24.2Z" fill="#897E9D"/>
<path d="M655.098 38.1C655.698 38.3 656.398 38.5001 656.998 38.7001V34.9001C656.798 34.9001 656.698 34.8 656.498 34.8C655.698 35.3 655.498 36.9 655.098 38.1Z" fill="#897E9D"/>
<path d="M581.199 4.30005C581.699 5.50005 581.799 7.00005 583.099 7.70005C583.599 6.10005 584.099 4.50005 584.499 2.80005H582.299C581.899 3.30005 581.499 3.70005 581.199 4.30005Z" fill="#897E9D"/>
<path d="M527.998 12.9999C527.698 12.5999 527.298 12.2999 526.898 11.8999C527.098 12.2999 527.498 12.6999 527.998 12.9999Z" fill="#897E9D"/>
<path d="M434.397 37.2999C432.897 39.1999 433.797 41.6999 436.197 41.1999C436.497 40.1999 436.797 39.1999 436.997 38.1999C435.797 37.5999 435.897 37.0999 434.397 37.2999Z" fill="#897E9D"/>
<path d="M443.699 17.3C444.299 16 443.699 15.6 444.099 14.6C443.099 13.9 442.899 14.9 442.099 14.4C441.399 16.1 442.099 17 443.699 17.3Z" fill="#897E9D"/>
<path d="M436.598 17.2999C438.098 19.7999 435.598 25.7999 440.098 25.4999C442.598 20.9999 442.198 13.8999 436.598 17.2999Z" fill="#897E9D"/>
<path d="M656.4 57.8C656.6 57.1 656.8 56.4 657 55.7V52C654.4 52.5 652.2 53.7 650 55.2C652.3 56 653.7 57.3 656.4 57.8Z" fill="#897E9D"/>
<path d="M417.597 31.8C416.197 32.4 415.197 35.8 417.597 36C419.897 36 420.097 32 417.597 31.8Z" fill="#897E9D"/>
<path d="M438 35.1001C439.4 38.1001 437.7 42.8001 440.1 45.1001C442.2 44.8001 444 43.6001 445 41.1001C441.4 40.0001 441.8 35.2001 438 35.1001Z" fill="#897E9D"/>
<path d="M397.199 11.5999C397.499 9.69993 399.099 6.99993 398.599 5.49993C395.199 5.39993 393.299 9.89993 397.199 11.5999Z" fill="#897E9D"/>
<path d="M403.199 8.3999C403.599 7.6999 403.499 5.6999 404.399 5.8999C403.799 7.6999 408.799 9.4999 409.599 8.0999C408.399 6.4999 407.899 4.5999 407.099 2.8999H403.899C403.899 3.4999 403.999 3.9999 404.299 4.4999C403.899 6.2999 402.999 4.3999 402.299 4.2999C402.399 3.7999 402.599 3.3999 402.699 2.8999H399.699C400.099 5.1999 400.999 7.1999 403.199 8.3999Z" fill="#897E9D"/>
<path d="M438.098 5.8999C436.198 9.5999 431.098 13.5999 431.598 17.8999C436.298 11.8999 435.398 5.3999 444.398 13.1999C444.598 12.5999 447.798 12.5999 448.298 12.5999C452.198 13.2999 443.098 16.4999 443.798 19.1999C444.398 19.1999 444.898 19.2999 445.198 19.4999C448.298 19.0999 454.998 17.2999 454.298 18.6999C455.498 19.4999 456.098 20.7999 456.698 21.7999C455.398 23.7999 454.298 26.3999 453.298 29.0999C454.498 32.6999 460.398 32.9999 462.798 31.1999C464.598 29.2999 464.298 22.8999 467.198 23.2999C466.498 27.5999 467.098 31.0999 469.698 33.4999C476.498 33.5999 477.698 25.3999 476.398 19.1999C477.298 19.8999 478.298 21.7999 479.598 21.1999C480.798 17.8999 478.198 14.1999 475.398 15.5999C474.998 16.8999 475.698 17.4999 475.798 18.5999C472.898 20.6999 469.798 16.7999 467.698 14.5999C470.998 15.3999 473.598 14.6999 475.698 12.9999C476.298 11.1999 475.398 10.3999 476.198 8.3999C477.398 7.6999 478.498 6.7999 479.998 6.7999C479.998 6.3999 480.298 5.8999 480.898 5.1999C480.998 4.3999 481.098 3.5999 481.298 2.8999H429.398C431.598 4.8999 436.098 3.9999 438.098 5.8999Z" fill="#897E9D"/>
<path d="M243.499 4.2999C243.999 3.9999 244.499 3.4999 244.899 2.8999H241.199C241.599 3.5999 242.199 4.1999 243.499 4.2999Z" fill="#897E9D"/>
<path d="M413.799 2.8999H408.999C408.899 3.0999 408.799 3.2999 408.699 3.5999C410.299 5.4999 412.699 4.4999 413.799 2.8999Z" fill="#897E9D"/>
<path d="M655.899 8.29996C656.199 7.29996 656.499 6.19996 656.299 5.59996C655.299 4.89996 655.099 5.89996 654.299 5.39996C653.499 7.19996 654.599 7.79996 655.899 8.29996Z" fill="#897E9D"/>
<path d="M650.898 63.5999C651.698 63.1999 651.798 61.1999 652.498 60.8999C653.198 60.9999 654.198 62.8999 654.498 61.0999C655.198 58.6999 652.098 59.8999 650.798 59.3999C649.498 62.6999 650.898 64.2999 651.198 66.5999C653.398 67.2999 655.198 67.4999 656.998 67.2999V65.9999C655.198 66.0999 653.098 65.2999 650.898 63.5999Z" fill="#897E9D"/>
<path d="M527.399 6.6999C524.999 5.0999 521.799 3.9999 518.599 2.8999H483.299C482.399 3.7999 481.699 4.5999 481.199 5.1999C481.199 5.8999 481.199 6.5999 481.399 7.1999C482.199 7.8999 483.299 8.3999 484.799 8.6999C484.299 9.2999 483.499 9.6999 482.999 10.4999C491.799 10.6999 497.299 21.7999 503.599 23.2999C504.199 25.8999 511.299 31.6999 514.799 31.4999C515.199 29.1999 516.299 27.5999 517.999 26.3999C515.599 26.7999 513.199 27.1999 512.499 27.5999C512.499 27.6999 512.399 27.8999 512.399 27.9999C512.199 27.7999 512.299 27.6999 512.499 27.5999C513.899 22.7999 512.799 20.0999 507.599 19.8999C506.399 16.0999 509.899 14.7999 512.399 14.8999C512.099 14.5999 512.199 12.1999 512.599 12.5999C513.999 13.2999 515.199 15.9999 516.799 15.3999C515.899 13.6999 515.599 11.6999 515.199 9.6999C519.599 8.0999 523.999 9.2999 526.899 11.8999C526.599 11.3999 526.499 10.6999 526.799 9.7999C529.599 7.3999 535.499 15.6999 538.299 10.6999C536.099 10.0999 535.299 8.6999 533.199 8.0999C532.899 6.4999 533.199 4.6999 533.299 2.8999H521.999C524.199 3.8999 526.899 4.5999 527.399 6.6999ZM504.499 21.5999C504.699 20.7999 505.199 20.7999 505.399 19.9999C506.399 20.0999 505.499 21.3999 506.199 21.6999C505.999 22.1999 505.099 21.6999 504.499 21.5999Z" fill="#897E9D"/>
<path d="M443.898 19.5C443.598 20.4 443.398 21.3 443.098 22.3C444.398 22.3 443.998 23.4 445.198 23.5C446.898 22.8 447.098 20.4 445.298 19.6C444.598 19.6 443.998 19.7 443.898 19.5Z" fill="#897E9D"/>
<path d="M443.898 19.5C443.998 19.7 444.598 19.6 445.398 19.5C444.998 19.3 444.498 19.2 443.998 19.2C443.898 19.3 443.898 19.4 443.898 19.5Z" fill="#897E9D"/>
<path d="M481.599 2.8999C481.399 3.6999 481.199 4.4999 481.199 5.1999C481.699 4.4999 482.499 3.6999 483.299 2.8999H481.599Z" fill="#897E9D"/>
<path d="M443.898 19.5C443.898 19.4 443.898 19.3 443.998 19.3C443.898 19.4 443.898 19.4 443.898 19.5Z" fill="#897E9D"/>
<path d="M512.199 28.1C512.199 27.9 512.298 27.8 512.298 27.7C512.098 27.7 512.099 27.9 512.199 28.1Z" fill="#897E9D"/>
<path d="M620.398 38.9999C619.898 40.4999 620.298 41.3999 621.698 41.6999C621.898 40.8999 622.398 40.8999 622.598 40.0999C621.898 39.6999 621.398 38.3999 620.398 38.9999Z" fill="#897E9D"/>
<path d="M559.398 42.1999C560.898 43.8999 564.498 41.0999 562.398 38.9999C560.698 38.3999 558.798 40.0999 559.398 42.1999Z" fill="#897E9D"/>
<path d="M566.698 60.1001C563.798 66.9001 573.998 60.6001 566.698 60.1001V60.1001Z" fill="#897E9D"/>
<path d="M574.798 13.8999C575.298 13.2999 576.198 13.0999 576.298 11.5999C575.098 11.4999 575.098 10.1999 573.998 10.8999C573.398 12.3999 573.998 13.2999 574.798 13.8999Z" fill="#897E9D"/>
<path d="M557.9 53C556.6 54.6 554.5 54.5 554 57.8C557.4 64 562.9 56.2 557.9 53Z" fill="#897E9D"/>
<path d="M544.497 4.5C541.297 5 541.097 10.3 542.997 11C545.397 12 547.597 5 544.497 4.5Z" fill="#897E9D"/>
<path d="M555.3 69C554.5 70.1 554.2 71 554.3 72.4C555.1 72.7 555.9 72.8 556.6 73.1C558.2 71.8 557.9 69 555.3 69Z" fill="#897E9D"/>
<path d="M558.801 24.2C558.401 25.8 560.101 27.8 562.501 27.3C566.201 22.8 559.601 20.3 558.801 24.2Z" fill="#897E9D"/>
<path d="M637.999 37.7C639.999 38.1 641.599 37.6 642.199 34.8C640.399 32.3 636.399 34.9 637.999 37.7Z" fill="#897E9D"/>
<path d="M447.198 39.5C446.698 41.2 446.798 42.5 448.698 42.8C449.398 42.5 449.598 41 449.998 39.9C448.998 39.7 447.898 39.1 447.198 39.5Z" fill="#897E9D"/>
<path d="M576.4 37.3999C575.6 38.0999 575.3 40.1999 574.5 40.9999C575.3 41.3999 575.8 42.1999 577.1 42.2999C578.2 41.1999 578.7 39.6999 578.3 37.9999C577.7 37.7999 577 37.6999 576.4 37.3999Z" fill="#897E9D"/>
<path d="M582.699 28.6C582.899 30.8 583.399 32.7 584.899 34C586.099 33 587.799 32.9 588.999 31.5C588.899 28.5 585.099 26.9 582.699 28.6Z" fill="#897E9D"/>
<path d="M571.298 70C571.098 70.9 570.798 71.7 570.598 72.6C573.598 76.5 575.998 68.6 571.298 70Z" fill="#897E9D"/>
<path d="M595.499 13.5999C594.799 15.2999 594.499 16.7999 595.099 17.6999C595.899 17.9999 596.599 18.1999 597.399 18.3999C598.499 17.1999 598.799 16.2999 598.999 14.6999C598.599 13.8999 596.399 13.1999 595.499 13.5999Z" fill="#897E9D"/>
<path d="M471.8 41.5C470.4 42 470.1 42.8 470 44.7C471.4 45.5 471.9 45.8 473.2 45.3C474 43.2 473.6 41.9 471.8 41.5Z" fill="#897E9D"/>
<path d="M476.601 36.9001C475.301 39.8001 476.401 41.2001 478.901 41.9001C481.901 40.1001 479.301 35.3001 476.601 36.9001Z" fill="#897E9D"/>
<path d="M483.397 26.4999C483.997 26.4999 484.597 26.1999 485.197 26.1999C487.997 19.2999 478.797 23.5999 483.397 26.4999Z" fill="#897E9D"/>
<path d="M465.097 31.7C461.497 33.7 462.397 40.0999 465.097 41.5999C469.897 40.9999 472.997 32.7 465.097 31.7Z" fill="#897E9D"/>
<path d="M449.5 37.4999C451.2 36.5999 453.7 33.3999 453.3 30.2999C450.2 29.3999 448.3 34.7999 449.5 37.4999Z" fill="#897E9D"/>
<path d="M521.497 32.8C521.297 33.2 520.897 33.4 520.497 33.4C519.697 35.5 519.997 36.9 521.797 37.6C524.197 37.4 525.197 32.9 521.497 32.8Z" fill="#897E9D"/>
<path d="M517.899 19.3C513.399 28.9 527.699 20.7 517.899 19.3V19.3Z" fill="#897E9D"/>
<path d="M489.6 28.5C489.1 28.8 488.6 29.1 488.1 29.4C487.6 31 488.2 31.9 489.3 32.6C491.4 32.4 492.2 29.2 489.6 28.5Z" fill="#897E9D"/>
<path d="M527.898 35.3C528.298 36.6 530.298 37.2 531.598 37C535.398 33.3 528.298 29.9 527.898 35.3Z" fill="#897E9D"/>
<path d="M524.698 21.5C523.898 23.7 524.698 25 526.898 25.5C529.298 23.5 526.698 20.1 524.698 21.5Z" fill="#897E9D"/>
<path d="M505.699 35.0999C506.599 35.3999 506.999 34.6999 508.199 35.3999C507.799 36.1999 507.099 36.1999 506.799 37.2999C508.599 37.2999 510.399 36.9999 512.299 37.1999C512.699 36.1999 512.899 35.1999 512.699 34.4999C509.699 33.3999 507.699 34.2999 505.699 35.0999Z" fill="#897E9D"/>
<path d="M140.101 8.1C141.501 9.3 141.301 10.9 143.601 11.8C145.401 8.2 144.101 5.9 144.901 3.7C146.101 3.6 147.701 5.7 148.701 4.4C148.201 4 148.601 3.4 148.301 3H138.301C139.201 3.8 140.201 4.5 141.301 5.2C140.401 6.2 140.501 7 140.101 8.1Z" fill="#897E9D"/>
<path d="M104.898 4.9C103.498 5.4 102.098 5.9 101.098 8.4C101.698 9.1 101.498 10.2 102.498 10.8C103.098 9.7 102.798 8.8 103.398 7.7C104.198 7.4 105.298 8.4 106.398 9C106.698 7 108.298 5.3 109.498 3H104.998C105.198 3.5 105.298 4.1 104.898 4.9Z" fill="#897E9D"/>
<path d="M152.801 9.2999C154.301 6.9999 157.001 5.5999 158.201 2.8999H149.801C152.401 3.8999 151.801 7.1999 152.801 9.2999Z" fill="#897E9D"/>
<path d="M288 7.8999C286.9 11.8999 287 16.6999 292.2 17.6999C294.6 15.6999 297 14.0999 297.6 10.4999C301.2 6.5999 309.1 7.6999 311.1 2.8999H282C284.3 3.7999 286.3 5.0999 288 7.8999Z" fill="#897E9D"/>
<path d="M184.398 8.90005C185.998 7.80005 187.498 6.50005 189.298 6.10005C190.498 11.2 197.898 10.9 201.598 9.80005C200.898 10.7 200.798 11.5 201.798 11.9C203.398 13.1 204.398 12.1 205.498 11C205.598 10 204.698 9.30005 204.598 8.40005C207.198 7.20005 209.998 7.00005 211.698 4.80005C212.198 4.20005 212.598 3.50005 212.998 2.80005H187.298C187.398 3.00005 187.398 3.20005 187.498 3.40005C185.898 4.30005 182.998 6.90005 184.398 8.90005Z" fill="#897E9D"/>
<path d="M172.3 5.70008C170.6 5.20008 168.8 4.20008 167.4 5.40008C167.5 6.80008 167.8 8.10008 167.4 9.50008C164.3 7.90008 161.8 9.80008 159.5 12.1001C162.6 13.4001 165.7 14.8001 168 12.5001C168.1 9.60008 170.4 8.10008 172.3 5.70008Z" fill="#897E9D"/>
<path d="M169.097 26.2999C168.297 26.0999 167.297 24.5 166.897 26.1C165.797 27.4 168.297 27.5999 168.897 28.2999C169.497 25.3999 171.197 27.5 172.297 27.2C171.897 25.5 171.997 23.6 170.897 22.2C169.697 23.8 170.197 24.8999 169.097 26.2999Z" fill="#897E9D"/>
<path d="M162.299 31.1001C161.499 31.4001 160.299 33.3001 160.499 34.2001C161.199 34.6001 161.899 35.1001 162.499 35.4001C164.399 34.4001 164.799 31.7001 162.299 31.1001Z" fill="#897E9D"/>
<path d="M147.2 16.7999C148.2 15.4999 147.6 14.6999 146.3 14.1999C145 13.3999 144.7 16.8999 143.4 16.0999C141.7 15.2999 141.1 14.0999 140.6 12.8999C138.8 17.2999 136.2 20.8999 133.1 22.9999C132.5 20.6999 133.3 17.3999 130 16.9999C129.1 19.7999 130.2 21.9999 131.5 24.0999C135.4 24.9999 138.1 30.1999 143.7 31.8999C146.3 31.0999 148.9 30.8999 151.2 29.0999C151 24.7999 152.8 18.3999 147.2 16.7999Z" fill="#897E9D"/>
<path d="M196.801 14.7999C196.301 15.8999 196.201 16.8999 196.501 17.6999C200.601 20.0999 200.401 12.5999 196.801 14.7999Z" fill="#897E9D"/>
<path d="M230.598 31.8999C232.498 32.6999 234.098 32.0999 235.798 32.3999C236.298 30.3999 235.798 28.6999 234.398 27.3999C233.098 28.0999 230.698 29.3999 230.598 31.8999Z" fill="#897E9D"/>
<path d="M222.499 15C222.299 15.2 222.099 15.8 221.699 15.6C219.799 18 222.199 20.4 224.499 20.5C224.899 19.5 225.599 20 225.999 18.8C226.399 17 224.299 14.9 222.499 15Z" fill="#897E9D"/>
<path d="M301.297 9.60006C299.797 11.9001 301.997 13.8001 303.897 13.2001C306.397 10.8001 302.797 8.90006 301.297 9.60006Z" fill="#897E9D"/>
<path d="M319 5.99997C317.9 5.19997 316.5 5.69997 315.3 6.89997C314.2 13.3 322.9 9.09997 319 5.99997Z" fill="#897E9D"/>
<path d="M132.401 33.9999C131.301 34.2999 129.901 32.3999 128.801 32.8999C130.901 34.2999 131.701 37.1999 128.901 39.1999C130.801 39.2999 133.301 41.9999 135.201 41.8999C134.101 40.5999 132.501 39.3999 131.401 37.9999C133.301 34.6999 135.801 34.3999 138.001 32.0999C136.701 31.4999 135.701 31.4999 134.301 30.3999C133.401 32.0999 133.901 32.9999 132.401 33.9999Z" fill="#897E9D"/>
<path d="M255.998 12.1001C255.498 13.9001 253.098 14.5001 253.498 15.8001C254.598 15.6001 255.998 15.9001 257.298 16.5001C258.498 14.5001 257.998 13.1001 255.998 12.1001Z" fill="#897E9D"/>
<path d="M71.7992 14.3999C65.4992 14.3999 70.2992 24.9999 73.5992 16.9999C72.6992 16.2999 73.2992 15.0999 71.7992 14.3999Z" fill="#897E9D"/>
<path d="M38.9 4.1001C38.1 4.3001 37.6 5.6001 37 6.6001C37.7 7.9001 38.4 8.5001 39.8 8.2001C40.9 6.4001 41 4.9001 38.9 4.1001Z" fill="#897E9D"/>
<path d="M89.9992 6.00005C88.4992 5.90005 87.3992 7.00005 86.1992 7.90005C89.0992 9.50005 91.8992 6.30005 93.4992 2.80005H89.2992C89.1992 4.00005 89.9992 4.90005 89.9992 6.00005Z" fill="#897E9D"/>
<path d="M121.198 9.59998C120.798 10.2 120.498 10.9 120.098 11.6C120.498 13.4 122.598 13.9 124.198 13.5C126.498 11 122.798 8.89998 121.198 9.59998Z" fill="#897E9D"/>
<path d="M2.89887 10.5999C5.39887 10.4999 6.69887 7.39995 4.79887 5.49995C2.09887 4.29995 -1.20113 9.19995 2.89887 10.5999Z" fill="#897E9D"/>
<path d="M79.0008 2.8999H76.8008C77.4008 3.6999 77.9008 4.6999 78.3008 5.2999C79.1008 4.4999 79.2008 3.6999 79.0008 2.8999Z" fill="#897E9D"/>
<path d="M80.098 9.49995C78.698 9.39995 78.498 6.99995 77.798 8.69995C76.598 11.2 79.598 13.4 80.698 13.5C84.198 14 83.698 7.29995 84.198 4.69995C82.598 5.19995 81.298 7.09995 80.098 9.49995Z" fill="#897E9D"/>
<path d="M112.698 36.2999C112.198 38.0999 112.998 39.4 113.398 40.9C114.998 39.6 116.598 38.9 118.098 37.5C117.498 37 116.798 36.6 116.098 36.2C115.398 38.6 113.898 36.8999 112.698 36.2999Z" fill="#897E9D"/>
<path d="M146.401 10.0999C151.501 12.8999 150.201 3.69989 146.301 8.49989C146.701 8.89989 146.201 9.59989 146.401 10.0999Z" fill="#897E9D"/>
<path d="M104.301 16.7001C106.001 18.1001 108.901 15.5001 108.501 12.5001C105.401 10.3001 102.101 14.9001 104.301 16.7001Z" fill="#897E9D"/>
<path d="M138.501 7.5C137.301 8.9 136.101 10.2 134.801 11.6C137.201 16.7 144.001 10.6 138.501 7.5Z" fill="#897E9D"/>
</g>
</svg>
