<svg width="29" height="28" viewBox="0 0 29 28" fill="none" xmlns="http://www.w3.org/2000/svg">
<path d="M14.8881 28C22.62 28 28.888 21.732 28.888 14C28.888 6.26801 22.62 0 14.8881 0C7.15607 0 0.888062 6.26801 0.888062 14C0.888062 21.732 7.15607 28 14.8881 28Z" fill="#231C1C"/>
<path d="M14.8882 22.6016C19.6387 22.6016 23.4898 18.7506 23.4898 14C23.4898 9.2495 19.6387 5.39844 14.8882 5.39844C10.1377 5.39844 6.28662 9.2495 6.28662 14C6.28662 18.7506 10.1377 22.6016 14.8882 22.6016Z" fill="white"/>
<path d="M14.8969 5.15576H14.6072H14.602H14.5966H14.5911H14.5862H14.5768H14.5755H14.566H14.5651H14.5557H14.551H14.5445H14.5402H14.5337H14.5296H14.5194H14.5092H14.499C14.1922 5.16904 13.8864 5.19834 13.5826 5.24342L13.6799 5.89626C14.0831 5.8364 14.4902 5.80634 14.8979 5.80634V5.15576H14.8969ZM12.2953 5.54461L12.2636 5.55438L12.2541 5.55726L12.2481 5.55914L12.2451 5.56014L12.2396 5.56189H12.2388L12.2358 5.56277L12.2306 5.56452H12.2293L12.2265 5.5654L12.2212 5.56703H12.22L12.2173 5.5679L12.2119 5.56966H12.2106L12.2049 5.57153L12.2024 5.57241H12.2007L12.1972 5.57354L12.1951 5.57416L12.1927 5.57491L12.1909 5.57554L12.1872 5.57679H12.1852L12.1828 5.57754H12.1811L12.1776 5.57867L12.1754 5.57942L12.1733 5.58017L12.1709 5.5808L12.1682 5.5818L12.1654 5.58268H12.1636L12.1609 5.58343L12.1583 5.58431L12.1557 5.58518H12.1538L12.1509 5.58619L12.1484 5.58694L12.1459 5.58781L12.144 5.58844L12.1404 5.58957L12.1388 5.59019L12.136 5.59107H12.1344L12.1305 5.59232H12.1291L12.1261 5.59332H12.1246L12.1206 5.59458H12.1193L12.1161 5.59558H12.115L12.1108 5.59696H12.1097L12.1061 5.59821H12.1052L12.1009 5.59959H12.0998L12.0961 5.60084L12.0917 5.60222H12.0907L12.0863 5.60372L12.0818 5.60522H12.0809L12.072 5.60823H12.0711L12.0621 5.61136H12.0614L12.0569 5.61286L12.0523 5.61436H12.0517L12.0471 5.61587L12.0427 5.61737L12.0381 5.61887L12.0333 5.6205L12.0286 5.62213L12.024 5.62376L12.0194 5.62538L12.0099 5.62876L12.0002 5.63215L11.9907 5.63553L11.9812 5.63878L11.9716 5.64216C11.6655 5.74961 11.3657 5.87397 11.0734 6.01461L11.3596 6.60934C11.7265 6.43288 12.1061 6.28423 12.4953 6.16451L12.3014 5.53359L12.2953 5.54461ZM9.92489 6.68422C9.57387 6.92329 9.24037 7.18728 8.92704 7.47407L8.91965 7.48083C8.91727 7.48308 8.91489 7.48534 8.91239 7.48747L8.90876 7.49072L8.90563 7.49373L8.90225 7.49673L8.90149 7.49748L8.89886 7.49999L8.89799 7.50074L8.89498 7.50362L9.34131 7.98977C9.64062 7.71314 9.95996 7.45904 10.2967 7.22961L9.92489 6.68448V6.68422ZM7.99381 8.47054C7.7183 8.81405 7.46883 9.17748 7.2473 9.55793L7.81786 9.88993C8.02286 9.53777 8.25379 9.2014 8.50864 8.88356L7.99381 8.47029V8.47054ZM6.6711 10.7441C6.54086 11.0729 6.43066 11.4091 6.34099 11.7511L6.33836 11.761C6.33748 11.7642 6.33661 11.7674 6.33586 11.7705V11.7718C6.33498 11.7749 6.3341 11.7781 6.33335 11.7812C6.33247 11.7843 6.33172 11.7874 6.33085 11.7907C6.33009 11.7938 6.32922 11.7968 6.32847 11.8V11.8008C6.32772 11.804 6.32696 11.807 6.32609 11.8101C6.32609 11.8101 6.32609 11.8101 6.32609 11.8109L6.32371 11.82C6.32371 11.8204 6.32371 11.8206 6.32371 11.821L6.32258 11.8255L6.32158 11.8295C6.32158 11.8295 6.32158 11.8304 6.32158 11.8307L6.32045 11.835V11.8358C6.32045 11.8369 6.31983 11.8382 6.31945 11.8393C6.31907 11.8404 6.31945 11.8402 6.31945 11.8408L6.31832 11.8449C6.31832 11.8449 6.31832 11.8449 6.31832 11.8462C6.31807 11.8472 6.31782 11.8483 6.31745 11.8493V11.8509L6.31644 11.855C6.31644 11.855 6.31644 11.8557 6.31644 11.8563L6.31569 11.8593V11.861C6.31569 11.8622 6.31569 11.8636 6.31482 11.865C6.31482 11.8655 6.31482 11.8658 6.31482 11.8663L6.31406 11.8694C6.31406 11.87 6.31406 11.8705 6.31406 11.8711C6.31406 11.8724 6.31344 11.8736 6.31319 11.8749V11.8767C6.31319 11.8776 6.31319 11.8784 6.31319 11.8792C6.31319 11.8801 6.31319 11.8802 6.31319 11.8811C6.31319 11.882 6.31256 11.8836 6.31219 11.8849V11.8869C6.31219 11.8876 6.31219 11.8885 6.31219 11.8893V11.8911L6.31131 11.8949C6.31131 11.8955 6.31131 11.8963 6.31131 11.8969C6.31131 11.8977 6.31131 11.8984 6.31068 11.8992V11.9018L6.30993 11.9049C6.30993 11.9057 6.30993 11.9063 6.30993 11.907V11.9093C6.30968 11.9103 6.30943 11.9113 6.30918 11.9123C6.30918 11.9132 6.30918 11.9141 6.30918 11.9148C6.30918 11.9156 6.30918 11.9164 6.30855 11.9173V11.9191C6.30855 11.9204 6.30855 11.9218 6.30755 11.9232V11.9248C6.3073 11.9257 6.30705 11.9265 6.30693 11.9273V11.929C6.30693 11.9303 6.30618 11.9318 6.30592 11.9332V11.9348C6.30567 11.9357 6.30542 11.9366 6.3053 11.9375V11.9389C6.3053 11.9406 6.30455 11.9419 6.30417 11.9436C6.30417 11.944 6.30417 11.9445 6.30417 11.9449C6.30417 11.9457 6.30417 11.9466 6.30417 11.9475V11.949C6.30417 11.9506 6.30342 11.9521 6.30304 11.9539V11.9549C6.30304 11.956 6.30304 11.9566 6.30229 11.9578C6.30229 11.9595 6.30129 11.9619 6.30092 11.9635L6.30016 11.9667L6.29866 11.9727V11.9733C6.29791 11.9767 6.29716 11.9797 6.29641 11.9829C6.29503 11.9888 6.29378 11.9943 6.2924 12.0001L6.93547 12.1485C7.02726 11.7518 7.14861 11.3624 7.29864 10.9838L6.685 10.7408L6.6711 10.7441ZM6.07925 13.3069C6.07011 13.4256 6.06335 13.5451 6.05872 13.6652C6.05872 13.6688 6.05872 13.6719 6.05872 13.6756C6.05872 13.6791 6.05872 13.6821 6.05872 13.6857V13.6959C6.05872 13.6982 6.05872 13.6999 6.05872 13.7023C6.05884 13.7034 6.05884 13.7044 6.05872 13.7055V13.7064C6.05872 13.7081 6.05872 13.7101 6.05872 13.7119V13.7163C6.05872 13.7163 6.05872 13.7163 6.05872 13.717C6.05872 13.7178 6.05872 13.7209 6.05872 13.7227V13.7239C6.05872 13.7249 6.05872 13.7258 6.05872 13.7268V13.7283C6.05872 13.7301 6.05872 13.7314 6.05872 13.7332V13.7347C6.05872 13.7357 6.05872 13.7366 6.05872 13.7376V13.7391C6.05872 13.7408 6.05872 13.7421 6.05872 13.7438V13.7456C6.05872 13.7465 6.05872 13.7473 6.05872 13.7482C6.05872 13.7491 6.05872 13.75 6.05872 13.7508V13.7634C6.05872 13.7641 6.05872 13.765 6.05872 13.7657V13.7681C6.05872 13.7689 6.05872 13.7695 6.05872 13.7703V13.7743C6.05872 13.7751 6.05872 13.7755 6.05872 13.7764V13.7789C6.05872 13.7798 6.05872 13.781 6.05872 13.7819V13.785C6.05872 13.7858 6.05872 13.7865 6.05872 13.7873V13.7898C6.05872 13.7907 6.05872 13.7919 6.05872 13.7928V13.7958C6.05872 13.7958 6.05872 13.7974 6.05872 13.7979V13.8007C6.05872 13.8019 6.05872 13.8027 6.05872 13.8038V13.8066C6.05872 13.8072 6.05872 13.8082 6.05872 13.8088V13.8117C6.05884 13.8127 6.05884 13.8136 6.05872 13.8146V13.8195C6.05872 13.8206 6.05872 13.8219 6.05872 13.823V13.8304C6.05872 13.8317 6.05872 13.8331 6.05872 13.8345V13.8393C6.05872 13.8393 6.05872 13.8404 6.05872 13.841V13.8519C6.05872 13.8533 6.05872 13.8547 6.05872 13.8562V13.8627C6.05872 13.8641 6.05872 13.8654 6.05872 13.8669V13.9283C6.05872 13.9296 6.05872 13.9309 6.05872 13.9322V13.9447C6.05872 13.9463 6.05872 13.9478 6.05872 13.9495V13.9832C6.05872 13.9847 6.05872 13.9862 6.05872 13.9878V13.9989V14.0092C6.05872 14.0107 6.05872 14.0122 6.05872 14.0136V14.0485C6.05872 14.05 6.05872 14.0515 6.05872 14.053V14.0629V14.0674C6.05872 14.0674 6.05872 14.0682 6.05872 14.0686V14.1136C6.05872 14.1169 6.05872 14.12 6.05872 14.1233C6.05872 14.128 6.05872 14.1328 6.05872 14.1377C6.05872 14.1409 6.05872 14.1441 6.05872 14.1473C6.06047 14.2554 6.06423 14.363 6.06986 14.4701C6.06986 14.4717 6.06986 14.4732 6.06986 14.4748C6.06986 14.4779 6.06986 14.4811 6.06986 14.4842V14.485C6.06986 14.4863 6.06986 14.4876 6.06986 14.489V14.4935V14.4945C6.06986 14.4956 6.06986 14.4967 6.06986 14.4979V14.4992C6.06986 14.5004 6.06986 14.5016 6.06986 14.5027V14.5076C6.06986 14.5083 6.06986 14.5088 6.06986 14.5094V14.512C6.06986 14.512 6.06986 14.5133 6.06986 14.5139C6.06999 14.5149 6.06999 14.5158 6.06986 14.5168C6.06986 14.5179 6.06986 14.5188 6.06986 14.52V14.5243C6.06986 14.5247 6.06986 14.5252 6.06986 14.5255C6.06986 14.5288 6.06986 14.5318 6.06986 14.5349C6.07161 14.565 6.07362 14.5944 6.07562 14.6243L6.73409 14.5783C6.72069 14.3867 6.71393 14.1915 6.71393 13.9984C6.71393 13.7845 6.7222 13.5685 6.73898 13.3564L6.08088 13.3053L6.07925 13.3069ZM6.90817 15.7876L6.26397 15.931C6.32421 16.202 6.39684 16.4681 6.48163 16.7292C6.48263 16.7325 6.48375 16.7356 6.48476 16.7389L6.48789 16.7484C6.48901 16.7515 6.49002 16.7548 6.49102 16.7579C6.49102 16.7596 6.49215 16.7612 6.49265 16.7627L6.49415 16.7672C6.49415 16.7687 6.49515 16.7703 6.49578 16.7718L6.49728 16.7763L6.49878 16.781L6.50029 16.7852L6.50179 16.7896V16.7904C6.50179 16.7917 6.50267 16.7931 6.50317 16.7945L6.50454 16.7989V16.8L6.5058 16.8035C6.5058 16.8038 6.5058 16.8041 6.5058 16.8044L6.50717 16.8085C6.50717 16.8089 6.50717 16.8094 6.50717 16.8098L6.50843 16.8133C6.50843 16.8135 6.50843 16.8139 6.50843 16.8142L6.5098 16.8182V16.8195C6.5098 16.8207 6.51068 16.8218 6.51106 16.8229C6.51106 16.8233 6.51106 16.8237 6.51106 16.8241L6.51231 16.8279C6.51231 16.8284 6.51231 16.8288 6.51231 16.8293C6.51231 16.8304 6.51306 16.8317 6.51356 16.8329C6.51356 16.8332 6.51356 16.8334 6.51356 16.8337C6.51356 16.8349 6.51444 16.8362 6.51481 16.8376C6.51481 16.8381 6.51481 16.8385 6.51481 16.839L6.51594 16.8422V16.8442L6.51694 16.8471C6.51694 16.8471 6.51694 16.8483 6.51757 16.8488L6.51857 16.8519L6.51932 16.8541C6.51932 16.855 6.51995 16.8559 6.5202 16.8567C6.52045 16.8572 6.5207 16.8579 6.52082 16.8585L6.52183 16.8614L6.5227 16.8641L6.52345 16.8663C6.5237 16.867 6.52395 16.8676 6.5242 16.8684C6.52446 16.8691 6.52471 16.87 6.52508 16.8708C6.52508 16.8721 6.52571 16.8726 6.52608 16.874C6.52633 16.8745 6.52658 16.8751 6.52671 16.8758C6.52709 16.8765 6.52734 16.8774 6.52759 16.8782C6.52771 16.8787 6.52796 16.8793 6.52821 16.8798C6.52821 16.8812 6.52909 16.8824 6.52946 16.8837C6.52972 16.8843 6.52997 16.8849 6.53009 16.8855C6.53034 16.8863 6.53059 16.887 6.53097 16.8878C6.53097 16.8883 6.53097 16.8889 6.53097 16.8894C6.53097 16.8908 6.53197 16.8922 6.53235 16.8936C6.53235 16.8941 6.53235 16.8946 6.53235 16.8951C6.53272 16.8958 6.53297 16.8967 6.53322 16.8974V16.8984L6.53485 16.9033C6.53497 16.9037 6.53497 16.9042 6.53485 16.9046C6.53573 16.9072 6.53685 16.9103 6.53786 16.9131V16.914C6.53886 16.9167 6.53998 16.92 6.54086 16.9227V16.9237C6.54186 16.9266 6.54299 16.9295 6.54399 16.9325V16.9331C6.54499 16.9363 6.546 16.9389 6.54712 16.9421L6.55389 16.9611C6.58119 17.0378 6.60936 17.1137 6.63867 17.1895L7.25419 16.9515C7.10729 16.5718 6.98894 16.1817 6.9004 15.7844L6.90817 15.7876ZM7.78655 18.0562L7.21361 18.3841C7.22613 18.4051 7.23765 18.4259 7.2498 18.4467L7.25494 18.4553C7.25644 18.4581 7.25807 18.4608 7.2597 18.4635C7.2597 18.4637 7.2597 18.4641 7.2597 18.4643L7.26195 18.4684L7.2642 18.4721V18.4732L7.26633 18.477V18.4779L7.26821 18.4809L7.26884 18.4821L7.27097 18.4856L7.27172 18.487L7.27335 18.4896L7.2741 18.491L7.27623 18.4944C7.27648 18.4949 7.27673 18.4954 7.2771 18.4959L7.27848 18.4983L7.27973 18.5004L7.28124 18.503L7.28236 18.5049L7.28349 18.5069L7.28537 18.5099L7.28637 18.5117L7.28762 18.5138L7.28862 18.5154L7.29075 18.5189L7.2915 18.5203L7.29288 18.5227L7.29576 18.5275V18.5283L7.3004 18.5361C7.3004 18.5364 7.3004 18.5367 7.3004 18.537L7.30515 18.545C7.42763 18.749 7.55787 18.9472 7.69588 19.14L7.70164 19.148L7.70728 19.156L7.71053 19.1606L7.71229 19.163L7.71542 19.1674V19.1683C7.71617 19.1693 7.71642 19.1698 7.71717 19.1707L7.7178 19.1715L7.72068 19.1755L7.72143 19.1765L7.72644 19.1836L7.72744 19.1849L7.72969 19.1881C7.73019 19.1886 7.73057 19.1891 7.73095 19.1897L7.73232 19.1916L7.73358 19.1933L7.73545 19.196L7.73696 19.1981L7.73821 19.1997L7.73996 19.2021C7.74046 19.2026 7.74084 19.2032 7.74121 19.2038L7.74309 19.2063C7.74334 19.2069 7.74372 19.2074 7.74422 19.2079L7.7461 19.2105L7.74748 19.2124C7.74748 19.2131 7.7486 19.2139 7.7491 19.2147L7.75011 19.216L7.75249 19.2192L7.75336 19.2204C7.75399 19.2214 7.75474 19.2223 7.75537 19.2231V19.2241L7.758 19.2276V19.2285L7.76038 19.2316L7.76313 19.2353V19.236L7.76877 19.2437L7.77465 19.2516L7.78066 19.2598C7.83389 19.3315 7.88824 19.4025 7.94347 19.4727L8.46143 19.0636C8.20896 18.7437 7.98066 18.4057 7.77828 18.0521L7.78655 18.0562ZM9.29535 19.9673L8.84351 20.4484C8.88233 20.4848 8.92153 20.5209 8.96098 20.5566L8.96849 20.5634L8.97576 20.5701L8.97939 20.5734L8.9829 20.5765L8.9864 20.5796L8.98991 20.5828L8.99329 20.5858H8.99404L9.00093 20.5919L9.00168 20.5927L9.00519 20.5958L9.00857 20.5988L9.00932 20.5996L9.0127 20.6026L9.01571 20.6052L9.01646 20.6059L9.01971 20.6088L9.02059 20.6096L9.02335 20.6121L9.0241 20.6127L9.02748 20.6156L9.02823 20.6163L9.03123 20.6191L9.03449 20.622L9.03537 20.6229L9.0385 20.6255L9.03938 20.6264L9.04213 20.6287L9.04313 20.6296L9.04639 20.6325H9.04714L9.04977 20.6349L9.05077 20.6358L9.05378 20.6384L9.05515 20.6395L9.05728 20.6415L9.05854 20.6425L9.06154 20.6451L9.06279 20.6463L9.06517 20.6484L9.06605 20.6492L9.06906 20.6518L9.07056 20.653L9.07269 20.655L9.07457 20.6567L9.07669 20.6585L9.0782 20.6598L9.08108 20.6623L9.08233 20.6634L9.08433 20.6652L9.08584 20.6664L9.08859 20.6689L9.09022 20.6702L9.0921 20.6718L9.09348 20.6732L9.09636 20.6756L9.09786 20.677L9.09974 20.6786L9.10174 20.6803L9.10399 20.6822L9.1055 20.6835L9.10763 20.6853L9.10976 20.6872L9.11163 20.6889L9.11326 20.6902L9.11539 20.6921L9.11765 20.6941C9.11827 20.6945 9.11877 20.695 9.11927 20.6955L9.1209 20.6969L9.12366 20.6992L9.12528 20.7006L9.12704 20.7021L9.12867 20.7036L9.1313 20.7059L9.13317 20.7074L9.13455 20.7086L9.13743 20.711L9.13894 20.7124L9.14081 20.714L9.14232 20.7153L9.14532 20.7178L9.1467 20.719L9.14858 20.7207L9.14983 20.7217L9.15321 20.7245L9.15434 20.7255L9.15622 20.7272L9.15772 20.7284L9.16073 20.7311L9.1621 20.7322L9.16511 20.7347L9.16661 20.7359L9.16849 20.7377L9.16974 20.7387L9.17312 20.7416L9.17425 20.7425L9.17625 20.7442L9.17738 20.7452L9.18089 20.7482L9.18202 20.7491L9.18402 20.7507L9.18515 20.7517L9.18853 20.7546L9.18965 20.7555L9.19178 20.7574H9.19241L9.19629 20.7607L9.19742 20.7616L9.20418 20.7672L9.20493 20.768L9.21195 20.7738H9.21257L9.21683 20.7774L9.21921 20.7793L9.22347 20.7829H9.22409L9.22635 20.7848L9.23048 20.7883C9.23073 20.7883 9.23111 20.7883 9.23136 20.7883L9.23837 20.7942L9.24538 20.7999L9.24626 20.8008L9.25014 20.8039L9.25089 20.8046L9.25315 20.8064H9.2539L9.25791 20.8098H9.25866L9.26091 20.8117L9.26504 20.8152L9.26605 20.816L9.27306 20.8217L9.2802 20.8276H9.28095L9.28533 20.8312L9.28771 20.8332L9.29235 20.837L9.29485 20.839L9.29973 20.843L9.30712 20.849L9.31439 20.8549C9.31689 20.857 9.31914 20.8589 9.32177 20.8609L9.3343 20.8712L9.34181 20.8773L9.3492 20.8833L9.35671 20.8892L9.36924 20.8995L9.37688 20.9055L9.38427 20.9114L9.39165 20.9173L9.40418 20.9273L9.41169 20.9333L9.4192 20.9393L9.42659 20.9452L9.43411 20.9511L9.43912 20.955L9.44676 20.961L9.4544 20.9669L9.46191 20.9726L9.46667 20.9764L9.46917 20.9784L9.47381 20.9819L9.47631 20.9838L9.4812 20.9875L9.48858 20.9932L9.49585 20.9987L9.49672 20.9994L9.50111 21.0027L9.50349 21.0044L9.50449 21.0052L9.5085 21.0083H9.50925L9.51163 21.0102L9.51626 21.0138L9.52352 21.0193H9.5244L9.53154 21.0249H9.53229L9.5368 21.0284L9.53905 21.0301L9.54005 21.0309L9.54381 21.0337L9.54494 21.0346L9.54707 21.0362H9.54794L9.55195 21.0393L9.55295 21.04L9.55508 21.0416L9.55596 21.0424L9.55997 21.0453L9.56109 21.0461L9.56798 21.0514L9.56911 21.0523L9.57274 21.055L9.57399 21.0558L9.576 21.0574L9.57737 21.0584L9.58088 21.061L9.58201 21.0619L9.58414 21.0635L9.58551 21.0646L9.58864 21.0669L9.59027 21.0681L9.59215 21.0696L9.5939 21.0708L9.59691 21.0731L9.59841 21.0741L9.60054 21.0757L9.60305 21.0777L9.60505 21.0791L9.60655 21.0802L9.60943 21.0823L9.61119 21.0837L9.61332 21.0852L9.61457 21.0862L9.61795 21.0887L9.61945 21.0897L9.62133 21.0912L9.62296 21.0925L9.62584 21.0946C9.62646 21.095 9.62709 21.0954 9.62759 21.0959L9.62947 21.0971L9.6316 21.0987L9.6341 21.1006L9.63586 21.1019L9.63761 21.1032L9.64062 21.1054L9.64224 21.1066L9.64412 21.108L9.64575 21.1093L9.64863 21.1114L9.65051 21.1126L9.65239 21.1141L9.65464 21.1156C9.65539 21.1163 9.65615 21.1169 9.65702 21.1174L9.65865 21.1186L9.66103 21.1204L9.66291 21.1218L9.66516 21.1234L9.66679 21.1247L9.66992 21.1269L9.67105 21.1278L9.67368 21.1297L9.67493 21.1305L9.67819 21.1329L9.67956 21.1339L9.68182 21.1356L9.6832 21.1366L9.68633 21.1389L9.68783 21.1399L9.69021 21.1417L9.69146 21.1426L9.69472 21.1449L9.69597 21.1458L9.6986 21.1478L9.70035 21.149L9.70298 21.1508L9.70423 21.1518L9.70762 21.1542L9.70862 21.155L9.71137 21.157L9.7125 21.1578L9.71588 21.1602L9.71701 21.1611L9.71976 21.163L9.72077 21.1637L9.72415 21.1662L9.72527 21.167L9.72828 21.1691H9.72903C9.73016 21.17 9.73128 21.1709 9.73254 21.1716L9.73366 21.1725L9.73717 21.175L9.74093 21.1776L9.74193 21.1784L9.74556 21.181L9.74907 21.1834H9.74994L9.75358 21.186L9.75721 21.1885L9.76109 21.1913L9.76472 21.1939L9.7686 21.1967L9.77637 21.2022L9.78038 21.2049L9.78413 21.2077H9.78476L9.78864 21.2104L9.79252 21.2132L9.79653 21.216L9.80455 21.2216L9.81256 21.2271L9.8207 21.2329L9.84575 21.2505L10.2214 20.7079C9.88645 20.4758 9.56911 20.2192 9.27193 19.9403L9.29535 19.9673ZM11.2973 21.3521L11.0069 21.9452C11.0675 21.9749 11.1286 22.0042 11.1901 22.0328L11.199 22.0369L11.2073 22.0407H11.2085L11.2165 22.0445H11.2178L11.2219 22.0464H11.2233L11.2257 22.0475H11.2271L11.2309 22.0493L11.2327 22.05L11.2348 22.051L11.2366 22.0519L11.24 22.0534L11.242 22.0543L11.244 22.0551L11.2462 22.0563L11.2489 22.0574L11.2515 22.0585L11.2531 22.0593L11.2566 22.0609H11.2577L11.2609 22.0624H11.2623L11.266 22.064L11.2673 22.0647L11.2701 22.0659H11.2716L11.2754 22.0677H11.2764L11.2798 22.069H11.2807L11.2847 22.0708H11.2858L11.2891 22.0723H11.2901L11.2942 22.0742H11.2951L11.2987 22.0758L11.3028 22.0777H11.3037L11.3077 22.0794L11.3121 22.0814L11.3209 22.0853L11.3298 22.0892L11.3388 22.0932C11.6289 22.2207 11.9257 22.3323 12.2279 22.4277L12.4267 21.7984C12.0397 21.6779 11.6621 21.5288 11.2973 21.3521ZM13.617 22.0846L13.5147 22.7365H13.5156H13.5167L13.5214 22.7373H13.5232H13.5258H13.5272H13.5317H13.5333H13.536H13.5376H13.5419H13.5436H13.5461H13.5477L13.5523 22.738H13.5536H13.5564H13.5578L13.5628 22.7388H13.5639H13.5667H13.5679L13.5769 22.74H13.5781L13.5872 22.7414H13.5881L13.5976 22.7428H13.5983L13.6079 22.7442H13.6111L13.6176 22.745H13.6209L13.631 22.7465L13.6618 22.7509C14.0482 22.8048 14.4376 22.8332 14.8277 22.8361L14.8326 22.176C14.425 22.173 14.0182 22.1399 13.6155 22.0769L13.617 22.0846ZM17.2447 21.8424C16.8545 21.9588 16.4561 22.046 16.053 22.103L16.1454 22.7564C16.1873 22.7506 16.2295 22.7439 16.2707 22.7378L16.2807 22.7362L16.2907 22.7345L16.2972 22.7335H16.3004H16.3011L16.3106 22.732H16.3114L16.3176 22.731H16.3206H16.3216L16.3277 22.73H16.3307H16.3317L16.3369 22.7291H16.3381H16.3408H16.3422L16.3471 22.7283H16.3483H16.351H16.3527H16.3567H16.3587H16.3611H16.3631H16.3667H16.3689H16.3714H16.3734H16.3769H16.3793H16.3815H16.3836H16.3871H16.3894H16.3918H16.3939H16.397H16.3998H16.4019H16.4044H16.4062L16.4101 22.7275H16.4121H16.4147H16.4166H16.4203H16.4222H16.4251H16.4266L16.4306 22.7268H16.4324H16.4355H16.4367H16.4409H16.4425H16.4458H16.447L16.451 22.726H16.4528H16.456H16.4571L16.4614 22.7253H16.4628H16.4664H16.4673L16.4715 22.7245H16.4731L16.4768 22.7238L16.4813 22.723H16.4824L16.4865 22.7223L16.491 22.7214H16.4921L16.4961 22.7208L16.5006 22.7199H16.5016L16.506 22.719L16.5107 22.7181H16.5116L16.521 22.7164H16.5216L16.5312 22.7146L16.5409 22.7127L16.5506 22.7109L16.5603 22.709L16.5704 22.7071C16.8596 22.6515 17.1459 22.5814 17.4282 22.497L17.2392 21.8647L17.2447 21.8424ZM19.4454 20.8046C19.1069 21.031 18.7522 21.232 18.3839 21.4057L18.6654 22.0027C18.8816 21.9007 19.0928 21.7904 19.2991 21.6717C19.3097 21.6657 19.3202 21.6592 19.3307 21.6534L19.3392 21.6485L19.3475 21.6438C19.3504 21.6421 19.3529 21.6407 19.3557 21.639L19.361 21.6359L19.3638 21.6342C19.3655 21.6334 19.3671 21.6324 19.3688 21.6314H19.3696L19.3721 21.6299L19.3769 21.627H19.3779L19.3856 21.6223H19.3867L19.3944 21.6178H19.3954L19.3997 21.6153H19.4006L19.403 21.6139L19.4041 21.6133L19.4081 21.6109L19.4094 21.6102L19.4115 21.6088L19.4131 21.6079L19.4165 21.6059L19.4181 21.6049L19.4203 21.6037L19.4223 21.6024L19.4252 21.6008L19.4269 21.5997L19.4289 21.5985L19.432 21.5967L19.4337 21.5957L19.4358 21.5944L19.4376 21.5933L19.4407 21.5914L19.4426 21.5904L19.4446 21.5891L19.4463 21.5881L19.4495 21.5861L19.4512 21.5851L19.4535 21.5838L19.4555 21.5826L19.4582 21.5809L19.4598 21.5799L19.4624 21.5784L19.4645 21.5771L19.467 21.5756L19.4685 21.5746L19.4717 21.5727L19.4731 21.5719L19.4759 21.5702L19.4773 21.5694L19.4808 21.5672L19.4818 21.5666L19.4846 21.5649L19.4859 21.5641L19.4894 21.562L19.4905 21.5612L19.4935 21.5595H19.4945L19.4982 21.5573L19.4994 21.5566L19.5024 21.5547H19.5032L19.5068 21.5525L19.5081 21.5517L19.5112 21.5498H19.5122L19.5156 21.5477H19.5167L19.5205 21.5453L19.5238 21.5432H19.5248L19.5286 21.5409H19.5294L19.5325 21.5391L19.5336 21.5383L19.5372 21.5361H19.5381L19.5414 21.534H19.5423L19.546 21.5317H19.5469L19.5503 21.5295L19.554 21.5272H19.5549L19.5628 21.5221H19.5635L19.5675 21.5196L19.5717 21.5171L19.5757 21.5146L19.5796 21.5121L19.5836 21.5095L19.5877 21.5069L19.592 21.5042L19.6004 21.4991L19.6086 21.4938L19.617 21.4885L19.6255 21.4831C19.6863 21.4445 19.7465 21.4052 19.8062 21.3652L19.4389 20.8168L19.4454 20.8046ZM21.2457 19.1648C20.9882 19.4807 20.7078 19.7772 20.4066 20.0517L20.8511 20.5401C21.1765 20.2437 21.4796 19.9234 21.7576 19.5822L21.2458 19.1653L21.2457 19.1648ZM22.4855 17.0704C22.3324 17.4478 22.1515 17.8133 21.944 18.1637L22.5119 18.5C22.5453 18.4436 22.5781 18.3866 22.6103 18.3293C22.6115 18.3273 22.6123 18.3256 22.6135 18.3237L22.615 18.321L22.6175 18.3163L22.6182 18.3152L22.6195 18.3128L22.6203 18.3112L22.6222 18.3078L22.6232 18.3062L22.6243 18.304L22.6257 18.3017L22.6272 18.299C22.6275 18.2984 22.6279 18.2978 22.6282 18.2972C22.6286 18.2964 22.629 18.2958 22.6294 18.2952L22.631 18.2922L22.6321 18.2901C22.6325 18.2895 22.6329 18.2889 22.6331 18.2883L22.6342 18.2864L22.636 18.2831L22.637 18.2814L22.6384 18.279L22.6391 18.2775L22.641 18.274L22.6418 18.2727L22.6435 18.2696V18.2685L22.6454 18.265V18.2638L22.6475 18.26L22.6495 18.2563V18.2553L22.6516 18.2515C22.6523 18.2502 22.6529 18.2491 22.6537 18.2479V18.2471L22.6559 18.2431V18.2424C22.6567 18.2413 22.6573 18.2401 22.658 18.2388L22.6603 18.2347V18.234L22.6624 18.2302L22.6647 18.2259L22.6693 18.2173L22.6741 18.2085C22.7541 18.0607 22.83 17.9104 22.9016 17.7577C22.9031 17.7547 22.9045 17.7515 22.906 17.7485C22.9074 17.7454 22.9088 17.7424 22.9103 17.7394L22.9144 17.7304C22.9158 17.7275 22.917 17.7246 22.9184 17.7216C22.9184 17.7201 22.9198 17.7187 22.9204 17.7172L22.9224 17.713V17.7122L22.9244 17.7081V17.7074L22.9262 17.7037V17.7028L22.928 17.6987V17.6979C22.928 17.6967 22.9292 17.6954 22.9298 17.6942L22.9317 17.6902V17.6892C22.9317 17.6879 22.9327 17.6868 22.9333 17.6855V17.6848L22.9351 17.6808V17.6798L22.9368 17.676V17.6753C22.9373 17.674 22.9378 17.6728 22.9384 17.6716V17.6702C22.9384 17.6691 22.9394 17.6679 22.9401 17.6666V17.6652C22.9404 17.6642 22.9409 17.6632 22.9414 17.6624C22.9416 17.6619 22.9418 17.6614 22.9421 17.6609L22.9437 17.6571V17.656L22.9449 17.653V17.6516L22.9467 17.6478L22.9473 17.6465C22.9478 17.6456 22.9482 17.6446 22.9486 17.6436C22.9486 17.6431 22.9486 17.6427 22.9486 17.6422C22.9486 17.6409 22.9497 17.6398 22.9502 17.6386L22.9511 17.6369L22.9521 17.6344C22.9523 17.6339 22.9526 17.6334 22.9528 17.6328L22.9543 17.6294L22.9553 17.6273C22.9556 17.6267 22.9558 17.626 22.9562 17.6254L22.9575 17.6224L22.9586 17.62L22.9595 17.618L22.9605 17.6159L22.9619 17.6126C22.9619 17.6126 22.9625 17.6115 22.9627 17.6109C22.963 17.6101 22.9634 17.6094 22.9637 17.6086L22.9645 17.6068L22.9661 17.6032L22.9669 17.6015C22.9672 17.6007 22.9676 17.6 22.9679 17.5992C22.9682 17.5986 22.9685 17.598 22.9687 17.5972L22.9704 17.5937C22.9704 17.5932 22.9704 17.5929 22.9704 17.5924L22.9739 17.5843V17.5831L22.9774 17.5748C22.9774 17.5746 22.9774 17.5742 22.9774 17.5739L22.9811 17.5654C23.0162 17.4858 23.0501 17.4055 23.083 17.3245L22.4712 17.0766L22.4855 17.0704ZM23.051 14.7035C23.0163 15.1094 22.9516 15.512 22.8572 15.9082L23.4991 16.0615C23.5317 15.9254 23.5608 15.788 23.5868 15.6496C23.5875 15.6462 23.588 15.6434 23.5886 15.64V15.6392L23.5898 15.6331C23.5898 15.6321 23.5898 15.6311 23.5898 15.6301C23.5898 15.6301 23.5898 15.6295 23.5898 15.6291C23.5898 15.6287 23.5905 15.6251 23.5908 15.6232C23.5908 15.6223 23.5908 15.6213 23.5908 15.6204C23.5908 15.6196 23.5908 15.6194 23.5908 15.6189C23.5908 15.6184 23.5908 15.6157 23.5916 15.6141V15.6129C23.5916 15.6121 23.5916 15.6112 23.5916 15.6103C23.5916 15.6094 23.5916 15.6093 23.5916 15.6088C23.5916 15.6083 23.5916 15.6053 23.5926 15.6035C23.5926 15.6033 23.5926 15.603 23.5926 15.6028C23.5926 15.6019 23.5926 15.6012 23.5926 15.6003C23.5926 15.5997 23.5926 15.599 23.5926 15.5984C23.5926 15.5977 23.5926 15.5968 23.5926 15.596C23.5926 15.5949 23.5926 15.5936 23.5926 15.5925V15.5903V15.5881C23.5926 15.5873 23.5926 15.5869 23.5926 15.586L23.5934 15.5824C23.5934 15.5816 23.5934 15.581 23.5934 15.5802V15.5779C23.5934 15.577 23.5934 15.5767 23.5934 15.5759C23.5934 15.575 23.5934 15.5734 23.5934 15.5721V15.5703C23.5934 15.5693 23.5934 15.5685 23.5934 15.5675V15.566L23.5941 15.562C23.5941 15.5613 23.5941 15.5607 23.5941 15.5602C23.5941 15.5597 23.5941 15.5583 23.5941 15.5575V15.5557C23.5941 15.5543 23.5941 15.5529 23.5941 15.5517V15.5503C23.5941 15.5493 23.5941 15.5482 23.5941 15.5472C23.594 15.5467 23.594 15.5462 23.5941 15.5457L23.5949 15.5414V15.5403C23.5949 15.5392 23.5949 15.5379 23.5949 15.5368V15.5355L23.5957 15.5311C23.5957 15.5298 23.5957 15.5285 23.5957 15.5273C23.5957 15.5269 23.5957 15.5265 23.5957 15.5261L23.5964 15.5216L23.5972 15.5173V15.5162C23.5972 15.5132 23.5982 15.5101 23.5988 15.507V15.5061C23.5988 15.503 23.5998 15.4998 23.6004 15.4967V15.4961C23.6004 15.4928 23.6014 15.4897 23.602 15.4864C23.602 15.4832 23.6032 15.4799 23.6037 15.4767C23.6037 15.4733 23.6048 15.47 23.6053 15.4668C23.6417 15.2484 23.67 15.0273 23.6902 14.8038C23.6902 14.802 23.6902 14.8004 23.6902 14.7987C23.6902 14.7969 23.6902 14.7952 23.6902 14.7935V14.7886V14.7838V14.7795C23.6902 14.7793 23.6902 14.7789 23.6902 14.7786V14.774V14.7732V14.7692C23.6903 14.7689 23.6903 14.7685 23.6902 14.7681V14.7637L23.0326 14.7077L23.051 14.7035ZM23.5442 12.135L22.8989 12.2735C22.9841 12.6718 23.0396 13.076 23.065 13.4826L23.7238 13.4415C23.7181 13.3511 23.7111 13.2611 23.7029 13.1714C23.7029 13.168 23.7029 13.1645 23.7018 13.1611C23.7018 13.1577 23.7018 13.1544 23.7008 13.151V13.1463V13.1415V13.1371V13.1365V13.1317V13.1309V13.1269V13.1243C23.7008 13.1228 23.7008 13.1213 23.7008 13.1197V13.1189V13.115C23.7007 13.1147 23.7007 13.1142 23.7008 13.1138C23.7008 13.1124 23.7008 13.1109 23.7008 13.1094C23.7008 13.109 23.7008 13.1088 23.7008 13.1084C23.7008 13.1072 23.7008 13.106 23.7008 13.1048V13.1035V13.099V13.095C23.7008 13.095 23.7008 13.094 23.7008 13.0938V13.0895V13.0884V13.0849C23.7008 13.0849 23.7008 13.0839 23.7008 13.0832C23.7008 13.0826 23.7008 13.0809 23.7008 13.0796C23.7007 13.079 23.7007 13.0785 23.7008 13.0778V13.0746C23.7008 13.0746 23.7008 13.0733 23.7008 13.0727V13.0697C23.7008 13.069 23.7008 13.0682 23.7008 13.0675V13.0643C23.7008 13.0637 23.7008 13.0629 23.7008 13.0623V13.0597C23.7008 13.0588 23.7008 13.0579 23.7008 13.0571V13.0539C23.7008 13.0533 23.7008 13.0525 23.7008 13.0519C23.7008 13.051 23.7008 13.0503 23.7008 13.0494V13.0468V13.0435C23.7008 13.0429 23.7008 13.0423 23.7008 13.0417V13.039C23.7008 13.0381 23.7008 13.0375 23.7008 13.0368V13.0334C23.7008 13.0326 23.7008 13.0318 23.7008 13.031C23.7008 13.031 23.7008 13.0298 23.7008 13.029V13.0255C23.7008 13.0247 23.7008 13.0239 23.7008 13.0231V13.0206C23.7008 13.0206 23.7008 13.0194 23.7008 13.0187V13.0159V13.0127V13.0102V13.0085V13.0051C23.7008 13.0042 23.7008 13.0032 23.7008 13.0023C23.7007 13.0015 23.7007 13.0007 23.7008 12.9998V12.9981C23.7008 12.9972 23.7008 12.9963 23.7008 12.9956C23.7008 12.9948 23.7008 12.9944 23.7008 12.9939V12.9894C23.7008 12.9894 23.7008 12.9883 23.7008 12.9878V12.9852C23.7008 12.9848 23.7008 12.9843 23.7008 12.9839C23.7008 12.9822 23.7008 12.9808 23.7008 12.979C23.7008 12.9773 23.7008 12.978 23.7008 12.9775C23.7008 12.9765 23.7008 12.9757 23.7008 12.9747C23.7008 12.973 23.7008 12.9706 23.7002 12.9689C23.6996 12.9671 23.7002 12.9689 23.7002 12.968V12.9649L23.6995 12.959C23.6996 12.9586 23.6996 12.9584 23.6995 12.958C23.6995 12.9567 23.6995 12.956 23.6995 12.9549C23.6995 12.9525 23.6995 12.9506 23.6987 12.9482V12.945L23.698 12.9386V12.9353C23.698 12.933 23.698 12.9311 23.6972 12.9288V12.9254C23.6972 12.9219 23.6965 12.9189 23.696 12.9154C23.696 12.912 23.6952 12.9088 23.6947 12.9054C23.6947 12.9019 23.6938 12.8988 23.6935 12.8953C23.6935 12.8917 23.6926 12.8886 23.6922 12.8851C23.6922 12.8817 23.6915 12.8786 23.691 12.8751C23.691 12.8716 23.6901 12.8683 23.6896 12.865C23.6581 12.6201 23.6167 12.3784 23.5655 12.1401L23.5442 12.135ZM22.6133 9.67503L22.0373 9.99825C22.2366 10.3534 22.4091 10.7228 22.5533 11.1037L23.1707 10.87C23.1565 10.8324 23.1418 10.7949 23.1272 10.7573L23.1249 10.7515L23.1238 10.7485C23.1238 10.7466 23.1223 10.7448 23.1216 10.7429V10.742L23.1205 10.7393V10.7386L23.1185 10.7337V10.7322C23.1181 10.7315 23.1178 10.7307 23.1175 10.7299V10.7289L23.1156 10.7242V10.7227C23.1156 10.722 23.1156 10.7212 23.1148 10.7203C23.1139 10.7195 23.1141 10.7187 23.1138 10.7178L23.1125 10.7148V10.7131C23.1125 10.7121 23.1125 10.7116 23.1114 10.7105L23.1103 10.7076L23.1095 10.7056L23.1085 10.7033L23.1076 10.7009C23.1076 10.6999 23.1067 10.6989 23.1064 10.6981C23.1061 10.6974 23.1059 10.6967 23.1056 10.696L23.1046 10.6935L23.1037 10.6913C23.1037 10.6903 23.1029 10.6894 23.1025 10.6884C23.1021 10.6874 23.1025 10.6872 23.1019 10.6867L23.1004 10.683V10.682L23.099 10.6788V10.6773L23.0975 10.6734V10.6725L23.096 10.669C23.096 10.6686 23.096 10.6682 23.096 10.6679L23.0942 10.6637C23.0942 10.6637 23.0942 10.6637 23.0942 10.6631L23.0927 10.6592V10.6585C23.0927 10.6571 23.0916 10.6556 23.091 10.6542V10.6535L23.0893 10.6496V10.649C23.0893 10.6476 23.0882 10.6461 23.0876 10.6446L23.0858 10.6402L23.084 10.6357L23.0802 10.6265C23.0788 10.6234 23.0776 10.6203 23.0763 10.6173C22.9428 10.2954 22.7903 9.98185 22.6196 9.67803L22.6133 9.67503ZM20.9991 7.59817L20.5436 8.07581C20.8385 8.35721 21.1122 8.65989 21.3625 8.98162L21.8835 8.57649C21.761 8.41895 21.6334 8.26579 21.5006 8.11688L21.494 8.10937L21.4875 8.10223V8.10161L21.4812 8.09459V8.09397L21.4763 8.08996C21.4755 8.08883 21.4745 8.08783 21.4736 8.08683L21.4728 8.08608C21.4718 8.08495 21.471 8.08382 21.47 8.08282L21.4692 8.08194L21.4667 8.07919V8.07844L21.4638 8.07531L21.4629 8.07431L21.4606 8.07168L21.4597 8.07067L21.4569 8.06779L21.4559 8.06654L21.4534 8.06379L21.4524 8.06278L21.4502 8.06015L21.449 8.05903L21.4465 8.05615L21.4453 8.05489L21.4433 8.05264L21.4422 8.05139L21.4396 8.04863L21.4383 8.04713L21.4365 8.04525L21.4353 8.04387L21.4329 8.04124L21.4313 8.03949L21.4299 8.03786L21.4276 8.03548L21.426 8.03361L21.4244 8.03198L21.4231 8.03047C21.4221 8.02947 21.4212 8.02847 21.4204 8.02747L21.4192 8.02634C21.4187 8.02572 21.4181 8.02509 21.4175 8.02446L21.4165 8.02334L21.4135 8.01995L21.4125 8.01895L21.4065 8.01244L21.4057 8.01156L21.3996 8.00493V8.0043L21.3954 7.99992L21.3933 7.99754L21.3892 7.99303L21.3827 7.98602L21.376 7.97888C21.2549 7.84864 21.1301 7.72215 21.0012 7.59942L20.9991 7.59817ZM18.8475 6.08499L18.5523 6.67483C18.9166 6.8573 19.2667 7.06656 19.6 7.30099L19.9797 6.76112C19.8005 6.63501 19.6164 6.51554 19.4274 6.40245L19.4188 6.39732L19.41 6.39218L19.3791 6.3739L19.3702 6.36864L19.3615 6.3635L19.3572 6.361L19.3394 6.35073L19.3306 6.3456L19.3218 6.34046L19.2908 6.32255L19.282 6.31754L19.2733 6.31253L19.2644 6.3074L19.251 6.29976L19.2422 6.29475L19.2333 6.28987L19.2244 6.28486L19.2156 6.27997L19.2022 6.27246L19.1934 6.26745L19.1846 6.26257L19.1758 6.25768L19.1671 6.25292L19.1582 6.24804L19.1538 6.24566L19.1453 6.24103L19.1367 6.23639L19.1281 6.23163L19.1191 6.22675L19.1102 6.22187L19.1058 6.21949L19.097 6.21473L19.0883 6.21009L19.0796 6.20546L19.0753 6.20308L19.071 6.2007L19.0666 6.19845L19.0626 6.19632L19.0585 6.19406H19.0577L19.0537 6.19181L19.0495 6.18956H19.0487L19.0406 6.18517H19.0396L19.0313 6.18079H19.0306L19.0264 6.17854L19.0225 6.17653H19.0217L19.0177 6.17453H19.0168L19.0134 6.17277H19.0125L19.0086 6.17077L19.0076 6.17015L19.0044 6.16852H19.0035L18.9996 6.16651L18.9984 6.16589L18.9951 6.16413H18.9941L18.9906 6.16226L18.9894 6.16163L18.9855 6.15963H18.9847L18.9813 6.15787L18.9717 6.14886L18.9678 6.14685H18.9668L18.9637 6.14522L18.9624 6.1446L18.9588 6.14272L18.9574 6.14209L18.9545 6.14059L18.9534 6.13996L18.9497 6.13796L18.9484 6.13733L18.9454 6.13583L18.9443 6.13521L18.9406 6.13333L18.939 6.13258L18.9363 6.13107L18.9346 6.13032L18.9316 6.12869L18.93 6.12782L18.9269 6.12631L18.9252 6.12544L18.9225 6.12406L18.9207 6.12318L18.9173 6.12143L18.9157 6.12055L18.9135 6.11943L18.9116 6.11855L18.9083 6.1168L18.9064 6.11579L18.9044 6.11479L18.9022 6.11367L18.8992 6.11216L18.8973 6.11116L18.8953 6.11016L18.8923 6.10866L18.8902 6.10753L18.888 6.10653L18.8865 6.10565L18.8824 6.10365L18.8813 6.10302L18.8788 6.10177H18.8776L18.8734 6.09964L18.8723 6.09901L18.8696 6.09776L18.8645 6.09513H18.8636L18.8552 6.09087L18.8483 6.08749L18.8475 6.08499ZM16.3456 5.27386L16.2382 5.92507C16.64 5.99131 17.0361 6.08762 17.4234 6.2131L17.6271 5.58531C17.542 5.55776 17.4569 5.53158 17.3707 5.50654L17.3615 5.50391H17.3607L17.3519 5.50128H17.3506L17.3463 5.50015H17.3447L17.3423 5.4994H17.3405L17.3373 5.49852L17.3348 5.49777L17.3325 5.49715L17.3305 5.49652L17.3276 5.49577L17.3248 5.49489H17.3229L17.3203 5.49414H17.3186L17.3149 5.49301H17.3131L17.3104 5.49226H17.3089L17.3048 5.49113H17.3035L17.3002 5.49026H17.2991L17.295 5.48913H17.2937L17.2899 5.48813H17.2893L17.2849 5.48688H17.2839L17.2798 5.48575L17.2753 5.4845H17.2743L17.2699 5.48337L17.2651 5.48199L17.2556 5.47936L17.246 5.47673L17.2362 5.47398C16.9434 5.39395 16.6466 5.32921 16.3471 5.27987L16.3456 5.27386Z" fill="#231C1C"/>
<path d="M14.8881 4.05874C20.3607 4.06625 24.7909 8.50875 24.7834 13.9813C24.7759 19.4538 20.3334 23.884 14.8608 23.8765C9.38829 23.869 4.95806 19.4265 4.96558 13.954C4.97109 9.97647 7.35439 6.38769 11.0184 4.83981C12.2426 4.32172 13.5588 4.05611 14.8881 4.05874ZM14.8881 3.89355C9.30651 3.89355 4.78186 8.41833 4.78186 13.9998C4.78186 19.5813 9.30664 24.1061 14.8881 24.1061C20.4696 24.1061 24.9944 19.5813 24.9944 13.9998C24.9944 8.41833 20.4696 3.89355 14.8881 3.89355Z" fill="#F7FAF6"/>
<path d="M14.8882 4.66701C20.0264 4.67377 24.1863 8.84477 24.1794 13.9831C24.1725 19.1213 20.0016 23.2812 14.8634 23.2743C9.72507 23.2674 5.56522 19.0965 5.57211 13.9583C5.57712 10.2234 7.8149 6.85369 11.2553 5.40037C12.4045 4.91397 13.6402 4.6645 14.8882 4.66701ZM14.8882 4.50195C9.64192 4.50195 5.38977 8.75397 5.38977 14.0002C5.38977 19.2465 9.64192 23.4986 14.8882 23.4986C20.1344 23.4986 24.3865 19.2461 24.3865 14.0002C24.3865 8.75435 20.134 4.50195 14.8882 4.50195Z" fill="#F7FAF6"/>
<path d="M19.5255 17.5783C19.4357 17.551 19.3307 17.5728 19.2374 17.7309L17.8164 17.7347L17.616 18.2909C17.5715 18.4144 17.4542 18.4968 17.323 18.4968L17.5976 17.7354H17.3896L17.1893 18.2904C17.1447 18.414 17.0275 18.4963 16.8961 18.4963L17.1705 17.736H16.9623L16.762 18.2898C16.7175 18.4134 16.6003 18.4957 16.4689 18.4957L16.7428 17.7365L15.2107 17.7407H14.164C14.2027 17.594 14.3355 17.4917 14.4872 17.4917H15.2812L16.4978 13.2002H14.3537C13.7951 14.9814 13.2365 16.9919 12.6779 18.82C12.5837 19.1282 12.8123 19.5074 13.1345 19.511C15.1123 19.5333 17.0901 19.4886 19.0679 19.511C19.1808 19.5123 19.2804 19.437 19.3099 19.3281L19.6982 17.9004C19.7347 17.7652 19.6605 17.6194 19.5255 17.5783Z" fill="#231C1C"/>
<path d="M17.8339 8.49084L17.8353 8.48633H15.6381C15.4327 8.48633 15.2662 8.65289 15.2662 8.85827H16.3578L16.357 8.86052C16.3061 8.99803 16.1769 9.09095 16.0302 9.09521L15.6113 9.10773C15.423 9.72112 15.2345 10.3345 15.046 10.948H17.1374L17.7298 8.85827H17.7876C17.8833 8.85827 17.9678 8.78851 17.9783 8.69346C17.9892 8.59891 17.9269 8.5115 17.8339 8.49084Z" fill="#231C1C"/>
<path d="M19.5878 11.6591C19.5866 11.6405 19.5851 11.6215 19.5835 11.6036C19.4675 10.3111 18.3687 9.32861 17.0705 9.32861H13.3136C13.0015 9.32849 12.7226 9.52373 12.6159 9.81702L12.3202 10.532H11.9926C11.7663 10.532 11.5528 10.637 11.4149 10.8165H13.2749C13.4381 10.8183 13.5999 10.8208 13.7605 10.8241C13.9762 10.8289 14.1471 11.0075 14.1424 11.223C14.142 11.2404 14.1405 11.2578 14.1377 11.2751L13.6994 12.479H13.4928L13.9112 11.3192H13.7796L13.3613 12.479H13.097L13.5158 11.3192C12.8245 11.3059 12.2646 11.2926 11.5733 11.2794C11.4067 11.2762 11.2526 11.3674 11.1751 11.5149V11.5162C11.1422 11.5789 11.1181 11.6458 11.1036 11.715C11.0808 11.8236 11.1712 11.9252 11.2812 11.9105H11.2844C11.4043 11.8929 11.4558 11.7874 11.4598 11.7793H12.6632C12.6632 11.8761 12.5847 11.9546 12.4879 11.9546H11.8592C10.9879 14.5449 10.3772 16.4103 10.1238 16.9875C9.8678 17.5707 10.0862 17.8025 10.2711 17.8934C10.3509 17.9317 10.4386 17.9512 10.5273 17.9504H12.1151L13.1702 14.8649H12.8591C12.6899 14.8649 12.5528 14.7278 12.5528 14.5586H14.3256C15.077 15.6162 15.8284 16.6848 16.5798 17.7425C17.3019 17.7425 18.0239 17.7315 18.7463 17.7315L16.2391 14.3603L17.0675 14.3827C18.3085 14.3827 19.3771 13.4837 19.5633 12.2568C19.5934 12.0591 19.6016 11.8586 19.5878 11.6591ZM13.211 12.8937L12.9682 12.8947C13.0076 12.7854 13.0472 12.676 13.0867 12.5665H13.3291L13.211 12.8937ZM13.5481 12.8919H13.3647L13.4823 12.5663H13.6667L13.5481 12.8919ZM14.6332 12.8919C14.3968 12.8905 14.1083 12.8901 13.7673 12.8906L13.8855 12.5659H14.7514L14.6332 12.8919ZM13.9174 12.4786L14.3271 11.3549C14.6786 11.3598 14.9699 11.3616 15.1852 11.3624L14.7823 12.4786H13.9174ZM15.0478 12.8954L14.9376 12.8944L14.8514 12.8936L14.9697 12.5661H15.1665L15.0478 12.8954ZM15.0018 12.479L15.4045 11.3631C15.474 11.3631 15.5395 11.3631 15.6012 11.3631L15.1987 12.4786L15.0018 12.479ZM16.1415 12.6979C15.8409 12.8497 15.562 12.8867 15.2675 12.8942L15.3857 12.5665C15.5718 12.5763 15.7584 12.5763 15.9445 12.5665C16.2213 12.552 16.3468 12.5235 16.4697 12.4572C16.522 12.4289 16.5714 12.3953 16.6168 12.357C16.4772 12.495 16.3168 12.6102 16.1415 12.6985V12.6979ZM16.7542 12.0632C16.7041 12.2529 16.5088 12.3432 16.4036 12.3914C16.2631 12.4563 16.1406 12.4648 15.9003 12.4791C15.7392 12.4887 15.5779 12.4887 15.4169 12.4791L15.8183 11.3664C15.8726 11.3573 16.3054 11.2913 16.5786 11.5819C16.616 11.6215 16.815 11.8324 16.7542 12.0632Z" fill="#231C1C"/>
<path d="M15.1856 11.363C14.9703 11.3622 14.679 11.3604 14.3275 11.3555L13.9178 12.4792H14.7827L15.1856 11.363ZM14.0594 12.3801L14.3965 11.4555C14.6145 11.4583 14.8318 11.4603 15.0447 11.4614L14.7138 12.3801H14.0594Z" fill="white"/>
<path d="M13.3651 12.8929L13.5486 12.8922L13.6672 12.5669H13.4827L13.3651 12.8929Z" fill="white"/>
<path d="M12.9686 12.8951L13.2115 12.8941L13.3295 12.5669H13.0871C13.0476 12.6763 13.0082 12.7858 12.9686 12.8951ZM13.1565 12.666H13.1883L13.1416 12.7953H13.1096L13.1565 12.666Z" fill="white"/>
<path d="M19.6867 11.6516C19.6853 11.6325 19.6838 11.6133 19.682 11.5943C19.6235 10.9453 19.3215 10.3424 18.8365 9.90726C18.3522 9.4702 17.723 9.2285 17.0707 9.229H13.3137C12.9608 9.22963 12.6456 9.44966 12.5234 9.78065L12.3763 10.1363L12.2539 10.4325H11.9925C11.7357 10.4332 11.4936 10.5525 11.3363 10.7556L11.2136 10.9151H13.2748C13.4339 10.9169 13.597 10.9194 13.7584 10.9228C13.8424 10.9239 13.9218 10.962 13.9753 11.0268C14.0206 11.0809 14.0449 11.1497 14.0436 11.2203H13.7098L13.6863 11.2857L13.2914 12.38H13.2377L13.391 11.9557L13.6086 11.3529L13.6556 11.223L13.5178 11.2203C13.1707 11.2136 12.8567 11.2069 12.5425 11.2003C12.2311 11.1937 11.9195 11.187 11.5754 11.1804H11.565C11.3646 11.1799 11.1806 11.291 11.0876 11.4684C11.0501 11.5394 11.0228 11.6153 11.0062 11.6938C10.9896 11.7715 11.0093 11.8525 11.0595 11.914C11.1082 11.9749 11.182 12.0102 11.2599 12.0103C11.2713 12.0103 11.2828 12.0094 11.2941 12.0079L11.2998 12.0072C11.3854 11.9935 11.4623 11.9468 11.5136 11.877H11.7811L11.7661 11.9215C11.5971 12.4238 11.438 12.8983 11.2893 13.3424C10.6781 15.1668 10.2364 16.4848 10.0339 16.9461C9.73895 17.6178 10.029 17.8826 10.228 17.9806C10.3218 18.0257 10.4246 18.0486 10.5285 18.0479H12.1859L12.2088 17.9809L13.2637 14.8954L13.3086 14.7649H12.859C12.7831 14.7649 12.7132 14.7233 12.6769 14.6567H14.274C14.6399 15.172 15.0114 15.6976 15.3709 16.2065C15.7246 16.7068 16.0895 17.2232 16.4497 17.7304H16.5711C15.8224 16.6763 15.0737 15.6116 14.3251 14.5576H12.5527C12.5527 14.7268 12.6898 14.864 12.859 14.864H13.1701L12.115 17.9494H10.5272C10.4385 17.9503 10.3508 17.9308 10.2709 17.8925C10.0865 17.8015 9.86769 17.5697 10.1237 16.9865C10.3771 16.4093 10.9878 14.5445 11.8591 11.9537H12.487C12.5839 11.9537 12.6624 11.8752 12.6624 11.7784H11.4589C11.4551 11.7865 11.4037 11.8919 11.2836 11.9096H11.2803C11.2733 11.9106 11.2663 11.9111 11.2591 11.9111C11.1692 11.9096 11.0976 11.8355 11.0991 11.7456C11.0992 11.735 11.1005 11.7244 11.1027 11.7141C11.1173 11.6449 11.1413 11.578 11.1742 11.5152V11.514C11.2503 11.3691 11.4004 11.2783 11.564 11.2783H11.5725C12.2638 11.2916 12.8237 11.3049 13.515 11.3181L13.0962 12.4779H13.3612L13.7797 11.3181H13.9109L13.4925 12.4779H13.6993L14.1376 11.2741C14.1713 11.061 14.026 10.861 13.813 10.8273C13.7956 10.8246 13.7779 10.823 13.7603 10.8226C13.5997 10.8192 13.4378 10.8167 13.2746 10.8149H11.4148C11.5531 10.6361 11.7665 10.5317 11.9925 10.532H12.3201L12.6157 9.81722C12.7224 9.52393 13.0013 9.32869 13.3133 9.32881H17.0703C18.3681 9.32881 19.4673 10.3113 19.5832 11.6038C19.5849 11.6222 19.5864 11.6414 19.5876 11.6593C19.6013 11.859 19.5929 12.0598 19.5626 12.2576C19.3763 13.4849 18.3077 14.3836 17.0668 14.3836L16.2384 14.3612L18.7445 17.7314H18.868L18.8242 17.6724L17.3665 15.7123L16.4398 14.4657L17.0642 14.4826H17.0669C17.6923 14.4826 18.2973 14.2607 18.7745 13.8565C19.2514 13.4528 19.5661 12.8903 19.6606 12.2728C19.6921 12.0673 19.7007 11.859 19.6867 11.6516ZM14.0412 11.2509L13.9969 11.3726L14.0039 11.3531L14.0414 11.249L14.0412 11.2509Z" fill="white"/>
<path d="M13.7677 12.8914H14.0398C14.2653 12.8914 14.4631 12.8919 14.6336 12.893L14.7512 12.5674H13.8859L13.7677 12.8914ZM13.9555 12.6659H14.6104L14.5644 12.7934C14.3945 12.7926 14.2184 12.7922 14.0401 12.7922H13.9096L13.9555 12.6659Z" fill="white"/>
<path d="M16.6174 12.3564C16.572 12.3948 16.5226 12.4283 16.4703 12.4566C16.3474 12.523 16.222 12.5514 15.9451 12.566C15.864 12.5702 15.7707 12.5733 15.6667 12.5733C15.5803 12.5733 15.4866 12.5712 15.3863 12.566L15.2681 12.8937C15.5626 12.8862 15.8418 12.8491 16.1421 12.6973C16.3174 12.6092 16.4777 12.4942 16.6174 12.3564ZM15.4115 12.7886L15.4548 12.6688C15.5255 12.6715 15.5964 12.6729 15.6667 12.6729C15.7611 12.6729 15.8565 12.6704 15.9503 12.6654L15.9781 12.6639C15.7776 12.7458 15.589 12.7765 15.411 12.7886H15.4115Z" fill="white"/>
<path d="M15.9009 12.479C16.1408 12.4648 16.264 12.4563 16.4042 12.3913C16.5089 12.3431 16.7047 12.2528 16.7548 12.0631C16.8156 11.8323 16.6171 11.6209 16.5795 11.5817C16.3988 11.3898 16.1483 11.3535 15.9838 11.3535C15.9287 11.3533 15.8737 11.3574 15.8192 11.366L15.4177 12.4787C15.4885 12.483 15.5695 12.486 15.6593 12.486C15.7338 12.4863 15.8147 12.4841 15.9009 12.479ZM15.8916 11.4568C15.9167 11.4546 15.948 11.4527 15.9835 11.4527C16.1377 11.4527 16.3537 11.4869 16.5071 11.6498C16.5667 11.7124 16.7007 11.8775 16.6585 12.038C16.621 12.1826 16.459 12.2571 16.3626 12.301C16.2411 12.3571 16.1372 12.3653 15.895 12.3797C15.8168 12.3843 15.7374 12.3867 15.659 12.3867C15.625 12.3867 15.5907 12.3867 15.5564 12.3853L15.8916 11.4568Z" fill="white"/>
<path d="M15.6011 11.3638C15.5393 11.3638 15.4738 11.3638 15.4043 11.3638L15.002 12.4792H15.1988L15.6011 11.3638Z" fill="white"/>
<path d="M15.048 12.8961L15.1668 12.5669H14.9698L14.8517 12.8944L14.9378 12.8951L15.048 12.8961Z" fill="white"/>
<path d="M10.6178 4.03125C11.9745 3.45518 13.4179 3.16351 14.908 3.16351V1.10344e-05H14.8881C12.9962 -0.00236838 11.1236 0.380092 9.38416 1.1241L10.6178 4.03125Z" fill="#F7FAF6"/>
<path d="M21.6869 1.75977L20.2306 4.38527C21.5221 5.10034 22.6563 6.06814 23.5657 7.23105L25.922 5.38299C24.7661 3.90487 23.3262 2.67296 21.6869 1.75977Z" fill="white"/>
<path d="M25.9019 14.0074C25.9024 14.8591 25.8046 15.708 25.6104 16.5371L28.5157 17.2203C28.9439 15.3949 29.0035 13.5025 28.6911 11.6538L25.7469 12.1524C25.8503 12.7654 25.9021 13.3859 25.9019 14.0074Z" fill="white"/>
<path d="M25.353 23.2989L23.1232 21.314C22.1437 22.4175 20.9519 23.3123 19.6188 23.9447L20.902 26.6455C22.5942 25.8382 24.1076 24.7003 25.353 23.2989Z" fill="white"/>
<path d="M8.77637 26.5984C10.4644 27.4188 12.3008 27.8895 14.1753 27.9821L14.3297 24.9864C12.8589 24.9131 11.4183 24.542 10.0952 23.8955L8.77637 26.5984Z" fill="white"/>
<path d="M1.26379 17.2298C1.69422 19.0504 2.48681 20.7657 3.59437 22.2735L5.97254 20.5641C5.11131 19.3696 4.50168 18.0127 4.18046 16.5757L1.26379 17.2298Z" fill="white"/>
<path d="M1.36853 10.3549L4.32076 11.1823C4.71762 9.76351 5.39814 8.44005 6.3211 7.29179L3.88633 5.3418C2.71628 6.82518 1.85982 8.53059 1.36853 10.3549Z" fill="white"/>
<path d="M10.6178 4.03125C11.9745 3.45518 13.4179 3.16351 14.908 3.16351V1.10344e-05H14.8881C12.9962 -0.00236838 11.1236 0.380092 9.38416 1.1241L10.6178 4.03125Z" fill="white"/>
</svg>
