<svg width="781" height="782" viewBox="0 0 781 782" fill="none" xmlns="http://www.w3.org/2000/svg">
<path d="M390.603 781.6C606.215 781.6 781.003 606.812 781.003 391.2C781.003 175.588 606.215 0.800049 390.603 0.800049C174.991 0.800049 0.203125 175.588 0.203125 391.2C0.203125 606.812 174.991 781.6 390.603 781.6Z" fill="url(#paint0_linear_899_146187)"/>
<path d="M390.603 631.1C523.096 631.1 630.503 523.693 630.503 391.2C630.503 258.707 523.096 151.3 390.603 151.3C258.11 151.3 150.703 258.707 150.703 391.2C150.703 523.693 258.11 631.1 390.603 631.1Z" fill="white"/>
<path d="M390.805 144.6H390.705H390.605H390.505H390.405H390.305H390.205H390.105H390.005H389.905H389.805H389.705H389.605H389.505H389.405H389.305H389.205H389.105H389.005H388.905H388.805H388.705H388.605H388.505H388.405H388.305H388.205H388.105H388.005C388.005 144.6 388.005 144.6 387.905 144.6H387.805C387.805 144.6 387.805 144.6 387.705 144.6H387.605H387.505C387.505 144.6 387.505 144.6 387.405 144.6H387.305C387.305 144.6 387.305 144.6 387.205 144.6H387.105H387.005H386.905H386.805C386.805 144.6 386.805 144.6 386.705 144.6H386.605H386.505C386.505 144.6 386.505 144.6 386.405 144.6H386.305H386.205C386.205 144.6 386.205 144.6 386.105 144.6H386.005C386.005 144.6 386.005 144.6 385.905 144.6H385.805C385.805 144.6 385.805 144.6 385.705 144.6H385.605C385.605 144.6 385.605 144.6 385.505 144.6H385.405C385.405 144.6 385.405 144.6 385.305 144.6C385.305 144.6 385.305 144.6 385.205 144.6C385.205 144.6 385.205 144.6 385.105 144.6H385.005C385.005 144.6 385.005 144.6 384.905 144.6C384.905 144.6 384.905 144.6 384.805 144.6C384.805 144.6 384.805 144.6 384.705 144.6H384.605C384.605 144.6 384.605 144.6 384.505 144.6C384.505 144.6 384.505 144.6 384.405 144.6C384.405 144.6 384.405 144.6 384.305 144.6H384.205C384.205 144.6 384.205 144.6 384.105 144.6C384.105 144.6 384.105 144.6 384.005 144.6C384.005 144.6 384.005 144.6 383.905 144.6C383.905 144.6 383.905 144.6 383.805 144.6H383.705C383.705 144.6 383.705 144.6 383.605 144.6H383.505C383.505 144.6 383.505 144.6 383.405 144.6H383.305H383.205C383.205 144.6 383.105 144.6 383.005 144.6H382.905C382.805 144.6 382.705 144.6 382.605 144.6C382.505 144.6 382.405 144.6 382.305 144.6C382.205 144.6 382.105 144.6 382.005 144.6H381.905C381.805 144.6 381.805 144.6 381.705 144.6H381.605C381.505 144.6 381.505 144.6 381.405 144.6H381.305C381.205 144.6 381.105 144.6 381.005 144.6C380.905 144.6 380.805 144.6 380.705 144.6C380.605 144.6 380.505 144.6 380.405 144.6C371.805 145 363.205 145.8 354.805 147.1L357.505 165.3C368.705 163.6 380.105 162.8 391.505 162.8V144.6H390.805ZM318.305 155.4C318.005 155.5 317.705 155.6 317.405 155.7C317.305 155.7 317.205 155.8 317.105 155.8C317.005 155.8 317.005 155.8 316.905 155.9H316.805C316.705 155.9 316.705 155.9 316.605 155.9H316.505C316.405 155.9 316.405 155.9 316.405 155.9H316.305C316.305 155.9 316.205 155.9 316.105 155.9H316.005C315.905 155.9 315.905 155.9 315.805 155.9C315.705 155.9 315.705 155.9 315.605 156C315.605 156 315.605 156 315.505 156H315.405C315.405 156 315.405 156 315.305 156C315.305 156 315.305 156 315.205 156C315.205 156 315.205 156 315.105 156H315.005C315.005 156 315.005 156 314.905 156C314.905 156 314.905 156 314.805 156H314.705C314.705 156 314.705 156 314.605 156C314.605 156 314.605 156 314.505 156C314.505 156 314.505 156 314.405 156H314.305H314.205C314.205 156 314.205 156 314.105 156C314.105 156 314.105 156 314.005 156C314.005 156 314.005 156 313.905 156C313.905 156 313.905 156 313.805 156C313.805 156 313.805 156 313.705 156H313.605C313.605 156 313.605 156 313.505 156C313.505 156 313.505 156 313.405 156C313.405 156 313.405 156 313.305 156H313.205C313.205 156 313.205 156 313.105 156H313.005H312.905H312.805H312.705H312.605H312.505H312.405H312.305H312.205H312.105H312.005C311.905 156 311.805 156.1 311.805 156.1C311.705 156.1 311.605 156.2 311.505 156.2H311.405H311.305H311.205H311.105H311.005H310.905H310.805H310.705H310.605C310.505 156.2 310.405 156.3 310.305 156.3C310.205 156.3 310.105 156.4 310.005 156.4C309.905 156.4 309.805 156.5 309.705 156.5C309.605 156.5 309.505 156.6 309.405 156.6C309.305 156.6 309.205 156.7 309.105 156.7C300.505 159.7 292.205 163.2 284.105 167.1L292.105 183.7C302.305 178.8 313.005 174.6 323.805 171.3L318.305 155.4ZM252.205 187.2C242.405 193.9 233.105 201.2 224.405 209.2C224.305 209.3 224.305 209.3 224.205 209.4C224.105 209.5 224.105 209.5 224.005 209.6L223.905 209.7L223.805 209.8L223.705 209.9C223.705 209.9 223.605 209.9 223.605 210L223.505 210.1L236.005 223.6C244.305 215.9 253.305 208.8 262.605 202.4L252.205 187.2ZM198.305 237C190.605 246.6 183.705 256.7 177.505 267.3L193.405 276.6C199.105 266.8 205.605 257.4 212.705 248.5L198.305 237ZM161.405 300.4C157.805 309.5 154.705 318.9 152.205 328.5C152.205 328.6 152.205 328.7 152.105 328.8C152.105 328.9 152.105 329 152.005 329.1C152.005 329.2 152.005 329.3 151.905 329.4C151.905 329.5 151.905 329.6 151.805 329.7C151.805 329.8 151.805 329.9 151.705 330C151.705 330.1 151.705 330.2 151.605 330.3C151.605 330.4 151.605 330.5 151.505 330.6V330.7V330.8V330.9V331V331.1V331.2V331.3V331.4V331.5V331.6V331.7C151.505 331.7 151.505 331.7 151.505 331.8C151.505 331.8 151.505 331.8 151.505 331.9C151.505 331.9 151.505 331.9 151.505 332V332.1C151.505 332.1 151.505 332.1 151.505 332.2C151.505 332.2 151.505 332.2 151.505 332.3C151.505 332.3 151.505 332.3 151.505 332.4V332.5C151.505 332.5 151.505 332.5 151.505 332.6C151.505 332.6 151.505 332.6 151.505 332.7C151.505 332.7 151.505 332.7 151.505 332.8V332.9C151.505 332.9 151.505 332.9 151.505 333C151.505 333 151.505 333 151.505 333.1V333.2C151.505 333.2 151.505 333.2 151.505 333.3C151.505 333.3 151.505 333.3 151.505 333.4V333.5C151.505 333.5 151.505 333.5 151.505 333.6V333.7C151.505 333.7 151.505 333.7 151.505 333.8V333.9C151.505 333.9 151.505 333.9 151.505 334V334.1V334.2C151.505 334.2 151.505 334.3 151.505 334.4V334.5C151.505 334.6 151.505 334.6 151.505 334.7C151.505 334.8 151.505 334.9 151.405 335C151.405 335.2 151.305 335.3 151.305 335.5L169.205 339.6C171.705 328.6 175.105 317.6 179.305 307.1L161.405 300.4ZM144.905 371.9C144.605 375.2 144.505 378.5 144.305 381.9C144.305 382 144.305 382.1 144.305 382.2C144.305 382.3 144.305 382.4 144.305 382.5C144.305 382.6 144.305 382.7 144.305 382.8C144.305 382.9 144.305 382.9 144.305 383V383.1C144.305 383.1 144.305 383.2 144.305 383.3V383.4C144.305 383.4 144.305 383.5 144.305 383.6C144.305 383.6 144.305 383.6 144.305 383.7V383.8V383.9V384C144.305 384 144.305 384 144.305 384.1C144.305 384.1 144.305 384.1 144.305 384.2C144.305 384.2 144.305 384.2 144.305 384.3V384.4C144.305 384.4 144.305 384.4 144.305 384.5C144.305 384.5 144.305 384.5 144.305 384.6V384.7C144.305 384.7 144.305 384.7 144.305 384.8C144.305 384.8 144.305 384.8 144.305 384.9C144.305 384.9 144.305 384.9 144.305 385V385.1C144.305 385.1 144.305 385.1 144.305 385.2C144.305 385.2 144.305 385.2 144.305 385.3V385.4V385.5C144.305 385.5 144.305 385.5 144.305 385.6C144.305 385.6 144.305 385.6 144.305 385.7V385.8V385.9C144.305 385.9 144.305 385.9 144.305 386V386.1V386.2V386.3C144.305 386.3 144.305 386.3 144.305 386.4V386.5V386.6V386.7C144.305 386.7 144.305 386.7 144.305 386.8V386.9C144.305 386.9 144.305 386.9 144.305 387V387.1C144.305 387.1 144.305 387.1 144.305 387.2V387.3V387.4V387.5C144.305 387.5 144.305 387.5 144.305 387.6V387.7C144.305 387.7 144.305 387.7 144.305 387.8V387.9V388V388.1V388.2V388.3V388.4V388.5V388.6V388.7V388.8V388.9V389V389.1V389.2V389.3V389.4V389.5V389.6V389.7V389.8V389.9V390V390.1V390.2V390.3V390.4V390.5V390.6V390.7V390.8V390.9V391V391.1V391.2V391.3V391.4V391.5V391.6V391.7V391.8V391.9V392V392.1V392.2V392.3V392.4V392.5C144.305 392.6 144.305 392.7 144.305 392.8V392.9C144.305 393 144.305 393.1 144.305 393.2C144.305 393.3 144.305 393.5 144.305 393.6C144.305 393.7 144.305 393.8 144.305 393.9C144.305 396.9 144.505 399.9 144.605 402.9V403C144.605 403.1 144.605 403.2 144.605 403.3V403.4V403.5V403.6V403.7V403.8C144.605 403.8 144.605 403.8 144.605 403.9C144.605 403.9 144.605 403.9 144.605 404C144.605 404 144.605 404 144.605 404.1V404.2V404.3V404.4C144.605 404.5 144.605 404.6 144.605 404.7C144.605 405.5 144.705 406.4 144.805 407.2L163.205 405.9C162.805 400.6 162.605 395.1 162.605 389.7C162.605 383.7 162.805 377.7 163.305 371.8L144.905 371.9ZM168.005 441.1L150.005 445.1C151.705 452.7 153.705 460.1 156.105 467.4C156.105 467.5 156.205 467.6 156.205 467.7C156.205 467.8 156.305 467.9 156.305 468C156.305 468.1 156.405 468.2 156.405 468.3V468.4V468.5V468.6V468.7V468.8V468.9V469V469.1V469.2V469.3V469.4V469.5V469.6V469.7V469.8V469.9V470V470.1C156.405 470.1 156.405 470.1 156.405 470.2V470.3V470.4C156.405 470.4 156.405 470.4 156.405 470.5C156.405 470.5 156.405 470.5 156.405 470.6C156.405 470.6 156.405 470.6 156.405 470.7V470.8V470.9C156.405 470.9 156.405 470.9 156.405 471C156.405 471 156.405 471 156.405 471.1C156.405 471.1 156.405 471.1 156.405 471.2V471.3C156.405 471.3 156.405 471.3 156.405 471.4C156.405 471.4 156.405 471.4 156.405 471.5V471.6C156.405 471.6 156.405 471.6 156.405 471.7V471.8C156.405 471.8 156.405 471.8 156.405 471.9V472C156.405 472.1 156.505 472.2 156.505 472.2C156.505 472.3 156.605 472.4 156.605 472.4C156.605 472.5 156.705 472.6 156.705 472.6C156.705 472.7 156.805 472.8 156.805 472.9C156.905 473.1 156.905 473.2 157.005 473.4C157.805 475.5 158.505 477.7 159.405 479.8L176.605 473.2C173.805 463 170.505 452.1 168.005 441.1ZM192.505 504.3L176.505 513.4C176.805 514 177.205 514.6 177.505 515.1C177.505 515.2 177.605 515.3 177.605 515.3C177.605 515.4 177.705 515.5 177.705 515.5C177.705 515.5 177.705 515.6 177.805 515.6C177.805 515.6 177.805 515.7 177.905 515.7C177.905 515.7 177.905 515.8 178.005 515.8C178.005 515.8 178.005 515.9 178.105 515.9C178.105 515.9 178.105 516 178.205 516C178.205 516 178.205 516 178.205 516.1C178.205 516.1 178.205 516.2 178.305 516.2C178.305 516.2 178.305 516.2 178.305 516.3C178.305 516.3 178.305 516.3 178.305 516.4C178.305 516.4 178.305 516.4 178.305 516.5C178.305 516.5 178.305 516.5 178.305 516.6C178.305 516.6 178.305 516.6 178.305 516.7C178.305 516.7 178.305 516.8 178.405 516.8C178.405 516.8 178.405 516.8 178.405 516.9C178.405 516.9 178.405 517 178.505 517C178.505 517 178.505 517 178.505 517.1L178.605 517.2C178.605 517.3 178.705 517.4 178.705 517.4C178.705 517.5 178.805 517.5 178.805 517.6C182.205 523.3 185.805 528.8 189.705 534.2C189.805 534.3 189.805 534.3 189.905 534.4C190.005 534.5 190.005 534.5 190.105 534.6L190.205 534.7C190.205 534.7 190.205 534.7 190.205 534.8L190.305 534.9C190.305 534.9 190.305 534.9 190.305 535L190.405 535.1C190.405 535.2 190.505 535.2 190.505 535.3C190.505 535.3 190.505 535.4 190.605 535.4C190.605 535.4 190.605 535.4 190.605 535.5C190.605 535.5 190.605 535.6 190.705 535.6C190.705 535.6 190.705 535.6 190.705 535.7C190.705 535.7 190.705 535.7 190.705 535.8C190.705 535.8 190.705 535.8 190.805 535.9C190.805 535.9 190.805 535.9 190.905 536C190.905 536 190.905 536 190.905 536.1C190.905 536.1 190.905 536.1 190.905 536.2C190.905 536.2 190.905 536.3 191.005 536.3C191.005 536.3 191.005 536.4 191.105 536.4C191.105 536.4 191.105 536.5 191.205 536.5C191.205 536.5 191.205 536.6 191.305 536.6L191.405 536.7C191.505 536.8 191.505 536.8 191.605 536.9C191.705 537 191.705 537 191.805 537.1C191.905 537.2 191.905 537.3 192.005 537.3C193.505 539.3 195.005 541.3 196.505 543.2L210.905 531.8C204.605 523.6 198.105 514.1 192.505 504.3ZM234.605 557.6L222.005 571C223.105 572 224.205 573 225.305 574C225.405 574.1 225.405 574.1 225.505 574.2C225.605 574.3 225.605 574.3 225.705 574.4L225.805 574.5L225.905 574.6L226.005 574.7L226.105 574.8L226.205 574.9C226.305 575 226.305 575 226.405 575.1L226.505 575.2L226.605 575.3L226.705 575.4C226.705 575.4 226.805 575.4 226.805 575.5L226.905 575.6C226.905 575.6 227.005 575.6 227.005 575.7L227.105 575.8C227.105 575.8 227.205 575.8 227.205 575.9L227.305 576L227.405 576.1C227.405 576.1 227.505 576.1 227.505 576.2L227.605 576.3C227.605 576.3 227.605 576.3 227.705 576.4C227.705 576.4 227.805 576.4 227.805 576.5C227.805 576.5 227.805 576.5 227.905 576.6C227.905 576.6 228.005 576.6 228.005 576.7C228.005 576.7 228.005 576.7 228.105 576.8C228.105 576.8 228.205 576.8 228.205 576.9C228.205 576.9 228.205 576.9 228.305 577C228.305 577 228.305 577 228.405 577C228.405 577 228.405 577 228.505 577.1C228.505 577.1 228.605 577.1 228.605 577.2C228.605 577.2 228.605 577.2 228.705 577.2C228.705 577.2 228.805 577.2 228.805 577.3C228.805 577.3 228.805 577.3 228.905 577.3C228.905 577.3 229.005 577.3 229.005 577.4C229.005 577.4 229.005 577.4 229.105 577.4C229.105 577.4 229.105 577.4 229.205 577.4C229.205 577.4 229.205 577.4 229.305 577.5C229.305 577.5 229.305 577.5 229.405 577.6C229.405 577.6 229.405 577.6 229.505 577.7C229.505 577.7 229.505 577.7 229.605 577.7C229.605 577.7 229.605 577.7 229.705 577.7C229.705 577.7 229.705 577.7 229.805 577.8C229.805 577.8 229.905 577.8 229.905 577.9C229.905 577.9 229.905 577.9 230.005 578C230.005 578 230.005 578 230.105 578C230.105 578 230.105 578 230.205 578.1C230.205 578.1 230.205 578.1 230.305 578.1L230.405 578.2C230.405 578.2 230.405 578.2 230.505 578.2L230.605 578.3C230.605 578.3 230.605 578.3 230.705 578.3C230.705 578.3 230.805 578.3 230.805 578.4C230.805 578.4 230.905 578.4 230.905 578.5C230.905 578.5 230.905 578.5 231.005 578.5L231.105 578.6C231.105 578.6 231.105 578.6 231.205 578.6L231.305 578.7C231.305 578.7 231.305 578.7 231.405 578.7L231.505 578.8C231.505 578.8 231.505 578.8 231.605 578.8L231.705 578.9C231.805 578.9 231.805 579 231.905 579.1C232.005 579.2 232.005 579.2 232.105 579.3L232.205 579.4C232.205 579.4 232.205 579.4 232.305 579.5L232.405 579.6C232.405 579.6 232.405 579.6 232.505 579.7L232.605 579.8C232.705 579.9 232.705 579.9 232.805 580C232.905 580 232.905 580.1 233.005 580.2L233.105 580.3C233.105 580.3 233.105 580.3 233.205 580.4L233.305 580.5C233.305 580.5 233.305 580.5 233.405 580.6L233.505 580.7C233.605 580.8 233.605 580.8 233.705 580.9C233.805 581 233.805 581 233.905 581.1L234.005 581.2C234.005 581.2 234.005 581.2 234.105 581.3L234.205 581.4C234.205 581.4 234.205 581.4 234.305 581.5L234.405 581.6C234.505 581.7 234.505 581.7 234.605 581.8C234.705 581.9 234.705 581.9 234.805 582C234.905 582.1 234.905 582.1 235.005 582.2C235.105 582.3 235.205 582.4 235.405 582.5C235.505 582.6 235.505 582.6 235.605 582.7C235.705 582.8 235.705 582.8 235.805 582.9C235.905 583 235.905 583 236.005 583.1C236.105 583.2 236.205 583.3 236.405 583.4C236.505 583.5 236.505 583.5 236.605 583.6C236.705 583.7 236.705 583.7 236.805 583.8C236.905 583.9 236.905 583.9 237.005 584C237.105 584.1 237.205 584.2 237.405 584.3C237.505 584.4 237.505 584.4 237.605 584.5C237.705 584.6 237.705 584.6 237.805 584.7C237.905 584.8 237.905 584.8 238.005 584.9C238.105 585 238.105 585 238.205 585.1L238.305 585.2C238.405 585.3 238.405 585.3 238.505 585.4C238.605 585.5 238.605 585.5 238.705 585.6C238.805 585.7 238.805 585.7 238.905 585.8L239.005 585.9C239.005 585.9 239.005 585.9 239.105 586L239.205 586.1C239.205 586.1 239.205 586.1 239.305 586.2L239.405 586.3C239.505 586.4 239.505 586.4 239.605 586.5C239.705 586.6 239.705 586.6 239.805 586.7L239.905 586.8C239.905 586.8 239.905 586.8 240.005 586.8L240.105 586.9C240.105 586.9 240.105 586.9 240.205 587L240.305 587.1C240.405 587.2 240.405 587.2 240.505 587.3C240.605 587.4 240.605 587.4 240.705 587.5L240.805 587.6C240.805 587.6 240.805 587.6 240.905 587.6L241.005 587.7C241.005 587.7 241.005 587.7 241.105 587.7L241.205 587.8C241.205 587.8 241.205 587.8 241.305 587.8L241.405 587.9C241.505 587.9 241.505 588 241.605 588L241.705 588.1C241.705 588.1 241.705 588.1 241.805 588.1C241.805 588.1 241.905 588.1 241.905 588.2C241.905 588.2 241.905 588.2 242.005 588.2C242.005 588.2 242.105 588.2 242.105 588.3C242.105 588.3 242.105 588.3 242.205 588.3C242.205 588.3 242.305 588.3 242.305 588.4C242.305 588.4 242.305 588.4 242.405 588.4C242.405 588.4 242.405 588.4 242.505 588.5C242.505 588.5 242.505 588.5 242.605 588.5C242.605 588.5 242.705 588.5 242.705 588.6C242.705 588.6 242.705 588.6 242.805 588.6C242.805 588.6 242.905 588.6 242.905 588.7C242.905 588.7 242.905 588.7 243.005 588.7C243.005 588.7 243.105 588.7 243.105 588.8C243.105 588.8 243.105 588.8 243.205 588.8C243.205 588.8 243.205 588.8 243.305 588.9C243.305 588.9 243.305 588.9 243.405 588.9C243.405 588.9 243.505 588.9 243.505 589C243.505 589 243.505 589 243.605 589C243.605 589 243.705 589 243.705 589.1C243.705 589.1 243.705 589.1 243.805 589.1C243.805 589.1 243.805 589.1 243.905 589.1C243.905 589.1 243.905 589.1 244.005 589.1C244.005 589.1 244.005 589.1 244.105 589.1C244.105 589.1 244.105 589.1 244.205 589.1C244.205 589.1 244.205 589.1 244.305 589.1C244.305 589.1 244.405 589.1 244.405 589.2C244.405 589.2 244.405 589.2 244.505 589.3C244.505 589.3 244.605 589.3 244.605 589.4C244.605 589.4 244.605 589.4 244.705 589.4C244.705 589.4 244.805 589.4 244.805 589.5C244.805 589.5 244.805 589.5 244.905 589.5C244.905 589.5 245.005 589.5 245.005 589.6C245.005 589.6 245.005 589.6 245.105 589.7C245.105 589.7 245.105 589.7 245.205 589.8C245.205 589.8 245.305 589.8 245.305 589.9C245.305 589.9 245.305 589.9 245.405 590C245.405 590 245.505 590 245.505 590.1C245.505 590.1 245.605 590.1 245.605 590.2C245.605 590.2 245.705 590.2 245.705 590.3C245.705 590.3 245.805 590.3 245.805 590.4C245.805 590.4 245.905 590.4 245.905 590.5C245.905 590.5 246.005 590.5 246.005 590.6C246.005 590.6 246.105 590.6 246.105 590.7C246.105 590.7 246.205 590.7 246.205 590.8C246.205 590.8 246.305 590.8 246.305 590.9C246.305 590.9 246.405 590.9 246.405 591C246.405 591 246.505 591 246.505 591.1L246.605 591.2C246.605 591.2 246.705 591.2 246.705 591.3L246.805 591.4C246.905 591.5 246.905 591.5 247.005 591.6L247.105 591.7C247.105 591.7 247.205 591.7 247.205 591.8L247.305 591.9L247.405 592L247.505 592.1C247.605 592.2 247.705 592.2 247.705 592.3C247.805 592.4 247.805 592.4 247.905 592.5C248.005 592.6 248.105 592.6 248.105 592.7C248.305 592.9 248.605 593 248.805 593.2L259.305 578.1C251.805 572.6 242.905 565.4 234.605 557.6ZM290.405 596.2L282.305 612.7C284.005 613.5 285.705 614.3 287.405 615.1C287.505 615.1 287.605 615.2 287.605 615.2C287.705 615.2 287.805 615.3 287.805 615.3C287.905 615.3 288.005 615.4 288.005 615.4C288.005 615.4 288.105 615.4 288.105 615.5C288.105 615.5 288.105 615.5 288.205 615.5H288.305C288.305 615.5 288.305 615.5 288.405 615.5H288.505C288.505 615.5 288.505 615.5 288.605 615.5C288.605 615.5 288.605 615.5 288.705 615.5C288.705 615.5 288.705 615.5 288.805 615.5C288.805 615.5 288.805 615.5 288.905 615.5C288.905 615.5 288.905 615.5 289.005 615.5H289.105H289.205H289.305H289.405H289.505H289.605H289.705H289.805C289.805 615.5 289.905 615.5 289.905 615.6H290.005C290.005 615.6 290.105 615.6 290.105 615.7H290.205C290.205 615.7 290.305 615.7 290.305 615.8C290.405 615.8 290.505 615.9 290.505 615.9C290.605 615.9 290.705 616 290.705 616C290.805 616 290.905 616.1 291.005 616.1C299.005 619.6 307.305 622.8 315.805 625.4L321.305 607.8C311.205 605.5 300.605 601.2 290.405 596.2ZM355.105 616.7L352.205 634.9H352.305C352.305 634.9 352.305 634.9 352.405 634.9H352.505C352.505 634.9 352.505 634.9 352.605 634.9H352.705C352.705 634.9 352.705 634.9 352.805 634.9H352.905H353.005H353.105H353.205C353.305 634.9 353.405 634.9 353.405 634.9C353.505 634.9 353.605 634.9 353.705 634.9C353.805 634.9 353.905 634.9 354.005 634.9C354.105 634.9 354.205 634.9 354.305 634.9H354.405C354.505 634.9 354.505 634.9 354.605 634.9H354.705C354.805 634.9 354.905 634.9 355.005 634.9C355.305 634.9 355.605 635 355.905 635C366.505 636.5 377.405 637.3 388.405 637.4L388.505 619C377.705 619.4 366.305 618.4 355.105 616.7ZM456.305 609.9C445.505 613.1 434.305 615.6 423.105 617.2L425.705 635.4C426.905 635.2 428.005 635.1 429.205 634.9C429.305 634.9 429.405 634.9 429.505 634.9C429.605 634.9 429.705 634.9 429.805 634.9C429.905 634.9 429.905 634.9 430.005 634.9H430.105C430.205 634.9 430.305 634.9 430.405 634.9C430.505 634.9 430.505 634.9 430.605 634.9H430.705C430.805 634.9 430.805 634.9 430.905 634.9H431.005H431.105H431.205H431.305C431.305 634.9 431.305 634.9 431.405 634.9C431.405 634.9 431.405 634.9 431.505 634.9H431.605C431.605 634.9 431.605 634.9 431.705 634.9C431.705 634.9 431.705 634.9 431.805 634.9C431.805 634.9 431.805 634.9 431.905 634.9H432.005C432.005 634.9 432.005 634.9 432.105 634.9C432.105 634.9 432.105 634.9 432.205 634.9C432.205 634.9 432.205 634.9 432.305 634.9H432.405C432.405 634.9 432.405 634.9 432.505 634.9C432.505 634.9 432.505 634.9 432.605 634.9C432.605 634.9 432.605 634.9 432.705 634.9H432.805C432.805 634.9 432.805 634.9 432.905 634.9C432.905 634.9 432.905 634.9 433.005 634.9C433.005 634.9 433.005 634.9 433.105 634.9H433.205C433.205 634.9 433.205 634.9 433.305 634.9C433.305 634.9 433.305 634.9 433.405 634.9C433.405 634.9 433.405 634.9 433.505 634.9H433.605C433.605 634.9 433.605 634.9 433.705 634.9C433.705 634.9 433.705 634.9 433.805 634.9C433.805 634.9 433.805 634.9 433.905 634.9H434.005C434.005 634.9 434.005 634.9 434.105 634.9H434.205H434.305H434.405H434.505H434.605H434.705H434.805H434.905H435.005H435.105H435.205H435.305H435.405H435.505H435.605H435.705H435.805H435.905C436.005 634.9 436.105 634.9 436.205 634.9C436.305 634.9 436.405 634.9 436.505 634.9C436.605 634.9 436.705 634.9 436.805 634.8C436.905 634.8 437.005 634.8 437.105 634.7C437.205 634.7 437.305 634.7 437.405 634.6C437.505 634.6 437.605 634.6 437.705 634.5C445.805 632.9 453.805 631 461.605 628.6L456.305 609.9ZM517.705 581C508.305 587.3 498.305 593 488.105 597.8L496.005 614.4C502.005 611.6 507.905 608.5 513.705 605.2C514.005 605 514.305 604.9 514.605 604.7C514.705 604.7 514.805 604.6 514.805 604.6C514.905 604.6 515.005 604.5 515.005 604.5C515.105 604.5 515.105 604.4 515.205 604.4C515.305 604.4 515.305 604.3 515.305 604.3C515.305 604.3 515.305 604.3 515.405 604.3L515.505 604.2C515.505 604.2 515.505 604.2 515.605 604.2L515.705 604.1C515.805 604.1 515.805 604 515.905 604C516.005 604 516.005 603.9 516.105 603.9C516.105 603.9 516.205 603.9 516.205 603.8C516.205 603.8 516.205 603.8 516.305 603.8C516.305 603.8 516.405 603.8 516.405 603.7C516.405 603.7 516.405 603.7 516.505 603.7C516.505 603.7 516.605 603.7 516.605 603.6C516.605 603.6 516.605 603.6 516.705 603.6C516.705 603.6 516.705 603.6 516.805 603.6H516.905C516.905 603.6 516.905 603.6 517.005 603.6C517.005 603.6 517.105 603.6 517.105 603.5C517.105 603.5 517.105 603.5 517.205 603.5C517.205 603.5 517.305 603.5 517.305 603.4C517.305 603.4 517.305 603.4 517.405 603.4C517.405 603.4 517.505 603.4 517.505 603.3C517.505 603.3 517.505 603.3 517.605 603.3C517.605 603.3 517.605 603.3 517.705 603.3H517.805C517.805 603.3 517.805 603.3 517.905 603.3C517.905 603.3 517.905 603.3 518.005 603.3C518.005 603.3 518.005 603.3 518.105 603.3C518.105 603.3 518.205 603.3 518.205 603.2H518.305C518.305 603.2 518.405 603.2 518.405 603.1H518.505C518.505 603.1 518.605 603.1 518.605 603H518.705C518.705 603 518.805 603 518.805 602.9C518.805 602.9 518.905 602.9 518.905 602.8C518.905 602.8 519.005 602.8 519.005 602.7C519.005 602.7 519.105 602.7 519.105 602.6C519.105 602.6 519.205 602.6 519.205 602.5C519.205 602.5 519.305 602.5 519.305 602.4C519.305 602.4 519.405 602.4 519.405 602.3C519.405 602.3 519.505 602.3 519.505 602.2C519.505 602.2 519.605 602.2 519.605 602.1C519.605 602.1 519.705 602.1 519.705 602C519.705 602 519.805 602 519.805 601.9C519.805 601.9 519.905 601.9 519.905 601.8C519.905 601.8 520.005 601.8 520.005 601.7C520.005 601.7 520.105 601.7 520.105 601.6C520.205 601.6 520.205 601.5 520.305 601.5C520.305 601.5 520.405 601.5 520.405 601.4C520.405 601.4 520.505 601.4 520.505 601.3C520.505 601.3 520.605 601.3 520.605 601.2C520.605 601.2 520.705 601.2 520.705 601.1C520.705 601.1 520.805 601.1 520.805 601C520.805 601 520.905 601 520.905 600.9C520.905 600.9 521.005 600.9 521.005 600.8C521.105 600.8 521.205 600.7 521.205 600.7C521.305 600.7 521.405 600.6 521.405 600.6C521.505 600.6 521.605 600.5 521.605 600.5C521.705 600.4 521.805 600.4 521.805 600.4C523.505 599.3 525.205 598.2 526.805 597.1L517.705 581ZM567.905 535.2C560.705 544 552.905 552.3 544.505 559.9L556.905 573.5C566.005 565.2 574.405 556.3 582.205 546.8L567.905 535.2ZM602.505 476.8C598.305 487.3 593.205 497.5 587.405 507.3L603.205 516.7C604.105 515.1 605.005 513.5 605.905 511.9C605.905 511.8 606.005 511.8 606.005 511.7C606.005 511.7 606.005 511.7 606.005 511.6C606.005 511.6 606.005 511.5 606.105 511.5C606.105 511.5 606.105 511.5 606.105 511.4C606.105 511.4 606.105 511.3 606.205 511.3C606.205 511.3 606.205 511.3 606.205 511.2C606.205 511.2 606.205 511.2 606.205 511.1C606.205 511.1 606.205 511.1 606.205 511C606.205 511 606.205 511 606.205 510.9C606.205 510.9 606.205 510.9 606.205 510.8V510.7C606.205 510.7 606.205 510.7 606.205 510.6C606.205 510.6 606.205 510.6 606.205 510.5C606.205 510.5 606.205 510.5 606.205 510.4C606.205 510.4 606.205 510.3 606.305 510.3C606.305 510.3 606.305 510.3 606.305 510.2C606.305 510.2 606.305 510.1 606.405 510.1V510C606.405 510 606.405 509.9 606.505 509.9C606.505 509.9 606.505 509.8 606.605 509.8C606.605 509.8 606.605 509.7 606.705 509.7C606.705 509.7 606.705 509.6 606.805 509.6C606.805 509.6 606.805 509.5 606.905 509.5C606.905 509.5 606.905 509.4 607.005 509.4C607.005 509.4 607.005 509.3 607.105 509.3C607.105 509.3 607.105 509.2 607.205 509.2C607.205 509.2 607.205 509.1 607.305 509.1C607.305 509.1 607.305 509 607.405 509C607.405 508.9 607.505 508.8 607.505 508.8C607.505 508.7 607.605 508.6 607.605 508.6C609.805 504.5 611.905 500.3 613.905 496C613.905 495.9 614.005 495.8 614.005 495.7C614.005 495.6 614.105 495.5 614.105 495.4C614.105 495.3 614.205 495.2 614.205 495.1C614.205 495 614.305 494.9 614.305 494.9C614.305 494.9 614.305 494.8 614.405 494.8C614.405 494.8 614.405 494.7 614.505 494.7C614.505 494.7 614.505 494.6 614.605 494.6V494.5C614.605 494.5 614.605 494.4 614.705 494.4V494.3C614.705 494.3 614.705 494.2 614.805 494.2V494.1C614.805 494.1 614.805 494 614.905 494V493.9V493.8V493.7V493.6V493.5V493.4V493.3V493.2V493.1C614.905 493.1 614.905 493.1 614.905 493V492.9C614.905 492.9 614.905 492.9 614.905 492.8C614.905 492.8 614.905 492.8 614.905 492.7V492.6C614.905 492.6 614.905 492.6 614.905 492.5C614.905 492.5 614.905 492.5 614.905 492.4C614.905 492.4 614.905 492.4 614.905 492.3V492.2C614.905 492.2 614.905 492.2 614.905 492.1C614.905 492.1 614.905 492.1 614.905 492C614.905 492 614.905 492 614.905 491.9V491.8C614.905 491.8 614.905 491.8 614.905 491.7C614.905 491.7 614.905 491.7 614.905 491.6V491.5C614.905 491.4 615.005 491.3 615.005 491.3C615.005 491.2 615.105 491.1 615.105 491.1C615.105 491 615.205 490.9 615.205 490.9C616.205 488.7 617.105 486.4 618.005 484.2L602.505 476.8ZM618.205 410.8C617.205 422.1 615.405 433.4 612.805 444.4L630.705 448.7C631.605 444.9 632.405 441.1 633.205 437.2C633.205 437.1 633.205 437 633.305 436.9C633.305 436.8 633.305 436.8 633.305 436.7V436.6C633.305 436.5 633.305 436.5 633.305 436.4V436.3V436.2V436.1V436C633.305 436 633.305 436 633.305 435.9C633.305 435.9 633.305 435.9 633.305 435.8C633.305 435.8 633.305 435.8 633.305 435.7V435.6C633.305 435.6 633.305 435.6 633.305 435.5C633.305 435.5 633.305 435.5 633.305 435.4C633.305 435.4 633.305 435.4 633.305 435.3V435.2C633.305 435.2 633.305 435.2 633.305 435.1C633.305 435.1 633.305 435.1 633.305 435C633.305 435 633.305 435 633.305 434.9V434.8V434.7V434.6V434.5V434.4V434.3V434.2V434.1V434V433.9V433.8V433.7C633.305 433.6 633.305 433.5 633.305 433.4C633.305 433.3 633.305 433.2 633.305 433.1C633.305 433 633.305 432.9 633.305 432.8C633.305 432.7 633.305 432.6 633.305 432.5C633.305 432.4 633.305 432.3 633.305 432.2C634.305 426.1 635.105 419.9 635.705 413.7V413.6V413.5V413.4V413.3V413.2V413.1V413V412.9L618.205 410.8ZM632.005 339.2L614.005 343.1C616.405 354.1 617.905 365.5 618.605 376.8L637.005 375.7C636.805 373.2 636.605 370.7 636.405 368.2C636.405 368.1 636.405 368 636.405 367.9C636.405 367.8 636.405 367.7 636.405 367.6V367.5V367.4V367.3V367.2V367.1V367V366.9V366.8V366.7V366.6V366.5V366.4V366.3V366.2C636.405 366.2 636.405 366.2 636.405 366.1V366C636.405 366 636.405 366 636.405 365.9V365.8C636.405 365.8 636.405 365.8 636.405 365.7V365.6C636.405 365.6 636.405 365.6 636.405 365.5V365.4C636.405 365.4 636.405 365.4 636.405 365.3V365.2C636.405 365.2 636.405 365.2 636.405 365.1C636.405 365.1 636.405 365.1 636.405 365C636.405 365 636.405 365 636.405 364.9V364.8C636.405 364.8 636.405 364.8 636.405 364.7V364.6C636.405 364.6 636.405 364.6 636.405 364.5V364.4C636.405 364.4 636.405 364.4 636.405 364.3C636.405 364.3 636.405 364.3 636.405 364.2V364.1C636.405 364.1 636.405 364.1 636.405 364C636.405 364 636.405 364 636.405 363.9C636.405 363.9 636.405 363.9 636.405 363.8V363.7V363.6C636.405 363.6 636.405 363.6 636.405 363.5V363.4V363.3C636.405 363.3 636.405 363.3 636.405 363.2C636.405 363.2 636.405 363.2 636.405 363.1C636.405 363.1 636.405 363.1 636.405 363V362.9V362.8V362.7V362.6C636.405 362.6 636.405 362.5 636.405 362.4V362.3C636.405 362.2 636.405 362.2 636.405 362.1V362C636.405 361.9 636.405 361.9 636.405 361.8V361.7C636.405 361.6 636.405 361.6 636.405 361.5V361.4C636.405 361.3 636.405 361.3 636.405 361.2V361.1C636.405 361 636.405 360.9 636.405 360.8C636.405 360.7 636.405 360.6 636.405 360.5C636.405 360.4 636.405 360.3 636.405 360.2C636.405 360.1 636.405 360 636.405 359.9C636.405 359.8 636.405 359.7 636.405 359.6C636.405 359.5 636.405 359.4 636.405 359.3C634.605 352.6 633.405 345.8 632.005 339.2ZM606.005 270.6L590.005 279.6C595.505 289.5 600.405 299.9 604.405 310.4L621.605 303.9C621.205 302.9 620.805 301.8 620.405 300.8C620.405 300.7 620.405 300.7 620.305 300.6V300.5C620.305 300.4 620.305 300.4 620.205 300.3C620.205 300.3 620.205 300.3 620.205 300.2C620.205 300.2 620.205 300.1 620.105 300.1C620.105 300.1 620.105 300.1 620.105 300C620.105 300 620.105 299.9 620.005 299.9C620.005 299.9 620.005 299.9 620.005 299.8C620.005 299.8 620.005 299.8 620.005 299.7V299.6C620.005 299.6 620.005 299.6 620.005 299.5V299.4C620.005 299.4 620.005 299.4 620.005 299.3C620.005 299.3 620.005 299.3 620.005 299.2C620.005 299.2 620.005 299.2 620.005 299.1V299C620.005 299 620.005 299 620.005 298.9C620.005 298.9 620.005 298.9 620.005 298.8C620.005 298.8 620.005 298.8 620.005 298.7V298.6V298.5V298.4V298.3V298.2V298.1V298V297.9V297.8C620.005 297.8 620.005 297.7 619.905 297.7V297.6C619.905 297.6 619.905 297.5 619.805 297.5C619.805 297.4 619.705 297.3 619.705 297.2C619.705 297.1 619.605 297 619.605 296.9C615.005 287.8 610.705 279 606.005 270.6ZM561.005 212.7L548.305 226C556.505 233.8 564.205 242.3 571.105 251.3L585.605 240C582.205 235.6 578.605 231.3 574.905 227.2C574.805 227.1 574.805 227.1 574.705 227C574.605 226.9 574.605 226.9 574.505 226.8C574.405 226.7 574.405 226.7 574.305 226.6L574.205 226.5L574.105 226.4L574.005 226.3C574.005 226.3 574.005 226.2 573.905 226.2L573.805 226.1C573.805 226.1 573.805 226.1 573.705 226C573.705 226 573.705 225.9 573.605 225.9C573.605 225.9 573.605 225.8 573.505 225.8C573.505 225.8 573.505 225.8 573.405 225.7C573.405 225.7 573.405 225.6 573.305 225.6C573.305 225.6 573.305 225.6 573.205 225.5C573.205 225.5 573.205 225.4 573.105 225.4C573.105 225.4 573.105 225.4 573.105 225.3C573.105 225.3 573.105 225.2 573.005 225.2C573.005 225.2 573.005 225.2 572.905 225.1C572.905 225.1 572.905 225.1 572.905 225C572.905 225 572.905 224.9 572.805 224.9C572.805 224.9 572.805 224.9 572.805 224.8L572.705 224.7C572.605 224.6 572.605 224.6 572.505 224.5C572.405 224.4 572.405 224.4 572.305 224.3L572.205 224.2C572.205 224.2 572.205 224.2 572.105 224.1L572.005 224C571.905 223.9 571.905 223.9 571.805 223.8C571.705 223.7 571.705 223.7 571.605 223.6C568.105 219.6 564.605 216.1 561.005 212.7ZM501.005 170.5L492.805 187C502.905 192.1 512.705 197.9 522.005 204.5L532.605 189.4C527.605 185.9 522.505 182.5 517.205 179.4C517.105 179.4 517.005 179.3 517.005 179.3C516.905 179.3 516.805 179.2 516.805 179.2C516.505 179 516.205 178.9 515.905 178.7C515.805 178.7 515.705 178.6 515.705 178.6C515.605 178.6 515.505 178.5 515.505 178.5C515.505 178.5 515.405 178.5 515.405 178.4C515.205 178.3 515.105 178.2 514.905 178.1C514.805 178.1 514.705 178 514.705 178C514.605 178 514.505 177.9 514.505 177.9C514.205 177.7 513.905 177.6 513.605 177.4C513.505 177.4 513.405 177.3 513.405 177.3C513.305 177.3 513.205 177.2 513.205 177.2C513.105 177.2 513.005 177.1 513.005 177.1C512.905 177 512.805 177 512.605 176.9C512.505 176.9 512.405 176.8 512.405 176.8C512.305 176.8 512.205 176.7 512.205 176.7C512.105 176.7 512.005 176.6 512.005 176.6C511.905 176.6 511.805 176.5 511.805 176.5C511.705 176.4 511.605 176.4 511.405 176.3C511.305 176.3 511.205 176.2 511.205 176.2C511.105 176.2 511.005 176.1 511.005 176.1C510.905 176.1 510.805 176 510.805 176C510.705 176 510.605 175.9 510.605 175.9C510.505 175.9 510.405 175.8 510.405 175.8C510.405 175.8 510.305 175.8 510.305 175.7C510.205 175.7 510.105 175.6 510.105 175.6C510.005 175.6 509.905 175.5 509.905 175.5C509.805 175.5 509.705 175.4 509.705 175.4C509.605 175.4 509.505 175.3 509.505 175.3C509.405 175.3 509.305 175.2 509.305 175.2C509.305 175.2 509.205 175.2 509.205 175.1C509.105 175.1 509.005 175 509.005 175C508.905 175 508.805 174.9 508.805 174.9C508.705 174.9 508.605 174.8 508.605 174.8C508.605 174.8 508.505 174.8 508.505 174.7C508.505 174.7 508.405 174.7 508.405 174.6C508.405 174.6 508.305 174.6 508.305 174.5C508.305 174.5 508.205 174.5 508.205 174.4C508.205 174.4 508.105 174.4 508.105 174.3C508.105 174.3 508.005 174.3 508.005 174.2C508.005 174.2 507.905 174.2 507.905 174.1C507.805 174.1 507.705 174 507.705 174C507.605 174 507.505 173.9 507.505 173.9C507.505 173.9 507.405 173.9 507.405 173.8C507.405 173.8 507.305 173.8 507.305 173.7C507.305 173.7 507.205 173.7 507.205 173.6H507.105C507.105 173.6 507.005 173.6 507.005 173.5H506.905C506.905 173.5 506.805 173.5 506.805 173.4H506.705C506.705 173.4 506.605 173.4 506.605 173.3C506.605 173.3 506.505 173.3 506.505 173.2H506.405C506.405 173.2 506.305 173.2 506.305 173.1H506.205C506.205 173.1 506.105 173.1 506.105 173H506.005C506.005 173 505.905 173 505.905 172.9H505.805C505.805 172.9 505.705 172.9 505.705 172.8H505.605H505.505H505.405H505.305H505.205C505.205 172.8 505.205 172.8 505.105 172.8C505.105 172.8 505.105 172.8 505.005 172.8H504.905C504.905 172.8 504.905 172.8 504.805 172.8C504.805 172.8 504.805 172.8 504.705 172.8C504.705 172.8 504.705 172.8 504.605 172.8H504.505C504.505 172.8 504.505 172.8 504.405 172.8C504.405 172.8 504.405 172.8 504.305 172.8H504.205C504.205 172.8 504.205 172.8 504.105 172.8C504.105 172.8 504.105 172.8 504.005 172.8C504.005 172.8 503.905 172.8 503.905 172.7C503.905 172.7 503.905 172.7 503.805 172.7C503.805 172.7 503.705 172.7 503.705 172.6C503.705 172.6 503.705 172.6 503.605 172.6C503.605 172.6 503.505 172.6 503.505 172.5C503.405 172.5 503.305 172.4 503.305 172.4C501.105 170.5 501.105 170.5 501.005 170.5ZM431.205 147.8L428.205 166C439.405 167.8 450.505 170.5 461.305 174L467.005 156.5C464.605 155.7 462.305 155 459.905 154.3C459.805 154.3 459.705 154.3 459.605 154.2C459.505 154.2 459.405 154.2 459.405 154.1H459.305C459.305 154.1 459.305 154.1 459.205 154.1H459.105C459.105 154.1 459.105 154.1 459.005 154.1C459.005 154.1 459.005 154.1 458.905 154.1C458.905 154.1 458.905 154.1 458.805 154.1C458.805 154.1 458.805 154.1 458.705 154.1H458.605C458.605 154.1 458.605 154.1 458.505 154.1C458.505 154.1 458.505 154.1 458.405 154.1H458.305H458.205H458.105H458.005H457.905H457.805H457.705H457.605H457.505H457.405H457.305C457.205 154.1 457.105 154.1 457.005 154C456.905 154 456.805 154 456.705 153.9C456.605 153.9 456.505 153.9 456.405 153.8C447.905 151 439.605 149.2 431.205 147.8Z" fill="url(#paint1_linear_899_146187)"/>
<path d="M390.605 114C428.005 114 464.305 121.3 498.505 135.8C531.505 149.8 561.205 169.8 586.605 195.2C612.105 220.7 632.105 250.3 646.005 283.3C660.505 317.5 667.805 353.8 667.805 391.2C667.805 428.6 660.505 464.9 646.005 499.1C632.005 532.1 612.005 561.8 586.605 587.2C561.105 612.7 531.505 632.7 498.505 646.6C464.305 661.1 428.005 668.4 390.605 668.4C353.205 668.4 316.905 661.1 282.705 646.6C249.705 632.6 220.005 612.6 194.605 587.2C169.105 561.7 149.105 532.1 135.205 499.1C120.705 464.9 113.405 428.6 113.405 391.2C113.405 353.8 120.705 317.5 135.205 283.3C149.205 250.3 169.205 220.6 194.605 195.2C220.105 169.7 249.705 149.7 282.705 135.8C316.805 121.3 353.105 114 390.605 114ZM390.605 109.4C234.905 109.4 108.805 235.6 108.805 391.2C108.805 546.9 235.005 673 390.605 673C546.305 673 672.405 546.8 672.405 391.2C672.405 235.5 546.205 109.4 390.605 109.4Z" fill="#F7FAF6"/>
<path d="M390.603 130.9C425.703 130.9 459.803 137.8 491.903 151.4C522.903 164.5 550.703 183.3 574.603 207.2C598.503 231.1 617.303 258.9 630.403 289.9C644.003 322 650.903 356.1 650.903 391.2C650.903 426.3 644.003 460.4 630.403 492.5C617.303 523.5 598.503 551.3 574.603 575.2C550.703 599.1 522.903 617.9 491.903 631C459.803 644.6 425.703 651.5 390.603 651.5C355.503 651.5 321.403 644.6 289.303 631C258.303 617.9 230.503 599.1 206.603 575.2C182.703 551.3 163.903 523.5 150.803 492.5C137.203 460.4 130.303 426.3 130.303 391.2C130.303 356.1 137.203 322 150.803 289.9C163.903 258.9 182.703 231.1 206.603 207.2C230.503 183.3 258.303 164.5 289.303 151.4C321.303 137.8 355.403 130.9 390.603 130.9ZM390.603 126.3C244.303 126.3 125.703 244.9 125.703 391.2C125.703 537.5 244.303 656.1 390.603 656.1C536.903 656.1 655.503 537.5 655.503 391.2C655.503 244.9 536.903 126.3 390.603 126.3Z" fill="#F7FAF6"/>
<path d="M519.903 491C517.403 490.2 514.503 490.8 511.903 495.3L472.303 495.4L466.703 510.9C465.503 514.3 462.203 516.6 458.503 516.6L466.203 495.4H460.403L454.803 510.9C453.603 514.3 450.303 516.6 446.603 516.6L454.303 495.4H448.503L442.903 510.8C441.703 514.2 438.403 516.5 434.703 516.5L442.303 495.3L399.603 495.4H370.403C371.503 491.3 375.203 488.5 379.403 488.5H401.503L435.403 368.8H375.603C360.003 418.5 344.403 474.5 328.903 525.5C326.303 534.1 332.603 544.7 341.603 544.8C396.803 545.4 451.903 544.2 507.103 544.8C510.203 544.8 513.003 542.7 513.803 539.7L524.603 499.9C525.703 496.2 523.703 492.1 519.903 491Z" fill="url(#paint2_linear_899_146187)"/>
<path d="M472.706 237.5V237.4H471.506H416.006H411.406C405.706 237.4 401.006 242 401.006 247.8H412.806H431.506C431.506 247.8 431.506 247.8 431.506 247.9C430.106 251.7 426.506 254.3 422.406 254.4C418.506 254.5 414.606 254.6 410.706 254.7C405.406 271.8 400.206 288.9 394.906 306H453.206L469.706 247.7H471.306C474.006 247.7 476.306 245.8 476.606 243.1C477.106 240.5 475.206 238.1 472.706 237.5Z" fill="url(#paint3_linear_899_146187)"/>
<path d="M521.602 325.9C521.602 325.4 521.502 324.9 521.502 324.4C518.302 288.4 487.602 261 451.402 261H435.902C406.202 261 376.402 261 346.702 261C338.002 261 330.202 266.4 327.202 274.6C324.502 281.2 321.702 287.9 319.002 294.5H309.902C303.602 294.5 297.602 297.4 293.802 302.4H345.702C350.302 302.4 354.802 302.5 359.202 302.6C365.902 302.7 370.702 308.8 369.702 315.2L357.502 348.8C356.402 348.8 352.802 348.8 351.702 348.8L363.402 316.5H359.702L348.002 348.8C346.802 348.8 341.902 348.8 340.602 348.8C344.502 338 348.402 327.2 352.302 316.5C333.002 316.1 317.402 315.8 298.102 315.4C293.502 315.3 289.202 317.9 287.002 322C286.002 324 285.402 325.9 285.002 327.5C284.402 330.5 286.902 333.4 289.902 333H290.002C293.302 332.5 294.802 329.6 294.902 329.3H299.202H307.702H328.402C328.402 332 326.202 334.2 323.502 334.2H306.002C281.702 406.4 264.702 458.5 257.602 474.6C250.502 490.9 256.602 497.3 261.702 499.9C263.902 501 266.402 501.5 268.802 501.5H313.102L342.502 415.5H334.002C329.302 415.5 325.502 411.7 325.502 407H345.602H374.902C395.902 436.5 416.802 466.3 437.802 495.8C457.902 495.8 478.102 495.5 498.202 495.5C474.902 464.2 451.602 432.8 428.302 401.5C436.002 401.7 443.702 401.9 451.402 402.1C486.002 402.1 515.802 377 521.002 342.8C521.802 337.1 522.002 331.5 521.602 325.9ZM343.802 360.3H337.002C338.102 357.2 339.202 354.2 340.302 351.1H347.102L343.802 360.3ZM353.202 360.3H348.102L351.402 351.2H356.502L353.202 360.3ZM383.502 360.3C376.902 360.3 368.902 360.2 359.402 360.3L362.702 351.2C370.702 351.2 378.802 351.2 386.802 351.2L383.502 360.3ZM363.502 348.8L374.902 317.5C384.702 317.6 392.802 317.7 398.802 317.7L387.602 348.8C379.602 348.8 371.602 348.8 363.502 348.8ZM395.002 360.4C394.002 360.4 393.002 360.4 391.902 360.4C391.102 360.4 390.302 360.4 389.502 360.4L392.802 351.3C394.602 351.3 396.502 351.3 398.302 351.3L395.002 360.4ZM393.702 348.8L404.902 317.7C406.802 317.7 408.702 317.7 410.402 317.7L399.202 348.8C397.402 348.8 395.602 348.8 393.702 348.8ZM425.502 354.9C417.102 359.1 409.302 360.2 401.102 360.4L404.402 351.3C410.602 351.6 415.802 351.5 420.002 351.3C427.702 350.9 431.202 350.1 434.602 348.2C436.402 347.2 437.802 346.2 438.702 345.4C435.702 348.4 431.302 352 425.502 354.9ZM442.602 337.2C441.202 342.5 435.802 345 432.802 346.4C428.902 348.2 425.502 348.4 418.802 348.8C413.502 349.1 408.902 349 405.302 348.8L416.502 317.8C418.002 317.5 430.102 315.7 437.702 323.8C438.802 324.9 444.302 330.7 442.602 337.2Z" fill="url(#paint4_linear_899_146187)"/>
<path d="M398.902 317.7C392.902 317.7 384.802 317.6 375.002 317.5L363.602 348.8C371.602 348.8 379.702 348.8 387.702 348.8L398.902 317.7ZM367.502 346L376.902 320.2C383.002 320.3 389.002 320.3 395.002 320.4L385.802 346H367.502Z" fill="white"/>
<path d="M348.102 360.3H353.202L356.502 351.2H351.402L348.102 360.3Z" fill="white"/>
<path d="M337 360.4H343.8L347.1 351.3H340.3C339.2 354.3 338.1 357.3 337 360.4ZM342.3 354H343.2L341.9 357.6H341L342.3 354Z" fill="white"/>
<path d="M524.403 325.7C524.403 325.2 524.303 324.6 524.303 324.1C522.703 306 514.303 289.3 500.703 277.1C487.203 264.9 469.703 258.2 451.503 258.2H436.003H346.803C337.003 258.2 328.103 264.4 324.803 273.6L320.703 283.5L317.303 291.8H310.003C302.903 291.8 296.003 295.2 291.703 300.8L288.303 305.2H293.903H345.803C350.203 305.2 354.803 305.3 359.303 305.4C361.703 305.4 363.803 306.5 365.403 308.3C366.703 309.8 367.303 311.8 367.303 313.7H363.603H359.903H358.003L357.303 315.5L346.003 346H344.503L348.803 334.2L354.903 317.4L356.203 313.8L352.303 313.7C342.603 313.5 333.903 313.3 325.103 313.1C316.403 312.9 307.703 312.7 298.103 312.5C298.003 312.5 297.903 312.5 297.803 312.5C292.203 312.5 287.103 315.6 284.503 320.5C283.403 322.5 282.703 324.6 282.203 326.8C281.703 329 282.303 331.2 283.703 332.9C285.103 334.6 287.103 335.6 289.303 335.6C289.603 335.6 289.903 335.6 290.303 335.5H290.503C293.503 335.1 295.403 333.2 296.503 331.9H299.303H304.003L303.603 333.1C298.903 347.1 294.403 360.4 290.303 372.7C273.303 423.6 260.903 460.3 255.303 473.2C247.103 491.9 255.203 499.3 260.703 502.1C263.203 503.3 266.103 504 269.103 504H313.403H315.403L316.003 502.1L345.403 416.1L346.603 412.4H342.703H334.003C331.803 412.4 329.903 411.2 328.903 409.4H345.603H373.503C383.703 423.8 394.103 438.4 404.103 452.6C414.003 466.6 424.103 481 434.203 495.1H437.603C416.703 465.7 395.803 436 375.003 406.6H345.703H325.603C325.603 411.3 329.403 415.1 334.103 415.1H342.803L313.403 501.1H269.003C266.503 501.1 264.103 500.6 261.903 499.5C256.803 497 250.703 490.5 257.803 474.2C264.903 458.1 281.903 406.1 306.203 333.8H323.703C326.403 333.8 328.603 331.6 328.603 328.9H307.903H299.403H295.103C295.003 329.1 293.603 332.1 290.203 332.6H290.103C289.903 332.6 289.703 332.6 289.503 332.6C286.703 332.6 284.503 329.9 285.103 327.1C285.403 325.5 286.003 323.5 287.103 321.6C289.203 317.6 293.403 315 298.003 315C298.103 315 298.203 315 298.203 315C317.503 315.4 333.103 315.7 352.403 316.1C348.503 326.9 344.603 337.7 340.703 348.4C341.903 348.4 346.803 348.4 348.103 348.4L359.803 316.1H363.503L351.803 348.4C352.903 348.4 356.503 348.4 357.603 348.4L369.803 314.8C370.803 308.4 366.003 302.3 359.303 302.2C354.803 302.1 350.303 302 345.803 302H293.903C297.703 297 303.703 294.1 310.003 294.1H319.103C321.803 287.5 324.603 280.8 327.303 274.2C330.303 266 338.103 260.6 346.803 260.6C376.503 260.6 406.303 260.6 436.003 260.6H451.503C487.703 260.6 518.303 288 521.603 324C521.603 324.5 521.703 325 521.703 325.5C522.103 331.1 521.803 336.7 521.003 342.2C515.803 376.4 486.003 401.5 451.403 401.5C443.703 401.3 436.003 401.1 428.303 400.9C451.603 432.2 474.903 463.6 498.203 494.9H501.603L500.403 493.3L459.703 438.6L433.803 403.8L451.203 404.3C468.603 404.3 485.503 398.1 498.803 386.8C512.103 375.5 520.903 359.8 523.503 342.6C524.603 337.3 524.803 331.5 524.403 325.7ZM367.003 314.5L365.803 317.9L366.003 317.4L367.003 314.5Z" fill="white"/>
<path d="M359.305 360.3C361.905 360.3 364.505 360.3 366.905 360.3C373.205 360.3 378.705 360.3 383.505 360.3L386.805 351.2C378.805 351.2 370.705 351.2 362.705 351.2L359.305 360.3ZM364.605 354H382.905L381.605 357.6C376.905 357.6 372.005 357.6 367.005 357.6C365.805 357.6 364.605 357.6 363.405 357.6L364.605 354Z" fill="white"/>
<path d="M438.803 345.4C437.903 346.2 436.503 347.2 434.703 348.2C431.303 350.1 427.803 350.8 420.103 351.3C417.803 351.4 415.203 351.5 412.303 351.5C409.903 351.5 407.303 351.4 404.503 351.3L401.203 360.4C409.403 360.2 417.203 359.2 425.603 354.9C431.303 352 435.703 348.4 438.803 345.4ZM405.103 357.4L406.303 354.1C408.303 354.2 410.303 354.2 412.203 354.2C414.803 354.2 417.503 354.1 420.103 354C420.403 354 420.603 354 420.903 354C415.403 356.2 410.103 357.1 405.103 357.4Z" fill="white"/>
<path d="M418.805 348.8C425.505 348.4 428.905 348.2 432.805 346.4C435.705 345.1 441.205 342.5 442.605 337.2C444.305 330.8 438.705 324.9 437.705 323.8C432.705 318.4 425.705 317.4 421.105 317.4C418.705 317.4 417.005 317.7 416.505 317.8L405.305 348.8C407.305 348.9 409.505 349 412.005 349C414.205 349 416.405 348.9 418.805 348.8ZM418.605 320.3C419.305 320.2 420.205 320.2 421.205 320.2C425.505 320.2 431.505 321.2 435.805 325.7C437.505 327.5 441.205 332.1 440.005 336.5C438.905 340.5 434.405 342.6 431.705 343.8C428.305 345.4 425.405 345.6 418.705 346C416.505 346.1 414.305 346.2 412.105 346.2C411.105 346.2 410.205 346.2 409.205 346.2L418.605 320.3Z" fill="white"/>
<path d="M410.505 317.7C408.805 317.7 407.005 317.7 405.005 317.7L393.805 348.8C395.605 348.8 397.505 348.8 399.305 348.8L410.505 317.7Z" fill="white"/>
<path d="M395 360.4L398.3 351.2C396.5 351.2 394.6 351.2 392.8 351.2L389.5 360.3C390.3 360.3 391.1 360.3 391.9 360.3C393 360.4 394 360.4 395 360.4Z" fill="white"/>
<path d="M271.5 113.2C309.3 97.1 349.6 89 391.1 89V0.800049C390.9 0.800049 390.7 0.800049 390.5 0.800049C336 0.800049 284.1 12 237 32.1L271.5 113.2Z" fill="#F7FAF6"/>
<path d="M580.202 49.8L539.602 123C575.702 143 607.002 169.7 632.602 202.4L698.302 150.9C666.202 109.8 626.002 75.4 580.202 49.8Z" fill="white"/>
<path d="M697.702 391.4C697.702 415.3 695.002 439 689.602 461.9L770.602 481C777.402 452.2 781.002 422.1 781.002 391.2C781.002 368.9 779.102 347 775.502 325.8L693.402 339.7C696.302 356.6 697.702 374 697.702 391.4Z" fill="white"/>
<path d="M682.4 650.5L620.2 595.1C592.6 626.1 559.7 650.8 522.5 668.5L558.3 743.8C605.7 721.2 647.9 689.3 682.4 650.5Z" fill="white"/>
<path d="M220.102 742.5C266.002 764.8 316.902 778.4 370.702 781.1L375.002 697.6C333.602 695.5 293.902 685.2 256.902 667.2L220.102 742.5Z" fill="white"/>
<path d="M10.6016 481.3C22.8016 532.9 45.2016 580.5 75.6016 622L141.902 574.3C117.702 540.7 100.902 503.3 91.9016 463.1L10.6016 481.3Z" fill="white"/>
<path d="M13.5 289.5L95.8 312.6C106.9 273 125.7 236.4 151.6 204.1L83.7 149.7C51.6 190.5 27.4 237.9 13.5 289.5Z" fill="white"/>
<path d="M271.5 113.2C309.3 97.1 349.6 89 391.1 89V0.800049C390.9 0.800049 390.7 0.800049 390.5 0.800049C336 0.800049 284.1 12 237 32.1L271.5 113.2Z" fill="white"/>
<defs>
<linearGradient id="paint0_linear_899_146187" x1="800.39" y1="391.198" x2="-22.3309" y2="391.198" gradientUnits="userSpaceOnUse">
<stop offset="0.4278" stop-color="#FF922E"/>
<stop offset="0.4546" stop-color="#D27A2A"/>
<stop offset="0.5151" stop-color="#613D21"/>
<stop offset="0.5471" stop-color="#231C1C"/>
</linearGradient>
<linearGradient id="paint1_linear_899_146187" x1="800.391" y1="391.198" x2="-22.3293" y2="391.198" gradientUnits="userSpaceOnUse">
<stop offset="0.4278" stop-color="#FF922E"/>
<stop offset="0.4546" stop-color="#D27A2A"/>
<stop offset="0.5151" stop-color="#613D21"/>
<stop offset="0.5471" stop-color="#231C1C"/>
</linearGradient>
<linearGradient id="paint2_linear_899_146187" x1="800.39" y1="457.008" x2="-22.3308" y2="457.008" gradientUnits="userSpaceOnUse">
<stop offset="0.4278" stop-color="#FF922E"/>
<stop offset="0.4546" stop-color="#D27A2A"/>
<stop offset="0.5151" stop-color="#613D21"/>
<stop offset="0.5471" stop-color="#231C1C"/>
</linearGradient>
<linearGradient id="paint3_linear_899_146187" x1="800.393" y1="271.739" x2="-22.3275" y2="271.739" gradientUnits="userSpaceOnUse">
<stop offset="0.4278" stop-color="#FF922E"/>
<stop offset="0.4546" stop-color="#D27A2A"/>
<stop offset="0.5151" stop-color="#613D21"/>
<stop offset="0.5471" stop-color="#231C1C"/>
</linearGradient>
<linearGradient id="paint4_linear_899_146187" x1="800.389" y1="381.126" x2="-22.3318" y2="381.126" gradientUnits="userSpaceOnUse">
<stop offset="0.4278" stop-color="#FF922E"/>
<stop offset="0.4546" stop-color="#D27A2A"/>
<stop offset="0.5151" stop-color="#613D21"/>
<stop offset="0.5471" stop-color="#231C1C"/>
</linearGradient>
</defs>
</svg>
