<svg width="28" height="28" viewBox="0 0 28 28" fill="none" xmlns="http://www.w3.org/2000/svg">
<path d="M13.9999 28C21.7319 28 27.9999 21.732 27.9999 14C27.9999 6.26801 21.7319 0 13.9999 0C6.26789 0 -0.00012207 6.26801 -0.00012207 14C-0.00012207 21.732 6.26789 28 13.9999 28Z" fill="#FF922E"/>
<path d="M13.9998 22.6016C18.7503 22.6016 22.6014 18.7506 22.6014 14C22.6014 9.24951 18.7503 5.39844 13.9998 5.39844C9.24926 5.39844 5.39819 9.24951 5.39819 14C5.39819 18.7506 9.24926 22.6016 13.9998 22.6016Z" fill="white"/>
<path d="M14.0086 5.15576H13.7189H13.7136H13.7083H13.7028H13.6979H13.6885H13.6872H13.6777H13.6768H13.6674H13.6627H13.6562H13.6519H13.6454H13.6413H13.6311H13.6209H13.6107C13.3039 5.16904 12.9981 5.19834 12.6943 5.24342L12.7916 5.89626C13.1948 5.8364 13.6019 5.80634 14.0096 5.80634V5.15576H14.0086ZM11.407 5.54461L11.3753 5.55438L11.3658 5.55726L11.3598 5.55914L11.3568 5.56014L11.3513 5.56189H11.3505L11.3475 5.56277L11.3422 5.56452H11.341L11.3382 5.5654L11.3329 5.56703H11.3317L11.329 5.5679L11.3236 5.56966H11.3223L11.3166 5.57153L11.3141 5.57241H11.3124L11.3089 5.57354L11.3068 5.57416L11.3044 5.57492L11.3025 5.57554L11.2989 5.57679H11.2969L11.2945 5.57754H11.2928L11.2893 5.57867L11.2871 5.57942L11.285 5.58017L11.2826 5.5808L11.2799 5.5818L11.2771 5.58268H11.2752L11.2726 5.58343L11.27 5.58431L11.2674 5.58518H11.2655L11.2626 5.58619L11.2601 5.58694L11.2576 5.58781L11.2557 5.58844L11.2521 5.58957L11.2505 5.59019L11.2477 5.59107H11.2461L11.2422 5.59232H11.2408L11.2378 5.59332H11.2363L11.2323 5.59458H11.231L11.2278 5.59558H11.2267L11.2225 5.59696H11.2214L11.2178 5.59821H11.2169L11.2126 5.59959H11.2115L11.2077 5.60084L11.2034 5.60222H11.2024L11.198 5.60372L11.1935 5.60522H11.1926L11.1837 5.60823H11.1828L11.1738 5.61136H11.1731L11.1685 5.61286L11.164 5.61436H11.1634L11.1588 5.61587L11.1544 5.61737L11.1498 5.61887L11.145 5.6205L11.1402 5.62213L11.1357 5.62376L11.1311 5.62538L11.1216 5.62876L11.1119 5.63215L11.1024 5.63553L11.0929 5.63878L11.0833 5.64216C10.7772 5.74961 10.4774 5.87397 10.1851 6.01461L10.4713 6.60934C10.8382 6.43288 11.2178 6.28423 11.607 6.16451L11.4131 5.53359L11.407 5.54461ZM9.03659 6.68422C8.68556 6.92329 8.35207 7.18728 8.03874 7.47407L8.03135 7.48083C8.02897 7.48308 8.02659 7.48534 8.02408 7.48747L8.02045 7.49072L8.01732 7.49373L8.01394 7.49673L8.01319 7.49749L8.01056 7.49999L8.00968 7.50074L8.00668 7.50362L8.45301 7.98977C8.75231 7.71314 9.07165 7.45904 9.4084 7.22961L9.03659 6.68448V6.68422V6.68422ZM7.1055 8.47054C6.82999 8.81406 6.58053 9.17748 6.35899 9.55794L6.92955 9.88993C7.13456 9.53777 7.36549 9.2014 7.62033 8.88356L7.1055 8.47029V8.47054V8.47054ZM5.7828 10.7441C5.65256 11.0729 5.54235 11.4091 5.45268 11.7511L5.45005 11.761C5.44918 11.7642 5.4483 11.7674 5.44755 11.7705V11.7718C5.44667 11.7749 5.4458 11.7781 5.44505 11.7812C5.44417 11.7843 5.44342 11.7875 5.44254 11.7907C5.44179 11.7938 5.44091 11.7968 5.44016 11.8V11.8009C5.43941 11.804 5.43866 11.807 5.43778 11.8101C5.43778 11.8101 5.43778 11.8101 5.43778 11.8109L5.4354 11.82C5.4354 11.8204 5.4354 11.8206 5.4354 11.821L5.43428 11.8255L5.43327 11.8295C5.43327 11.8295 5.43327 11.8304 5.43327 11.8307L5.43215 11.835V11.8358C5.43215 11.8369 5.43152 11.8382 5.43114 11.8393C5.43077 11.8404 5.43114 11.8402 5.43114 11.8408L5.43002 11.8449C5.43002 11.8449 5.43002 11.8449 5.43002 11.8462C5.42977 11.8472 5.42952 11.8483 5.42914 11.8493V11.8509L5.42814 11.855C5.42814 11.855 5.42814 11.8557 5.42814 11.8563L5.42739 11.8593V11.861C5.42739 11.8622 5.42739 11.8636 5.42651 11.865C5.42651 11.8655 5.42651 11.8658 5.42651 11.8663L5.42576 11.8694C5.42576 11.87 5.42576 11.8705 5.42576 11.8711C5.42576 11.8724 5.42513 11.8736 5.42488 11.8749V11.8767C5.42488 11.8776 5.42488 11.8784 5.42488 11.8792C5.42488 11.8801 5.42488 11.8802 5.42488 11.8811C5.42488 11.882 5.42426 11.8836 5.42388 11.8849V11.8869C5.42388 11.8876 5.42388 11.8885 5.42388 11.8893V11.8911L5.423 11.8949C5.423 11.8955 5.423 11.8963 5.423 11.8969C5.423 11.8977 5.423 11.8984 5.42238 11.8992V11.9018L5.42163 11.9049C5.42163 11.9057 5.42163 11.9063 5.42163 11.907V11.9093C5.42138 11.9103 5.42113 11.9113 5.42088 11.9123C5.42088 11.9132 5.42088 11.9141 5.42088 11.9148C5.42088 11.9156 5.42088 11.9164 5.42025 11.9173V11.9191C5.42025 11.9204 5.42025 11.9218 5.41925 11.9232V11.9248C5.419 11.9257 5.41875 11.9265 5.41862 11.9273V11.929C5.41862 11.9303 5.41787 11.9318 5.41762 11.9332V11.9349C5.41737 11.9357 5.41712 11.9366 5.41699 11.9375V11.9389C5.41699 11.9406 5.41624 11.9419 5.41587 11.9436C5.41587 11.944 5.41587 11.9445 5.41587 11.9449C5.41587 11.9457 5.41587 11.9466 5.41587 11.9475V11.949C5.41587 11.9506 5.41511 11.9521 5.41474 11.9539V11.9549C5.41474 11.956 5.41474 11.9566 5.41399 11.9578C5.41399 11.9595 5.41299 11.9619 5.41261 11.9635L5.41186 11.9667L5.41036 11.9727V11.9733C5.4096 11.9767 5.40885 11.9797 5.4081 11.9829C5.40672 11.9888 5.40547 11.9943 5.40409 12.0001L6.04716 12.1485C6.13896 11.7518 6.26031 11.3624 6.41034 10.9838L5.7967 10.7408L5.7828 10.7441ZM5.19095 13.3069C5.18181 13.4256 5.17504 13.5451 5.17041 13.6652C5.17041 13.6688 5.17041 13.672 5.17041 13.6756C5.17041 13.6791 5.17041 13.6821 5.17041 13.6857V13.6959C5.17041 13.6983 5.17041 13.6999 5.17041 13.7023C5.17054 13.7034 5.17054 13.7044 5.17041 13.7055V13.7064C5.17041 13.7081 5.17041 13.7101 5.17041 13.7119V13.7163C5.17041 13.7163 5.17041 13.7163 5.17041 13.717C5.17041 13.7178 5.17041 13.7209 5.17041 13.7227V13.7239C5.17041 13.7249 5.17041 13.7258 5.17041 13.7268V13.7283C5.17041 13.7301 5.17041 13.7314 5.17041 13.7332V13.7347C5.17041 13.7357 5.17041 13.7366 5.17041 13.7376V13.7391C5.17041 13.7408 5.17041 13.7421 5.17041 13.7438V13.7456C5.17041 13.7465 5.17041 13.7473 5.17041 13.7482C5.17041 13.7491 5.17041 13.75 5.17041 13.7508V13.7634C5.17041 13.7641 5.17041 13.765 5.17041 13.7658V13.7681C5.17041 13.7689 5.17041 13.7695 5.17041 13.7703V13.7743C5.17041 13.7751 5.17041 13.7755 5.17041 13.7764V13.7789C5.17041 13.7798 5.17041 13.781 5.17041 13.7819V13.785C5.17041 13.7858 5.17041 13.7865 5.17041 13.7873V13.7898C5.17041 13.7907 5.17041 13.7919 5.17041 13.7928V13.7958C5.17041 13.7958 5.17041 13.7974 5.17041 13.7979V13.8007C5.17041 13.8019 5.17041 13.8027 5.17041 13.8038V13.8066C5.17041 13.8072 5.17041 13.8082 5.17041 13.8088V13.8117C5.17054 13.8127 5.17054 13.8136 5.17041 13.8146V13.8195C5.17041 13.8206 5.17041 13.8219 5.17041 13.823V13.8304C5.17041 13.8317 5.17041 13.8331 5.17041 13.8345V13.8393C5.17041 13.8393 5.17041 13.8404 5.17041 13.841V13.8519C5.17041 13.8533 5.17041 13.8547 5.17041 13.8562V13.8627C5.17041 13.8641 5.17041 13.8654 5.17041 13.8669V13.9283C5.17041 13.9296 5.17041 13.9309 5.17041 13.9322V13.9447C5.17041 13.9463 5.17041 13.9478 5.17041 13.9495V13.9832C5.17041 13.9847 5.17041 13.9862 5.17041 13.9878V13.9989V14.0092C5.17041 14.0107 5.17041 14.0122 5.17041 14.0136V14.0485C5.17041 14.05 5.17041 14.0515 5.17041 14.053V14.0629V14.0674C5.17041 14.0674 5.17041 14.0682 5.17041 14.0686V14.1136C5.17041 14.1169 5.17041 14.12 5.17041 14.1233C5.17041 14.128 5.17041 14.1328 5.17041 14.1377C5.17041 14.1409 5.17041 14.1441 5.17041 14.1473C5.17216 14.2554 5.17592 14.363 5.18156 14.4701C5.18156 14.4717 5.18156 14.4732 5.18156 14.4748C5.18156 14.4779 5.18156 14.4811 5.18156 14.4842V14.485C5.18156 14.4863 5.18156 14.4876 5.18156 14.489V14.4935V14.4945C5.18156 14.4956 5.18156 14.4967 5.18156 14.4979V14.4992C5.18156 14.5004 5.18156 14.5016 5.18156 14.5027V14.5076C5.18156 14.5083 5.18156 14.5088 5.18156 14.5094V14.512C5.18156 14.512 5.18156 14.5133 5.18156 14.5139C5.18168 14.5149 5.18168 14.5158 5.18156 14.5168C5.18156 14.5179 5.18156 14.5188 5.18156 14.52V14.5243C5.18156 14.5247 5.18156 14.5252 5.18156 14.5255C5.18156 14.5288 5.18156 14.5318 5.18156 14.5349C5.18331 14.565 5.18531 14.5944 5.18732 14.6243L5.84579 14.5783C5.83239 14.3867 5.82563 14.1915 5.82563 13.9984C5.82563 13.7845 5.83389 13.5685 5.85067 13.3564L5.19258 13.3053L5.19095 13.3069ZM6.01986 15.7876L5.37567 15.931C5.4359 16.202 5.50854 16.4681 5.59332 16.7293C5.59432 16.7325 5.59545 16.7356 5.59645 16.7389L5.59958 16.7484C5.60071 16.7515 5.60171 16.7548 5.60271 16.7579C5.60271 16.7596 5.60384 16.7612 5.60434 16.7627L5.60584 16.7672C5.60584 16.7687 5.60685 16.7703 5.60747 16.7718L5.60897 16.7763L5.61048 16.781L5.61198 16.7852L5.61348 16.7896V16.7904C5.61348 16.7917 5.61436 16.7931 5.61486 16.7945L5.61624 16.7989V16.8L5.61749 16.8035C5.61749 16.8038 5.61749 16.8041 5.61749 16.8044L5.61887 16.8085C5.61887 16.8089 5.61887 16.8094 5.61887 16.8098L5.62012 16.8133C5.62012 16.8135 5.62012 16.8139 5.62012 16.8142L5.6215 16.8182V16.8195C5.6215 16.8207 5.62237 16.8218 5.62275 16.8229C5.62275 16.8233 5.62275 16.8237 5.62275 16.8241L5.624 16.8279C5.624 16.8284 5.624 16.8288 5.624 16.8293C5.624 16.8304 5.62475 16.8317 5.62525 16.8329C5.62525 16.8332 5.62525 16.8334 5.62525 16.8337C5.62525 16.8349 5.62613 16.8362 5.62651 16.8376C5.62651 16.8381 5.62651 16.8385 5.62651 16.839L5.62763 16.8422V16.8442L5.62864 16.8471C5.62864 16.8471 5.62864 16.8484 5.62926 16.8489L5.63026 16.8519L5.63102 16.8541C5.63102 16.855 5.63164 16.8559 5.63189 16.8567C5.63214 16.8572 5.63239 16.8579 5.63252 16.8585L5.63352 16.8614L5.6344 16.8641L5.63515 16.8663C5.6354 16.867 5.63565 16.8676 5.6359 16.8684C5.63615 16.8691 5.6364 16.87 5.63678 16.8708C5.63678 16.8721 5.6374 16.8726 5.63778 16.874C5.63803 16.8745 5.63828 16.8752 5.6384 16.8758C5.63878 16.8765 5.63903 16.8774 5.63928 16.8782C5.63941 16.8787 5.63966 16.8793 5.63991 16.8798C5.63991 16.8812 5.64078 16.8824 5.64116 16.8837C5.64141 16.8843 5.64166 16.8849 5.64179 16.8855C5.64204 16.8863 5.64229 16.887 5.64266 16.8878C5.64266 16.8883 5.64266 16.8889 5.64266 16.8894C5.64266 16.8908 5.64366 16.8922 5.64404 16.8936C5.64404 16.8941 5.64404 16.8946 5.64404 16.8951C5.64442 16.8958 5.64467 16.8967 5.64492 16.8974V16.8984L5.64654 16.9033C5.64667 16.9037 5.64667 16.9042 5.64654 16.9046C5.64742 16.9072 5.64855 16.9103 5.64955 16.9131V16.914C5.65055 16.9167 5.65168 16.92 5.65256 16.9227V16.9237C5.65356 16.9266 5.65468 16.9295 5.65569 16.9325V16.9331C5.65669 16.9363 5.65769 16.9389 5.65882 16.9421L5.66558 16.9611C5.69288 17.0378 5.72106 17.1137 5.75036 17.1895L6.36588 16.9515C6.21898 16.5718 6.10064 16.1817 6.0121 15.7844L6.01986 15.7876ZM6.89824 18.0562L6.3253 18.3841C6.33783 18.4051 6.34935 18.4259 6.3615 18.4467L6.36663 18.4553C6.36813 18.4581 6.36976 18.4608 6.37139 18.4635C6.37139 18.4637 6.37139 18.4641 6.37139 18.4644L6.37364 18.4684L6.3759 18.4721V18.4732L6.37803 18.477V18.4779L6.37991 18.4809L6.38053 18.4821L6.38266 18.4856L6.38341 18.487L6.38504 18.4896L6.38579 18.491L6.38792 18.4944C6.38817 18.4949 6.38842 18.4954 6.3888 18.4959L6.39018 18.4983L6.39143 18.5004L6.39293 18.503L6.39406 18.5049L6.39518 18.5069L6.39706 18.5099L6.39806 18.5117L6.39932 18.5138L6.40032 18.5154L6.40245 18.519L6.4032 18.5203L6.40458 18.5227L6.40746 18.5275V18.5283L6.41209 18.5361C6.41209 18.5364 6.41209 18.5367 6.41209 18.537L6.41685 18.545C6.53933 18.749 6.66957 18.9472 6.80758 19.14L6.81334 19.148L6.81897 19.156L6.82223 19.1606L6.82398 19.163L6.82711 19.1674V19.1683C6.82786 19.1693 6.82811 19.1698 6.82886 19.1707L6.82949 19.1715L6.83237 19.1755L6.83312 19.1765L6.83813 19.1836L6.83913 19.1849L6.84139 19.1881C6.84189 19.1886 6.84226 19.1891 6.84264 19.1897L6.84402 19.1916L6.84527 19.1933L6.84715 19.196L6.84865 19.1981L6.8499 19.1997L6.85166 19.2021C6.85216 19.2026 6.85253 19.2032 6.85291 19.2038L6.85479 19.2064C6.85504 19.2069 6.85541 19.2074 6.85591 19.2079L6.85779 19.2105L6.85917 19.2124C6.85917 19.2131 6.8603 19.2139 6.8608 19.2147L6.8618 19.216L6.86418 19.2193L6.86506 19.2204C6.86568 19.2214 6.86643 19.2223 6.86706 19.2231V19.2241L6.86969 19.2276V19.2285L6.87207 19.2317L6.87483 19.2353V19.236L6.88046 19.2437L6.88635 19.2516L6.89236 19.2598C6.94558 19.3315 6.99993 19.4025 7.05516 19.4727L7.57312 19.0636C7.32065 18.7437 7.09235 18.4057 6.88998 18.0521L6.89824 18.0562ZM8.40705 19.9673L7.95521 20.4484C7.99403 20.4849 8.03323 20.5209 8.07267 20.5566L8.08019 20.5634L8.08745 20.5701L8.09108 20.5734L8.09459 20.5765L8.0981 20.5797L8.1016 20.5828L8.10499 20.5858H8.10574L8.11262 20.5919L8.11338 20.5927L8.11688 20.5958L8.12026 20.5988L8.12101 20.5996L8.1244 20.6026L8.1274 20.6052L8.12815 20.606L8.13141 20.6088L8.13229 20.6096L8.13504 20.6121L8.13579 20.6127L8.13917 20.6156L8.13992 20.6163L8.14293 20.6191L8.14619 20.622L8.14706 20.6229L8.15019 20.6255L8.15107 20.6264L8.15383 20.6287L8.15483 20.6296L8.15808 20.6325H8.15883L8.16146 20.6349L8.16247 20.6358L8.16547 20.6384L8.16685 20.6395L8.16898 20.6415L8.17023 20.6425L8.17324 20.6452L8.17449 20.6463L8.17687 20.6484L8.17775 20.6492L8.18075 20.6518L8.18225 20.653L8.18438 20.655L8.18626 20.6567L8.18839 20.6586L8.18989 20.6598L8.19277 20.6623L8.19403 20.6634L8.19603 20.6652L8.19753 20.6664L8.20029 20.6689L8.20191 20.6702L8.20379 20.6718L8.20517 20.6732L8.20805 20.6756L8.20955 20.677L8.21143 20.6786L8.21344 20.6803L8.21569 20.6822L8.21719 20.6835L8.21932 20.6854L8.22145 20.6872L8.22333 20.6889L8.22496 20.6902L8.22709 20.6921L8.22934 20.6941C8.22997 20.6945 8.23047 20.695 8.23097 20.6955L8.2326 20.6969L8.23535 20.6993L8.23698 20.7006L8.23873 20.7021L8.24036 20.7036L8.24299 20.7059L8.24487 20.7074L8.24625 20.7086L8.24913 20.711L8.25063 20.7124L8.25251 20.714L8.25401 20.7153L8.25702 20.7178L8.25839 20.719L8.26027 20.7207L8.26153 20.7217L8.26491 20.7245L8.26603 20.7256L8.26791 20.7272L8.26942 20.7284L8.27242 20.7311L8.2738 20.7322L8.2768 20.7347L8.27831 20.7359L8.28019 20.7377L8.28144 20.7387L8.28482 20.7416L8.28595 20.7425L8.28795 20.7442L8.28908 20.7452L8.29258 20.7482L8.29371 20.7491L8.29571 20.7507L8.29684 20.7517L8.30022 20.7546L8.30135 20.7555L8.30348 20.7574H8.3041L8.30799 20.7607L8.30911 20.7616L8.31588 20.7673L8.31663 20.768L8.32364 20.7738H8.32427L8.32852 20.7774L8.3309 20.7793L8.33516 20.7829H8.33579L8.33804 20.7848L8.34218 20.7883C8.34243 20.7883 8.3428 20.7883 8.34305 20.7883L8.35007 20.7942L8.35708 20.7999L8.35795 20.8008L8.36184 20.8039L8.36259 20.8046L8.36484 20.8065H8.36559L8.3696 20.8098H8.37035L8.37261 20.8117L8.37674 20.8152L8.37774 20.816L8.38475 20.8217L8.39189 20.8276H8.39264L8.39703 20.8312L8.39941 20.8332L8.40404 20.837L8.40654 20.839L8.41143 20.843L8.41882 20.849L8.42608 20.8549C8.42859 20.857 8.43084 20.8589 8.43347 20.8609L8.44599 20.8712L8.45351 20.8773L8.4609 20.8833L8.46841 20.8892L8.48093 20.8995L8.48857 20.9055L8.49596 20.9114L8.50335 20.9173L8.51587 20.9273L8.52339 20.9333L8.5309 20.9393L8.53829 20.9452L8.5458 20.9511L8.55081 20.955L8.55845 20.961L8.56609 20.9669L8.57361 20.9726L8.57836 20.9764L8.58087 20.9784L8.5855 20.9819L8.58801 20.9838L8.59289 20.9875L8.60028 20.9932L8.60754 20.9987L8.60842 20.9994L8.6128 21.0027L8.61518 21.0044L8.61618 21.0052L8.62019 21.0083H8.62094L8.62332 21.0102L8.62796 21.0138L8.63522 21.0193H8.6361L8.64323 21.0249H8.64399L8.64849 21.0284L8.65075 21.0301L8.65175 21.0309L8.65551 21.0337L8.65663 21.0346L8.65876 21.0363H8.65964L8.66365 21.0393L8.66465 21.04L8.66678 21.0416L8.66765 21.0424L8.67166 21.0453L8.67279 21.0461L8.67968 21.0514L8.6808 21.0523L8.68444 21.055L8.68569 21.0558L8.68769 21.0574L8.68907 21.0584L8.69258 21.061L8.6937 21.0619L8.69583 21.0636L8.69721 21.0646L8.70034 21.0669L8.70197 21.0681L8.70385 21.0696L8.7056 21.0708L8.70861 21.0731L8.71011 21.0741L8.71224 21.0757L8.71474 21.0777L8.71675 21.0791L8.71825 21.0802L8.72113 21.0823L8.72288 21.0837L8.72501 21.0852L8.72626 21.0862L8.72965 21.0887L8.73115 21.0897L8.73303 21.0912L8.73465 21.0925L8.73753 21.0946C8.73816 21.095 8.73879 21.0954 8.73929 21.0959L8.74117 21.0971L8.7433 21.0987L8.7458 21.1006L8.74755 21.1019L8.74931 21.1033L8.75231 21.1054L8.75394 21.1066L8.75582 21.108L8.75745 21.1093L8.76033 21.1114L8.76221 21.1126L8.76408 21.1141L8.76634 21.1156C8.76709 21.1163 8.76784 21.1169 8.76872 21.1174L8.77035 21.1187L8.77273 21.1204L8.7746 21.1218L8.77686 21.1234L8.77849 21.1247L8.78162 21.1269L8.78274 21.1278L8.78537 21.1297L8.78663 21.1306L8.78988 21.1329L8.79126 21.1339L8.79351 21.1356L8.79489 21.1366L8.79802 21.1389L8.79952 21.1399L8.8019 21.1417L8.80316 21.1426L8.80641 21.145L8.80766 21.1458L8.81029 21.1478L8.81205 21.149L8.81468 21.1508L8.81593 21.1518L8.81931 21.1542L8.82031 21.155L8.82307 21.157L8.8242 21.1579L8.82758 21.1602L8.8287 21.1611L8.83146 21.163L8.83246 21.1637L8.83584 21.1662L8.83697 21.167L8.83997 21.1691H8.84073C8.84185 21.17 8.84298 21.1709 8.84423 21.1716L8.84536 21.1725L8.84887 21.175L8.85262 21.1776L8.85362 21.1784L8.85726 21.181L8.86076 21.1834H8.86164L8.86527 21.186L8.8689 21.1885L8.87279 21.1913L8.87642 21.1939L8.8803 21.1967L8.88806 21.2022L8.89207 21.2049L8.89583 21.2077H8.89645L8.90034 21.2105L8.90422 21.2132L8.90823 21.216L8.91624 21.2216L8.92426 21.2271L8.9324 21.2329L8.95744 21.2505L9.33314 20.7079C8.99814 20.4758 8.6808 20.2192 8.38363 19.9403L8.40705 19.9673ZM10.409 21.3521L10.1186 21.9452C10.1792 21.9749 10.2403 22.0042 10.3018 22.0329L10.3107 22.0369L10.319 22.0407H10.3202L10.3282 22.0445H10.3295L10.3336 22.0464H10.335L10.3374 22.0475H10.3388L10.3426 22.0493L10.3444 22.05L10.3465 22.051L10.3483 22.0519L10.3517 22.0534L10.3537 22.0543L10.3557 22.0551L10.3579 22.0563L10.3605 22.0574L10.3632 22.0585L10.3648 22.0593L10.3683 22.0609H10.3694L10.3726 22.0624H10.3739L10.3777 22.064L10.379 22.0647L10.3818 22.0659H10.3833L10.3871 22.0677H10.3881L10.3915 22.069H10.3924L10.3964 22.0708H10.3975L10.4007 22.0723H10.4017L10.4059 22.0742H10.4068L10.4104 22.0758L10.4145 22.0777H10.4154L10.4194 22.0794L10.4238 22.0814L10.4326 22.0853L10.4414 22.0892L10.4505 22.0932C10.7406 22.2207 11.0374 22.3323 11.3396 22.4277L11.5384 21.7984C11.1514 21.6779 10.7738 21.5288 10.409 21.3521ZM12.7287 22.0846L12.6264 22.7365H12.6273H12.6284L12.6331 22.7373H12.6349H12.6375H12.6389H12.6434H12.645H12.6477H12.6493H12.6536H12.6553H12.6578H12.6594L12.664 22.738H12.6653H12.6681H12.6695L12.6745 22.7388H12.6756H12.6784H12.6796L12.6886 22.74H12.6897L12.6989 22.7414H12.6998L12.7093 22.7428H12.71L12.7196 22.7442H12.7228L12.7293 22.7451H12.7326L12.7427 22.7466L12.7735 22.7509C13.1599 22.8048 13.5493 22.8332 13.9394 22.8361L13.9443 22.176C13.5367 22.173 13.1299 22.1399 12.7272 22.0769L12.7287 22.0846ZM16.3564 21.8424C15.9662 21.9588 15.5678 22.046 15.1647 22.103L15.2571 22.7564C15.299 22.7506 15.3412 22.7439 15.3824 22.7378L15.3924 22.7362L15.4024 22.7345L15.4089 22.7335H15.4121H15.4128L15.4223 22.732H15.4231L15.4293 22.731H15.4323H15.4333L15.4394 22.73H15.4424H15.4434L15.4486 22.7291H15.4497H15.4525H15.4539L15.4588 22.7283H15.46H15.4626H15.4644H15.4684H15.4704H15.4728H15.4748H15.4784H15.4806H15.4831H15.4851H15.4886H15.491H15.4932H15.4953H15.4988H15.5011H15.5035H15.5056H15.5087H15.5115H15.5136H15.5161H15.5179L15.5218 22.7275H15.5238H15.5264H15.5283H15.532H15.5339H15.5368H15.5383L15.5423 22.7268H15.544H15.5472H15.5484H15.5526H15.5542H15.5574H15.5587L15.5627 22.726H15.5645H15.5677H15.5688L15.5731 22.7253H15.5745H15.5781H15.579L15.5832 22.7245H15.5847L15.5885 22.7238L15.593 22.723H15.5941L15.5982 22.7223L15.6027 22.7214H15.6038L15.6078 22.7208L15.6123 22.7199H15.6133L15.6177 22.719L15.6224 22.7181H15.6233L15.6327 22.7164H15.6333L15.6429 22.7146L15.6526 22.7127L15.6623 22.7109L15.672 22.709L15.6821 22.7071C15.9713 22.6515 16.2576 22.5814 16.5399 22.497L16.3509 21.8647L16.3564 21.8424ZM18.5571 20.8046C18.2186 21.031 17.8639 21.232 17.4955 21.4057L17.7771 22.0027C17.9933 21.9007 18.2045 21.7904 18.4107 21.6717C18.4214 21.6657 18.4319 21.6592 18.4424 21.6534L18.4509 21.6485L18.4592 21.6438C18.4621 21.6421 18.4646 21.6407 18.4674 21.639L18.4727 21.6359L18.4755 21.6342C18.4772 21.6334 18.4787 21.6324 18.4805 21.6314H18.4813L18.4838 21.6299L18.4886 21.627H18.4896L18.4973 21.6223H18.4984L18.506 21.6178H18.5071L18.5114 21.6153H18.5123L18.5147 21.6139L18.5158 21.6133L18.5198 21.6109L18.5211 21.6102L18.5232 21.6088L18.5248 21.6079L18.5282 21.6059L18.5298 21.6049L18.532 21.6037L18.534 21.6024L18.5369 21.6008L18.5386 21.5997L18.5406 21.5985L18.5437 21.5967L18.5454 21.5957L18.5475 21.5944L18.5493 21.5933L18.5524 21.5914L18.5543 21.5904L18.5563 21.5892L18.558 21.5882L18.5612 21.5861L18.5629 21.5851L18.5652 21.5838L18.5672 21.5826L18.5699 21.5809L18.5715 21.5799L18.5741 21.5784L18.5762 21.5771L18.5787 21.5756L18.5802 21.5746L18.5834 21.5727L18.5848 21.5719L18.5876 21.5702L18.589 21.5694L18.5925 21.5672L18.5935 21.5666L18.5963 21.5649L18.5976 21.5641L18.6011 21.562L18.6022 21.5612L18.6052 21.5595H18.6062L18.6099 21.5573L18.6111 21.5566L18.6141 21.5547H18.6149L18.6185 21.5525L18.6198 21.5517L18.6229 21.5498H18.6239L18.6273 21.5477H18.6284L18.6322 21.5453L18.6355 21.5432H18.6365L18.6403 21.5409H18.6411L18.6442 21.5391L18.6453 21.5383L18.6489 21.5361H18.6498L18.6531 21.5341H18.654L18.6577 21.5317H18.6586L18.662 21.5295L18.6657 21.5272H18.6666L18.6745 21.5222H18.6752L18.6792 21.5196L18.6834 21.5171L18.6874 21.5146L18.6913 21.5121L18.6953 21.5095L18.6994 21.5069L18.7037 21.5042L18.7121 21.4991L18.7203 21.4939L18.7287 21.4885L18.7372 21.4831C18.798 21.4445 18.8582 21.4052 18.9179 21.3652L18.5506 20.8168L18.5571 20.8046ZM20.3574 19.1648C20.0999 19.4807 19.8195 19.7772 19.5183 20.0517L19.9628 20.5401C20.2882 20.2437 20.5913 19.9234 20.8693 19.5822L20.3575 19.1653L20.3574 19.1648ZM21.5972 17.0704C21.4441 17.4478 21.2632 17.8133 21.0557 18.1637L21.6236 18.5C21.657 18.4436 21.6898 18.3866 21.722 18.3293C21.7231 18.3273 21.724 18.3256 21.7252 18.3237L21.7267 18.321L21.7292 18.3163L21.7299 18.3152L21.7312 18.3128L21.732 18.3112L21.7339 18.3078L21.7349 18.3062L21.736 18.3041L21.7374 18.3017L21.7389 18.299C21.7392 18.2984 21.7396 18.2978 21.7399 18.2972C21.7403 18.2964 21.7407 18.2958 21.7411 18.2952L21.7427 18.2922L21.7438 18.2902C21.7442 18.2895 21.7446 18.2889 21.7448 18.2883L21.7459 18.2864L21.7477 18.2831L21.7487 18.2814L21.7501 18.279L21.7508 18.2775L21.7527 18.274L21.7535 18.2727L21.7552 18.2696V18.2685L21.7571 18.265V18.2639L21.7592 18.26L21.7612 18.2563V18.2553L21.7633 18.2515C21.764 18.2502 21.7646 18.2491 21.7654 18.2479V18.2471L21.7676 18.2431V18.2424C21.7684 18.2413 21.769 18.2401 21.7697 18.2388L21.772 18.2347V18.234L21.7741 18.2302L21.7764 18.2259L21.781 18.2173L21.7858 18.2085C21.8658 18.0607 21.9417 17.9104 22.0133 17.7577C22.0148 17.7547 22.0162 17.7515 22.0177 17.7485C22.0191 17.7454 22.0205 17.7424 22.022 17.7394L22.0261 17.7304C22.0275 17.7275 22.0287 17.7246 22.0301 17.7216C22.0301 17.7201 22.0315 17.7187 22.0321 17.7172L22.0341 17.713V17.7122L22.0361 17.7081V17.7074L22.0379 17.7037V17.7028L22.0397 17.6987V17.6979C22.0397 17.6967 22.0409 17.6954 22.0415 17.6942L22.0434 17.6902V17.6892C22.0434 17.6879 22.0444 17.6868 22.045 17.6855V17.6848L22.0467 17.6808V17.6798L22.0485 17.676V17.6753C22.049 17.674 22.0495 17.6728 22.0501 17.6716V17.6703C22.0501 17.6691 22.0511 17.6679 22.0518 17.6666V17.6652C22.0521 17.6642 22.0526 17.6632 22.0531 17.6624C22.0533 17.6619 22.0535 17.6614 22.0538 17.6609L22.0554 17.6571V17.656L22.0566 17.653V17.6516L22.0584 17.6478L22.059 17.6465C22.0595 17.6456 22.0599 17.6446 22.0603 17.6436C22.0603 17.6431 22.0603 17.6427 22.0603 17.6422C22.0603 17.6409 22.0614 17.6398 22.0619 17.6386L22.0628 17.6369L22.0638 17.6344C22.064 17.6339 22.0643 17.6334 22.0645 17.6328L22.066 17.6294L22.067 17.6273C22.0673 17.6267 22.0675 17.626 22.0679 17.6254L22.0692 17.6224L22.0703 17.62L22.0712 17.618L22.0722 17.6159L22.0735 17.6126C22.0735 17.6126 22.0742 17.6115 22.0744 17.6109C22.0747 17.6101 22.0751 17.6094 22.0754 17.6086L22.0762 17.6068L22.0778 17.6033L22.0786 17.6015C22.0789 17.6007 22.0793 17.6 22.0796 17.5992C22.0799 17.5986 22.0802 17.598 22.0804 17.5972L22.0821 17.5937C22.0821 17.5932 22.0821 17.5929 22.0821 17.5924L22.0856 17.5843V17.5831L22.0891 17.5748C22.0891 17.5746 22.0891 17.5742 22.0891 17.5739L22.0928 17.5654C22.1279 17.4858 22.1618 17.4055 22.1947 17.3245L21.5829 17.0766L21.5972 17.0704ZM22.1627 14.7035C22.128 15.1094 22.0633 15.512 21.9689 15.9082L22.6108 16.0615C22.6434 15.9254 22.6725 15.788 22.6985 15.6496C22.6992 15.6462 22.6997 15.6434 22.7003 15.64V15.6392L22.7015 15.6331C22.7015 15.6321 22.7015 15.6311 22.7015 15.6301C22.7015 15.6301 22.7015 15.6295 22.7015 15.6291C22.7015 15.6287 22.7022 15.6251 22.7025 15.6232C22.7025 15.6223 22.7025 15.6213 22.7025 15.6204C22.7025 15.6196 22.7025 15.6194 22.7025 15.6189C22.7025 15.6184 22.7025 15.6157 22.7033 15.6141V15.6129C22.7033 15.6121 22.7033 15.6112 22.7033 15.6103C22.7033 15.6094 22.7033 15.6093 22.7033 15.6088C22.7033 15.6083 22.7033 15.6053 22.7043 15.6035C22.7043 15.6033 22.7043 15.603 22.7043 15.6028C22.7043 15.6019 22.7043 15.6012 22.7043 15.6003C22.7043 15.5997 22.7043 15.599 22.7043 15.5984C22.7043 15.5977 22.7043 15.5968 22.7043 15.596C22.7043 15.5949 22.7043 15.5936 22.7043 15.5925V15.5903V15.5881C22.7043 15.5873 22.7043 15.5869 22.7043 15.586L22.7051 15.5824C22.7051 15.5816 22.7051 15.581 22.7051 15.5802V15.5779C22.7051 15.577 22.7051 15.5767 22.7051 15.5759C22.7051 15.575 22.7051 15.5734 22.7051 15.5721V15.5704C22.7051 15.5693 22.7051 15.5685 22.7051 15.5675V15.566L22.7058 15.562C22.7058 15.5613 22.7058 15.5607 22.7058 15.5602C22.7058 15.5597 22.7058 15.5583 22.7058 15.5575V15.5557C22.7058 15.5543 22.7058 15.5529 22.7058 15.5517V15.5503C22.7058 15.5493 22.7058 15.5482 22.7058 15.5472C22.7057 15.5467 22.7057 15.5462 22.7058 15.5457L22.7066 15.5414V15.5403C22.7066 15.5392 22.7066 15.5379 22.7066 15.5368V15.5355L22.7074 15.5312C22.7074 15.5298 22.7074 15.5285 22.7074 15.5273C22.7074 15.5269 22.7074 15.5265 22.7074 15.5261L22.7081 15.5216L22.7089 15.5173V15.5163C22.7089 15.5132 22.7099 15.5101 22.7105 15.507V15.5061C22.7105 15.503 22.7115 15.4998 22.7121 15.4967V15.4961C22.7121 15.4928 22.7131 15.4897 22.7137 15.4864C22.7137 15.4832 22.7149 15.4799 22.7154 15.4767C22.7154 15.4733 22.7165 15.47 22.717 15.4668C22.7534 15.2484 22.7817 15.0273 22.8019 14.8038C22.8019 14.802 22.8019 14.8004 22.8019 14.7987C22.8019 14.7969 22.8019 14.7952 22.8019 14.7935V14.7887V14.7838V14.7795C22.8019 14.7793 22.8019 14.7789 22.8019 14.7786V14.774V14.7732V14.7692C22.802 14.7689 22.802 14.7685 22.8019 14.7681V14.7637L22.1443 14.7077L22.1627 14.7035ZM22.6559 12.135L22.0106 12.2735C22.0958 12.6718 22.1513 13.076 22.1767 13.4826L22.8355 13.4415C22.8298 13.3511 22.8228 13.2611 22.8146 13.1714C22.8146 13.168 22.8146 13.1645 22.8135 13.1611C22.8135 13.1577 22.8135 13.1544 22.8125 13.151V13.1464V13.1415V13.1371V13.1365V13.1317V13.1309V13.1269V13.1243C22.8125 13.1228 22.8125 13.1213 22.8125 13.1197V13.1189V13.115C22.8124 13.1147 22.8124 13.1142 22.8125 13.1138C22.8125 13.1124 22.8125 13.1109 22.8125 13.1094C22.8125 13.109 22.8125 13.1088 22.8125 13.1084C22.8125 13.1072 22.8125 13.106 22.8125 13.1048V13.1035V13.099V13.095C22.8125 13.095 22.8125 13.094 22.8125 13.0938V13.0895V13.0884V13.0849C22.8125 13.0849 22.8125 13.0839 22.8125 13.0832C22.8125 13.0826 22.8125 13.0809 22.8125 13.0796C22.8124 13.079 22.8124 13.0785 22.8125 13.0778V13.0746C22.8125 13.0746 22.8125 13.0733 22.8125 13.0727V13.0697C22.8125 13.069 22.8125 13.0682 22.8125 13.0675V13.0643C22.8125 13.0637 22.8125 13.0629 22.8125 13.0623V13.0597C22.8125 13.0588 22.8125 13.0579 22.8125 13.0571V13.0539C22.8125 13.0533 22.8125 13.0526 22.8125 13.0519C22.8125 13.051 22.8125 13.0503 22.8125 13.0494V13.0468V13.0435C22.8125 13.0429 22.8125 13.0423 22.8125 13.0417V13.039C22.8125 13.0381 22.8125 13.0375 22.8125 13.0368V13.0334C22.8125 13.0326 22.8125 13.0318 22.8125 13.031C22.8125 13.031 22.8125 13.0298 22.8125 13.029V13.0255C22.8125 13.0247 22.8125 13.0239 22.8125 13.0231V13.0206C22.8125 13.0206 22.8125 13.0194 22.8125 13.0187V13.0159V13.0127V13.0102V13.0085V13.0051C22.8125 13.0042 22.8125 13.0032 22.8125 13.0023C22.8124 13.0015 22.8124 13.0007 22.8125 12.9998V12.9981C22.8125 12.9972 22.8125 12.9963 22.8125 12.9956C22.8125 12.9948 22.8125 12.9944 22.8125 12.9939V12.9894C22.8125 12.9894 22.8125 12.9883 22.8125 12.9878V12.9852C22.8125 12.9848 22.8125 12.9843 22.8125 12.9839C22.8125 12.9822 22.8125 12.9808 22.8125 12.979C22.8125 12.9773 22.8125 12.978 22.8125 12.9775C22.8125 12.9765 22.8125 12.9757 22.8125 12.9747C22.8125 12.973 22.8125 12.9706 22.8119 12.9689C22.8113 12.9671 22.8119 12.9689 22.8119 12.968V12.9649L22.8112 12.959C22.8113 12.9586 22.8113 12.9584 22.8112 12.958C22.8112 12.9567 22.8112 12.956 22.8112 12.9549C22.8112 12.9525 22.8112 12.9506 22.8104 12.9482V12.945L22.8097 12.9386V12.9353C22.8097 12.933 22.8097 12.9311 22.8089 12.9288V12.9254C22.8089 12.9219 22.8082 12.9189 22.8077 12.9154C22.8077 12.912 22.8069 12.9088 22.8064 12.9054C22.8064 12.9019 22.8055 12.8988 22.8052 12.8953C22.8052 12.8918 22.8043 12.8886 22.8039 12.8851C22.8039 12.8817 22.8032 12.8786 22.8027 12.8751C22.8027 12.8716 22.8018 12.8683 22.8013 12.865C22.7698 12.6201 22.7284 12.3784 22.6772 12.1401L22.6559 12.135ZM21.725 9.67503L21.149 9.99825C21.3483 10.3534 21.5208 10.7229 21.665 11.1037L22.2824 10.87C22.2682 10.8324 22.2535 10.7949 22.2389 10.7573L22.2366 10.7515L22.2355 10.7485C22.2355 10.7466 22.234 10.7448 22.2333 10.7429V10.742L22.2322 10.7393V10.7386L22.2302 10.7337V10.7322C22.2298 10.7315 22.2295 10.7307 22.2292 10.7299V10.7289L22.2273 10.7242V10.7227C22.2273 10.722 22.2273 10.7212 22.2265 10.7203C22.2256 10.7195 22.2258 10.7187 22.2255 10.7178L22.2242 10.7148V10.7131C22.2242 10.7121 22.2242 10.7116 22.2231 10.7105L22.222 10.7076L22.2212 10.7056L22.2202 10.7033L22.2193 10.7009C22.2193 10.6999 22.2184 10.6989 22.2181 10.6981C22.2178 10.6974 22.2176 10.6967 22.2173 10.696L22.2163 10.6935L22.2154 10.6913C22.2154 10.6903 22.2146 10.6894 22.2142 10.6884C22.2138 10.6874 22.2142 10.6872 22.2136 10.6867L22.2121 10.683V10.682L22.2107 10.6788V10.6773L22.2092 10.6734V10.6725L22.2077 10.669C22.2077 10.6686 22.2077 10.6682 22.2077 10.6679L22.2059 10.6637C22.2059 10.6637 22.2059 10.6637 22.2059 10.6631L22.2044 10.6592V10.6585C22.2044 10.6571 22.2033 10.6556 22.2027 10.6542V10.6535L22.201 10.6496V10.649C22.201 10.6476 22.1999 10.6461 22.1993 10.6446L22.1975 10.6402L22.1957 10.6357L22.1919 10.6265C22.1905 10.6234 22.1893 10.6203 22.188 10.6173C22.0545 10.2954 21.902 9.98185 21.7313 9.67803L21.725 9.67503ZM20.1108 7.59817L19.6553 8.07581C19.9502 8.35721 20.2239 8.65989 20.4742 8.98162L20.9952 8.57649C20.8727 8.41895 20.7451 8.26579 20.6123 8.11689L20.6057 8.10937L20.5992 8.10223V8.10161L20.5929 8.09459V8.09397L20.588 8.08996C20.5872 8.08883 20.5862 8.08783 20.5853 8.08683L20.5845 8.08608C20.5835 8.08495 20.5827 8.08382 20.5817 8.08282L20.5809 8.08195L20.5784 8.07919V8.07844L20.5755 8.07531L20.5746 8.07431L20.5723 8.07168L20.5714 8.07067L20.5686 8.06779L20.5676 8.06654L20.5651 8.06379L20.5641 8.06279L20.5619 8.06016L20.5607 8.05903L20.5582 8.05615L20.557 8.0549L20.555 8.05264L20.5539 8.05139L20.5513 8.04863L20.55 8.04713L20.5482 8.04525L20.547 8.04388L20.5446 8.04124L20.543 8.03949L20.5416 8.03786L20.5393 8.03548L20.5377 8.03361L20.5361 8.03198L20.5348 8.03048C20.5338 8.02947 20.5329 8.02847 20.5321 8.02747L20.5309 8.02634C20.5304 8.02572 20.5298 8.02509 20.5292 8.02446L20.5282 8.02334L20.5252 8.01996L20.5242 8.01895L20.5182 8.01244L20.5174 8.01156L20.5113 8.00493V8.0043L20.5071 7.99992L20.505 7.99754L20.5009 7.99303L20.4944 7.98602L20.4877 7.97888C20.3666 7.84864 20.2418 7.72215 20.1129 7.59942L20.1108 7.59817ZM17.9592 6.08499L17.664 6.67483C18.0283 6.8573 18.3784 7.06656 18.7117 7.301L19.0914 6.76112C18.9122 6.63501 18.7281 6.51554 18.5391 6.40245L18.5305 6.39732L18.5217 6.39218L18.4908 6.3739L18.4819 6.36864L18.4732 6.3635L18.4689 6.361L18.4511 6.35073L18.4423 6.3456L18.4335 6.34046L18.4025 6.32255L18.3937 6.31754L18.3849 6.31253L18.3761 6.3074L18.3627 6.29976L18.3539 6.29475L18.345 6.28987L18.3361 6.28486L18.3273 6.27997L18.3139 6.27246L18.3051 6.26745L18.2963 6.26257L18.2875 6.25768L18.2788 6.25292L18.2699 6.24804L18.2655 6.24566L18.257 6.24103L18.2484 6.23639L18.2398 6.23163L18.2308 6.22675L18.2219 6.22187L18.2175 6.21949L18.2087 6.21473L18.2 6.21009L18.1913 6.20546L18.187 6.20308L18.1827 6.2007L18.1783 6.19845L18.1743 6.19632L18.1702 6.19406H18.1694L18.1654 6.19181L18.1612 6.18956H18.1604L18.1523 6.18517H18.1513L18.143 6.18079H18.1422L18.1381 6.17854L18.1342 6.17653H18.1334L18.1294 6.17453H18.1285L18.1251 6.17278H18.1242L18.1203 6.17077L18.1193 6.17015L18.1161 6.16852H18.1152L18.1113 6.16651L18.1101 6.16589L18.1068 6.16413H18.1058L18.1023 6.16226L18.101 6.16163L18.0972 6.15963H18.0964L18.093 6.15787L18.0834 6.14886L18.0795 6.14685H18.0785L18.0754 6.14522L18.0741 6.1446L18.0705 6.14272L18.0691 6.14209L18.0662 6.14059L18.0651 6.13996L18.0613 6.13796L18.0601 6.13733L18.0571 6.13583L18.056 6.13521L18.0523 6.13333L18.0507 6.13258L18.0479 6.13107L18.0463 6.13032L18.0433 6.12869L18.0417 6.12782L18.0386 6.12631L18.0369 6.12544L18.0342 6.12406L18.0324 6.12318L18.029 6.12143L18.0274 6.12055L18.0252 6.11943L18.0233 6.11855L18.02 6.1168L18.0181 6.11579L18.0161 6.11479L18.0139 6.11367L18.0109 6.11216L18.009 6.11116L18.007 6.11016L18.004 6.10866L18.0019 6.10753L17.9997 6.10653L17.9982 6.10565L17.9941 6.10365L17.993 6.10302L17.9905 6.10177H17.9893L17.9851 6.09964L17.984 6.09901L17.9813 6.09776L17.9762 6.09513H17.9753L17.9669 6.09087L17.96 6.08749L17.9592 6.08499ZM15.4573 5.27386L15.3499 5.92507C15.7517 5.99131 16.1478 6.08762 16.5351 6.2131L16.7388 5.58531C16.6537 5.55776 16.5686 5.53158 16.4824 5.50654L16.4732 5.50391H16.4724L16.4636 5.50128H16.4623L16.458 5.50015H16.4564L16.454 5.4994H16.4522L16.449 5.49852L16.4465 5.49777L16.4442 5.49715L16.4422 5.49652L16.4393 5.49577L16.4365 5.49489H16.4346L16.4319 5.49414H16.4303L16.4266 5.49301H16.4248L16.4221 5.49226H16.4206L16.4165 5.49113H16.4152L16.4119 5.49026H16.4108L16.4067 5.48913H16.4054L16.4016 5.48813H16.401L16.3966 5.48688H16.3956L16.3915 5.48575L16.387 5.4845H16.386L16.3816 5.48337L16.3768 5.48199L16.3673 5.47936L16.3577 5.47673L16.3479 5.47398C16.0551 5.39395 15.7583 5.32921 15.4588 5.27987L15.4573 5.27386Z" fill="#FF922E"/>
<path d="M13.9998 4.05874C19.4724 4.06625 23.9026 8.50875 23.8951 13.9813C23.8876 19.4538 19.4451 23.8841 13.9725 23.8765C8.49998 23.869 4.06976 19.4265 4.07727 13.954C4.08278 9.97648 6.46608 6.38769 10.1301 4.83981C11.3543 4.32172 12.6705 4.05611 13.9998 4.05874ZM13.9998 3.89355C8.41821 3.89355 3.89355 8.41833 3.89355 13.9998C3.89355 19.5813 8.41833 24.1061 13.9998 24.1061C19.5813 24.1061 24.1061 19.5813 24.1061 13.9998C24.1061 8.41833 19.5813 3.89355 13.9998 3.89355Z" fill="#F7FAF6"/>
<path d="M13.9999 4.66701C19.1381 4.67377 23.298 8.84477 23.2911 13.9831C23.2842 19.1214 19.1134 23.2812 13.9751 23.2743C8.83677 23.2674 4.67692 19.0966 4.6838 13.9583C4.68881 10.2235 6.92659 6.8537 10.367 5.40037C11.5162 4.91397 12.7519 4.6645 13.9999 4.66701ZM13.9999 4.50195C8.75361 4.50195 4.50146 8.75398 4.50146 14.0002C4.50146 19.2465 8.75361 23.4986 13.9999 23.4986C19.2461 23.4986 23.4982 19.2461 23.4982 14.0002C23.4982 8.75435 19.2457 4.50195 13.9999 4.50195Z" fill="#F7FAF6"/>
<path d="M18.6372 17.5783C18.5474 17.551 18.4424 17.5728 18.3491 17.7309L16.9281 17.7347L16.7277 18.2909C16.6832 18.4144 16.5659 18.4968 16.4347 18.4968L16.7093 17.7354H16.5013L16.301 18.2904C16.2564 18.414 16.1392 18.4963 16.0078 18.4963L16.2822 17.736H16.074L15.8737 18.2898C15.8292 18.4134 15.712 18.4957 15.5806 18.4957L15.8545 17.7365L14.3224 17.7408H13.2757C13.3144 17.594 13.4472 17.4917 13.5989 17.4917H14.3929L15.6095 13.2002H13.4654C12.9068 14.9814 12.3482 16.9919 11.7896 18.82C11.6954 19.1282 11.9239 19.5074 12.2462 19.511C14.224 19.5333 16.2018 19.4886 18.1796 19.511C18.2925 19.5123 18.3921 19.437 18.4216 19.3281L18.8099 17.9004C18.8464 17.7652 18.7722 17.6194 18.6372 17.5783Z" fill="#FF922E"/>
<path d="M16.9456 8.49084L16.947 8.48633H14.7498C14.5444 8.48633 14.3779 8.65289 14.3779 8.85827H15.4695L15.4686 8.86052C15.4178 8.99803 15.2886 9.09095 15.1419 9.09521L14.723 9.10773C14.5347 9.72112 14.3462 10.3345 14.1577 10.948H16.2491L16.8414 8.85827H16.8993C16.995 8.85827 17.0795 8.78851 17.09 8.69346C17.1009 8.59891 17.0386 8.5115 16.9456 8.49084Z" fill="url(#paint0_linear_2_5921)"/>
<path d="M18.6995 11.6596C18.6983 11.641 18.6968 11.622 18.6952 11.6041C18.5792 10.3116 17.4804 9.3291 16.1822 9.3291H12.4253C12.1132 9.32898 11.8343 9.52421 11.7276 9.81751L11.4319 10.5325H11.1043C10.878 10.5325 10.6645 10.6375 10.5266 10.817H12.3866C12.5498 10.8187 12.7116 10.8212 12.8722 10.8246C13.0879 10.8294 13.2588 11.008 13.2541 11.2235C13.2537 11.2409 13.2522 11.2583 13.2494 11.2756L12.8111 12.4795H12.6045L13.0229 11.3197H12.8913L12.473 12.4795H12.2087L12.6275 11.3197C11.9362 11.3064 11.3763 11.2931 10.685 11.2798C10.5184 11.2767 10.3643 11.3679 10.2868 11.5154V11.5167C10.2539 11.5794 10.2298 11.6463 10.2153 11.7155C10.1925 11.8241 10.2829 11.9257 10.3929 11.911H10.3961C10.516 11.8934 10.5674 11.7879 10.5715 11.7798H11.7749C11.7749 11.8766 11.6964 11.9551 11.5996 11.9551H10.9709C10.0996 14.5454 9.48894 16.4108 9.23547 16.988C8.9795 17.5712 9.1979 17.803 9.38275 17.8939C9.46264 17.9322 9.55031 17.9517 9.63897 17.9509H11.2268L12.2819 14.8654H11.9708C11.8016 14.8654 11.6645 14.7283 11.6645 14.5591H13.4373C14.1887 15.6167 14.9401 16.6853 15.6915 17.743C16.4136 17.743 17.1356 17.732 17.858 17.732L15.3508 14.3608L16.1792 14.3832C17.4202 14.3832 18.4888 13.4842 18.675 12.2573C18.7051 12.0595 18.7133 11.8591 18.6995 11.6596ZM12.3227 12.8942L12.0799 12.8952C12.1193 12.7859 12.1589 12.6764 12.1983 12.567H12.4408L12.3227 12.8942ZM12.6598 12.8923H12.4764L12.594 12.5667H12.7784L12.6598 12.8923ZM13.7448 12.8923C13.5085 12.891 13.22 12.8906 12.879 12.8911L12.9972 12.5664H13.8631L13.7448 12.8923ZM13.0291 12.4791L13.4388 11.3554C13.7903 11.3602 14.0816 11.3621 14.2969 11.3629L13.894 12.4791H13.0291ZM14.1595 12.8959L14.0493 12.8948L13.9631 12.8941L14.0813 12.5666H14.2782L14.1595 12.8959ZM14.1135 12.4795L14.5162 11.3636C14.5857 11.3636 14.6512 11.3636 14.7129 11.3636L14.3104 12.4791L14.1135 12.4795ZM15.2531 12.6984C14.9526 12.8501 14.6737 12.8872 14.3791 12.8947L14.4974 12.567C14.6835 12.5768 14.8701 12.5768 15.0562 12.567C15.333 12.5525 15.4585 12.524 15.5814 12.4577C15.6337 12.4294 15.6831 12.3958 15.7285 12.3575C15.5889 12.4955 15.4285 12.6107 15.2531 12.699V12.6984ZM15.8659 12.0637C15.8158 12.2534 15.6205 12.3437 15.5153 12.3919C15.3747 12.4568 15.2523 12.4653 15.0119 12.4796C14.8509 12.4892 14.6896 12.4892 14.5286 12.4796L14.93 11.3669C14.9843 11.3577 15.4171 11.2917 15.6903 11.5824C15.7277 11.622 15.9266 11.8329 15.8659 12.0637Z" fill="#FF922E"/>
<path d="M14.2973 11.363C14.082 11.3622 13.7907 11.3604 13.4392 11.3555L13.0295 12.4792H13.8944L14.2973 11.363ZM13.1711 12.3801L13.5082 11.4555C13.7262 11.4583 13.9435 11.4603 14.1564 11.4614L13.8255 12.3801H13.1711Z" fill="white"/>
<path d="M12.4768 12.8924L12.6603 12.8918L12.7789 12.5664H12.5944L12.4768 12.8924Z" fill="white"/>
<path d="M12.0802 12.8946L12.323 12.8936L12.4411 12.5664H12.1987C12.1592 12.6759 12.1198 12.7853 12.0802 12.8946ZM12.268 12.6655H12.2999L12.2531 12.7948H12.2212L12.268 12.6655Z" fill="white"/>
<path d="M18.7986 11.6516C18.7972 11.6325 18.7957 11.6133 18.794 11.5943C18.7355 10.9453 18.4334 10.3424 17.9484 9.90726C17.4641 9.4702 16.835 9.2285 16.1826 9.229H12.4256C12.0727 9.22963 11.7575 9.44966 11.6353 9.78065L11.4883 10.1363L11.3658 10.4325H11.1044C10.8476 10.4332 10.6055 10.5525 10.4482 10.7556L10.3255 10.9151H12.3867C12.5459 10.9169 12.7089 10.9194 12.8703 10.9228C12.9544 10.9239 13.0338 10.962 13.0873 11.0268C13.1326 11.0809 13.1569 11.1497 13.1555 11.2203H12.8218L12.7982 11.2857L12.4034 12.38H12.3496L12.5029 11.9557L12.7206 11.3529L12.7675 11.223L12.6298 11.2203C12.2826 11.2136 11.9687 11.2069 11.6545 11.2003C11.343 11.1937 11.0314 11.187 10.6873 11.1804H10.6769C10.4765 11.1799 10.2926 11.291 10.1995 11.4684C10.1621 11.5394 10.1348 11.6153 10.1181 11.6938C10.1016 11.7715 10.1212 11.8525 10.1715 11.914C10.2202 11.9749 10.2939 12.0102 10.3718 12.0103C10.3832 12.0103 10.3948 12.0094 10.406 12.0079L10.4118 12.0072C10.4973 11.9935 10.5742 11.9468 10.6256 11.877H10.8931L10.878 11.9215C10.7091 12.4238 10.5499 12.8983 10.4013 13.3424C9.79 15.1668 9.34831 16.4849 9.14581 16.9461C8.85088 17.6178 9.14092 17.8826 9.33992 17.9806C9.43372 18.0257 9.53653 18.0486 9.64048 18.0479H11.2978L11.3207 17.9809L12.3757 14.8954L12.4205 14.7649H11.9709C11.895 14.7649 11.8252 14.7233 11.7888 14.6567H13.3859C13.7519 15.172 14.1233 15.6976 14.4828 16.2065C14.8365 16.7068 15.2014 17.2232 15.5616 17.7304H15.6831C14.9343 16.6763 14.1857 15.6116 13.437 14.5576H11.6646C11.6646 14.7268 11.8017 14.864 11.9709 14.864H12.282L11.2269 17.9494H9.6391C9.55043 17.9503 9.46277 17.9308 9.38287 17.8925C9.19841 17.8015 8.97962 17.5697 9.2356 16.9865C9.48907 16.4093 10.0997 14.5445 10.9711 11.9537H11.599C11.6958 11.9537 11.7743 11.8752 11.7743 11.7784H10.5708C10.5671 11.7865 10.5156 11.8919 10.3955 11.9096H10.3922C10.3852 11.9106 10.3782 11.9111 10.3711 11.9111C10.2812 11.9096 10.2095 11.8355 10.211 11.7456C10.2112 11.735 10.2124 11.7244 10.2147 11.7141C10.2292 11.6449 10.2532 11.578 10.2862 11.5153V11.514C10.3622 11.3691 10.5123 11.2783 10.6759 11.2783H10.6844C11.3757 11.2916 11.9356 11.3049 12.6269 11.3181L12.2081 12.4779H12.4731L12.8916 11.3181H13.0229L12.6045 12.4779H12.8112L13.2496 11.2741C13.2832 11.061 13.138 10.861 12.925 10.8273C12.9075 10.8246 12.8899 10.823 12.8722 10.8226C12.7117 10.8192 12.5498 10.8167 12.3866 10.815H10.5267C10.665 10.6361 10.8784 10.5317 11.1044 10.532H11.4321L11.7276 9.81722C11.8343 9.52393 12.1132 9.32869 12.4253 9.32881H16.1823C17.48 9.32881 18.5792 10.3113 18.6952 11.6038C18.6968 11.6222 18.6983 11.6414 18.6996 11.6593C18.7132 11.859 18.7048 12.0598 18.6745 12.2576C18.4883 13.4849 17.4197 14.3836 16.1787 14.3836L15.3503 14.3612L17.8565 17.7314H17.98L17.9361 17.6724L16.4784 15.7123L15.5517 14.4657L16.1761 14.4826H16.1789C16.8043 14.4826 17.4093 14.2607 17.8864 13.8565C18.3633 13.4528 18.678 12.8903 18.7726 12.2728C18.804 12.0673 18.8126 11.859 18.7986 11.6516ZM13.1531 11.2509L13.1088 11.3726L13.1158 11.3531L13.1534 11.249L13.1531 11.2509Z" fill="white"/>
<path d="M12.8794 12.8914H13.1515C13.3769 12.8914 13.5748 12.8919 13.7453 12.893L13.8628 12.5674H12.9976L12.8794 12.8914ZM13.0672 12.6659H13.7221L13.6761 12.7934C13.5062 12.7926 13.3301 12.7922 13.1518 12.7922H13.0213L13.0672 12.6659Z" fill="white"/>
<path d="M15.7291 12.3564C15.6837 12.3948 15.6343 12.4283 15.582 12.4566C15.4591 12.523 15.3337 12.5514 15.0568 12.566C14.9757 12.5702 14.8824 12.5733 14.7784 12.5733C14.692 12.5733 14.5983 12.5712 14.498 12.566L14.3798 12.8937C14.6743 12.8862 14.9535 12.8491 15.2538 12.6973C15.4291 12.6092 15.5894 12.4942 15.7291 12.3564ZM14.5232 12.7886L14.5665 12.6688C14.6372 12.6715 14.7081 12.6729 14.7784 12.6729C14.8728 12.6729 14.9682 12.6704 15.062 12.6654L15.0898 12.6639C14.8893 12.7458 14.7007 12.7765 14.5227 12.7886H14.5232Z" fill="white"/>
<path d="M15.0124 12.479C15.2524 12.4648 15.3756 12.4563 15.5158 12.3913C15.6204 12.3431 15.8163 12.2528 15.8664 12.0631C15.9271 11.8323 15.7286 11.6209 15.6911 11.5817C15.5104 11.3898 15.2599 11.3535 15.0953 11.3535C15.0402 11.3533 14.9853 11.3574 14.9308 11.366L14.5293 12.4787C14.6001 12.483 14.6811 12.486 14.7709 12.486C14.8454 12.4863 14.9263 12.4841 15.0124 12.479ZM15.0032 11.4568C15.0282 11.4546 15.0595 11.4527 15.0951 11.4527C15.2493 11.4527 15.4653 11.4869 15.6187 11.6498C15.6783 11.7124 15.8123 11.8775 15.7701 12.038C15.7325 12.1826 15.5706 12.2571 15.4742 12.301C15.3527 12.3571 15.2488 12.3653 15.0066 12.3797C14.9284 12.3843 14.849 12.3867 14.7706 12.3867C14.7366 12.3867 14.7022 12.3867 14.6679 12.3853L15.0032 11.4568Z" fill="white"/>
<path d="M14.7125 11.3638C14.6508 11.3638 14.5853 11.3638 14.5158 11.3638L14.1134 12.4792H14.3103L14.7125 11.3638Z" fill="white"/>
<path d="M14.1599 12.8956L14.2786 12.5664H14.0816L13.9635 12.8939L14.0497 12.8946L14.1599 12.8956Z" fill="white"/>
<path d="M9.72952 4.03125C11.0862 3.45518 12.5296 3.16351 14.0197 3.16351V1.10344e-05H13.9998C12.1079 -0.00236838 10.2353 0.380092 8.49585 1.1241L9.72952 4.03125Z" fill="#F7FAF6"/>
<path d="M20.7987 1.75977L19.3424 4.38527C20.6339 5.10034 21.7682 6.06814 22.6775 7.23105L25.0339 5.38299C23.878 3.90487 22.438 2.67296 20.7987 1.75977Z" fill="white"/>
<path d="M25.0136 14.0079C25.0141 14.8596 24.9163 15.7085 24.722 16.5376L27.6274 17.2208C28.0556 15.3954 28.1152 13.503 27.8028 11.6543L24.8585 12.1528C24.962 12.7659 25.0138 13.3864 25.0136 14.0079Z" fill="white"/>
<path d="M24.4649 23.2984L22.235 21.3135C21.2555 22.417 20.0637 23.3118 18.7306 23.9442L20.0138 26.645C21.706 25.8378 23.2194 24.6998 24.4649 23.2984Z" fill="white"/>
<path d="M7.88818 26.5984C9.57619 27.4188 11.4126 27.8895 13.2871 27.9821L13.4415 24.9864C11.9708 24.9131 10.5301 24.542 9.20701 23.8955L7.88818 26.5984Z" fill="white"/>
<path d="M0.37561 17.2298C0.806035 19.0504 1.59863 20.7657 2.70619 22.2735L5.08435 20.5641C4.22313 19.3696 3.6135 18.0127 3.29228 16.5757L0.37561 17.2298Z" fill="white"/>
<path d="M0.480225 10.3544L3.43246 11.1818C3.82932 9.76302 4.50983 8.43956 5.4328 7.2913L2.99803 5.34131C1.82798 6.82469 0.971512 8.53011 0.480225 10.3544Z" fill="white"/>
<path d="M9.72952 4.03125C11.0862 3.45518 12.5296 3.16351 14.0197 3.16351V1.10344e-05H13.9998C12.1079 -0.00236838 10.2353 0.380092 8.49585 1.1241L9.72952 4.03125Z" fill="white"/>
<defs>
<linearGradient id="paint0_linear_2_5921" x1="15.6684" y1="9.0146" x2="11.8507" y2="24.0733" gradientUnits="userSpaceOnUse">
<stop stop-color="#FF922E"/>
<stop offset="1" stop-color="#FFC239"/>
</linearGradient>
</defs>
</svg>
