<svg width="398" height="75" viewBox="0 0 398 75" fill="none" xmlns="http://www.w3.org/2000/svg">
<g opacity="0.1">
<path d="M242.599 69.2002C239.599 69.5002 239.299 75.5002 243.599 74.6002C245.699 73.2002 245.199 69.8002 242.599 69.2002Z" fill="#FFC701"/>
<path d="M312.6 35.7002C316 34.3002 311.9 28.8002 311 26.2002C309.9 27.5002 309.8 29.8002 310 32.6002C308.7 33.3002 307.2 31.3002 307.5 33.1002C307.9 35.9002 311.7 36.2002 312.6 35.7002Z" fill="#FFC701"/>
<path d="M246.6 24.2001C248.9 22.1001 245.6 18.7001 244 21.1001C244 22.0001 244.1 22.9001 244.1 23.8001C245.2 23.7001 245.4 24.5001 246.6 24.2001Z" fill="#FFC701"/>
<path d="M313.302 10.8C313.602 10.3 313.802 9.5 313.602 8.5C312.602 8.4 311.902 7.6 311.102 8.6C311.502 9.8 311.702 11.1 313.302 10.8Z" fill="#FFC701"/>
<path d="M296.299 15.8C295.799 18.5 294.399 20 293.699 22.2C295.099 22.2 295.199 23.7 296.599 23.5C296.099 20.9 296.999 17.3 296.299 15.8Z" fill="#FFC701"/>
<path d="M293.801 14.1001C293.901 11.7001 292.201 8.70006 293.901 7.30006C294.301 7.70006 295.001 7.90005 296.001 7.70005C296.501 4.20005 294.401 1.30005 291.801 2.80005C291.501 5.30005 292.901 5.60005 293.201 7.30006C291.401 7.70006 289.801 8.40005 288.801 9.60006C290.501 10.9001 290.701 14.1001 293.801 14.1001Z" fill="#FFC701"/>
<path d="M271.402 49.8001C270.802 50.4001 271.102 51.8001 271.102 53.0001C272.402 53.8001 273.302 53.9001 274.402 53.0001C274.402 50.7001 273.702 49.3001 271.402 49.8001Z" fill="#FFC701"/>
<path d="M278.102 32.9C281.202 29.6 282.102 27.1 278.502 23.3C276.302 24 274.402 24.8001 272.002 25.2001C272.002 27.4001 269.402 29.2 270.602 31.1C272.902 28.9001 274.802 26.1001 277.802 24.7001C278.502 27.9001 276.802 30.7 278.102 32.9Z" fill="#FFC701"/>
<path d="M260.599 15.9001C260.099 16.5001 260.099 18.5001 260.799 19.1001C261.499 19.1001 262.199 19.1001 262.799 19.0001C263.799 17.5001 262.699 15.2001 260.599 15.9001Z" fill="#FFC701"/>
<path d="M277.801 13.8C279.501 13.9 279.601 15.8 281.601 15.6C282.501 11.5 286.201 10.3 288.301 7.40004C282.501 5.50004 279.901 10.5 277.801 13.8Z" fill="#FFC701"/>
<path d="M255.402 0.700195C254.602 1.3002 253.802 1.9002 253.002 2.4002C252.902 1.6002 252.502 1.1002 252.002 0.700195H249.602C249.702 1.5002 249.902 2.2002 250.102 2.9002C252.202 3.5002 253.702 4.7002 255.502 5.5002C255.802 4.3002 257.102 4.0002 257.902 3.2002C259.102 7.0002 260.002 11.1002 262.802 13.1002C264.602 8.7002 260.402 7.5002 259.602 4.5002C260.402 3.1002 261.602 2.0002 262.602 0.700195H255.402Z" fill="#FFC701"/>
<path d="M279.2 0.700195C278.9 0.900195 278.7 1.0002 278.5 1.1002C278.5 1.0002 278.5 0.800195 278.5 0.700195H265.3C267.3 2.3002 268.9 4.4002 268.8 8.4002C267.8 9.9002 266.7 8.4002 265.1 9.4002C264.5 10.9002 265.3 11.2002 265.2 13.1002C268.2 13.4002 268 10.2002 270.4 9.9002C271.3 14.3002 269.1 15.5002 265.7 15.4002C265.9 17.0002 265.6 18.0002 265.4 19.1002C269.2 16.4002 275.8 18.0002 279.8 19.4002C279.6 16.6002 277.8 15.4002 276.3 14.0002C279.9 10.3002 282.2 3.1002 289.9 5.2002C289.7 3.8002 289.2 2.5002 289.3 0.800195H279.2V0.700195ZM275.6 9.3002C274.1 9.2002 273.3 8.2002 271.9 8.0002C273.4 5.2002 273.8 1.2002 276.6 1.1002C281.6 1.0002 277.3 6.7002 275.6 9.3002Z" fill="#FFC701"/>
<path d="M250.001 18.8C251.501 19.5 252.401 17.3 252.901 18.3C253.501 20.6 253.401 23.7001 255.601 24.2001C255.701 19.7001 254.101 17.4 253.601 13.7C252.401 12.5 250.501 12.2 249.401 11C249.201 8.30005 248.701 5.90005 247.901 3.80005C246.201 4.20005 245.601 5.80005 243.901 6.10005C241.901 4.40005 239.901 2.70005 238.101 0.800049H236.501C236.901 1.40005 237.301 2.10005 237.201 3.10005C234.801 4.10005 233.001 2.50005 231.501 0.800049H228.701C228.801 1.50005 228.801 2.20005 228.601 3.10005C227.501 3.10005 226.501 3.10005 225.301 3.10005C225.301 4.30005 225.401 5.50005 225.501 6.70005C226.901 6.90005 227.801 6.50005 228.701 6.20005C228.201 6.90005 228.401 8.60005 227.501 8.90005C227.601 6.00005 224.801 8.90005 224.601 8.00005C224.501 5.60005 224.401 3.10005 224.301 0.800049C220.801 1.70005 218.701 4.10005 215.901 5.90005C215.601 4.70005 215.201 3.60005 214.901 2.20005C209.501 3.00005 206.001 5.80005 203.301 9.60005C205.801 9.50005 207.501 10.3 210.301 10C210.301 9.10005 210.201 8.20005 210.201 7.30005C212.001 7.20005 213.101 6.40005 215.101 6.40005C219.801 13.7 215.701 20.6 206.901 17.4C207.501 16.8 207.001 14.8 207.601 14.2C208.401 14.1 209.901 15.6 209.601 13.8C209.501 11.3 206.901 13.4 205.501 13.4C205.301 17 207.201 18.1 208.201 20.2001C214.901 20.2001 217.901 16.5 220.601 12.3C220.001 11.1 218.701 10.8 218.401 9.20005C219.001 7.50005 221.001 7.30005 223.301 7.30005C222.801 8.90005 221.301 9.60005 221.001 11.4C222.501 12.1 225.101 11.7 227.201 11.8C227.601 12.7 228.101 13.6 228.601 14.5C234.401 14.5 236.201 10.3 237.701 5.80005C242.601 6.80005 246.001 9.40005 249.101 12.5C248.101 14.4 248.801 17.8 250.001 18.8ZM229.701 13.5C229.001 12.3 228.401 10.9 227.901 9.40005C228.801 9.00005 229.201 7.80005 230.701 8.00005C232.101 10 230.701 12.4 229.701 13.5Z" fill="#FFC701"/>
<path d="M382.301 11.8001C379.701 8.20006 377.801 1.70006 372.101 3.20006C372.301 1.60006 371.301 1.20006 370.001 1.40006C368.501 1.40006 370.001 4.60006 368.501 4.60006C366.601 4.80006 365.501 4.10006 364.301 3.30006C365.101 8.10006 364.701 12.6001 363.201 16.0001C361.501 14.3001 360.401 11.0001 357.301 12.4001C358.001 15.3001 360.201 16.7001 362.401 17.8001C366.201 16.5001 371.401 19.6001 377.201 18.1001C379.001 16.1001 381.201 14.5001 382.301 11.8001Z" fill="#FFC701"/>
<path d="M352.602 38.5001C353.102 40.3001 354.502 41.1001 355.602 42.1001C356.302 40.2001 357.302 38.6001 357.902 36.6001C357.102 36.5001 356.302 36.6001 355.402 36.6001C356.102 39.1001 354.002 38.4001 352.602 38.5001Z" fill="#FFC701"/>
<path d="M366.302 0.700195H364.402C365.002 0.800195 365.502 0.900195 366.302 0.700195Z" fill="#FFC701"/>
<path d="M394.2 0.700195C394 2.5002 396.2 1.3002 397.1 1.6002C397 1.2002 396.9 0.900195 396.9 0.700195H394.2Z" fill="#FFC701"/>
<path d="M375.199 31.4001C373.499 30.8001 371.499 30.7001 369.899 30.0001C369.799 26.1001 371.799 24.5001 372.399 21.4001C370.999 21.6001 370.099 22.1001 368.299 21.9001C368.299 23.8001 369.199 24.4001 368.399 26.0001C367.599 26.8001 365.399 26.0001 364.699 27.0001C367.299 27.1001 369.499 29.2001 368.199 32.4001C369.999 31.5001 373.599 32.5001 375.199 31.4001Z" fill="#FFC701"/>
<path d="M362.599 0.700195H359.499C359.199 2.2002 358.999 3.7002 358.699 5.2002C362.399 7.8002 364.799 2.8002 362.599 0.700195Z" fill="#FFC701"/>
<path d="M392.902 11.3002C393.702 11.3002 394.602 11.3002 395.302 11.3002C396.402 9.40015 395.202 6.90015 392.802 7.70015C392.202 8.30015 392.302 10.6002 392.902 11.3002Z" fill="#FFC701"/>
<path d="M345.801 10.8002C345.801 11.5002 345.901 12.3002 345.901 13.1002C347.201 14.5002 349.301 13.7002 350.401 12.6002C351.101 9.20015 346.701 9.30015 345.801 10.8002Z" fill="#FFC701"/>
<path d="M306.3 29.9C307.2 25.3 298.2 25.4 299.3 28.6C301.7 27 304.5 29.1 306.3 29.9Z" fill="#FFC701"/>
<path d="M314.402 28C318.402 27.8 318.702 21.5 317.602 17.5C315.302 17.6 314.102 18.8 314.102 21.2C314.402 22.9 316.002 23.1 316.702 24.3C315.402 25 315.002 26.6 314.402 28Z" fill="#FFC701"/>
<path d="M301.899 2.20007C299.199 2.00007 297.799 3.10007 296.699 4.50007C298.599 5.20007 299.399 7.00007 300.099 9.00007C302.699 8.10007 303.999 4.80007 301.899 2.20007Z" fill="#FFC701"/>
<path d="M308.402 42.6C307.202 42.5 307.102 41.1 305.502 41.3C300.102 44.6 309.802 51.2 308.402 42.6Z" fill="#FFC701"/>
<path d="M334.802 25.9002C337.002 26.2002 338.202 22.4002 336.202 20.0002C332.402 19.8002 332.002 25.6002 334.802 25.9002Z" fill="#FFC701"/>
<path d="M332.999 8.1001C331.899 7.3001 331.099 6.2001 330.699 4.6001C326.799 5.7001 323.299 5.3001 322.699 8.3001C322.799 7.7001 324.499 11.1001 324.399 11.0001C324.599 13.1001 322.499 14.1001 322.999 16.0001C324.799 15.5001 325.299 13.5001 327.399 13.2001C328.099 13.7001 329.099 14.1001 329.099 15.4001C328.099 16.6001 327.199 17.8001 327.699 20.4001C328.599 20.7001 328.999 21.8001 330.199 21.7001C330.099 20.4001 329.399 19.8001 329.299 18.6001C329.899 17.9001 331.399 18.2001 332.499 18.1001C331.699 16.0001 332.399 13.4001 331.799 10.4001C330.099 9.2001 330.299 13.1001 327.799 12.3001C326.199 11.5001 325.999 9.0001 325.599 6.9001C328.899 6.0001 331.199 8.8001 332.999 8.1001Z" fill="#FFC701"/>
<path d="M17.4019 47.2001C14.6019 50.3001 17.5019 56.1001 20.6019 56.8001C25.0019 54.5001 25.3019 45.5001 17.4019 47.2001Z" fill="#FFC701"/>
<path d="M71.5995 17.9001C71.4995 20.3001 72.6995 21.3001 74.9995 21.0001C76.6995 18.3001 72.9995 16.0001 71.5995 17.9001Z" fill="#FFC701"/>
<path d="M6.10078 33.6C5.40078 35.5 3.30078 35.9 3.00078 38.1C4.40078 38.4 5.40078 39.5 6.40078 40.3C5.80078 42.7001 5.60078 45.5 5.50078 48.5C7.90078 51.6 13.6008 50 15.3008 47.4001C16.4008 45 14.1008 38.9 17.0008 38.3C17.7008 42.7001 19.4008 45.8 22.7008 47.3C29.3008 45.2001 27.8008 36.8 24.5008 31.3C25.6008 31.7 27.2008 33.2001 28.2008 32.2001C28.3008 28.7001 24.6008 25.9001 22.3008 28.2001C22.4008 29.6 23.2008 29.9 23.7008 30.9C21.6008 33.9 17.4008 31.1 14.6008 29.7001C18.0008 29.4001 20.3008 27.8 21.8008 25.5C21.8008 23.6 20.6008 23.1 20.8008 20.9C21.8008 19.9 22.5008 18.6 24.0008 18.1C23.8008 17.6 24.2008 17.4 24.8008 17.4C24.9008 17.6 25.1008 17.9 25.2008 18.1C26.2008 18.5 27.4008 18.7001 28.9008 18.5C28.6008 19.3 28.0008 19.9 27.7008 20.8C36.2008 18.1 45.1008 27 51.7008 26.4C53.2008 28.7 55.5008 32.3 58.8008 30.9C58.1008 26.2001 53.7008 25.1 58.9008 22.7001C59.7008 24.6 59.8008 27.3001 61.6008 28.1C61.5008 22.6 59.5008 20.3 54.4008 21.8C52.0008 18.5 55.0008 16.1 57.4008 15.4C57.0008 15.2 56.4008 12.9 56.9008 13.1C58.5008 13.4 60.5008 15.5 61.9008 14.5C60.5008 13.1 59.5008 11.3 58.4008 9.50005C62.1008 6.60005 66.7008 6.30005 70.4008 7.80005C69.9008 7.40005 69.7008 6.70005 69.7008 5.80005C71.7008 2.70005 80.0008 8.80005 81.2008 3.10005C78.9008 3.30005 77.7008 2.20005 75.5008 2.30005C75.2008 1.80005 75.0008 1.30005 74.9008 0.800049H62.1008C64.6008 1.30005 68.0008 0.800049 69.3008 2.90005C63.7008 1.30005 55.4008 2.90005 50.3008 0.800049H0.800781V30C3.40078 30.3 4.80078 31.7 6.10078 33.6ZM52.5008 22.7001C53.5008 22.5 53.1008 24 53.8008 24.1C53.7008 24.7001 52.8008 24.5 52.1008 24.6C52.1008 23.8001 52.6008 23.6 52.5008 22.7001ZM10.7008 22.2001C10.6008 22.4001 10.5008 21.8001 10.5008 20.7001C10.8008 21.8001 10.9008 22.4001 10.7008 22.2001ZM11.7008 15.4C11.9008 15.8 11.9008 15.8 11.7008 15.4V15.4ZM1.60078 10.1C1.50078 10.5 1.50078 10.8 1.40078 11.1C1.40078 10.9 1.30078 10.7 1.20078 10.4C1.30078 10.3 1.50078 10.2 1.60078 10.1ZM0.900781 12.8C1.00078 12.6 1.10078 12.5 1.10078 12.3C1.10078 12.6 1.00078 12.8 0.900781 12.8Z" fill="#FFC701"/>
<path d="M72.1013 29.8001C72.1013 30.3001 71.7013 30.6001 71.3013 30.7001C71.2013 33.0001 72.0013 34.3001 73.9013 34.3001C76.3013 33.4001 75.7013 28.8001 72.1013 29.8001Z" fill="#FFC701"/>
<path d="M86.8008 27.3C88.5008 24.8 85.1008 22.1 83.8008 24.6C83.8008 25.3 83.9008 26.1 83.9008 26.9C84.5008 27.6 85.8008 27.4 86.8008 27.3Z" fill="#FFC701"/>
<path d="M70.5 8C70.9 8.3 71.4 8.6 71.9 8.7C71.5 8.4 71 8.1 70.5 8Z" fill="#FFC701"/>
<path d="M59.4016 38.9C61.1016 38.3 62.7016 37.4 64.6016 37.1C64.6016 36 64.6016 35 64.1016 34.4C61.0016 34.3 59.4016 35.8 57.6016 37.2C58.6016 37.2 58.8016 36.4 60.1016 36.7C59.9016 37.5 59.2016 37.8 59.4016 38.9Z" fill="#FFC701"/>
<path d="M79.0994 30.2C79.8994 31.4 81.9994 31.2 83.1994 30.6C85.6994 25.8 77.6994 24.8 79.0994 30.2Z" fill="#FFC701"/>
<path d="M85.8008 1.8001C86.5008 1.8001 87.0008 1.4001 87.3008 0.600098H84.3008C84.7008 1.4001 85.2008 1.8001 85.8008 1.8001Z" fill="#FFC701"/>
<path d="M33.4018 36.2001C34.0018 36.0001 34.4018 35.5001 35.0018 35.3001C35.5018 27.7001 28.0018 34.9001 33.4018 36.2001Z" fill="#FFC701"/>
<path d="M5.60049 49.6001C2.40049 49.8001 2.30049 55.6001 4.30049 57.8001C5.60049 56.4001 7.00049 52.5001 5.60049 49.6001Z" fill="#FFC701"/>
<path d="M38.8008 37.4C38.8008 39.1 39.7008 39.8 41.0008 40.1C43.0008 39.3 42.8008 35.9 40.0008 36.1C39.6008 36.5 39.1008 36.9 38.8008 37.4Z" fill="#FFC701"/>
<path d="M64.2991 18C63.0991 28.7 74.1991 16.2 64.2991 18V18Z" fill="#FFC701"/>
<path d="M56.0998 50.0002C57.1998 47.9002 55.7998 45.1002 53.3998 45.5002C51.7998 47.1002 52.7998 51.2002 56.0998 50.0002Z" fill="#FFC701"/>
<path d="M49.4989 60C49.1989 62.7 51.1989 63.8 52.8989 62.7C52.7989 61.6 52.7989 60.6 52.7989 59.5C51.4989 59.6 49.9989 59.3 49.4989 60Z" fill="#FFC701"/>
<path d="M124.6 41.5C124 48.9 131.8 39.6 124.6 41.5V41.5Z" fill="#FFC701"/>
<path d="M136.801 6.70015C135.601 3.70015 131.501 3.40015 129.801 5.90015C130.701 7.90015 131.801 9.60015 133.701 10.4002C134.601 9.10015 136.201 8.40015 136.801 6.70015Z" fill="#FFC701"/>
<path d="M169.5 3.70012C169.5 5.30012 170.2 6.10012 171.6 5.90012C171.5 5.00012 172 4.90012 172 4.10012C171.1 3.80012 170.3 2.70012 169.5 3.70012Z" fill="#FFC701"/>
<path d="M255.402 7.80012C254.602 9.70012 255.402 12.1001 258.002 11.4001C259.402 9.10012 257.202 6.40012 255.402 7.80012Z" fill="#FFC701"/>
<path d="M216.999 2.7002C217.199 2.0002 217.399 1.4002 217.599 0.700195H215.199C215.699 1.6002 215.999 2.5002 216.999 2.7002Z" fill="#FFC701"/>
<path d="M258.002 12.7002C256.902 12.3002 256.302 12.3002 255.102 12.8002C255.102 13.7002 255.202 14.6002 255.202 15.5002C256.302 15.5002 257.502 15.6002 258.102 15.0002C258.102 14.2002 258.102 13.5002 258.002 12.7002Z" fill="#FFC701"/>
<path d="M222.001 14.5002C221.701 15.3002 221.101 15.9002 220.801 16.8002C223.701 22.5002 229.801 13.3002 222.001 14.5002Z" fill="#FFC701"/>
<path d="M253.202 36.4001C252.402 37.9001 250.302 38.0001 250.102 40.1001C252.302 48.5001 261.102 38.9001 253.202 36.4001Z" fill="#FFC701"/>
<path d="M128.8 20.9001C129.5 19.5001 129.5 17.9001 128.6 16.4001C127.9 16.4001 127.2 16.5001 126.6 16.5001C126 17.5001 126.5 19.5001 126 20.6001C126.9 20.7001 127.5 21.2001 128.8 20.9001Z" fill="#FFC701"/>
<path d="M113.799 37.5C112.999 39.4 110.999 40 111.599 43.4C116.999 48.2 119.699 38.9 113.799 37.5Z" fill="#FFC701"/>
<path d="M132.301 49.5C132.301 50.4 132.401 51.3 132.401 52.2C136.601 55 136.401 46.6 132.301 49.5Z" fill="#FFC701"/>
<path d="M119.101 57.4002C120.301 55.5002 119.101 52.9002 116.501 53.8002C116.101 55.1002 116.101 56.1002 116.701 57.4002C117.501 57.4002 118.301 57.4002 119.101 57.4002Z" fill="#FFC701"/>
<path d="M113.702 22.5C111.802 22.5 110.502 24.7 111.802 26.6C113.802 27.7 116.402 23.9 113.702 22.5Z" fill="#FFC701"/>
<path d="M105.302 9.40012C105.502 11.1001 107.702 12.5001 109.902 11.2001C112.002 5.60012 104.802 5.40012 105.302 9.40012Z" fill="#FFC701"/>
<path d="M229.699 22.5001C231.899 22.5001 233.399 19.6001 232.399 17.5001C229.499 15.5001 226.599 20.8001 229.699 22.5001Z" fill="#FFC701"/>
</g>
</svg>
