<svg width="332" height="75" viewBox="0 0 332 75" fill="none" xmlns="http://www.w3.org/2000/svg">
<g opacity="0.3">
<path d="M119.699 32.8006C119.899 34.6006 120.499 35.8006 122.399 35.3006C122.899 34.7006 122.599 33.3006 122.499 32.1006C121.399 32.3006 120.099 32.2006 119.699 32.8006Z" fill="#7E47E6"/>
<path d="M108.202 13.5005C108.302 12.1005 107.602 11.9005 107.502 10.8005C106.302 10.5005 106.502 11.5005 105.602 11.4005C105.602 13.2005 106.602 13.8005 108.202 13.5005Z" fill="#7E47E6"/>
<path d="M120.999 30.1C122.299 28.6 123.399 24.7 121.899 22C118.699 22.3 118.999 28 120.999 30.1Z" fill="#7E47E6"/>
<path d="M107.002 35.5008C106.302 37.8008 108.102 39.9008 110.102 38.4008C110.002 37.3008 109.902 36.4008 109.802 35.3008C108.302 35.2008 108.302 34.7008 107.002 35.5008Z" fill="#7E47E6"/>
<path d="M109.5 32.1004C111.9 34.3004 112.1 39.3004 115.2 40.6004C117 39.5004 118.2 37.7004 118.3 35.0004C114.5 35.4004 113.1 30.8004 109.5 32.1004Z" fill="#7E47E6"/>
<path d="M154.901 6.80046C154.601 7.20046 154.201 7.70046 153.801 8.20046C153.901 9.90046 154.801 10.5005 156.101 10.7005C158.001 9.80046 157.601 6.50046 154.901 6.80046Z" fill="#7E47E6"/>
<path d="M89.2985 36.7007C88.1985 37.7007 88.4985 41.3007 90.8985 40.6007C92.9985 39.7007 91.6985 35.9007 89.2985 36.7007Z" fill="#7E47E6"/>
<path d="M146.001 19.5004C145.901 22.7004 147.401 23.6004 150.001 23.3004C152.101 20.5004 147.901 17.0004 146.001 19.5004Z" fill="#7E47E6"/>
<path d="M139.4 3.1C140.5 3.4 142.1 4.8 143.1 3.8C143.1 2.7 142.7 1.8 142.1 1H137.3C137.6 1.7 138.2 2.1 138.6 2.8C136.7 5.9 132.4 3.4 129.6 2.1C130.9 1.9 132 1.5 133 1H98C98.2 1.1 98.3 2.9 98.5 3H97.5L96.5 5L96 6C97 7.5 97.5 5.5 98.6999 5C98.2999 9.1 94.9999 14.8 97.0999 18.6C99.2999 11.3 95.9999 5.6 107.3 9.5C107.3 8.8 110.2 7.7 110.8 7.5C114.7 6.7 107.4 13 109.1 15.2C109.1 15.3 109.1 15.4 109.1 15.4C109.2 16.4 109.3 17.3 109.4 18.3C110.6 17.9 110.7 19 111.8 18.6C113.1 17.3 112.4 15 110.5 14.9C113.2 13.4 118.8 9.2 118.6 10.8C120 11.1 121 12.1 122 12.8C121.5 15.2 121.5 18 121.6 20.9C124.1 23.8 129.7 21.9 131.2 19.3C132.1 16.9 129.5 11 132.3 10.3C133.2 14.6 135.1 17.6 138.4 18.8C144.8 16.5 142.9 8.3 139.4 3.1Z" fill="#7E47E6"/>
<path d="M143.301 25.4002C142.201 26.3002 142.201 27.3002 142.901 29.0002C144.501 29.2002 145.001 29.3002 146.101 28.3002C145.901 26.3002 145.101 25.2002 143.301 25.4002Z" fill="#7E47E6"/>
<path d="M133.401 18.9C130.801 22.1 134.001 27.7 137.101 28.1C141.301 25.7 141.101 16.8 133.401 18.9Z" fill="#7E47E6"/>
<path d="M148.4 7.3004C149 7.1004 149.4 6.6004 150 6.3004C150 -1.1996 143.1 6.3004 148.4 7.3004Z" fill="#7E47E6"/>
<path d="M101.602 16.1002C103.902 17.9002 103.802 24.4002 107.902 22.4002C108.502 17.3002 105.502 10.8002 101.602 16.1002Z" fill="#7E47E6"/>
<path d="M230.999 20.1006C230.699 21.4006 230.699 22.4006 231.399 23.6006C232.199 23.6006 232.999 23.4006 233.799 23.4006C234.699 21.5006 233.399 19.0006 230.999 20.1006Z" fill="#7E47E6"/>
<path d="M227.4 4.2002C226.7 6.1002 224.8 6.8002 225.5 10.1002C231.1 14.6002 233.3 5.2002 227.4 4.2002Z" fill="#7E47E6"/>
<path d="M14.8008 10.0004C18.3008 8.00039 22.1008 6.40039 26.0008 4.80039C26.4008 6.00039 25.6008 6.00039 25.8008 7.00039C27.6008 6.90039 28.9008 6.40039 30.1008 5.80039C30.1008 4.10039 30.7008 2.40039 31.6008 0.900391H4.80078C8.70078 3.40039 12.2008 5.00039 14.8008 10.0004Z" fill="#7E47E6"/>
<path d="M246.199 15.0001C246.299 15.9001 246.399 16.8001 246.499 17.7001C250.799 20.1001 250.099 11.9001 246.199 15.0001Z" fill="#7E47E6"/>
<path d="M238.301 7.50025C238.101 14.9003 245.201 5.30025 238.301 7.50025V7.50025Z" fill="#7E47E6"/>
<path d="M16 27.2009C16.1 27.9009 16.2 28.7009 16.2 29.4009C17.1 29.4009 17.5 30.1009 18.6 29.7009C19.1 29.1009 18.9 27.2009 18.3 26.7009C17.4 26.6009 16.4 26.7009 16 27.2009Z" fill="#7E47E6"/>
<path d="M62.7987 25.4008C62.3987 23.5008 62.7987 20.4008 61.7987 19.3008C58.6987 20.4008 58.5987 25.4008 62.7987 25.4008Z" fill="#7E47E6"/>
<path d="M44.6992 18.1C44.9992 19.3 45.2992 20.6 46.8992 20.2C47.1992 19.7 47.2992 18.9 47.0992 17.9C46.1992 17.9 45.3992 17.2 44.6992 18.1Z" fill="#7E47E6"/>
<path d="M67.6 12.6008C68.2 12.5008 69.1 12.6008 69.2 12.1008C68.4 11.2008 67.5 10.3008 66.9 9.10084C62.7 8.80084 61.5 11.4008 60.5 14.0008C61.9 17.1008 63.7 19.8008 67.2 20.3008C67.4 19.5008 66.5 17.7008 67.4 17.6008C67.5 19.5008 72.8 19.3008 73 17.7008C70.9 16.3008 69.5 14.1008 67.6 12.6008ZM64.9 16.8008C64.7 15.3008 64.6 13.9008 64.5 12.3008C65.7 13.1008 65.7 15.4008 66.9 16.2008C67.1 18.1008 65.5 16.6008 64.9 16.8008Z" fill="#7E47E6"/>
<path d="M54.1984 3.7002C52.4984 4.4002 51.8984 6.1002 50.3984 7.1002C50.7984 8.7002 52.0984 9.3002 52.7984 10.5002C54.7984 9.7002 56.8984 11.4002 57.9984 10.2002C56.2984 8.7002 53.4984 6.7002 54.1984 3.7002Z" fill="#7E47E6"/>
<path d="M0 1.9C1.1 1.7 2 1.2 3 1H0V1.9Z" fill="#7E47E6"/>
<path d="M37.3999 2.3C37.6999 1.9 37.8999 1.5 38.0999 1H36.5999C35.3999 5.6 33.7999 11.4 38.3999 13.4C39.7999 10.7 41.4999 8.5 41.1999 4.3C39.9999 3.5 38.3999 3.2 37.3999 2.3Z" fill="#7E47E6"/>
<path d="M294.9 1C294.9 1.2 294.9 1.4 294.9 1.7C294.9 1.9 294.8 2.5 294.7 2.7C294.6 3 294.3 3 294 3.2C292.9 4.3 294.2 6.3 294.7 7.5C295.1 8.5 295.7 9.6 296.4 10.4C296.8 10.9 296.9 11.5 297.2 12C297.4 12.3 297.6 12.6 297.7 12.9C297.7 13.2 297.7 13.5 297.7 13.8C297.8 14.5 297.7 15.2 297.9 15.9C298 16.3 298.2 16.6 298.3 17C298.4 17.2 298.4 17.6 298.5 17.7C298.7 17.9 299.7 17.7 300 17.7C300.9 17.7 301.9 17.8 302.8 17.6C304.4 17.2 305.6 16.7 306.1 15C306.3 14.3 306.5 13.5 307.3 13.1C308 12.7 308.8 12.6 309.5 12.3C310.3 12 311.3 12 312.1 11.6C312.7 11.3 312.9 10.8 313.3 10.2C313.7 9.6 314 8.9 314.7 8.6C315.2 8.4 315.8 8.4 316.3 8.1C317.2 7.6 317.8 6.5 318.7 6.1C319.2 5.9 319.8 5.7 320.3 5.5C321.2 5.3 321.8 4.8 322.6 4.4C323.7 3.8 325.1 3.9 326.3 4.2C327.7 4.5 328.8 5.6 330.3 5.2C330.7 5.1 331.5 4.7 331.6 5.2C331.7 5.6 331.4 6.3 331.3 6.7C330.8 8.9 330.2 10.8 329.3 12.8C329 13.4 328.6 14.1 328.6 14.7C328.6 15.3 328.7 15.9 328.9 16.5C329 16.9 329.2 17.6 328.9 18C328.7 18.2 328.4 18.1 328.1 18.3C327.9 18.4 327.4 18.9 327.2 19.1C326.7 19.9 327 21.2 326.5 22.1C326.2 22.7 325.4 22.8 324.8 23C324 23.3 323.7 23.6 323.5 24.5C323.3 25.3 323.3 26.1 323 26.8C322.8 27.3 322.6 27.7 322.5 28.3C322.3 29.5 322.5 30.6 322.3 31.8C322.1 32.9 322.2 34 322.1 35.1C322 36.2 322.5 37.4 322.4 38.4C322.4 38.8 322.3 39.5 322.1 39.9C321.9 40.4 321.3 40.7 321 41.1C320.3 42 319.5 43 318.8 44C318.2 44.8 318.2 45 318.9 45.8C319.9 46.8 321.1 47.5 322 48.5C322.3 48.8 322.5 49.1 322.6 49.4C322.7 49.6 322.8 49.9 322.9 50.2C323.2 50.7 323.7 51 324 51.5C324.3 52 324.6 52.5 324.9 52.9C325.3 53.4 325.7 53.8 325.9 54.4C326.2 55.1 326.5 55.8 326.7 56.6C326.9 57.2 327.2 57.6 327.6 58C327.9 58.3 328.5 59 328.3 59.5C328.2 59.7 328 59.7 327.9 59.9C327.8 60.2 327.9 60.6 327.7 60.8C327.3 61.3 326.4 61.4 326.9 62.2C327.4 63 328.3 63.5 329 64.1C329.5 64.5 330 65.5 330.1 66.1C330.2 66.9 329.7 67.1 329.4 67.7C328.8 68.7 329.3 69.3 329.6 70.3C329.9 71.2 330.5 73.6 329.5 74.3C329.7 74.2 329.8 74 330 73.7C330.3 73.3 330.7 73.1 331.2 72.8C331.4 72.7 331.6 72.5 331.9 72.4V1H294.9Z" fill="#7E47E6"/>
<path d="M185.498 1.00039H159.898C160.098 1.20039 160.298 1.30039 160.598 1.40039C161.598 1.70039 162.298 3.00039 163.098 3.60039C163.698 4.10039 164.298 4.50039 164.898 4.80039C165.698 5.30039 166.298 6.00039 167.098 6.50039C168.798 7.60039 169.998 9.40039 171.498 10.6004C171.898 10.9004 172.398 11.4004 172.898 11.6004C173.098 11.7004 173.398 11.7004 173.598 11.8004C173.898 11.9004 173.998 12.4004 174.198 12.6004C174.998 13.4004 175.898 14.0004 176.798 14.5004C177.298 14.8004 177.598 15.1004 178.198 15.2004C178.798 15.3004 179.098 15.6004 179.598 15.7004C180.298 15.9004 181.698 16.5004 181.998 15.5004C182.598 15.8004 182.998 16.2004 183.498 16.6004C183.898 16.9004 184.198 17.0004 184.598 17.2004C185.398 17.7004 186.498 18.3004 186.998 19.0004C187.398 19.5004 187.198 20.0004 187.398 20.6004C187.598 20.9004 188.098 21.2004 188.398 20.8004C188.498 20.6004 188.398 20.2004 188.498 20.0004C188.598 19.8004 188.798 19.8004 188.898 19.6004C189.098 19.2004 189.098 18.6004 189.198 18.1004C189.298 17.7004 189.498 17.5004 189.598 17.2004C189.698 17.0004 189.598 16.7004 189.698 16.5004C189.798 16.2004 190.198 15.9004 190.498 15.7004C191.198 15.1004 192.398 14.5004 192.698 13.6004C192.998 12.6004 192.898 11.5004 193.598 10.7004C193.898 10.3004 194.198 10.1004 194.298 9.60039C194.498 9.20039 194.398 8.60039 194.698 8.20039C194.798 7.90039 194.998 7.80039 194.998 7.50039C194.998 7.30039 194.998 7.00039 195.198 6.80039C195.398 6.40039 195.698 5.90039 195.998 5.50039C196.598 4.60039 196.898 3.80039 197.098 2.70039C197.198 2.10039 197.398 1.80039 197.698 1.30039C197.798 1.20039 197.898 1.00039 197.898 0.900391H189.598H185.498V1.00039Z" fill="#7E47E6"/>
</g>
</svg>
