<svg width="72" height="75" viewBox="0 0 72 75" fill="none" xmlns="http://www.w3.org/2000/svg">
    <g filter="url(#filter0_d_172_78564)">
    <path d="M41.1361 8.59956L40.9997 8.91638L41.2475 9.15637C41.2776 9.18554 41.3088 9.21243 41.3274 9.22848L41.3338 9.23395C41.3555 9.25274 41.3625 9.25931 41.3661 9.26312L41.3661 9.26316L41.3717 9.26877L46.8244 14.7214L47.0721 14.9692L47.3895 14.8209L48.0396 14.5172L54.2857 20.7633L54.129 21.7328L54.0882 21.9853L54.2691 22.1662L62.2997 30.1954L62.6532 30.5489L63.0067 30.1954L63.3623 29.8397L65.9193 32.3955C69.015 35.4912 69.015 40.5093 65.9193 43.605L57.3715 52.1528L55.9225 52.3318L55.7519 52.3529L55.6303 52.4745L51.4155 56.6892L51.1929 56.9119L51.2975 57.2089L51.5626 57.9616L41.6063 67.9179C40.0591 69.4652 38.0302 70.2394 36.0009 70.2394C33.9718 70.2394 31.9441 69.4653 30.3954 67.9178L28.1679 65.6904L27.9434 65.1453L27.9077 65.0587L27.8431 64.9909L25.8871 62.9369L25.7965 62.8417L25.6707 62.8034L25.1103 62.6327L21.5802 59.1026L20.9588 57.9538L20.9241 57.8897L20.8726 57.8381L18.8533 55.8189L18.7854 55.7509L18.6971 55.713L17.8093 55.3317L6.08255 43.605C2.98686 40.5093 2.98686 35.4912 6.08255 32.3955L11.2363 27.2417H12.4487H12.6558L12.8023 27.0953L23.3537 16.5438L23.5002 16.3974V16.1903V14.9766L30.3942 8.08255C31.9427 6.53401 33.9703 5.76112 35.9996 5.76112C37.9536 5.76112 39.9063 6.47898 41.4312 7.91404L41.1361 8.59956ZM17.5236 58.5143C17.6101 58.5143 17.6974 58.5107 17.7869 58.5022L18.4256 59.141C18.3472 59.9552 18.6355 60.7703 19.2218 61.3566L22.8918 65.0266C23.4095 65.5443 24.1118 65.8358 24.8438 65.8358H24.9854C24.9471 66.5994 25.2266 67.3627 25.7904 67.9266L28.0887 70.2248C30.201 72.3371 33.0121 73.5018 35.9996 73.5018C38.9871 73.5018 41.7982 72.3371 43.9105 70.2248L54.0895 60.0458C54.6799 59.4554 54.9632 58.6392 54.8856 57.8302L57.2629 55.453L57.9392 55.3694L57.9397 55.3693C58.5493 55.2933 59.1173 55.0167 59.5528 54.5812L68.2221 45.9118C70.3345 43.7995 71.4992 40.9884 71.4992 38.0009C71.4992 35.0134 70.3345 32.2023 68.2221 30.09L65.3116 27.1794C64.7729 26.6407 64.065 26.3703 63.3596 26.3703C63.2715 26.3703 63.1839 26.3745 63.0968 26.3828L57.566 20.852C57.6449 20.0345 57.3546 19.2211 56.7694 18.636L50.0948 11.9613C49.5655 11.432 48.8582 11.1521 48.1415 11.1521C48.0538 11.1521 47.9662 11.1564 47.8788 11.1648L44.7727 8.05869C44.8496 7.25292 44.5701 6.43659 43.9768 5.84329L43.9092 5.77569C41.7982 3.66467 38.9871 2.5 35.9996 2.5C33.0121 2.5 30.201 3.6647 28.0887 5.77702L21.0482 12.8175C20.5305 13.3352 20.239 14.0375 20.239 14.7695V15.0448L11.3046 23.9793H11.0292C10.2973 23.9793 9.59496 24.2707 9.07725 24.7884L3.77702 30.0887C1.6647 32.201 0.5 35.0121 0.5 37.9996C0.5 40.9871 1.6647 43.7982 3.77702 45.9105L15.5717 57.7052C16.0926 58.2261 16.7951 58.5143 17.5236 58.5143Z" fill="#1C2A9E" stroke="#1C2A9E"/>
    <path d="M65.0848 43.7258L41.7248 67.0858C38.5624 70.2482 33.4371 70.2482 30.2748 67.0858L6.91475 43.7258C3.75237 40.5634 3.75237 35.4381 6.91475 32.2757L30.2748 8.91573C33.4371 5.75335 38.5624 5.75335 41.7248 8.91573L65.0848 32.2757C68.2459 35.4368 68.2459 40.5634 65.0848 43.7258Z" fill="#3E4BC6"/>
    <path d="M30.0429 7.72912L23.0011 14.7696V19.5609L18.5411 23.26L16.4749 26.7405H11.0302L5.72993 32.0407C2.43898 35.3317 2.43898 40.6664 5.72993 43.9573L17.5246 55.752L19.1738 56.8457L21.1747 59.4034L24.8447 63.0734L25.9045 64.2494L27.7447 65.9721L30.0429 68.2703C33.3338 71.5612 38.6685 71.5612 41.9595 68.2703L52.1385 58.0913L50.5228 53.5001L57.6031 52.6267L66.2724 43.9573C69.5634 40.6664 69.5634 35.3317 66.2724 32.0407L63.3619 29.1315L62.2711 30.2223L57.7025 27.2852L53.8946 26.3058L54.8197 20.5894L48.1451 13.9147L42.5824 16.5151L41.9303 12.816H39.864L42.0284 7.79539L41.9608 7.72779C38.6685 4.43817 33.3325 4.43817 30.0429 7.72912Z" fill="url(#paint0_radial_172_78564)"/>
    <g filter="url(#filter1_d_172_78564)">
    <path d="M24.902 46V43.404L29.17 36.848C29.4927 36.364 29.7933 35.8947 30.072 35.44C30.3653 34.9853 30.6 34.5233 30.776 34.054C30.9667 33.5847 31.062 33.0933 31.062 32.58C31.062 32.0667 30.9593 31.6853 30.754 31.436C30.5487 31.1867 30.27 31.062 29.918 31.062C29.522 31.062 29.214 31.172 28.994 31.392C28.774 31.612 28.62 31.9053 28.532 32.272C28.4587 32.6387 28.422 33.0493 28.422 33.504V34.384H24.858V33.438C24.858 32.382 25.0267 31.4433 25.364 30.622C25.7013 29.786 26.2367 29.1333 26.97 28.664C27.7033 28.18 28.664 27.938 29.852 27.938C31.4507 27.938 32.6533 28.356 33.46 29.192C34.2813 30.0133 34.692 31.1647 34.692 32.646C34.692 33.3647 34.5747 34.032 34.34 34.648C34.12 35.264 33.8193 35.8653 33.438 36.452C33.0713 37.024 32.6753 37.6253 32.25 38.256L28.994 43.118H34.208V46H24.902ZM36.4548 46L39.9088 36.408L36.6088 28.18H40.3268L42.2848 32.998L43.8688 28.18H47.1468L44.0228 37.442L47.4988 46H43.8028L41.6248 40.676L39.7108 46H36.4548Z" fill="#1B2686"/>
    </g>
    </g>
    <defs>
    <filter id="filter0_d_172_78564" x="0" y="0" width="72" height="74.002" filterUnits="userSpaceOnUse" color-interpolation-filters="sRGB">
    <feFlood flood-opacity="0" result="BackgroundImageFix"/>
    <feColorMatrix in="SourceAlpha" type="matrix" values="0 0 0 0 0 0 0 0 0 0 0 0 0 0 0 0 0 0 127 0" result="hardAlpha"/>
    <feOffset dy="-2"/>
    <feComposite in2="hardAlpha" operator="out"/>
    <feColorMatrix type="matrix" values="0 0 0 0 0.196078 0 0 0 0 0.266667 0 0 0 0 0.937255 0 0 0 1 0"/>
    <feBlend mode="normal" in2="BackgroundImageFix" result="effect1_dropShadow_172_78564"/>
    <feBlend mode="normal" in="SourceGraphic" in2="effect1_dropShadow_172_78564" result="shape"/>
    </filter>
    <filter id="filter1_d_172_78564" x="24.8594" y="27.938" width="22.6406" height="19.562" filterUnits="userSpaceOnUse" color-interpolation-filters="sRGB">
    <feFlood flood-opacity="0" result="BackgroundImageFix"/>
    <feColorMatrix in="SourceAlpha" type="matrix" values="0 0 0 0 0 0 0 0 0 0 0 0 0 0 0 0 0 0 127 0" result="hardAlpha"/>
    <feOffset dy="1.5"/>
    <feComposite in2="hardAlpha" operator="out"/>
    <feColorMatrix type="matrix" values="0 0 0 0 0.656835 0 0 0 0 0.601649 0 0 0 0 0.995833 0 0 0 1 0"/>
    <feBlend mode="normal" in2="BackgroundImageFix" result="effect1_dropShadow_172_78564"/>
    <feBlend mode="normal" in="SourceGraphic" in2="effect1_dropShadow_172_78564" result="shape"/>
    </filter>
    <radialGradient id="paint0_radial_172_78564" cx="0" cy="0" r="1" gradientUnits="userSpaceOnUse" gradientTransform="translate(36.0008 38) rotate(-90) scale(32.7391 32.7391)">
    <stop offset="0.255208" stop-color="#7B7DFF"/>
    <stop offset="1" stop-color="#283DED"/>
    </radialGradient>
    </defs>
</svg>