<svg width="320" height="52" viewBox="0 0 320 52" fill="none" xmlns="http://www.w3.org/2000/svg">
<g opacity="0.3">
<path d="M233.301 48.2002C233.001 50.9002 234.901 52.0002 236.601 51.0002C236.601 49.9002 236.501 48.9002 236.601 47.8002C235.301 47.8002 233.801 47.5002 233.301 48.2002Z" fill="#D05621"/>
<path d="M237.502 33.7C235.902 35.3 236.802 39.5 240.102 38.3C241.202 36.2 239.802 33.4 237.502 33.7Z" fill="#D05621"/>
<path d="M248.899 6.49964C247.499 17.1996 258.899 4.89964 248.899 6.49964V6.49964Z" fill="#D05621"/>
<path d="M167.1 0C167.4 0.4 167.6 0.6 167.4 0.6C167.3 1.7 166.8 2.3 167 3.8C167.7 4.6 169.2 4.4 169.9 5.2C166.7 6.6 168.5 11.5 168.8 15.2C165.1 11.9 161.3 8.7 162 0.6C160 1.7 158.1 3.2 156.7 5.1C157.9 9.1 160.3 12 163.4 13.8C162.3 14.5 161 15 159.7 15.6C160 14.8 160.8 14.4 160.5 12.9C159.7 11.5 157 10.8 156 12.4C156.7 17.6 163.5 16.1 167.2 18C166.5 22.2 162.7 27.6 164.6 31.6C167.4 24.4 171.2 14.3 182.4 19.1C182.4 18.4 182.3 17.4 182.8 17.3C186.8 16.8 188.8 18.6 190.3 21C189.6 22.9 187.5 23.3 187.1 25.5C188.5 25.9 189.4 27 190.4 27.8C189.7 30.2 189.5 33 189.4 36C191.7 39.1 197.5 37.6 199.2 35.1C200.3 32.7 198.1 26.5 201.1 26C201.7 30.4 203.4 33.6 206.6 35.1C213.2 33.2 211.9 24.8 208.8 19.2C209.9 19.6 211.4 21.1 212.5 20.2C212.6 16.7 209 13.8 206.7 16.1C206.7 17.5 207.6 17.9 208 18.9C205.8 21.9 201.7 19 198.9 17.5C202.3 17.2 204.6 15.8 206.2 13.4C206.3 11.5 205.1 11 205.3 8.8C206.3 7.8 207.1 6.5 208.5 6.1C208.3 5.6 208.7 5.4 209.3 5.5C209.4 5.7 209.5 6 209.7 6.2C210.7 6.6 211.9 6.8 213.4 6.7C213.1 7.5 212.4 8.1 212.2 9C220.8 6.5 229.5 15.6 236.1 15.1C237.5 17.4 239.8 21 243.2 19.7C242.6 15 238.2 13.8 243.5 11.5C244.3 13.4 244.4 16.1 246.1 17C246.1 11.5 244.2 9.2 239 10.6C236.7 7.3 239.7 5 242.2 4.3C241.8 4.1 241.2 1.8 241.7 2C243.3 2.3 245.3 4.5 246.6 3.5C245.7 2.6 241.7 1.2 241 0L167.1 0.3V0ZM182.7 16.3C181.8 16.2 182.5 14.4 182.2 13.5C179.7 13.5 177.3 13.4 174.8 13.4C174.5 11.5 175 10.4 175.1 8.8C176.4 8.7 176.8 9.6 178.4 9.3C179.8 7.6 180.1 4.7 180.7 2.1C184.2 6.3 185.1 10.8 182.7 16.3ZM195.2 9.7C195.1 9.9 195 9.3 195 8.2C195.4 9.3 195.5 9.8 195.2 9.7ZM196.4 2.9C196.6 3.2 196.6 3.3 196.4 2.9V2.9ZM237 11C238 10.8 237.6 12.3 238.3 12.4C238.2 13 237.3 12.8 236.6 12.8C236.6 12 237.1 11.9 237 11Z" fill="#D05621"/>
<path d="M248.898 25.6C248.898 24.5 248.898 23.5 248.398 22.8C245.298 22.7 243.698 24.1 241.898 25.5C242.898 25.5 243.098 24.7 244.398 25C244.198 25.9 243.498 26.1 243.598 27.3C245.298 26.8 246.898 25.9 248.898 25.6Z" fill="#D05621"/>
<path d="M256.502 18.4998C256.402 18.9998 256.102 19.1998 255.702 19.3998C255.502 21.6998 256.302 22.9998 258.202 22.9998C260.602 22.0998 260.102 17.4998 256.502 18.4998Z" fill="#D05621"/>
<path d="M298.202 12.0002C296.302 11.9002 295.002 14.2002 296.302 16.0002C298.202 17.3002 300.902 13.4002 298.202 12.0002Z" fill="#D05621"/>
<path d="M295.7 32.9C301 37.8 303.9 28.5 298 27C297.2 28.9 295.2 29.5 295.7 32.9Z" fill="#D05621"/>
<path d="M313.402 10.7002C314.202 9.3002 314.202 7.7002 313.302 6.2002C312.602 6.2002 311.902 6.2002 311.302 6.2002C310.702 7.1002 311.102 9.2002 310.602 10.3002C311.402 10.4002 312.102 11.0002 313.402 10.7002Z" fill="#D05621"/>
<path d="M308.799 31.1996C307.999 38.6996 315.999 29.3996 308.799 31.1996V31.1996Z" fill="#D05621"/>
<path d="M263.499 18.9997C264.299 20.1997 266.399 20.0997 267.599 19.4997C270.199 14.6997 262.199 13.5997 263.499 18.9997Z" fill="#D05621"/>
<path d="M302.899 46.9995C304.099 45.0995 302.999 42.4995 300.399 43.3995C299.899 44.6995 299.999 45.6995 300.499 46.9995C301.299 46.9995 302.099 46.9995 302.899 46.9995Z" fill="#D05621"/>
<path d="M256.299 6.6002C256.199 9.0002 257.399 10.0002 259.699 9.8002C261.299 7.1002 257.699 4.7002 256.299 6.6002Z" fill="#D05621"/>
<path d="M268.301 13.4996C268.301 14.1996 268.401 14.9996 268.401 15.7996C268.901 16.4996 270.201 16.2996 271.301 16.2996C273.001 13.7996 269.701 11.0996 268.301 13.4996Z" fill="#D05621"/>
<path d="M10.1008 19.3C8.90078 20.3 8.20078 21.9 7.30078 23.3C9.90078 22.5 13.0008 24.3 14.2008 22.5C12.9008 21.5 12.6008 19.2 10.1008 19.3Z" fill="#D05621"/>
<path d="M111.602 27.0999C111.802 28.2999 112.102 29.6999 113.702 29.3999C114.002 28.8999 114.202 28.1999 114.102 27.0999C113.102 26.9999 112.302 26.1999 111.602 27.0999Z" fill="#D05621"/>
<path d="M57.7984 25.2003C60.2984 28.3003 63.0984 21.9003 58.1984 22.9003C58.2984 24.1003 57.3984 23.9003 57.7984 25.2003Z" fill="#D05621"/>
<path d="M49.2992 0C46.9992 2.3 44.1992 4.1 44.6992 7.9C48.7992 6.3 50.9992 2.6 54.1992 0H49.2992Z" fill="#D05621"/>
<path d="M166.401 0H164.301C165.401 0.7 166.201 1.2 166.601 1.4C166.501 0.9 166.501 0.4 166.401 0Z" fill="#D05621"/>
<path d="M52.7012 38.4C52.8012 37.8 53.6012 37.9 53.9012 37.5C54.1012 34.8 53.1012 33.7 52.6012 32C49.0012 32.3 47.3012 38.7 52.7012 38.4Z" fill="#D05621"/>
<path d="M316.301 39.3995C316.301 40.2995 316.401 41.1995 316.401 42.0995C320.501 44.9995 320.401 36.5995 316.301 39.3995Z" fill="#D05621"/>
<path d="M318.498 0.4C318.598 0.3 318.698 0.2 318.798 0H317.898C317.998 0.1 318.298 0.2 318.498 0.4Z" fill="#D05621"/>
<path d="M0 20.7002V23.7002C1.6 23.4002 1.4 21.3002 0 20.7002Z" fill="#D05621"/>
<path d="M294.699 0.7C294.799 0.5 294.799 0.3 294.899 0H290.699C291.499 1 293.099 1.6 294.699 0.7Z" fill="#D05621"/>
<path d="M134.702 28.3004C134.602 30.2004 140.002 30.4004 140.402 28.8004C138.302 27.3004 137.102 24.9004 135.302 23.3004C135.902 23.2004 136.802 23.5004 137.002 22.9004C136.302 21.9004 135.402 21.0004 134.902 19.7004C130.702 19.1004 129.302 21.6004 128.102 24.2004C129.302 27.5004 130.902 30.3004 134.402 31.1004C134.502 30.2004 133.702 28.3004 134.702 28.3004ZM132.102 27.3004C132.002 25.8004 132.002 24.3004 132.002 22.7004C133.102 23.6004 132.902 25.9004 134.102 26.8004C134.302 28.8004 132.802 27.1004 132.102 27.3004Z" fill="#D05621"/>
<path d="M201.401 34.6999C198.501 37.6999 201.301 43.5999 204.401 44.2999C208.901 42.1999 209.401 33.1999 201.401 34.6999Z" fill="#D05621"/>
<path d="M188.098 45.1004C189.498 43.7004 190.898 39.9004 189.598 36.9004C186.298 37.0004 186.198 42.8004 188.098 45.1004Z" fill="#D05621"/>
<path d="M217.6 23.9999C218.2 23.7999 218.6 23.2999 219.3 23.0999C219.9 15.5999 212.3 22.6999 217.6 23.9999Z" fill="#D05621"/>
<path d="M153.9 9.70039C154.9 8.10039 155.2 3.50039 153 2.90039C149.9 3.30039 151.4 9.80039 153.9 9.70039Z" fill="#D05621"/>
<path d="M128.801 29.5996C125.501 30.4996 125.101 35.4996 129.301 35.8996C129.101 33.9996 129.801 30.7996 128.801 29.5996Z" fill="#D05621"/>
<path d="M58.1992 0C59.5992 0.6 61.1992 1.1 62.5992 0.4C62.7992 3.1 65.4992 3 67.1992 4.1C67.4992 5.5 66.4992 5.7 66.7992 7.3C68.6992 7.2 69.9992 6.3 72.0992 6.5C75.9992 9.4 79.3992 11.2 81.6992 16.6C85.3992 14.8 89.3992 13.5 93.4992 12.2C93.7992 13.5 92.9992 13.4 93.0992 14.5C94.8992 14.6 96.2992 14.1 97.5992 13.7C98.0992 9.2 102.199 4.3 105.599 6C104.399 10.5 99.6992 18.9 105.499 21.9C107.099 19.3 109.099 17.2 108.999 12.9C107.799 12.1 106.199 11.6 105.299 10.6C106.599 8.9 107.499 6.9 108.099 4.3C106.299 3.7 104.899 2.7 103.899 1.1C105.599 1.5 105.999 0.4 107.599 0.7C108.299 2.7 108.599 5 108.599 7.8C112.399 8.2 112.799 4.9 114.199 2.9C115.899 4.3 119.499 3.4 118.799 7.5C121.999 10.5 128.199 10.3 127.999 17.1C131.499 17.2 135.099 17.5 136.599 15.4C137.099 16.6 138.199 16.9 138.699 18.1C137.599 18.2 136.999 18.8 137.099 20.3C137.199 21.5 138.799 21.1 139.199 22.1C138.899 23 137.999 23.4 137.999 24.8C140.299 26.3 142.399 24.2 142.899 22.1C139.799 16.5 135.099 8.4 136.599 0.1H58.1992V0ZM132.599 11.8C130.999 11.9 129.599 11.8 128.499 11.3C129.099 10.6 129.899 10.1 130.899 9.9C132.199 11.8 134.599 12.2 135.499 14.6C133.399 14.9 133.099 13.2 132.599 11.8Z" fill="#D05621"/>
<path d="M118.301 16.2996C118.601 17.9996 119.801 18.6996 120.401 19.8996C122.501 19.2996 124.501 21.1996 125.701 19.9996C124.001 18.3996 121.401 16.0996 122.301 13.0996C120.601 13.6996 119.801 15.3996 118.301 16.2996Z" fill="#D05621"/>
<path d="M223 25.4C223 27.1 223.8 27.8 225.1 28.1C227.1 27.4 227 23.9 224.2 24.1C223.8 24.5 223.4 24.9 223 25.4Z" fill="#D05621"/>
</g>
</svg>
