<svg width="72" height="74" viewBox="0 0 72 74" fill="none" xmlns="http://www.w3.org/2000/svg">
    <g filter="url(#filter0_d_314_112013)">
    <path d="M18.8533 16.433L24.3832 10.903C24.3075 10.1124 24.5729 9.29384 25.1792 8.68753L28.0898 5.777C30.2021 3.66469 33.0132 2.5 36.0007 2.5C38.9882 2.5 41.798 3.66474 43.9102 5.777L52.5795 14.4463C53.015 14.8818 53.2916 15.4498 53.3676 16.0594L53.3677 16.0599L53.4513 16.7362L55.8283 19.1132C55.9158 19.1047 56.0037 19.1004 56.0921 19.1004C56.8126 19.1004 57.5182 19.3837 58.0441 19.9095L68.223 30.0885C70.3353 32.2008 71.5 35.0118 71.5 37.9993C71.5 40.9868 70.3353 43.7979 68.223 45.9102L65.9248 48.2084C65.3955 48.7377 64.6882 49.0176 63.9715 49.0176C63.9257 49.0176 63.8799 49.0164 63.834 49.014V49.1551C63.834 49.887 63.5426 50.5893 63.0249 51.107L59.3554 54.7765L18.8533 16.433ZM18.8533 16.433C18.7647 16.4245 18.6767 16.4205 18.5891 16.4205C17.8629 16.4205 17.1586 16.7067 16.6369 17.2298C16.6368 17.2299 16.6367 17.2301 16.6366 17.2302L9.96255 23.9042C9.36803 24.4988 9.0896 25.3151 9.16657 26.1197L6.06044 29.2258C5.97296 29.2173 5.88532 29.2131 5.79789 29.2131C5.07966 29.2131 4.37376 29.493 3.84459 30.0222L3.777 30.0898C1.66469 32.2021 0.5 35.0132 0.5 38.0007C0.5 40.9882 1.66469 43.7992 3.777 45.9115L10.8174 52.952C11.3351 53.4697 12.0375 53.7611 12.7694 53.7611H13.0447L21.9791 62.6955V62.9708C21.9791 63.7028 22.2706 64.4051 22.7883 64.9228L28.0885 70.223C30.2008 72.3353 33.0118 73.5 35.9993 73.5C38.9869 73.5 41.7979 72.3353 43.9102 70.223L55.7048 58.4284C56.2878 57.8454 56.5789 57.0312 56.5005 56.2119L57.139 55.5734C57.2268 55.5819 57.3148 55.5861 57.4029 55.5861C58.1259 55.5861 58.8315 55.3017 59.3549 54.777L18.8533 16.433ZM27.841 10.6408L30.398 8.08384L30.3982 8.08355C31.9441 6.53522 33.9715 5.7611 36.0007 5.7611C38.0298 5.7611 40.0575 6.5352 41.6062 8.08265L50.1538 16.6302L50.3328 18.0792L50.3539 18.2499L50.4755 18.3714L54.6902 22.5862L54.9129 22.8088L55.2099 22.7042L55.9626 22.439L65.9188 32.3953C69.0145 35.491 69.0145 40.509 65.9188 43.6047L63.8679 45.6556L63.2162 45.3525L62.8991 45.205L62.6518 45.4523L60.722 47.382L60.5755 47.5285V47.7356V48.948L57.2477 52.2758L56.3631 52.0727L56.0933 52.0107L55.8976 52.2064L53.2588 54.8453L53.0889 55.0152L53.1154 55.254L53.2307 56.2928L41.606 67.9175C40.0588 69.4647 38.0299 70.2389 36.0007 70.2389C33.9715 70.2389 31.9439 69.4648 30.3952 67.9173L25.2416 62.7637V61.5514V61.3442L25.0951 61.1978L14.5437 50.6464L14.3973 50.5H14.1902H12.9778L6.08385 43.606C3.04545 40.5676 2.98925 35.6773 5.91525 32.5704L6.60085 32.8655L6.91766 33.0019L7.15766 32.7541C7.18683 32.724 7.21371 32.6928 7.22976 32.6742L7.23524 32.6678C7.25403 32.6461 7.26059 32.6392 7.2644 32.6355L7.26444 32.6355L7.27006 32.6299L12.7227 27.1773L12.9704 26.9295L12.8221 26.6121L12.5185 25.962L18.7645 19.716L19.734 19.8727L19.9865 19.9135L20.1673 19.7326L28.1965 11.7035L28.55 11.3499L28.1965 10.9963L27.841 10.6408Z" fill="#A82F14" stroke="#A82F14"/>
    <path d="M41.7245 8.91571L65.0844 32.2756C68.2467 35.4379 68.2467 40.5632 65.0844 43.7255L41.7245 67.0854C38.5622 70.2477 33.4369 70.2477 30.2746 67.0854L6.91474 43.7255C3.75238 40.5632 3.75238 35.4379 6.91474 32.2756L30.2746 8.91571C33.4369 5.75336 38.5635 5.75336 41.7245 8.91571Z" fill="#DB4120"/>
    <path d="M5.72908 43.9586L12.7695 50.999H17.5608L21.2599 55.4589L24.7403 57.5252V62.9698L30.0405 68.27C33.3315 71.561 38.6661 71.561 41.957 68.27L53.7516 56.4755L53.24 51.8698L57.403 52.8254L61.073 49.1554V44.9075L63.9716 46.2555L66.2698 43.9573C69.5607 40.6663 69.5607 35.3317 66.2698 32.0407L56.0909 21.8618L51.4998 23.4775L50.6264 16.3973L41.957 7.72796C38.6661 4.43704 33.3315 4.43704 30.0405 7.72796L27.1313 10.6385L28.2221 11.7293L25.2851 16.2979L24.3056 20.1057L18.5892 19.1806L11.9146 25.8552L14.515 31.4178L10.8159 32.0699V34.1362L5.79535 31.9718L5.72776 32.0394C2.43948 35.333 2.43949 40.6677 5.72908 43.9586Z" fill="url(#paint0_radial_314_112013)"/>
    <g filter="url(#filter1_d_314_112013)">
    <path d="M29.742 46.33C28.4953 46.33 27.5127 46.0953 26.794 45.626C26.09 45.1567 25.584 44.504 25.276 43.668C24.9827 42.8173 24.836 41.842 24.836 40.742V40.104H28.51C28.51 40.1187 28.51 40.1993 28.51 40.346C28.51 40.4927 28.51 40.6247 28.51 40.742C28.51 41.3287 28.5467 41.8053 28.62 42.172C28.6933 42.5387 28.8253 42.81 29.016 42.986C29.2067 43.1473 29.4707 43.228 29.808 43.228C30.1453 43.228 30.3947 43.14 30.556 42.964C30.732 42.788 30.8493 42.524 30.908 42.172C30.9667 41.82 30.996 41.38 30.996 40.852C30.996 39.972 30.8713 39.3047 30.622 38.85C30.3873 38.3807 29.8887 38.1387 29.126 38.124C29.1113 38.124 29.0307 38.124 28.884 38.124C28.7373 38.124 28.5907 38.124 28.444 38.124V35.594C28.5467 35.594 28.6493 35.594 28.752 35.594C28.8547 35.594 28.95 35.594 29.038 35.594C29.8153 35.594 30.336 35.3813 30.6 34.956C30.864 34.5307 30.996 33.8707 30.996 32.976C30.996 32.2867 30.9007 31.7587 30.71 31.392C30.534 31.0253 30.1967 30.842 29.698 30.842C29.214 30.842 28.8913 31.0473 28.73 31.458C28.5833 31.8687 28.51 32.3967 28.51 33.042C28.51 33.1887 28.51 33.3427 28.51 33.504C28.51 33.6507 28.51 33.8047 28.51 33.966H24.836V32.888C24.836 31.8173 25.0267 30.9153 25.408 30.182C25.804 29.434 26.3613 28.8693 27.08 28.488C27.8133 28.1067 28.686 27.916 29.698 27.916C30.7247 27.916 31.6047 28.0993 32.338 28.466C33.0713 28.8327 33.636 29.3753 34.032 30.094C34.428 30.798 34.626 31.678 34.626 32.734C34.626 33.7753 34.4133 34.648 33.988 35.352C33.5627 36.056 33.0493 36.4887 32.448 36.65C32.8587 36.7967 33.2253 37.0313 33.548 37.354C33.8853 37.6767 34.1493 38.1167 34.34 38.674C34.5307 39.2167 34.626 39.9133 34.626 40.764C34.626 41.8493 34.4647 42.81 34.142 43.646C33.834 44.482 33.3207 45.142 32.602 45.626C31.8833 46.0953 30.93 46.33 29.742 46.33ZM36.4548 46L39.9088 36.408L36.6088 28.18H40.3268L42.2848 32.998L43.8688 28.18H47.1468L44.0228 37.442L47.4988 46H43.8028L41.6248 40.676L39.7108 46H36.4548Z" fill="#B53114"/>
    </g>
    </g>
    <defs>
    <filter id="filter0_d_314_112013" x="0" y="0" width="72" height="74" filterUnits="userSpaceOnUse" color-interpolation-filters="sRGB">
    <feFlood flood-opacity="0" result="BackgroundImageFix"/>
    <feColorMatrix in="SourceAlpha" type="matrix" values="0 0 0 0 0 0 0 0 0 0 0 0 0 0 0 0 0 0 127 0" result="hardAlpha"/>
    <feOffset dy="-2"/>
    <feComposite in2="hardAlpha" operator="out"/>
    <feColorMatrix type="matrix" values="0 0 0 0 0.933333 0 0 0 0 0.4 0 0 0 0 0.117647 0 0 0 1 0"/>
    <feBlend mode="normal" in2="BackgroundImageFix" result="effect1_dropShadow_314_112013"/>
    <feBlend mode="normal" in="SourceGraphic" in2="effect1_dropShadow_314_112013" result="shape"/>
    </filter>
    <filter id="filter1_d_314_112013" x="24.8359" y="27.916" width="22.6641" height="19.9141" filterUnits="userSpaceOnUse" color-interpolation-filters="sRGB">
    <feFlood flood-opacity="0" result="BackgroundImageFix"/>
    <feColorMatrix in="SourceAlpha" type="matrix" values="0 0 0 0 0 0 0 0 0 0 0 0 0 0 0 0 0 0 127 0" result="hardAlpha"/>
    <feOffset dy="1.5"/>
    <feComposite in2="hardAlpha" operator="out"/>
    <feColorMatrix type="matrix" values="0 0 0 0 1 0 0 0 0 0.776471 0 0 0 0 0.517647 0 0 0 1 0"/>
    <feBlend mode="normal" in2="BackgroundImageFix" result="effect1_dropShadow_314_112013"/>
    <feBlend mode="normal" in="SourceGraphic" in2="effect1_dropShadow_314_112013" result="shape"/>
    </filter>
    <radialGradient id="paint0_radial_314_112013" cx="0" cy="0" r="1" gradientUnits="userSpaceOnUse" gradientTransform="translate(35.9999 37.9977) scale(32.7382 32.7388)">
    <stop stop-color="#FAA150"/>
    <stop offset="1" stop-color="#EA4F0B"/>
    </radialGradient>
    </defs>
</svg>
