<svg width="333" height="64" viewBox="0 0 333 64" fill="none" xmlns="http://www.w3.org/2000/svg">
<path opacity="0.2" d="M263.801 21.7002C263.901 23.0002 263.901 24.4002 265.601 24.3002C266.001 23.9002 266.301 23.1002 266.301 22.1002C265.301 21.8002 264.601 20.9002 263.801 21.7002Z" fill="#EB2E5B"/>
<path opacity="0.2" d="M203.001 24.6C203.201 24 204.001 24.2 204.301 23.9C204.901 21.3 204.101 20 203.801 18.2C200.101 17.9 197.501 24.1 203.001 24.6Z" fill="#EB2E5B"/>
<path opacity="0.2" d="M258.651 6.7832C259.651 5.7832 260.551 4.6832 261.251 3.2832L258.651 4.2832C256.451 8.7832 252.251 14.6832 257.151 18.1832C259.151 15.7832 261.451 13.9832 262.051 9.5832C260.951 8.6832 259.451 7.9832 258.651 6.7832Z" fill="#EB2E5B"/>
<path opacity="0.2" d="M210.7 9.79983C210.7 10.8998 209.8 10.6998 210 11.9998C212 15.5998 215.7 9.49983 210.7 9.79983Z" fill="#EB2E5B"/>
<path opacity="0.2" d="M232.8 24.3996C232.7 25.0996 232.6 25.9996 232.5 26.6996C233.4 26.8996 233.6 27.6996 234.9 27.4996C235.6 26.9996 235.8 25.0996 235.3 24.3996C234.3 24.0996 233.3 23.9996 232.8 24.3996Z" fill="#EB2E5B"/>
<path opacity="0.2" d="M161.5 0.6C160.8 1.3 160.2 2.2 159.6 2.9C162.4 2.5 165.2 4.7 166.7 3.1C166 2.4 165.7 1.4 165.1 0.5H161.5V0.6Z" fill="#EB2E5B"/>
<path opacity="0.2" d="M322.7 53.0997C321.5 55.2997 322.8 57.6997 325.2 56.7997C325.3 55.6997 325.5 54.6997 325.6 53.5997C324.1 53.0997 324.1 52.5997 322.7 53.0997Z" fill="#EB2E5B"/>
<path opacity="0.2" d="M326.7 28.5001C326.3 30.3001 327.2 31.1001 328.9 31.2001C329.3 29.8001 328.6 29.4001 328.8 28.4001C327.7 27.8001 327.6 28.9001 326.7 28.5001Z" fill="#EB2E5B"/>
<path opacity="0.2" d="M321.5 32.3004C323.4 34.6004 321.9 41.2004 326.4 40.0004C328.3 35.1004 326.7 27.9004 321.5 32.3004Z" fill="#EB2E5B"/>
<path opacity="0.2" d="M292.3 0.599609L281 2.79961C281.2 3.29961 277.8 4.09951 277.5 4.99951C280.3 8.49951 283.2 6.89961 282 13.7996C285.5 14.3996 289.1 15.1996 290.9 13.2996C291.2 14.4996 292.3 15.0996 292.6 16.2996C291.4 16.1996 290.7 16.7996 290.7 18.2996C290.7 19.4996 292.3 19.3996 292.5 20.3996C292 21.2996 291.1 21.5996 290.9 22.9996C293 24.7996 295.4 22.9996 296.2 20.9996C294 15.4996 290.9 7.89961 292.3 0.599609Z" fill="#EB2E5B"/>
<path opacity="0.2" d="M326.999 0.599609C326.799 1.49961 326.699 2.49961 326.599 3.59961C325.599 3.39961 324.699 3.39961 323.699 3.19961C323.399 4.29961 322.899 4.79961 322.899 6.39961C323.499 7.29961 325.099 7.29961 325.599 8.19961C322.099 9.19961 321.699 8.89961 321.499 12.5996C318.299 8.79961 316.399 10.4996 318.299 2.39961C316.099 3.19961 313.999 4.39961 312.399 6.19961C312.999 10.3996 314.999 13.5996 317.899 15.8996C316.699 16.4996 315.399 16.7996 313.999 17.1996C314.499 16.4996 315.299 16.1996 315.199 14.5996C314.599 13.0996 311.999 11.9996 310.699 13.3996C309.599 23.0996 317.699 18.1996 321.099 20.5996C319.799 24.6996 315.199 29.5996 316.499 33.8996C320.299 26.9996 318.299 20.5996 328.799 26.9996C328.899 26.4996 330.799 26.0996 331.899 25.8996V0.599609H326.999Z" fill="#EB2E5B"/>
<path opacity="0.2" d="M289.799 21.0002C289.199 19.9002 288.499 18.8002 288.199 17.5002C284.099 16.3002 282.299 18.6002 280.699 21.0002C281.399 24.5002 282.699 27.6002 285.999 28.8002C286.299 28.0002 285.799 26.0002 286.799 26.1002C286.499 28.0002 291.899 29.0002 292.499 27.4002C290.599 25.6002 289.699 23.0002 288.199 21.1002C288.699 21.2002 289.599 21.6002 289.799 21.0002ZM284.399 24.8002C284.599 23.2002 284.799 21.8002 284.999 20.2002C285.999 21.2002 285.499 23.5002 286.499 24.6002C286.399 26.6002 285.099 24.8002 284.399 24.8002Z" fill="#EB2E5B"/>
<path opacity="0.2" d="M308.799 3.29992C305.699 3.19992 306.299 9.99992 308.799 10.2999C309.999 8.79992 310.999 4.19992 308.799 3.29992Z" fill="#EB2E5B"/>
<path opacity="0.2" d="M304.599 50.2999C303.199 51.0999 302.799 54.7999 305.299 54.5999C307.699 54.2999 307.199 50.0999 304.599 50.2999Z" fill="#EB2E5B"/>
<path opacity="0.2" d="M121.901 56C119.701 56.6 119.201 63.2 122.301 63.1C123.701 61.1 124.101 57.2 121.901 56Z" fill="#EB2E5B"/>
<path opacity="0.2" d="M119.801 50.1004C120.401 50.8004 121.101 51.5004 122.601 51.4004C124.101 50.2004 124.801 47.3004 123.201 45.9004C121.101 46.0004 119.801 47.2004 119.801 50.1004Z" fill="#EB2E5B"/>
<path opacity="0.2" d="M127.401 22.3002C125.201 24.7002 123.901 28.3002 122.801 32.3002C132.001 36.7002 137.701 28.9002 132.901 22.2002C131.101 22.5002 129.001 22.0002 127.401 22.3002Z" fill="#EB2E5B"/>
<path opacity="0.2" d="M131.3 44.9004C130.3 45.9004 130.6 48.3004 132.2 48.3004C132.6 47.7004 132.9 46.7004 133.3 46.1004C132.5 45.8004 132.3 44.9004 131.3 44.9004Z" fill="#EB2E5B"/>
<path opacity="0.2" d="M329.4 33.1002C329.3 33.2002 329.3 33.3002 329.4 33.4002C329.3 34.4002 329.2 35.3002 329.1 36.4002C330.4 36.2002 330.2 37.4002 331.5 37.2002C331.7 37.0002 331.9 36.9002 332.1 36.6002V33.9002C331.8 33.6002 331.5 33.3002 331 33.2002C331.3 33.1002 331.7 33.0002 332.1 32.8002V28.7002C330.5 30.1002 328.8 31.9002 329.4 33.1002Z" fill="#EB2E5B"/>
<path opacity="0.2" d="M326 50.3004C327.9 53.1004 327 58.2004 329.8 60.2004C330.6 59.9004 331.3 59.5004 332 59.0004V54.3004C329.9 52.7004 329 49.9004 326 50.3004Z" fill="#EB2E5B"/>
<path opacity="0.2" d="M151.199 0.599609C151.299 1.19961 151.599 1.79961 151.699 2.29961C152.999 2.49961 153.599 1.49961 153.399 0.599609H151.199Z" fill="#EB2E5B"/>
<path opacity="0.2" d="M197.1 1.29961C197.3 0.999609 197.4 0.799609 197.6 0.599609H196C196.3 0.899609 196.6 1.09961 197.1 1.29961Z" fill="#EB2E5B"/>
<path opacity="0.2" d="M181.6 4.5C183 3.4 183.7 1.5 184.1 0H170.6C172.1 4.3 177.5 7.6 181.6 4.5Z" fill="#EB2E5B"/>
<path opacity="0.2" d="M139.699 7.5C140.199 8 141.199 8.2 141.599 8.7C143.199 8 144.199 6.5 144.399 3.5C142.299 4 140.199 4.5 139.699 7.5Z" fill="#EB2E5B"/>
<path opacity="0.2" d="M322.8 3.79961C322.9 2.59961 322.7 1.49961 322.5 0.599609H319.6C320.5 1.79961 321.6 2.79961 322.8 3.79961Z" fill="#EB2E5B"/>
<path opacity="0.2" d="M279 16.6002C277.5 14.8002 275.2 12.1002 276.6 9.2002C274.7 9.5002 273.7 11.1002 272.1 11.8002C272.1 13.5002 273.3 14.4002 273.7 15.7002C275.9 15.4002 277.6 17.6002 279 16.6002Z" fill="#EB2E5B"/>
<path opacity="0.2" d="M134.3 0.599609C131.6 1.99961 129.3 4.19961 128 7.59961C134.3 18.0996 144.4 4.99961 134.3 0.599609Z" fill="#EB2E5B"/>
<path opacity="0.2" d="M280.4 33.1002C280.4 31.1002 281.6 28.0002 280.8 26.7002C277.3 27.1002 276.2 32.1002 280.4 33.1002Z" fill="#EB2E5B"/>
<path opacity="0.1" d="M0 52.1998C0.1 52.1998 0.1 52.1998 0.2 52.1998C0.5 52.0998 0.6 51.7998 0.7 51.5998C0.9 51.2998 1.2 51.1998 1.4 50.8998C1.9 50.4998 1.9 49.6998 2 48.9998C2.2 48.0998 2.3 47.1998 2.5 46.3998C2.8 45.1998 4.1 44.3998 5.1 43.8998C5.8 43.4998 6.7 43.0998 6.9 42.2998C7.1 41.3998 7 40.5998 7 39.6998C7 38.9998 7.4 38.4998 7.6 37.8998C7.9 37.2998 8.2 36.6998 8.4 36.0998C8.8 34.8998 9.9 34.9998 11 34.8998C12.6 34.7998 13.2 33.5998 14.4 32.7998C15.5 32.0998 16.5 31.5998 17.7 31.2998C19.2 30.7998 20.6 30.0998 22 29.4998C22.7 29.2998 23.7 28.7998 23.4 27.8998C23.2 27.3998 22.3 26.8998 22.8 26.1998C23 25.7998 23.7 26.1998 24.1 25.8998C24.6 25.5998 24.7 24.8998 25.2 24.5998C26.2 23.8998 27.6 25.1998 28.1 23.9998C28.4 23.2998 28.6 23.0998 29.5 23.0998C30.2 23.0998 31 23.2998 31.8 23.2998C32.5 23.2998 32.6 22.9998 33.2 22.7998C33.8 22.4998 34.8 22.8998 35.5 23.0998C36.3 23.2998 37.3 23.6998 38.2 23.6998C38.9 23.6998 38.8 23.3998 39.3 23.0998C40.2 22.4998 41.5 23.7998 42.1 22.4998C42.2 22.2998 42.1 21.9998 42.2 21.7998C42.3 21.5998 42.5 21.2998 42.6 21.0998C42.9 20.5998 43.1 19.9998 43.2 19.4998C43.3 18.7998 43.3 18.2998 44.2 18.3998C44.5 18.4998 45.6 18.8998 45.9 18.6998C46.1 18.5998 46 18.1998 46.1 17.9998C46.2 17.7998 46.4 17.7998 46.5 17.5998C47 16.9998 47.3 16.8998 48.1 16.5998C49.6 16.1998 51.2 16.4998 52.8 16.3998C54 16.2998 55.7 16.7998 56.7 15.8998C57.1 15.4998 57.3 15.1998 57.8 14.8998C58.4 14.4998 59 14.0998 59.7 13.8998C60.4 13.6998 61 14.1998 61.7 14.1998C62.3 14.1998 62.4 13.3998 62.6 12.8998C62.8 12.2998 62.8 11.6998 63 11.1998C63.3 10.4998 63.8 9.9998 64.3 9.4998C64.8 8.9998 64.9 8.7998 65.6 8.4998C66.3 8.1998 67 7.8998 67.8 7.6998C68.5 7.4998 69.1 7.3998 69.6 6.7998C70.1 6.0998 69.8 5.4998 70.8 5.2998C71.3 5.1998 71.8 5.2998 72.3 5.1998C73 5.0998 73.5 4.6998 74.2 4.3998C74.7 4.1998 75 3.7998 75.4 3.4998C76 3.0998 76.8 3.1998 77.6 3.1998C78.4 3.1998 78.4 3.2998 79 2.8998C79.6 2.4998 69.8 3.19976 70.5 2.99976C71.3 2.69976 59 1.0998 59 0.299805H0V52.1998Z" fill="#EB2E5B"/>
</svg>
