<svg width="332" height="59" viewBox="0 0 332 59" fill="none" xmlns="http://www.w3.org/2000/svg">
<path opacity="0.05" d="M325.999 1H263.699C265.399 2.8 268.099 3.5 269.799 5.3C271.999 7.6 274.899 8.5 277.799 9.6C279.699 10.4 281.199 11.3 282.899 12.5C283.699 13.1 285.299 13.8 284.999 15C284.399 15 283.599 15.1 283.499 15.7C285.099 16.9 288.899 17.8 288.699 20.4C288.599 21.7 286.999 23.1 286.999 24.3C287.099 25.5 288.299 25.3 289.199 25.3C290.099 25.3 291.699 24.8 292.499 25.1C293.499 25.5 293.999 26.4 295.099 26.9C297.899 28 300.099 28.8 303.199 28.2C302.499 28.4 301.999 29.6 302.099 30.3C302.299 31.3 303.099 31.5 303.899 31.8C304.999 32.2 309.099 32 309.299 33.2C311.099 33.2 313.399 33.4 315.299 33.8C317.099 34.2 319.099 36.1 320.999 35.3C323.199 34.4 323.999 31.1 324.899 29.2C326.099 26.5 329.399 27.8 331.699 28.7V3.7C329.799 3 327.799 2.1 325.999 1Z" fill="#FFA320"/>
<path opacity="0.15" d="M198.3 4.50039L198.4 4.40039C198.2 4.50039 198.1 4.60039 198 4.70039C198.1 4.70039 198.2 4.60039 198.3 4.50039Z" fill="#FFA320"/>
<path opacity="0.15" d="M199.3 3.2C199.4 3.1 199.5 3 199.6 2.9C199.9 2.7 200.2 2.5 200.6 2.3C201.1 2 201.5 1.6 201.9 1.3C202 1.2 202.2 1.1 202.3 1H197.9C198.2 2 198.6 2.9 199.3 3.2Z" fill="#FFA320"/>
<path opacity="0.15" d="M195.8 6.6C195.3 5.1 196.9 4.2 196.6 2.5C196.6 2.5 196.1 1.6 195.7 1H187.1C187.3 1.1 187.6 1.1 187.9 1.2C188.1 2 188 2.6 187.8 3.1C186.5 3.5 186.2 2.4 185.9 1.5C186 1.3 186.2 1.2 186.3 1.1H182.5C182.6 1.2 182.6 1.3 182.7 1.4C183 2 183.5 2.5 183.5 3.2C183.5 3.3 183.5 3.7 183.5 3.9C183.4 4.1 183.2 4.2 183.1 4.4C182.6 5.3 183.7 6.4 184.1 7.1C184.5 7.7 185.1 8.3 185.6 8.8C185.9 9.1 186 9.4 186.3 9.8C186.5 10 186.6 10.1 186.7 10.3C186.7 10.5 186.8 10.7 186.8 10.9C186.9 11.3 187 11.8 187.2 12.3C187.3 12.5 187.5 12.7 187.6 13C187.7 13.1 187.7 13.4 187.8 13.5C187.9 13.6 188.6 13.4 188.8 13.3C189.2 13.2 189.6 13.2 190 13.1C189.5 12.8 189.1 12.4 188.9 11.7C188.8 9.8 189.7 8.7 191.5 8.5C191.8 9.4 192.1 10.5 192.2 11.6C192.3 11.4 192.4 11.1 192.4 10.7C192.4 10.2 192.5 9.7 192.9 9.3C193.3 9 193.8 8.8 194.3 8.5C194.8 8.2 195.4 8 195.9 7.7C196.3 7.5 196.3 7.1 196.5 6.6C196.5 6.5 196.6 6.4 196.6 6.3C196.5 6.3 196.2 6.5 195.8 6.6Z" fill="#FFA320"/>
<path opacity="0.15" d="M121.3 6.00015C120.1 5.90015 119.9 6.90015 119.1 7.30015C119.5 8.50015 120.2 9.50015 120.8 10.4002C121.5 9.50015 122.5 7.50015 121.3 6.00015Z" fill="#FFA320"/>
<path opacity="0.15" d="M118.799 7C119.499 6.6 119.199 5.3 119.599 4.7C118.899 5 118.199 5.3 116.999 5.3C116.899 4.3 116.699 3.4 116.599 2.4C117.499 2.3 118.299 2.2 119.199 2.2C119.299 1.8 119.299 1.4 119.199 1H115.699C115.899 2.8 116.099 4.6 116.299 6.5C116.599 7.2 118.699 4.7 118.799 7Z" fill="#FFA320"/>
<path opacity="0.15" d="M125.4 7.7002C125.8 7.7002 126.3 7.6002 126.7 7.4002C127.8 6.9002 128.7 6.2002 129.6 5.6002C130 5.3002 130.2 5.0002 130.3 4.6002C129.2 4.2002 128 3.9002 126.8 3.7002C126.3 5.2002 126 6.60019 125.4 7.7002Z" fill="#FFA320"/>
<path opacity="0.05" d="M118.701 9.2002C117.001 9.3002 115.001 9.8002 113.701 9.3002C113.801 7.8002 115.001 7.2002 115.301 5.9002C113.501 6.0002 111.901 6.3002 111.501 7.7002C111.801 9.0002 112.901 9.2002 113.501 10.1002C111.601 13.6002 109.401 16.8002 104.001 17.2002C103.001 15.6002 101.501 14.8002 101.401 11.9002C102.501 11.8002 104.501 9.9002 104.701 12.0002C105.001 13.5002 103.701 12.3002 103.101 12.5002C102.601 13.0002 103.201 14.6002 102.801 15.1002C110.101 17.2002 112.901 11.3002 108.701 5.8002C107.101 5.9002 106.301 6.7002 104.801 6.9002C104.901 7.6002 105.001 8.3002 105.101 9.1002C102.901 9.6002 101.401 9.0002 99.5008 9.3002C101.401 6.1002 104.001 3.6002 108.401 2.6002C108.701 3.7002 109.101 4.5002 109.401 5.5002C111.301 4.1002 112.801 2.3002 115.101 1.2002H110.401C110.301 1.7002 110.201 2.3002 110.001 2.8002C109.101 2.7002 108.801 1.9002 108.401 1.2002H68.0008C67.5008 1.9002 67.1008 2.7002 66.8008 3.7002C65.8008 3.6002 65.1008 3.3002 64.1008 3.2002C64.1008 2.3002 64.5008 1.8002 64.8008 1.2002H55.8008C56.2008 1.3002 56.4008 1.5002 56.8008 1.5002C57.0008 1.5002 57.3008 1.5002 57.5008 1.5002C56.7008 1.9002 58.2008 3.0002 58.5008 3.2002C58.9008 3.2002 59.4008 3.4002 59.9008 3.6002C60.2008 3.7002 60.8008 3.8002 61.0008 4.1002C60.8008 4.2002 60.6008 4.1002 60.4008 4.2002C60.5008 4.5002 60.8008 4.4002 61.0008 4.5002C61.2008 4.6002 61.5008 4.8002 61.8008 5.0002C62.1008 5.2002 62.4008 5.3002 62.7008 5.5002C62.9008 5.6002 62.9008 5.7002 63.0008 5.9002C63.2008 6.3002 63.2008 6.7002 63.5008 7.0002C63.7008 7.3002 64.7008 7.9002 64.6008 8.3002C64.2008 8.6002 63.6008 8.8002 64.2008 9.3002C64.5008 9.6002 64.9008 9.8002 65.2008 10.1002C65.5008 10.5002 65.4008 10.9002 66.0008 11.0002C66.5008 11.0002 66.9008 11.2002 67.3008 11.2002C67.4008 11.2002 67.7008 11.2002 67.8008 11.2002C67.9008 11.2002 67.9008 11.3002 68.0008 11.3002C68.1008 11.3002 68.4008 11.4002 68.5008 11.5002C68.9008 11.6002 69.4008 11.6002 69.7008 11.5002C69.9008 11.5002 70.0008 11.4002 70.2008 11.4002C70.4008 11.4002 70.7008 11.4002 70.9008 11.4002C71.2008 11.3002 71.5008 11.3002 71.7008 11.1002C71.9008 11.0002 72.2008 10.7002 72.4008 10.6002C72.8008 10.5002 73.3008 10.6002 73.7008 10.7002C74.2008 10.9002 74.8008 11.1002 75.4008 11.2002C76.0008 11.3002 76.6008 11.1002 77.1008 11.4002C77.7008 11.7002 77.4008 12.0002 77.3008 12.5002C77.2008 13.1002 77.7008 13.6002 78.1008 14.0002C78.4008 14.3002 78.8008 14.5002 79.1008 14.8002C79.2008 15.0002 79.3008 15.1002 79.5008 15.2002C79.6008 15.2002 79.7008 15.3002 79.8008 15.4002C80.0008 15.7002 79.7008 16.2002 79.9008 16.6002C80.1008 17.0002 80.7008 17.2002 81.1008 17.4002C81.4008 17.5002 81.7008 17.6002 82.1008 17.8002C82.5008 18.0002 82.8008 18.3002 83.2008 18.4002C83.6008 18.5002 83.9008 18.4002 84.1008 18.2002C84.3008 18.1002 84.2008 18.0002 84.5008 17.9002C84.6008 17.9002 84.9008 17.9002 85.0008 17.9002C85.9008 18.0002 86.7008 18.4002 87.6008 18.2002C87.7008 18.2002 87.8008 18.1002 88.0008 18.1002C88.2008 18.1002 88.5008 18.1002 88.7008 18.1002C89.2008 18.1002 89.5008 18.2002 90.0008 18.3002C90.4008 18.3002 90.7008 18.3002 91.0008 18.1002C91.2008 17.9002 91.4008 17.6002 91.6008 17.5002C91.9008 17.2002 92.1008 17.4002 92.4008 17.7002C92.7008 17.9002 92.9008 18.2002 93.3008 18.3002C94.8008 18.9002 94.7008 21.1002 96.4008 21.3002C97.1008 21.4002 97.7008 22.1002 98.3008 22.4002C98.7008 22.6002 99.2008 22.8002 99.6008 23.0002C100.201 23.2002 100.701 23.6002 101.301 23.8002C102.501 24.3002 103.501 25.3002 104.701 25.9002C105.001 26.0002 105.401 26.3002 105.701 26.4002C105.801 26.4002 106.001 26.4002 106.201 26.5002C106.401 26.6002 106.501 26.8002 106.701 26.9002C107.301 27.3002 108.001 27.6002 108.701 27.8002C109.101 27.9002 109.301 28.1002 109.701 28.1002C110.101 28.1002 110.301 28.2002 110.701 28.3002C111.201 28.3002 112.201 28.5002 112.201 27.8002C112.601 27.9002 112.901 28.1002 113.301 28.3002C113.601 28.4002 113.801 28.5002 114.101 28.6002C114.701 28.8002 115.501 29.1002 115.901 29.5002C116.201 29.8002 116.201 30.1002 116.401 30.5002C116.501 30.7002 116.901 30.8002 117.101 30.5002C117.201 30.4002 117.001 30.1002 117.101 30.0002C117.101 29.9002 117.201 29.8002 117.301 29.7002C117.401 29.4002 117.301 29.0002 117.301 28.7002C117.301 28.5002 117.401 28.3002 117.501 28.0002C117.501 27.8002 117.401 27.7002 117.501 27.5002C117.501 27.3002 117.801 27.0002 117.901 26.9002C118.301 26.4002 118.901 25.9002 119.001 25.3002C119.101 24.6002 118.901 23.9002 119.201 23.3002C119.301 23.0002 119.501 22.8002 119.501 22.5002C119.501 22.2002 119.501 21.9002 119.501 21.5002C119.501 21.3002 119.601 21.2002 119.601 21.0002C119.601 20.9002 119.601 20.6002 119.601 20.5002C119.701 20.2002 119.801 19.8002 119.901 19.5002C120.201 18.8002 120.201 18.3002 120.201 17.5002C120.201 17.1002 120.201 16.9002 120.401 16.5002V16.4002C120.301 15.5002 120.801 14.5002 121.401 14.0002C121.601 13.3002 121.301 12.6002 121.501 11.9002C121.501 11.7002 121.601 11.6002 121.701 11.4002C121.201 11.5002 120.701 11.6002 120.101 11.7002C119.501 10.6002 119.101 9.9002 118.701 9.2002ZM73.8008 8.0002C72.6008 8.2002 72.0008 7.7002 71.9008 6.4002C72.4008 5.6002 73.2008 6.4002 73.9008 6.5002C74.1008 7.2002 73.6008 7.3002 73.8008 8.0002ZM113.901 13.6002C114.001 12.9002 114.501 12.3002 114.701 11.7002C120.901 10.3002 116.501 18.0002 113.901 13.6002Z" fill="#FFA320"/>
<path opacity="0.15" d="M126.1 1.6C126.1 1.4 126.1 1.2 126.1 1H122.5C123.5 1.8 124.7 2.3 126.1 1.6Z" fill="#FFA320"/>
<path opacity="0.15" d="M131.201 1H128.301C129.001 1.5 129.701 2.1 130.401 2.6C130.401 2 130.701 1.5 131.201 1Z" fill="#FFA320"/>
<path opacity="0.05" d="M239.501 5C234.901 6.5 230.601 4.4 227.601 5.7C225.701 4.9 223.901 4 223.201 1.7C225.601 0.4 226.701 2.9 228.101 4.2C228.401 3.2 228.701 2.2 228.801 1.1H217.501C217.601 1.4 217.701 1.8 217.701 2.2C216.901 3.2 215.201 3.9 214.101 2.9C214.001 2.3 213.901 1.7 213.901 1.1H207.901C207.901 1.3 207.901 1.6 207.901 1.7C207.901 3.2 207.801 4.5 207.401 5.9C207.301 6.3 207.101 6.8 207.201 7.3C207.301 7.7 207.401 8.1 207.601 8.4C207.701 8.7 208.001 9.1 207.801 9.4C207.701 9.6 207.501 9.6 207.301 9.7L207.201 9.8C208.201 11.6 207.501 14 205.901 13.9C205.701 13.9 205.501 13.8 205.301 13.7C205.201 13.9 205.201 14 205.201 14.3C205.201 14.8 205.301 15.4 205.201 15.9C205.101 16.3 205.101 16.5 205.101 16.9C205.101 17.7 205.401 18.4 205.401 19.2C205.401 19.9 205.701 20.6 205.701 21.3C205.801 22 206.301 22.7 206.401 23.4C206.401 23.7 206.501 24.1 206.401 24.4C206.301 24.7 206.001 25 205.901 25.4C205.501 26.1 205.201 26.9 204.801 27.6C204.501 28.2 204.501 28.3 205.101 28.7C205.901 29.2 206.701 29.5 207.501 30C207.701 30.1 207.901 30.3 208.001 30.5C208.101 30.6 208.201 30.8 208.301 31C208.601 31.3 208.901 31.4 209.201 31.7C209.501 31.9 209.701 32.2 210.001 32.5C210.301 32.8 210.601 33 210.901 33.3C211.201 33.7 211.501 34.2 211.701 34.6C211.901 35 212.101 35.2 212.501 35.4C212.801 35.6 213.201 35.9 213.201 36.3C213.201 36.4 213.101 36.5 213.001 36.6C213.001 36.8 213.101 37 213.001 37.2C212.801 37.6 212.201 37.8 212.701 38.2C213.101 38.7 213.801 38.8 214.301 39.2C214.701 39.4 215.201 39.9 215.301 40.3C215.501 40.8 215.201 41 215.001 41.4C214.801 42.1 215.101 42.5 215.501 43C215.801 43.5 216.501 45 216.001 45.6C216.101 45.5 216.201 45.3 216.301 45.2C216.501 44.9 216.701 44.7 217.001 44.4C217.601 43.8 218.201 43 218.801 42.4C219.201 41.9 219.701 41.6 220.201 41.1C220.601 40.7 220.801 40.1 221.401 39.9C221.801 39.7 222.301 39.7 222.701 39.6C222.901 39.5 223.101 39.4 223.401 39.3C223.601 39.2 223.901 39.3 224.101 39.2C224.301 39.1 224.301 38.9 224.401 38.7C224.501 38.5 224.601 38.3 224.801 38.2C225.101 37.8 225.001 37.3 225.001 36.9C225.001 36.3 225.001 35.7 225.001 35.1C225.001 34.2 225.801 33.6 226.301 33.1C226.701 32.7 227.301 32.4 227.301 31.8C227.301 31.2 227.101 30.7 227.001 30.1C226.901 29.7 227.101 29.2 227.201 28.8C227.301 28.3 227.401 27.9 227.501 27.5C227.601 26.7 228.401 26.6 229.001 26.4C230.001 26.1 230.301 25.3 230.901 24.5C231.501 23.9 232.101 23.5 232.901 23.1C233.801 22.6 234.601 21.9 235.501 21.4C235.901 21.2 236.501 20.7 236.201 20.2C236.001 19.9 235.401 19.7 235.601 19.2C235.701 18.9 236.201 19.1 236.401 18.8C236.701 18.5 236.701 18.1 236.901 17.8C237.501 17.2 238.501 17.9 238.701 17C238.801 16.5 238.901 16.3 239.501 16.2C240.001 16.1 240.501 16.1 241.001 16C241.401 15.9 241.501 15.7 241.801 15.5C242.201 15.2 242.901 15.4 243.301 15.4C243.901 15.4 244.601 15.5 245.101 15.4C245.501 15.3 245.501 15.1 245.701 14.9C246.201 14.4 247.201 15 247.401 14.1C247.401 13.9 247.401 13.8 247.401 13.6C247.401 13.4 247.501 13.3 247.601 13.1C247.701 12.7 247.801 12.3 247.801 12C247.801 11.5 247.701 11.2 248.301 11.2C248.501 11.2 249.301 11.3 249.401 11.2C249.501 11.1 249.401 10.8 249.401 10.7C249.401 10.6 249.501 10.5 249.601 10.4C249.901 9.9 250.001 9.8 250.501 9.6C251.401 9.2 252.501 9.1 253.501 8.8C254.201 8.6 255.401 8.7 255.901 7.9C256.101 7.6 256.201 7.4 256.501 7.1C256.801 6.8 257.201 6.4 257.601 6.2C258.101 6 258.501 6.2 258.901 6.1C259.301 6 259.301 5.5 259.301 5.1C259.401 4.7 259.301 4.3 259.301 3.9C259.401 3.4 259.701 3 259.901 2.6C260.101 2.2 260.201 2.1 260.601 1.8C261.001 1.5 261.401 1.2 261.901 1H242.901C241.701 2.5 240.501 3.6 239.501 5ZM223.601 25.5C222.701 24.7 221.501 24.2 221.001 22.8C222.101 22.6 223.901 23 223.101 21.1C223.801 21 224.401 20.9 225.101 21C224.801 22.6 224.001 23.9 223.601 25.5ZM233.301 17C234.101 14.3 232.301 12.8 230.201 12.8C230.701 12 232.501 12.5 233.101 11.8C233.601 10.5 232.801 10 232.701 8.5C234.101 8.6 234.801 8.1 235.901 7.8C235.601 10.4 234.101 11.8 234.401 14.9C235.801 15.3 237.401 15.3 238.801 15.7C237.501 16.7 234.601 16.1 233.301 17Z" fill="#FFA320"/>
<path opacity="0.15" d="M54.4004 1.1C54.7004 1.1 55.0004 1 55.3004 1H53.9004C54.1004 1.1 54.2004 1.1 54.4004 1.1Z" fill="#FFA320"/>
<path opacity="0.15" d="M159.4 7.69992C160.7 7.69992 161 9.19992 162.6 8.89992C163.1 5.59992 165.9 4.29992 167.4 1.89992C162.7 0.699924 161 4.89992 159.4 7.69992Z" fill="#FFA320"/>
<path opacity="0.15" d="M161.4 12.0004C161 9.70039 159.6 8.90039 158.2 7.90039C160 5.80039 161.2 2.60039 163.5 0.900391H159C158.5 2.10039 157.7 3.40039 157.3 4.30039C156.1 4.30039 155.4 3.60039 154.2 3.50039C154.5 2.70039 154.8 1.80039 155 1.00039H151C151.4 1.80039 151.6 2.80039 151.7 4.10039C151 5.40039 150 4.30039 148.8 5.10039C148.4 6.40039 149 6.50039 149.1 8.00039C151.5 8.10039 151.1 5.50039 153.1 5.10039C154.1 8.60039 152.4 9.70039 149.7 9.80039C150 11.0004 149.8 11.9004 149.7 12.7004C152.8 10.3004 158.1 11.2004 161.4 12.0004Z" fill="#FFA320"/>
<path opacity="0.15" d="M120.201 15.9997C120.301 16.6997 120.601 17.3997 121.401 17.6997C123.201 17.5997 124.201 15.0997 123.201 13.4997C122.401 12.9997 121.701 13.1997 121.201 13.5997C120.501 14.0997 120.101 15.0997 120.201 15.9997Z" fill="#FFA320"/>
<path opacity="0.15" d="M156.601 37C156.201 37.5 156.501 38.6 156.601 39.6C157.701 40.1 158.401 40.2 159.201 39.4C159.001 37.5 158.401 36.5 156.601 37Z" fill="#FFA320"/>
<path opacity="0.15" d="M147.4 8.10039C148.5 4.50039 145.1 3.80039 144.3 1.40039C144.4 1.20039 144.5 1.10039 144.6 0.900391H143C144.1 3.70039 145.2 6.70039 147.4 8.10039Z" fill="#FFA320"/>
<path opacity="0.15" d="M160.601 15.2998C158.901 15.9998 157.401 16.7998 155.501 17.2998C155.601 19.0998 153.701 20.6998 154.801 22.0998C156.501 20.1998 157.801 17.8998 160.101 16.4998C160.801 18.9998 159.701 21.2998 160.901 22.9998C163.201 20.1998 163.701 18.0998 160.601 15.2998Z" fill="#FFA320"/>
<path opacity="0.15" d="M139.701 12.9004C140.301 14.7004 140.501 17.2004 142.301 17.4004C142.101 13.8004 140.601 12.1004 140.101 9.10039C139.101 8.20039 137.501 8.10039 136.501 7.20039C136.101 5.00039 135.601 3.10039 134.801 1.50039C133.501 1.90039 133.001 3.20039 131.701 3.60039C131.201 3.30039 130.801 2.90039 130.301 2.60039C129.601 2.10039 128.901 1.60039 128.201 1.00039C128.101 1.00039 128.101 0.900391 128.001 0.900391H126.001V1.00039C126.001 1.20039 126.101 1.40039 126.001 1.60039C124.601 2.30039 123.401 1.90039 122.301 1.00039C122.201 1.00039 122.201 0.900391 122.101 0.900391H119.101V1.00039C119.101 1.40039 119.101 1.70039 119.101 2.20039C118.201 2.30039 117.401 2.40039 116.501 2.40039C116.601 3.40039 116.801 4.30039 116.901 5.30039C118.101 5.30039 118.701 5.00039 119.501 4.70039C119.101 5.30039 119.401 6.60039 118.701 7.00039C118.601 4.70039 116.501 7.20039 116.301 6.50039C116.101 4.70039 115.901 2.80039 115.701 1.00039V0.900391H115.201C115.101 0.900391 115.001 1.00039 114.901 1.00039C112.601 2.10039 111.101 3.90039 109.201 5.30039C108.901 4.30039 108.501 3.50039 108.201 2.40039C103.901 3.40039 101.301 5.90039 99.3008 9.10039C101.301 8.90039 102.701 9.40039 104.901 8.90039C104.801 8.20039 104.701 7.50039 104.601 6.70039C106.101 6.50039 106.901 5.80039 108.501 5.60039C112.701 11.1004 109.801 17.0004 102.601 14.9004C103.101 14.4004 102.501 12.8004 102.901 12.3004C103.501 12.1004 104.801 13.3004 104.501 11.8004C104.201 9.80039 102.301 11.6004 101.201 11.7004C101.301 14.6004 102.801 15.4004 103.801 17.0004C109.201 16.6004 111.401 13.4004 113.301 9.90039C112.701 9.00039 111.601 8.80039 111.301 7.50039C111.701 6.10039 113.201 5.80039 115.101 5.70039C114.801 7.00039 113.601 7.70039 113.501 9.10039C114.801 9.60039 116.801 9.10039 118.501 9.00039C118.901 9.70039 119.401 10.4004 119.801 11.1004C120.401 11.1004 120.901 11.0004 121.401 10.8004C123.301 10.2004 124.501 9.00039 125.201 7.50039C125.801 6.30039 126.201 4.90039 126.501 3.50039C127.801 3.60039 128.901 4.00039 130.001 4.40039C132.301 5.30039 134.201 6.60039 136.001 8.20039C135.401 9.80039 136.201 12.5004 137.201 13.2004C138.701 13.9004 139.301 12.1004 139.701 12.9004ZM119.201 7.30039C119.901 6.90039 120.101 5.90039 121.401 6.00039C122.601 7.50039 121.601 9.50039 120.901 10.5004C120.301 9.50039 119.601 8.50039 119.201 7.30039Z" fill="#FFA320"/>
<path opacity="0.15" d="M135.101 18.0001C136.801 16.2001 134.001 13.6001 132.801 15.6001C132.901 16.3001 133.001 17.0001 133.101 17.8001C133.901 17.7001 134.101 18.3001 135.101 18.0001Z" fill="#FFA320"/>
<path opacity="0.15" d="M134.701 54.4004C132.301 54.8004 132.501 59.7004 135.901 58.7004C137.401 57.4004 136.801 54.7004 134.701 54.4004Z" fill="#FFA320"/>
<path opacity="0.15" d="M145.801 10.3999C145.401 10.8999 145.601 12.4999 146.101 12.8999C146.601 12.8999 147.201 12.7999 147.701 12.6999C148.401 11.4999 147.401 9.79988 145.801 10.3999Z" fill="#FFA320"/>
<path opacity="0.15" d="M171.9 1.40039C172.3 1.70039 172.8 1.80039 173.6 1.60039C173.6 1.30039 173.6 1.10039 173.6 0.900391H171.1C171.2 1.10039 171.3 1.30039 171.4 1.50039C170 1.90039 168.7 2.60039 168 3.60039C169.5 4.50039 169.9 7.10039 172.4 6.90039C172.3 4.90039 170.7 2.60039 171.9 1.40039Z" fill="#FFA320"/>
<path opacity="0.15" d="M207.3 9.80059C207.2 9.50059 207 9.30059 206.8 9.10059C204 9.10059 203.8 12.9006 205.4 13.7006C205.6 13.8006 205.8 13.9006 206 13.9006C207.5 14.0006 208.3 11.6006 207.3 9.80059Z" fill="#FFA320"/>
<path opacity="0.15" d="M202.599 1.60039C201.199 0.700391 201.599 3.80039 199.499 3.30039C199.399 3.30039 199.399 3.20039 199.299 3.20039C198.599 2.90039 198.199 2.00039 197.899 1.00039V0.900391H195.699L195.799 1.00039C196.199 1.60039 196.799 2.60039 196.699 2.50039C196.999 4.20039 195.399 5.10039 195.899 6.60039C196.299 6.50039 196.599 6.30039 196.799 6.00039C197.199 5.60039 197.599 5.10039 197.999 4.70039C198.099 4.60039 198.299 4.50039 198.399 4.40039C198.599 4.30039 198.899 4.10039 199.199 4.10039C199.799 4.50039 200.599 4.80039 200.699 5.80039C199.999 6.80039 199.299 7.80039 199.899 9.90039C200.599 10.1004 200.999 10.9004 201.999 10.8004C201.799 9.80039 201.199 9.30039 201.099 8.30039C201.499 7.70039 202.699 7.80039 203.699 7.70039C202.799 6.10039 203.199 4.00039 202.599 1.60039Z" fill="#FFA320"/>
<path opacity="0.15" d="M221 22.8C221.5 24.2 222.7 24.7 223.6 25.5C224 23.9 224.7 22.6 225.1 21C224.4 21 223.8 21.1 223.1 21.1C223.9 23.1 222.1 22.6 221 22.8Z" fill="#FFA320"/>
<path opacity="0.15" d="M214.101 2.80039C215.201 3.80039 216.901 3.10039 217.701 2.10039C217.801 1.60039 217.701 1.30039 217.501 1.00039V0.900391H213.901L213.801 1.00039C213.901 1.60039 214.001 2.20039 214.101 2.80039Z" fill="#FFA320"/>
<path opacity="0.15" d="M172.699 13.5002C173.799 13.4002 173.999 14.6002 175.099 14.4002C174.499 12.3002 174.999 9.3002 174.299 8.2002C174.199 10.3002 173.199 11.6002 172.699 13.5002Z" fill="#FFA320"/>
<path opacity="0.15" d="M189.1 11.3002C189.3 12.0002 189.7 12.4002 190.2 12.7002C190.6 13.0002 191.1 13.2002 191.4 13.7002C190.4 14.3002 190.1 15.7002 189.8 16.8002C192.1 16.5002 192.7 13.9002 192.4 11.3002C192.3 10.2002 192.1 9.1002 191.7 8.2002C189.8 8.3002 189 9.4002 189.1 11.3002Z" fill="#FFA320"/>
<path opacity="0.15" d="M185.9 1.4002C186.2 2.4002 186.5 3.4002 187.8 3.0002C188 2.6002 188.1 2.0002 187.9 1.1002C187.6 1.1002 187.4 1.0002 187.1 0.900195C186.8 0.800195 186.5 0.800195 186.3 0.900195C186.2 1.1002 186 1.2002 185.9 1.4002Z" fill="#FFA320"/>
<path opacity="0.15" d="M183.4 27.9999C179.2 30.9999 187.5 35.6999 185.8 28.8999C184.9 28.7999 184.7 27.6999 183.4 27.9999Z" fill="#FFA320"/>
<path opacity="0.15" d="M178.699 0.900391H176.199C176.499 1.40039 176.799 1.90039 176.999 2.50039C177.799 2.10039 178.399 1.60039 178.699 0.900391Z" fill="#FFA320"/>
<path opacity="0.15" d="M186.5 20.7006C185.5 21.3006 184.2 19.8006 184.6 21.3006C185 23.5006 188 23.5006 188.8 23.1006C191.4 21.8006 187.8 17.6006 186.9 15.6006C186.1 16.7006 186.2 18.5006 186.5 20.7006Z" fill="#FFA320"/>
<path opacity="0.15" d="M177.599 18.2003C179.499 16.8003 181.899 18.2003 183.299 18.8003C183.799 15.0003 176.499 15.7003 177.599 18.2003Z" fill="#FFA320"/>
<path opacity="0.15" d="M143.4 7.00025C144.4 5.10025 142.4 3.00025 141.1 4.30025C140.6 5.90025 141.3 7.70025 143.4 7.00025Z" fill="#FFA320"/>
<path opacity="0.15" d="M29.301 37C28.801 38.6 27.201 39.2 27.901 41.9C32.501 45.4 34.101 37.8 29.301 37Z" fill="#FFA320"/>
<path opacity="0.15" d="M29.9996 0.900391H28.0996C28.0996 1.00039 28.0996 1.00039 28.1996 1.00039H29.8996C29.9996 1.00039 29.9996 0.900391 29.9996 0.900391Z" fill="#FFA320"/>
<path opacity="0.15" d="M223.199 1.70039C223.999 4.00039 225.799 4.90039 227.599 5.70039C230.599 4.40039 234.899 6.50039 239.499 5.00039C240.499 3.70039 241.699 2.50039 242.499 1.00039L242.599 0.900391H228.799V1.00039C228.699 2.10039 228.499 3.20039 228.099 4.10039C226.699 2.90039 225.599 0.300391 223.199 1.70039Z" fill="#FFA320"/>
<path opacity="0.15" d="M235.899 7.7998C234.799 7.9998 234.099 8.4998 232.699 8.4998C232.799 9.9998 233.499 10.4998 233.099 11.7998C232.499 12.4998 230.699 11.9998 230.199 12.7998C232.299 12.6998 234.199 14.2998 233.299 16.9998C234.599 16.0998 237.599 16.6998 238.799 15.7998C237.399 15.4998 235.799 15.4998 234.399 14.9998C234.099 11.7998 235.599 10.3998 235.899 7.7998Z" fill="#FFA320"/>
<path opacity="0.15" d="M66.7996 3.50039C67.0996 2.50039 67.4996 1.70039 67.9996 1.00039L68.0996 0.900391H64.8996L64.7996 1.00039C64.4996 1.60039 64.0996 2.10039 64.0996 3.00039C64.9996 3.10039 65.7996 3.40039 66.7996 3.50039Z" fill="#FFA320"/>
<path opacity="0.15" d="M38.1992 39.4998C38.1992 45.5998 43.8992 37.5998 38.1992 39.4998V39.4998Z" fill="#FFA320"/>
<path opacity="0.15" d="M110.001 2.60039C110.101 2.10039 110.201 1.50039 110.401 1.00039V0.900391H108.301L108.401 1.00039C108.801 1.70039 109.101 2.50039 110.001 2.60039Z" fill="#FFA320"/>
<path opacity="0.15" d="M141.101 27.4004C140.601 28.6004 138.901 28.8004 138.801 30.6004C141.201 37.1004 147.601 28.9004 141.101 27.4004Z" fill="#FFA320"/>
<path opacity="0.15" d="M142.401 0.900391H137.301C138.701 1.30039 139.801 2.00039 141.101 2.50039C141.201 1.70039 141.801 1.30039 142.401 0.900391Z" fill="#FFA320"/>
<path opacity="0.15" d="M143.699 9.80064C143.599 9.20064 143.599 8.60064 143.499 8.00064C142.599 7.70064 142.099 7.70064 141.199 8.20064C141.299 8.90064 141.399 9.60064 141.499 10.4006C142.399 10.4006 143.399 10.4006 143.699 9.80064Z" fill="#FFA320"/>
<path opacity="0.15" d="M71.9004 6.4003C72.0004 7.7003 72.6004 8.3003 73.8004 8.0003C73.7004 7.3003 74.1004 7.1003 74.0004 6.5003C73.2004 6.4003 72.5004 5.5003 71.9004 6.4003Z" fill="#FFA320"/>
<path opacity="0.15" d="M44.9004 45.5004C45.0004 46.2004 45.1004 46.9005 45.2004 47.7005C48.7004 49.6005 48.0004 42.9004 44.9004 45.5004Z" fill="#FFA320"/>
<path opacity="0.15" d="M32.4998 49.9003C32.1998 51.0003 32.2998 51.8003 32.8998 52.8003C33.5998 52.7003 34.1998 52.6003 34.7998 52.6003C35.5998 51.1003 34.4998 49.1003 32.4998 49.9003Z" fill="#FFA320"/>
<path opacity="0.15" d="M41 11.9006C41.7 12.9006 42.5 13.6006 43.6 14.0006C44.2 12.9006 45.5 12.2006 45.9 10.8006C45.6 10.3006 45.2 9.80059 44.8 9.60059C44.2 10.1006 43.6 10.4006 42.8 10.7006C41.9 11.1006 41.5 11.4006 41 11.9006Z" fill="#FFA320"/>
<path opacity="0.15" d="M114.7 11.7001C114.5 12.3001 114 12.9001 113.9 13.6001C116.5 18.0001 120.9 10.3001 114.7 11.7001Z" fill="#FFA320"/>
<path opacity="0.15" d="M40.3004 22.8002C40.8004 21.6002 40.7004 20.3002 39.8004 19.2002C39.3004 19.2002 38.7004 19.3002 38.2004 19.4002C37.8004 20.2002 38.3004 21.8002 37.9004 22.7002C38.7004 22.7002 39.3004 23.1002 40.3004 22.8002Z" fill="#FFA320"/>
<path opacity="0.05" d="M29.5 2.10039C28.9 1.90039 28.4 1.60039 28.1 1.00039H0V11.5004C0.3 11.5004 0.6 11.5004 0.9 11.4004C0.8 12.3004 0.5 12.8004 0 13.2004V50.9004C1.3 51.0004 2.7 51.2004 4 51.4004C8.7 52.0004 13.8 51.0004 15.4 45.9004C15.8 44.6004 14.7 43.4004 15.1 42.2004C15.4 41.3004 16.1 41.5004 16.8 41.3004C17.6 41.1004 18.5 40.7004 19.2 40.3004C21 39.5004 22 38.4004 23.3 36.9004C23.8 36.3004 24.1 35.9004 24.4 35.1004C25.3 33.2004 27.1 34.2004 28.4 33.0004C29.2 32.2004 28.6 31.7004 28.8 30.7004C28.9 30.3004 29.2 29.5004 29.4 29.1004C30 27.6004 30.3 26.3004 30.8 24.8004C31.4 23.2004 30.7 21.7004 32 20.4004C32.9 19.5004 34.2 19.3004 35 18.3004C35.1 17.9004 35.3 17.5004 35.5 17.2004C35.8 16.9004 36.2 16.7004 36.6 16.5004C37.4 15.7004 37.8 14.7004 38.6 13.9004C39.2 13.2004 39.8 12.7004 40.5 12.1004C40.6 12.0004 40.8 11.9004 40.9 11.8004C40.6 11.4004 40.4 11.0004 40.1 10.5004C41 8.90039 43.2 8.50039 44.7 9.50039C44.7 9.50039 44.7 9.50039 44.8 9.50039C46.2 8.30039 47.4 6.60039 48.4 5.20039C49 4.40039 48.9 3.80039 49.3 2.90039C49.6 2.10039 50.5 1.40039 51.1 0.900391H29.9C29.8 1.40039 29.6 1.70039 29.5 2.10039ZM3.6 4.70039C6.1 4.10039 6.7 10.1004 4.5 10.1004C3 10.2004 1.4 6.10039 3.6 4.70039ZM4.3 33.4004C3.4 34.0004 1.7 34.2004 1 33.3004C-0.4 29.1004 6 29.4004 4.3 33.4004ZM7 30.5004C6.1 30.6004 5.1 30.9004 4.7 30.4004C4.6 29.8004 4.5 29.2004 4.5 28.6004C5.3 26.5004 8.2 28.4004 7 30.5004ZM24.5 16.2004C22.8 17.3004 21 16.4004 20.7 15.0004C20.1 11.8004 25.8 11.5004 24.5 16.2004ZM27 28.4004C25.8 27.0004 26.7 25.1004 28.2 25.0004C30.5 25.9004 28.7 29.2004 27 28.4004Z" fill="#FFA320"/>
<path opacity="0.15" d="M4.40039 28.6006C4.50039 29.2006 4.60039 29.8006 4.60039 30.4006C5.10039 30.9006 6.10039 30.7006 6.90039 30.5006C8.20039 28.4006 5.30039 26.5006 4.40039 28.6006Z" fill="#FFA320"/>
<path opacity="0.15" d="M4.40039 28.6006C4.50039 29.2006 4.60039 29.8006 4.60039 30.4006C5.10039 30.9006 6.10039 30.7006 6.90039 30.5006C8.20039 28.4006 5.30039 26.5006 4.40039 28.6006Z" fill="#FFA320"/>
<path opacity="0.15" d="M28.1994 25C26.6994 25.1 25.7994 27 26.9994 28.4C28.6994 29.2 30.4994 25.9 28.1994 25Z" fill="#FFA320"/>
<path opacity="0.15" d="M28.1994 25C26.6994 25.1 25.7994 27 26.9994 28.4C28.6994 29.2 30.4994 25.9 28.1994 25Z" fill="#FFA320"/>
<path opacity="0.15" d="M4.60042 10.2C6.70042 10.2 6.20042 4.19999 3.70042 4.79999C1.40042 6.09999 3.00042 10.2 4.60042 10.2Z" fill="#FFA320"/>
<path opacity="0.15" d="M4.60042 10.2C6.70042 10.2 6.20042 4.19999 3.70042 4.79999C1.40042 6.09999 3.00042 10.2 4.60042 10.2Z" fill="#FFA320"/>
<path opacity="0.15" d="M1.00073 33.3003C1.70073 34.2003 3.40073 33.9003 4.30073 33.4003C6.00073 29.4003 -0.399272 29.1003 1.00073 33.3003Z" fill="#FFA320"/>
<path opacity="0.15" d="M1.00073 33.3003C1.70073 34.2003 3.40073 33.9003 4.30073 33.4003C6.00073 29.4003 -0.399272 29.1003 1.00073 33.3003Z" fill="#FFA320"/>
<path opacity="0.15" d="M29.4996 2.1C29.5996 1.7 29.7996 1.4 29.8996 1H28.0996C28.3996 1.6 28.8996 1.9 29.4996 2.1Z" fill="#FFA320"/>
<path opacity="0.15" d="M29.4996 2.1C29.5996 1.7 29.7996 1.4 29.8996 1H28.0996C28.3996 1.6 28.8996 1.9 29.4996 2.1Z" fill="#FFA320"/>
<path opacity="0.15" d="M20.7007 15.0001C20.9007 16.3001 22.8007 17.3001 24.5007 16.2001C25.8007 11.5001 20.1007 11.8001 20.7007 15.0001Z" fill="#FFA320"/>
<path opacity="0.15" d="M20.7007 15.0001C20.9007 16.3001 22.8007 17.3001 24.5007 16.2001C25.8007 11.5001 20.1007 11.8001 20.7007 15.0001Z" fill="#FFA320"/>
<path opacity="0.15" d="M0.9 11.4004C0.6 11.4004 0.3 11.5004 0 11.5004V13.2004C0.5 12.9004 0.8 12.3004 0.9 11.4004Z" fill="#FFA320"/>
<path opacity="0.15" d="M0.9 11.4004C0.6 11.4004 0.3 11.5004 0 11.5004V13.2004C0.5 12.9004 0.8 12.3004 0.9 11.4004Z" fill="#FFA320"/>
<path opacity="0.15" d="M40.1992 10.7005C40.3992 11.2005 40.6992 11.6005 40.9992 12.0005C41.4992 11.5005 41.8992 11.1005 42.7992 10.8005C43.4992 10.5005 44.1992 10.2005 44.7992 9.70047C43.2992 8.70047 41.0992 9.10047 40.1992 10.7005Z" fill="#FFA320"/>
<path opacity="0.15" d="M40.1992 10.7005C40.3992 11.2005 40.6992 11.6005 40.9992 12.0005C41.4992 11.5005 41.8992 11.1005 42.7992 10.8005C43.4992 10.5005 44.1992 10.2005 44.7992 9.70047C43.2992 8.70047 41.0992 9.10047 40.1992 10.7005Z" fill="#FFA320"/>
</svg>
