<svg width="72" height="74" viewBox="0 0 72 74" fill="none" xmlns="http://www.w3.org/2000/svg">
    <g filter="url(#filter0_d_314_111763)">
    <path d="M18.8533 16.433L24.3832 10.903C24.3075 10.1124 24.5729 9.29384 25.1792 8.68753L28.0898 5.777C30.2021 3.66469 33.0132 2.5 36.0007 2.5C38.9882 2.5 41.798 3.66474 43.9102 5.777L52.5795 14.4463C53.015 14.8818 53.2916 15.4498 53.3676 16.0594L53.3677 16.0599L53.4513 16.7362L55.8283 19.1132C55.9158 19.1047 56.0037 19.1004 56.0921 19.1004C56.8126 19.1004 57.5182 19.3837 58.0441 19.9095L68.223 30.0885C70.3353 32.2008 71.5 35.0118 71.5 37.9993C71.5 40.9868 70.3353 43.7979 68.223 45.9102L65.9248 48.2084C65.3955 48.7377 64.6882 49.0176 63.9715 49.0176C63.9257 49.0176 63.8799 49.0164 63.834 49.014V49.1551C63.834 49.887 63.5426 50.5893 63.0249 51.107L59.3554 54.7765L18.8533 16.433ZM18.8533 16.433C18.7647 16.4245 18.6767 16.4205 18.5891 16.4205C17.8629 16.4205 17.1586 16.7067 16.6369 17.2298C16.6368 17.2299 16.6367 17.2301 16.6366 17.2302L9.96255 23.9042C9.36803 24.4988 9.0896 25.3151 9.16657 26.1197L6.06044 29.2258C5.97296 29.2173 5.88532 29.2131 5.79789 29.2131C5.07966 29.2131 4.37376 29.493 3.84459 30.0222L3.777 30.0898C1.66469 32.2021 0.5 35.0132 0.5 38.0007C0.5 40.9882 1.66469 43.7992 3.777 45.9115L10.8174 52.952C11.3351 53.4697 12.0375 53.7611 12.7694 53.7611H13.0447L21.9791 62.6955V62.9708C21.9791 63.7028 22.2706 64.4051 22.7883 64.9228L28.0885 70.223C30.2008 72.3353 33.0118 73.5 35.9993 73.5C38.9869 73.5 41.7979 72.3353 43.9102 70.223L55.7048 58.4284C56.2878 57.8454 56.5789 57.0312 56.5005 56.2119L57.139 55.5734C57.2268 55.5819 57.3148 55.5861 57.4029 55.5861C58.1259 55.5861 58.8315 55.3017 59.3549 54.777L18.8533 16.433ZM28.1965 10.9963L27.841 10.6408L30.398 8.08384L30.3982 8.08355C31.9441 6.53521 33.9715 5.7611 36.0007 5.7611C38.0297 5.7611 40.0573 6.53515 41.606 8.08251C41.6061 8.08256 41.6061 8.08261 41.6062 8.08265L50.1538 16.6302L50.3328 18.0792L50.3539 18.2499L50.4755 18.3714L54.6902 22.5862L54.9129 22.8088L55.2099 22.7042L55.9626 22.439L65.9188 32.3953C69.0145 35.491 69.0145 40.509 65.9188 43.6047L63.8679 45.6556L63.2162 45.3525L62.8991 45.205L62.6518 45.4523L60.722 47.382L60.5755 47.5285V47.7356V48.948L57.2477 52.2758L56.3631 52.0727L56.0933 52.0107L55.8976 52.2064L53.2588 54.8453L53.0889 55.0152L53.1154 55.254L53.2307 56.2928L41.606 67.9175C40.0588 69.4647 38.0299 70.2389 36.0007 70.2389C33.9715 70.2389 31.9439 69.4648 30.3952 67.9173L25.2416 62.7637V61.5514V61.3442L25.0951 61.1978L14.5437 50.6464L14.3973 50.5H14.1902H12.9778L6.08385 43.606C3.04545 40.5676 2.98925 35.6773 5.91525 32.5704L6.60085 32.8655L6.91767 33.0019L7.15767 32.7541C7.18682 32.724 7.2137 32.6928 7.22975 32.6742C7.23175 32.6719 7.23359 32.6697 7.23523 32.6678C7.25403 32.6461 7.26059 32.6392 7.2644 32.6355L7.26444 32.6355L7.27006 32.6299L12.7227 27.1773L12.9704 26.9295L12.8221 26.6121L12.5185 25.962L18.7645 19.716L19.734 19.8727L19.9865 19.9135L20.1673 19.7326L28.1965 11.7035L28.55 11.3499L28.1965 10.9963Z" fill="#C45A0E" stroke="#C35A0E"/>
    <path d="M41.7245 8.91571L65.0844 32.2756C68.2467 35.4379 68.2467 40.5632 65.0844 43.7255L41.7245 67.0854C38.5622 70.2477 33.4369 70.2477 30.2746 67.0854L6.91474 43.7255C3.75238 40.5632 3.75238 35.4379 6.91474 32.2756L30.2746 8.91571C33.4369 5.75336 38.5635 5.75336 41.7245 8.91571Z" fill="#E37E07"/>
    <path d="M5.72908 43.9586L12.7695 50.999H17.5608L21.2599 55.4589L24.7403 57.5252V62.9698L30.0405 68.27C33.3315 71.561 38.6661 71.561 41.957 68.27L53.7516 56.4755L53.24 51.8698L57.403 52.8254L61.073 49.1554V44.9075L63.9716 46.2555L66.2698 43.9573C69.5607 40.6663 69.5607 35.3317 66.2698 32.0407L56.0909 21.8618L51.4998 23.4775L50.6264 16.3973L41.957 7.72796C38.6661 4.43704 33.3315 4.43704 30.0405 7.72796L27.1313 10.6385L28.2221 11.7293L25.2851 16.2979L24.3056 20.1057L18.5892 19.1806L11.9146 25.8552L14.515 31.4178L10.8159 32.0699V34.1362L5.79535 31.9718L5.72776 32.0394C2.43948 35.333 2.43949 40.6677 5.72908 43.9586Z" fill="url(#paint0_radial_314_111763)"/>
    <g filter="url(#filter1_d_314_111763)">
    <path d="M23.1555 46V31.81C22.9942 31.898 22.8108 31.986 22.6055 32.074C22.4002 32.162 22.1802 32.2573 21.9455 32.36C21.7255 32.448 21.5055 32.536 21.2855 32.624C21.0802 32.712 20.8895 32.8 20.7135 32.888V30.16C20.8748 30.072 21.1022 29.9547 21.3955 29.808C21.6888 29.6467 22.0042 29.4707 22.3415 29.28C22.6788 29.0893 22.9942 28.8987 23.2875 28.708C23.5808 28.5027 23.8008 28.3267 23.9475 28.18H26.8295V46H23.1555ZM31.2103 46L35.0823 30.974H30.2203V28.18H38.6683V30.71L34.7963 46H31.2103ZM40.6022 46L44.0562 36.408L40.7562 28.18H44.4742L46.4322 32.998L48.0162 28.18H51.2942L48.1702 37.442L51.6462 46H47.9502L45.7722 40.676L43.8582 46H40.6022Z" fill="#C35A0E"/>
    </g>
    </g>
    <defs>
    <filter id="filter0_d_314_111763" x="0" y="0" width="72" height="74" filterUnits="userSpaceOnUse" color-interpolation-filters="sRGB">
    <feFlood flood-opacity="0" result="BackgroundImageFix"/>
    <feColorMatrix in="SourceAlpha" type="matrix" values="0 0 0 0 0 0 0 0 0 0 0 0 0 0 0 0 0 0 127 0" result="hardAlpha"/>
    <feOffset dy="-2"/>
    <feComposite in2="hardAlpha" operator="out"/>
    <feColorMatrix type="matrix" values="0 0 0 0 1 0 0 0 0 0.760784 0 0 0 0 0.0980392 0 0 0 1 0"/>
    <feBlend mode="normal" in2="BackgroundImageFix" result="effect1_dropShadow_314_111763"/>
    <feBlend mode="normal" in="SourceGraphic" in2="effect1_dropShadow_314_111763" result="shape"/>
    </filter>
    <filter id="filter1_d_314_111763" x="20.7129" y="28.1797" width="30.9336" height="19.3203" filterUnits="userSpaceOnUse" color-interpolation-filters="sRGB">
    <feFlood flood-opacity="0" result="BackgroundImageFix"/>
    <feColorMatrix in="SourceAlpha" type="matrix" values="0 0 0 0 0 0 0 0 0 0 0 0 0 0 0 0 0 0 127 0" result="hardAlpha"/>
    <feOffset dy="1.5"/>
    <feComposite in2="hardAlpha" operator="out"/>
    <feColorMatrix type="matrix" values="0 0 0 0 1 0 0 0 0 0.865584 0 0 0 0 0.425 0 0 0 1 0"/>
    <feBlend mode="normal" in2="BackgroundImageFix" result="effect1_dropShadow_314_111763"/>
    <feBlend mode="normal" in="SourceGraphic" in2="effect1_dropShadow_314_111763" result="shape"/>
    </filter>
    <radialGradient id="paint0_radial_314_111763" cx="0" cy="0" r="1" gradientUnits="userSpaceOnUse" gradientTransform="translate(35.9999 37.9977) scale(32.7382 32.7388)">
    <stop stop-color="#FFCC17"/>
    <stop offset="1" stop-color="#FF9A23"/>
    </radialGradient>
    </defs>
</svg>
