<svg
          width="25"
          height="25"
          viewBox="0 0 25 25"
          fill="none"
          xmlns="http://www.w3.org/2000/svg"
        >
          <path
            d="M14.9907 18.0701L3.11071 6.36013C1.76477 5.04168 0.995389 3.24408 0.970703 1.36013C2.85523 1.33283 4.6741 2.05175 6.0307 3.36012L17.9207 15.0701L14.9907 18.0701Z"
            stroke="#FFC701"
            stroke-width="1.5"
            stroke-linecap="round"
            stroke-linejoin="round"
          />
          <path
            d="M20.0201 17.6797L23.3701 20.9697C23.5376 21.1361 23.6705 21.3339 23.7612 21.5519C23.8519 21.7698 23.8986 22.0036 23.8986 22.2397C23.8986 22.4758 23.8519 22.7095 23.7612 22.9275C23.6705 23.1455 23.5376 23.3433 23.3701 23.5097C23.0353 23.8389 22.5846 24.0234 22.1151 24.0234C21.6456 24.0234 21.1949 23.8389 20.8601 23.5097L17.46 20.1997"
            stroke="#FFC701"
            stroke-width="1.5"
            stroke-linecap="round"
            stroke-linejoin="round"
          />
          <path
            d="M14.2402 23.1402L22.9702 14.4102"
            stroke="#EC981A"
            stroke-width="1.5"
            stroke-linecap="round"
            stroke-linejoin="round"
          />
          <path
            d="M10.1104 17.9105L7.11035 14.9805"
            stroke="#A96500"
            stroke-width="1.5"
            stroke-linecap="round"
            stroke-linejoin="round"
          />
          <path
            d="M14.6709 7.31L18.781 3.13C20.1017 1.78865 21.8987 1.02313 23.781 1C23.8072 2.88433 23.0884 4.70281 21.781 6.06L17.7109 10.32"
            stroke="#A96500"
            stroke-width="1.5"
            stroke-linecap="round"
            stroke-linejoin="round"
          />
          <path
            d="M7.47082 20.0109L4.17083 23.3609C4.00601 23.5293 3.8092 23.6631 3.59197 23.7545C3.37475 23.8459 3.14147 23.8929 2.90582 23.8929C2.67016 23.8929 2.43688 23.8459 2.21966 23.7545C2.00243 23.6631 1.80569 23.5293 1.64086 23.3609C1.30989 23.0291 1.12402 22.5795 1.12402 22.1109C1.12402 21.6422 1.30989 21.1927 1.64086 20.8609L4.94085 17.4609"
            stroke="#EC981A"
            stroke-width="1.5"
            stroke-linecap="round"
            stroke-linejoin="round"
          />
          <path
            d="M2.01074 14.2305L10.7307 22.9505"
            stroke="#A96500"
            stroke-width="1.5"
            stroke-linecap="round"
            stroke-linejoin="round"
          />
        </svg>