<svg
          width="32"
          height="32"
          viewBox="0 0 34 34"
          fill="none"
          xmlns="http://www.w3.org/2000/svg"
        >
          <path
            d="M13.0439 20.9554L14.7577 19.2417"
            stroke="#EC981A"
            stroke-width="1.5"
            stroke-linecap="round"
            stroke-linejoin="round"
          />
          <path
            d="M19.4639 14.536L20.9553 13.0446"
            stroke="#EC981A"
            stroke-width="1.5"
            stroke-linecap="round"
            stroke-linejoin="round"
          />
          <path
            d="M13.0439 13.0446L14.5354 14.536"
            stroke="#EC981A"
            stroke-width="1.5"
            stroke-linecap="round"
            stroke-linejoin="round"
          />
          <path
            d="M19.4639 19.464L20.9553 20.9554"
            stroke="#EC981A"
            stroke-width="1.5"
            stroke-linecap="round"
            stroke-linejoin="round"
          />
          <path
            d="M25.4851 25.4853C30.1714 20.799 30.1714 13.201 25.4851 8.51472C20.7988 3.82843 13.2009 3.82843 8.51458 8.51472C3.82829 13.201 3.82829 20.799 8.51458 25.4853C13.2009 30.1716 20.7988 30.1716 25.4851 25.4853Z"
            stroke="#FFC701"
            stroke-width="1.5"
            stroke-linecap="round"
            stroke-linejoin="round"
          />
          <path
            d="M25.4851 25.4853C30.1714 20.799 30.1714 13.201 25.4851 8.51472C20.7988 3.82843 13.2009 3.82843 8.51458 8.51472C3.82829 13.201 3.82829 20.799 8.51458 25.4853C13.2009 30.1716 20.7988 30.1716 25.4851 25.4853Z"
            stroke="#EC981A"
            stroke-width="1.5"
            stroke-linecap="round"
            stroke-linejoin="round"
            stroke-dasharray="5 5"
          />
          <path
            d="M19.2418 19.2417C20.4799 18.0037 20.4799 15.9963 19.2418 14.7583C18.0038 13.5202 15.9964 13.5202 14.7583 14.7583C13.5203 15.9963 13.5203 18.0037 14.7583 19.2417C15.9964 20.4798 18.0038 20.4798 19.2418 19.2417Z"
            stroke="#A96500"
            stroke-width="1.5"
            stroke-linecap="round"
            stroke-linejoin="round"
          />
          <path
            d="M12.8407 12.8407C13.4546 12.2268 13.4546 11.2314 12.8407 10.6175C12.2268 10.0036 11.2314 10.0036 10.6175 10.6175C10.0035 11.2314 10.0035 12.2268 10.6175 12.8407C11.2314 13.4547 12.2268 13.4547 12.8407 12.8407Z"
            stroke="#EC981A"
            stroke-width="1.5"
            stroke-linecap="round"
            stroke-linejoin="round"
          />
          <path
            d="M23.3827 23.3825C23.9966 22.7686 23.9966 21.7732 23.3827 21.1593C22.7688 20.5453 21.7734 20.5453 21.1595 21.1593C20.5455 21.7732 20.5455 22.7686 21.1595 23.3825C21.7734 23.9964 22.7688 23.9964 23.3827 23.3825Z"
            stroke="#EC981A"
            stroke-width="1.5"
            stroke-linecap="round"
            stroke-linejoin="round"
          />
          <path
            d="M23.3827 12.8406C23.9966 12.2267 23.9966 11.2313 23.3827 10.6174C22.7688 10.0035 21.7734 10.0035 21.1595 10.6174C20.5455 11.2313 20.5455 12.2267 21.1595 12.8406C21.7734 13.4545 22.7688 13.4545 23.3827 12.8406Z"
            stroke="#EC981A"
            stroke-width="1.5"
            stroke-linecap="round"
            stroke-linejoin="round"
          />
          <path
            d="M12.8407 23.3825C13.4546 22.7686 13.4546 21.7732 12.8407 21.1593C12.2268 20.5453 11.2314 20.5453 10.6175 21.1593C10.0035 21.7732 10.0035 22.7686 10.6175 23.3825C11.2314 23.9964 12.2268 23.9964 12.8407 23.3825Z"
            stroke="#EC981A"
            stroke-width="1.5"
            stroke-linecap="round"
            stroke-linejoin="round"
          />
        </svg>