<svg width="815" height="55" viewBox="0 0 815 55" fill="none" xmlns="http://www.w3.org/2000/svg">
<g opacity="0.5">
<path d="M475.461 39.9324C473.242 40.235 473.443 44.8749 476.57 44.6732C478.184 42.7567 477.276 39.7307 475.461 39.9324Z" fill="#303050"/>
<path d="M0.0756499 54.6594C-0.0252166 55.2646 -0.0252166 55.6681 0.0756499 56.0716H2.59731C2.79905 55.5672 2.79905 54.8612 2.39558 54.3568C1.38692 53.8525 0.983449 54.1551 0.0756499 54.6594Z" fill="#303050"/>
<path d="M261.826 54.0537C261.826 53.3476 262.028 52.8433 262.431 52.4398C259.405 53.5494 255.774 53.3476 252.748 50.9268C253.555 49.4138 254.463 48.0017 255.572 46.8922C254.463 45.9844 252.849 47.8 251.538 47.9008C251.134 48.1026 251.639 46.1861 251.941 46.0852C250.025 45.48 247.604 43.5636 249.52 40.941C253.656 42.1514 255.27 40.3358 255.371 35.8977C253.959 36.5029 253.858 38.722 253.152 40.235C249.016 38.2176 252.546 37.4107 253.152 33.5778C250.529 32.4682 248.512 35.2925 247.402 37.1081C242.157 36.6038 234.895 43.6644 228.036 41.4454C228.238 42.1514 228.742 42.6558 228.944 43.261C227.733 43.1601 226.725 43.261 225.918 43.5636C225.817 43.7653 225.716 43.967 225.615 44.0679C225.111 44.0679 224.808 43.967 225.01 43.5636C223.799 43.1601 223.295 42.1514 222.488 41.2436C222.387 39.5289 223.396 39.1254 223.295 37.6124C222.085 35.696 220.269 34.4856 217.546 34.183C219.765 33.0734 223.194 30.8544 224.909 33.2752C224.506 34.0821 223.9 34.3847 223.799 35.4942C225.615 37.4107 228.641 35.1916 228.54 32.2665C227.733 31.4596 226.422 32.67 225.514 32.9726C228.137 28.5344 229.448 21.7764 224.102 20.0616C221.48 21.272 220.067 23.7937 219.462 27.324C217.142 26.8197 219.059 21.9781 218.151 19.9608C216.84 17.9434 212.2 16.5313 210.283 19.053C210.283 21.4738 210.384 23.6928 210.889 25.6093C210.082 26.2145 209.275 27.1223 208.165 27.4249C208.468 29.2405 210.082 29.5431 210.687 31.157C209.376 32.9726 207.863 34.4856 204.534 33.9812C204.13 33.8804 204.231 33.0734 204.231 32.4682C195.153 35.9986 192.228 27.8284 190.211 21.9781C188.597 25.2058 191.522 29.644 192.026 32.9726C189 34.3847 183.554 32.9726 182.848 37.209C183.655 38.5202 185.874 37.915 186.479 36.9064C186.781 35.696 186.176 35.2925 185.974 34.6873C186.983 35.1916 187.992 35.5951 188.9 36.2003C186.277 37.6124 184.361 39.8315 183.251 43.0592C184.26 44.5722 185.773 45.8835 187.387 46.7913C186.983 40.235 190.211 37.7133 193.237 35.1916C192.934 38.1168 191.22 42.0506 193.842 43.261C193.237 43.8661 192.026 43.6644 191.421 44.2696C191.22 45.48 191.522 45.9844 191.623 46.8922C191.825 46.8922 191.32 47.4973 190.413 48.3043C190.614 47.6991 190.816 46.993 190.917 46.1861C190.312 46.5896 187.79 48.0017 184.966 49.5147C184.966 49.5147 184.966 49.5147 184.966 49.4138C182.343 49.2121 181.032 50.5233 180.023 52.3389C177.703 53.7511 175.787 55.0623 175.484 55.5667C175.585 55.5667 175.686 55.6675 175.787 55.7684C175.888 55.8693 175.989 55.8693 176.09 55.9701C176.09 55.8693 176.19 55.8693 176.291 55.7684H180.326H199.289H200.701H202.617H204.13H207.863H208.367H209.678H209.981H211.595H213.915H219.361H227.027H230.457H237.719H271.005C269.694 52.1372 263.339 56.5753 261.826 54.0537Z" fill="#303050"/>
<path d="M343.93 54.8613C342.921 54.7605 342.316 55.1639 342.215 56.0717H344.131C344.131 55.6683 343.829 55.4665 343.93 54.8613Z" fill="#303050"/>
<path d="M492.304 27.1226C491.396 27.9295 490.286 28.5347 489.883 30.0477C490.992 30.1486 492.808 29.6442 492.102 31.5607C492.808 31.5607 493.413 31.6616 494.119 31.5607C493.615 29.9468 492.808 28.6356 492.304 27.1226Z" fill="#303050"/>
<path d="M502.493 43.4633C503.905 43.2616 504.712 43.7659 505.822 43.8668C505.317 41.3451 503.703 40.0338 503.804 36.907C505.115 36.4026 506.729 36.3018 508.141 35.7974C506.83 34.8897 503.905 35.6966 502.594 34.8896C503.602 37.5122 501.888 39.2269 499.77 39.2269C500.274 40.0338 502.089 39.4286 502.695 40.0338C503.199 41.446 502.493 41.9503 502.493 43.4633Z" fill="#303050"/>
<path d="M168.018 54.0542C167.009 53.3481 167.11 51.6334 167.211 50.0195C168.724 50.6247 171.044 50.2212 172.456 50.9273C172.658 49.616 171.952 49.1117 171.952 48.0022C169.934 47.6996 168.623 48.2039 167.312 48.6074C165.194 41.2441 169.632 34.1834 172.557 29.3418C172.254 27.728 170.641 25.9124 168.724 27.1228C168.724 28.2323 169.43 28.5349 169.632 29.3418C169.329 30.1488 168.018 29.7453 167.917 30.754C167.816 31.9644 168.22 32.4687 169.128 32.5696C168.724 33.4774 167.816 33.78 167.312 34.6878C166.102 32.973 163.277 33.0739 160.453 33.0739C160.453 38.6216 155.511 38.319 152.787 40.6389C153.291 43.9675 150.366 43.1606 148.954 44.2701C147.845 42.5554 147.542 39.9328 144.516 40.1346C144.415 42.3536 144.113 44.2701 143.507 45.7831C142.196 45.9848 141.894 45.077 140.582 45.3796C141.389 44.1692 142.499 43.2614 144.012 42.858C143.608 40.7398 142.902 39.1259 141.894 37.7138C142.7 36.9068 144.012 36.6042 144.92 35.8982C145.02 32.3678 143.507 30.6531 142.297 28.5349C137.657 30.754 141.187 37.7138 141.994 41.345C139.17 42.6562 135.942 38.6216 135.741 34.9904C134.732 34.5869 133.622 34.1834 132.21 34.1834C132.109 35.0912 132.816 34.9904 132.513 35.999C129.285 34.8895 126.057 33.6791 123.132 32.1661C121.115 36.4025 118.291 37.8146 115.164 40.0337C113.449 40.1346 112.441 39.4285 110.928 39.2268C110.625 40.538 111.331 40.6389 111.129 41.8493C109.717 42.6562 107.599 42.5554 107.296 44.6736C105.38 43.6649 103.262 45.2788 101.648 45.6822C98.4201 43.564 96.8062 39.832 93.0741 38.2181C92.2672 43.1606 98.3192 44.0684 98.8235 48.91C97.9157 50.1204 96.1001 50.423 95.3941 51.8351C94.8897 51.129 94.688 50.2212 94.4863 49.2126C94.7889 48.3048 96.1001 49.3134 96.4027 49.616C97.0079 48.8091 95.7975 46.9935 95.5958 45.884C94.1837 45.884 92.7715 45.7831 91.2585 45.7831C91.1577 50.2212 85.9126 51.0282 82.9875 53.3481C82.4831 53.7515 81.7771 55.0628 81.1719 55.9706H142.902H145.525H146.937H154.502H172.658C172.658 55.1637 172.759 54.4576 172.759 53.6507C170.842 53.8524 169.531 54.5585 168.018 54.0542Z" fill="#303050"/>
<path d="M484.335 50.4233C484.335 51.0285 484.234 51.6337 484.234 52.2389C485.041 53.4493 488.471 53.5502 487.966 50.8268C487.059 49.919 485.344 49.3138 484.335 50.4233Z" fill="#303050"/>
<path d="M67.0518 53.8529C67.5561 52.239 68.6657 51.4321 70.4813 51.3312C70.5821 49.5156 70.1787 48.0026 70.0778 46.5905C65.8414 46.4896 67.1527 51.1295 66.0431 54.1555C65.8414 54.8615 65.4379 55.4667 64.9336 56.0719H65.7405H66.7492H68.8674C68.1613 55.4667 67.5561 54.6598 67.0518 53.8529Z" fill="#303050"/>
<path d="M522.159 52.2388C521.655 52.7431 521.554 54.6596 522.058 55.1639C524.075 55.87 524.983 53.7518 524.176 52.2388C523.571 52.2388 522.865 52.2388 522.159 52.2388Z" fill="#303050"/>
<path d="M77.0352 53.2476C77.0352 54.458 76.43 54.7606 76.5309 56.0718H78.9517C78.2456 54.9623 77.943 53.2476 77.0352 53.2476Z" fill="#303050"/>
<path d="M70.0781 56.0715H76.0292C73.8102 55.3655 71.9946 54.8611 70.0781 56.0715Z" fill="#303050"/>
<path d="M58.2773 54.3574C58.5799 55.0635 58.9834 55.5678 59.4877 56.0722H62.312C64.1276 54.3574 65.338 51.4323 63.825 48.9106C63.825 53.0462 60.2947 52.7436 58.2773 54.3574Z" fill="#303050"/>
<path d="M262.43 52.4409C262.833 52.2391 263.237 52.1383 263.539 51.9365C263.136 51.9365 262.732 52.1383 262.43 52.4409Z" fill="#303050"/>
<path d="M50.1048 45.7827C46.3727 46.1862 44.8597 50.2208 45.9693 55.1633C46.7762 55.4659 47.5831 55.7685 48.2892 56.0711H53.8369C57.6698 52.5408 55.8542 45.1775 50.1048 45.7827Z" fill="#303050"/>
<path d="M180.122 44.8753C181.937 44.4719 181.836 40.7398 181.029 39.4285C179.012 39.2268 177.701 44.4719 180.122 44.8753Z" fill="#303050"/>
<path d="M451.957 27.4253C453.268 27.627 453.369 26.5175 454.377 26.4166C455.487 19.356 447.619 24.601 451.957 27.4253Z" fill="#303050"/>
<path d="M446.813 37.6132C445.905 40.2357 453.168 40.4374 452.462 36.6045C451.15 37.2097 448.83 38.8236 446.813 37.6132Z" fill="#303050"/>
<path d="M456.297 53.8525C456.902 54.6594 457.507 54.0542 458.314 53.9533C458.415 53.1464 458.314 52.5412 458.012 52.1377C456.801 51.7343 456.599 52.8438 456.297 53.8525Z" fill="#303050"/>
<path d="M273.425 37.2101C273.425 37.8153 273.324 38.4205 273.324 39.0257C274.333 41.0431 277.056 38.9249 275.745 36.9075C274.837 36.9075 273.829 36.7058 273.425 37.2101Z" fill="#303050"/>
<path d="M269.489 34.5874C268.379 38.9246 274.835 38.1177 272.817 34.2848C271.909 33.7805 270.195 33.6796 269.489 34.5874Z" fill="#303050"/>
<path d="M295.815 37.7144C294.706 39.2274 295.715 41.043 297.328 41.043C299.447 39.9335 297.429 36.8066 295.815 37.7144Z" fill="#303050"/>
<path d="M295.815 24.1982C295.311 26.9216 296.924 27.4259 297.53 28.9389C302.27 27.8294 300.152 20.3652 295.815 24.1982Z" fill="#303050"/>
<path d="M290.47 51.5324C290.066 54.861 295.816 54.6592 294.202 50.1203C292.487 49.0107 290.671 50.1203 290.47 51.5324Z" fill="#303050"/>
<path d="M409.392 45.4808C408.989 46.2877 408.283 44.4721 407.072 45.0773C406.064 45.8842 405.459 48.6076 406.165 50.1206C403.744 52.6423 400.92 54.6596 396.986 55.4666C395.876 51.8354 394.464 48.4059 389.723 48.4059C389.32 49.112 388.916 49.818 388.614 50.625C386.899 50.625 384.882 50.3224 383.671 50.8267C383.873 52.2388 385.084 52.844 385.487 54.1553C383.671 54.1553 382.058 54.0544 381.553 52.6423C381.755 51.331 382.864 51.1293 383.369 50.1206C381.251 46.6912 378.83 43.6652 373.383 43.6652C372.475 45.3799 371.063 46.1868 371.164 49.112C372.273 49.112 374.392 50.8267 374.493 48.8094C374.694 47.2964 373.484 48.5068 372.879 48.4059C372.374 47.9016 372.879 46.2877 372.374 45.8842C379.435 43.2617 382.764 49.0111 378.931 54.7605C377.317 54.7605 376.409 54.0544 374.997 53.9536C374.997 53.2475 375.098 52.5414 375.098 51.7345C372.879 51.4319 371.467 52.0371 369.449 51.9362C370.559 53.5501 371.87 54.9622 373.484 55.9709H379.233H380.847H386.395H387.101H401.121H403.441H405.559C405.963 54.5588 406.266 52.9449 406.467 51.2302C407.375 50.3224 408.989 50.0198 409.897 49.112C410.3 46.086 411.611 44.2704 411.611 40.6392C409.897 41.1435 409.897 43.6652 409.392 45.4808Z" fill="#303050"/>
<path d="M257.488 44.2704C265.456 45.7834 256.58 35.5959 257.488 44.2704V44.2704Z" fill="#303050"/>
<path d="M252.242 28.7368C253.654 29.9472 254.865 31.0568 257.386 31.0568C257.79 30.5524 257.79 29.7455 257.79 28.8377C256.277 28.5351 254.966 27.829 253.553 27.3247C253.453 28.2325 253.957 28.4342 254.159 29.1403C253.15 29.4429 253.049 28.7368 252.242 28.7368Z" fill="#303050"/>
<path d="M263.841 34.7884C266.766 35.6962 267.271 31.9642 265.354 31.1572C263.841 31.1572 263.135 32.1659 263.236 34.0824C263.539 34.1832 263.841 34.385 263.841 34.7884Z" fill="#303050"/>
<path d="M457.708 31.9645C456.901 31.5611 453.875 31.7628 453.673 33.9819C453.371 35.4949 454.682 33.881 455.691 34.3853C455.489 36.6044 455.59 38.5209 456.397 39.5295C457.103 37.5122 460.431 33.0741 457.708 31.9645Z" fill="#303050"/>
<path d="M459.119 38.1177C459.522 39.2272 459.926 40.5385 460.935 41.1437C460.329 42.1523 459.119 42.2532 458.816 43.6653C458.816 45.5818 459.724 46.5905 461.641 46.6913C462.548 43.3627 462.347 38.3194 459.119 38.1177Z" fill="#303050"/>
<path d="M312.659 17.2378C312.659 17.9439 312.559 18.6499 312.559 19.4569C315.786 21.7768 316.089 15.0187 312.659 17.2378Z" fill="#303050"/>
<path d="M263.437 44.3712C264.546 45.985 267.471 44.0686 266.261 41.8495C264.344 41.6478 263.336 42.4547 263.437 44.3712Z" fill="#303050"/>
<path d="M417.463 44.9768C416.959 44.9768 416.353 44.876 415.849 44.876C415.345 45.3803 415.244 46.8933 415.647 47.3976C417.362 48.0028 418.27 46.1872 417.463 44.9768Z" fill="#303050"/>
<path d="M411.41 53.9528C412.822 55.0623 414.638 52.9441 413.528 51.0276C411.41 50.5233 410.805 52.4398 411.41 53.9528Z" fill="#303050"/>
<path d="M299.951 12.9009C299.447 13.9095 299.447 14.7165 299.749 15.826C301.868 16.5321 302.775 14.5147 301.868 12.9009C301.262 13.0017 300.657 12.9009 299.951 12.9009Z" fill="#303050"/>
<path d="M432.49 47.9013C430.876 47.6996 430.775 49.2126 429.363 49.3134C431.078 52.0368 433.095 56.0715 437.735 54.6594C436.222 52.2386 433.196 51.2299 432.49 47.9013Z" fill="#303050"/>
<path d="M427.044 17.7426C426.237 16.9357 425.43 17.1374 424.422 17.6417C424.422 18.5495 424.22 19.7599 424.623 20.2643C426.439 20.6677 427.044 19.5582 427.044 17.7426Z" fill="#303050"/>
<path d="M409.795 30.9562C416.15 28.9389 409.19 21.1721 407.273 27.9302C407.475 29.6449 409.19 29.7458 409.795 30.9562Z" fill="#303050"/>
<path d="M430.17 41.6473C433.095 38.7222 432.389 36.604 429.867 33.9814C428.758 35.797 430.17 38.0161 429.565 40.5378C427.144 39.3274 425.732 37.1083 423.815 35.2927C422.807 36.8057 424.925 38.2178 424.925 40.0334C426.841 40.336 428.354 41.0421 430.17 41.6473Z" fill="#303050"/>
<path d="M411.207 50.0195C412.115 50.423 412.619 50.423 413.527 50.1204C413.628 49.5152 413.628 48.91 413.628 48.3048C413.224 47.8004 412.216 47.9013 411.308 47.9013C411.308 48.5065 411.207 49.3134 411.207 50.0195Z" fill="#303050"/>
<path d="M307.215 42.7573C307.618 43.6651 307.215 45.279 307.719 46.0859C308.224 46.0859 308.829 46.1868 309.333 46.1868C310.14 44.9764 310.14 43.6651 309.535 42.5556C308.425 42.1521 307.921 42.6564 307.215 42.7573Z" fill="#303050"/>
<path d="M306.307 25.8116C312.056 27.4255 305.802 19.8605 306.307 25.8116V25.8116Z" fill="#303050"/>
<path d="M313.369 50.9277C311.856 51.5329 310.948 52.9451 310.242 54.5589C311.654 56.5763 314.983 56.3745 315.891 53.9537C315.386 52.5416 314.075 52.0373 313.369 50.9277Z" fill="#303050"/>
<path d="M402.332 43.1611C403.643 45.0775 406.266 42.3541 404.45 40.6394C403.542 40.3368 403.341 40.942 402.433 40.942C402.433 41.749 402.332 42.455 402.332 43.1611Z" fill="#303050"/>
<path d="M401.523 4.42785C403.641 4.02438 404.045 1.20012 402.33 0.090583C398.9 -0.71635 399.102 4.12525 401.523 4.42785Z" fill="#303050"/>
<path d="M392.851 45.9849C393.658 44.371 392.548 41.9502 390.733 41.9502C388.312 43.2615 390.531 47.5987 392.851 45.9849Z" fill="#303050"/>
<path d="M383.57 46.4897C383.772 47.1958 384.276 47.7001 384.478 48.3053C390.833 49.3139 385.89 41.9507 383.57 46.4897Z" fill="#303050"/>
<path d="M248.914 22.0789C250.83 22.4824 251.94 20.1625 251.133 18.4477C248.51 17.4391 247.703 20.7677 248.914 22.0789Z" fill="#303050"/>
<path d="M248.613 8.15961C247.201 7.25181 245.688 8.15961 245.889 10.2778C246.293 10.883 247.503 10.6813 248.512 10.7821C248.512 9.87434 248.613 9.06741 248.613 8.15961Z" fill="#303050"/>
<path d="M497.651 46.6912C495.836 47.599 494.121 48.7085 493.516 51.0284C496.037 52.2388 496.945 49.5154 498.256 48.2042C499.164 50.4232 499.568 53.1466 499.366 56.1726H510.865C511.873 54.7605 512.68 53.0458 513.588 51.8354C512.781 49.6163 510.966 48.305 509.553 46.5903C504.914 45.3799 500.778 47.6998 497.651 46.6912Z" fill="#303050"/>
<path d="M68.868 25.7103C67.9602 24.2981 65.4385 25.6094 63.3203 24.9033C64.0264 26.0129 64.5307 27.3241 65.4385 28.2319C67.4558 28.3328 67.7584 26.5172 68.868 25.7103Z" fill="#303050"/>
<path d="M41.0273 42.3535C41.2291 43.463 41.9351 43.9673 41.5317 45.6821C41.9351 46.1864 42.9438 46.0855 43.8516 46.0855C43.7507 45.3795 44.1542 45.1777 44.2551 44.6734C44.0533 43.2613 42.6412 43.0595 42.7421 41.3448C41.7334 41.0422 41.8343 42.2526 41.0273 42.3535Z" fill="#303050"/>
<path d="M52.0209 33.3764C52.0209 32.166 51.6175 31.2582 51.9201 29.7452C50.8105 29.5435 50.1045 29.8461 49.2975 30.0478C49.0958 31.6617 49.1967 32.8721 49.8019 33.7799C50.8105 33.8808 51.3149 33.4773 52.0209 33.3764Z" fill="#303050"/>
<path d="M57.065 24.2988C56.6615 25.0049 55.8546 26.0136 56.5606 26.8205C58.4771 27.1231 59.0823 24.3997 57.065 24.2988Z" fill="#303050"/>
<path d="M8.44852 53.6507C8.44852 54.2559 8.34766 54.8611 8.34766 55.4663C9.25546 56.1724 9.35632 56.0715 10.6676 55.8698C10.6676 54.962 10.8693 53.7516 10.4659 53.2472C9.45719 53.0455 9.15459 53.6507 8.44852 53.6507Z" fill="#303050"/>
<path d="M417.362 49.7173C415.547 51.0286 414.639 53.5502 413.832 56.0719H414.942C415.95 54.0546 418.674 52.945 417.362 49.7173Z" fill="#303050"/>
<path d="M467.893 55.265C468.297 53.5503 468.398 51.533 469.709 50.9278C471.726 50.3226 471.525 53.4495 472.937 52.4408C473.34 50.02 472.836 47.9018 473.542 46.2879C472.634 46.2879 471.424 46.3888 470.919 45.8845C471.02 44.8758 471.626 44.3715 471.626 43.3628C470.718 43.3628 470.314 44.1697 469.608 44.3715C469.205 46.4897 469.911 47.3975 470.718 48.4061C470.718 49.4148 469.911 49.8182 469.306 50.2217C467.591 50.02 467.288 48.3053 465.775 47.9018C465.372 49.4148 467.087 50.2217 466.885 51.9365C466.885 51.8356 465.574 54.6598 465.473 54.0546C465.674 55.1642 466.38 55.6685 467.389 56.072H472.332C472.735 55.3659 473.139 54.7607 473.845 54.2564C472.432 53.752 470.516 55.9711 467.893 55.265Z" fill="#303050"/>
<path d="M428.256 49.2132C429.567 48.1037 430.979 47.1959 431.181 44.876C427.953 45.8846 422.708 47.1959 419.581 44.9768C419.783 45.8846 419.985 46.6916 419.783 47.902C422.507 47.902 424.221 48.8098 423.515 52.3401C421.599 52.0375 421.8 49.5158 419.38 49.7176C419.38 51.2306 418.774 51.4323 419.279 52.6427C420.489 53.4496 421.498 52.2392 422.204 53.4496C422.204 54.4583 422.103 55.2652 421.901 55.9713H425.533C426.138 57.686 426.743 59.4008 428.357 59.4008C430.878 59.5016 430.576 57.7869 429.567 55.9713H434.51C431.685 54.66 430.273 51.2306 428.256 49.2132Z" fill="#303050"/>
<path d="M442.374 54.7605C441.063 53.6509 442.475 51.2301 442.374 49.2128C439.953 49.1119 439.751 51.7345 438.238 52.7431C439.045 53.7518 440.356 54.357 441.769 54.6596C441.668 55.2648 441.365 55.6683 441.063 56.0717H443.988C444.089 55.5674 444.089 54.9622 443.988 54.4579C443.282 54.2561 442.676 54.4579 442.374 54.7605Z" fill="#303050"/>
<path d="M447.419 53.3481C447.016 54.4577 446.612 55.3655 445.906 56.0715H449.537C449.437 54.8611 448.63 53.7516 447.419 53.3481Z" fill="#303050"/>
<path d="M37.4963 26.1147C37.1937 27.426 37.5971 28.132 38.0006 28.6364C39.8162 29.2416 40.5223 27.0225 39.8162 25.8121C39.0093 25.4086 38.4041 25.7112 37.4963 26.1147Z" fill="#303050"/>
<path d="M210.483 18.3476C211.592 16.0277 210.584 12.9008 209.474 11.6904C207.86 13.506 207.86 18.1459 210.483 18.3476Z" fill="#303050"/>
<path d="M161.36 22.7855C162.167 21.7769 161.663 19.2552 161.965 17.7422C158.536 17.9439 158.738 21.9786 161.36 22.7855Z" fill="#303050"/>
<path d="M442.273 42.5552C442.879 44.3708 443.988 45.5812 444.291 47.8002C444.795 46.6907 444.19 43.6647 444.593 41.5465C443.484 41.4456 443.484 42.656 442.273 42.5552Z" fill="#303050"/>
<path d="M233.986 30.1484C233.481 29.9467 233.179 29.5432 232.674 29.4424C228.337 30.3502 234.389 36.2004 233.986 30.1484Z" fill="#303050"/>
<path d="M165.9 30.9557C166.303 29.947 167.009 29.241 167.615 28.434C167.514 27.9297 166.707 28.1314 166.303 28.0306C167.816 26.7193 168.825 24.9037 170.54 23.6933C170.338 22.3821 165.9 22.3821 165.9 23.9959C165.194 23.9959 165.799 22.3821 165.698 21.7769C162.874 22.2812 161.563 24.5003 160.453 27.1228C161.462 29.3418 162.571 31.3592 165.9 30.9557Z" fill="#303050"/>
<path d="M75.8272 48.1033C69.8761 45.0773 74.7176 56.3744 75.8272 48.1033V48.1033Z" fill="#303050"/>
<path d="M222.588 12.6987C220.066 13.2031 217.646 17.8429 219.865 20.3646C226.32 21.8776 226.118 14.5143 222.588 12.6987Z" fill="#303050"/>
<path d="M104.269 26.4168C108.203 27.3246 106.085 22.0795 103.967 24.6012C103.664 25.6098 104.37 25.509 104.269 26.4168Z" fill="#303050"/>
<path d="M155.712 35.8985C155.006 33.4777 157.225 31.6621 158.637 30.4517C157.629 29.443 156.015 30.956 154.3 30.3508C153.796 31.3595 152.686 31.8638 152.484 33.1751C153.695 33.982 154.3 35.3942 155.712 35.8985Z" fill="#303050"/>
<path d="M149.357 24.5001C149.458 23.6931 149.357 23.0879 149.055 22.6845C147.743 22.3819 147.542 23.4914 147.34 24.5001C147.945 25.1053 148.55 24.5001 149.357 24.5001Z" fill="#303050"/>
<path d="M238.827 26.3159C237.819 26.5177 237.113 27.022 237.012 28.4341C237.314 28.7367 237.617 29.1402 237.92 29.5436C240.239 29.7454 240.441 27.022 238.827 26.3159Z" fill="#303050"/>
<path d="M99.9356 19.0534C100.44 17.6413 101.247 16.7335 101.146 14.6153C100.944 14.3127 100.238 14.4136 100.238 13.9092C95.9009 13.5058 97.1113 18.65 99.9356 19.0534Z" fill="#303050"/>
<path d="M758.692 52.1379C759.096 51.0284 760.205 50.3223 760.81 49.3136C759.6 45.985 757.482 44.9764 755.565 43.4634C752.136 47.2963 757.986 52.3396 760.205 55.4665C760.003 55.7691 759.701 55.9708 759.398 56.0717H762.525C761.416 54.357 760.205 53.0457 758.692 52.1379Z" fill="#303050"/>
<path d="M712.194 46.1869C711.892 45.9851 711.287 46.2877 711.085 45.8843C706.949 47.1955 709.975 51.5328 712.8 50.7259C712.699 49.2129 713.102 48.1033 712.194 46.1869Z" fill="#303050"/>
<path d="M752.035 51.9365C750.925 51.9365 749.815 52.0374 748.403 52.5417C748.605 53.4495 749.21 53.1469 749.311 54.1556C745.882 54.2565 742.452 54.4582 739.124 54.1556C739.124 54.8617 739.023 55.4669 738.922 56.0721H756.674C754.859 55.4669 752.942 53.853 752.035 51.9365Z" fill="#303050"/>
<path d="M718.547 54.3571C718.648 55.4666 719.253 55.0632 719.455 55.971C723.489 55.3658 719.556 51.3311 718.547 54.3571Z" fill="#303050"/>
<path d="M797.528 19.457C797.226 22.9874 801.664 26.0134 803.379 29.0394C801.059 31.4602 795.511 32.2671 796.52 36.4026C797.73 37.3104 799.546 35.9991 799.747 34.6879C799.546 33.4775 798.84 33.3766 798.436 32.8723C799.546 32.9732 800.655 32.9732 801.664 33.1749C799.848 35.4948 798.84 38.2182 799.041 41.6477C800.655 42.6563 802.37 43.2615 804.286 43.5641C801.462 37.613 803.48 34.1836 805.295 30.6532C806.102 33.4775 806.102 37.7139 808.926 37.9156C808.624 38.7226 807.413 39.0251 807.111 39.7312C807.312 40.9416 807.918 41.2442 808.321 42.0511C808.523 41.9503 808.22 42.7572 807.716 43.7659C807.716 43.0598 807.615 42.4546 807.413 41.6477C807.01 42.2529 805.194 44.4719 803.177 46.9936C800.756 47.8005 799.949 49.5153 799.747 51.6335C798.335 53.6508 797.125 55.2647 796.822 56.0716H797.528H809.229H814.777V32.6706V28.535V24.3995C814.676 24.1978 814.676 24.0969 814.575 23.8952C807.413 30.6532 801.664 24.0969 797.528 19.457Z" fill="#303050"/>
<path d="M770.998 31.0562C771.401 29.8458 769.888 27.7276 769.585 26.1138C766.559 27.6268 768.274 31.258 770.998 31.0562Z" fill="#303050"/>
<path d="M811.346 2.71289C810.539 4.93196 812.254 9.16835 814.675 8.46229H814.776C814.776 8.05882 814.776 7.65535 814.675 7.25189C814.271 5.13369 812.557 3.21722 811.346 2.71289Z" fill="#303050"/>
<path d="M770.696 45.2786C769.183 43.2613 770.494 40.8405 771.301 39.1257C769.99 38.6214 769.082 40.5379 767.266 40.7396C767.166 41.8491 766.359 42.7569 766.661 44.0682C768.174 44.2699 769.183 45.3795 770.696 45.2786Z" fill="#303050"/>
<path d="M760.51 37.1085C760.308 36.3016 760.005 35.7972 759.602 35.4946C758.291 35.6964 758.492 36.8059 758.694 37.8146C759.501 38.218 759.804 37.512 760.51 37.1085Z" fill="#303050"/>
<path d="M795.51 39.0249C793.593 39.6301 794.299 44.976 796.72 44.3708C798.233 43.3622 796.72 39.9327 795.51 39.0249Z" fill="#303050"/>
<path d="M778.362 36.9065C778.362 35.797 778.765 34.8892 778.967 33.8805C778.664 33.4771 778.059 33.9814 777.555 33.9814C778.463 32.2667 778.664 30.1485 779.875 28.4337C779.169 27.3242 775.134 29.0389 775.739 30.4511C775.033 30.6528 775.134 29.0389 774.731 28.5346C772.31 30.0476 771.906 32.6701 771.906 35.4944C773.52 37.1083 775.336 38.5204 778.362 36.9065Z" fill="#303050"/>
<path d="M790.366 50.3223C788.45 50.8266 787.34 51.7344 786.231 52.6422C781.49 46.6911 783.003 38.42 783.81 32.7715C782.902 31.3594 780.784 30.3507 779.372 32.1663C779.775 33.175 780.582 33.2758 781.087 33.881C781.087 34.688 779.775 34.8897 779.977 35.7975C780.28 37.0079 780.986 37.3105 781.793 37.0079C781.793 38.0166 780.986 38.6218 780.986 39.6304C779.271 38.5209 776.648 39.6304 774.026 40.74C776.144 45.8841 771.403 47.3971 769.789 50.6249C771.504 53.4491 768.478 53.8526 767.57 55.3656C765.856 54.2561 764.645 51.9361 761.922 53.2474C762.224 54.1552 762.527 55.063 762.729 55.9708H780.986H787.34C787.038 55.3656 786.735 54.6595 786.533 53.9535C788.147 53.9535 790.164 52.7431 791.778 52.7431C791.577 51.6335 790.77 51.4318 790.366 50.3223Z" fill="#303050"/>
</g>
</svg>
