<svg width="938" height="176" viewBox="0 0 938 176" fill="none" xmlns="http://www.w3.org/2000/svg">
<path opacity="0.1" d="M0.101562 44.1C0.101562 44.5 0.201563 44.9 0.301563 45.3V44C0.201563 44 0.101562 44 0.101562 44.1Z" fill="#2EEAB2"/>
<path opacity="0.1" d="M0.301563 173.4V172.6C0.201563 172.9 0.201563 173.1 0.301563 173.4Z" fill="#2EEAB2"/>
<path opacity="0.1" d="M541.301 72.7002V77.6002C541.801 76.1002 541.901 74.3002 541.301 72.7002Z" fill="#2EEAB2"/>
<path opacity="0.1" d="M520.498 1C520.498 1.1 520.498 1.1 520.398 1.2H520.998C520.798 1.1 520.598 1 520.498 1Z" fill="#2EEAB2"/>
<path opacity="0.1" d="M55.3002 66.5002C55.0002 65.5002 56.1002 65.1002 56.1002 64.3002C54.8002 65.0002 53.9002 64.5002 53.2002 63.6002C52.6002 60.6002 52.1002 58.4002 54.3002 57.4002C53.7002 56.3002 52.9002 56.0002 52.3002 54.8002C53.2002 54.0002 53.5002 55.0002 54.3002 54.4002C52.7002 48.7002 49.6002 47.5002 46.1002 47.8002C45.2002 52.4002 46.1002 58.0002 48.5002 64.1002C50.6002 65.3002 52.8002 66.2002 55.3002 66.5002Z" fill="#2EEAB2"/>
<path opacity="0.1" d="M14.7992 84.0999C13.6992 83.4999 12.5992 83.9999 12.1992 85.1999C12.6992 85.4999 14.9992 85.0999 14.7992 84.0999Z" fill="#2EEAB2"/>
<path opacity="0.1" d="M12.4008 80.8C12.3008 79.6 12.7008 78.8 12.3008 77.5C11.8008 77.7 11.3008 77.9 10.8008 78.1C11.4008 78.8 11.5008 80.9 12.4008 80.8Z" fill="#2EEAB2"/>
<path opacity="0.1" d="M86.6 13.6001C85.7 11.8001 84.7 10.4001 83.5 9.6001C84.4 11.5001 85 14.0001 86.6 13.6001Z" fill="#2EEAB2"/>
<path opacity="0.1" d="M1.3 95.7998C2.6 94.6998 1.8 91.9998 0 91.7998V95.8998C0.4 95.9998 0.8 95.9998 1.3 95.7998Z" fill="#2EEAB2"/>
<path opacity="0.1" d="M3.30078 85C2.30078 84.4 1.30078 83.8 0.300781 83V87.2C1.80078 86.7 3.20078 86.1 3.30078 85Z" fill="#2EEAB2"/>
<path opacity="0.1" d="M64.7984 36.5C62.9984 33.2 61.9984 27.3 58.3984 29.1C59.1984 32 61.1984 31.4 62.3984 33.2C61.5984 35.1 60.5984 36.8 61.1984 39.4C62.6984 38.6 63.1984 37.3 64.7984 36.5Z" fill="#2EEAB2"/>
<path opacity="0.1" d="M60.3016 57.2003C61.4016 61.3003 59.8016 64.1003 58.0016 66.8003C60.3016 68.8003 62.7016 64.8003 65.1016 63.9003C65.7016 62.8003 64.7016 61.0003 65.0016 59.6003C69.3016 57.8003 68.7016 53.7003 71.4016 51.2003C72.1016 52.7003 72.6016 54.9003 73.9016 54.9003C75.3016 51.9003 75.5016 47.5003 72.0016 48.5003C69.6016 49.2003 70.0016 53.8003 66.8016 54.5003C63.2016 50.8003 55.2016 53.6003 55.1016 58.8003C56.6016 58.5003 58.9016 56.7003 60.3016 57.2003Z" fill="#2EEAB2"/>
<path opacity="0.1" d="M12.5992 135.6C13.1992 135.3 14.0992 135.1 13.8992 134.6C13.1992 134.8 12.9992 133.3 12.1992 133.8C12.6992 134.5 12.2992 134.9 12.5992 135.6Z" fill="#2EEAB2"/>
<path opacity="0.1" d="M154.598 15.3002C155.298 14.0002 153.898 12.1002 152.398 12.3002C153.098 13.5002 153.398 15.7002 154.598 15.3002Z" fill="#2EEAB2"/>
<path opacity="0.1" d="M101.301 49.4001C100.201 50.4001 100.701 52.1001 100.501 53.6001C93.8013 59.0001 105.401 61.7001 106.501 66.1001C109.201 63.8001 105.601 58.6001 108.901 56.4001C106.901 51.9001 105.901 47.4001 101.301 49.4001Z" fill="#2EEAB2"/>
<path opacity="0.1" d="M121.801 38.5002C117.401 41.3002 123.601 45.9002 125.401 47.6002C125.501 44.6002 128.701 43.6002 127.701 40.9002C126.801 38.2002 123.401 37.5002 121.801 38.5002Z" fill="#2EEAB2"/>
<path opacity="0.1" d="M29.5984 124.5C27.6984 126.6 26.3984 128.6 25.8984 130.6C27.9984 128 30.2984 125.2 29.5984 124.5Z" fill="#2EEAB2"/>
<path opacity="0.1" d="M58.3984 82.5001C58.8984 84.0001 59.8984 84.4001 60.8984 84.3001C60.8984 83.5001 61.3984 82.8001 60.5984 81.6001C59.5984 82.3001 58.7984 81.3001 58.3984 82.5001Z" fill="#2EEAB2"/>
<path opacity="0.1" d="M39.1992 130.9C40.2992 131.7 42.1992 130.8 43.0992 129.8C43.5992 124.5 35.9992 126.5 39.1992 130.9Z" fill="#2EEAB2"/>
<path opacity="0.1" d="M189.1 5.99996C188.9 5.19996 189.5 4.69996 188.9 3.69996C188.3 3.39996 187.4 3.79996 186.5 4.19996C187 5.69996 187.8 6.39996 189.1 5.99996Z" fill="#2EEAB2"/>
<path opacity="0.1" d="M41.5 124.1C41.8 124.8 42.1 125.5 42.4 126.1C43.1 126.5 44.2 125.9 45.2 125.4C45.8 122.5 41.8 121.4 41.5 124.1Z" fill="#2EEAB2"/>
<path opacity="0.1" d="M188.799 12.3002C188.699 12.0002 188.899 11.7002 189.399 11.6002C188.899 8.80016 186.699 9.10016 185.699 10.2002C186.299 12.1002 187.299 13.2002 188.799 12.3002Z" fill="#2EEAB2"/>
<path opacity="0.1" d="M90.3994 24.0002C90.2994 23.7002 90.0994 23.4002 89.9994 23.2002C85.8994 24.6002 83.0994 26.6002 84.3994 30.4002C86.1994 29.3002 88.9994 26.3002 90.3994 24.0002Z" fill="#2EEAB2"/>
<path opacity="0.1" d="M166.401 17.3002C166.501 16.6002 166.101 15.6002 166.201 15.0002C165.401 15.0002 164.101 14.6002 163.801 15.5002C164.401 17.0002 165.201 17.7002 166.401 17.3002Z" fill="#2EEAB2"/>
<path opacity="0.1" d="M118.901 27.6999C118.501 26.6999 118.001 25.6999 117.401 25.3999C116.201 25.4999 116.701 26.3999 115.801 26.5999C116.301 28.3999 117.501 28.1999 118.901 27.6999Z" fill="#2EEAB2"/>
<path opacity="0.1" d="M27.8984 122.5C28.6984 124.7 30.1984 125.1 32.1984 124.1C32.5984 121 28.4984 120.2 27.8984 122.5Z" fill="#2EEAB2"/>
<path opacity="0.1" d="M37.1012 86.9C45.9012 86.3 34.4011 78.4 37.1012 86.9V86.9Z" fill="#2EEAB2"/>
<path opacity="0.1" d="M5.70156 150.4C5.50156 150.9 5.30156 151.5 5.10156 152C5.80156 153.6 6.80156 153.9 8.00156 153.6C9.60156 152.3 8.20156 149.2 5.70156 150.4Z" fill="#2EEAB2"/>
<path opacity="0.1" d="M20.4 96.7C19.8 96.4 18.9 96.8 18 97.2C18.5 98.7 19.3 99.4 20.5 99C20.6 98.4 20.3 97.4 20.4 96.7Z" fill="#2EEAB2"/>
<path opacity="0.1" d="M26.9992 140.1C24.0992 141.2 23.1992 143.1 22.1992 145C23.0992 144.7 22.9992 143.9 24.1992 143.6C24.3992 144.4 23.7992 144.9 24.3992 145.9C25.7992 144.7 26.8992 143.3 28.4992 142.3C28.0992 141.4 27.6992 140.5 26.9992 140.1Z" fill="#2EEAB2"/>
<path opacity="0.1" d="M1.30078 165.3C2.20078 168.3 3.90078 168.8 6.30078 167.6C7.40078 164.3 2.30078 162.3 1.30078 165.3Z" fill="#2EEAB2"/>
<path opacity="0.1" d="M32.7008 133.1C32.8008 133.6 32.6008 133.9 32.3008 134.2C33.0008 136.4 34.2008 137.2 36.0008 136.5C37.8008 134.8 35.6008 130.8 32.7008 133.1Z" fill="#2EEAB2"/>
<path opacity="0.1" d="M84.498 42.4002C85.198 41.2002 86.398 40.2002 87.498 39.3002C87.998 29.9002 75.698 32.5002 79.198 39.3002C80.298 41.4002 82.298 41.4002 84.498 42.4002Z" fill="#2EEAB2"/>
<path opacity="0.1" d="M21.1992 125.2C24.0992 135.4 29.5992 119.9 21.1992 125.2V125.2Z" fill="#2EEAB2"/>
<path opacity="0.1" d="M137.299 22.9002C137.499 24.2002 135.999 24.9002 136.699 26.5002C138.199 25.9002 138.799 27.9002 139.999 28.0002C140.099 26.4002 141.099 25.3002 141.199 23.7002C139.899 23.6002 138.899 22.6002 137.299 22.9002Z" fill="#2EEAB2"/>
<path opacity="0.1" d="M163.401 64.6C163.401 65.4 163.001 66.2 163.201 67.1C167.801 71.3 170.101 60.8 163.401 64.6Z" fill="#2EEAB2"/>
<path opacity="0.1" d="M173.301 69.2C175.301 68.4 175.601 65.2 173.901 63.7C170.501 62.9 169.901 68.8 173.301 69.2Z" fill="#2EEAB2"/>
<path opacity="0.1" d="M169 55.6001C167.5 56.0001 167.6 57.2001 167 57.9001C167.9 59.1001 169 60.0001 170.1 60.9001C170.5 59.6001 171 57.0001 169 55.6001Z" fill="#2EEAB2"/>
<path opacity="0.1" d="M154.001 38.7002C153.101 38.9002 152.601 39.3002 152.301 39.8002C153.001 41.8002 154.401 41.4002 155.201 40.5002C155.101 39.3002 154.301 39.8002 154.001 38.7002Z" fill="#2EEAB2"/>
<path opacity="0.1" d="M274.602 16.4C274.902 17.1 275.202 17.8 275.502 18.4C277.202 19.2 278.802 17.7 279.402 16.3C278.802 13 274.902 14.7 274.602 16.4Z" fill="#2EEAB2"/>
<path opacity="0.1" d="M153.299 19.2999C154.999 18.8999 155.399 15.1999 155.699 12.9999C152.299 11.6999 149.799 7.9999 145.899 7.8999C145.099 8.8999 145.499 10.2999 144.199 10.9999C145.099 12.2999 145.799 13.7999 146.999 14.1999C147.199 13.2999 148.099 12.6999 149.199 12.2999C150.399 14.4999 151.999 15.1999 153.599 16.1999C153.999 17.3999 152.599 17.8999 153.299 19.2999ZM152.399 12.2999C153.899 12.0999 155.299 13.8999 154.599 15.2999C153.399 15.6999 153.099 13.4999 152.399 12.2999Z" fill="#2EEAB2"/>
<path opacity="0.1" d="M176.2 23.8998C177.9 24.0998 179.3 25.2998 181.2 25.1998C181.3 23.4998 183.3 22.6998 183.3 20.9998C181.8 19.8998 180.7 18.0998 179.3 16.8998C178.2 17.4998 177.7 16.6998 176.5 17.5998C175.3 16.2998 174.3 14.7998 172.9 14.2998C173.4 15.3998 173.9 16.4998 174.3 17.5998C169.6 19.9998 174.7 27.5998 177.9 29.5998C175.1 31.0998 174.9 33.7998 173.7 36.0998C172.9 34.3998 171.5 34.2998 170.8 32.4998C172 31.1998 174.1 30.3998 174.4 28.5998C172.8 26.9998 171.4 24.7998 169.8 23.2998C167.8 23.7998 167.6 25.0998 166.6 25.9998C164.6 23.3998 162.1 22.1998 158.9 23.3998C159.1 22.5998 158.1 19.5998 157.1 19.2998C154.7 20.9998 158.1 25.2998 153.5 26.0998C154 27.4998 154.6 28.3998 155.3 29.1998C155.4 30.0998 153.2 29.9998 153.4 30.9998C155 30.8998 158.2 31.1998 159.3 29.4998C158.8 29.2998 157.2 27.5998 157.8 27.1998C158.9 27.4998 160.1 27.0998 161.1 27.7998C161 33.7998 151.3 39.3998 158.1 45.2998C158.2 39.5998 159.5 34.4998 164 30.7998C165.4 30.5998 166.6 31.2998 167.5 32.6998C166.6 33.4998 165.6 34.1998 165.7 35.3998C167.2 34.7998 168.7 34.1998 170.2 33.5998C170.9 34.8998 171.8 35.6998 172.4 37.4998C174.3 36.8998 175.4 38.5998 176.8 39.4998C178.5 37.9998 179.9 36.3998 181.3 34.7998C181.8 35.7998 182.5 35.6998 182.8 37.0998C184.2 36.6998 185.2 35.9998 186 35.2998C184.2 27.2998 179.1 28.5998 176.2 23.8998Z" fill="#2EEAB2"/>
<path opacity="0.1" d="M185.801 62.7002C186.201 63.5002 186.501 64.3002 186.901 65.1002C187.801 64.7002 188.301 65.3002 189.301 64.6002C190.601 61.9002 186.401 59.9002 185.801 62.7002Z" fill="#2EEAB2"/>
<path opacity="0.1" d="M136.001 29.7998C130.801 31.4998 129.801 35.1998 127.401 38.1998C125.001 33.4998 118.601 28.2998 116.001 33.2998C118.001 33.5998 120.501 32.4998 122.101 34.0998C120.001 36.9998 118.201 39.9998 115.901 42.8998C113.401 41.5998 111.501 38.2998 108.601 38.2998C109.401 40.4998 108.701 41.9998 108.901 43.9998C110.301 43.2998 109.601 41.6998 110.601 40.8998C116.501 41.6998 111.501 48.4998 111.201 52.1998C109.701 50.5998 108.201 48.9998 107.001 46.6998C103.201 47.6998 101.401 42.3998 99.201 38.8998C99.001 40.0998 96.801 40.3998 97.501 41.9998C98.201 41.9998 99.201 40.6998 99.501 41.5998C98.801 45.9998 98.001 50.1998 97.901 54.6998C94.801 55.9998 93.401 57.9998 89.701 58.9998C87.901 57.7998 86.201 56.8998 84.301 55.8998C84.001 56.7998 85.101 58.3998 85.601 59.6998C88.301 60.7998 91.701 59.9998 95.401 58.0998C96.301 60.8998 98.401 59.6998 99.401 62.1998C98.301 62.6998 96.601 63.0998 96.201 63.9998C96.601 65.5998 97.501 65.7998 98.201 66.5998C100.701 66.1998 100.301 64.4998 101.801 63.6998C103.601 63.4998 104.201 66.0998 104.501 67.8998C103.601 67.8998 102.801 67.3998 101.501 68.1998C102.201 70.1998 100.901 71.0998 101.401 72.9998C102.601 72.7998 103.601 72.7998 104.701 72.5998C104.501 67.3998 107.801 64.6998 113.501 65.1998C112.101 63.2998 109.901 63.7998 108.501 61.9998C107.301 58.6998 112.001 57.1998 114.101 58.6998C114.001 60.2998 112.801 63.0998 114.401 64.3998C115.901 60.8998 118.101 61.5998 121.901 59.3998C120.901 58.3998 120.301 56.5998 119.201 56.1998C118.401 57.5998 116.701 58.2998 114.901 58.3998C113.901 55.1998 111.401 56.0998 109.901 54.1998C111.101 52.4998 113.001 53.3998 114.501 53.7998C113.301 49.2998 114.501 45.7998 120.001 44.2998C121.401 46.0998 122.701 48.1998 124.201 49.7998C125.501 49.2998 126.601 48.7998 127.901 48.2998C129.001 50.7998 130.201 53.4998 131.301 55.9998C133.601 52.1998 126.601 43.8998 129.101 40.0998C131.301 40.2998 132.601 43.4998 135.001 43.4998C135.201 40.8998 132.501 38.8998 131.801 36.1998C133.901 34.1998 136.101 32.4998 136.001 29.7998ZM106.501 65.9998C105.401 61.6998 93.801 58.8998 100.501 53.4998C100.701 52.0998 100.201 50.3998 101.301 49.2998C105.901 47.2998 106.901 51.6998 108.801 56.2998C105.601 58.4998 109.101 63.6998 106.501 65.9998ZM125.501 47.5998C123.601 45.8998 117.501 41.2998 121.901 38.4998C123.501 37.4998 126.801 38.1998 127.801 40.8998C128.701 43.6998 125.601 44.5998 125.501 47.5998Z" fill="#2EEAB2"/>
<path opacity="0.1" d="M124.302 61.5998C126.102 60.5998 127.002 59.1998 125.602 56.6998C122.502 55.8998 121.202 60.4998 124.302 61.5998Z" fill="#2EEAB2"/>
<path opacity="0.1" d="M76.5 70.7C77.1 72.4 77.8 73.7 78.8 74C79.6 73.7 80.3 73.4 81 73.1C81 71.5 80.8 70.6 79.8 69.3C79 69 76.8 69.8 76.5 70.7Z" fill="#2EEAB2"/>
<path opacity="0.1" d="M143.1 4.19997C142.3 4.29997 141.9 3.29997 140.9 4.19997C140.6 5.49997 142 7.29997 143.4 5.99997C143.1 5.29997 143 4.69997 143.1 4.19997Z" fill="#2EEAB2"/>
<path opacity="0.1" d="M114.201 73.3999C113.301 73.4999 112.101 72.7999 111.801 73.9999C112.401 75.4999 113.301 75.8999 114.601 75.1999C114.101 74.3999 114.501 74.0999 114.201 73.3999Z" fill="#2EEAB2"/>
<path opacity="0.1" d="M137.801 35.7998C139.001 35.5998 138.901 34.7998 139.801 34.4998C139.301 31.8998 137.901 31.2998 136.001 32.6998C135.901 34.1998 136.701 35.0998 137.801 35.7998Z" fill="#2EEAB2"/>
<path opacity="0.1" d="M60.6016 16.5C61.5016 15.8 61.3016 14.7 60.5016 13.2C58.9016 12.1 56.7016 13.9 56.6016 15.3C56.7016 17.1 58.9016 17.4 58.3016 18C57.8016 18.2 57.3016 18.4 56.8016 18.6C56.2016 17.4 55.7016 16.2 55.2016 14.9C58.5016 12.6 60.1016 7.4 55.2016 4C52.7016 5.3 49.3016 4.9 47.7016 7C48.8016 8 49.7016 9.9 50.6016 11.6C52.0016 11.1 54.0016 9.1 54.9016 9.4C55.0016 10.2 56.4016 11.6 55.6016 12C52.8016 11.4 48.2016 13.6 47.1016 10.6C47.7016 11.9 46.8016 12.6 47.8016 14.1C49.3016 14.1 50.7016 14.3 52.0016 14.8C51.2016 16.7 49.9016 18.4 48.6016 20.1C51.1016 22.7 54.3016 23.5 57.0016 25.3C58.8016 23.8 60.8016 22.5 62.6016 21.1C62.1016 19.5 62.4016 18.2 61.9016 16.6C61.5016 16.6 61.0016 17 60.6016 16.5Z" fill="#2EEAB2"/>
<path opacity="0.1" d="M136.4 47.4C136.1 48.2 137 49.6 137.5 50.8C138.4 50.5 139.2 50 140.1 49.7C140 47.8 138.5 45.9 136.4 47.4Z" fill="#2EEAB2"/>
<path opacity="0.1" d="M34.9989 102.7C37.4989 101.9 34.5989 95.0999 31.9989 96.6999C29.7989 99.1999 33.0989 103.4 34.9989 102.7Z" fill="#2EEAB2"/>
<path opacity="0.1" d="M2.6 76.6C1.4 74.8 2.1 73.7 1 72C0.6 72.1 0.3 72.3 0 72.4V79.2C1.7 78.7 1.3 77.2 2.6 76.6Z" fill="#2EEAB2"/>
<path opacity="0.1" d="M67.5019 19.0001C70.7019 22.0001 74.2019 24.3001 78.3019 24.6001C82.5019 19.7001 89.8019 16.3001 87.3019 8.4001C82.5019 7.2001 78.8019 2.2001 73.8019 1.5001C74.1019 1.4001 74.3019 1.3001 74.5019 1.1001H72.1019C70.4019 7.1001 63.2019 10.4001 67.5019 19.0001ZM86.6019 13.6001C85.0019 14.0001 84.4019 11.4001 83.5019 9.6001C84.7019 10.4001 85.7019 11.8001 86.6019 13.6001Z" fill="#2EEAB2"/>
<path opacity="0.1" d="M4.80078 110.2C4.30078 108.9 3.40078 108.9 2.60078 108.2C3.70078 107.8 4.60078 107.4 3.90078 106.2C3.70078 105.8 3.50078 105.4 3.30078 105C1.80078 104.7 1.10078 105 0.300781 105.9V112.4C1.70078 111.6 2.80078 110.7 4.80078 110.2Z" fill="#2EEAB2"/>
<path opacity="0.1" d="M24.8008 113.9C24.3008 113.8 23.8008 113.8 23.3008 113.8C23.7008 114 24.3008 114 24.8008 113.9Z" fill="#2EEAB2"/>
<path opacity="0.1" d="M22.5984 135.5C22.4984 135.4 22.4984 135.2 22.3984 135.1C22.3984 135.3 22.3984 135.5 22.5984 135.5Z" fill="#2EEAB2"/>
<path opacity="0.1" d="M12.9984 137.6C15.1984 139.2 24.2984 139 26.7984 136.6C25.5984 134.6 25.3984 132.6 25.8984 130.7C24.2984 132.6 22.7984 134.4 22.4984 135.2C22.5984 135.3 22.5984 135.5 22.6984 135.6C22.4984 135.6 22.3984 135.4 22.4984 135.2C20.3984 130.6 17.8984 129.4 13.7984 132.5C10.3984 130.4 12.2984 127.1 14.2984 125.6C13.8984 125.6 12.4984 123.7 12.9984 123.7C14.4984 123.4 17.1984 124.6 17.9984 123.1C16.1984 122.3 14.6984 121.1 12.9984 119.8C15.2984 115.8 19.3984 113.9 23.2984 113.8C22.6984 113.6 22.1984 113.1 21.8984 112.3C22.4984 108.6 32.2984 111.2 31.1984 105.5C29.0984 106.5 27.6984 106 25.6984 106.8C22.5984 104.3 20.8984 97.8002 16.1984 100.1C16.1984 101.5 17.2984 102.1 17.9984 104.2C15.3984 106 12.7984 107.9 11.4984 110.3C14.1984 110.8 18.0984 107.8 20.3984 109.5C14.0984 110.2 5.99844 115.8 0.398438 114.3V138.4C5.09844 138.4 9.89844 139.2 12.9984 137.6ZM13.9984 134.5C14.1984 135.1 13.1984 135.3 12.6984 135.5C12.2984 134.8 12.7984 134.4 12.3984 133.7C13.0984 133.2 13.2984 134.7 13.9984 134.5Z" fill="#2EEAB2"/>
<path opacity="0.1" d="M3.3 84.825C3.1 85.925 1.5 86.5 0 87V88V89.5V91.5C1.8 91.7 2.9 94.425 1.6 95.525C1.1 95.825 0.7 95.825 0.3 95.625V97.225C0.8 96.925 1.2 96.625 1.7 96.325C2.5 98.725 2.2 100.625 1.8 102.525C3.4 102.025 5.5 101.125 5.3 103.525C6.9 102.925 8.5 102.225 10.1 101.525C8.3 97.725 4.6 94.425 3.9 90.525C9.7 89.525 17.3 83.025 20.3 90.025C19.3 92.225 17.4 95.325 14 94.525C14.4 95.325 14.7 96.125 15.1 96.925C17.2 96.125 19.1 95.925 21 95.425C24.2 93.225 20.2 85.725 17.9 85.625C18.5 85.425 21.1 86.025 20.1 84.625C19.4 82.225 17 85.025 15.9 83.925C15.6 83.225 15.3 82.525 15 81.925C16 81.225 17.3 80.625 18 79.725C22.7 83.225 31.2 79.425 33.7 74.625C35.3 73.825 37.6 75.425 38.3 74.225C37 73.225 35.2 73.325 34.3 71.125C35.2 68.525 37.9 66.725 40.2 64.825C40.5 65.525 40.8 66.225 41.1 66.825C42.8 66.325 43.8 65.425 45 64.725C45.5 66.025 46.4 66.125 46.8 67.825C44 69.325 42.7 71.525 40.5 73.325C42.6 77.225 47.1 73.025 48.8 71.325C49.7 72.725 50.6 74.325 51.7 74.925C52.6 72.425 51.3 66.125 55.8 67.425C56.1 68.425 56.1 69.325 56.1 70.125C57.2 69.925 58.8 68.425 59.6 69.225C59.4 70.325 59.1 71.425 59.4 72.625C60.6 73.225 61.6 74.325 63.1 74.025C62.3 72.325 61.6 70.525 60.7 68.725C62.5 68.325 63.8 65.925 65.3 66.325C66.4 68.825 65.1 71.825 66.7 73.425C67.7 71.625 67.9 69.425 66.8 66.625C69 64.825 68 61.525 68.7 59.025C73.7 58.625 75.9 54.425 78.2 51.725C77 50.925 76.6 47.925 75.3 47.125C75.9 46.925 76.6 46.625 77.1 46.325C75.1 43.225 74.6 40.925 73.2 37.325C72.2 37.725 71.2 38.125 70.2 38.525C70.7 40.225 72.6 42.625 72.1 43.925C70.9 42.925 70.1 41.225 68.4 41.625C68.7 42.925 70.4 44.925 69.9 45.825C68.5 45.325 66.8 45.525 65.5 44.725C66.3 43.025 67.9 41.525 69.6 40.125C69.4 31.325 61.7 20.425 53.6 27.025C55 28.825 56.7 29.925 58 31.925C58.3 33.225 57.3 35.725 56.5 35.425C56 34.325 55.6 33.325 55.1 32.125C53.1 32.725 52.6 34.025 50.4 34.525C49.6 32.925 49.1 30.825 47.9 30.825C47.8 32.725 47.1 34.325 47.3 36.325C50.3 36.525 53.7 35.725 56.5 36.325C55.4 36.825 55.3 37.925 54.5 38.625C55 40.625 56.1 41.225 56.8 42.925C58.4 42.325 60 41.625 61.6 40.925C61.5 42.125 62 43.525 61.9 44.625C60 45.725 58.8 47.125 56.9 48.125C54.2 47.025 51.6 45.725 49.2 43.625C50.5 41.725 52.1 40.025 52.8 37.825C51.2 37.425 49.4 38.025 48 36.925C46.3 37.825 47.5 39.925 45.8 40.725C45.5 39.325 44.6 39.825 44.3 38.425C42.8 39.125 43.1 40.725 41.1 41.125C40.8 40.425 40.5 39.825 40.2 39.125C38.5 40.225 38.4 40.125 37.1 39.025C37.4 37.625 37.5 36.125 37.4 34.625C34.3 35.225 36.7 38.425 35.9 40.025C30.1 43.825 19.7 42.725 18.2 48.725C21.2 48.425 23.8 48.925 26.9 48.525C28.3 50.425 29.9 51.725 31.1 54.025C28.4 55.725 25.6 57.225 23.3 59.125C22.5 57.425 22.8 56.325 21.7 54.525C20.2 55.325 20.8 57.125 20.3 58.425C25.4 60.525 28.2 68.825 32.9 71.925C29.8 76.525 23.1 80.825 17.5 77.825C16.1 75.925 14.4 72.225 15 70.225C16.6 68.925 20.3 70.625 19.8 69.825C18.1 69.525 17.4 65.925 16.9 64.225C18.2 63.025 19.7 62.125 20.1 60.525C17.3 61.325 15.5 62.525 15.3 64.425C14.8 62.725 13.6 63.125 12.4 63.725C11.2 65.125 13.9 66.925 13.7 67.525C12.2 67.725 11 66.925 10 65.225C8 66.325 4.9 67.025 4.6 68.925C5.9 68.325 7.3 67.825 8.7 67.225C10 68.725 11.7 69.225 12.7 71.325C11.7 72.725 9.1 73.525 8.2 75.125C8.9 75.325 9.6 75.325 10.2 75.825C8.8 76.225 9.6 77.425 9.1 78.225C5.5 79.725 2.6 79.425 0 78.225V82.825C1.3 83.525 2.3 84.225 3.3 84.825ZM61.2 39.225C60.6 36.625 61.6 34.825 62.4 33.025C61.2 31.225 59.2 31.825 58.4 28.925C62 27.125 63 33.025 64.8 36.325C63.2 37.125 62.7 38.425 61.2 39.225ZM66.7 54.425C69.9 53.625 69.5 49.025 71.9 48.425C75.4 47.425 75.2 51.825 73.8 54.825C72.5 54.825 72 52.625 71.3 51.125C68.6 53.625 69.2 57.725 64.9 59.525C64.7 60.825 65.6 62.725 65 63.825C62.6 64.725 60.3 68.725 57.9 66.725C59.7 64.025 61.3 61.225 60.2 57.125C58.8 56.625 56.5 58.425 54.9 58.825C55.1 53.525 63.1 50.725 66.7 54.425ZM46.1 47.525C49.6 47.225 52.7 48.425 54.3 54.125C53.5 54.625 53.2 53.725 52.3 54.525C52.9 55.625 53.7 55.925 54.3 57.125C52.1 58.225 52.6 60.425 53.2 63.325C54 64.225 54.8 64.725 56.1 64.025C56.1 64.825 55 65.225 55.3 66.225C52.8 65.925 50.6 65.025 48.5 63.825C46.1 57.725 45.1 52.225 46.1 47.525ZM14.8 83.925C15 84.925 12.7 85.225 12.2 85.025C12.6 83.825 13.7 83.325 14.8 83.925ZM12.3 77.325C12.8 78.625 12.3 79.425 12.4 80.625C11.5 80.725 11.3 78.725 10.7 77.925C11.3 77.725 11.8 77.525 12.3 77.325Z" fill="#2EEAB2"/>
<path opacity="0.1" d="M293.601 4.6002C292.001 5.5002 290.701 5.3002 289.301 4.9002C291.801 9.0002 293.101 13.2002 292.901 16.9002C290.801 16.0002 288.601 13.4002 286.301 15.8002C288.001 18.2002 290.501 18.6002 292.901 18.8002C295.901 16.3002 301.701 17.1002 306.401 13.7002C307.301 11.2002 308.701 8.9002 308.701 6.0002C307.501 5.2002 306.201 4.2002 305.001 3.2002H293.901C294.101 3.8002 294.201 4.4002 293.601 4.6002Z" fill="#2EEAB2"/>
<path opacity="0.1" d="M283.602 8.7998C287.802 9.7998 288.302 4.5998 285.702 3.2998H282.902C282.802 3.2998 282.702 3.3998 282.602 3.3998C282.902 5.1998 283.302 6.9998 283.602 8.7998Z" fill="#2EEAB2"/>
<path opacity="0.1" d="M0.800781 55.8003C3.00078 57.6003 5.40078 58.7003 8.00078 59.1003C8.30078 57.0003 8.40078 54.7003 8.10078 52.3003C6.80078 52.1003 5.40078 51.9003 4.30078 51.4003C4.90078 48.5003 4.60078 43.0003 0.300781 44.0003V45.3003C1.30078 49.2003 4.50078 54.0003 0.800781 55.8003Z" fill="#2EEAB2"/>
<path opacity="0.1" d="M43.3 24.9002C41.2 21.3002 38.6 19.8002 35.5 19.2002C35.6 20.0002 37 21.4002 36.2 21.8002C35.1 22.2002 34 22.7002 32.8 23.2002C32.3 21.2002 30.7 21.8002 30.1 20.0002C28.1 20.6002 27.5 21.8002 26.5 22.9002C27 24.8002 28.1 25.2002 28.7 26.8002C31.7 26.5002 34 28.3002 36.4 29.4002C36.6 28.5002 35.8 27.2002 36.5 26.5002C37.3 27.0002 37.6 28.8002 38.5 29.1002C39.8 27.6002 41.3 26.1002 43.3 24.9002Z" fill="#2EEAB2"/>
<path opacity="0.1" d="M19.4015 14.4002C19.1015 15.8002 19.6015 16.6002 20.8015 17.7002C24.6015 17.3002 22.2015 12.1002 19.4015 14.4002Z" fill="#2EEAB2"/>
<path opacity="0.1" d="M40.401 17.3C40.101 20.8 44.601 21.7 45.601 19C44.801 15.5 42.301 17.1 40.401 17.3Z" fill="#2EEAB2"/>
<path opacity="0.1" d="M21.6016 41.3C21.9016 42 22.2016 42.7 22.5016 43.3C23.4016 43.2 24.0016 43.9 25.1016 43.2C26.5016 40.6 22.4016 38.4 21.6016 41.3Z" fill="#2EEAB2"/>
<path opacity="0.1" d="M40.3008 30.8002C41.1008 33.3002 43.1008 33.6002 44.4008 32.0002C43.9008 31.0002 43.6008 30.1002 43.1008 29.2002C41.5008 29.5002 40.9008 29.6002 40.3008 30.8002Z" fill="#2EEAB2"/>
<path opacity="0.1" d="M32.8984 7.39998C33.7984 7.09998 34.6984 6.69998 35.4984 6.29998C34.9984 2.89998 31.8984 2.89998 31.3984 5.09998C31.6984 6.49998 32.6984 5.99998 32.8984 7.39998Z" fill="#2EEAB2"/>
<path opacity="0.1" d="M45.9015 5.89994C48.1015 0.199943 39.7015 4.89994 45.9015 5.89994V5.89994Z" fill="#2EEAB2"/>
<path d="M0.300781 150.1V152.3C0.500781 152 0.700781 151.8 0.900781 151.5C0.700781 150.9 0.500781 150.5 0.300781 150.1Z" fill="black"/>
<path opacity="0.1" d="M4.09922 173.7C3.39922 171.7 2.29922 171 0.599219 171.8C0.399219 172.1 0.299219 172.4 0.199219 172.6V173.4C0.299219 174 0.699219 174.5 1.29922 175.3C2.99922 175 3.49922 174.9 4.09922 173.7Z" fill="#2EEAB2"/>
<path opacity="0.1" d="M906.654 97.1C908.054 96 908.354 93.3 906.054 93C905.254 93.5 904.554 94 904.254 95.6C904.954 96.5 905.454 97.1 906.654 97.1Z" fill="#2EEAB2"/>
<path opacity="0.1" d="M887.155 52.1C887.855 51.8 888.255 50.4 888.655 49.3C887.355 48.5 887.255 48.3 885.855 48.7C885.555 49.4 885.355 50.1 885.055 50.8C885.955 51.1 885.955 51.9 887.155 52.1Z" fill="#2EEAB2"/>
<path opacity="0.1" d="M925.852 104C924.652 104.6 925.052 106.1 925.152 107.1C927.352 108 927.952 104.6 925.852 104Z" fill="#2EEAB2"/>
<path opacity="0.1" d="M849.754 28.5C849.554 28.8 849.454 29.3 849.154 29.2C848.454 30.8 849.054 31.7 850.554 32.2C851.154 31.8 851.554 30.8 852.054 30.4C851.654 29.6 851.154 28.7 849.754 28.5Z" fill="#2EEAB2"/>
<path opacity="0.1" d="M878.152 43C877.352 43.5 876.652 44 876.352 45.6C877.052 46.5 877.452 47.2 878.852 47.1C880.352 46 880.252 43.4 878.152 43Z" fill="#2EEAB2"/>
<path opacity="0.1" d="M883.653 157.4C885.353 155.9 886.753 152.3 884.953 150.7C882.753 150.7 880.753 156.8 883.653 157.4Z" fill="#2EEAB2"/>
<path opacity="0.1" d="M862.954 14.1998C863.954 13.0998 863.354 12.9998 864.054 11.2998C863.254 10.7998 862.854 10.0998 861.554 9.7998C860.054 11.3998 860.254 13.7998 862.954 14.1998Z" fill="#2EEAB2"/>
<path opacity="0.1" d="M920.653 78.3C920.653 77.7 920.353 77.3 920.853 76.5C919.853 76.1 918.753 75.5 918.053 75.9C917.653 78 916.653 78.2 915.953 79.3C916.753 79.8 916.153 81 917.353 81.3C918.053 79.3 919.653 79.8 920.653 78.3Z" fill="#2EEAB2"/>
<path opacity="0.1" d="M919.055 96.9C919.855 97.5 920.555 98.2 921.855 98.5C922.255 96.6 923.255 95.8 923.755 94.5C923.055 94 922.655 93.3 921.355 93C920.355 93.7 919.555 95 919.055 96.9Z" fill="#2EEAB2"/>
<path opacity="0.1" d="M912.754 109.2C913.154 109.8 913.954 110.2 914.254 110.8C915.854 110.5 917.254 109.3 918.054 106.6C915.954 106.6 913.854 106.6 912.754 109.2Z" fill="#2EEAB2"/>
<path opacity="0.1" d="M844.254 66.9998C844.654 67.5998 844.554 68.3998 844.754 69.0998C847.554 71.5998 850.154 67.6998 849.254 65.1998C846.854 63.9998 845.154 64.6998 844.254 66.9998Z" fill="#2EEAB2"/>
<path opacity="0.1" d="M930.554 0.200195H920.454C920.454 0.200195 920.454 0.200195 920.454 0.300195C920.254 0.700195 920.154 1.1002 919.954 1.6002C918.854 1.1002 917.854 0.700195 916.754 0.300195H916.154C915.354 3.0002 917.054 4.5002 918.154 6.2002C919.354 5.3002 920.054 2.9002 921.354 2.2002C922.054 3.2002 923.054 4.0002 923.154 5.4002C919.154 6.2002 917.954 10.8002 918.854 14.7002C917.254 13.8002 916.554 15.1002 915.054 14.6002C914.554 15.8002 915.454 16.2002 914.854 17.4002C914.054 17.1002 914.854 16.1002 913.754 15.9002C911.254 17.7002 908.754 19.8002 906.354 22.0002C906.054 20.7002 905.454 19.5002 904.154 18.7002C903.754 20.6002 900.254 22.4002 901.754 24.0002C902.154 25.2002 903.454 21.8002 904.354 21.7002C907.754 23.1002 905.554 27.4002 905.754 30.4002C909.454 33.9002 908.054 39.8002 912.054 43.1002C912.854 40.4002 912.154 38.3002 913.254 35.4002C916.954 34.6002 920.954 37.3002 922.554 40.2002C921.754 42.0002 921.154 44.0002 920.154 45.0002C920.854 47.4002 921.854 49.6002 922.154 52.1002C924.154 52.3002 925.554 51.1002 927.554 51.4002C928.154 52.5002 928.554 53.6002 929.854 54.3002C931.154 54.6002 931.754 53.2002 933.054 53.7002C932.654 55.0002 933.454 55.7002 933.554 56.8002C934.254 55.7002 934.454 53.1002 935.454 52.8002C935.854 53.6002 936.454 54.4002 937.054 55.1002V20.0002C936.054 19.3002 934.854 18.7002 933.354 18.3002C933.854 14.9002 932.054 14.0002 930.354 14.7002C931.754 12.4002 934.654 13.9002 936.154 11.8002C934.354 11.1002 928.654 9.3002 931.954 8.1002C930.754 10.5002 935.054 10.2002 936.354 11.4002C936.554 10.9002 936.754 10.5002 937.054 10.2002V2.5002C935.754 2.2002 935.354 4.2002 934.054 4.1002C933.754 3.5002 933.254 3.2002 932.354 2.9002C932.454 2.0002 932.354 1.1002 932.354 0.200195H931.354C932.154 2.0002 929.754 5.1002 928.154 5.0002M915.654 24.4002C914.354 24.9002 913.254 25.8002 912.154 26.8002C914.054 27.6002 916.154 28.4002 918.054 29.2002C915.154 31.3002 909.754 30.3002 910.254 26.0002C910.654 22.7002 913.454 22.6002 914.554 19.1002C916.054 21.7002 919.154 23.4002 920.554 25.9002C919.454 26.5002 917.254 24.7002 915.654 24.4002ZM929.654 47.5002C927.954 47.0002 926.254 46.8002 924.254 45.8002C924.854 43.8002 925.854 43.5002 926.354 41.4002C928.454 41.4002 931.354 43.4002 933.354 43.3002C932.254 44.7002 931.254 46.8002 929.654 47.5002Z" fill="#2EEAB2"/>
<path opacity="0.1" d="M884.254 144.7C884.654 145.5 885.154 146.3 886.554 146.6C888.154 145.8 889.554 143.2 888.354 141.6C886.454 141.2 884.954 142 884.254 144.7Z" fill="#2EEAB2"/>
<path opacity="0.1" d="M896.254 142.4C895.054 143.1 894.854 145.4 896.254 145.8C896.754 145.4 897.254 144.4 897.754 144C897.154 143.5 897.254 142.6 896.254 142.4Z" fill="#2EEAB2"/>
<path opacity="0.1" d="M897.756 120.3C895.156 122 893.056 125.1 891.156 128.6C898.756 134.8 905.856 128.8 902.956 121.4C901.256 121.4 899.356 120.4 897.756 120.3Z" fill="#2EEAB2"/>
<path opacity="0.1" d="M909.156 101.5C906.256 102.2 903.656 103.7 901.656 106.6C905.156 118 917.656 108 909.156 101.5Z" fill="#2EEAB2"/>
<path opacity="0.1" d="M811.056 84.2001C810.356 85.6001 810.356 86.6001 810.156 87.7001C810.456 87.9001 810.956 88.0001 810.756 88.4001C813.556 90.6001 815.756 86.2001 814.456 84.1001C812.956 83.2001 812.156 84.0001 811.056 84.2001Z" fill="#2EEAB2"/>
<path opacity="0.1" d="M934.772 67.1045C932.544 67.5227 930.123 67.1045 927.798 67C924.214 72.2273 923.923 77.6636 927.798 80.0682C931.866 82.5772 935.741 79.65 937 75.6772V70.5545C936.516 69.3 935.838 68.15 934.772 67.1045Z" fill="#2EEAB2"/>
<path opacity="0.1" d="M829.255 0.5H825.755C825.555 1.9 825.355 3.3 825.055 4.7C826.355 3.2 827.855 2.1 829.255 0.5Z" fill="#2EEAB2"/>
<path opacity="0.1" d="M932 109.222C933.875 109.4 935.542 110.556 937 111V107.356C936.792 107.178 936.479 107.089 936.167 107C934.604 107.356 933.354 108.333 932 109.222Z" fill="#2EEAB2"/>
<path opacity="0.1" d="M851.351 6.5001C850.851 4.7001 850.951 2.5001 850.551 0.600098H848.451C847.751 3.3001 849.851 7.2001 851.351 6.5001Z" fill="#2EEAB2"/>
<path opacity="0.1" d="M885.653 8.59986C886.053 7.69986 886.353 6.69986 886.753 5.69986C884.953 3.89986 883.053 4.89986 882.953 7.59986C884.353 8.19986 884.253 8.69986 885.653 8.59986Z" fill="#2EEAB2"/>
<path opacity="0.1" d="M907.455 12.2001C908.055 11.9001 908.655 10.5001 908.355 9.80014C907.355 9.40014 906.455 9.10014 906.055 10.2001C906.055 11.2001 906.655 11.8001 907.455 12.2001Z" fill="#2EEAB2"/>
<path opacity="0.1" d="M830.353 44.6001C829.653 46.0001 830.053 47.0001 831.453 47.4001C832.453 47.0001 832.153 46.0001 832.353 45.0001C831.453 44.2001 831.153 45.1001 830.353 44.6001Z" fill="#2EEAB2"/>
<path opacity="0.1" d="M863.251 3.7C862.051 3.1 861.351 2.2 859.651 1.7C859.751 3.7 859.151 6 860.051 7.6C861.951 7.2 863.751 2.6 865.751 5.1C866.051 3.7 865.951 2.5 865.851 1.3C867.351 0.9 869.451 2 870.751 0.9C870.651 0.8 870.551 0.6 870.451 0.5H863.451C863.651 1.8 863.751 3.3 863.251 3.7Z" fill="#2EEAB2"/>
<path opacity="0.1" d="M894.554 4.8C893.354 1.6 888.254 1.4 888.254 5.5C890.054 7.5 893.954 4.9 895.554 6.6C892.854 13.7 887.254 12.9 881.954 13C884.754 14.1 887.454 15.2 889.054 16.9C887.454 20.5 884.054 19.7 881.754 21.6C889.154 21.5 898.454 15.1 898.954 4.6C901.054 3.7 902.454 2 903.454 0H901.954C899.754 1.9 895.954 0.8 894.554 4.8Z" fill="#2EEAB2"/>
<path opacity="0.1" d="M817.155 20.4001C816.355 22.2001 816.555 23.4001 817.955 24.1001C819.255 24.6001 820.455 22.0001 820.055 20.7001C818.855 19.8001 817.955 20.1001 817.155 20.4001Z" fill="#2EEAB2"/>
<path opacity="0.1" d="M826.152 18.3C828.252 18 830.152 17.2 831.152 14.1C828.052 11.9 824.752 15.9 826.152 18.3Z" fill="#2EEAB2"/>
<path opacity="0.1" d="M819.155 16.4002C818.055 18.3002 818.455 19.4002 820.455 19.8002C822.555 18.7002 821.355 15.4002 819.155 16.4002Z" fill="#2EEAB2"/>
<path opacity="0.1" d="M803.356 109C800.956 111.9 796.056 116.5 796.256 120.9C797.956 115.8 802.856 114.4 803.356 109Z" fill="#2EEAB2"/>
<path opacity="0.1" d="M911.353 4.0998C911.053 3.2998 910.953 2.3998 910.653 1.4998C910.553 1.0998 910.253 0.799805 909.853 0.799805C909.353 0.799805 908.953 1.2998 908.953 1.7998C909.053 2.6998 909.253 3.4998 909.353 4.3998C909.453 4.7998 909.653 5.0998 910.053 5.0998C910.153 5.0998 910.253 5.0998 910.353 5.1998C910.953 5.2998 911.553 4.6998 911.353 4.0998Z" fill="#2EEAB2"/>
<path opacity="0.1" d="M789.354 30.6001C788.354 28.9001 788.054 27.0001 787.054 25.3001C788.654 25.3001 791.954 25.5001 791.854 23.9001C789.254 23.6001 786.654 23.4001 784.054 23.1001C783.154 25.2001 784.654 26.2001 783.254 28.5001C782.354 28.0001 781.454 27.7001 780.954 28.0001C780.554 29.0001 780.154 29.9001 780.354 30.7001C782.554 31.3001 783.754 33.5001 785.954 35.0001C787.954 35.6001 789.454 32.9001 791.054 35.2001C792.354 33.3001 794.154 29.1001 794.254 26.8001C793.154 26.3001 791.354 31.0001 789.354 30.6001Z" fill="#2EEAB2"/>
</svg>
