<svg width="142" height="143" viewBox="0 0 142 143" fill="none" xmlns="http://www.w3.org/2000/svg">
<path opacity="0.1" d="M55.5116 7.0564C59.5854 2.98252 65.0021 0.738281 70.7639 0.738281C76.5256 0.738281 81.9396 2.98252 86.0135 7.0564L103.51 24.553C104.23 25.2725 104.687 26.2114 104.813 27.2198L105.024 28.9291L110.425 34.3297C110.722 34.2709 111.016 34.2415 111.313 34.2415C112.503 34.2415 113.669 34.7096 114.539 35.5789L135.082 56.1222C139.156 60.196 141.4 65.6127 141.4 71.3745C141.4 77.1362 139.156 82.5529 135.082 86.6268L130.444 91.2651C129.569 92.1397 128.4 92.6025 127.215 92.6025C126.921 92.6025 126.624 92.5731 126.33 92.5142L125.928 92.9155V93.8891C125.928 95.0982 125.447 96.2591 124.591 97.1151L117.184 104.522C116.32 105.389 115.154 105.859 113.958 105.859C113.661 105.859 113.364 105.83 113.07 105.771L111.08 107.761L111.125 108.16C111.278 109.537 110.796 110.912 109.817 111.891L86.0135 135.695C81.9396 139.769 76.5229 142.013 70.7612 142.013C64.9995 142.013 59.5828 139.769 55.5089 135.695L44.812 124.998C43.956 124.142 43.4745 122.981 43.4745 121.772V120.799L24.8518 102.176H23.8782C22.6691 102.176 21.5082 101.695 20.6522 100.839L6.44312 86.6295C2.36924 82.5556 0.125 77.1389 0.125 71.3771C0.125 65.6154 2.36924 60.1987 6.44312 56.1248L6.57954 55.9884C7.45424 55.1137 8.62051 54.651 9.80817 54.651C10.1024 54.651 10.3993 54.6804 10.6935 54.7392L17.6777 47.7551C17.3862 46.2839 17.8329 44.7351 18.9269 43.6411L32.3977 30.1703C33.259 29.3063 34.4226 28.8328 35.6236 28.8328C35.8671 28.8328 36.1105 28.8515 36.3539 28.8916L36.5144 28.9184L48.3883 17.0445C48.1021 15.6027 48.5194 14.0486 49.6375 12.9305L55.5116 7.0564Z" fill="#EE9308"/>
<g filter="url(#filter0_d_0_1)">
<path d="M50.0043 44.4182L57.2098 37.2126C57.0946 36.2166 57.4199 35.1777 58.1849 34.4127L61.9266 30.671C64.6154 27.9822 68.1928 26.5 71.9956 26.5C75.7984 26.5 79.3742 27.9823 82.0629 30.671L93.2078 41.8159C93.7451 42.3532 94.0864 43.0541 94.1802 43.8064L94.1803 43.8069L94.2938 44.725L97.4326 47.8638C97.5627 47.8486 97.6931 47.8409 97.8244 47.8409C98.7133 47.8409 99.584 48.1904 100.233 48.8392L113.319 61.9249C116.007 64.6136 117.489 68.1911 117.489 71.9939C117.489 75.7966 116.007 79.3741 113.319 82.0629L110.364 85.0174C109.711 85.6704 108.838 86.0157 107.954 86.0157C107.848 86.0157 107.741 86.0106 107.634 86.0004V86.3353C107.634 87.2383 107.275 88.1049 106.636 88.7437L101.919 93.4612L50.0043 44.4182ZM50.0043 44.4182C49.8728 44.4029 49.742 44.3957 49.6119 44.3957C48.7159 44.3957 47.8471 44.7488 47.2035 45.394L50.0043 44.4182ZM61.3039 36.8228L64.692 33.4346L64.6923 33.4344C66.7074 31.4159 69.3506 30.4068 71.9956 30.4068C74.6405 30.4068 77.284 31.4159 79.3027 33.4331L90.326 44.4563L90.5622 46.3678L90.5833 46.5384L90.7048 46.66L96.1231 52.0783L96.3458 52.301L96.6428 52.1963L97.6953 51.8256L110.558 64.6886C114.594 68.724 114.594 75.2655 110.558 79.3009L107.851 82.0081L106.923 81.5763L106.606 81.4288L106.358 81.6761L103.877 84.1569L103.731 84.3034V84.5105V86.1282L99.3551 90.504L98.1408 90.2252L97.871 90.1633L97.6753 90.359L94.283 93.7514L94.1131 93.9213L94.1396 94.1601L94.2954 95.5638L79.3026 110.557C77.2857 112.573 74.6406 113.583 71.9956 113.583C69.3507 113.583 66.7072 112.574 64.6884 110.556L58.0213 103.889V102.272V102.064L57.8748 101.918L44.3104 88.3535L44.1639 88.2071H43.9568H42.3391L33.4346 79.3026C29.4501 75.3181 29.3999 68.8903 33.2839 64.8441L34.2567 65.2628L34.5735 65.3992L34.8135 65.1515C34.8478 65.1161 34.8795 65.0793 34.9004 65.0551L34.9078 65.0465C34.932 65.0185 34.9441 65.0053 34.9539 64.9957L34.954 64.9958L34.9596 64.9902L41.9693 57.9805L42.217 57.7327L42.0687 57.4153L41.636 56.4889L49.7881 48.3369L51.1066 48.5499L51.359 48.5907L51.5399 48.4099L61.8619 38.0879L62.2154 37.7343L61.8619 37.3808L61.3039 36.8228ZM47.203 45.3946L38.6229 53.9747C37.873 54.7246 37.5307 55.7605 37.6478 56.7746L33.5582 60.8642C33.4282 60.849 33.2979 60.8413 33.168 60.8413C32.2817 60.8413 31.4108 61.1868 30.7579 61.8397L30.671 61.9266C27.9822 64.6153 26.5 68.1928 26.5 71.9956C26.5 75.7983 27.9822 79.3758 30.671 82.0646L39.7219 91.1155C40.3607 91.7543 41.2273 92.1139 42.1303 92.1139H42.5434L54.1128 103.683V104.096C54.1128 104.999 54.4724 105.866 55.1112 106.505L61.9249 113.319C64.6136 116.007 68.1911 117.489 71.9939 117.489C75.7967 117.489 79.3741 116.007 82.0629 113.319L97.2255 98.1558C97.9568 97.4246 98.3159 96.3984 98.2021 95.3704L98.2019 95.3687L98.2003 95.3545L99.1176 94.4372C99.2479 94.4524 99.3787 94.4601 99.5096 94.4601C100.402 94.4601 101.272 94.109 101.918 93.4617L47.203 45.3946Z" fill="#A85214" stroke="#A85214"/>
<path d="M79.354 34.6037L109.385 64.6343C113.45 68.6997 113.45 75.2886 109.385 79.354L79.354 109.385C75.2886 113.45 68.6997 113.45 64.6343 109.385L34.6037 79.354C30.5383 75.2886 30.5383 68.6997 34.6037 64.6343L64.6343 34.6037C68.6997 30.5383 75.2903 30.5383 79.354 34.6037Z" fill="#DB630D"/>
<path d="M33.0782 79.6541L42.1291 88.705H48.2886L53.044 94.4385L57.5184 97.0948V104.094L64.3321 110.908C68.5628 115.139 75.4209 115.139 79.6516 110.908L94.8142 95.7454L94.1565 89.8244L99.5084 91.0529L104.226 86.3349V80.8741L107.953 82.6069L110.907 79.6524C115.138 75.4217 115.138 68.5637 110.907 64.333L97.8215 51.2473L91.9194 53.3243L90.7965 44.2223L79.6516 33.0773C75.4209 28.8466 68.5628 28.8466 64.3321 33.0773L60.5922 36.819L61.9944 38.2213L58.2187 44.0945L56.9595 48.9897L49.6108 47.8004L41.0301 56.381L44.3731 63.5322L39.6176 64.3704V67.0268L33.1634 64.2444L33.0765 64.3313C28.8492 68.5654 28.8492 75.4234 33.0782 79.6541Z" fill="url(#paint0_radial_0_1)"/>
<g filter="url(#filter1_d_0_1)">
<path d="M70.456 80.584L68.764 58.912H74.596L72.472 80.584H70.456ZM68.656 88V82.528H74.2V88H68.656Z" fill="#EF7800"/>
</g>
</g>
<defs>
<filter id="filter0_d_0_1" x="26" y="24" width="91.9883" height="93.9893" filterUnits="userSpaceOnUse" color-interpolation-filters="sRGB">
<feFlood flood-opacity="0" result="BackgroundImageFix"/>
<feColorMatrix in="SourceAlpha" type="matrix" values="0 0 0 0 0 0 0 0 0 0 0 0 0 0 0 0 0 0 127 0" result="hardAlpha"/>
<feOffset dy="-2"/>
<feComposite in2="hardAlpha" operator="out"/>
<feColorMatrix type="matrix" values="0 0 0 0 1 0 0 0 0 0.780392 0 0 0 0 0.00392157 0 0 0 1 0"/>
<feBlend mode="normal" in2="BackgroundImageFix" result="effect1_dropShadow_0_1"/>
<feBlend mode="normal" in="SourceGraphic" in2="effect1_dropShadow_0_1" result="shape"/>
</filter>
<filter id="filter1_d_0_1" x="68.6562" y="58.9121" width="5.94141" height="30.5879" filterUnits="userSpaceOnUse" color-interpolation-filters="sRGB">
<feFlood flood-opacity="0" result="BackgroundImageFix"/>
<feColorMatrix in="SourceAlpha" type="matrix" values="0 0 0 0 0 0 0 0 0 0 0 0 0 0 0 0 0 0 127 0" result="hardAlpha"/>
<feOffset dy="1.5"/>
<feComposite in2="hardAlpha" operator="out"/>
<feColorMatrix type="matrix" values="0 0 0 0 1 0 0 0 0 0.776471 0 0 0 0 0.517647 0 0 0 1 0"/>
<feBlend mode="normal" in2="BackgroundImageFix" result="effect1_dropShadow_0_1"/>
<feBlend mode="normal" in="SourceGraphic" in2="effect1_dropShadow_0_1" result="shape"/>
</filter>
<radialGradient id="paint0_radial_0_1" cx="0" cy="0" r="1" gradientUnits="userSpaceOnUse" gradientTransform="translate(71.9933 71.991) scale(42.087 42.0879)">
<stop stop-color="#FFC701"/>
<stop offset="1" stop-color="#EA830B"/>
</radialGradient>
</defs>
</svg>
