<svg width="940" height="176" viewBox="0 0 940 176" fill="none" xmlns="http://www.w3.org/2000/svg">
<path opacity="0.1" d="M0.798828 44.1C0.798828 44.5 0.898828 44.9 0.998828 45.3V44C0.898828 44 0.798828 44 0.798828 44.1Z" fill="#FFC701"/>
<path opacity="0.1" d="M0.998828 173.4V172.6C0.898828 172.9 0.898828 173.1 0.998828 173.4Z" fill="#FFC701"/>
<path opacity="0.1" d="M542 72.7002V77.6002C542.5 76.1002 542.6 74.3002 542 72.7002Z" fill="#FFC701"/>
<path opacity="0.1" d="M939.654 111.3C938.854 110.1 939.154 108.3 937.854 107.3V111.4C938.454 111.7 939.054 111.7 939.654 111.3Z" fill="#FFC701"/>
<path opacity="0.1" d="M521.2 1C521.2 1.1 521.2 1.1 521.1 1.2H521.7C521.5 1.1 521.3 1 521.2 1Z" fill="#FFC701"/>
<path opacity="0.1" d="M55.9994 66.5002C55.6994 65.5002 56.7994 65.1002 56.7994 64.3002C55.4994 65.0002 54.5994 64.5002 53.8994 63.6002C53.2994 60.6002 52.7994 58.4002 54.9994 57.4002C54.3994 56.3002 53.5994 56.0002 52.9994 54.8002C53.8994 54.0002 54.1994 55.0002 54.9994 54.4002C53.3994 48.7002 50.2994 47.5002 46.7994 47.8002C45.8994 52.4002 46.7994 58.0002 49.1994 64.1002C51.2994 65.3002 53.4994 66.2002 55.9994 66.5002Z" fill="#FFC701"/>
<path opacity="0.1" d="M15.4984 84.0999C14.3984 83.4999 13.2984 83.9999 12.8984 85.1999C13.3984 85.4999 15.6984 85.0999 15.4984 84.0999Z" fill="#FFC701"/>
<path opacity="0.1" d="M13.1 80.8C13 79.6 13.4 78.8 13 77.5C12.5 77.7 12 77.9 11.5 78.1C12.1 78.8 12.2 80.9 13.1 80.8Z" fill="#FFC701"/>
<path opacity="0.1" d="M87.2992 13.6001C86.3992 11.8001 85.3992 10.4001 84.1992 9.6001C85.0992 11.5001 85.6992 14.0001 87.2992 13.6001Z" fill="#FFC701"/>
<path opacity="0.1" d="M2.3 95.7998C3.6 94.6998 2.8 91.9998 1 91.7998V95.8998C1.4 95.9998 1.8 95.9998 2.3 95.7998Z" fill="#FFC701"/>
<path opacity="0.1" d="M4 85C3 84.4 2 83.8 1 83V87.2C2.5 86.7 3.9 86.1 4 85Z" fill="#FFC701"/>
<path opacity="0.1" d="M65.4996 36.5C63.6996 33.2 62.6996 27.3 59.0996 29.1C59.8996 32 61.8996 31.4 63.0996 33.2C62.2996 35.1 61.2996 36.8 61.8996 39.4C63.3996 38.6 63.8996 37.3 65.4996 36.5Z" fill="#FFC701"/>
<path opacity="0.1" d="M60.9988 57.2003C62.0988 61.3003 60.4988 64.1003 58.6988 66.8003C60.9988 68.8003 63.3988 64.8003 65.7988 63.9003C66.3988 62.8003 65.3988 61.0003 65.6988 59.6003C69.9988 57.8003 69.3988 53.7003 72.0988 51.2003C72.7988 52.7003 73.2988 54.9003 74.5988 54.9003C75.9988 51.9003 76.1988 47.5003 72.6988 48.5003C70.2988 49.2003 70.6988 53.8003 67.4988 54.5003C63.8988 50.8003 55.8988 53.6003 55.7988 58.8003C57.2988 58.5003 59.5988 56.7003 60.9988 57.2003Z" fill="#FFC701"/>
<path opacity="0.1" d="M13.2984 135.6C13.8984 135.3 14.7984 135.1 14.5984 134.6C13.8984 134.8 13.6984 133.3 12.8984 133.8C13.3984 134.5 12.9984 134.9 13.2984 135.6Z" fill="#FFC701"/>
<path opacity="0.1" d="M155.3 15.3002C156 14.0002 154.6 12.1002 153.1 12.3002C153.8 13.5002 154.1 15.7002 155.3 15.3002Z" fill="#FFC701"/>
<path opacity="0.1" d="M101.999 49.4001C100.899 50.4001 101.399 52.1001 101.199 53.6001C94.4986 59.0001 106.099 61.7001 107.199 66.1001C109.899 63.8001 106.299 58.6001 109.599 56.4001C107.599 51.9001 106.599 47.4001 101.999 49.4001Z" fill="#FFC701"/>
<path opacity="0.1" d="M122.5 38.5002C118.1 41.3002 124.3 45.9002 126.1 47.6002C126.2 44.6002 129.4 43.6002 128.4 40.9002C127.5 38.2002 124.1 37.5002 122.5 38.5002Z" fill="#FFC701"/>
<path opacity="0.1" d="M30.2996 124.5C28.3996 126.6 27.0996 128.6 26.5996 130.6C28.6996 128 30.9996 125.2 30.2996 124.5Z" fill="#FFC701"/>
<path opacity="0.1" d="M59.0996 82.5001C59.5996 84.0001 60.5996 84.4001 61.5996 84.3001C61.5996 83.5001 62.0996 82.8001 61.2996 81.6001C60.2996 82.3001 59.4996 81.3001 59.0996 82.5001Z" fill="#FFC701"/>
<path opacity="0.1" d="M39.8984 130.9C40.9984 131.7 42.8984 130.8 43.7984 129.8C44.2984 124.5 36.6984 126.5 39.8984 130.9Z" fill="#FFC701"/>
<path opacity="0.1" d="M189.799 5.99996C189.599 5.19996 190.199 4.69996 189.599 3.69996C188.999 3.39996 188.099 3.79996 187.199 4.19996C187.699 5.69996 188.499 6.39996 189.799 5.99996Z" fill="#FFC701"/>
<path opacity="0.1" d="M42.1992 124.1C42.4992 124.8 42.7992 125.5 43.0992 126.1C43.7992 126.5 44.8992 125.9 45.8992 125.4C46.4992 122.5 42.4992 121.4 42.1992 124.1Z" fill="#FFC701"/>
<path opacity="0.1" d="M189.498 12.3002C189.398 12.0002 189.598 11.7002 190.098 11.6002C189.598 8.80016 187.398 9.10016 186.398 10.2002C186.998 12.1002 187.998 13.2002 189.498 12.3002Z" fill="#FFC701"/>
<path opacity="0.1" d="M91.0987 24.0002C90.9987 23.7002 90.7987 23.4002 90.6987 23.2002C86.5987 24.6002 83.7987 26.6002 85.0987 30.4002C86.8987 29.3002 89.6987 26.3002 91.0987 24.0002Z" fill="#FFC701"/>
<path opacity="0.1" d="M167.1 17.3002C167.2 16.6002 166.8 15.6002 166.9 15.0002C166.1 15.0002 164.8 14.6002 164.5 15.5002C165.1 17.0002 165.9 17.7002 167.1 17.3002Z" fill="#FFC701"/>
<path opacity="0.1" d="M119.6 27.6999C119.2 26.6999 118.7 25.6999 118.1 25.3999C116.9 25.4999 117.4 26.3999 116.5 26.5999C117 28.3999 118.2 28.1999 119.6 27.6999Z" fill="#FFC701"/>
<path opacity="0.1" d="M28.5996 122.5C29.3996 124.7 30.8996 125.1 32.8996 124.1C33.2996 121 29.1996 120.2 28.5996 122.5Z" fill="#FFC701"/>
<path opacity="0.1" d="M37.7984 86.9C46.5984 86.3 35.0984 78.4 37.7984 86.9V86.9Z" fill="#FFC701"/>
<path opacity="0.1" d="M6.39883 150.4C6.19883 150.9 5.99883 151.5 5.79883 152C6.49883 153.6 7.49883 153.9 8.69883 153.6C10.2988 152.3 8.89883 149.2 6.39883 150.4Z" fill="#FFC701"/>
<path opacity="0.1" d="M21.0992 96.7C20.4992 96.4 19.5992 96.8 18.6992 97.2C19.1992 98.7 19.9992 99.4 21.1992 99C21.2992 98.4 20.9992 97.4 21.0992 96.7Z" fill="#FFC701"/>
<path opacity="0.1" d="M27.6984 140.1C24.7984 141.2 23.8984 143.1 22.8984 145C23.7984 144.7 23.6984 143.9 24.8984 143.6C25.0984 144.4 24.4984 144.9 25.0984 145.9C26.4984 144.7 27.5984 143.3 29.1984 142.3C28.7984 141.4 28.3984 140.5 27.6984 140.1Z" fill="#FFC701"/>
<path opacity="0.1" d="M2 165.3C2.9 168.3 4.6 168.8 7 167.6C8.1 164.3 3 162.3 2 165.3Z" fill="#FFC701"/>
<path opacity="0.1" d="M33.4 133.1C33.5 133.6 33.3 133.9 33 134.2C33.7 136.4 34.9 137.2 36.7 136.5C38.5 134.8 36.3 130.8 33.4 133.1Z" fill="#FFC701"/>
<path opacity="0.1" d="M85.1992 42.4002C85.8992 41.2002 87.0992 40.2002 88.1992 39.3002C88.6992 29.9002 76.3992 32.5002 79.8992 39.3002C80.9992 41.4002 82.9992 41.4002 85.1992 42.4002Z" fill="#FFC701"/>
<path opacity="0.1" d="M21.8984 125.2C24.7984 135.4 30.2984 119.9 21.8984 125.2V125.2Z" fill="#FFC701"/>
<path opacity="0.1" d="M137.998 22.9002C138.198 24.2002 136.698 24.9002 137.398 26.5002C138.898 25.9002 139.498 27.9002 140.698 28.0002C140.798 26.4002 141.798 25.3002 141.898 23.7002C140.598 23.6002 139.598 22.6002 137.998 22.9002Z" fill="#FFC701"/>
<path opacity="0.1" d="M164.1 64.6C164.1 65.4 163.7 66.2 163.9 67.1C168.5 71.3 170.8 60.8 164.1 64.6Z" fill="#FFC701"/>
<path opacity="0.1" d="M173.998 69.2C175.998 68.4 176.298 65.2 174.598 63.7C171.198 62.9 170.598 68.8 173.998 69.2Z" fill="#FFC701"/>
<path opacity="0.1" d="M169.699 55.6001C168.199 56.0001 168.299 57.2001 167.699 57.9001C168.599 59.1001 169.699 60.0001 170.799 60.9001C171.199 59.6001 171.699 57.0001 169.699 55.6001Z" fill="#FFC701"/>
<path opacity="0.1" d="M154.7 38.7002C153.8 38.9002 153.3 39.3002 153 39.8002C153.7 41.8002 155.1 41.4002 155.9 40.5002C155.8 39.3002 155 39.8002 154.7 38.7002Z" fill="#FFC701"/>
<path opacity="0.1" d="M275.299 16.4C275.599 17.1 275.899 17.8 276.199 18.4C277.899 19.2 279.499 17.7 280.099 16.3C279.499 13 275.599 14.7 275.299 16.4Z" fill="#FFC701"/>
<path opacity="0.1" d="M153.998 19.2999C155.698 18.8999 156.098 15.1999 156.398 12.9999C152.998 11.6999 150.498 7.9999 146.598 7.8999C145.798 8.8999 146.198 10.2999 144.898 10.9999C145.798 12.2999 146.498 13.7999 147.698 14.1999C147.898 13.2999 148.798 12.6999 149.898 12.2999C151.098 14.4999 152.698 15.1999 154.298 16.1999C154.698 17.3999 153.298 17.8999 153.998 19.2999ZM153.098 12.2999C154.598 12.0999 155.998 13.8999 155.298 15.2999C154.098 15.6999 153.798 13.4999 153.098 12.2999Z" fill="#FFC701"/>
<path opacity="0.1" d="M176.899 23.8998C178.599 24.0998 179.999 25.2998 181.899 25.1998C181.999 23.4998 183.999 22.6998 183.999 20.9998C182.499 19.8998 181.399 18.0998 179.999 16.8998C178.899 17.4998 178.399 16.6998 177.199 17.5998C175.999 16.2998 174.999 14.7998 173.599 14.2998C174.099 15.3998 174.599 16.4998 174.999 17.5998C170.299 19.9998 175.399 27.5998 178.599 29.5998C175.799 31.0998 175.599 33.7998 174.399 36.0998C173.599 34.3998 172.199 34.2998 171.499 32.4998C172.699 31.1998 174.799 30.3998 175.099 28.5998C173.499 26.9998 172.099 24.7998 170.499 23.2998C168.499 23.7998 168.299 25.0998 167.299 25.9998C165.299 23.3998 162.799 22.1998 159.599 23.3998C159.799 22.5998 158.799 19.5998 157.799 19.2998C155.399 20.9998 158.799 25.2998 154.199 26.0998C154.699 27.4998 155.299 28.3998 155.999 29.1998C156.099 30.0998 153.899 29.9998 154.099 30.9998C155.699 30.8998 158.899 31.1998 159.999 29.4998C159.499 29.2998 157.899 27.5998 158.499 27.1998C159.599 27.4998 160.799 27.0998 161.799 27.7998C161.699 33.7998 151.999 39.3998 158.799 45.2998C158.899 39.5998 160.199 34.4998 164.699 30.7998C166.099 30.5998 167.299 31.2998 168.199 32.6998C167.299 33.4998 166.299 34.1998 166.399 35.3998C167.899 34.7998 169.399 34.1998 170.899 33.5998C171.599 34.8998 172.499 35.6998 173.099 37.4998C174.999 36.8998 176.099 38.5998 177.499 39.4998C179.199 37.9998 180.599 36.3998 181.999 34.7998C182.499 35.7998 183.199 35.6998 183.499 37.0998C184.899 36.6998 185.899 35.9998 186.699 35.2998C184.899 27.2998 179.799 28.5998 176.899 23.8998Z" fill="#FFC701"/>
<path opacity="0.1" d="M186.5 62.7002C186.9 63.5002 187.2 64.3002 187.6 65.1002C188.5 64.7002 189 65.3002 190 64.6002C191.3 61.9002 187.1 59.9002 186.5 62.7002Z" fill="#FFC701"/>
<path opacity="0.1" d="M136.698 29.7998C131.498 31.4998 130.498 35.1998 128.098 38.1998C125.698 33.4998 119.298 28.2998 116.698 33.2998C118.698 33.5998 121.198 32.4998 122.798 34.0998C120.698 36.9998 118.898 39.9998 116.598 42.8998C114.098 41.5998 112.198 38.2998 109.298 38.2998C110.098 40.4998 109.398 41.9998 109.598 43.9998C110.998 43.2998 110.298 41.6998 111.298 40.8998C117.198 41.6998 112.198 48.4998 111.898 52.1998C110.398 50.5998 108.898 48.9998 107.698 46.6998C103.898 47.6998 102.098 42.3998 99.8983 38.8998C99.6983 40.0998 97.4983 40.3998 98.1983 41.9998C98.8983 41.9998 99.8983 40.6998 100.198 41.5998C99.4983 45.9998 98.6983 50.1998 98.5983 54.6998C95.4983 55.9998 94.0983 57.9998 90.3983 58.9998C88.5983 57.7998 86.8983 56.8998 84.9983 55.8998C84.6983 56.7998 85.7983 58.3998 86.2983 59.6998C88.9983 60.7998 92.3983 59.9998 96.0983 58.0998C96.9983 60.8998 99.0983 59.6998 100.098 62.1998C98.9983 62.6998 97.2983 63.0998 96.8983 63.9998C97.2983 65.5998 98.1983 65.7998 98.8983 66.5998C101.398 66.1998 100.998 64.4998 102.498 63.6998C104.298 63.4998 104.898 66.0998 105.198 67.8998C104.298 67.8998 103.498 67.3998 102.198 68.1998C102.898 70.1998 101.598 71.0998 102.098 72.9998C103.298 72.7998 104.298 72.7998 105.398 72.5998C105.198 67.3998 108.498 64.6998 114.198 65.1998C112.798 63.2998 110.598 63.7998 109.198 61.9998C107.998 58.6998 112.698 57.1998 114.798 58.6998C114.698 60.2998 113.498 63.0998 115.098 64.3998C116.598 60.8998 118.798 61.5998 122.598 59.3998C121.598 58.3998 120.998 56.5998 119.898 56.1998C119.098 57.5998 117.398 58.2998 115.598 58.3998C114.598 55.1998 112.098 56.0998 110.598 54.1998C111.798 52.4998 113.698 53.3998 115.198 53.7998C113.998 49.2998 115.198 45.7998 120.698 44.2998C122.098 46.0998 123.398 48.1998 124.898 49.7998C126.198 49.2998 127.298 48.7998 128.598 48.2998C129.698 50.7998 130.898 53.4998 131.998 55.9998C134.298 52.1998 127.298 43.8998 129.798 40.0998C131.998 40.2998 133.298 43.4998 135.698 43.4998C135.898 40.8998 133.198 38.8998 132.498 36.1998C134.598 34.1998 136.798 32.4998 136.698 29.7998ZM107.198 65.9998C106.098 61.6998 94.4983 58.8998 101.198 53.4998C101.398 52.0998 100.898 50.3998 101.998 49.2998C106.598 47.2998 107.598 51.6998 109.498 56.2998C106.298 58.4998 109.798 63.6998 107.198 65.9998ZM126.198 47.5998C124.298 45.8998 118.198 41.2998 122.598 38.4998C124.198 37.4998 127.498 38.1998 128.498 40.8998C129.398 43.6998 126.298 44.5998 126.198 47.5998Z" fill="#FFC701"/>
<path opacity="0.1" d="M124.999 61.5998C126.799 60.5998 127.699 59.1998 126.299 56.6998C123.199 55.8998 121.899 60.4998 124.999 61.5998Z" fill="#FFC701"/>
<path opacity="0.1" d="M77.1992 70.7C77.7992 72.4 78.4992 73.7 79.4992 74C80.2992 73.7 80.9992 73.4 81.6992 73.1C81.6992 71.5 81.4992 70.6 80.4992 69.3C79.6992 69 77.4992 69.8 77.1992 70.7Z" fill="#FFC701"/>
<path opacity="0.1" d="M143.8 4.19997C143 4.29997 142.6 3.29997 141.6 4.19997C141.3 5.49997 142.7 7.29997 144.1 5.99997C143.8 5.29997 143.7 4.69997 143.8 4.19997Z" fill="#FFC701"/>
<path opacity="0.1" d="M114.9 73.3999C114 73.4999 112.8 72.7999 112.5 73.9999C113.1 75.4999 114 75.8999 115.3 75.1999C114.8 74.3999 115.2 74.0999 114.9 73.3999Z" fill="#FFC701"/>
<path opacity="0.1" d="M138.5 35.7998C139.7 35.5998 139.6 34.7998 140.5 34.4998C140 31.8998 138.6 31.2998 136.7 32.6998C136.6 34.1998 137.4 35.0998 138.5 35.7998Z" fill="#FFC701"/>
<path opacity="0.1" d="M61.2988 16.5C62.1988 15.8 61.9988 14.7 61.1988 13.2C59.5988 12.1 57.3988 13.9 57.2988 15.3C57.3988 17.1 59.5988 17.4 58.9988 18C58.4988 18.2 57.9988 18.4 57.4988 18.6C56.8988 17.4 56.3988 16.2 55.8988 14.9C59.1988 12.6 60.7988 7.4 55.8988 4C53.3988 5.3 49.9988 4.9 48.3988 7C49.4988 8 50.3988 9.9 51.2988 11.6C52.6988 11.1 54.6988 9.1 55.5988 9.4C55.6988 10.2 57.0988 11.6 56.2988 12C53.4988 11.4 48.8988 13.6 47.7988 10.6C48.3988 11.9 47.4988 12.6 48.4988 14.1C49.9988 14.1 51.3988 14.3 52.6988 14.8C51.8988 16.7 50.5988 18.4 49.2988 20.1C51.7988 22.7 54.9988 23.5 57.6988 25.3C59.4988 23.8 61.4988 22.5 63.2988 21.1C62.7988 19.5 63.0988 18.2 62.5988 16.6C62.1988 16.6 61.6988 17 61.2988 16.5Z" fill="#FFC701"/>
<path opacity="0.1" d="M137.099 47.4C136.799 48.2 137.699 49.6 138.199 50.8C139.099 50.5 139.899 50 140.799 49.7C140.699 47.8 139.199 45.9 137.099 47.4Z" fill="#FFC701"/>
<path opacity="0.1" d="M35.7 102.7C38.2 101.9 35.3 95.0999 32.7 96.6999C30.5 99.1999 33.8 103.4 35.7 102.7Z" fill="#FFC701"/>
<path opacity="0.1" d="M3.69961 76.2001C2.49961 74.4001 3.19961 73.3001 2.09961 71.6001C1.69961 71.7001 1.39961 71.9001 1.09961 72.0001V78.8001C2.79961 78.3001 2.39961 76.8001 3.69961 76.2001Z" fill="#FFC701"/>
<path opacity="0.1" d="M68.1992 19.0001C71.3992 22.0001 74.8992 24.3001 78.9992 24.6001C83.1992 19.7001 90.4992 16.3001 87.9992 8.4001C83.1992 7.2001 79.4992 2.2001 74.4992 1.5001C74.7992 1.4001 74.9992 1.3001 75.1992 1.1001H72.7992C71.0992 7.1001 63.8992 10.4001 68.1992 19.0001ZM87.2992 13.6001C85.6992 14.0001 85.0992 11.4001 84.1992 9.6001C85.3992 10.4001 86.3992 11.8001 87.2992 13.6001Z" fill="#FFC701"/>
<path opacity="0.1" d="M5.5 110.2C5 108.9 4.1 108.9 3.3 108.2C4.4 107.8 5.3 107.4 4.6 106.2C4.4 105.8 4.2 105.4 4 105C2.5 104.7 1.8 105 1 105.9V112.4C2.4 111.6 3.5 110.7 5.5 110.2Z" fill="#FFC701"/>
<path opacity="0.1" d="M25.5 113.9C25 113.8 24.5 113.8 24 113.8C24.4 114 25 114 25.5 113.9Z" fill="#FFC701"/>
<path opacity="0.1" d="M23.2996 135.5C23.1996 135.4 23.1996 135.2 23.0996 135.1C23.0996 135.3 23.0996 135.5 23.2996 135.5Z" fill="#FFC701"/>
<path opacity="0.1" d="M13.6996 137.6C15.8996 139.2 24.9996 139 27.4996 136.6C26.2996 134.6 26.0996 132.6 26.5996 130.7C24.9996 132.6 23.4996 134.4 23.1996 135.2C23.2996 135.3 23.2996 135.5 23.3996 135.6C23.1996 135.6 23.0996 135.4 23.1996 135.2C21.0996 130.6 18.5996 129.4 14.4996 132.5C11.0996 130.4 12.9996 127.1 14.9996 125.6C14.5996 125.6 13.1996 123.7 13.6996 123.7C15.1996 123.4 17.8996 124.6 18.6996 123.1C16.8996 122.3 15.3996 121.1 13.6996 119.8C15.9996 115.8 20.0996 113.9 23.9996 113.8C23.3996 113.6 22.8996 113.1 22.5996 112.3C23.1996 108.6 32.9996 111.2 31.8996 105.5C29.7996 106.5 28.3996 106 26.3996 106.8C23.2996 104.3 21.5996 97.8002 16.8996 100.1C16.8996 101.5 17.9996 102.1 18.6996 104.2C16.0996 106 13.4996 107.9 12.1996 110.3C14.8996 110.8 18.7996 107.8 21.0996 109.5C14.7996 110.2 6.69961 115.8 1.09961 114.3V138.4C5.79961 138.4 10.5996 139.2 13.6996 137.6ZM14.6996 134.5C14.8996 135.1 13.8996 135.3 13.3996 135.5C12.9996 134.8 13.4996 134.4 13.0996 133.7C13.7996 133.2 13.9996 134.7 14.6996 134.5Z" fill="#FFC701"/>
<path opacity="0.1" d="M3.99922 85.0003C3.79922 86.1003 2.49922 86.7003 0.999219 87.2003V91.7003C2.79922 91.9003 3.59922 94.6003 2.29922 95.7003C1.79922 96.0003 1.39922 96.0003 0.999219 95.8003V97.4003C1.49922 97.1003 1.89922 96.8003 2.39922 96.5003C3.19922 98.9003 2.89922 100.8 2.49922 102.7C4.09922 102.2 6.19922 101.3 5.99922 103.7C7.59922 103.1 9.19922 102.4 10.7992 101.7C8.99922 97.9003 5.29922 94.6003 4.59922 90.7003C10.3992 89.7003 17.9992 83.2003 20.9992 90.2003C19.9992 92.4003 18.0992 95.5003 14.6992 94.7003C15.0992 95.5003 15.3992 96.3003 15.7992 97.1003C17.8992 96.3003 19.7992 96.1003 21.6992 95.6003C24.8992 93.4003 20.8992 85.9003 18.5992 85.8003C19.1992 85.6003 21.7992 86.2003 20.7992 84.8003C20.0992 82.4003 17.6992 85.2003 16.5992 84.1003C16.2992 83.4003 15.9992 82.7003 15.6992 82.1003C16.6992 81.4003 17.9992 80.8003 18.6992 79.9003C23.3992 83.4003 31.8992 79.6003 34.3992 74.8003C35.9992 74.0003 38.2992 75.6003 38.9992 74.4003C37.6992 73.4003 35.8992 73.5003 34.9992 71.3003C35.8992 68.7003 38.5992 66.9003 40.8992 65.0003C41.1992 65.7003 41.4992 66.4003 41.7992 67.0003C43.4992 66.5003 44.4992 65.6003 45.6992 64.9003C46.1992 66.2003 47.0992 66.3003 47.4992 68.0003C44.6992 69.5003 43.3992 71.7003 41.1992 73.5003C43.2992 77.4003 47.7992 73.2003 49.4992 71.5003C50.3992 72.9003 51.2992 74.5003 52.3992 75.1003C53.2992 72.6003 51.9992 66.3003 56.4992 67.6003C56.7992 68.6003 56.7992 69.5003 56.7992 70.3003C57.8992 70.1003 59.4992 68.6003 60.2992 69.4003C60.0992 70.5003 59.7992 71.6003 60.0992 72.8003C61.2992 73.4003 62.2992 74.5003 63.7992 74.2003C62.9992 72.5003 62.2992 70.7003 61.3992 68.9003C63.1992 68.5003 64.4992 66.1003 65.9992 66.5003C67.0992 69.0003 65.7992 72.0003 67.3992 73.6003C68.3992 71.8003 68.5992 69.6003 67.4992 66.8003C69.6992 65.0003 68.6992 61.7003 69.3992 59.2003C74.3992 58.8003 76.5992 54.6003 78.8992 51.9003C77.6992 51.1003 77.2992 48.1003 75.9992 47.3003C76.5992 47.1003 77.2992 46.8003 77.7992 46.5003C75.7992 43.4003 75.2992 41.1003 73.8992 37.5003C72.8992 37.9003 71.8992 38.3003 70.8992 38.7003C71.3992 40.4003 73.2992 42.8003 72.7992 44.1003C71.5992 43.1003 70.7992 41.4003 69.0992 41.8003C69.3992 43.1003 71.0992 45.1003 70.5992 46.0003C69.1992 45.5003 67.4992 45.7003 66.1992 44.9003C66.9992 43.2003 68.5992 41.7003 70.2992 40.3003C70.0992 31.5003 62.3992 20.6003 54.2992 27.2003C55.6992 29.0003 57.3992 30.1003 58.6992 32.1003C58.9992 33.4003 57.9992 35.9003 57.1992 35.6003C56.6992 34.5003 56.2992 33.5003 55.7992 32.3003C53.7992 32.9003 53.2992 34.2003 51.0992 34.7003C50.2992 33.1003 49.7992 31.0003 48.5992 31.0003C48.4992 32.9003 47.7992 34.5003 47.9992 36.5003C50.9992 36.7003 54.3992 35.9003 57.1992 36.5003C56.0992 37.0003 55.9992 38.1003 55.1992 38.8003C55.6992 40.8003 56.7992 41.4003 57.4992 43.1003C59.0992 42.5003 60.6992 41.8003 62.2992 41.1003C62.1992 42.3003 62.6992 43.7003 62.5992 44.8003C60.6992 45.9003 59.4992 47.3003 57.5992 48.3003C54.8992 47.2003 52.2992 45.9003 49.8992 43.8003C51.1992 41.9003 52.7992 40.2003 53.4992 38.0003C51.8992 37.6003 50.0992 38.2003 48.6992 37.1003C46.9992 38.0003 48.1992 40.1003 46.4992 40.9003C46.1992 39.5003 45.2992 40.0003 44.9992 38.6003C43.4992 39.3003 43.7992 40.9003 41.7992 41.3003C41.4992 40.6003 41.1992 40.0003 40.8992 39.3003C39.1992 40.4003 39.0992 40.3003 37.7992 39.2003C38.0992 37.8003 38.1992 36.3003 38.0992 34.8003C34.9992 35.4003 37.3992 38.6003 36.5992 40.2003C30.7992 44.0003 20.3992 42.9003 18.8992 48.9003C21.8992 48.6003 24.4992 49.1003 27.5992 48.7003C28.9992 50.6003 30.5992 51.9003 31.7992 54.2003C29.0992 55.9003 26.2992 57.4003 23.9992 59.3003C23.1992 57.6003 23.4992 56.5003 22.3992 54.7003C20.8992 55.5003 21.4992 57.3003 20.9992 58.6003C26.0992 60.7003 28.8992 69.0003 33.5992 72.1003C30.4992 76.7003 23.7992 81.0003 18.1992 78.0003C16.7992 76.1003 15.0992 72.4003 15.6992 70.4003C17.2992 69.1003 20.9992 70.8003 20.4992 70.0003C18.7992 69.7003 18.0992 66.1003 17.5992 64.4003C18.8992 63.2003 20.3992 62.3003 20.7992 60.7003C17.9992 61.5003 16.1992 62.7003 15.9992 64.6003C15.4992 62.9003 14.2992 63.3003 13.0992 63.9003C11.8992 65.3003 14.5992 67.1003 14.3992 67.7003C12.8992 67.9003 11.6992 67.1003 10.6992 65.4003C8.69922 66.5003 5.59922 67.2003 5.29922 69.1003C6.59922 68.5003 7.99922 68.0003 9.39922 67.4003C10.6992 68.9003 12.3992 69.4003 13.3992 71.5003C12.3992 72.9003 9.79922 73.7003 8.89922 75.3003C9.59922 75.5003 10.2992 75.5003 10.8992 76.0003C9.49922 76.4003 10.2992 77.6003 9.79922 78.4003C6.19922 79.9003 3.29922 79.6003 0.699219 78.4003V83.0003C1.99922 83.7003 2.99922 84.4003 3.99922 85.0003ZM61.8992 39.4003C61.2992 36.8003 62.2992 35.0003 63.0992 33.2003C61.8992 31.4003 59.8992 32.0003 59.0992 29.1003C62.6992 27.3003 63.6992 33.2003 65.4992 36.5003C63.8992 37.3003 63.3992 38.6003 61.8992 39.4003ZM67.3992 54.6003C70.5992 53.8003 70.1992 49.2003 72.5992 48.6003C76.0992 47.6003 75.8992 52.0003 74.4992 55.0003C73.1992 55.0003 72.6992 52.8003 71.9992 51.3003C69.2992 53.8003 69.8992 57.9003 65.5992 59.7003C65.3992 61.0003 66.2992 62.9003 65.6992 64.0003C63.2992 64.9003 60.9992 68.9003 58.5992 66.9003C60.3992 64.2003 61.9992 61.4003 60.8992 57.3003C59.4992 56.8003 57.1992 58.6003 55.5992 59.0003C55.7992 53.7003 63.7992 50.9003 67.3992 54.6003ZM46.7992 47.7003C50.2992 47.4003 53.3992 48.6003 54.9992 54.3003C54.1992 54.8003 53.8992 53.9003 52.9992 54.7003C53.5992 55.8003 54.3992 56.1003 54.9992 57.3003C52.7992 58.4003 53.2992 60.6003 53.8992 63.5003C54.6992 64.4003 55.4992 64.9003 56.7992 64.2003C56.7992 65.0003 55.6992 65.4003 55.9992 66.4003C53.4992 66.1003 51.2992 65.2003 49.1992 64.0003C46.7992 57.9003 45.7992 52.4003 46.7992 47.7003ZM15.4992 84.1003C15.6992 85.1003 13.3992 85.4003 12.8992 85.2003C13.2992 84.0003 14.3992 83.5003 15.4992 84.1003ZM12.9992 77.5003C13.4992 78.8003 12.9992 79.6003 13.0992 80.8003C12.1992 80.9003 11.9992 78.9003 11.3992 78.1003C11.9992 77.9003 12.4992 77.7003 12.9992 77.5003Z" fill="#FFC701"/>
<path opacity="0.1" d="M294.3 4.6002C292.7 5.5002 291.4 5.3002 290 4.9002C292.5 9.0002 293.8 13.2002 293.6 16.9002C291.5 16.0002 289.3 13.4002 287 15.8002C288.7 18.2002 291.2 18.6002 293.6 18.8002C296.6 16.3002 302.4 17.1002 307.1 13.7002C308 11.2002 309.4 8.9002 309.4 6.0002C308.2 5.2002 306.9 4.2002 305.7 3.2002H294.6C294.8 3.8002 294.9 4.4002 294.3 4.6002Z" fill="#FFC701"/>
<path opacity="0.1" d="M284.299 8.7998C288.499 9.7998 288.999 4.5998 286.399 3.2998H283.599C283.499 3.2998 283.399 3.3998 283.299 3.3998C283.599 5.1998 283.999 6.9998 284.299 8.7998Z" fill="#FFC701"/>
<path opacity="0.1" d="M1.5 55.8003C3.7 57.6003 6.1 58.7003 8.7 59.1003C9 57.0003 9.1 54.7003 8.8 52.3003C7.5 52.1003 6.1 51.9003 5 51.4003C5.6 48.5003 5.3 43.0003 1 44.0003V45.3003C2 49.2003 5.2 54.0003 1.5 55.8003Z" fill="#FFC701"/>
<path opacity="0.1" d="M43.9992 24.9002C41.8992 21.3002 39.2992 19.8002 36.1992 19.2002C36.2992 20.0002 37.6992 21.4002 36.8992 21.8002C35.7992 22.2002 34.6992 22.7002 33.4992 23.2002C32.9992 21.2002 31.3992 21.8002 30.7992 20.0002C28.7992 20.6002 28.1992 21.8002 27.1992 22.9002C27.6992 24.8002 28.7992 25.2002 29.3992 26.8002C32.3992 26.5002 34.6992 28.3002 37.0992 29.4002C37.2992 28.5002 36.4992 27.2002 37.1992 26.5002C37.9992 27.0002 38.2992 28.8002 39.1992 29.1002C40.4992 27.6002 41.9992 26.1002 43.9992 24.9002Z" fill="#FFC701"/>
<path opacity="0.1" d="M20.0987 14.4002C19.7987 15.8002 20.2987 16.6002 21.4987 17.7002C25.2987 17.3002 22.8987 12.1002 20.0987 14.4002Z" fill="#FFC701"/>
<path opacity="0.1" d="M41.0983 17.3C40.7983 20.8 45.2983 21.7 46.2983 19C45.4983 15.5 42.9983 17.1 41.0983 17.3Z" fill="#FFC701"/>
<path opacity="0.1" d="M22.2988 41.3C22.5988 42 22.8988 42.7 23.1988 43.3C24.0988 43.2 24.6988 43.9 25.7988 43.2C27.1988 40.6 23.0988 38.4 22.2988 41.3Z" fill="#FFC701"/>
<path opacity="0.1" d="M41 30.8002C41.8 33.3002 43.8 33.6002 45.1 32.0002C44.6 31.0002 44.3 30.1002 43.8 29.2002C42.2 29.5002 41.6 29.6002 41 30.8002Z" fill="#FFC701"/>
<path opacity="0.1" d="M33.5996 7.39998C34.4996 7.09998 35.3996 6.69998 36.1996 6.29998C35.6996 2.89998 32.5996 2.89998 32.0996 5.09998C32.3996 6.49998 33.3996 5.99998 33.5996 7.39998Z" fill="#FFC701"/>
<path opacity="0.1" d="M46.5988 5.89994C48.7988 0.199943 40.3988 4.89994 46.5988 5.89994V5.89994Z" fill="#FFC701"/>
<path d="M1 150.1V152.3C1.2 152 1.4 151.8 1.6 151.5C1.4 150.9 1.2 150.5 1 150.1Z" fill="black"/>
<path opacity="0.1" d="M4.79844 173.7C4.09844 171.7 2.99844 171 1.29844 171.8C1.09844 172.1 0.998438 172.4 0.898438 172.6V173.4C0.998438 174 1.39844 174.5 1.99844 175.3C3.69844 175 4.19844 174.9 4.79844 173.7Z" fill="#FFC701"/>
<path opacity="0.1" d="M907.353 97.1C908.753 96 909.053 93.3 906.753 93C905.953 93.5 905.253 94 904.953 95.6C905.653 96.5 906.153 97.1 907.353 97.1Z" fill="#FFC701"/>
<path opacity="0.1" d="M887.852 52.1C888.552 51.8 888.952 50.4 889.352 49.3C888.052 48.5 887.952 48.3 886.552 48.7C886.252 49.4 886.052 50.1 885.752 50.8C886.652 51.1 886.652 51.9 887.852 52.1Z" fill="#FFC701"/>
<path opacity="0.1" d="M926.553 104C925.353 104.6 925.753 106.1 925.853 107.1C928.053 108 928.653 104.6 926.553 104Z" fill="#FFC701"/>
<path opacity="0.1" d="M850.454 28.5C850.254 28.8 850.154 29.3 849.854 29.2C849.154 30.8 849.754 31.7 851.254 32.2C851.854 31.8 852.254 30.8 852.754 30.4C852.354 29.6 851.854 28.7 850.454 28.5Z" fill="#FFC701"/>
<path opacity="0.1" d="M878.853 43C878.053 43.5 877.353 44 877.053 45.6C877.753 46.5 878.153 47.2 879.553 47.1C881.053 46 880.953 43.4 878.853 43Z" fill="#FFC701"/>
<path opacity="0.1" d="M884.353 157.4C886.053 155.9 887.452 152.3 885.652 150.7C883.452 150.7 881.452 156.8 884.353 157.4Z" fill="#FFC701"/>
<path opacity="0.1" d="M863.653 14.1998C864.653 13.0998 864.053 12.9998 864.753 11.2998C863.953 10.7998 863.553 10.0998 862.253 9.7998C860.753 11.3998 860.953 13.7998 863.653 14.1998Z" fill="#FFC701"/>
<path opacity="0.1" d="M921.352 78.3C921.352 77.7 921.052 77.3 921.552 76.5C920.552 76.1 919.452 75.5 918.752 75.9C918.352 78 917.352 78.2 916.652 79.3C917.452 79.8 916.852 81 918.052 81.3C918.752 79.3 920.352 79.8 921.352 78.3Z" fill="#FFC701"/>
<path opacity="0.1" d="M919.752 96.9C920.552 97.5 921.252 98.2 922.552 98.5C922.952 96.6 923.952 95.8 924.452 94.5C923.752 94 923.352 93.3 922.052 93C921.052 93.7 920.252 95 919.752 96.9Z" fill="#FFC701"/>
<path opacity="0.1" d="M913.453 109.2C913.853 109.8 914.653 110.2 914.953 110.8C916.553 110.5 917.953 109.3 918.753 106.6C916.653 106.6 914.553 106.6 913.453 109.2Z" fill="#FFC701"/>
<path opacity="0.1" d="M844.953 66.9998C845.353 67.5998 845.253 68.3998 845.453 69.0998C848.253 71.5998 850.853 67.6998 849.953 65.1998C847.553 63.9998 845.853 64.6998 844.953 66.9998Z" fill="#FFC701"/>
<path opacity="0.1" d="M931.254 0.200195H921.154C921.154 0.200195 921.154 0.200195 921.154 0.300195C920.954 0.700195 920.854 1.1002 920.654 1.6002C919.554 1.1002 918.554 0.700195 917.454 0.300195H916.854C916.054 3.0002 917.754 4.5002 918.854 6.2002C920.054 5.3002 920.754 2.9002 922.054 2.2002C922.754 3.2002 923.754 4.0002 923.854 5.4002C919.854 6.2002 918.654 10.8002 919.554 14.7002C917.954 13.8002 917.254 15.1002 915.754 14.6002C915.254 15.8002 916.154 16.2002 915.554 17.4002C914.754 17.1002 915.554 16.1002 914.454 15.9002C911.954 17.7002 909.454 19.8002 907.054 22.0002C906.754 20.7002 906.154 19.5002 904.854 18.7002C904.454 20.6002 900.954 22.4002 902.454 24.0002C902.854 25.2002 904.154 21.8002 905.054 21.7002C908.454 23.1002 906.254 27.4002 906.454 30.4002C910.154 33.9002 908.754 39.8002 912.754 43.1002C913.554 40.4002 912.854 38.3002 913.954 35.4002C917.654 34.6002 921.654 37.3002 923.254 40.2002C922.454 42.0002 921.854 44.0002 920.854 45.0002C921.554 47.4002 922.554 49.6002 922.854 52.1002C924.854 52.3002 926.254 51.1002 928.254 51.4002C928.854 52.5002 929.254 53.6002 930.554 54.3002C931.854 54.6002 932.454 53.2002 933.754 53.7002C933.354 55.0002 934.154 55.7002 934.254 56.8002C934.954 55.7002 935.154 53.1002 936.154 52.8002C936.554 53.6002 937.154 54.4002 937.754 55.1002V20.0002C936.754 19.3002 935.554 18.7002 934.054 18.3002C934.554 14.9002 932.754 14.0002 931.054 14.7002C932.454 12.4002 935.354 13.9002 936.854 11.8002C935.054 11.1002 929.354 9.3002 932.654 8.1002C931.454 10.5002 935.754 10.2002 937.054 11.4002C937.254 10.9002 937.454 10.5002 937.754 10.2002V2.5002C936.454 2.2002 936.054 4.2002 934.754 4.1002C934.454 3.5002 933.954 3.2002 933.054 2.9002C933.154 2.0002 933.054 1.1002 933.054 0.200195H932.054C932.854 2.0002 930.454 5.1002 928.854 5.0002M916.354 24.4002C915.054 24.9002 913.954 25.8002 912.854 26.8002C914.754 27.6002 916.854 28.4002 918.754 29.2002C915.854 31.3002 910.454 30.3002 910.954 26.0002C911.354 22.7002 914.154 22.6002 915.254 19.1002C916.754 21.7002 919.854 23.4002 921.254 25.9002C920.154 26.5002 917.954 24.7002 916.354 24.4002ZM930.354 47.5002C928.654 47.0002 926.954 46.8002 924.954 45.8002C925.554 43.8002 926.554 43.5002 927.054 41.4002C929.154 41.4002 932.054 43.4002 934.054 43.3002C932.954 44.7002 931.954 46.8002 930.354 47.5002Z" fill="#FFC701"/>
<path opacity="0.1" d="M884.953 144.7C885.353 145.5 885.853 146.3 887.253 146.6C888.853 145.8 890.253 143.2 889.053 141.6C887.153 141.2 885.653 142 884.953 144.7Z" fill="#FFC701"/>
<path opacity="0.1" d="M896.953 142.4C895.753 143.1 895.553 145.4 896.953 145.8C897.453 145.4 897.953 144.4 898.453 144C897.853 143.5 897.953 142.6 896.953 142.4Z" fill="#FFC701"/>
<path opacity="0.1" d="M898.454 120.3C895.854 122 893.754 125.1 891.854 128.6C899.454 134.8 906.554 128.8 903.654 121.4C901.954 121.4 900.054 120.4 898.454 120.3Z" fill="#FFC701"/>
<path opacity="0.1" d="M909.854 101.5C906.954 102.2 904.354 103.7 902.354 106.6C905.854 118 918.354 108 909.854 101.5Z" fill="#FFC701"/>
<path opacity="0.1" d="M811.754 84.2001C811.054 85.6001 811.054 86.6001 810.854 87.7001C811.154 87.9001 811.654 88.0001 811.454 88.4001C814.254 90.6001 816.454 86.2001 815.154 84.1001C813.654 83.2001 812.854 84.0001 811.754 84.2001Z" fill="#FFC701"/>
<path opacity="0.1" d="M935.653 67.3998C933.353 67.7998 930.853 67.3998 928.453 67.2998C924.753 72.2998 924.453 77.4998 928.453 79.7998C932.653 82.1998 936.653 79.3998 937.953 75.5998V70.6998C937.453 69.4998 936.753 68.3998 935.653 67.3998Z" fill="#FFC701"/>
<path opacity="0.1" d="M829.952 0.5H826.452C826.252 1.9 826.052 3.3 825.752 4.7C827.052 3.2 828.552 2.1 829.952 0.5Z" fill="#FFC701"/>
<path opacity="0.1" d="M933.053 109.5C934.853 109.7 936.453 111 937.853 111.5V107.4C937.653 107.2 937.353 107.1 937.053 107C935.553 107.4 934.353 108.5 933.053 109.5Z" fill="#FFC701"/>
<path opacity="0.1" d="M852.052 6.5001C851.552 4.7001 851.652 2.5001 851.252 0.600098H849.152C848.452 3.3001 850.552 7.2001 852.052 6.5001Z" fill="#FFC701"/>
<path opacity="0.1" d="M886.352 8.59986C886.752 7.69986 887.052 6.69986 887.452 5.69986C885.652 3.89986 883.752 4.89986 883.652 7.59986C885.052 8.19986 884.952 8.69986 886.352 8.59986Z" fill="#FFC701"/>
<path opacity="0.1" d="M908.152 12.2001C908.752 11.9001 909.352 10.5001 909.052 9.80014C908.052 9.40014 907.152 9.10014 906.752 10.2001C906.752 11.2001 907.352 11.8001 908.152 12.2001Z" fill="#FFC701"/>
<path opacity="0.1" d="M831.052 44.6001C830.352 46.0001 830.752 47.0001 832.152 47.4001C833.152 47.0001 832.852 46.0001 833.052 45.0001C832.152 44.2001 831.852 45.1001 831.052 44.6001Z" fill="#FFC701"/>
<path opacity="0.1" d="M863.952 3.7C862.752 3.1 862.052 2.2 860.352 1.7C860.452 3.7 859.852 6 860.752 7.6C862.652 7.2 864.452 2.6 866.452 5.1C866.752 3.7 866.652 2.5 866.552 1.3C868.052 0.9 870.152 2 871.452 0.9C871.352 0.8 871.252 0.6 871.152 0.5H864.152C864.352 1.8 864.452 3.3 863.952 3.7Z" fill="#FFC701"/>
<path opacity="0.1" d="M895.253 4.8C894.053 1.6 888.953 1.4 888.953 5.5C890.753 7.5 894.653 4.9 896.253 6.6C893.553 13.7 887.953 12.9 882.653 13C885.453 14.1 888.153 15.2 889.753 16.9C888.153 20.5 884.753 19.7 882.453 21.6C889.853 21.5 899.153 15.1 899.653 4.6C901.753 3.7 903.153 2 904.153 0H902.653C900.453 1.9 896.653 0.8 895.253 4.8Z" fill="#FFC701"/>
<path opacity="0.1" d="M817.853 20.4001C817.053 22.2001 817.253 23.4001 818.653 24.1001C819.953 24.6001 821.153 22.0001 820.753 20.7001C819.553 19.8001 818.653 20.1001 817.853 20.4001Z" fill="#FFC701"/>
<path opacity="0.1" d="M826.853 18.3C828.953 18 830.853 17.2 831.853 14.1C828.753 11.9 825.453 15.9 826.853 18.3Z" fill="#FFC701"/>
<path opacity="0.1" d="M819.852 16.4002C818.752 18.3002 819.152 19.4002 821.152 19.8002C823.252 18.7002 822.052 15.4002 819.852 16.4002Z" fill="#FFC701"/>
<path opacity="0.1" d="M804.053 109C801.653 111.9 796.753 116.5 796.953 120.9C798.653 115.8 803.553 114.4 804.053 109Z" fill="#FFC701"/>
<path opacity="0.1" d="M912.052 4.0998C911.752 3.2998 911.652 2.3998 911.352 1.4998C911.252 1.0998 910.952 0.799805 910.552 0.799805C910.052 0.799805 909.652 1.2998 909.652 1.7998C909.752 2.6998 909.952 3.4998 910.052 4.3998C910.152 4.7998 910.352 5.0998 910.752 5.0998C910.852 5.0998 910.952 5.0998 911.052 5.1998C911.652 5.2998 912.252 4.6998 912.052 4.0998Z" fill="#FFC701"/>
<path opacity="0.1" d="M790.053 30.6001C789.053 28.9001 788.753 27.0001 787.753 25.3001C789.353 25.3001 792.653 25.5001 792.553 23.9001C789.953 23.6001 787.353 23.4001 784.753 23.1001C783.853 25.2001 785.353 26.2001 783.953 28.5001C783.053 28.0001 782.153 27.7001 781.653 28.0001C781.253 29.0001 780.853 29.9001 781.053 30.7001C783.253 31.3001 784.453 33.5001 786.653 35.0001C788.653 35.6001 790.153 32.9001 791.753 35.2001C793.053 33.3001 794.853 29.1001 794.953 26.8001C793.853 26.3001 792.053 31.0001 790.053 30.6001Z" fill="#FFC701"/>
</svg>
