<svg width="64" height="70" viewBox="0 0 64 70" fill="none" xmlns="http://www.w3.org/2000/svg">
<path d="M62.5529 57.2542C61.9714 57.0866 61.2941 57.2213 60.692 58.2037L51.4834 58.2299L50.1835 61.6894C50.0424 62.0644 49.7844 62.3885 49.4447 62.6177C49.1051 62.847 48.7002 62.9702 48.285 62.9707L50.0638 58.2332H48.716L47.4196 61.6861C47.2778 62.0614 47.0192 62.3856 46.679 62.6148C46.3387 62.844 45.9333 62.9671 45.5177 62.9674L47.2964 58.2365H45.9487L44.6659 61.6894C44.5256 62.0649 44.2678 62.3896 43.928 62.6189C43.5881 62.8483 43.1828 62.9712 42.7674 62.9707L44.5428 58.2464L34.6226 58.2727H27.8188C27.9411 57.8282 28.2131 57.435 28.5924 57.1545C28.9717 56.874 29.437 56.7219 29.9157 56.722H35.0468L42.9145 30.0152H29.0434C25.4243 41.1 21.8052 53.614 18.186 64.9879C17.5737 66.9066 19.0549 69.2589 21.145 69.2885C33.959 69.4298 46.7731 69.1505 59.5906 69.2885C59.946 69.293 60.293 69.1837 60.5767 68.9779C60.8603 68.7721 61.0646 68.4814 61.1573 68.1517L63.6715 59.2648C63.7922 58.8558 63.7431 58.4178 63.5345 58.0428C63.3259 57.6679 62.974 57.3852 62.5529 57.2542Z" fill="white" fill-opacity="0.06"/>
<path d="M51.5927 0.699856V0.670288H37.3659C37.05 0.67028 36.7372 0.730305 36.4455 0.846905C36.1539 0.963504 35.8892 1.13437 35.6666 1.34967C35.444 1.56496 35.268 1.82043 35.1487 2.10135C35.0294 2.38227 34.9691 2.68308 34.9713 2.98647H42.042C41.8796 3.40423 41.5916 3.76622 41.2146 4.02651C40.8376 4.28681 40.3886 4.43367 39.9246 4.44846L37.2085 4.52402C35.9907 8.34162 34.7707 12.1592 33.5483 15.9768H47.0978L50.9188 2.98647H51.2951C51.5968 2.99056 51.8896 2.8881 52.1179 2.69853C52.3462 2.50897 52.494 2.2455 52.5334 1.95815C52.5672 1.67368 52.4896 1.38729 52.3158 1.15472C52.1419 0.922138 51.8841 0.760002 51.5927 0.699856Z" fill="white" fill-opacity="0.06"/>
<path d="M62.9598 20.4153L62.929 20.0703C62.1798 12.0278 55.0579 5.92682 46.6463 5.92682H22.3044C21.317 5.92626 20.3533 6.2176 19.5442 6.76129C18.7352 7.30498 18.12 8.07466 17.7822 8.96579C17.1459 10.4442 16.5074 11.9226 15.8666 13.401H13.7457C13.022 13.4018 12.3081 13.5619 11.6588 13.8688C11.0095 14.1758 10.4421 14.6215 10 15.1718H22.0547C23.1117 15.1718 24.1584 15.2014 25.2017 15.2211C25.5627 15.2285 25.9178 15.3101 26.2431 15.4604C26.5685 15.6106 26.8566 15.8261 27.088 16.0922C27.3194 16.3584 27.4888 16.669 27.5847 17.0033C27.6806 17.3376 27.7009 17.6877 27.6441 18.0301L24.8015 25.5208H23.4572L26.1664 18.2929H25.3249L22.6122 25.5208H20.9019L23.6179 18.2929C19.1368 18.2075 15.5108 18.1254 11.0296 18.0433C10.5006 18.0341 9.97931 18.1662 9.52389 18.425C9.06847 18.6837 8.69683 19.0588 8.45041 19.5085C8.2378 19.8982 8.08129 20.3137 7.9852 20.7438C7.94989 20.9009 7.95405 21.0639 7.99734 21.2191C8.04063 21.3744 8.1218 21.5175 8.23414 21.6366C8.34647 21.7557 8.48674 21.8474 8.64332 21.9042C8.7999 21.9609 8.9683 21.9809 9.13456 21.9627H9.15851C9.40098 21.9216 9.62992 21.8261 9.82668 21.684C10.0234 21.5418 10.1824 21.357 10.2908 21.1446H18.09C18.0928 21.2893 18.0655 21.4329 18.0099 21.5674C17.9542 21.7018 17.8713 21.8242 17.7659 21.9275C17.6606 22.0309 17.5349 22.113 17.3961 22.1693C17.2574 22.2255 17.1084 22.2547 16.9578 22.2551H12.8803C7.23606 38.3731 3.27485 49.9803 1.63632 53.5647C-0.00221229 57.149 1.39345 58.6471 2.5907 59.2122C3.10831 59.4505 3.6758 59.5718 4.24976 59.567H14.5393L21.3808 40.3641H19.3523C18.8261 40.3641 18.3214 40.1633 17.9494 39.8059C17.5773 39.4486 17.3683 38.9639 17.3683 38.4585H28.8585C33.7262 45.0293 38.5939 51.692 43.4616 58.2726C48.1412 58.2726 52.8207 58.2036 57.4866 58.2036L41.2484 37.2298L46.6155 37.3711C50.5134 37.3861 54.2881 36.0601 57.2561 33.6332C60.224 31.2063 62.1891 27.839 62.7956 24.1409C62.9926 22.9086 63.0476 21.6592 62.9598 20.4153ZM21.6408 28.1031H20.0672L20.8369 26.0596H22.407L21.6408 28.1031ZM23.8266 28.1031H22.6362L23.399 26.0727H24.5963L23.8266 28.1031ZM30.8562 28.1031C29.3237 28.1031 27.4537 28.1031 25.2462 28.1031L26.0125 26.0826H31.619L30.8562 28.1031ZM26.2211 25.5208L28.8722 18.5295C31.1504 18.5591 33.0386 18.5722 34.4343 18.5755L31.8243 25.5208H26.2211ZM33.5449 28.1162H32.2724L33.0352 26.0661H34.3111L33.5449 28.1162ZM33.2405 25.5208L35.8505 18.5788H37.1401L34.5164 25.5208H33.2405ZM40.6258 26.8842C38.6828 27.8271 36.863 28.0603 34.9645 28.1063L35.7308 26.0661C36.9363 26.1275 38.1444 26.1275 39.3499 26.0661C41.1458 25.9774 41.9599 25.8 42.7706 25.3861C43.1109 25.2099 43.4308 24.9995 43.725 24.7586C42.8153 25.6198 41.7693 26.3373 40.6258 26.8842ZM44.5973 22.9417C44.2552 24.1212 43.0066 24.683 42.3293 24.9852C41.4194 25.3861 40.619 25.4419 39.0694 25.5273C38.0259 25.5886 36.9795 25.5886 35.936 25.5273L38.5358 18.6051C38.8778 18.5459 41.6931 18.1385 43.4616 19.9455C43.7011 20.182 45.0078 21.4995 44.5973 22.9352V22.9417Z" fill="white" fill-opacity="0.06"/>
<path d="M25.3593 20.4743L26.1734 18.306H25.3216L24.0286 21.7523L25.3593 20.4743Z" fill="white" fill-opacity="0.06"/>
<path d="M26.8128 15.8191C27.1347 16.09 27.3798 16.435 27.5252 16.8217C27.6705 17.2084 27.7115 17.6241 27.6441 18.0301L27.4969 18.4112L40.5197 5.92682H37.14L26.8128 15.8191Z" fill="white" fill-opacity="0.06"/>
<path d="M21.35 24.3249L23.269 19.2227L9.24403 32.6927C8.64654 34.4099 8.07642 36.0449 7.53366 37.5978L21.35 24.3249Z" fill="white" fill-opacity="0.06"/>
<path d="M56.4536 9.02486L44.1698 20.8226C44.3844 21.1294 44.5328 21.4745 44.6062 21.8373C44.6797 22.2001 44.6766 22.5735 44.5973 22.9352C44.2552 24.1146 43.0067 24.6764 42.3294 24.9786C41.464 25.3597 40.7012 25.4287 39.2884 25.5108L38.6829 26.0956L39.3499 26.0661C41.1458 25.9774 41.9599 25.8 42.7706 25.3861C43.1109 25.2099 43.4308 24.9995 43.725 24.7586C42.8215 25.6181 41.7826 26.3354 40.6464 26.8841C39.4191 27.4787 38.0898 27.8549 36.7228 27.9946L25.8073 38.4519H28.8586C29.561 39.3981 30.2611 40.3465 30.9589 41.297L60.3772 13.0429C59.3255 11.4923 57.9973 10.1322 56.4536 9.02486Z" fill="white" fill-opacity="0.06"/>
<path d="M20.1014 43.9386L3.84947 59.5474C3.98244 59.5605 4.11609 59.567 4.24976 59.567L11.9429 59.5671L15.887 55.7757L20.1014 43.9386Z" fill="white" fill-opacity="0.06"/>
<path d="M46.6463 5.92682L43.1743 5.92671L30.025 18.5425C31.7901 18.5622 33.2815 18.5722 34.4343 18.5755L31.8243 25.5208H26.2211L28.2052 20.2903L25.9749 22.4324L24.8015 25.5208H23.4572L23.854 24.4628L22.1916 26.066H22.4071L21.6408 28.1031H20.0672L6.16543 41.458C4.05826 47.4341 2.51545 51.6526 1.63632 53.5647C0.268026 56.5511 0.989867 58.0557 1.95109 58.8211L21.1688 40.3639L19.3523 40.3641C18.8261 40.3641 18.3214 40.1633 17.9494 39.8059C17.5773 39.4486 17.3683 38.9639 17.3683 38.4585L23.1528 38.4584L35.5495 26.5523L35.7308 26.0661L36.0421 26.066L36.5894 25.5371C36.3602 25.5371 36.1413 25.5371 35.9361 25.5075L38.5358 18.5852C38.8539 18.5327 41.1698 18.1976 42.9212 19.4591L54.8493 8.00307C52.3516 6.63281 49.5228 5.9169 46.6463 5.92682ZM23.8267 28.0898H22.6363L23.3991 26.0595H24.5963L23.8267 28.0898ZM30.8563 28.0898C29.3238 28.0898 27.4538 28.0898 25.2463 28.0898L26.0125 26.0693H31.6191L30.8563 28.0898ZM33.545 28.1095H32.2725L33.0352 26.0661H34.3111L33.545 28.1095ZM34.5165 25.5141H33.2405L35.8505 18.5721H37.1402L34.5165 25.5141Z" fill="white" fill-opacity="0.06"/>
</svg>
