<svg width="14" height="14" viewBox="0 0 14 14" fill="none" xmlns="http://www.w3.org/2000/svg">
<path d="M12.48 2.08671C11.5266 1.00004 9.47996 0.333374 6.99996 0.333374C4.51996 0.333374 2.47329 1.00004 1.51996 2.08671C-0.0667107 3.92671 -0.0667107 10.0867 1.51996 11.9134C2.47329 13 4.51996 13.6667 6.99996 13.6667C9.47996 13.6667 11.5266 13 12.48 11.9134C14.0666 10.0734 14.0666 3.92671 12.48 2.08671ZM6.99996 3.50004C7.16477 3.50004 7.32589 3.54891 7.46293 3.64048C7.59997 3.73205 7.70678 3.8622 7.76986 4.01447C7.83293 4.16674 7.84943 4.3343 7.81728 4.49595C7.78512 4.6576 7.70576 4.80609 7.58921 4.92263C7.47267 5.03917 7.32418 5.11854 7.16253 5.1507C7.00088 5.18285 6.83332 5.16635 6.68105 5.10327C6.52878 5.0402 6.39863 4.93339 6.30707 4.79635C6.2155 4.65931 6.16662 4.49819 6.16662 4.33337C6.16662 4.11236 6.25442 3.9004 6.4107 3.74412C6.56698 3.58784 6.77894 3.50004 6.99996 3.50004ZM7.66662 10.6667H6.33329C6.15648 10.6667 5.98691 10.5965 5.86189 10.4714C5.73686 10.3464 5.66662 10.1769 5.66662 10C5.66662 9.82323 5.73686 9.65366 5.86189 9.52864C5.98691 9.40361 6.15648 9.33337 6.33329 9.33337V7.33337C6.15648 7.33337 5.98691 7.26314 5.86189 7.13811C5.73686 7.01309 5.66662 6.84352 5.66662 6.66671C5.66662 6.4899 5.73686 6.32033 5.86189 6.1953C5.98691 6.07028 6.15648 6.00004 6.33329 6.00004H6.99996C7.17677 6.00004 7.34634 6.07028 7.47136 6.1953C7.59639 6.32033 7.66662 6.4899 7.66662 6.66671V9.33337C7.84343 9.33337 8.013 9.40361 8.13803 9.52864C8.26305 9.65366 8.33329 9.82323 8.33329 10C8.33329 10.1769 8.26305 10.3464 8.13803 10.4714C8.013 10.5965 7.84343 10.6667 7.66662 10.6667Z" fill="#878CBD"/>
</svg>
