<svg width="10" height="10" viewBox="0 0 10 10" fill="none" xmlns="http://www.w3.org/2000/svg">
<path fill-rule="evenodd" clip-rule="evenodd" d="M0.499614 0.500386C0.188954 0.811046 0.188953 1.31473 0.499614 1.62539L3.87489 5.00066L0.500271 8.37527C0.189611 8.68593 0.189611 9.18961 0.500271 9.50027C0.810931 9.81093 1.31461 9.81093 1.62527 9.50027L4.99988 6.12566L8.37461 9.50039C8.68527 9.81105 9.18895 9.81105 9.49961 9.50039C9.81027 9.18973 9.81028 8.68605 9.49962 8.37539L6.12488 5.00066L9.50027 1.62527C9.81093 1.31461 9.81093 0.81093 9.50027 0.50027C9.18961 0.18961 8.68593 0.18961 8.37527 0.50027L4.99989 3.87566L1.62461 0.500386C1.31395 0.189726 0.810274 0.189726 0.499614 0.500386Z" fill="#9A9EC8"/>
</svg>
