<svg width="119" height="166" viewBox="0 0 119 166" fill="none" xmlns="http://www.w3.org/2000/svg">
<path fill-rule="evenodd" clip-rule="evenodd" d="M32.7233 155.304C32.7233 155.899 34.8733 158.198 35.9482 159.273L58.5224 165.474H65.9645C71.0912 165.144 81.692 164.433 83.0812 164.234C84.8177 163.986 93.5001 162.498 95.9808 161.753C98.2376 161.076 101.726 158.962 103.272 158.026L103.272 158.026L103.275 158.024C103.366 157.968 103.45 157.917 103.527 157.871C103.579 157.84 103.627 157.811 103.671 157.784C104.911 157.04 112.353 150.838 112.849 150.094C113.246 149.499 114.338 145.546 114.834 143.644C115.224 138.156 115.762 130.499 116.298 122.715C114.943 127.128 113.209 132.55 112.105 135.954V131.241C113.16 129.658 114.931 125.139 116.413 121.048C116.587 118.525 116.759 116.003 116.925 113.552C115.904 117.333 114.576 122.002 113.842 124.543V112.884C114.993 111.568 116.473 107.851 117.483 105.207C117.916 98.6297 118.237 93.4463 118.307 91.55C118.555 84.8522 116.819 83.1157 115.578 82.1234C114.338 81.1311 111.361 70.7122 111.361 69.72C111.361 69.5307 111.37 68.8989 111.383 67.9971V67.9963C111.438 64.1704 111.562 55.4854 111.361 55.0839C111.268 54.8972 110.717 53.0589 110.041 50.799L110.041 50.799C108.92 47.0544 107.453 42.1523 107.144 41.6882C106.962 41.4147 106.075 39.6331 105.003 37.4768L105.002 37.4755L105.002 37.4751C103.157 33.7647 100.76 28.9455 100.446 28.7886C100.049 28.5902 98.2961 28.2098 97.4692 28.0444C97.062 27.2301 93.685 23.8915 90.4252 20.6686L90.4251 20.6686C87.7264 18.0005 85.108 15.4118 84.3215 14.4006C83.2453 13.0168 77.6899 9.63174 73.5031 7.0806L73.503 7.08053C70.935 5.51572 68.8818 4.26469 68.6932 3.98175C68.1971 3.23755 53.0649 -0.235415 45.3748 0.0126533C39.5505 0.200533 31.1649 4.94184 27.1153 7.23154C25.818 7.96507 24.9656 8.44699 24.7851 8.44699C24.0409 8.44699 14.6143 14.1526 6.17998 28.2925C-2.25436 42.4324 0.226331 61.5337 0.722469 64.5105C0.722469 67.4873 4.93964 80.3869 5.68384 80.883C6.1328 81.1824 6.49149 81.2108 6.86881 81.2408C7.11695 81.2604 7.37315 81.2808 7.66839 81.3792C8.02558 81.4982 8.09704 81.7316 8.2119 82.1067C8.33636 82.5131 8.51177 83.0858 9.1568 83.8599C10.3971 85.3483 11.8856 86.0925 13.1259 86.5886C14.3662 87.0848 15.6066 87.829 16.5989 88.5732C17.5911 89.3174 17.5911 93.7826 17.5911 94.7749C17.5911 95.2969 18.4838 98.4968 19.4381 101.918C20.2978 105 21.2076 108.261 21.5602 109.907C22.3044 113.38 23.5448 119.086 25.5293 123.799C26.6521 126.465 27.5366 128.417 28.1381 129.745C28.5997 130.763 28.8946 131.414 29.0023 131.737C29.2504 132.481 30.7388 141.164 30.7388 142.404C30.7388 143.103 31.369 146.874 31.9191 150.166L31.9192 150.167L31.9194 150.168L31.9196 150.169C32.3455 152.718 32.7233 154.979 32.7233 155.304ZM45.8708 53.0992C42.2986 53.0992 38.0979 49.6262 36.4442 47.8897C33.9148 45.6569 36.6922 39.9519 47.8553 35.9826C73.7863 28.4392 89.4126 30.9761 92.3923 31.4599C92.5482 31.4852 92.6694 31.5049 92.7558 31.5172C94.4922 31.7653 99.9497 37.2228 101.686 39.2073C103.423 41.1919 102.43 45.161 100.446 46.6494C98.4613 48.1378 50.336 53.0992 45.8708 53.0992ZM43.3905 104.202C50.1711 104.036 63.881 103.705 64.4763 103.705C65.2206 103.705 69.4377 103.209 71.9184 100.729C74.3991 98.2479 77.624 93.5346 76.3836 92.7904C76.0797 92.608 75.6268 92.2469 75.0688 91.8019C73.3495 90.4311 70.632 88.2643 68.1974 88.0771C64.9725 87.829 46.1193 88.0771 42.6463 89.5655C39.1733 91.0539 38.1811 91.55 38.1811 93.5346C38.1811 94.1176 38.0954 95.0432 37.9996 96.0786C37.7693 98.5676 37.4803 101.691 38.1811 102.217C38.3703 102.359 38.5415 102.522 38.7205 102.693C39.4799 103.417 40.3792 104.275 43.3905 104.202ZM102.927 94.2788C100.557 93.8481 98.1884 92.1085 96.4687 90.8457L96.4678 90.8451C96.207 90.6536 95.9612 90.473 95.7325 90.3097V88.3251C96.0633 87.4156 96.7744 85.4475 96.9729 84.8522C97.1359 84.363 98.0492 83.338 98.9378 82.3407L98.9379 82.3406C99.4012 81.8206 99.8577 81.3081 100.198 80.8831C100.73 80.2174 102.478 79.4803 104.212 78.7484C105.71 78.1166 107.198 77.4887 107.888 76.914C108.973 76.0096 109.135 76.5559 109.528 77.8798L109.528 77.8799C109.674 78.3718 109.852 78.9709 110.121 79.6428C111.113 82.1234 113.345 89.5655 111.857 91.5501C110.369 93.5346 105.655 94.7749 102.927 94.2788ZM110.121 132.233C109.724 132.63 108.963 132.068 108.632 131.737L108.146 119.573L112.849 116.109C112.849 119.334 112.8 126.131 112.601 127.52C112.353 129.257 110.617 131.737 110.121 132.233ZM35.204 120.078L35.7001 124.047L37.4366 125.039V120.822L35.204 120.078ZM38.4289 121.566C38.4289 122.559 38.7596 126.445 38.925 128.264L43.1422 133.474L45.3748 133.722V125.535L38.4289 121.566ZM48.5997 134.218C48.3516 134.218 48.1035 127.024 48.1035 126.28L57.7782 129.008V137.443C57.4475 137.939 56.5379 139.08 55.5456 139.675C54.5681 140.262 52.6661 139.616 51.7825 139.316C51.545 139.235 51.381 139.179 51.3284 139.179C51.2044 139.179 50.5842 137.939 49.964 136.699C49.3439 135.458 48.7237 134.218 48.5997 134.218ZM61.2512 140.668L64.4761 142.404C66.8741 142.735 72.1166 142.851 73.9027 140.668C75.6888 138.485 75.143 132.647 74.6469 130.001L61.2512 129.257V140.668ZM79.1121 141.908L78.616 130.001L91.7636 127.52C91.7636 128.851 92.1641 130.873 92.5746 132.945L92.5746 132.945C93.2355 136.283 93.9221 139.749 93.004 140.668C91.5156 142.156 82.0889 144.141 81.3447 143.893C80.7494 143.694 79.6083 142.487 79.1121 141.908ZM95.2366 126.28C95.4847 126.776 95.9808 130.249 96.2289 133.722C96.3764 135.787 96.2607 136.975 96.1949 137.651C96.15 138.112 96.1283 138.335 96.2289 138.435C96.4769 138.683 103.175 140.42 106.152 135.954C106.4 132.647 106.747 125.139 106.152 121.566L95.2366 126.28ZM44.6306 140.916C43.1422 138.518 40.0661 133.622 39.6692 133.226L44.8786 136.202L44.6306 140.916ZM52.8168 142.404C51.0804 141.743 47.5082 139.973 47.1113 138.187V143.644C48.2689 144.554 50.9315 146.373 52.3207 146.373L52.8168 142.404ZM56.0417 142.9C55.8433 141.114 57.7782 140.006 58.7705 139.675C59.2491 139.477 59.3007 139.758 59.2666 139.923C58.4728 142.9 62.7396 144.637 64.9722 145.133L65.7164 151.831C61.9458 151.632 58.1917 149.267 56.7859 148.11C56.6206 147.117 56.2402 144.686 56.0417 142.9ZM70.4297 144.637L70.6778 153.071L80.1044 153.815L79.8563 147.365L75.3911 143.893L70.4297 144.637ZM84.3216 146.621V152.575C87.8938 153.17 92.0944 151.665 93.7482 150.838L93.252 144.637C91.4659 145.232 86.5542 146.208 84.3216 146.621ZM97.4692 141.66V149.598L105.159 145.381L103.919 141.164C102.596 141.577 99.4538 142.255 97.4692 141.66ZM110.617 133.97L110.865 138.931L106.648 143.893L106.4 138.435L110.617 133.97Z" fill="url(#paint0_linear_2374_130063)"/>
<defs>
<linearGradient id="paint0_linear_2374_130063" x1="59.1654" y1="0" x2="59.1654" y2="206.5" gradientUnits="userSpaceOnUse">
<stop stop-color="#383B67"/>
<stop offset="1" stop-color="#383B67" stop-opacity="0"/>
</linearGradient>
</defs>
</svg>
