<svg width="22" height="20" viewBox="0 0 22 20" fill="none" xmlns="http://www.w3.org/2000/svg">
<g filter="url(#filter0_d_2561_134092)">
<path fill-rule="evenodd" clip-rule="evenodd" d="M10.6792 4.42935C10.6983 1.98364 12.7084 0 15.1725 0C17.6477 0 19.6578 2.00277 19.6578 4.46467L19.6585 4.4654C19.6585 6.93907 17.6484 8.93375 15.1769 8.93375L10.869 12.0674C10.7108 13.7567 9.27311 15.0833 7.53816 15.0833C5.94227 15.0833 4.5936 13.9525 4.26618 12.4522L2 11.545V7.33124L5.8319 8.87415C6.42714 8.51289 7.10037 8.35175 7.88103 8.42239L10.6792 4.42935ZM6.0741 13.1724C5.83622 13.077 5.59822 12.9816 5.36174 12.8915C6.56032 15.1312 10.0015 13.1034 10.0023 11.7407C10.0015 10.1507 8.53219 9.00733 7.0062 9.34578L8.03113 9.75781C9.03546 10.1588 9.52842 11.289 9.12228 12.2903C8.72054 13.2917 7.57789 13.7825 6.57209 13.3705C6.40653 13.3057 6.24034 13.239 6.0741 13.1724ZM12.1618 4.4654C12.1618 6.12236 13.5134 7.45779 15.1769 7.45779C16.828 7.4622 18.1804 6.12678 18.1804 4.4654C18.1804 2.8158 16.8288 1.47302 15.1769 1.47302C13.5097 1.47302 12.1618 2.8158 12.1618 4.4654ZM13.478 4.41463C13.478 3.43921 14.2683 2.64878 15.2439 2.64878C16.2136 2.64878 17.0098 3.4365 17.0098 4.41463C17.0098 5.39277 16.2136 6.18049 15.2439 6.18049C14.2656 6.18049 13.478 5.39006 13.478 4.41463Z" fill="#A2A5C6"/>
</g>
<defs>
<filter id="filter0_d_2561_134092" x="0" y="0" width="21.6587" height="19.0833" filterUnits="userSpaceOnUse" color-interpolation-filters="sRGB">
<feFlood flood-opacity="0" result="BackgroundImageFix"/>
<feColorMatrix in="SourceAlpha" type="matrix" values="0 0 0 0 0 0 0 0 0 0 0 0 0 0 0 0 0 0 127 0" result="hardAlpha"/>
<feOffset dy="2"/>
<feGaussianBlur stdDeviation="1"/>
<feComposite in2="hardAlpha" operator="out"/>
<feColorMatrix type="matrix" values="0 0 0 0 0 0 0 0 0 0 0 0 0 0 0 0 0 0 0.12 0"/>
<feBlend mode="normal" in2="BackgroundImageFix" result="effect1_dropShadow_2561_134092"/>
<feBlend mode="normal" in="SourceGraphic" in2="effect1_dropShadow_2561_134092" result="shape"/>
</filter>
</defs>
</svg>
