<svg class="w-full" viewBox="0 0 1455 848" fill="none" xmlns="http://www.w3.org/2000/svg">
<path d="M902.21 465.925L838.05 466.465C759.18 423.185 615.41 394.215 451.1 394.215C278.58 394.215 128.7 426.155 52.82 473.065L0 473.505V542.505C0 542.655 0 542.805 0 542.965C0 625.095 202 691.675 451.1 691.675C700.2 691.675 902.21 625.095 902.21 542.965C902.21 542.805 902.21 542.655 902.21 542.505V465.925Z" fill="url(#paint0_linear_401_4)"/>
<path d="M451.1 619.025C700.236 619.025 902.2 552.441 902.2 470.305C902.2 388.169 700.236 321.585 451.1 321.585C201.964 321.585 0 388.169 0 470.305C0 552.441 201.964 619.025 451.1 619.025Z" fill="#FF922E"/>
<path d="M451.1 561.676C604.171 561.676 728.26 520.768 728.26 470.306C728.26 419.843 604.171 378.936 451.1 378.936C298.029 378.936 173.94 419.843 173.94 470.306C173.94 520.768 298.029 561.676 451.1 561.676Z" fill="white"/>
<path d="M451.38 376.395H438.53C428.53 376.535 418.687 376.849 409 377.335L412.14 384.265C425.03 383.635 438.24 383.315 451.38 383.315V376.315V376.395ZM367.56 380.525L366.56 380.635H366.25H366.06H365.94H365.76H365.62H365.45H365.31H365.13H365H364.82H364.14H364.02H362.63H362.51H362H361.88H361.52H361.41H361.27H361H360.86H360.72H360.58H360.29H360H359.66H359.51H359.37H359.22H359H358.85H358.71H358.56H358.25H357.94H357.63H357.33H357.02C347.047 382.475 337.373 384.129 328 385.595L337.22 391.915C349.01 390.045 361.32 388.455 373.81 387.195L367.57 380.485L367.56 380.525ZM291.18 392.595C279.85 395.145 269.11 397.945 259.03 400.985L258.79 401.065L258.55 401.135H258.44H258.34H258.23H258.14H258.04L272.48 406.275C282.09 403.345 292.48 400.635 303.26 398.205L291.26 392.405L291.18 392.595ZM228.96 411.595C220.705 414.937 212.669 418.794 204.9 423.145L223.29 426.665C230.481 422.645 237.916 419.074 245.55 415.975L229 411.575L228.96 411.595ZM186.34 435.745C182.442 438.927 178.877 442.495 175.7 446.395C175.67 446.43 175.643 446.466 175.62 446.505C175.599 446.543 175.572 446.577 175.54 446.605L175.46 446.705L175.39 446.805L175.31 446.905L175.23 447.005L175.15 447.105V447.155V447.205V447.255V447.305V447.365C175.152 447.389 175.152 447.412 175.15 447.435V447.435L175.08 447.545L174.95 447.725L195.67 449.305C199.004 444.685 202.935 440.525 207.36 436.935L187.59 434.355L186.34 435.745ZM167.27 462.965C166.971 464.22 166.75 465.493 166.61 466.775V466.775C166.61 466.775 166.61 466.845 166.61 466.885V466.995V467.105V467.175V467.235V467.395V467.545V468.905V469.015V469.065V469.115V469.225V469.395V469.505V469.555V469.605V469.715V469.765V469.815V469.925V469.975V470.025V470.075V470.225V470.275V470.325V470.375V470.425V470.475V470.575V470.625V470.725C166.61 470.725 166.61 470.835 166.61 470.885V470.985C166.67 472.134 166.79 473.279 166.97 474.415V474.415C166.964 474.449 166.964 474.482 166.97 474.515V474.515V474.565V474.655V474.885V474.985C167.03 475.305 167.09 475.615 167.16 475.935L188.37 475.445C187.452 471.155 187.503 466.714 188.52 462.445L167.32 461.905L167.27 462.965ZM194 489.295L173.24 490.825C175.312 493.855 177.655 496.69 180.24 499.295V499.295L180.34 499.395L180.44 499.495L180.54 499.605H180.59V499.655L180.64 499.705H180.69H180.74L180.79 499.755V499.805V499.855H180.84L180.89 499.905L180.99 499.995L181.09 500.085L181.19 500.185L181.29 500.285C181.368 500.347 181.441 500.414 181.51 500.485V500.485C182.39 501.295 183.3 502.105 184.24 502.905L204.08 500.375C200.287 497.101 196.902 493.38 194 489.295ZM222.3 513.395L203.84 516.875L205 517.545L205.17 517.635L205.32 517.715H205.39H205.46H205.53H205.59H205.64H205.7H205.76H205.82H205.89H205.98L206.13 517.795L206.28 517.875C210.233 520.049 214.43 522.155 218.87 524.195L219.06 524.285L219.24 524.365H219.35H219.41H219.51H219.57H219.66L219.82 524.435H219.89H219.94H220H220.05H220.1H220.16H220.22H220.28H220.36H220.43H220.51H220.58H220.67L220.85 524.515L221.04 524.595L221.24 524.675C222.947 525.449 224.693 526.202 226.48 526.935L243.17 522.595C235.618 519.479 228.27 515.888 221.17 511.845L222.3 513.395ZM270.92 533.695L256.36 538.805L260.14 539.955L260.38 540.025L260.62 540.095H260.73H260.84H260.96H261.07H261.18L261.4 540.155H261.51H261.62H261.72H261.82H261.93H262.02H262.12H262.22H262.33H262.43H262.51H262.61H262.7H262.8H262.87H262.97H263.05H263.14H263.19H263.26H263.32H263.39H263.44H263.53H263.59H263.64H263.73H263.78H263.84H263.89H263.98H264.03H264.09H264.15H264.23H264.3H264.37H264.43H264.49H264.55H264.63H264.68H264.73H264.82H264.87H264.93H264.98H265.07H265.17H265.26H265.31H265.38H265.48H265.55H265.66H265.72H265.77H265.87H265.97H266.07H266.19H266.26H266.38H266.45H266.56H266.63H266.76L266.97 540.215L267.2 540.275H267.33H267.4H267.54H267.61H267.74L267.96 540.335L268.19 540.395H268.32H268.39H268.53H268.6H268.73L268.96 540.465L269.19 540.525H269.33H269.41H269.56H269.64H269.8L270.04 540.595L270.28 540.665L270.52 540.725L270.93 540.835L271.17 540.895L271.41 540.965L271.65 541.025L272.06 541.135L272.3 541.205L272.54 541.265L272.78 541.325L273.19 541.435L273.44 541.505L273.69 541.565L273.93 541.635L274.18 541.695H274.34L274.58 541.755L274.83 541.815L275.07 541.875H275.22H275.3H275.45H275.53H275.69L275.93 541.935L276.16 541.995H276.3H276.38H276.51H276.59H276.74L276.97 542.055L277.2 542.115H277.35H277.47H277.59H277.66H277.79H277.92H278.05L278.27 542.175H278.38H278.45H278.56H278.63H278.68H278.78H281H281.06H281.16H281.21H281.28H281.36H281.47H281.57H281.64H281.75H281.8H281.86H281.96H282.07H282.14H282.22H282.28H282.33H282.43H282.49H282.55H282.64H282.7H283H283.07H283.15H283.2H283.28H283.34H283.41H283.46H283.57H283.65H283.75H283.83H283.93H283.98H284.06H284.16H284.21H284.29H284.38H284.49H284.58H284.69H284.78H284.89H284.98H285.09H285.2H285.32H285.44H285.55H285.67H285.78H285.91H286.03H286.15L286.4 542.235H286.52H286.64H286.76H286.89H287.01L287.27 542.295L287.53 542.355L287.79 542.415L288.61 542.605L300.71 536.835C289.96 534.385 279.66 531.645 270.12 528.685L270.92 533.695ZM335.4 548.395L326 554.705C327.96 555.025 329.93 555.335 331.91 555.635H332.2H332.47H332.73H332.86H333.03H333.15H333.64H333.73H334.16H334.28H334.37H334.71H334.84H334.94H335.07H335.23H335.37H335.5H335.64L335.92 555.685H336.21H336.5C345.793 557.019 355.34 558.202 365.14 559.235L371.54 552.545C359.08 551.255 346.81 549.635 335.06 547.735L335.4 548.395ZM410.15 556.175L406.85 563.095H409.21H409.52H410.65H411.65C423.93 563.655 436.48 563.965 449.21 563.995L449.37 556.995C436.23 556.995 423.04 556.605 410.16 555.945L410.15 556.175ZM527 553.615C514.48 554.855 501.56 555.785 488.6 556.385L491.6 563.325L495.65 563.135H495.97H496.29H504.15H504.46H504.77H505.08H505.4C514.793 562.542 524.01 561.799 533.05 560.905L527 553.615ZM597.91 542.615C587.03 545.015 575.52 547.165 563.7 549.005L572.77 555.345C579.743 554.265 586.55 553.095 593.19 551.835L594.19 551.635L594.46 551.585L594.73 551.535L595 551.485H595.17H595.28H595.44H595.53H595.69H595.94L596.19 551.435H596.33H596.47H596.6H596.67H597H597.11H597.23H597.3H597.45H597.51H597.61H597.79H597.89H597.95H598.01H598.07H598.17H598.3H598.36H598.51H598.59H598.66H598.74H598.84H598.93H599.04H599.2H599.32H599.41H599.52H599.62H599.74H599.84H599.95H600.07H600.19H600.31H600.41H600.53H600.63H600.75H600.86H600.98H601.23H601.36H601.49H601.62H601.75H601.88H602.01H602.14L602.41 551.385L602.67 551.335L602.94 551.285L603.21 551.225C605.17 550.819 607.11 550.402 609.03 549.975L598 542.595L597.91 542.615ZM655.91 525.195C647.65 528.545 638.55 531.715 628.91 534.615L643.23 539.805C653.72 536.655 663.48 533.255 672.44 529.625L656 525.175L655.91 525.195ZM695.91 502.945C690.44 507.316 684.601 511.203 678.46 514.565L696.76 518.135C697.84 517.535 698.9 516.935 699.93 516.325L700.03 516.265H700.08L700.16 516.215H700.22H700.27H700.33H700.39H700.45H700.51H700.58H700.64H700.71H700.77H700.84H700.9H700.98H701.05L701.13 516.165L701.28 516.065L701.43 515.975C704.003 514.409 706.447 512.812 708.76 511.185L708.9 511.085L709.04 510.985L709.18 510.885L709.31 510.795H709.37H709.44L709.5 510.745H709.56H709.61H709.67H709.72H709.78H709.83H709.89H709.95H710.01L710.12 510.655L710.24 510.565L710.36 510.475C711.49 509.625 712.58 508.775 713.64 507.915L693.93 505.275L695.91 502.945ZM714.13 477.815C712.869 482.434 710.749 486.773 707.88 490.605L728.57 492.235C729.593 490.83 730.541 489.371 731.41 487.865V487.865L731.47 487.765V487.705V487.645V487.595V487.535V487.485V487.415V487.365V487.315V487.265V487.165C731.468 487.132 731.468 487.099 731.47 487.065L731.53 486.965C731.53 486.965 731.53 486.895 731.53 486.865L731.59 486.765C732.734 484.53 733.649 482.185 734.32 479.765V479.765V479.715V479.655V479.605V479.555L713.13 478.965L714.13 477.815ZM730 450.495L709.21 451.965C711.818 455.858 713.639 460.223 714.57 464.815L735.8 464.395C735.62 463.395 735.39 462.475 735.13 461.525V461.415V461.305V461.255V461.205V461.155V461.105V461.055V461.005V460.955V460.845V459.845V459.795V459.745V459.685V459.625V459.555V459.485V459.415V459.305C735.134 459.269 735.134 459.232 735.13 459.195V459.085V458.975C735.126 458.939 735.126 458.902 735.13 458.865V458.755C734.067 456.057 732.726 453.477 731.13 451.055L730 450.495ZM700 424.395L681.46 427.825C687.35 431.227 692.917 435.16 698.09 439.575L718 437.055L716.6 435.865L716.53 435.805L716.46 435.745L716.39 435.695L716.33 435.645V435.595L716.27 435.545V435.495L716.21 435.445H716.15H716.09L715.97 435.355L715.85 435.255C710.846 431.243 705.548 427.613 700 424.395V424.395ZM648 402.335L633.33 407.395C642.81 410.395 651.68 413.615 659.72 417.015L676.5 412.715C672.56 411.045 668.44 409.415 664.17 407.835L663.95 407.755L663.74 407.685L663.53 407.615H663.42H663.33H663.24H663.17H663.08H663.01H662.92H662.83H662.75H662.66H662.6H662.52H662.46H662.38H662.33H662.26H662.2H662.11H662.05H661.95L661.75 407.545L661.55 407.475L661.42 407.425H661.35H661.22L661.01 407.355L660.8 407.275C656.887 405.895 652.86 404.562 648.72 403.275L648 402.335ZM578.67 386.265L569.16 392.535C580.84 394.455 592.16 396.695 602.92 399.175L615.16 393.395C609.38 392.062 603.447 390.792 597.36 389.585L597.08 389.525H596.8L595.8 389.325H595.51L595.23 389.265H595.09L594.52 389.155H594.23L593.95 389.095L592.95 388.905L592.67 388.855L592.39 388.795L592.1 388.745L591.67 388.665L591.39 388.605L591 388.395L590.72 388.345L590.44 388.285L590.01 388.205L589.72 388.155L589.43 388.105L589.15 388.055H588.87L588.58 388.005H588.44H588.16H587.88L587.6 387.955L587.31 387.905L587.02 387.855H586.88L586.59 387.805L586.31 387.755L586.03 387.705H585.9H585.76H585.63H585.5H585.37H585.24H585.1L584.83 387.655H584.57H584.44H584.32H584.19H584.08H583.96H583.86H583.74H583.63H583.52H583.39H583.28H583.15H583.05H582.93H582.84H582.72H582.67H582.58H582.47H582.37H582.17H582.07H581H580.89H580.7H580.6H580.4H580.3H580.18H580.08H579.89H579.76H579.68H579.54H579.46H579.29L579.02 387.605H578.8L578.67 386.265ZM498.05 377.645L494.6 384.565C507.51 385.265 520.36 386.295 532.79 387.625L539.35 380.955C536.61 380.655 533.86 380.385 531.08 380.115H530.78H530.49H530.35H528H527.85H527.69H527.38H527.07H526.76C517.387 379.275 507.837 378.589 498.11 378.055L498.05 377.645Z" fill="#FF922E"/>
<path d="M451.1 364.706C492.805 364.6 534.467 367.374 575.79 373.006C613.93 378.326 648.19 385.936 677.61 395.636C707.03 405.336 730.12 416.636 746.26 429.206C762.96 442.206 771.43 456.056 771.43 470.306C771.43 484.556 763 498.396 746.26 511.396C730.12 523.966 707.03 535.266 677.61 544.956C648.19 554.646 613.93 562.276 575.79 567.596C534.466 573.219 492.804 575.989 451.1 575.886C409.399 575.989 367.74 573.219 326.42 567.596C288.28 562.276 254.02 554.656 224.6 544.956C195.18 535.256 172.08 523.986 156 511.396C139.3 498.396 130.83 484.546 130.83 470.286C130.83 456.026 139.3 442.206 156 429.186C172.13 416.606 195.23 405.316 224.65 395.616C254.07 385.916 288.33 378.306 326.47 372.986C367.789 367.354 409.448 364.581 451.15 364.686M451.15 362.936C271.31 362.936 125.51 410.996 125.51 470.286C125.51 529.576 271.26 577.666 451.1 577.666C630.94 577.666 776.75 529.596 776.75 470.306C776.75 411.016 631 362.956 451.1 362.956L451.15 362.936Z" fill="#F7FAF6"/>
<path d="M451.1 371.166C490.253 371.067 529.366 373.67 568.16 378.956C603.97 383.956 636.16 391.096 663.75 400.206C691.34 409.316 713.06 419.916 728.2 431.716C743.89 443.936 751.84 456.926 751.84 470.306C751.84 483.686 743.84 496.676 728.2 508.896C713.06 520.706 691.37 531.305 663.75 540.415C636.13 549.525 604 556.665 568.16 561.665C529.366 566.951 490.253 569.554 451.1 569.456C411.967 569.551 372.875 566.948 334.1 561.665C298.29 556.665 266.1 549.515 238.5 540.415C210.9 531.315 189.15 520.706 174 508.896C158.32 496.676 150.37 483.696 150.37 470.306C150.37 456.916 158.32 443.936 174 431.716C189.15 419.916 210.83 409.306 238.45 400.206C266.07 391.106 298.24 383.946 334.05 378.956C372.841 373.67 411.951 371.067 451.1 371.166M451.1 369.416C282.1 369.416 145.1 414.586 145.1 470.306C145.1 526.026 282.1 571.206 451.15 571.206C620.2 571.206 757.21 526.036 757.21 470.306C757.21 414.576 620.13 369.396 451.1 369.396V369.416Z" fill="#F7FAF6"/>
<path d="M600.52 508.315C597.337 507.895 594.101 508.46 591.25 509.935H545.47L539 515.885C537.57 517.195 533.79 518.075 529.56 518.075L538.41 509.985H531.71L525.26 515.875C523.82 517.185 520.04 518.065 515.81 518.065L524.65 509.985H518L511.56 515.865C510.12 517.175 506.34 518.055 502.11 518.055L510.94 509.995H461.57H427.8C429.04 508.435 433.32 507.345 438.21 507.345H463.79L503 461.825H433.88C415.88 480.745 397.88 502.105 379.88 521.515C376.88 524.795 384.21 528.825 394.6 528.855C458.33 529.095 522.05 528.625 585.78 528.855C589.42 528.855 592.63 528.075 593.58 526.915L606.08 511.745C607.27 510.305 604.88 508.755 600.52 508.315Z" fill="#FF922E"/>
<path d="M546 411.776V411.726H475.27C468.65 411.726 463.27 413.496 463.27 415.726H498.45C496.81 417.186 492.65 418.176 487.92 418.216L474.43 418.356C468.35 424.862 462.277 431.379 456.21 437.906H523.6L542.69 415.706H544.55C547.63 415.706 550.36 414.966 550.7 413.956C551.04 412.946 548.92 411.986 546 411.776Z" fill="url(#paint1_linear_401_4)"/>
<path d="M602.54 445.396C602.54 445.196 602.45 445.006 602.39 444.806C598.66 431.076 563.24 420.636 521.39 420.636H400.36C390.3 420.636 381.36 422.716 377.88 425.826L368.36 433.426H357.8C350.51 433.426 343.63 434.546 339.19 436.426H399.12L414.77 436.506C422.56 436.556 428.11 438.886 426.93 441.306L412.79 454.096H406.13L419.61 441.776H415.38L401.9 454.156H393.38L406.88 441.836C384.6 441.696 366.56 441.546 344.29 441.406C338.92 441.406 333.95 442.346 331.46 443.906C330.551 444.435 329.766 445.155 329.16 446.016C328.42 447.166 331.34 448.246 334.88 448.096H335C338.86 447.906 340.52 446.786 340.64 446.706H379.42C379.42 447.706 376.89 448.566 373.78 448.566H353.51C325.43 476.076 305.76 495.896 297.59 502.026C289.42 508.156 296.39 510.686 302.33 511.646C305.063 512.068 307.825 512.272 310.59 512.256H361.75L395.75 479.476H385.75C380.3 479.476 375.88 478.026 375.88 476.226H433C457.21 487.456 481.42 498.806 505.63 510.046C528.9 510.046 552.16 509.926 575.43 509.926L494.67 474.126L521.36 474.366C561.36 474.366 595.78 464.816 601.78 451.786C602.731 449.798 602.998 447.551 602.54 445.396V445.396ZM397.08 458.556H389.25L393.07 455.076H400.88L397.08 458.556ZM407.94 458.556H402L405.79 455.096H411.73L407.94 458.556ZM442.94 458.556C435.32 458.556 426.02 458.556 415.04 458.556L418.85 455.116H446.73L442.94 458.556ZM419.88 454.166L433 442.216C444.32 442.266 453.71 442.286 460.64 442.296L447.64 454.156L419.88 454.166ZM456.3 458.586H449.97L453.78 455.116H460.12L456.3 458.586ZM454.8 454.166L467.8 442.306H474.14L461.14 454.156L454.8 454.166ZM491.53 456.486C482.215 457.935 472.798 458.634 463.37 458.576L467.18 455.096C474.3 455.216 480.4 455.176 485.18 455.096C494.1 454.936 498.18 454.636 502.1 453.926C503.698 453.653 505.28 453.296 506.84 452.856C501.823 454.45 496.691 455.661 491.49 456.476L491.53 456.486ZM511.27 449.746C509.66 451.746 503.36 452.746 499.99 453.236C495.46 453.926 491.5 454.016 483.77 454.166C477.67 454.286 472.38 454.246 468.19 454.166L481.13 442.346C482.88 442.246 496.82 441.546 505.63 444.636C506.78 445.036 513.19 447.286 511.23 449.736L511.27 449.746Z" fill="#FF922E"/>
<path d="M460.68 442.295C453.75 442.295 444.36 442.295 433.04 442.215L419.84 454.155H447.71L460.68 442.295ZM424.4 453.095L435.26 443.275L456.15 443.335L445.46 453.095H424.4Z" fill="white"/>
<path d="M402.03 458.545L407.94 458.535L411.76 455.085H405.81L402.03 458.545Z" fill="white"/>
<path d="M389.25 458.566H397.08L400.88 455.096H393.07L389.25 458.566ZM395.31 456.136H396.31L394.81 457.506H393.81L395.31 456.136Z" fill="white"/>
<path d="M605.72 445.395C605.681 445.189 605.631 444.986 605.57 444.785C603.7 437.895 594.02 431.525 578.33 426.865C562.64 422.205 542.49 419.655 521.42 419.655H400.36C389.03 419.655 378.81 422.015 374.91 425.515L370.17 429.295L366.23 432.395H357.8C349.58 432.395 341.67 433.675 336.66 435.825L332.66 437.515H399.07L414.65 437.595C417.03 437.554 419.4 437.929 421.65 438.705C423.13 439.285 423.9 440.015 423.85 440.755H413.14L412.38 441.455L399.66 453.095H397.93L402.86 448.595L409.86 442.185L411.37 440.805H406.92L375.49 440.595L344.35 440.395H344C337.53 440.395 331.63 441.565 328.62 443.465C327.582 444.059 326.687 444.875 326 445.855C325.47 446.685 326.09 447.535 327.71 448.195C329.782 448.916 331.967 449.254 334.16 449.195C334.52 449.195 334.9 449.195 335.26 449.195H335.45C337.807 449.144 340.136 448.677 342.33 447.815H351L350.52 448.285C345.08 453.619 339.96 458.652 335.16 463.385C315.46 482.765 301.23 496.765 294.71 501.665C285.2 508.795 294.55 511.615 300.96 512.665C304.16 513.152 307.393 513.389 310.63 513.375H364L364.74 512.665L398.74 479.885L400.18 478.495H385.72C383.703 478.592 381.692 478.198 379.86 477.345H431.32C443.11 482.825 455.08 488.405 466.66 493.805C478.06 499.125 489.82 504.605 501.42 509.995H505.33C481.21 498.795 457.09 487.485 432.96 476.295H375.85C375.85 478.095 380.27 479.545 385.72 479.545H395.72L361.72 512.325H310.59C307.825 512.342 305.063 512.138 302.33 511.715C296.39 510.715 289.33 508.285 297.59 502.095C305.85 495.905 325.43 476.145 353.51 448.635H373.74C376.85 448.635 379.38 447.795 379.38 446.775H340.6C340.48 446.855 338.82 447.975 334.96 448.165H334.17C330.94 448.165 328.44 447.165 329.17 446.075C329.776 445.215 330.561 444.495 331.47 443.965C333.92 442.425 338.76 441.465 344.02 441.465H344.3C366.57 441.605 384.61 441.755 406.89 441.895L393.39 454.215H401.91L415.39 441.895H419.62L406.14 454.215H412.8L426.93 441.395C428.11 438.975 422.56 436.645 414.77 436.595L399.12 436.515H339.19C343.63 434.615 350.51 433.515 357.8 433.515H368.36L377.88 425.915C381.32 422.805 390.3 420.725 400.36 420.725H521.42C563.24 420.725 598.66 431.165 602.42 444.895C602.48 445.095 602.53 445.285 602.57 445.485C603.009 447.636 602.728 449.87 601.77 451.845C595.77 464.845 561.34 474.425 521.35 474.425L494.66 474.185L575.42 509.985H579.42L578.01 509.365L531.01 488.535L501.15 475.295L521.27 475.475H521.35C541.5 475.475 561.04 473.115 576.35 468.825C591.66 464.535 601.9 458.535 604.91 451.995C605.897 449.944 606.181 447.625 605.72 445.395V445.395ZM423.82 441.135L422.39 442.395L422.61 442.185L423.82 441.085V441.135Z" fill="white"/>
<path d="M415 458.525H423.77H442.9L446.69 455.065H418.81L415 458.525ZM421 456.135H442.1L440.62 457.485H419.52L421 456.135Z" fill="white"/>
<path d="M506.8 452.846C505.24 453.286 503.658 453.643 502.06 453.916C498.06 454.626 494.06 454.916 485.14 455.086C482.53 455.086 479.52 455.156 476.14 455.156C473.35 455.156 470.33 455.156 467.14 455.086L463.33 458.566C472.758 458.624 482.174 457.925 491.49 456.476C496.678 455.655 501.796 454.442 506.8 452.846ZM468 457.446L469.39 456.166C471.67 456.166 473.96 456.216 476.22 456.216C479.22 456.216 482.34 456.216 485.36 456.136H486.25C480.196 456.915 474.103 457.352 468 457.446V457.446Z" fill="white"/>
<path d="M483.73 454.155C491.46 454.005 495.42 453.915 499.95 453.225C503.32 452.705 509.62 451.745 511.23 449.735C513.23 447.285 506.78 445.035 505.59 444.625C499.77 442.625 491.7 442.195 486.39 442.195C483.68 442.195 481.68 442.295 481.09 442.335L468.15 454.155C470.44 454.155 473.05 454.225 475.94 454.225C478.35 454.225 481 454.205 483.73 454.155ZM483.43 443.295C484.24 443.295 485.25 443.295 486.43 443.295C491.43 443.295 498.36 443.665 503.3 445.395C505.22 446.065 509.54 447.815 508.18 449.515C506.96 451.055 501.76 451.845 498.65 452.315C494.73 452.915 491.4 452.995 483.58 453.155C481.06 453.205 478.5 453.225 475.98 453.225H472.67L483.43 443.295Z" fill="white"/>
<path d="M474.07 442.306H467.73L454.73 454.166H461.07L474.07 442.306Z" fill="white"/>
<path d="M456.26 458.575L460.08 455.085H453.74L449.93 458.555H456.26V458.575Z" fill="white"/>
<path d="M313.51 364.396C359.319 358.135 405.506 355.055 451.74 355.176V321.596H451.1C388.1 321.596 328.19 325.846 273.75 333.536L313.51 364.396Z" fill="#F7FAF6"/>
<path d="M670.17 340.285L623.25 368.175C665 375.815 701.16 385.985 730.71 398.395L806.65 378.765C769.54 363.125 723.13 350.005 670.17 340.285Z" fill="white"/>
<path d="M12.0898 508.625V577.245C26.2698 597.035 52.4498 615.305 87.9998 631.165V558.165L13.9998 505.995C13.3598 506.865 12.7198 507.745 12.0898 508.625Z" fill="#EDE8E8"/>
<path d="M254.17 676.766C307.17 685.256 365.98 690.436 428.11 691.456V618.836L254.17 604.136V676.766Z" fill="#EDE8E8"/>
<path d="M652.73 675.995C707.96 666.875 756.73 654.135 796.15 638.715V571.045L652.73 606.595V675.995Z" fill="#EDE8E8"/>
<path d="M902.21 542.936C902.21 542.776 902.21 542.626 902.21 542.476V465.926L896.35 465.976L890.2 504.516V577.136C898 566.156 902.21 554.706 902.21 542.936Z" fill="#EDE8E8"/>
<path d="M806 470.396C806 479.486 802.84 488.526 796.61 497.266L890.22 504.526C898.06 493.526 902.22 482.086 902.22 470.316C902.126 461.619 899.945 453.073 895.86 445.396L801 450.686C804.222 456.76 805.937 463.52 806 470.396V470.396Z" fill="white"/>
<path d="M796.15 571.045L724.3 549.965C692.44 561.755 654.45 571.165 611.38 577.905L652.73 606.595C707.55 597.985 756.25 585.835 796.15 571.045Z" fill="white"/>
<path d="M254.17 604.135C307.17 612.635 366.01 617.806 428.17 618.836L433.17 587.016C387.452 586.377 341.838 582.494 296.67 575.396L254.17 604.135Z" fill="white"/>
<path d="M12.0898 504.615C26.1698 524.275 52.0898 542.415 87.1998 558.195L163.84 540.035C135.93 527.235 116.49 512.975 106.09 497.665L12.0898 504.615Z" fill="white"/>
<path d="M15.48 431.585L110.61 440.395C123.44 425.295 145.13 411.395 175.06 399.065L96.61 378.335C59.45 393.875 31.52 411.925 15.48 431.585Z" fill="white"/>
<path d="M313.51 364.396C359.319 358.135 405.506 355.055 451.74 355.176V321.596H451.1C388.1 321.596 328.19 325.846 273.75 333.536L313.51 364.396Z" fill="white"/>
<path d="M937.22 349.215L873.07 349.755C794.2 306.465 650.42 277.505 486.07 277.505C313.54 277.505 163.66 309.445 87.78 356.355L35 356.795V425.795C35 425.945 35 426.095 35 426.255C35 508.395 237 574.935 486.12 574.935C735.24 574.935 937.22 508.395 937.22 426.225C937.22 426.065 937.22 425.915 937.22 425.765V349.215Z" fill="url(#paint2_linear_401_4)"/>
<path d="M486.12 502.315C735.256 502.315 937.22 435.731 937.22 353.595C937.22 271.459 735.256 204.875 486.12 204.875C236.984 204.875 35.02 271.459 35.02 353.595C35.02 435.731 236.984 502.315 486.12 502.315Z" fill="#FF922E"/>
<path d="M486.12 444.966C639.191 444.966 763.28 404.058 763.28 353.596C763.28 303.133 639.191 262.226 486.12 262.226C333.049 262.226 208.96 303.133 208.96 353.596C208.96 404.058 333.049 444.966 486.12 444.966Z" fill="white"/>
<path d="M486.4 259.645H473.55C463.55 259.785 453.703 260.099 444.01 260.585L447.15 267.515C460.05 266.885 473.25 266.565 486.4 266.565V259.565V259.645ZM402.57 263.775L401.57 263.885H401.27H401.07H400.95H400.77H400.32H400.15H400H399.83H399.78H399.6H399.14H399.02H397.6H397.49H397H396.87H396.52H396.4H396H395.86H395.72H395.54H395.26H394.97H394.8H394.65H394.5H394.36H394.21H394H393.84H393.69H393.54H393.23H392.92H392.61H392.3H391.99C382.077 265.025 372.43 266.359 363.05 267.885L372.27 274.205C384.06 272.335 396.38 270.745 408.87 269.485L402.62 262.775L402.57 263.775ZM326.19 275.885C314.86 278.435 304.12 281.235 294.04 284.275L293.8 284.355L293.57 284.425H293.45H293.35H293.24H293.15H293.05L307.49 289.565C317.11 286.635 327.49 283.925 338.27 281.495L326.27 275.695L326.19 275.885ZM263.97 294.885C255.719 298.211 247.686 302.056 239.92 306.395L258.3 309.915C265.491 305.895 272.926 302.324 280.56 299.225L264 294.865L263.97 294.885ZM221.35 319.035C217.45 322.229 213.885 325.811 210.71 329.725L210.63 329.835L210.55 329.935L210.47 330.035L210.39 330.135L210.32 330.235L210.24 330.335L210.16 330.425V330.475V330.525V330.585V330.655L210.09 330.765L209.96 330.945L230.68 332.525C234.017 327.907 237.947 323.748 242.37 320.155L222.6 317.575L221.35 319.035ZM202.28 346.255C201.981 347.51 201.76 348.783 201.62 350.065C201.615 350.102 201.615 350.139 201.62 350.175V350.285V350.385V350.455V350.515V350.575V350.725V352.135V352.395V352.505V352.555V352.605V352.715V352.765V352.815V352.865V353.395V353.505V353.555V353.605V353.705V353.755V353.805V353.855V353.905V353.955V354.055V354.155C201.625 354.209 201.625 354.262 201.62 354.315V354.415C201.672 355.564 201.789 356.71 201.97 357.845V357.895C201.97 357.895 201.97 357.965 201.97 357.995V358.045V358.135V358.365V358.465C202.03 358.785 202.09 359.095 202.16 359.415L223.38 358.925C222.942 356.901 222.721 354.836 222.72 352.765C222.724 350.469 222.992 348.18 223.52 345.945L202.32 345.405L202.28 346.255ZM229 372.585L208.24 374.115C210.312 377.145 212.655 379.98 215.24 382.585L215.34 382.685L215.44 382.785L215.54 382.895V382.945V382.995L215.59 383.045L215.64 383.095V383.145L215.69 383.195L215.74 383.245H215.79V383.295L215.88 383.385L215.98 383.475L216.08 383.575L216.18 383.675L216.39 383.885C217.27 384.695 218.18 385.505 219.13 386.305L238.96 383.775C234.619 380.174 230.784 376.003 227.56 371.375L229 372.585ZM257.3 396.685L238.84 400.165L240.01 400.835L240.17 400.925L240.33 401.005H240.41H240.48H240.55H240.61H240.68H240.75H240.8H240.85H240.91H240.97L241.07 401.055L241.22 401.135L241.37 401.215C245.317 403.375 249.513 405.482 253.96 407.535L254.15 407.625L254.33 407.705L254.44 407.755H254.49L254.6 407.805H254.65H254.74L254.9 407.875H254.98H255.04H255.1H255.16H255.22H255.27H255.35H255.41H255.5H255.57H255.65L255.83 407.955L256.02 408.035L256.21 408.115C257.93 408.875 259.67 409.635 261.45 410.375L279.3 407.395C271.749 404.277 264.401 400.686 257.3 396.645V396.685ZM305.92 416.985L291.36 422.095L295.14 423.245L295.38 423.315L295.62 423.385H295.74H295.86H295.98H296.09H296.2L296.42 423.445H296.53H296.64H296.75H296.85H296.96H297.05H297.16H297.26H297.37H297.47H297.56H297.66H297.74H297.83H297.91H298H298.08H298.17H298.22H298.29H298.35H298.42H298.47H298.56H298.63H298.68H298.77H298.84H298.94H299H299.07H299.14H299.19H299.26H299.32H299.39H299.44H299.51H299.58H299.63H299.69H299.77H299.83H299.88H299.94H300.02H300.08H300.13H300.22H300.28H300.33H300.42H300.48H300.58H300.65H300.75H300.85H300.9H300.96H301.07H301.14H301.25H301.32H301.43H301.5H301.63L301.85 423.505L302.08 423.565H302.21H302.29H302.43H302.5H302.64L302.87 423.625L303.09 423.685H303.22H303.3H303.43H303.51H303.64L303.86 423.745L304.09 423.805H304.23H304.3H304.46H304.54H304.69L304.93 423.875L305.16 423.935L305.4 423.995L305.81 424.105L306.05 424.175L306.29 424.245L306.53 424.305L306.95 424.415L307.2 424.485L307.44 424.545L307.68 424.605L308.09 424.715L308.33 424.775L308.57 424.835L308.81 424.905L309.05 424.965H309.22L309.47 425.025L309.71 425.085L309.95 425.145H310.1H310.18H310.33H310.41H310.56L310.8 425.205L311.03 425.265H311.17H311.29H311.42H311.5H311.65L311.88 425.315L312.11 425.375H312.25H312.37H312.49H312.56H312.69H312.82H312.94L313.16 425.435H313.28H313.35H313.47H313.53H313.63H316H316.06H316.12H316.22H316.33H316.41H316.53H316.62H316.68H316.74H316.85H316.9H316.96H317.02H317.11H317.22H317.29H317.37H317.43H317.49H317.58H317.64H317.7H317.79H317.85H318H318.07H318.15H318.2H318.28H318.34H318.42H318.52H318.61H318.71H318.76H318.83H319H319.1H319.18H319.29H319.37H319.43H319.51H319.62H319.7H319.81H319.89H320H320.1H320.21H320.33H320.44H320.55H320.66H320.78L319.29 425.896L321.01 425.435L319.81 425.896L320.33 426.396L320.55 426.896H320.1L320.21 427.396H321.87L335.84 420.095C325.09 417.645 319.77 418.012 310.18 415.052L305.92 416.985ZM370.42 431.705L361.06 437.995C363.013 438.315 364.98 438.625 366.96 438.925H367.25H367.52H367.78H367.91H368.08H368.2H368.7H368.78H369.21H369.33H369.43H369.56H369.73H369.86H369.97H370.1H370.27H370.4H370.53H370.68L370.96 438.975H371.24H371.53C380.83 440.309 390.377 441.492 400.17 442.525L406.58 435.835C394.12 434.545 381.84 432.925 370.09 431.025L370.42 431.705ZM445.17 439.485L441.87 446.405H444.24H444.54H445.33H445.66L446.66 446.455C458.953 447.015 471.477 447.315 484.23 447.355L484.39 440.355C471.24 440.355 458.05 439.965 445.17 439.305V439.485ZM562.06 436.905C549.54 438.145 536.63 439.075 523.66 439.675L526.66 446.615L530.66 446.425H530.99H531.31H532H532.2H538.34H539.18H539.49H539.8H540.11H540.43C549.81 445.839 559.023 445.095 568.07 444.195L561.98 437.475L562.06 436.905ZM632.97 425.905C622.09 428.305 610.58 430.455 598.76 432.295L607.83 438.635C614.797 437.555 621.603 436.385 628.25 435.125L629.25 434.925L629.52 434.875H629.79H630.05H630.22H630.32H630.48H630.56H630.72H630.97H631.22H631.36H631.51H631.64H631.71H632H632.1H632.22H632.29H632.44H632.5H632.6H632.78H632.88H632.94H633.01H633.12H633.24H633.31H633.4H633.53H633.6H633.73H633.83H633.92H634.03H634.12H634.23H634.32H634.43H634.53H634.64H634.75H634.86H634.98H635.09H635.21H635.31H635.43H635.53H635.65H635.76H635.88L636.13 434.825H636.26H636.39H636.53H636.66H636.79H636.92H637.06L637.33 434.765L637.59 434.715L637.86 434.665L638.14 434.605C640.1 434.199 642.043 433.779 643.97 433.345L633 425.885L632.97 425.905ZM690.97 408.485C682.7 411.835 673.6 415.005 663.97 417.905L678.29 423.085C688.77 419.945 698.53 416.545 707.5 412.915L691 408.465L690.97 408.485ZM730.92 386.235C725.453 390.61 719.614 394.498 713.47 397.855L731.77 401.425C732.85 400.825 733.91 400.225 734.95 399.615L735.05 399.555H735.1L735.19 399.505H735.25H735.31H735.37H735.44H735.5H735.57H735.64H735.71H735.78H735.85H735.92H735.99L736.07 399.455L737 398.395L737.16 398.305C739.74 396.732 742.183 395.135 744.49 393.515L744.63 393.415L744.76 393.315L744.89 393.215L745.02 393.115L745.09 393.065H745.15H745.21H745.27L745.33 393.015H745.39H745.45H745.5H745.56H745.62H745.67H745.73H745.78L745.89 392.925L746.01 392.835L746.13 392.745C747.26 391.895 748.36 391.045 749.41 390.185L729.7 387.545L730.92 386.235ZM749.14 361.105C747.879 365.722 745.762 370.06 742.9 373.895L763.58 375.525C764.607 374.122 765.555 372.663 766.42 371.155L766.48 371.055V370.995V370.935V370.885V370.815V370.765V370.715V370.615C766.483 370.586 766.483 370.555 766.48 370.525V370.425V370.325L766.53 370.225C767.677 367.973 768.595 365.611 769.27 363.175V363.125V363.065V363.015V362.955V362.905V362.855L748.08 362.265L749.14 361.105ZM765 333.785L744.2 335.255C746.808 339.148 748.629 343.513 749.56 348.105L770.78 347.665C770.6 346.665 770.38 345.745 770.11 344.795V344.685V344.575V344.525V344.475V344.425V344.375V343.965V343.435V343.385V343.325V343.265V343.195V343.125V343.055V342.945C770.106 342.909 770.106 342.872 770.11 342.835V342.725V342.615C770.11 342.615 770.11 342.545 770.11 342.505C770.106 342.469 770.106 342.432 770.11 342.395C769.039 339.701 767.698 337.121 766.11 334.695L765 333.785ZM735 307.655L716.46 311.085C722.352 314.484 727.918 318.418 733.09 322.835L753 320.395L751.6 319.205L751.53 319.145L751.45 319.085L751.39 319.035H751.34H751.29H751.23L751.18 318.985H751.12H751.07H751.01L750.95 318.935L750.83 318.845L750.7 318.745C746.032 315.074 741.113 311.733 735.98 308.745L735 307.655ZM683 285.595L668.32 290.665C677.8 293.665 686.68 296.885 694.71 300.285L711.5 295.985C707.553 294.312 703.44 292.685 699.16 291.105L698.94 291.025L698.74 290.955L698.54 290.885H698.44H698.35H698.25H698.17H698.07H698H697.91H697.83H697.75H697.67H697.6H697.51H697.43H697.38H697.31H697.25H697.16H697.1H697L696.81 290.815L696.61 290.745H696.47H696.4H696.26L696.05 290.675L695.84 290.595C691.933 289.215 687.907 287.882 683.76 286.595L683 285.595ZM613.67 269.515L604.16 275.795C615.85 277.715 627.21 279.955 637.92 282.435L650.16 276.705C644.38 275.372 638.447 274.102 632.36 272.895L632.08 272.835L631.8 272.785L630.8 272.585L630.52 272.535L630.23 272.475H630.09L629.51 272.365L629.23 272.315L628.95 272.255L627.95 272.065H627.66L627.37 272.005L627.08 271.955L626.65 271.875L626.36 271.815L626.07 271.765H625.78H625.49L625.05 271.685H624.77L624.49 271.635L624.21 271.585L623.92 271.535H623.63H623.49L623.21 271.485L622.94 271.435H622.66L622.37 271.385H622.09H621.95L621.67 271.335L621.38 271.285H621.1H620.96H620.83H620.69H620.55H620.42H620.29H620.16L619.9 271.235H619.63H619.49H619.37H619.24H619.13H619H618.89H618.76H618.66H618.54H618.42H618.31H618.19H618.09H617.97H617.88H617.76H617.66H617.54H617.49H617.4H617.2H617.1H616.9H616.79H616.61H616.5H616.3H616.2H616.08H615.98H615H614.86H614.71H614.57H614.48H614.31L614.04 271.185H613.82L613.67 269.515ZM533.06 260.905L529.6 267.825C542.51 268.525 555.36 269.555 567.79 270.885L574.35 264.215C571.61 263.915 568.857 263.635 566.09 263.375H565.8H565.52H565.38H563H562.86H562.69H562.38H562.07H561.75C552.417 262.535 542.87 261.849 533.11 261.315L533.06 260.905Z" fill="#FF922E"/>
<path d="M486.12 247.995C527.822 247.89 569.481 250.663 610.8 256.295C648.94 261.615 683.2 269.225 712.62 278.925C742.04 288.625 765.14 299.925 781.27 312.495C797.97 325.495 806.44 339.345 806.44 353.595C806.44 367.845 797.97 381.685 781.27 394.705C765.14 407.275 742.04 418.575 712.62 428.265C683.2 437.955 648.94 445.585 610.8 450.905C569.48 456.528 527.821 459.298 486.12 459.195C444.416 459.299 402.754 456.529 361.43 450.905C323.29 445.585 289.03 437.965 259.61 428.265C230.19 418.565 207.1 407.265 190.96 394.705C174.26 381.705 165.79 367.855 165.79 353.595C165.79 339.335 174.26 325.515 190.96 312.495C207.1 299.915 230.19 288.625 259.61 278.925C289.03 269.225 323.29 261.615 361.43 256.295C402.753 250.663 444.415 247.89 486.12 247.995M486.12 246.245C306.27 246.245 160.47 294.305 160.47 353.595C160.47 412.885 306.27 460.955 486.12 460.955C665.97 460.955 811.76 412.885 811.76 353.595C811.76 294.305 666 246.245 486.12 246.245Z" fill="#F7FAF6"/>
<path d="M486.12 254.455C525.253 254.36 564.345 256.962 603.12 262.245C638.93 267.245 671.12 274.385 698.72 283.495C726.32 292.605 748.02 303.205 763.17 315.005C778.85 327.225 786.8 340.215 786.8 353.595C786.8 366.975 778.8 379.965 763.17 392.185C748.02 403.995 726.34 414.595 698.72 423.705C671.1 432.815 638.93 439.955 603.12 444.955C564.345 450.233 525.252 452.836 486.12 452.745C446.967 452.838 407.855 450.235 369.06 444.955C333.25 439.955 301.06 432.805 273.47 423.705C245.88 414.605 224.16 403.995 209 392.185C193.32 379.965 185.37 366.985 185.37 353.595C185.37 340.205 193.37 327.225 209 315.005C224.15 303.205 245.84 292.595 273.46 283.495C301.08 274.395 333.24 267.235 369.05 262.245C407.844 256.96 446.957 254.357 486.11 254.455M486.11 252.695C317.11 252.695 180.05 297.875 180.05 353.595C180.05 409.315 317.05 454.495 486.11 454.495C655.17 454.495 792.11 409.325 792.11 353.595C792.11 297.865 655.11 252.695 486.11 252.695V252.695Z" fill="#F7FAF6"/>
<path d="M635.54 391.605C632.357 391.183 629.121 391.749 626.27 393.225H580.48L574 399.175C572.56 400.485 568.78 401.365 564.55 401.365L573.41 393.275H566.7L560.25 399.165C558.81 400.475 555.04 401.355 550.8 401.355L559.64 393.275H553L546.56 399.155C545.12 400.465 541.35 401.345 537.12 401.345L545.94 393.275L496.57 393.325H462.81C464.06 391.765 468.33 390.675 473.22 390.675H498.81L538 345.115H468.9C450.9 364.035 432.9 385.385 414.9 404.805C411.9 408.085 419.23 412.115 429.61 412.145C493.34 412.385 557.07 411.915 620.8 412.145C624.43 412.145 627.64 411.365 628.59 410.205L641.09 395.035C642.28 393.595 639.89 392.045 635.54 391.605Z" fill="#FF922E"/>
<path d="M581 295.065H510.2C503.58 295.065 498.2 296.835 498.2 299.065H533.37C531.72 300.525 527.56 301.515 522.84 301.555L509.34 301.695C503.273 308.209 497.2 314.722 491.12 321.235H558.51L577.6 299.045H579.46C582.54 299.045 585.27 298.295 585.61 297.285C585.95 296.275 583.93 295.275 581 295.065Z" fill="url(#paint3_linear_401_4)"/>
<path d="M637.55 328.725C637.55 328.525 637.46 328.335 637.41 328.135C633.67 314.405 598.25 303.965 556.41 303.965H435.38C425.32 303.965 416.33 306.045 412.9 309.155L403.37 316.755H392.82C385.53 316.755 378.65 317.865 374.2 319.755H434.13L449.78 319.835C457.57 319.835 463.12 322.215 461.94 324.635L447.8 337.445H441.14L454.62 325.125H450.39L436.91 337.445H428.4L441.89 325.125C419.62 324.985 401.57 324.835 379.3 324.695C373.93 324.695 368.96 325.635 366.47 327.195C365.556 327.722 364.767 328.442 364.16 329.305C363.43 330.455 366.34 331.535 369.88 331.385H370C373.86 331.195 375.52 330.075 375.64 329.995H414.42C414.42 330.995 411.9 331.855 408.78 331.855H388.52C360.44 359.395 340.77 379.195 332.6 385.325C324.43 391.455 331.4 393.985 337.34 394.945C340.073 395.367 342.835 395.571 345.6 395.555H396.76L430.76 362.775H420.76C415.31 362.775 410.89 361.325 410.89 359.525H468C492.21 370.755 516.41 382.105 540.62 393.345C563.89 393.345 587.16 393.225 610.42 393.225L529.65 357.395L556.34 357.635C596.34 357.635 630.76 348.085 636.76 335.055C637.707 333.088 637.985 330.865 637.55 328.725V328.725ZM432.09 341.845H424.26L428.08 338.365H435.89L432.09 341.845ZM442.95 341.845H437L440.79 338.385H446.73L442.95 341.845ZM477.95 341.845C470.337 341.845 461.037 341.845 450.05 341.845L453.86 338.405H481.7L477.95 341.845ZM454.89 337.455L468.09 325.515C479.42 325.515 488.8 325.585 495.74 325.595L482.74 337.455H454.89ZM491.31 341.875H484.98L488.79 338.405H495.14L491.31 341.875ZM489.81 337.455L502.81 325.595H509.15L496.15 337.445L489.81 337.455ZM526.54 339.775C517.224 341.224 507.807 341.923 498.38 341.865L502.19 338.385C509.31 338.505 515.41 338.465 520.19 338.385C529.11 338.225 533.19 337.925 537.12 337.215C538.717 336.94 540.299 336.583 541.86 336.145C536.837 337.733 531.703 338.943 526.5 339.765L526.54 339.775ZM546.28 333.035C544.67 335.035 538.37 336.035 535 336.525C530.47 337.205 526.52 337.295 518.78 337.455C512.68 337.575 507.39 337.535 503.21 337.455L516.14 325.635C517.89 325.535 531.84 324.835 540.64 327.925C541.79 328.325 548.2 330.575 546.24 333.025L546.28 333.035Z" fill="#FF922E"/>
<path d="M495.7 325.585C488.76 325.585 479.38 325.585 468.05 325.505L454.85 337.445H482.72L495.7 325.585ZM459.41 336.395L470.27 326.575L491.16 326.635L480.48 336.395H459.41Z" fill="white"/>
<path d="M437.04 341.835L442.95 341.825L446.77 338.375H440.83L437.04 341.835Z" fill="white"/>
<path d="M424.26 341.856H432.09L435.89 338.386H428.08L424.26 341.856ZM430.32 339.426H431.32L429.81 340.796H428.81L430.32 339.426Z" fill="white"/>
<path d="M640.73 328.655C640.73 328.445 640.64 328.245 640.59 328.045C638.71 321.155 629.03 314.785 613.34 310.125C597.65 305.465 577.5 302.915 556.44 302.915H435.38C424.04 302.915 413.82 305.275 409.92 308.775L405.19 312.555L401.24 315.705H392.82C384.59 315.705 376.69 316.985 371.67 319.135L367.72 320.825H434.13L449.72 320.905C452.1 320.859 454.47 321.235 456.72 322.015C458.19 322.595 458.96 323.325 458.91 324.015H448.15L447.39 324.715L434.67 336.395H432.94L437.88 331.895L444.88 325.485L446.39 324.105H441.94L410.51 323.895L379.35 323.685H379C372.52 323.685 366.62 324.855 363.61 326.745C362.575 327.348 361.681 328.167 360.99 329.145C360.46 329.975 361.09 330.825 362.71 331.485C364.778 332.205 366.96 332.544 369.15 332.485C369.52 332.485 369.89 332.485 370.25 332.485H370.44C372.8 332.435 375.133 331.968 377.33 331.105H386L385.52 331.575C380.073 336.908 374.95 341.942 370.15 346.675C350.46 366.055 336.22 380.055 329.7 384.955C320.2 392.085 329.54 394.895 335.95 395.955C339.15 396.441 342.383 396.679 345.62 396.665H399.07L399.8 395.955L433.8 363.175L435.24 361.785H420.74C418.719 361.878 416.706 361.484 414.87 360.635H466.33C478.12 366.105 490.09 371.695 501.68 377.095C513.07 382.415 524.83 387.895 536.43 393.285H540.35C516.22 382.085 492.1 370.775 467.98 359.585H410.87C410.87 361.385 415.29 362.835 420.74 362.835H430.74L396.74 395.615H345.6C342.835 395.631 340.073 395.427 337.34 395.005C331.4 394.005 324.34 391.575 332.6 385.385C340.86 379.195 360.44 359.385 388.52 331.925H408.75C411.87 331.925 414.39 331.085 414.39 330.065H375.61C375.49 330.145 373.83 331.265 369.97 331.455H369.18C365.96 331.455 363.45 330.455 364.18 329.365C364.787 328.502 365.576 327.782 366.49 327.255V327.255C368.94 325.715 373.78 324.755 379.05 324.755H379.32C401.59 324.895 419.64 325.045 441.91 325.185L428.4 337.445H436.91L450.39 325.125H454.62L441.14 337.445H447.8L461.94 324.655C463.12 322.235 457.57 319.905 449.78 319.855L434.13 319.775H374.2C378.65 317.865 385.53 316.775 392.82 316.775H403.37L412.9 309.175C416.33 306.065 425.32 303.985 435.38 303.985H556.44C598.25 303.985 633.67 314.425 637.44 328.155C637.49 328.355 637.54 328.545 637.58 328.745C638.021 330.894 637.744 333.129 636.79 335.105C630.79 348.105 596.35 357.685 556.37 357.685L529.65 357.395L610.4 393.195H614.4L613 392.595L566 371.775L536.13 358.535L556.25 358.715H556.34C576.48 358.715 596.02 356.355 611.34 352.065C626.66 347.775 636.88 341.775 639.89 335.235C640.887 333.194 641.182 330.881 640.73 328.655V328.655ZM458.83 324.395L457.4 325.685L457.63 325.475L458.84 324.375L458.83 324.395Z" fill="white"/>
<path d="M450 341.816H458.77H477.9L481.7 338.396H453.82L450 341.816ZM456.05 339.426H477.15L475.66 340.776H454.56L456.05 339.426Z" fill="white"/>
<path d="M541.82 336.136C540.259 336.574 538.677 336.931 537.08 337.206C533.08 337.916 529.08 338.206 520.15 338.376C517.54 338.376 514.53 338.446 511.15 338.446C508.37 338.446 505.35 338.446 502.15 338.376L498.34 341.856C507.767 341.914 517.184 341.215 526.5 339.766C531.69 338.939 536.811 337.726 541.82 336.136V336.136ZM503 340.736L504.39 339.456C506.67 339.456 508.96 339.506 511.22 339.506C514.22 339.506 517.34 339.506 520.36 339.426H521.26C515.203 340.205 509.106 340.642 503 340.736Z" fill="white"/>
<path d="M518.74 337.445C526.48 337.285 530.43 337.195 534.96 336.515C538.33 335.995 544.63 335.035 546.24 333.025C548.24 330.575 541.79 328.325 540.6 327.915C534.78 325.915 526.71 325.485 521.41 325.485C518.69 325.485 516.7 325.585 516.1 325.625L503.17 337.445C505.45 337.445 508.06 337.515 510.95 337.515C513.36 337.515 516 337.495 518.74 337.445ZM518.44 326.585C519.25 326.585 520.26 326.535 521.44 326.535C526.44 326.535 533.36 326.905 538.31 328.635C540.23 329.305 544.55 331.055 543.19 332.755C541.96 334.295 536.76 335.085 533.65 335.555C529.74 336.155 526.41 336.235 518.58 336.395C516.06 336.395 513.51 336.465 510.98 336.465H507.67L518.44 326.585Z" fill="white"/>
<path d="M509.08 325.596H502.74L489.74 337.456H496.09L509.08 325.596Z" fill="white"/>
<path d="M491.27 341.866L495.1 338.396H488.75L484.94 341.866H491.27Z" fill="white"/>
<path d="M348.52 247.706C394.332 241.445 440.522 238.364 486.76 238.486V204.886H486.12C423.12 204.886 363.21 209.136 308.77 216.826L348.52 247.706Z" fill="#F7FAF6"/>
<path d="M705.19 223.575L658.26 251.465C700.01 259.095 736.17 269.275 765.72 281.695L841.66 262.065C804.55 246.395 758.14 233.295 705.19 223.575Z" fill="white"/>
<path d="M47.1001 391.915V460.535C61.2801 480.325 87.4601 498.595 123 514.455V441.455L49.0701 389.255C48.3701 390.155 47.7301 391.035 47.1001 391.915Z" fill="#EDE8E8"/>
<path d="M289.18 560.056C342.18 568.546 401 573.716 463.12 574.746V502.126L289.18 487.396V560.056Z" fill="#EDE8E8"/>
<path d="M687.74 559.285C742.97 550.165 791.74 537.425 831.16 522.005V454.335L687.74 489.885V559.285Z" fill="#EDE8E8"/>
<path d="M937.22 426.225C937.22 426.065 937.22 425.915 937.22 425.765V349.215L931.37 349.265L925.21 387.805V460.395C933.05 449.445 937.22 437.995 937.22 426.225Z" fill="#EDE8E8"/>
<path d="M841 353.676C841 362.766 837.84 371.806 831.61 380.546L925.22 387.806C933.06 376.806 937.22 365.366 937.22 353.596C937.133 344.901 934.959 336.355 930.88 328.676L836 333.976C839.222 340.047 840.937 346.803 841 353.676V353.676Z" fill="white"/>
<path d="M831.16 454.335L759.31 433.245C727.45 445.045 689.46 454.455 646.39 461.195L687.74 489.885C742.56 481.275 791.27 469.125 831.16 454.335Z" fill="white"/>
<path d="M289.18 487.396C342.18 495.896 401.02 501.066 463.18 502.096L468.18 470.276C422.48 469.644 376.882 465.771 331.73 458.686L289.18 487.396Z" fill="white"/>
<path d="M47.1001 387.905C61.1801 407.555 87.1001 425.705 122.21 441.485L198.85 423.325C170.94 410.525 151.51 396.265 141.1 380.955L47.1001 387.905Z" fill="white"/>
<path d="M50.4902 314.875L145.62 323.665C158.46 308.555 180.14 294.665 210.07 282.335L131.62 261.625C94.4602 277.165 66.5302 295.215 50.4902 314.875Z" fill="white"/>
<path d="M348.52 247.706C394.332 241.445 440.522 238.364 486.76 238.486V204.886H486.12C423.12 204.886 363.21 209.136 308.77 216.826L348.52 247.706Z" fill="white"/>
<path d="M1273.61 665.065C1274.45 663.985 1275.29 662.895 1276.11 661.795L1323.05 600.315L1310.88 592.775C1352.74 454.065 1257 284.965 1082.61 201.255C941.42 133.485 788.8 140.945 692.26 209.615L685.58 205.485L650 247.875C648.426 249.689 646.883 251.522 645.37 253.375L644.76 254.105C633.841 267.588 624.525 282.293 617 297.925C548 441.635 644.63 631.345 832.78 721.655C1001.27 802.535 1186.02 776.255 1272.33 666.655L1273.61 665.065Z" fill="url(#paint4_linear_401_4)"/>
<path d="M1329.82 587.247C1398.8 443.537 1302.19 253.828 1114.04 163.519C925.886 73.2101 717.441 116.5 648.464 260.209C579.487 403.919 676.097 593.628 864.249 683.937C1052.4 774.246 1260.85 730.956 1329.82 587.247Z" fill="#FF922E"/>
<path d="M1198.45 524.191C1240.83 435.899 1181.47 319.344 1065.88 263.859C950.279 208.375 822.214 234.972 779.835 323.264C737.456 411.557 796.812 528.112 912.41 583.596C1028.01 639.081 1156.07 612.484 1198.45 524.191Z" fill="white"/>
<path d="M774 320.285V320.375V320.455V320.545V320.615V320.695V320.775V320.865V320.935V321.025V321.105V321.185V321.265V321.345V321.425V321.495V321.575V321.645V321.725V321.785V321.875V321.945V322.035V322.095V322.175V322.235V322.315V322.385V322.455V322.515V322.565V322.645V322.705V322.785V322.835V322.905V322.975V323.025V323.105V323.165V323.225V323.275V323.335V323.395V323.445V323.505V323.575V323.655V323.725V323.775V323.855V323.905V324.005V324.065L773.95 324.175V324.235L773.88 324.415L773.8 324.595L773.73 324.775V324.835L773.68 324.955V325.015L773.62 325.135V325.195L773.54 325.395L773.46 325.595C773.46 325.655 773.46 325.715 773.38 325.785C770.98 331.665 768.976 337.698 767.38 343.845L784.14 349.665C786.266 341.509 789.169 333.576 792.81 325.975L774 320.285ZM760.26 373.185C760.26 373.415 760.26 373.655 760.26 373.885V374.095C760.26 374.145 760.26 374.185 760.26 374.235V374.305V374.435V374.505V374.715V374.915V375.195V377.635V377.855V378.405V378.505V378.605V378.705V378.805V378.915V379.015V379.125V379.225V379.335V379.555V379.775C760.26 379.855 760.26 379.925 760.26 379.995V380.395C760.265 380.468 760.265 380.542 760.26 380.615C760.138 387.629 760.472 394.644 761.26 401.615L778.26 403.245C777.244 394.513 777.013 385.708 777.57 376.935L760.49 373.175L760.26 373.185ZM766.85 430.555C769.604 440.051 773.05 449.333 777.16 458.325L777.25 458.545L777.35 458.755L777.4 458.855V458.945V459.045V459.125V459.215L793.19 456.545C789.186 447.935 785.843 439.032 783.19 429.915L766.6 430.445L766.85 430.555ZM793.08 487.305C799.089 496.587 805.704 505.463 812.88 513.875L826.05 507.155C819.409 499.368 813.286 491.154 807.72 482.565L793.08 487.305ZM836.6 538.445C843.4 544.665 850.587 550.632 858.16 556.345L858.38 556.505L858.59 556.665L858.8 556.825L859.01 556.985L859.22 557.135L859.42 557.285L859.62 557.435L859.72 557.515L859.81 557.585L859.9 557.655L859.98 557.715L860.07 557.775L860.14 557.825L860.23 557.895L860.3 557.945C860.322 557.973 860.349 557.997 860.38 558.015L860.44 558.065L860.52 558.125H860.58L860.66 558.185H860.71L860.8 558.245H860.86L860.93 558.295L861 558.345H861.06L861.15 558.405H861.21L861.31 558.475H861.37L861.48 558.545V558.595L861.58 558.675H861.64L861.76 558.765C861.779 558.787 861.803 558.804 861.83 558.815L861.97 558.905L862.19 559.065L862.57 559.345L871.92 549.125C863.591 543.164 855.605 536.737 848 529.875L836.61 538.445H836.6ZM893.72 579.395C896.52 580.955 899.363 582.478 902.25 583.965L902.49 584.095L902.74 584.215L902.99 584.335L903.14 584.415H903.22L903.35 584.475H903.43L903.56 584.535H903.63L903.75 584.595H903.82L903.93 584.655H904H904.06H904.15H904.21H904.3H904.36L904.46 584.705H904.51H904.57H904.65H904.72H904.77H904.84H904.91H904.98H905.03H905.1H905.17H905.24H905.32H905.38H905.45L905.54 584.755H905.6H905.67L905.77 584.805H905.85L905.95 584.855H906.02L906.12 584.905H906.2H906.3H906.38H906.48L906.58 584.955H906.69L906.79 585.005L906.9 585.055L907 585.105L907.1 585.155L907.21 585.205L907.31 585.255L907.42 585.305L907.52 585.355L907.64 585.415L907.74 585.465L907.85 585.525L907.94 585.575L908.05 585.635L908.15 585.685L908.27 585.735L908.38 585.785L908.49 585.845L908.6 585.905L908.72 585.965L908.83 586.025L908.94 586.075L909.03 586.125L909.14 586.175H909.23H909.32L909.43 586.225H909.52L909.62 586.275H909.71H909.8H909.91L910 586.325L910.1 586.375L910.21 586.435H910.3L910.4 586.485H910.51H910.61L910.72 586.535H910.83L911.06 586.645L911.17 586.705L911.4 586.815L911.75 586.985L911.99 587.095C914.657 588.328 917.307 589.515 919.94 590.655H920.06L920.3 590.755H920.4L920.51 590.805H920.6H920.69H920.78H920.85H920.93H921.01H921.07L921.3 590.905L923.53 591.835L928.28 579.065C923.5 577.065 918.69 574.925 913.99 572.665C908.79 570.165 903.6 567.485 898.59 564.665L893.72 579.395ZM961.47 592.965L959.22 606.615C966.347 608.662 973.467 610.422 980.58 611.895L980.84 611.955H981.1L981.36 612.015H981.5H981.62H981.75H981.87H981.99H982.1H982.22H982.33H982.45H982.55H982.67H982.76H982.87H982.97H983.07H983.17H983.28H983.46H983.54H984H984.06H984.26H984.33H984.52H984.6H984.76H984.87H985.03H985.14H985.21H985.35L985.59 612.065L985.83 612.115L986.07 612.165H986.32L986.84 612.255C988.947 612.642 991.05 613.008 993.15 613.355L993 600.005C982.349 598.281 971.81 595.924 961.44 592.945L961.47 592.965ZM1024.47 603.145L1027.33 617.615C1027.94 617.615 1028.56 617.615 1029.17 617.675H1032.17C1038.22 617.788 1044.22 617.685 1050.17 617.365H1050.42H1050.67H1051.35H1051.56H1053.45H1053.7H1053.95C1056.16 617.212 1058.37 617.032 1060.57 616.825L1055.23 602.425C1045.03 603.383 1034.77 603.677 1024.53 603.305L1024.47 603.145ZM1086.18 601.396L1092.15 611.425C1093.38 611.135 1094.6 610.825 1095.83 610.515L1096.06 610.455L1096.28 610.395H1096.4H1096.51H1096.62H1096.73H1096.84L1097.05 610.335H1097.15H1097.26H1097.36H1097.45H1097.56H1097.64H1097.74H1097.84H1097.94H1098.03H1098.11H1098.21H1098.29H1098.38H1098.44H1098.53H1098.6H1098.69H1098.76H1098.82H1098.88H1098.96H1099.02H1099.1H1099.2H1099.28H1099.33H1099.39H1099.46H1099.52H1099.58H1099.64H1099.7H1099.77H1099.85H1099.9H1099.98H1100.08H1100.16H1100.21H1100.3H1100.43H1100.53H1100.59H1100.64H1100.73H1100.82H1100.87H1100.93H1101.03H1101.16H1101.26H1101.32H1101.42H1101.48H1101.6L1101.8 610.275L1102.01 610.215H1102.14H1102.21H1102.33H1102.4H1102.52L1102.72 610.155L1102.92 610.095H1103.04H1103.1H1103.22H1103.29H1103.41L1103.61 610.035L1103.82 609.965H1103.95H1104.02H1104.16H1104.23H1104.37L1104.58 609.905L1104.79 609.845L1105 609.775L1105.37 609.665L1105.59 609.605L1105.8 609.545L1106.01 609.475L1106.38 609.355L1106.6 609.285L1106.81 609.215L1107.02 609.155L1107.38 609.045L1107.6 608.975L1107.81 608.905L1108.02 608.825L1108.23 608.755L1108.37 608.705L1108.58 608.635L1108.79 608.555L1109 608.485H1109.13H1109.2H1109.33H1109.4L1109.54 608.435L1109.75 608.365L1109.95 608.295H1110.07H1110.13H1110.24H1110.31H1110.44L1110.64 608.225L1110.84 608.155H1110.96H1111.02H1111.12H1111.18H1111.29H1111.35H1111.46L1111.65 608.085H1111.75H1111.81H1111.91H1111.97H1112.05H1112.11H1112.19H1112.25H1112.32H1112.4H1112.45H1112.51H1112.6H1112.65H1112.73H1112.78H1112.84H1112.91H1112.99H1113.05H1113.13H1113.19H1113.25H1113.32H1113.38H1113.47H1113.54H1113.63H1113.69H1113.77H1113.84H1113.93H1114H1114.06H1114.15H1114.22H1114.31H1114.38H1114.47H1114.54H1114.64H1114.73H1114.83H1114.93H1115.02H1115.12H1115.21H1115.31H1115.4H1115.5L1115.71 608.005H1115.81H1115.91H1116.01H1116.11H1116.21L1116.42 607.925L1116.63 607.835L1116.84 607.745L1117.5 607.475L1107.65 594.155C1098.83 597.732 1095.44 599.188 1086.18 601.396ZM1136.04 576.425L1147.86 588.755C1149.13 587.975 1150.39 587.178 1151.62 586.365L1151.8 586.245L1151.97 586.135L1152.13 586.025L1152.21 585.965L1152.28 585.915L1152.34 585.865L1152.41 585.815H1152.47H1152.54H1152.6L1152.68 585.765H1152.75H1152.82H1152.88L1152.96 585.715H1153.03H1153.12L1153.2 585.665L1153.28 585.605L1153.46 585.485L1153.63 585.365L1153.81 585.245C1159.44 581.398 1164.81 577.186 1169.88 572.635L1156.34 561.635C1150 567.117 1143.22 572.054 1136.05 576.395L1136.04 576.425ZM1174.56 541.865L1189.56 551.385L1189.62 551.305L1189.68 551.225V551.175V551.105L1189.74 551.025V550.975L1189.8 550.895V550.845L1189.92 550.695L1190.04 550.535L1190.16 550.375L1190.28 550.215V550.165L1190.36 550.055V549.995L1190.49 549.825L1190.87 549.305C1195.61 542.782 1199.78 535.863 1203.34 528.625L1187.34 520.825C1183.61 528.386 1179.17 535.572 1174.07 542.285L1174.56 541.865ZM1201 471.565C1200.37 480.078 1198.93 488.512 1196.71 496.755L1213.43 502.675C1213.66 501.825 1213.89 500.975 1214.1 500.125V499.925L1214.16 499.725V499.595V499.535C1214.16 499.475 1214.16 499.405 1214.16 499.345V499.215V499.155V499.035V498.975V498.865V498.765V498.665V498.395V498.315V498.185V498.105V497.975V497.895V497.685V497.465V497.255V497.195V497.115V496.985V496.905V496.775V496.695V496.395V496.325V496.235V496.165V496.075V495.995V495.905V495.825V495.735V495.395V495.295V495.205V495.105V494.915V494.725V494.525V494.325V494.125V493.915C1215.4 487.842 1216.24 481.696 1216.7 475.515L1201 471.565ZM1195.38 418.565C1197.84 427.327 1199.57 436.277 1200.55 445.325L1217.55 447.065C1217 441.858 1216.2 436.642 1215.15 431.415C1215.15 431.145 1215.05 430.875 1214.99 430.615C1214.99 430.545 1214.99 430.475 1214.99 430.405C1214.99 430.335 1214.99 430.265 1214.99 430.195C1214.99 430.125 1214.99 430.055 1214.99 429.985V429.845V429.775V429.645V429.585V429.455V429.255V429.055V428.935V428.825V428.725V428.665V428.585V428.485V428.435V428.265V428.185V428.045V427.965V427.815V427.735V427.395V427.325V427.215V427.105V427.025V426.885V426.795V426.665V426.575V426.495V426.395V426.315V426.225V426.145V426.055V425.965V425.875V425.785V425.705V425.605V425.525V425.435V425.355V425.255V425.055C1214.99 425.019 1214.99 424.982 1214.99 424.945V424.845V424.745V424.645V424.545V424.435V424.325C1214.99 424.255 1214.99 424.185 1214.99 424.115C1214.99 424.045 1214.99 423.975 1214.99 423.905L1214.93 423.685C1214.93 423.605 1214.93 423.535 1214.93 423.455C1214.53 421.875 1214.11 420.295 1213.67 418.715L1197.05 419.145L1195.38 418.565ZM1171.54 365.945C1176.84 374.272 1181.55 382.96 1185.63 391.945L1201.47 389.385C1197.06 379.707 1191.97 370.351 1186.25 361.385L1171.54 366.025V365.945ZM1131.68 318.395C1139.4 325.552 1146.67 333.18 1153.45 341.235L1166.7 334.605C1165.62 333.325 1164.53 332.052 1163.43 330.785L1163.33 330.655V330.595L1163.24 330.495L1163.19 330.445L1163.12 330.375V330.325L1163.06 330.265L1163 330.195V330.145L1162.94 330.075V330.025L1162.87 329.945L1162.81 329.875L1162.75 329.795L1162.68 329.705L1162.61 329.635L1162.53 329.555L1162.46 329.485L1162.38 329.395L1162.31 329.315L1162.23 329.235L1162.16 329.155L1162.08 329.065L1161.91 328.875L1161.73 328.685C1158.85 325.478 1155.87 322.315 1152.8 319.195L1152.61 319.015L1152.43 318.835L1152.24 318.655L1152.06 318.475L1151.98 318.385L1151.89 318.295L1151.8 318.205L1151.72 318.125L1151.63 318.035L1151.55 317.955L1151.47 317.875L1151.39 317.805L1151.31 317.725L1151.24 317.645L1151.17 317.565L1151.1 317.485L1151.04 317.425L1150.97 317.345L1150.91 317.285L1150.84 317.205L1150.78 317.145L1150.71 317.075L1150.64 317.015V316.965L1150.58 316.905L1150.51 316.835L1150.44 316.765V316.715L1150.37 316.645L1150.21 316.485L1150.04 316.325C1149.99 316.263 1149.93 316.207 1149.87 316.155C1148.24 314.568 1146.58 312.998 1144.87 311.445L1131.68 318.395ZM1079.14 280.245C1088.67 285.606 1097.88 291.509 1106.73 297.925L1116.18 287.785C1113.16 285.585 1110.08 283.435 1106.95 281.335L1106.73 281.185L1106.59 281.085H1106.52L1106.38 280.995H1106.32L1106.21 280.925H1106.14L1106.02 280.845H1105.96H1105.9L1105.82 280.785H1105.77L1105.69 280.725H1105.64L1105.56 280.675H1105.49L1105.4 280.615H1105.33L1105.24 280.555H1105.17L1105.07 280.495L1105 280.445L1104.9 280.375L1104.81 280.325L1104 279.395L1103.9 279.325L1103.69 279.185L1103.47 279.045L1103.25 278.905L1103.03 278.765L1102.8 278.615C1097.81 275.382 1092.68 272.275 1087.42 269.295L1087.3 269.225L1087.18 269.155L1087.07 269.085L1086.96 269.015L1086.86 268.955L1086.75 268.895L1086.66 268.835L1086.56 268.775L1079.33 280.335L1079.14 280.245ZM1021 241.095L1018.61 254.705C1029.11 257.783 1039.43 261.456 1049.52 265.705L1054.4 252.985C1052.14 251.985 1049.89 251.115 1047.63 250.215L1047.37 250.115L1047.12 250.015L1047 249.965H1046.88H1046.77H1046.65H1046.55H1046.44H1046.34H1046.23H1046.14L1046.02 249.915H1045.92H1045.81H1045.72H1045.63H1045.55H1045.47H1045.41H1045.33H1045.26H1045.2H1045.12H1045.07H1045H1044.94H1044.86H1044.81H1044.74H1044.68H1044.6H1044.54H1044.45H1044.39H1044.33H1044.26H1044.18H1044.11H1044.02H1043.96H1043.89H1043.82L1043.71 249.865H1043.64L1043.51 249.815H1043.44L1043.29 249.755H1043.21L1043.06 249.695H1042.98L1042.81 249.635H1042.73L1042.57 249.575H1042.49L1042.32 249.515H1042.23L1041.98 249.415L1041.73 249.325L1041.47 249.235L1041.21 249.135L1040 247.395L1039.74 247.305C1033.51 245.025 1027.26 242.972 1021 241.145V241.095ZM952.84 229.665L955.57 244.135C966.128 244.591 976.648 245.696 987.07 247.445L986.89 233.245L983.76 232.745H983.6H983.51H983.36H983.28H983.14H983H982.88H980.77H980.65H980.53H980.4H980.14H979.88C970.813 231.465 961.833 230.638 952.94 230.265L952.84 229.665ZM887.91 235.395L895.47 249.395C905.131 247.171 914.934 245.621 924.81 244.755L919.6 230.395C914.68 230.825 909.81 231.395 905 232.135H904.76H904.52H904.3H904.19H902H901.89H901.68H901.47H901.32H901.24H901.09H900.86H900.63C896.37 232.862 892.177 233.708 888.05 234.675L887.91 235.395ZM831.91 257.705L843.64 270.085C851.488 265.368 859.708 261.301 868.22 257.925L858.47 244.565C853.803 246.425 849.253 248.452 844.82 250.645L844.62 250.745L844.41 250.845L843.68 251.215L843.48 251.315L843.27 251.415L843.17 251.465L842.76 251.675L842.56 251.775L842.36 251.885L841.65 252.255L841.45 252.355L841.25 252.455L841.04 252.565L840.74 252.725L840.54 252.835L840.34 252.935L840.14 253.035L839.94 253.145L839.64 253.305L839.44 253.415L839.25 253.525L839.05 253.635L838.85 253.745L838.65 253.855L838.55 253.915L838.36 254.015L838.17 254.115L837.98 254.225L837.78 254.335L837.58 254.445H837.48L837.28 254.555L837.09 254.665L836.9 254.775L836.81 254.835L836.71 254.885H836.62L836.53 254.935L836.43 254.985L836.34 255.035H836.24L836.06 255.135L835.88 255.245L835.79 255.295H835.7H835.62H835.54L835.46 255.345H835.39H835.31H835.24H835.16L835.08 255.395H835.01H834.92H834.86H834.78H834.72L834.64 255.445H834.57H834.49H834.42H834.36H834.29H834.23H834.16H834.11H834.04H833.99H833.92H833.86H833.81H833.73H833.68L833.59 255.495L833.48 255.555L833.3 255.665L833.16 255.745L831.91 257.705ZM789.85 294.705L804.74 304.305C810 297.543 815.886 291.292 822.32 285.635L808.86 274.525C807.43 275.785 806.03 277.055 804.66 278.365L804.51 278.505L804.37 278.635L804.3 278.695V278.745V278.795L804.24 278.855L804.18 278.915V278.965L804.12 279.025L804.06 279.085L803.99 279.155L803.93 279.225L803.86 279.295L803.79 279.365L803.71 279.435L803.56 279.585L803.41 279.735L803.26 279.885C798.732 284.356 794.503 289.119 790.6 294.145L789.85 294.705Z" fill="#FF922E"/>
<path d="M747.26 307.635C759.26 282.695 777.26 261.565 800.79 244.845C823.54 228.685 850.46 217.305 880.79 210.995C911.12 204.685 943.42 203.785 976.69 208.305C1047.26 218.362 1113.02 249.928 1165.01 298.705C1189.35 321.835 1208.82 347.585 1222.9 375.215C1236.98 402.845 1244.9 430.985 1246.55 458.835C1248.23 487.665 1243.01 514.935 1231.04 539.835C1219.07 564.735 1201.04 585.905 1177.51 602.625C1154.76 618.785 1127.83 630.165 1097.51 636.475C1067.19 642.785 1034.88 643.685 1001.61 639.165C931.036 629.109 865.277 597.542 813.29 548.765C789 525.675 769.47 499.935 755.4 472.295C741.33 444.655 733.4 416.525 731.75 388.675C730.07 359.845 735.29 332.585 747.26 307.675M743.26 305.745C693.45 409.445 763.18 546.395 899 611.585C1034.82 676.775 1185.3 645.585 1235.09 541.805C1284.88 438.025 1215.15 301.115 1079.33 235.925C943.51 170.735 793 201.965 743.24 305.705L743.26 305.745Z" fill="#F7FAF6"/>
<path d="M762.06 314.735C773.3 291.315 790.21 271.485 812.31 255.735C833.67 240.565 858.95 229.875 887.45 223.955C915.95 218.035 946.25 217.195 977.45 221.435C1043.73 230.904 1105.48 260.571 1154.29 306.395C1177.14 328.115 1195.43 352.275 1208.64 378.225C1221.85 404.175 1229.32 430.585 1230.84 456.725C1232.42 483.795 1227.52 509.395 1216.28 532.815C1205.04 556.235 1188.13 576.065 1166.02 591.765C1144.67 606.935 1119.39 617.625 1090.88 623.545C1062.37 629.465 1032.08 630.305 1000.88 626.065C934.589 616.631 872.822 586.98 824 541.155C801.15 519.435 782.87 495.275 769.66 469.325C756.45 443.375 748.97 416.975 747.45 390.825C745.87 363.755 750.77 338.155 762.02 314.735M758.02 312.805C711.22 410.305 776.76 539.015 904.41 600.285C1032.06 661.555 1173.48 632.195 1220.28 534.705C1267.08 437.215 1201.54 308.495 1073.89 247.225C946.24 185.955 804.84 215.315 758 312.805H758.02Z" fill="#F7FAF6"/>
<path d="M1117.61 379.395C1116.15 380.745 1115.74 382.945 1118.76 386.525L1106.17 412.975L1117.92 423.205C1120.53 425.475 1121.48 428.615 1120.31 431.055L1104.23 417.055L1102.39 420.925L1114.11 431.135C1116.72 433.405 1117.68 436.545 1116.5 438.985L1100.5 424.985L1098.66 428.865L1110.35 439.045C1112.96 441.315 1113.92 444.455 1112.75 446.895L1096.75 432.895L1083.18 461.425L1073.85 480.875C1070.62 478.445 1069.32 474.785 1070.67 471.965L1077.75 457.205L984.1 384.495L965 424.395C1003.36 455.585 1047.3 489.455 1086.8 521.185C1093.46 526.535 1104.73 526.715 1107.69 520.775C1125.88 484.275 1142.44 446.995 1160.63 410.495C1161.63 408.415 1160.72 405.685 1158.33 403.865L1127 379.935C1124 377.655 1119.82 377.335 1117.61 379.395Z" fill="#FF922E"/>
<path d="M881.37 304.645L881.27 304.565L880.9 305.345L863.14 342.345L861.67 345.345C859.84 349.165 862.41 354.205 867.41 356.605L871.17 348.765L877.17 336.315C880.06 338.865 881.17 342.315 879.97 345.125C878.77 347.935 877.68 350.415 876.54 353.065L916.27 385.065L935 346.295L889.44 310.875L889.95 309.795C890.8 308.025 889.86 305.635 887.64 304.325C885.42 303.015 882.66 303.215 881.37 304.645Z" fill="#FF922E"/>
<path d="M974.12 309.055L972.73 308.495C940.24 295.545 906.53 304.495 894.95 328.625L889.95 338.975L861.4 398.455C858.62 404.255 860.88 411.715 867.07 417.125L881.83 430.965L878.91 437.055C876.91 441.265 877.54 446.455 880.67 451.115L897.27 416.545C898.77 413.539 900.277 410.562 901.79 407.615C904.06 403.175 910.92 402.535 916.14 405.875L941.52 428.095L939.68 431.935L915.19 410.605L914.02 413.045L938.53 434.395L936.18 439.305L911.69 417.975C905.2 430.665 899.88 440.915 893.39 453.615C891.83 456.665 892.67 460.615 895.57 463.765C896.844 465.125 898.263 466.342 899.8 467.395C902.23 469.085 905.51 468.595 906.14 466.395C906.137 466.372 906.137 466.349 906.14 466.325C906.77 463.895 904.67 461.705 904.5 461.545L905.87 458.695L908.6 453.005L915.24 439.175C917.59 440.305 918.8 442.675 917.94 444.475L912.34 456.135C967.59 502.595 1007.54 535.725 1019.34 547.185C1031.14 558.645 1038.84 557.395 1042.7 555.025C1044.3 554.044 1045.57 552.62 1046.37 550.925L1060.54 521.395L994.87 465.755L992.1 471.535C990.59 474.675 986.03 475.625 981.91 473.645L988.35 460.225L997.72 440.705C1030.16 439.095 1062.86 437.615 1095.3 436.005C1101.75 422.585 1107.92 409.005 1114.36 395.615L1010 402.855L1017.94 387.725C1029.01 364.655 1016.66 334.295 988.47 316.505C983.904 313.624 979.104 311.132 974.12 309.055V309.055ZM947.29 441.995L945.15 446.525L938.22 440.525L940.38 436.025L947.29 441.995ZM950.29 435.715L948.67 439.125L941.79 433.125L943.43 429.695L950.29 435.715ZM959.99 415.555C957.85 419.925 955.25 425.285 952.23 431.635L945.39 425.635L953.11 409.555L959.99 415.555ZM943.54 424.025L919.85 403.285C923.11 396.805 925.75 391.415 927.69 387.425L951.26 407.945L943.54 424.025ZM963.76 407.885L962.76 409.885L961.97 411.475L955.06 405.475L956.81 401.815L963.76 407.885ZM953.21 403.885L929.61 383.395L931.37 379.745L954.93 400.255L953.21 403.885ZM968.7 385.255C969.7 392.605 968.13 398.255 965.7 403.785L958.78 397.785C960.684 394.441 962.355 390.97 963.78 387.395C965.9 382.085 966.32 379.395 965.78 376.395C965.543 375.021 965.147 373.678 964.6 372.395C966.654 376.429 968.026 380.774 968.66 385.255H968.7ZM958.7 366.455C962.87 369.595 963.32 374.285 963.56 376.795C963.89 380.165 963 382.545 961.2 387.175C959.999 390.283 958.558 393.292 956.89 396.175L933.39 375.715C933.66 374.605 935.92 365.795 945.39 364.105C946.69 363.855 953.61 362.625 958.69 366.455H958.7Z" fill="#FF922E"/>
<path d="M927.65 387.396C925.71 391.396 923.07 396.775 919.81 403.255L943.5 423.996L951.22 407.915L927.65 387.396ZM942.35 420.206L922.86 403.146C924.86 399.146 926.86 395.146 928.79 391.146L948.19 408.036L942.35 420.206Z" fill="white"/>
<path d="M948.63 439.125L950.25 435.705L943.39 429.705L941.75 433.135L948.63 439.125Z" fill="white"/>
<path d="M945.15 446.525L947.29 441.995L940.38 435.995L938.22 440.495L945.15 446.525ZM941.25 440.355L941.53 439.765L944.27 442.135L943.98 442.735L941.25 440.355Z" fill="white"/>
<path d="M974.83 307.145L973.4 306.555C957.09 300.065 939.84 298.645 924.8 302.555C909.76 306.465 898.37 315.305 892.54 327.455L887.54 337.805L859 397.295C855.86 403.835 858.43 412.295 865.38 418.425L872.72 425.305L878.84 431.045L876.5 435.905C874.23 440.645 874.98 446.615 878.5 451.905L881.29 456.045L883.08 452.305L899.68 417.735C901.14 414.795 902.68 411.795 904.18 408.835C904.63 408.03 905.275 407.351 906.056 406.86C906.837 406.369 907.729 406.082 908.65 406.025C910.48 405.833 912.325 406.181 913.96 407.025L912.78 409.495L911.61 411.935L910.98 413.225L912.37 414.425L935.47 434.545L934.99 435.545L926.04 427.745L913.31 416.655L910.57 414.265L909.27 416.805C906.01 423.175 903.05 428.935 900.08 434.695C897.11 440.455 894.23 446.075 891 452.395C891 452.465 890.93 452.525 890.9 452.585C889.11 456.325 890.17 461.015 893.67 464.835C895.1 466.392 896.7 467.784 898.44 468.985C900.134 470.188 902.201 470.748 904.27 470.565C905.122 470.526 905.949 470.266 906.671 469.812C907.393 469.359 907.985 468.725 908.39 467.975C908.492 467.763 908.576 467.542 908.64 467.315V467.195C908.833 466.243 908.821 465.262 908.606 464.315C908.39 463.369 907.976 462.479 907.39 461.705L908.27 459.865L909.77 456.725L910.77 457.525C921.49 466.532 931.597 475.018 941.09 482.985C980.03 515.655 1008.17 539.265 1017.59 548.415C1031.3 561.735 1040.33 559.415 1044.49 556.885C1046.36 555.741 1047.86 554.076 1048.8 552.095L1063 522.585L1063.63 521.265L1062.2 520.065L996.49 464.395L993.7 462.025L992.46 464.605L989.69 470.395C989.269 471.13 988.64 471.724 987.882 472.101C987.123 472.479 986.27 472.623 985.43 472.515L990.76 461.395L999.67 442.825C1015.48 442.035 1031.58 441.275 1047.17 440.535C1062.5 439.805 1078.32 439.055 1093.88 438.285L1094.96 436.035C1062.63 437.635 1030.05 439.115 997.72 440.715L988.35 460.235L981.91 473.655C986.03 475.655 990.59 474.655 992.1 471.545L994.87 465.765L1060.54 521.395L1046.37 550.905C1045.57 552.599 1044.3 554.024 1042.7 555.005C1038.84 557.375 1031.25 558.735 1019.34 547.165C1007.43 535.595 967.61 502.575 912.34 456.165L917.94 444.495C918.8 442.695 917.59 440.325 915.24 439.195L908.6 453.025L905.87 458.715L904.5 461.565C904.67 461.725 906.77 463.915 906.14 466.345C906.137 466.368 906.137 466.392 906.14 466.415C906.101 466.557 906.048 466.694 905.98 466.825C905.09 468.685 902.08 469.015 899.8 467.435C898.269 466.374 896.857 465.15 895.59 463.785V463.785C892.74 460.675 891.88 456.785 893.33 453.785C893.33 453.735 893.38 453.685 893.41 453.625C899.9 440.935 905.22 430.685 911.71 417.995L936.2 439.325L938.55 434.415L914.07 413.085L915.24 410.645L939.73 431.975L941.57 428.135L916.19 405.915C910.97 402.565 904.11 403.215 901.84 407.655C900.32 410.595 898.813 413.572 897.32 416.585L880.72 451.155C877.59 446.495 876.94 441.305 878.96 437.095L881.88 431.005L867.1 417.125C860.91 411.715 858.65 404.255 861.43 398.455L890 338.975L895 328.625C906.58 304.505 940.29 295.545 972.78 308.495L974.17 309.055C979.15 311.132 983.947 313.624 988.51 316.505C1016.7 334.295 1029.05 364.655 1017.98 387.725L1010 402.855L1114.37 395.645L1115.47 393.345L1113.64 393.475L1052.94 397.675L1014.34 400.335L1020.34 388.925C1025.91 377.315 1025.91 363.445 1020.34 349.875C1014.77 336.305 1003.85 323.875 989.71 314.875C984.975 311.887 979.997 309.301 974.83 307.145V307.145ZM914.71 407.395L917.28 409.635L916.87 409.275L914.67 407.365L914.71 407.395Z" fill="white"/>
<path d="M952.19 431.635C953.03 429.869 953.837 428.179 954.61 426.565C956.61 422.385 958.39 418.719 959.95 415.565L953.07 409.565L945.35 425.645L952.19 431.635ZM948.38 425.505L954.22 413.335L956.91 415.685C955.37 418.825 953.79 422.095 952.2 425.415L951 427.835L948.38 425.505Z" fill="white"/>
<path d="M964.6 372.396C965.122 373.653 965.504 374.964 965.74 376.306C966.25 379.356 965.83 382.026 963.74 387.306C963.12 388.866 962.36 390.636 961.44 392.576C960.66 394.176 959.78 395.895 958.76 397.695L965.68 403.695C968.12 398.135 969.68 392.515 968.68 385.165C968.03 380.714 966.651 376.399 964.6 372.396V372.396ZM964.36 399.855L961.83 397.646C962.52 396.366 963.19 395.065 963.83 393.755C964.67 392.005 965.46 390.196 966.18 388.396L966.39 387.866C966.558 391.973 965.867 396.071 964.36 399.896V399.855Z" fill="white"/>
<path d="M961.19 387.175C962.99 382.545 963.88 380.175 963.55 376.795C963.31 374.285 962.86 369.595 958.69 366.455C953.61 362.625 946.69 363.855 945.41 364.085C943.049 364.489 940.824 365.466 938.928 366.931C937.033 368.395 935.526 370.302 934.54 372.485C934.043 373.512 933.654 374.588 933.38 375.695L956.88 396.155C957.61 394.885 958.41 393.415 959.21 391.745C959.88 390.395 960.55 388.835 961.19 387.175ZM936.19 375.405C936.391 374.805 936.628 374.217 936.9 373.645C937.751 371.727 939.059 370.047 940.71 368.751C942.361 367.456 944.304 366.585 946.37 366.215C948.44 365.845 953.64 365.275 957.17 367.935C960.35 370.335 960.72 374.205 960.94 376.515C961.22 379.425 960.5 381.445 958.68 386.125C958.1 387.635 957.45 389.125 956.75 390.595C956.44 391.225 956.13 391.855 955.8 392.485L936.19 375.405Z" fill="white"/>
<path d="M931.37 379.715L929.61 383.395L953.17 403.915L954.93 400.255L931.37 379.715Z" fill="white"/>
<path d="M963.72 407.885L956.72 401.835L955 405.495L961.91 411.495L962.7 409.905L963.72 407.885Z" fill="white"/>
<path d="M708.49 386.685C706.59 354.745 712.36 324.505 725.65 296.805L648.65 259.865L648.47 260.225C631.03 296.545 624.19 335.805 626.72 375.655L708.49 386.685Z" fill="#F7FAF6"/>
<path d="M752 154.395L802.89 212.125C831.89 196.435 865.25 186.765 901.89 183.385L877.93 118.025C831.82 122.225 788.9 134.565 752 154.395Z" fill="white"/>
<path d="M1087.61 219.145C1108.25 229.05 1127.97 240.762 1146.55 254.145L1189.1 208.145C1148.2 178.709 1103.05 155.681 1055.21 139.855L1041.09 200.395C1056.98 205.65 1072.52 211.912 1087.61 219.145Z" fill="white"/>
<path d="M1308.8 337.875L1240.6 356.125C1258.81 387.485 1269.83 419.735 1273.36 451.995L1350.53 459.695C1346 418.605 1331.64 377.145 1308.8 337.875Z" fill="white"/>
<path d="M1272.36 666.686L1273.6 665.056C1274.44 663.976 1275.28 662.886 1276.1 661.786L1323.04 600.306L1241.2 684.496L1243.2 697.326C1253.83 688.017 1263.59 677.762 1272.36 666.686V666.686Z" fill="#EDE8E8"/>
<path d="M933.87 757.255C987.05 769.545 1039.6 771.865 1088.05 764.935L1089.74 730.295L946.21 714.715L933.87 757.255Z" fill="#EDE8E8"/>
<path d="M649.41 565.636C676.48 606.636 712.93 644.636 757.18 676.696L779.85 632.446L680.32 527.096L649.41 565.636Z" fill="#EDE8E8"/>
<path d="M648.5 260.226L630.19 274.326C625.321 281.919 620.916 289.8 617 297.926C600.54 332.226 593.52 369.146 594.91 406.706L626.72 375.656L648.5 260.226Z" fill="#EDE8E8"/>
<path d="M1241.21 684.505C1275.35 663.265 1303.49 635.025 1323.05 600.315L1251.53 562.455C1236.44 589.125 1214.8 611.325 1187.2 628.455L1241.21 684.505Z" fill="white"/>
<path d="M946.21 714.705C995.13 728.205 1043.86 733.205 1089.74 730.295L1069.36 666.125C1032.3 668.125 994.27 663.685 956.36 652.855L946.21 714.705Z" fill="white"/>
<path d="M779.85 632.445L826.32 587.245C795.32 563.245 769.43 535.435 749.5 504.625L680.32 527.095C705.64 565.625 739.26 601.585 779.85 632.445Z" fill="white"/>
<path d="M708.49 386.685C706.59 354.745 712.36 324.505 725.65 296.805L648.65 259.865L648.47 260.225C631.03 296.545 624.19 335.805 626.72 375.655L708.49 386.685Z" fill="white"/>
<rect x="312" y="424.396" width="9" height="3" fill="#FF922E"/>
<defs>
<linearGradient id="paint0_linear_401_4" x1="183.1" y1="446.865" x2="563.07" y2="572.145" gradientUnits="userSpaceOnUse">
<stop stop-color="#D86C1A"/>
<stop offset="1" stop-color="#E87E25"/>
</linearGradient>
<linearGradient id="paint1_linear_401_4" x1="506.28" y1="414.686" x2="447.11" y2="648.066" gradientUnits="userSpaceOnUse">
<stop stop-color="#FF922E"/>
<stop offset="1" stop-color="#FFC239"/>
</linearGradient>
<linearGradient id="paint2_linear_401_4" x1="218.11" y1="330.155" x2="598.09" y2="455.435" gradientUnits="userSpaceOnUse">
<stop stop-color="#D86C1A"/>
<stop offset="1" stop-color="#E87E25"/>
</linearGradient>
<linearGradient id="paint3_linear_401_4" x1="541.29" y1="297.975" x2="482.13" y2="531.355" gradientUnits="userSpaceOnUse">
<stop stop-color="#FF922E"/>
<stop offset="1" stop-color="#FFC239"/>
</linearGradient>
<linearGradient id="paint4_linear_401_4" x1="594.76" y1="461.455" x2="1323.05" y2="461.455" gradientUnits="userSpaceOnUse">
<stop stop-color="#D86C1A"/>
<stop offset="1" stop-color="#E87E25"/>
</linearGradient>
</defs>
</svg>