<svg width="135" height="33" viewBox="0 0 135 33" fill="none" xmlns="http://www.w3.org/2000/svg">
<path d="M28.0951 26.8389C27.8302 26.7594 27.5216 26.8233 27.2474 27.2892L23.0524 27.3017L22.4602 28.9426C22.3959 29.1204 22.2784 29.2742 22.1237 29.3829C21.9689 29.4916 21.7845 29.5501 21.5954 29.5503L22.4057 27.3033H21.7917L21.2011 28.941C21.1365 29.119 21.0187 29.2728 20.8637 29.3815C20.7087 29.4902 20.524 29.5486 20.3347 29.5488L21.145 27.3048H20.531L19.9467 28.9426C19.8827 29.1207 19.7653 29.2747 19.6105 29.3835C19.4557 29.4923 19.271 29.5506 19.0818 29.5503L19.8906 27.3095L15.3715 27.322H12.272C12.3277 27.1111 12.4516 26.9247 12.6244 26.7916C12.7972 26.6586 13.0092 26.5864 13.2272 26.5864H15.5647L19.1488 13.9189H12.8299C11.1812 19.1767 9.53249 25.1123 7.8838 30.5071C7.60486 31.4172 8.27961 32.533 9.23174 32.547C15.0692 32.614 20.9066 32.4815 26.7456 32.547C26.9075 32.5491 27.0656 32.4973 27.1948 32.3997C27.324 32.302 27.4171 32.1642 27.4593 32.0078L28.6046 27.7926C28.6596 27.5986 28.6372 27.3908 28.5422 27.213C28.4472 27.0351 28.2869 26.901 28.0951 26.8389Z" fill="url(#paint0_linear_2_14133)"/>
<path d="M23.1029 0.0140248V3.54978e-10H16.6219C16.478 -3.67076e-06 16.3355 0.0284672 16.2026 0.0837725C16.0698 0.139078 15.9492 0.220124 15.8478 0.322243C15.7464 0.424361 15.6662 0.545533 15.6119 0.678777C15.5575 0.812022 15.53 0.954706 15.5311 1.09861H18.7521C18.6781 1.29676 18.5469 1.46846 18.3752 1.59192C18.2034 1.71538 17.9989 1.78504 17.7875 1.79206L16.5502 1.8279C15.9954 3.63865 15.4396 5.44941 14.8828 7.26016H21.0553L22.7959 1.09861H22.9673C23.1048 1.10055 23.2382 1.05195 23.3422 0.962033C23.4461 0.872119 23.5135 0.747153 23.5314 0.610857C23.5468 0.475927 23.5115 0.340089 23.4323 0.229773C23.3531 0.119457 23.2357 0.0425531 23.1029 0.0140248Z" fill="url(#paint1_linear_2_14133)"/>
<path d="M28.281 9.36531L28.267 9.20169C27.9257 5.38695 24.6813 2.49316 20.8495 2.49316H9.76053C9.31071 2.4929 8.8717 2.63109 8.50314 2.88897C8.13458 3.14685 7.85433 3.51192 7.70044 3.9346C7.4106 4.63584 7.11971 5.33708 6.82779 6.03832H5.86164C5.53196 6.0387 5.20675 6.1146 4.91096 6.2602C4.61517 6.40579 4.35667 6.61722 4.15529 6.87825H9.64677C10.1283 6.87825 10.6051 6.89227 11.0804 6.90162C11.2448 6.90514 11.4066 6.94384 11.5548 7.01511C11.703 7.08638 11.8343 7.18857 11.9397 7.3148C12.0451 7.44104 12.1223 7.58839 12.166 7.74694C12.2097 7.90549 12.2189 8.07156 12.193 8.23398L10.8981 11.7869H10.2857L11.5199 8.35864H11.1365L9.90077 11.7869H9.12162L10.3589 8.35864C8.31753 8.31812 6.66573 8.27917 4.62434 8.24021C4.38334 8.23586 4.14586 8.29854 3.9384 8.42125C3.73093 8.54397 3.56163 8.72191 3.44937 8.93522C3.35252 9.12002 3.28122 9.31713 3.23744 9.52114C3.22136 9.59566 3.22326 9.67293 3.24298 9.74657C3.2627 9.82021 3.29968 9.88809 3.35085 9.9446C3.40202 10.0011 3.46592 10.0446 3.53725 10.0715C3.60858 10.0984 3.6853 10.1079 3.76104 10.0993H3.77194C3.8824 10.0798 3.9867 10.0345 4.07633 9.96705C4.16596 9.89963 4.2384 9.81198 4.28775 9.71125H7.84069C7.84193 9.77985 7.82952 9.848 7.80417 9.91175C7.77882 9.9755 7.74105 10.0336 7.69305 10.0826C7.64505 10.1316 7.58778 10.1706 7.52458 10.1973C7.46137 10.2239 7.39349 10.2378 7.32489 10.238H5.46739C2.89618 17.883 1.09165 23.3885 0.345223 25.0886C-0.401207 26.7888 0.234583 27.4994 0.779991 27.7674C1.01578 27.8804 1.27431 27.938 1.53577 27.9357H6.22317L9.33978 18.8274H8.41571C8.176 18.8274 7.94611 18.7321 7.77661 18.5626C7.60711 18.3931 7.51189 18.1633 7.51189 17.9235H12.7462C14.9637 21.0402 17.1812 24.2004 19.3987 27.3217C21.5304 27.3217 23.6622 27.289 25.7877 27.289L18.3904 17.3407L20.8354 17.4077C22.6111 17.4148 24.3307 16.7859 25.6827 15.6348C27.0348 14.4837 27.93 12.8865 28.2062 11.1324C28.296 10.5479 28.3211 9.95531 28.281 9.36531ZM9.45822 13.0118H8.74139L9.09201 12.0425H9.80728L9.45822 13.0118ZM10.454 13.0118H9.91168L10.2592 12.0487H10.8046L10.454 13.0118ZM13.6563 13.0118C12.9582 13.0118 12.1063 13.0118 11.1007 13.0118L11.4497 12.0534H14.0038L13.6563 13.0118ZM11.5448 11.7869L12.7525 8.47084C13.7903 8.48486 14.6505 8.4911 15.2863 8.49266L14.0973 11.7869H11.5448ZM14.8811 13.018H14.5554H14.3014L14.6489 12.0456H15.2302L14.8811 13.018ZM14.7424 11.7869L15.9314 8.49421H16.5189L15.3237 11.7869H14.7424ZM18.1068 12.4336C17.2217 12.8809 16.3927 12.9915 15.5278 13.0133L15.8769 12.0456C16.4261 12.0747 16.9764 12.0747 17.5256 12.0456C18.3437 12.0035 18.7146 11.9194 19.0839 11.723C19.2389 11.6395 19.3847 11.5397 19.5187 11.4254C19.1042 11.8339 18.6277 12.1742 18.1068 12.4336ZM19.916 10.5636C19.7602 11.1231 19.1914 11.3896 18.8829 11.5329C18.4684 11.723 18.1037 11.7495 17.3978 11.79C16.9224 11.8191 16.4457 11.8191 15.9704 11.79L17.1547 8.50668C17.3105 8.47863 18.593 8.2854 19.3987 9.14247C19.5078 9.25467 20.103 9.87955 19.916 10.5605V10.5636Z" fill="url(#paint2_linear_2_14133)"/>
<path d="M11.1521 9.39323L11.523 8.36475H11.1349L10.5459 9.99941L11.1521 9.39323Z" fill="url(#paint3_linear_2_14133)"/>
<path d="M11.8145 7.18523C11.9611 7.31377 12.0727 7.47739 12.139 7.66079C12.2052 7.8442 12.2238 8.04141 12.1931 8.23397L12.1261 8.41474L18.0586 2.49316H16.519L11.8145 7.18523Z" fill="url(#paint4_linear_2_14133)"/>
<path d="M9.32526 11.2199L10.1995 8.7998L3.8104 15.1889C3.53822 16.0033 3.2785 16.7789 3.03125 17.5154L9.32526 11.2199Z" fill="url(#paint5_linear_2_14133)"/>
<path d="M25.3173 3.96289L19.7214 9.55878C19.8192 9.70431 19.8868 9.86796 19.9203 10.0401C19.9537 10.2122 19.9524 10.3892 19.9162 10.5608C19.7604 11.1202 19.1916 11.3867 18.8831 11.53C18.4888 11.7108 18.1413 11.7435 17.4977 11.7825L17.2219 12.0599L17.5258 12.0458C18.3439 12.0038 18.7148 11.9196 19.0841 11.7233C19.2391 11.6397 19.3849 11.5399 19.5189 11.4256C19.1073 11.8333 18.634 12.1736 18.1164 12.4339C17.5573 12.7159 16.9517 12.8943 16.329 12.9606L11.3564 17.9207H12.7465C13.0664 18.3695 13.3854 18.8193 13.7033 19.2702L27.1047 5.8687C26.6256 5.13327 26.0206 4.48811 25.3173 3.96289Z" fill="url(#paint6_linear_2_14133)"/>
<path d="M8.75704 20.5229L1.35352 27.9265C1.41409 27.9327 1.47494 27.9358 1.53584 27.9358H5.04048L6.83721 26.1375L8.75704 20.5229Z" fill="url(#paint7_linear_2_14133)"/>
<path d="M20.8492 2.49321H19.2675L13.2773 8.47712C14.0814 8.48647 14.7609 8.49114 15.286 8.4927L14.097 11.787H11.5445L12.4483 9.30614L11.4323 10.3222L10.8978 11.787H10.2854L10.4662 11.2852L9.70882 12.0456H9.80699L9.45793 13.0118H8.74111L2.40814 19.3463C1.44822 22.1809 0.745423 24.1818 0.344937 25.0887C-0.278386 26.5052 0.0504168 27.2189 0.488302 27.582L9.24288 18.8274H8.41542C8.17571 18.8274 7.94582 18.7322 7.77632 18.5627C7.60682 18.3932 7.5116 18.1633 7.5116 17.9236H10.1467L15.794 12.2763L15.8766 12.0456H16.0184L16.2677 11.7948C16.1633 11.7948 16.0636 11.7948 15.9701 11.7807L17.1544 8.49738C17.2993 8.47245 18.3543 8.3135 19.1522 8.91189L24.586 3.47806C23.4482 2.82813 22.1595 2.48851 20.8492 2.49321ZM10.4537 13.0056H9.9114L10.2589 12.0425H10.8043L10.4537 13.0056ZM13.656 13.0056C12.9579 13.0056 12.106 13.0056 11.1004 13.0056L11.4494 12.0472H14.0035L13.656 13.0056ZM14.8808 13.0149H14.5552H14.3012L14.6487 12.0456H15.2299L14.8808 13.0149ZM15.3234 11.7839H14.7422L15.9311 8.49115H16.5186L15.3234 11.7839Z" fill="url(#paint8_linear_2_14133)"/>
<path d="M34.3877 25.7262V7.54076H39.1031C40.1694 7.51908 41.2327 7.65883 42.2572 7.95527C43.0836 8.19385 43.8003 8.71432 44.283 9.42631C44.7556 10.1307 44.9915 11.1036 44.9904 12.345C44.9966 13.014 44.9308 13.6817 44.7941 14.3365C44.6808 14.881 44.4511 15.3945 44.1209 15.8419C43.7642 16.2943 43.2959 16.646 42.762 16.8626L45.2772 25.7309H41.4827L39.3945 17.4906H38.0918V25.7309L34.3877 25.7262ZM38.0918 15.2856H39.1701C39.7685 15.2856 40.2397 15.1879 40.5835 14.9926C40.9287 14.7979 41.1892 14.4819 41.3144 14.1059C41.4684 13.6312 41.5406 13.1338 41.5279 12.6349C41.5279 11.7975 41.372 11.1581 41.0604 10.7166C40.7487 10.2751 40.1773 10.0543 39.3462 10.0543H38.0887L38.0918 15.2856Z" fill="#F9F9F9"/>
<path d="M52.0889 25.9738C50.7114 25.9738 49.6408 25.7379 48.8772 25.2663C48.1161 24.796 47.5471 24.0701 47.2722 23.2187C46.9605 22.3273 46.8047 21.2459 46.8047 19.9743V7.54053H50.4636V20.4948C50.4634 20.9382 50.4973 21.381 50.5649 21.8193C50.6115 22.2064 50.7671 22.5723 51.0137 22.8743C51.2453 23.1444 51.6012 23.2795 52.0811 23.2795C52.5611 23.2795 52.9247 23.1444 53.1719 22.8743C53.4168 22.5724 53.5689 22.2059 53.6098 21.8193C53.6694 21.3803 53.6991 20.9378 53.6986 20.4948V7.54053H57.3591V19.979C57.3591 21.2505 57.2033 22.332 56.8916 23.2234C56.6162 24.0733 56.0472 24.7975 55.2866 25.2663C54.5313 25.7369 53.4654 25.9727 52.0889 25.9738Z" fill="#F9F9F9"/>
<path d="M64.2633 25.974C63.1402 25.974 62.2053 25.7662 61.4583 25.3506C60.7026 24.9312 60.1065 24.2738 59.7629 23.4807C59.3816 22.6496 59.1608 21.591 59.1006 20.3048L62.2889 19.7657C62.3041 20.3953 62.383 21.0218 62.5242 21.6356C62.609 22.0573 62.8116 22.4464 63.1086 22.7576C63.2391 22.8806 63.3925 22.9766 63.5602 23.0403C63.7278 23.1039 63.9064 23.1339 64.0856 23.1285C64.5645 23.1285 64.8897 22.9789 65.0611 22.6797C65.238 22.3645 65.3273 22.0078 65.3198 21.6465C65.3434 20.9646 65.1509 20.2927 64.7697 19.7267C64.3493 19.1528 63.8635 18.6298 63.322 18.1684L61.4349 16.5291C60.7807 15.9828 60.2233 15.33 59.7862 14.5983C59.3593 13.8794 59.1458 12.9964 59.1458 11.9492C59.1458 10.4532 59.5837 9.30473 60.4594 8.50376C61.3352 7.70279 62.5356 7.30958 64.0607 7.32412C64.9739 7.32412 65.7224 7.47372 66.3062 7.77291C66.8588 8.04414 67.3282 8.45915 67.6651 8.97437C67.9862 9.47589 68.2142 10.0312 68.3382 10.6137C68.4636 11.194 68.5423 11.7833 68.5735 12.3762L65.4086 12.8437C65.3846 12.3522 65.3358 11.8622 65.2621 11.3757C65.2198 11.0159 65.0802 10.6743 64.8585 10.3878C64.7439 10.2629 64.6024 10.1657 64.4448 10.1033C64.2872 10.041 64.1175 10.0151 63.9485 10.0278C63.7593 10.0157 63.5704 10.0541 63.4009 10.1389C63.2314 10.2238 63.0875 10.3522 62.9839 10.5109C62.7768 10.8275 62.6683 11.1984 62.6722 11.5767C62.6481 12.1391 62.8019 12.6947 63.1117 13.1647C63.4615 13.6393 63.8646 14.0722 64.3131 14.4549L66.1535 16.0725C66.913 16.7268 67.5748 17.4867 68.1185 18.3289C68.6639 19.1745 68.9372 20.2186 68.9382 21.4611C68.9494 22.2698 68.7479 23.0673 68.3538 23.7736C67.9728 24.4534 67.4093 25.0132 66.727 25.3896C65.9702 25.7944 65.1212 25.9957 64.2633 25.974Z" fill="#F9F9F9"/>
<path d="M72.5784 25.726V10.2987H69.7734V7.54053H79.0688V10.3019H76.3059V25.7291L72.5784 25.726Z" fill="#F9F9F9"/>
<path d="M83.5662 25.726V18.5188L80.0195 7.54053H83.4992L85.4518 13.9389L87.2657 7.54053H90.6347L87.1317 18.5188V25.726H83.5662Z" fill="#F9F9F9"/>
<path d="M92.0625 25.726V7.54053H95.7666V23.2187H100.033V25.7338L92.0625 25.726Z" fill="#FFC239"/>
<path d="M106.609 25.9741C105.277 25.9741 104.222 25.7346 103.443 25.2557C102.668 24.7803 102.078 24.0554 101.771 23.2003C101.434 22.311 101.266 21.2446 101.266 20.0011V13.2209C101.266 11.9742 101.434 10.9114 101.771 10.0326C102.077 9.18409 102.668 8.4681 103.443 8.00676C104.222 7.55173 105.277 7.32422 106.609 7.32422C107.941 7.32422 109.007 7.56004 109.808 8.03169C110.586 8.4931 111.18 9.20863 111.491 10.0575C111.828 10.9333 111.997 11.9924 111.998 13.2349V20.0151C111.998 21.2617 111.829 22.3281 111.491 23.2143C111.182 24.0718 110.588 24.7973 109.808 25.2697C109.022 25.7393 107.955 25.9741 106.609 25.9741ZM106.609 23.3016C107.087 23.3016 107.44 23.194 107.664 22.9759C107.9 22.7371 108.057 22.4313 108.113 22.1001C108.19 21.7122 108.227 21.3175 108.225 20.922V12.3233C108.228 11.9314 108.19 11.5403 108.113 11.1561C108.056 10.8265 107.9 10.5223 107.664 10.285C107.44 10.0772 107.088 9.97334 106.609 9.97334C106.16 9.97334 105.83 10.0824 105.598 10.299C105.363 10.5346 105.207 10.8365 105.149 11.1639C105.072 11.5481 105.034 11.9392 105.037 12.3311V20.9298C105.035 21.3248 105.069 21.7191 105.138 22.1079C105.187 22.4391 105.34 22.7459 105.576 22.9837C105.8 23.194 106.145 23.3016 106.609 23.3016Z" fill="#FFC239"/>
<path d="M119.094 25.9741C117.762 25.9741 116.707 25.7346 115.928 25.2557C115.153 24.7803 114.563 24.0554 114.255 23.2003C113.923 22.311 113.757 21.2446 113.757 20.0011V13.2209C113.757 11.9742 113.925 10.9114 114.262 10.0326C114.568 9.18409 115.159 8.4681 115.934 8.00676C116.708 7.55173 117.761 7.32422 119.094 7.32422C120.427 7.32422 121.493 7.56004 122.293 8.03169C123.071 8.4931 123.665 9.20863 123.976 10.0575C124.313 10.9333 124.481 11.9924 124.481 13.2349V20.0151C124.481 21.2617 124.313 22.3281 123.976 23.2143C123.667 24.0718 123.073 24.7973 122.293 25.2697C121.507 25.7393 120.44 25.9741 119.094 25.9741ZM119.094 23.3016C119.572 23.3016 119.925 23.194 120.149 22.9759C120.385 22.7371 120.542 22.4313 120.598 22.1001C120.675 21.7122 120.712 21.3175 120.71 20.922V12.3233C120.713 11.9314 120.675 11.5403 120.598 11.1561C120.541 10.8261 120.383 10.5219 120.146 10.285C119.924 10.0772 119.573 9.97334 119.094 9.97334C118.643 9.97334 118.306 10.0819 118.083 10.299C117.848 10.5346 117.692 10.8365 117.634 11.1639C117.557 11.5481 117.519 11.9392 117.522 12.3311V20.9298C117.52 21.3248 117.554 21.7191 117.623 22.1079C117.672 22.4391 117.825 22.7459 118.061 22.9837C118.285 23.194 118.63 23.3016 119.094 23.3016Z" fill="#FFC239"/>
<path d="M128.509 25.726V10.2987H125.704V7.54053H134.999V10.3019H132.237V25.7291L128.509 25.726Z" fill="#FFC239"/>
<defs>
<linearGradient id="paint0_linear_2_14133" x1="24.8803" y1="2.96871" x2="13.6121" y2="47.4179" gradientUnits="userSpaceOnUse">
<stop stop-color="#FF922E"/>
<stop offset="1" stop-color="#FFC239"/>
</linearGradient>
<linearGradient id="paint1_linear_2_14133" x1="19.3333" y1="1.56143" x2="8.06365" y2="46.0106" gradientUnits="userSpaceOnUse">
<stop stop-color="#FF922E"/>
<stop offset="1" stop-color="#FFC239"/>
</linearGradient>
<linearGradient id="paint2_linear_2_14133" x1="20.2542" y1="5.47265" x2="4.78173" y2="39.503" gradientUnits="userSpaceOnUse">
<stop stop-color="#F9F9F9"/>
<stop offset="1" stop-color="#B5B5B5"/>
</linearGradient>
<linearGradient id="paint3_linear_2_14133" x1="-3.97444" y1="23.7484" x2="32.7674" y2="-12.3779" gradientUnits="userSpaceOnUse">
<stop stop-color="#F9F9F9"/>
<stop offset="1" stop-color="#B5B5B5"/>
</linearGradient>
<linearGradient id="paint4_linear_2_14133" x1="-4.12861" y1="23.5911" x2="32.6132" y2="-12.5336" gradientUnits="userSpaceOnUse">
<stop stop-color="#F9F9F9"/>
<stop offset="1" stop-color="#B5B5B5"/>
</linearGradient>
<linearGradient id="paint5_linear_2_14133" x1="-4.06373" y1="23.6567" x2="32.6781" y2="-12.468" gradientUnits="userSpaceOnUse">
<stop stop-color="#F9F9F9"/>
<stop offset="1" stop-color="#B5B5B5"/>
</linearGradient>
<linearGradient id="paint6_linear_2_14133" x1="1.50481" y1="29.3213" x2="38.2466" y2="-6.80502" gradientUnits="userSpaceOnUse">
<stop stop-color="#F9F9F9"/>
<stop offset="1" stop-color="#B5B5B5"/>
</linearGradient>
<linearGradient id="paint7_linear_2_14133" x1="1.61064" y1="29.4287" x2="38.3525" y2="-6.6976" gradientUnits="userSpaceOnUse">
<stop stop-color="#F9F9F9"/>
<stop offset="1" stop-color="#B5B5B5"/>
</linearGradient>
<linearGradient id="paint8_linear_2_14133" x1="-1.52192" y1="26.2434" x2="35.2199" y2="-9.88288" gradientUnits="userSpaceOnUse">
<stop stop-color="#F9F9F9"/>
<stop offset="1" stop-color="#B5B5B5"/>
</linearGradient>
</defs>
</svg>
