<svg width="62" height="70" viewBox="0 0 62 70" fill="none" xmlns="http://www.w3.org/2000/svg">
<path d="M60.8328 57.6888C60.2592 57.5179 59.5911 57.6553 58.9972 58.6568L49.9142 58.6836L48.6321 62.2106C48.4928 62.5929 48.2384 62.9233 47.9033 63.157C47.5683 63.3907 47.1689 63.5164 46.7594 63.5169L48.514 58.6869H47.1846L45.9058 62.2073C45.7659 62.5898 45.5109 62.9203 45.1753 63.154C44.8397 63.3877 44.4397 63.5133 44.0298 63.5136L45.7843 58.6903H44.4549L43.1897 62.2106C43.0512 62.5934 42.797 62.9244 42.4618 63.1583C42.1266 63.3921 41.7267 63.5174 41.317 63.5169L43.0682 58.7003L33.2833 58.7271H26.5723C26.6929 58.2739 26.9612 57.8731 27.3354 57.5871C27.7095 57.3012 28.1684 57.1461 28.6406 57.1461H33.7017L41.4621 29.9179H27.7802C24.2104 41.2192 20.6406 53.9775 17.0709 65.5735C16.4669 67.5297 17.9279 69.9279 19.9895 69.9581C32.6288 70.1021 45.2681 69.8174 57.9108 69.9581C58.2614 69.9627 58.6036 69.8512 58.8834 69.6414C59.1633 69.4315 59.3647 69.1352 59.4561 68.7991L61.9361 59.7387C62.0551 59.3217 62.0067 58.8751 61.8009 58.4928C61.5952 58.1105 61.2481 57.8223 60.8328 57.6888Z" fill="url(#paint0_linear_52_8691)"/>
<path d="M50.022 0.0301457V7.6301e-10H35.9892C35.6776 -7.89015e-06 35.3691 0.0611891 35.0814 0.180065C34.7937 0.298942 34.5326 0.473147 34.3131 0.692647C34.0935 0.912146 33.9199 1.1726 33.8022 1.459C33.6845 1.74541 33.6251 2.0521 33.6273 2.36141H40.6015C40.4413 2.78732 40.1573 3.15638 39.7854 3.42176C39.4136 3.68714 38.9707 3.83687 38.513 3.85195L35.834 3.92899C34.6328 7.82113 33.4294 11.7133 32.2237 15.6054H45.5884L49.3573 2.36141H49.7284C50.0261 2.36558 50.3149 2.26111 50.54 2.06785C50.7652 1.87458 50.911 1.60597 50.9499 1.31301C50.9832 1.02298 50.9067 0.731007 50.7352 0.493887C50.5637 0.256767 50.3095 0.091466 50.022 0.0301457Z" fill="url(#paint1_linear_52_8691)"/>
<path d="M61.2341 20.1306L61.2037 19.7789C60.4648 11.5792 53.4399 5.35917 45.1431 5.35917H21.1331C20.1591 5.3586 19.2086 5.65563 18.4106 6.20994C17.6125 6.76424 17.0057 7.54895 16.6725 8.45748C16.0449 9.96476 15.4151 11.472 14.783 12.9793H12.6911C11.9773 12.9801 11.2731 13.1433 10.6327 13.4562C9.99222 13.7692 9.43251 14.2237 8.99648 14.7847H20.8868C21.9294 14.7847 22.9618 14.8149 23.9909 14.835C24.3469 14.8425 24.6972 14.9257 25.0181 15.0789C25.339 15.2321 25.6232 15.4517 25.8514 15.7231C26.0797 15.9944 26.2467 16.3111 26.3414 16.6519C26.436 16.9927 26.456 17.3497 26.4 17.6988L23.5961 25.3357H22.2701L24.9424 17.9668H24.1124L21.4367 25.3357H19.7497L22.4287 17.9668C18.0087 17.8797 14.4321 17.7959 10.0121 17.7122C9.49025 17.7029 8.97607 17.8376 8.52686 18.1013C8.07765 18.3651 7.71108 18.7476 7.46802 19.2061C7.2583 19.6033 7.10393 20.027 7.00915 20.4655C6.97432 20.6257 6.97842 20.7918 7.02112 20.9501C7.06382 21.1083 7.14389 21.2543 7.25469 21.3757C7.3655 21.4972 7.50385 21.5907 7.6583 21.6485C7.81274 21.7063 7.97884 21.7268 8.14284 21.7082H8.16646C8.40562 21.6663 8.63144 21.5689 8.82551 21.424C9.01959 21.279 9.17644 21.0907 9.28328 20.8741H16.9762C16.9789 21.0216 16.952 21.1681 16.8971 21.3051C16.8422 21.4421 16.7605 21.567 16.6565 21.6723C16.5526 21.7777 16.4286 21.8614 16.2917 21.9188C16.1549 21.9761 16.0079 22.0059 15.8594 22.0063H11.8375C6.27022 38.439 2.36303 50.2729 0.746843 53.9272C-0.869344 57.5815 0.507283 59.1089 1.68821 59.685C2.19876 59.9279 2.75851 60.0517 3.32464 60.0468H13.4739L20.2221 40.4688H18.2212C17.7022 40.4688 17.2044 40.2642 16.8374 39.8998C16.4704 39.5355 16.2643 39.0414 16.2643 38.5261H27.5978C32.3991 45.2252 37.2005 52.018 42.0018 58.7271C46.6175 58.7271 51.2333 58.6567 55.8355 58.6567L39.8188 37.2734L45.1127 37.4174C48.9574 37.4327 52.6806 36.0808 55.6081 33.6066C58.5356 31.1323 60.4739 27.6992 61.0721 23.9289C61.2664 22.6725 61.3207 21.3987 61.2341 20.1306ZM20.4785 27.9684H18.9264L19.6856 25.885H21.2343L20.4785 27.9684ZM22.6345 27.9684H21.4604L22.2128 25.8984H23.3937L22.6345 27.9684ZM29.5683 27.9684C28.0567 27.9684 26.2122 27.9684 24.0348 27.9684L24.7906 25.9085H30.3207L29.5683 27.9684ZM24.9964 25.3357L27.6113 18.2079C29.8585 18.2381 31.7209 18.2515 33.0976 18.2548L30.5231 25.3357H24.9964ZM32.2203 27.9818H30.9651L31.7176 25.8917H32.9761L32.2203 27.9818ZM31.92 25.3357L34.4944 18.2582H35.7665L33.1786 25.3357H31.92ZM39.2047 26.7258C37.2882 27.6871 35.4932 27.9249 33.6206 27.9718L34.3764 25.8917C35.5654 25.9543 36.757 25.9543 37.9461 25.8917C39.7175 25.8013 40.5206 25.6204 41.3202 25.1984C41.6559 25.0187 41.9714 24.8043 42.2616 24.5586C41.3643 25.4367 40.3325 26.1682 39.2047 26.7258ZM43.122 22.7063C42.7846 23.9088 41.553 24.4816 40.885 24.7897C39.9875 25.1984 39.1979 25.2553 37.6695 25.3424C36.6402 25.4049 35.6081 25.4049 34.5788 25.3424L37.1431 18.285C37.4805 18.2247 40.2574 17.8093 42.0018 19.6516C42.238 19.8927 43.5269 21.2359 43.122 22.6996V22.7063Z" fill="url(#paint2_linear_52_8691)"/>
<path d="M24.1463 20.1907L24.9493 17.9801H24.1092L22.8338 21.4937L24.1463 20.1907Z" fill="url(#paint3_linear_52_8691)"/>
<path d="M25.58 15.4446C25.8975 15.7209 26.1393 16.0725 26.2826 16.4668C26.426 16.861 26.4665 17.2849 26.4 17.6988L26.2548 18.0873L39.1 5.35917H35.7664L25.58 15.4446Z" fill="url(#paint4_linear_52_8691)"/>
<path d="M20.1917 24.1165L22.0846 18.9147L8.25081 32.6477C7.66147 34.3984 7.09912 36.0653 6.56377 37.6486L20.1917 24.1165Z" fill="url(#paint5_linear_52_8691)"/>
<path d="M54.8166 8.5177L42.7003 20.5458C42.912 20.8586 43.0584 21.2104 43.1308 21.5803C43.2032 21.9502 43.2002 22.3309 43.122 22.6996C42.7846 23.9021 41.5531 24.4748 40.885 24.783C40.0314 25.1715 39.279 25.2419 37.8855 25.3256L37.2883 25.9218L37.9461 25.8917C39.7175 25.8013 40.5206 25.6204 41.3202 25.1984C41.6559 25.0187 41.9714 24.8043 42.2616 24.5586C41.3704 25.435 40.3457 26.1663 39.225 26.7257C38.0144 27.3319 36.7032 27.7154 35.3549 27.8578L24.5882 38.5193H27.5979C28.2907 39.484 28.9813 40.4509 29.6696 41.42L58.6867 12.6142C57.6494 11.0334 56.3393 9.64664 54.8166 8.5177Z" fill="url(#paint6_linear_52_8691)"/>
<path d="M18.9601 44.1132L2.92982 60.0267C3.06097 60.0401 3.1928 60.0468 3.32464 60.0468L10.9129 60.0468L14.8032 56.1815L18.9601 44.1132Z" fill="url(#paint7_linear_52_8691)"/>
<path d="M45.1431 5.35917L41.7184 5.35906L28.7484 18.2212C30.4895 18.2413 31.9605 18.2515 33.0976 18.2548L30.5231 25.3357H24.9964L26.9534 20.0032L24.7535 22.187L23.5961 25.3357H22.2701L22.6616 24.257L21.0218 25.8916H21.2344L20.4785 27.9684H18.9264L5.2142 41.5841C3.13576 47.6769 1.61398 51.9778 0.746843 53.9272C-0.602791 56.9719 0.109206 58.5059 1.05732 59.2863L20.0129 40.4687L18.2212 40.4688C17.7022 40.4688 17.2044 40.2642 16.8374 39.8998C16.4704 39.5355 16.2643 39.0414 16.2643 38.5261L21.9699 38.526L34.1976 26.3873L34.3764 25.8917L34.6835 25.8916L35.2233 25.3523C34.9972 25.3523 34.7813 25.3523 34.5789 25.3222L37.1432 18.2648C37.457 18.2112 39.7412 17.8695 41.4687 19.1557L53.2342 7.47596C50.7705 6.07894 47.9803 5.34906 45.1431 5.35917ZM22.6346 27.9549H21.4604L22.2128 25.8849H23.3938L22.6346 27.9549ZM29.5683 27.9549C28.0568 27.9549 26.2123 27.9549 24.0348 27.9549L24.7906 25.895H30.3208L29.5683 27.9549ZM32.2204 27.975H30.9652L31.7176 25.8917H32.9761L32.2204 27.975ZM33.1786 25.3289H31.9201L34.4945 18.2514H35.7665L33.1786 25.3289Z" fill="url(#paint8_linear_52_8691)"/>
<defs>
<linearGradient id="paint0_linear_52_8691" x1="50.818" y1="-41.1055" x2="-0.658723" y2="120.028" gradientUnits="userSpaceOnUse">
<stop stop-color="#FF922E"/>
<stop offset="1" stop-color="#FFC239"/>
</linearGradient>
<linearGradient id="paint1_linear_52_8691" x1="31.8918" y1="15.0547" x2="-107.486" y2="423.621" gradientUnits="userSpaceOnUse">
<stop stop-color="#FF922E"/>
<stop offset="1" stop-color="#FFC239"/>
</linearGradient>
<linearGradient id="paint2_linear_52_8691" x1="44.3709" y1="8.19744" x2="-4.27451" y2="93.4093" gradientUnits="userSpaceOnUse">
<stop stop-color="#CFD7FF"/>
<stop offset="1" stop-color="#B5B5B5"/>
</linearGradient>
<linearGradient id="paint3_linear_52_8691" x1="-921.397" y1="658.761" x2="546.949" y2="-1480.64" gradientUnits="userSpaceOnUse">
<stop stop-color="#D0A5A5"/>
<stop offset="1" stop-color="#B5B5B5"/>
</linearGradient>
<linearGradient id="paint4_linear_52_8691" x1="-158.303" y1="249.403" x2="268.258" y2="-102.874" gradientUnits="userSpaceOnUse">
<stop stop-color="#F9F9F9"/>
<stop offset="1" stop-color="#B5B5B5"/>
</linearGradient>
<linearGradient id="paint5_linear_52_8691" x1="-61.3665" y1="119.324" x2="233.288" y2="-192.664" gradientUnits="userSpaceOnUse">
<stop stop-color="#F9F9F9"/>
<stop offset="1" stop-color="#B5B5B5"/>
</linearGradient>
<linearGradient id="paint6_linear_52_8691" x1="-38.7853" y1="115.964" x2="126.952" y2="-24.3309" gradientUnits="userSpaceOnUse">
<stop stop-color="#F9F9F9"/>
<stop offset="0.135417" stop-color="#F7F7F7"/>
<stop offset="1" stop-color="#B5B5B5"/>
</linearGradient>
<linearGradient id="paint7_linear_52_8691" x1="2.15323" y1="84.0971" x2="345.926" y2="-215.664" gradientUnits="userSpaceOnUse">
<stop stop-color="#F9F9F9"/>
<stop offset="1" stop-color="#B5B5B5"/>
</linearGradient>
<linearGradient id="paint8_linear_52_8691" x1="-3.83791" y1="66.2652" x2="97.9798" y2="-24.2188" gradientUnits="userSpaceOnUse">
<stop stop-color="#F9F9F9"/>
<stop offset="1" stop-color="#B5B5B5"/>
</linearGradient>
</defs>
</svg>
