<?xml version="1.0" encoding="utf-8"?>
<!-- Generator: Adobe Illustrator 23.1.0, SVG Export Plug-In . SVG Version: 6.00 Build 0)  -->
<svg version="1.1" id="Layer_1" xmlns="http://www.w3.org/2000/svg" xmlns:xlink="http://www.w3.org/1999/xlink" x="0px" y="0px"
	 viewBox="0 0 478 478" style="enable-background:new 0 0 478 478;" xml:space="preserve">
<style type="text/css">
	.st0{opacity:0.2;}
	.st1{fill:#FFFFFF;}
</style>
<g class="st0">
	<path class="st1" d="M132.4,25.1c0.5,0.2,0.9-0.1,1.1-0.6c0.3-0.6,0-1.3-1.3-1.2c0,0.6-0.5,0.5-0.4,1.2
		C132,24.8,132.2,25,132.4,25.1z"/>
	<path class="st1" d="M161.3,29.1c0.1,0.7,0.1,1.4,1,1.4c0.2-0.2,0.4-0.7,0.4-1.2C162.2,29.1,161.8,28.7,161.3,29.1z"/>
	<path class="st1" d="M223.5,34.7c-0.2,0.2-0.5,0.4-0.7,0.6c-0.1,1,0.3,1.4,1,1.6C224.9,36.7,225.1,34.8,223.5,34.7z"/>
	<path class="st1" d="M245.2,13.6c0.2-0.3,0.3-0.9,0.6-1.2c-0.2-0.3-0.8-0.4-1.3-0.4C244.3,12.9,244.6,13.5,245.2,13.6z"/>
	<path class="st1" d="M181.4,7c-3.2,0.8-6.3,1.6-9.5,2.5c-0.2,0-0.3,0.1-0.5,0.1c-0.9,0.3-1.7,0.5-2.6,0.8c-0.4,0.1-0.7,0.2-1.1,0.3
		c-0.8,0.3-1.6,0.5-2.4,0.8c-0.2,0.1-0.4,0.1-0.5,0.2c-6.8,2.2-13.5,4.7-20,7.5c0.3,0.6,0.6,1.2,0.9,2c2.1-0.8,4.5-1.2,6.8-1.7
		c0.1,0.7-0.4,0.6-0.4,1.2c1,0.1,1.8,0,2.5-0.2c0.5-2.4,3.2-4.9,4.9-3.7c-0.9,2.4-4.1,6.7-1.1,8.8c1-1.3,2.3-2.4,2.5-4.7
		c-0.6-0.5-1.4-0.9-1.9-1.5c0.8-0.8,1.5-1.9,1.9-3.3c-1-0.4-1.6-1.1-2.1-2c0.9,0.3,1.2-0.2,2.1,0c0.3,1.1,0.3,2.5,0.1,4
		c2,0.4,2.5-1.2,3.3-2.2c0.8,0.8,1.5,1.7,2.3,2.2c0.1-0.1,0.1-0.2,0.1-0.3c0,0.2,0,0.5-0.1,0.8c1.6,1.9,5,2.1,4.4,5.9
		c1.9,0.3,3.9,0.7,4.9-0.4c0.2,0.7,0.8,1,1,1.6c-0.6,0-1,0.3-1,1.1c0,0.7,0.9,0.6,1,1.1c-0.2,0.5-0.7,0.6-0.8,1.4
		c1.2,1,2.5-0.1,2.9-1.2c-1.5-3.6-3.8-8.9-1.6-13.7c0.9,0.4,1.7,0.9,3.1,0.9c0.1-0.8,0.6-1,0.6-1.9c-1,0.3-2.6-0.2-3.7,0.1
		c0.1-1.1,0.2-2.3,1-2.7c1.1-0.2,1.9,0.4,3.2,0.7c0.1-1.2,0.3-2.3,0.4-3.5C181.4,8.1,181.3,7.7,181.4,7z"/>
	<path class="st1" d="M227,48.6c-0.3,1.5,0.6,2.2,1.7,1.7c0-0.6,0.1-1.2,0.2-1.8C228.1,48.5,227.3,48.3,227,48.6z"/>
	<path class="st1" d="M386.2,51.7c0.3,0.1,0.7,0,0.9-0.2c-0.6-0.5-1.1-0.9-1.7-1.3C385.3,50.8,385.5,51.5,386.2,51.7z"/>
	<path class="st1" d="M397.5,60.2c-0.3-0.3-0.6-0.5-0.9-0.8c0,1-1,0.6-1.7,0.5c0.1,1,0.9,1.6,1.4,2.2
		C396.7,61.4,397.1,60.8,397.5,60.2z"/>
	<path class="st1" d="M232.1,0.1c-0.3,0-0.5,0-0.8,0c0.4,1.2,0.8,2.3,1.5,3.3C233.3,1.7,232.9,0.7,232.1,0.1z"/>
	<path class="st1" d="M219.9,34.3c0.3-0.1,0.6-0.3,1-0.4C221.7,29.8,217.1,33.2,219.9,34.3z"/>
	<path class="st1" d="M273.2,13.4c0.1-1.1,0.2-2.2,0.3-3.3c1,0.3,2.3-0.5,2.9,0.1c-0.2,1.5-1.6,2.7-1.3,3.9c1-0.6,1.7-1.6,1.9-3.3
		c1.6-0.3,2-2.1,3.1-3.2c2.6,1.2,4.8-0.2,6.7-0.9c-0.2-0.5-0.1-1.3,0-2c-0.4-0.1-0.8-0.1-1.2-0.2c-0.2,0.8-1,1.7-1.8,2.3
		c-0.6-0.4-0.3-1.6-0.2-2.5c-2,0.5-2.9,2.7-5.5,2.3c-0.5,0.6-0.5,1.8-1.1,2.1c-1.4-0.2-3.7,1.1-4.3-0.5c1.1-0.6,2.2-1.2,3-2.3
		c1.2-0.4,2.4-1.5,2.8-2.7c-0.8-0.1-1.6-0.3-2.4-0.4c-0.3,0.3-0.5,0.6-0.8,0.9c-0.6-0.1-1.4-0.1-1.9-0.2c0.2-0.4,0.6-0.7,0.9-0.9
		c-0.3,0-0.5-0.1-0.8-0.1c0,0,0,0,0,0.1c-1.4-0.1-1.8,1.1-2.3,2.8c0.1,0.7,0.4,1.1,1.2,1.2c-0.2,0.4-0.9,0.3-1,0.9
		c-1.1-0.8-2-1.9-2.7-3.1c0.1-0.8,0.3-1.6,0.4-2.4c-3.7-0.5-7.4-0.8-11.2-1.1c0.1,1.2,0.4,2.4,0.8,3.4c-2.8,1.4-7.3,1.6-9.2-1.4
		c-0.1-0.7,0-1.6,0.1-2.5c-1.3-0.1-2.6-0.1-3.9-0.1c-0.1,0.2-0.2,0.4-0.4,0.4c-0.7-0.1-1.3-0.3-1.9-0.5c-1.3,0-2.5,0-3.8,0
		c0.3,0.7,0.6,1.3,0.9,1.9c-0.6,0.8-2.4,0-3.7,0.1c-0.3-0.7-0.7-1.3-1-1.9c-0.3,0-0.5,0-0.8,0c0.3,1,0.6,1.9,1.1,2.6
		c-0.8-0.1-1,0.5-1.5,0.9c0.1,0.8,0,1.4-0.2,1.9c-0.6,0.1-1.4,0.4-2.4,0.8c-1.4-0.5-2.9-1.9-3-2.9c0.5,0.1,0.8,0.1,1-0.4
		c-0.4-0.5-0.8-1.1-0.9-1.9c-1.1,0.3-1.9-0.3-2.5-0.7c-0.4,0-0.7,0-1.1,0.1c0,0.8,0.2,1.5,0,2.5c-0.9,1-1.9,1.9-3,2.7
		c-0.8-1.7-1.2-3.9-3.1-4.8c-5.5,0.4-11,1.1-16.5,1.9C203.1,2.8,203,2.9,203,3c1-0.1,1.9-0.4,2.8-0.6c0,0.4-0.1,0.8-0.3,1
		c0.9,0.3,1.3-0.1,2.1,0c0.5,1.3,0.2,3.3-0.7,4.2c-0.1-0.1-0.2-0.1-0.1,0.1c-0.1,0.1-0.2,0.2-0.4,0.3c-0.8,0.1-1-0.4-1.3-0.7
		c0.2-0.3,0.6-1.2,0.9-1.6c-0.4-0.1-0.6-0.2-0.8-0.4c0.1-0.1,0.1-0.3,0.2-0.4c-0.1,0-0.2,0.1-0.3,0.1c-0.2-0.3-0.3-0.6-1.3-0.6
		c0-0.3,0,0.3-0.1,1.3c-0.6,0.3-1.2,0.7-1.3,0.7c-0.1-1,0.5-2.6,0.1-3.2c-0.8,0.6-1.6,0.3-2.3-0.2c-0.3,0-0.6,0.1-0.9,0.1
		c0,0-0.1,0-0.1,0c-1.9,0.3-3.9,0.7-5.8,1c-1.7,0.3-3.4,0.7-5,1c-1.7,0.4-3.5,0.8-5.2,1.2c0.1,1.4,0.4,2.7,0.9,3.7
		c-0.1,0.1-0.3,0.2-0.4,0.2c0.2,0.4,1.3,1.5,2.8,2.7c0.5,1.4,1.3,2.4,3.1,2.5c0,0,0,0,0,0c1.7,1.4,3.3,2.5,3.7,2.9
		c0-0.6-0.1-1-0.1-1.5c0.5,0.6,0.8,1.1,0.7,1.1c-0.1,0.6-0.4,0.9-0.4,1.7c0.3,0.5,1.2,0.5,1.5,0.9c-1.9,0.6-1.2,3.4-1.2,5.4
		c-1.8-2-3.7-4-2.8-8.5c-1.2,0.5-2.3,1.2-3.2,2.1c0.4,2.3,1.5,4,3.1,5.2c-0.7,0.3-1.4,0.5-2.1,0.8c0.2-0.4,0.7-0.6,0.6-1.4
		c-0.3-0.8-1.8-1.4-2.4-0.6c0,2.9,3.9,2.5,5.8,3.8c-0.7,2.3-3.1,5-2.3,7.3c2-3.8,4.8-9.1,10.6-5.7c0.1-0.4,0-0.9,0.3-1
		c2.3,0,3.2,1.1,3.9,2.5c-0.5,1-1.7,1.1-2.1,2.3c0.8,0.3,1.2,1,1.7,1.5c-0.5,1.3-0.8,2.8-1.1,4.4c1.1,1.9,4.3,1.4,5.5,0.2
		c0.8-1.2,0-4.8,1.6-4.9c0.1,2.5,0.8,4.3,2.4,5.4c3.8-0.6,3.6-5.4,2.2-8.6c0.6,0.3,1.3,1.2,2,0.8c0.3-1.9-1.5-3.7-2.9-2.7
		c-0.1,0.8,0.4,1,0.5,1.6c-1.4,1.5-3.5-0.4-4.9-1.4c1.9,0.1,3.3-0.6,4.3-1.8c0.2-1-0.4-1.4-0.2-2.6c0.6-0.5,1.1-1.1,2-1.3
		c-0.1-0.3,0.2-0.4,0.5-0.3c0,0.1,0.1,0.3,0.2,0.4c0.5,0.3,1.2,0.5,2,0.5c-0.2,0.4-0.6,0.7-0.8,1.2c4.9-0.8,9.1,4.7,12.7,4.9
		c0.6,1.4,1.7,3.5,3.6,3c0-2.6-2.4-3.6,0.7-4.5c0.3,1.1,0.2,2.6,1.1,3.2c0.4-3-0.5-4.4-3.5-4c-1.1-2,0.8-3.1,2.2-3.3
		c-0.2-0.1-0.4-1.5-0.1-1.3c0.8,0.3,1.8,1.6,2.6,1.1c-0.7-0.9-1.1-1.9-1.5-3c2.3-1.3,4.9-1.1,6.8,0c-0.2-0.3-0.4-0.6-0.3-1.2
		c1.3-1.6,5.4,2.3,6.5-0.7c-1.3-0.1-1.9-0.8-3.1-0.9c-0.8-2.1,0.2-5.8-2.8-6c-0.4,0.7,0,1.3-0.3,2.5c-1.8,0.2-3.6,0.4-4.9,1.2
		c1.2,1,4,0.6,4.6,2.1c-3.7-1.6-10.3-0.8-11.9-4.3c1.5,0.3,2.5-0.1,4.1,0.3c0.1-0.8-0.4-1-0.5-1.6c0.6,0.1,1.2,0.2,1.2-0.6
		c0-0.3,0-0.5,0.1-0.8c-0.7-0.6-1.2-0.6-2-0.3c-0.5-0.6-0.3-1.7-0.6-2.4c0.6-0.7,1.2-1.4,1.6-1.9c0.8,0,1.6,0,2.5,0
		c-0.3,1.4-1,2.3-1.7,3.1c0.9,0.2,2.2,0.3,1.4,1.5c1,0.1,1.9,0.2,2.9,0.4c0.2-2.4-0.7-5,0-7.1c3.1,1.1,8.7,0.1,8.2,4.3
		c-1.1,0.8-2.9,1.8-4.4,0.5c0,0.5-0.1,1-0.1,1.5c1.3,0.2,2.2,0.6,3.3,0.9c2.2-0.2,2.3-5,1.3-5.7c0.3,0.1,1.5,1.1,1.4,0.1
		c0.3-1.4-1.6-0.7-1.9-1.5c0-0.4,0.1-0.8,0.1-1.3c0.7-0.1,1.5,0,2.1-0.3c1.3,3,6.6,3.6,9.2,1.9c1,0,1.7,1.5,2.4,1.1
		c-0.4-0.9-1.3-1.3-1.1-2.7c1.2-1.1,3-1.1,4.7-1.4c0,0.4-0.1,0.8-0.1,1.3c1,0.2,1.7,0.1,2.5,0.1c-0.1,0.8,0.3,1.1,0,2
		c-1.8,0-3.1,0.7-4.6,0.9c-0.1,2.5,3.3,1.7,4.6,1.3c0.1,0.9,0,1.9,0.4,2.6c1.1-1,2.2-4.5,4.1-2.5c-0.1,0.6-0.4,1-0.6,1.4
		c0.6,0.2,1.8-0.1,2,0.5c-0.4,0.5-0.8,0.9-1.1,1.6C272.2,12.4,272.4,13.2,273.2,13.4z"/>
	<path class="st1" d="M165.7,23.6c0,0.9,0.7,1.4,0.9,2.1c1.2-0.2,2.2,1,2.9,0.4c-0.9-1-2.1-2.4-1.4-4
		C167.2,22.3,166.6,23.2,165.7,23.6z"/>
	<path class="st1" d="M185.7,18.5c-1.7,0-1.3,3.7,0.1,3.8C186.4,21.5,186.9,18.9,185.7,18.5z"/>
	<path class="st1" d="M175.6,28.4c-0.3-0.6-0.8-1.2-0.9-1.9c-2.3-0.6-3.2,0.7-4.1,2c0.4,1.9,1.2,3.6,3,4.2c0.2-0.4-0.1-1.5,0.4-1.5
		c-0.2,1,2.8,1.5,3.1,0.6c-1.1-1-1.6-2.3-2.5-3.4C174.9,28.5,175.4,28.7,175.6,28.4z"/>
	<path class="st1" d="M170.6,35.1c0-1.1,0.6-2.8,0.1-3.5C168.8,31.9,168.3,34.6,170.6,35.1z"/>
	<path class="st1" d="M210.3,39.1c-1.8,1.5-0.6,4.9,1,5.5C213.9,43.7,214.8,38.8,210.3,39.1z"/>
	<path class="st1" d="M205.7,5c1.7,1.8-1.2-3.5-0.2-0.4c0.1-0.2,0.1,0-0.1,0.4C205.6,4.9,205.7,4.9,205.7,5z"/>
	<path class="st1" d="M206,5.7c0.1,0,0.3,0,0.4,0C206.4,5.5,206.2,5.5,206,5.7z"/>
	<path class="st1" d="M203.6,39.5c-1.8-0.1-2.3,3-1.4,4.4C203.2,43.3,204.2,41.3,203.6,39.5z"/>
	<path class="st1" d="M230.2,40.9c-1,0.8-0.8,3.1,1.1,2.7C232.1,42.5,231.5,40.9,230.2,40.9z"/>
	<path class="st1" d="M351,61.9c0.2-1.2-0.1-2-1.4-2c-0.3,0.3-0.3,1.1-0.4,1.7C349.8,62.2,350.3,62.4,351,61.9z"/>
	<path class="st1" d="M344,35.6c-0.6,1-0.3,2.4,1.2,2.2C346.1,36.7,345.1,35,344,35.6z"/>
	<path class="st1" d="M355.8,40.7c0.9,0.2,0.8,1.2,2,1.3c0.8-2.2,2.9-2.6,4.3-4C359,36.5,357.2,39,355.8,40.7z"/>
	<path class="st1" d="M354.5,51.2c2-1.6,2.6-2.9,1-5.2c-1.2,0.2-2.3,0.5-3.7,0.6c-0.2,1.2-1.7,2-1.2,3.1c1.5-1,2.7-2.4,4.4-3
		C355.1,48.4,354,49.9,354.5,51.2z"/>
	<path class="st1" d="M346.2,40.5c-0.3,0.3-0.5,1.4-0.2,1.8c0.4,0.1,0.8,0.1,1.1,0.1C347.9,41.6,347.4,40.3,346.2,40.5z"/>
	<path class="st1" d="M365.4,47.5c-0.1-1.5,0.7-3.4,0.4-4.3c-0.5,1.4-1.4,2.1-1.9,3.3C364.7,46.6,364.6,47.4,365.4,47.5z"/>
	<path class="st1" d="M368.9,57.8c-3.2,1.4,1.6,5.8,1.5,0.9C369.8,58.6,369.8,57.8,368.9,57.8z"/>
	<path class="st1" d="M370.2,51.6c0.9-2.5-4.1-3.1-3.8-1.2C367.9,49.7,369.3,51.1,370.2,51.6z"/>
	<path class="st1" d="M343.5,38.3c0,0.5-0.1,1-0.1,1.5c0.6,0.1,1.3,0.2,1.6-0.1c0-0.4,0.1-0.8,0.1-1.3
		C344.5,38.2,344.1,38.2,343.5,38.3z"/>
	<path class="st1" d="M330.6,39.2c-1.4-1.4-3.4,1.4-1.8,2.5C330,41.9,331,40.4,330.6,39.2z"/>
	<path class="st1" d="M336.7,42.1c0,0.5-0.1,1-0.1,1.5c0.6,0.1,0.6,0.5,1.3,0.4C339.3,43,337.8,40.9,336.7,42.1z"/>
	<path class="st1" d="M332.3,68.4c-1.7-0.1-2.3,3.2,0.1,3.1C333.7,70.8,333.7,68.9,332.3,68.4z"/>
	<path class="st1" d="M316.7,20.7c-0.4,0.3-0.3,1.3-0.4,2c0.5,0.1,1.1,0.1,1.6,0.2C318.4,21.9,318.2,20.5,316.7,20.7z"/>
	<path class="st1" d="M340.6,51.2c-0.5,0.7-1.7,0.6-2,1.8C339.2,57.8,344.7,53.2,340.6,51.2z"/>
	<path class="st1" d="M327.9,22.6c0.3-0.6-0.3-0.6-0.1-1.3c-0.5-0.1-0.8-0.1-1.2,0.1C326.5,22.6,327.2,22.8,327.9,22.6z"/>
	<path class="st1" d="M323.3,29.9c0.5-1,0.9-2.2,1.7-2.8c2.8,0,5.7,1.1,4.6,3.9c-0.6-0.1-1.2-0.1-1.8-0.2c-0.1,0.7-0.1,1.3-0.2,2
		c0.8,0.2,1.3,0.1,1.8,0c-0.4,0.4-0.3,1.3-0.8,1.4c0.2-1.6-1.5-0.2-1.5-0.7c0.1-1.3,0.3-2.7,0.4-4c-2,0.3-3.4,1.4-5,2.2
		c-0.1-0.7-0.2-1.3-0.3-2.1c-3.1,0-5.2,1.3-6.9,3.2c1.4,0.1,2.3,0.7,3.8,0.7c0-0.5,0.1-1,0.1-1.5c1,0.1,1.7-0.3,2.8-0.1
		c2,4.3-0.8,7.9-5.3,5.4c0.4-0.3,0.2-1.4,0.6-1.7c0.4,0,1.1,0.9,1.2-0.1c0.1-1.4-1.5-0.4-2.2-0.5c-0.4,2,0.6,2.7,1,3.9
		c3.7,0.5,5.6-1.3,7.4-3.4c-0.2-0.7-1-1-1-1.9c0.5-0.9,1.6-0.9,2.8-0.6c-0.4,0.9-1.3,1.1-1.6,2.1c0.8,0.5,2.2,0.5,3.4,0.7
		c0.2,0.5,0.4,1.1,0.5,1.6c3.2,0.4,4.5-1.7,5.6-4.1c2.6,0.9,4.3,2.6,5.7,4.5c-0.6,1-0.5,2.9,0.1,3.6c0.8,0.5,1.4-0.6,1.6-0.1
		c0.2,1.3-0.1,3,1,3.4c0.4-2.4-0.3-3.8-0.3-5.9c-0.6-0.7-1.6-1.1-2.1-1.8c0.1-1.5,0-2.9-0.3-4.1c-1,0.1-1.4,0.9-2.4,1
		c-1.4-1.6-2.8-3.2-3.8-5c-0.8,1,0.8,1.6,0.4,2.8c-1.9,0.5-2.8-1.5-3.6-2.8c0.4-0.2,0.6-0.7,0.6-1.4c-0.2-0.8-1-1.2-1.2-1.9
		c0.5-0.3,1.3-0.1,1.6-0.6c-0.4-0.4-0.8-0.8-1.2-1.2c-1.1,1.1-2,2.4-3.7,2.6c-0.8-0.2-1-0.9-1.7-1.2c-0.5,1.7-1.6,2.5-3,2.9
		C322.7,28.5,322.5,29.7,323.3,29.9z"/>
	<path class="st1" d="M293.5,14.4c-0.4,1.6,1,1.7,0.8,3.2c-0.7,0-1.6-0.4-2.1,0c-0.2,0.9,0.1,1.2,0.3,1.8c1.3,0.5,1.6-0.4,2.6-0.4
		c0.9,0.4,0.5,1.8,0.2,2.8c-0.5-0.3-0.7-0.8-1.5-0.7c-0.2,1.2-1.1,1.3-1.4,2.4c0.6,0.2,1.1,0.5,1.7,0.7c1.4-2.6,3.7-3,6.4-1.2
		c-0.2-1.3-1.4-1.7-1.6-3c0.3-2,3.1-1.4,3.7-0.1c-0.5,0.7-1.9,1.8-1.4,2.9c1.7-1.3,2.6-0.4,5.1-0.4c-0.2-0.8,0-1.8-0.5-2.3
		c-0.8,0.4-1.8,0.3-2.7-0.1c0.4-1.9-1.1-2.1-1.3-3.5c1.1-0.5,1.8,0.5,2.4,1.1c0.7-2.6,2.3-3.9,5.3-3.1c0.2,1.3,0.2,2.7,0.5,3.9
		c0.8,0.1,1.5,0.2,2.3,0.3c-0.2,1.6-0.3,3.2-0.5,4.7c2.2-1.2,1.1-7.2,3.4-8.5c1,0.7,0.8,2.7,2,3.3c0.8-1.2,0-3,0.5-4.5
		c0.3,0,0.6-0.1,1-0.2c-0.7-0.2-1.4-0.5-2.1-0.7c-0.5,0.3-1.1,0.6-1.6,0.8c0-0.4,0-0.9-0.1-1.4c-1.2-0.4-2.3-0.8-3.5-1.1
		c-1.1,0.6-2.2,1.1-3.4,1.6c-0.5-0.9-0.8-2-1.2-3c-0.5-0.1-0.9-0.3-1.4-0.4c-0.3,0.7-0.8,1.2-1.1,1.9c0.9,0,1-0.9,1.7-1.1
		c2.7,2.1-1.7,4-2.9,5.7c-0.3-1.2-0.6-2.4-0.5-3.9c-1.6-0.4-1.7-2.1-1.7-4c-0.3-0.1-0.6-0.2-0.9-0.2c-1.4,1.8-2.9,3.6-4.1,5.6
		c-1.9-0.2-3.1,0.4-5.2-0.2c-0.5-1.1-1.1-2-1.8-3c-0.4,0.4-0.3,1.4-0.4,2.2C289.3,13.8,291.2,14.3,293.5,14.4z"/>
	<path class="st1" d="M242.5,21.7c0.2,0.2,0.4,0.3,0.7,0.4C243,22,242.7,21.8,242.5,21.7z"/>
	<path class="st1" d="M369.8,38.9c-0.7-0.5-1.5-1-2.2-1.4c0.5,0.6,0.7,1.4,0.9,2.2C369,39.6,369.4,39.3,369.8,38.9z"/>
	<path class="st1" d="M362.1,39.2c0.9,0.9,0.8,2.7,2.4,2.8c0.3-1.3-0.5-3.1,0.6-3.7c0.2,0.2,0.6,0.4,1.1,0.4c0.2-0.7,0.2-1.4,0-2
		c-0.6-0.4-1.2-0.7-1.8-1.1c-0.1,0-0.1,0-0.2,0.1c-0.4,1.3,0.4,1.6,0.4,2.6C363.7,38.3,362.8,38.6,362.1,39.2z"/>
	<path class="st1" d="M328.1,25.7c1.6-2.8,3.7-4.9,6.9-5.5c0.8,0.3,1.1,1,1.2,1.9c-0.7,0.1-1.3,0.2-1.7,0.8c0.9,0.1,1.8,0.2,2.7,0.4
		c0,0.9,0.2,1.5,0,2.5c1.1,0.2,1.2,1.4,1.6,2.2c1.3-0.3,2.4-0.7,3.5-1c0,0.6,0.3,0.8,0.1,1.5c0.8,0.2,1.5,0.1,2.1,0
		c0.6-1.9,0.3-3.1-0.1-4.2c-0.8-0.4-1.6-0.8-2.4-1.2c0,0.1,0.1,0.2,0.1,0.2c-1.8-0.1-2.7,1.2-3.9,2c0.1-1-0.5-1.5-0.4-2.6
		c0.7-0.2,1.7-0.2,2.3-0.5c-0.3-0.1-0.6-0.3-0.9-0.4c-0.9-0.4-1.7-0.8-2.6-1.2c-1.2-0.5-2.3-1-3.5-1.5
		C330.7,21,326.7,21.8,328.1,25.7z"/>
	<path class="st1" d="M341.4,30.5c-0.2,0.8-0.1,1.4,0,2c1.1,0.5,1.8,1.3,2.8,1.9c0.3-0.6,1-0.7,1.5-1.1c0.3,2.2,0.6,4.5,1.9,5.8
		c1.3-2.3-0.9-3.3-1.1-5c0.7-0.9,1.8-1.5,2.5-2.5c1.4,1.2,2.7,2.5,2.2,5.3c-0.6,0.7-1.2-0.1-2.1,0.3c-0.4,0.8,0,1-0.2,2
		c1.6,0.4,1.7-1.4,3.1-1.4c0.1,2.5-1.2,3-3,2.7c0,0.9-0.2,1.4-0.4,2c2.3-1.2,5.8,0.2,7.9,1.3c0.1-1.6-0.8-2.4-1.5-3.2
		c2.3-1.7,4.1-5.5,8.2-3.8c0-0.7-0.1-1.3,0-2.1c-1.2-0.7-2.4-1.5-3.7-2.2c-0.1,0.5-0.2,0.9,0.1,1.2c-0.4-1.1-1.7-0.3-2.4,0
		c0.1-0.7,0.1-1.3,0.2-2c0.2,0,0.4-0.1,0.6-0.1c-0.5-0.3-1-0.6-1.5-0.8c-0.8,0.8-1.9,1.3-3,1.7c0-1.3,0.4-1.9,0.5-3
		c-0.8,0.2-1,1.3-1.6,1.8c-0.8-0.7-1.9-1-2.8-1.6c0.5-0.7,1.3-1,1.7-1.7c-0.3-0.2-0.7-0.3-1-0.5c-2.4,1.7-4.5,3.8-7.2,5
		C343.1,31.4,342,31.1,341.4,30.5z"/>
	<path class="st1" d="M322,15.3c0.1-0.2,0.1-0.3,0.1-0.5c-0.6-0.2-1.2-0.4-1.7-0.6c0,0.4,0.1,0.8,0.3,1.2
		C321.3,15.7,321.5,15.2,322,15.3z"/>
	<path class="st1" d="M376.4,49.4c-0.8,0.3-1.1,1.1-1.5,1.9c2.2,0.2,2.9-3.2,2.6-5.5c-1.3-0.1-2,0.4-2.2,1.8
		C375.2,48.4,376.1,48.7,376.4,49.4z"/>
	<path class="st1" d="M373.3,55.3c1.7-0.5,0.6-3,0-4.7c0.1-0.1,0.2-0.2,0.3-0.3c-0.4-0.6-0.4-1.3-1.2-1.3c-0.6,0.7-1.2,1.5-0.2,2.2
		c0.1,0,0.2,0,0.3-0.1c-0.2,0.6-0.3,1.4-0.3,2.2c-0.7,0.3-1.4-0.9-1.4,0.1C370.7,55.1,372.7,55.5,373.3,55.3z"/>
	<path class="st1" d="M325.2,36.8c-0.2,0.4-0.6,0.7-0.8,1.2C325.4,41.3,329.5,36.7,325.2,36.8z"/>
	<path class="st1" d="M251.5,15.7c-1.7,0.6-1.3,3.6-0.2,3.8C252.8,19.8,253.2,15.6,251.5,15.7z"/>
	<path class="st1" d="M256.8,12.3C261.3,14.5,257.8,7.3,256.8,12.3L256.8,12.3z"/>
	<path class="st1" d="M263.8,26.4c1.6-2.9-2.3-3.6-2.4-1.3C261.4,26,262.6,27,263.8,26.4z"/>
	<path class="st1" d="M263.7,35c1,0.8,2.7-1.1,1.3-2.1C264,32.8,263.1,33.9,263.7,35z"/>
	<path class="st1" d="M264,41.2c-0.6,1-1.7,1.2-1.7,3.1C264.9,47.3,267.1,42.4,264,41.2z"/>
	<path class="st1" d="M242.3,27.2c-0.2,1.3,0.4,1.9,1.6,2C245,27.8,243.2,26.2,242.3,27.2z"/>
	<path class="st1" d="M241.7,33.8c-0.1,0.3-0.3,0.4-0.5,0.4c-0.2,1.3,0.1,2,1.2,2.2C243.7,36,243.7,33.5,241.7,33.8z"/>
	<path class="st1" d="M264.2,50.3c-0.3,0.7-0.4,1.3-0.2,2c0.5,0.1,0.9,0.1,1.3,0.2C266.1,51.5,265.7,50,264.2,50.3z"/>
	<path class="st1" d="M238.3,26.7C236.8,32.5,243.9,26.5,238.3,26.7L238.3,26.7z"/>
	<path class="st1" d="M233.2,36.7c0.5,0.1,0.7-0.3,1.4-0.1c-0.2,0.5-0.5,0.6-0.6,1.2c1-0.2,1.9-0.6,3-0.6c0.1-0.6,0.1-1.2-0.1-1.5
		C235.2,35.4,234.2,36,233.2,36.7z"/>
	<path class="st1" d="M245.5,34.5c0.3,0.7,1.5,0.8,2.2,0.5C249.5,32.6,245.1,31.4,245.5,34.5z"/>
	<path class="st1" d="M248.5,31.8c0,0.4-0.1,0.8-0.1,1.3c0.2,0.4,1,0.4,1.6,0.4C251.1,32.3,249.4,30.6,248.5,31.8z"/>
	<path class="st1" d="M282.7,4c-1-0.2-2-0.4-3-0.5c0.3,0.4,0.5,0.8,0.7,1.2C281.3,5,282,4.5,282.7,4z"/>
	<path class="st1" d="M273.2,49.2c0,0.5-0.1,1-0.1,1.5C275.2,52.5,275.7,47.9,273.2,49.2z"/>
	<path class="st1" d="M273.7,30.7c-0.4-0.1-0.8-0.1-1.1-0.1c-0.4,0.5-0.3,1.6-0.7,2.2c0.5,0.1,0.8,0.5,1.6,0.4
		C274,32.5,274.1,31.6,273.7,30.7z"/>
	<path class="st1" d="M297.2,26.9c-0.1,0.9,0.2,1.4,1,1.4c0-0.5,0.3-0.5,0.3-1C298,27.1,297.6,26.4,297.2,26.9z"/>
	<path class="st1" d="M280.7,15.4c-0.2,1-0.2,1.9,0.2,2.3c0.5,0.1,0.9,0.1,1.3,0.2c0.5-0.8,0.6-1.3,0.5-2.2
		C282.4,15.2,281.1,15,280.7,15.4z"/>
	<path class="st1" d="M306.8,24.3c1.2,0,2-0.4,2-2C307.5,21,305.6,22.9,306.8,24.3z"/>
	<path class="st1" d="M275.2,25c0.3,1.2,0.8,2.2,1.8,2.8c0.6-0.7,1.5-0.9,2-1.8C278.6,24.3,276.3,23.8,275.2,25z"/>
	<path class="st1" d="M269.6,44.2C268.7,48.2,273.7,43.7,269.6,44.2L269.6,44.2z"/>
	<path class="st1" d="M269.8,16.3c-0.7,0.1-0.8-0.7-1.3-0.2c-0.2,0.9,0.2,1.3,0.7,1.6C269.5,17.3,269.9,17.1,269.8,16.3z"/>
	<path class="st1" d="M397.4,100c-1,0.9-1.4,1.8-0.3,2.7c0.6,0,1.3-0.8,1.9-1.4C398.5,100.8,398,100,397.4,100z"/>
	<path class="st1" d="M465,166.8c-0.5,0.5-1,0.9-1.4,1.4C464,171.8,468.6,167.7,465,166.8z"/>
	<path class="st1" d="M383.1,53.4c0-1.3,0-3.1,1-4.3c0,0-0.1-0.1-0.1-0.1c-0.4-0.3-0.8-0.6-1.3-1c-0.2-0.1-0.3-0.3-0.5-0.4
		c-0.2,0-0.5-0.1-0.7-0.2c-0.8,1-0.5,2-0.9,2.9C381.9,51.3,381.8,53.2,383.1,53.4z"/>
	<path class="st1" d="M390.8,100.9c1.5,0.6,3.1,0.5,4.7-0.7c-1.9-2.1,0.2-5-2.2-6.5C393,96.1,390.2,98.5,390.8,100.9z"/>
	<path class="st1" d="M404.4,75.1c-2.6,1.6-7.4,2.2-8.7,5.2c5.3-2,7.2-6.5,10,1.9c0.4-0.3,2.4,0.9,2.7,1.1c2.2,2-4.8,0.5-5.3,2.5
		c-0.1,0-0.1,0.1-0.1,0.1c-0.5,0.5-1,1-1.6,1.5c0.8,0.5,0.2,1.1,0.9,1.6c1.3,0.2,2.4-1.3,1.6-2.4c2.1,0.9,7.1,2.4,6.1,3
		c0.5,1,0.3,2,0.4,2.9c-1.6,0.8-3.3,2-5,3.4c-0.6,2.8,3,5.2,5.2,4.9c1.9-0.5,4.2-4.7,5.9-3.4c-2.1,2.5-3,4.9-2.3,7.4
		c4.3,2.7,8.2-2.1,9.8-6.5c0.3,0.8,0.2,2.4,1.3,2.5c2-1.6,1.8-5-0.6-5.2c-0.7,0.7-0.5,1.3-0.9,2.1c-2.7,0.3-3.1-3.4-3.6-5.6
		c1.8,1.7,3.7,2.3,5.8,2c0.9-0.7,0.9-1.4,1.5-2.2c-5.8-7.4-12.1-14.5-18.7-21.2c-0.1-0.1-0.2-0.2-0.2-0.2c-1.2-1.2-2.3-2.3-3.5-3.5
		c-0.3,1.4-0.2,2.7,0,4.1c-0.9-0.3-1.8-0.7-2.8-1.1c0.6-0.2,1.2,0,1.8-0.9c0.4-1.1-0.5-2.9-1.9-2.7C397,71.1,403.7,72.2,404.4,75.1z
		"/>
	<path class="st1" d="M386,53.2c1.6,2,3.2,4,5.1,3.9c-0.4,0.8,0,1.6-0.5,2.5c-0.6-0.6-1.3-0.6-2,0.2c-0.6,0.7,0.4,1.3,0,2
		c-0.7,0.3-1.3,0-2.1,0.7c0.3,2,2.5,2.1,3.8,1.4c0.8-2.1,1.6-4.7,2.9-7.2c-2-1.7-4-3.3-6-4.9C387,52.1,386.6,52.6,386,53.2z"/>
	<path class="st1" d="M404.9,96.4c-1.7-1.7-4.9,1-5.2,3.2C401.1,99.7,403.9,98.6,404.9,96.4z"/>
	<path class="st1" d="M411.8,101.8c-3-0.1-4.9,4.3-3.8,6.3C411.4,109.6,416.5,105.5,411.8,101.8z"/>
	<path class="st1" d="M455.1,160c-0.9,0.4-1.5,0.9-1.9,1.8c0.4,0.5,0.8,0.9,1.2,1.3C456,162.9,456.9,161.1,455.1,160z"/>
	<path class="st1" d="M375.3,42.7c-0.9-0.6-1.8-1.3-2.8-1.9c-0.3,0.7-0.5,1.5-0.2,2.4C373.3,43,374.3,42.9,375.3,42.7z"/>
	<path class="st1" d="M379.9,86.5c1.4,0.9,3.1-1.6,1.6-2.7C380.4,83.6,378.5,85.4,379.9,86.5z"/>
	<path class="st1" d="M376.2,63.1c0.9-1.1,3-2.2,3.2-3.4C377.3,58.3,374.3,60.5,376.2,63.1z"/>
	<path class="st1" d="M427,111.5c1.4,0.7,3.2-1,1.8-2.5c-0.4,0-0.9,0-1.3,0C426.5,109.9,426.5,110.7,427,111.5z"/>
	<path class="st1" d="M405,82.9c-0.4-0.8-0.9-0.2-1.2-0.9c-1.1,0.8-0.9,1.6,0,2.5C404.6,83.9,404.4,83.4,405,82.9z"/>
	<path class="st1" d="M399.2,81.8c0,2.2-3.9,5.1-0.9,6.5C401.6,86.4,404.1,81.7,399.2,81.8z"/>
	<path class="st1" d="M464.9,160.8c-0.1-0.3-0.2-0.5-0.3-0.8C464.5,160.4,464.6,160.7,464.9,160.8z"/>
	<path class="st1" d="M451.9,130.4c-0.4-0.8-0.9-1.6-1.3-2.5c0,0-0.1,0.1-0.1,0.1C450.3,128.9,451.1,129.9,451.9,130.4z"/>
	<path class="st1" d="M462.5,154.3c-0.4-1.1-0.8-2.2-1.3-3.3c-0.9,0-1.7,0.2-2.7,1.4C458.5,155.8,461.2,155.8,462.5,154.3z"/>
	<path class="st1" d="M439.8,123.3c0.6-0.5,1.2-1,1.3-1.6c-1.5-1.8-3-2-4.6-2.2c0.4,0.5,1,0.3,1.5,1.1c-0.6,0.3-1,0.1-1.6,0.7
		C437.5,121.9,438.7,122.4,439.8,123.3z"/>
	<path class="st1" d="M417.2,109.5c-1.9,1.4-1.8,2.7-0.4,4.1C419.3,113.6,419.5,109.5,417.2,109.5z"/>
	<path class="st1" d="M381.2,63.4c0.5-0.3,1.2-1.6,1.7-1.1c-1.1,0.9,1.4,3.9,2.5,3.4c-0.2-1.9,0.5-3.7,0.5-5.5
		c0.3,0.3,0.6,0.9,1,0.7c0.2-0.9,0.3-1.8,0.8-2.7c-1.7-2.6-3.8-2.2-5.8-1.6C380.7,58.8,380,61.1,381.2,63.4z"/>
	<path class="st1" d="M410.1,112c0.6,1.1,0.8,1.4,1.8,1.6c1.2-1,1.5-1.9,0.5-2.9C411.4,110.4,410.8,110.8,410.1,112z"/>
	<path class="st1" d="M391.5,95.3c-0.6-0.9-0.3-1.2-1.3-1.6c-1.7,0.7-2.1,2.6-0.3,3.2C390.4,96.3,390.9,95.8,391.5,95.3z"/>
	<path class="st1" d="M425.5,105.5c0.4,0.2,0.9,0.2,1.3,0.5C431.2,102.6,423.7,101.9,425.5,105.5z"/>
	<path class="st1" d="M443.6,120.6c0.7-0.8,1.4-1.3,2.2-1.6c-0.3-0.5-0.6-1-0.9-1.5c-0.6-0.2-1-0.3-1.3-0.3c0.3-0.2,0.5-0.5,0.7-0.7
		c-2.4-4.1-5-8.1-7.7-12c0.8,2.7,1.5,5.2,3,6.7C438.9,113.1,441.2,119.5,443.6,120.6z"/>
	<path class="st1" d="M445.8,127.1c1.6,0.9,3.9-1.6,1.6-3.1c-0.3,0.2-0.6,0.1-0.9,0C445.2,125,444.9,126.1,445.8,127.1z"/>
	<path class="st1" d="M433.4,271.5c1.4,0.5,2.3,1.4,3.7,1.7c0.9-0.8,2.3-1.3,2.9-2.4c-0.8-2.3-4.4-3.3-6.5-3c0.7,0.2,1.4,0.4,1.7,1
		C434.8,269.9,433.6,270.2,433.4,271.5z"/>
	<path class="st1" d="M400.3,156.5c0,0.2,0,0.6-0.3,0.7c-0.6,2.6,3.1,2.6,4.1,1c0.1-1.3-0.7-1.6-1.2-2.3
		C401.8,155.9,401.1,156.3,400.3,156.5z"/>
	<path class="st1" d="M428.2,338.3c0.6,0.1,1.9-0.5,2,0.1c-1.4,0.1-1.2,4,0,4.2c1-1.6,2.6-2.6,3.7-4c0.1,0.4,0,1.1,0.4,1.2
		c0.7-0.6,1.3-1.3,2.2-1.7c0.2-3.1-1.7-4-3.7-4.7C430.5,334.4,428.5,335.7,428.2,338.3z"/>
	<path class="st1" d="M435.7,331.4c1-1.4,2.6-3.4,4.8-2.9c-0.5-1.2-1.8-1.7-2.5-2.8c-1.2,0.3-1.6,1.2-2.5,1.8
		C436,329,434.7,330.5,435.7,331.4z"/>
	<path class="st1" d="M448.2,244.7c2.8,1.6,6-0.6,7.2-2.8c-0.4-1.3-1.4-2-2.5-2.5C451.4,241.3,451.8,244.6,448.2,244.7z"/>
	<path class="st1" d="M434.4,157.3c0.6,0.5,1.2,0,1.9-0.2c0.2-0.9-0.5-0.8-0.4-1.5C434.7,155.7,434.2,156.3,434.4,157.3z"/>
	<path class="st1" d="M432.1,252c-4.4,0.3-6.9,6.1-3.3,9.1c2.5,2,5.4,0.5,8.4,1.9C437.7,257.4,438.2,251.6,432.1,252z"/>
	<path class="st1" d="M416.1,354.7c-0.8-0.8-3.4-0.5-2.9,1.2C413.8,357.5,416.6,356.5,416.1,354.7z"/>
	<path class="st1" d="M427.5,122.8c0.2,1.5,2.5,1.6,1.6,3.5c1.7,0.3,5.1,0,6.7-0.6c0-0.9-3.8-0.5-4.2-2c0.8-1.2,2-2.1,2.8-3.3
		c0.5,1,1.5,3.3,2.5,2.7c-0.6-1.9-1.4-3.6-2.1-5.5c-1.7,0.1-1.9,1.4-3.9,1.3c0-0.7,0-1.5-0.5-1.7c-0.8,0.1-1.6,0.1-2,0.5
		C428.8,119.2,427.8,120.8,427.5,122.8z"/>
	<path class="st1" d="M441.1,224.4c-0.1,0.7-1.1,0.7-0.9,1.6c1.5-0.2,1.8,1.1,3.1,1.2c0.4-0.2,0.6-0.5,1.3-0.5
		c-0.1-0.8,0-1.7-0.5-2.1C442.6,225.1,442.1,224.5,441.1,224.4z"/>
	<path class="st1" d="M477.9,246.5c0.1-2.5,0.1-5,0.1-7.5c0-11.1-0.8-22.1-2.3-32.8c0.1,0.9,0.1,1.8,0.2,2.6
		c-2.3-1.2-3.4-4.9-0.7-6.2c-0.2-1.1-0.3-2.1-0.5-3.2c-1.1,0.5-2.6,0.8-3.7,1.4c-1.1,3.6-5.5,4.7-6.4,8.4c2.1-0.4,3.2-1.5,5.5-1.8
		c1.7,2.2,1.3,5.7-0.1,7.8c-1.4,0.2-3,0.4-4,0.1c-1.3,1.2-2.5,2.7-4.1,3.7c0.5,1.4,1.8,1.9,2.2,3.4c-0.5,0.7-1.2,1.4-1.2,2.5
		c0.2,1,1.3,0.9,1.5,1.9c-1,0.1-1.2,0.9-1.9,1.4c1,0.1,2.8-0.6,3.3,0c-1.4,2-1.8,4.7-5,5.3c3.6,1,2.3,5.8,1.6,8.9
		c-0.7-0.7-1-1.8-1.5-2.6c-3.5,0.7-5,5.2-8.2,6.5c-0.6,0.3-1.4,0.4-2.1,0.5c-0.6-0.4-1.2-0.8-1.8-1.2c-0.6,0.7-1.1,1.3-1.5,2
		c-0.9,0.4-1.4,1.2-1.3,2.7c0.2,0,0.4,0,0.5,0c0,1.1,0.3,2,0.8,2.8c-0.3,0.4-0.4,1.1,0.3,2.3c0.9-0.2,1.6-0.4,2-0.6
		c1.1,0.4,2.4,0.4,3.8-0.1c0.1-0.7,0.4-1.4,0.6-2.1c0.1,0.9,0.5,1.9,0.9,3c-1.3-0.1-1.5,0.5-2.6,0.6c0.1,1.3,3.5,1.2,3.5,2.7
		c0,0.7-2.5,1.9-3.1,2.7c-2,2.7-2.4,7.6-6.5,7.9c0.1,1.3,0.2,2.6,0.3,3.9c1,0.1,2.7,1.2,3.4,0.6c-0.3-0.2-1.2-1.4-0.5-1.7
		c0.9,0.1,1.7,0.3,2.4,0.7c-1.2,0.7-1.4,2.3-2.5,3.2c-4.4-0.2-5.5-5.7-10-4.7c1.6,3.3,5.1,4.6,7.2,7.4c-0.2,1.5-1.7,3.6-0.6,5.2
		c-2,0.3-1.7,2.2-2.4,3.6c-1,0.3-1.2-0.4-2.3-0.1c0.2,1.4,0.9,2.2,0.9,3.8c-1.9,3-3,5.6-6.8,7.6c0.6,1,1.1,2,1.6,3.1
		c0,0.1-0.1,0.2-0.1,0.3c0.4,0.2,0,0.7,0.2,1.1c0.3,0.2,0.5,0.3,0.7,0.4c0.5,1.2,1,2.4,1.5,3.5c-0.9,0.3-0.9-0.3-1.7-0.1
		c0.1,1.3,0.5,2.3,0.9,3.2c3.3,0.1,7.1,2.8,6.1,5.4c-3.4-0.6-9.8-3.5-11.6,0.8c2,1,3.6,2.3,6.8,2.1c0.5-0.9,0.8-2.1,1.5-2.8
		c1.3,0.9,2.9,1.4,4.8,1.7c0.3-1.4,1-2.4,2.1-3.2c-0.2,1.3,0.6,1.5,0.5,2.7c-1.4,0.6-3.1,1-5.1,1.2c0,2.8,2.3,2.9,3.9,3.8
		c-0.9,1.3-0.1,3.9-3.1,3.6c-0.6,0.8-1,1.8-1.4,2.9c-0.3,0-0.5,0-0.8,0c0,0.6,0,1.2,0,1.9c-0.7,1.3-1.9,2.4-4.2,2.5
		c0.1,2.4,0.2,4.7,1.4,5.9c0,0.2-0.1,0.4-0.1,0.6c-0.5,0.4-0.7,1-1.4,1.4c-0.1-0.8-0.6-1.2-1.7-1c-0.9,0.2-0.5,1.3-1.2,1.6
		c-0.7-0.2-1-0.8-2.1-0.7c-0.2,0.4-0.3,0.9-0.3,1.3c-0.5,0.1-0.9,0.3-1.4,0.7c1.2,1.9,2,3.8,4.8,5.2c0.9-0.5,1.7-1.4,2.7-1.7
		c0.7,1.4,1.8,2.6,3.3,3.8c1-1,2.1-1.6,3.4-1.8c-0.8,1-0.2,1.6-0.9,2.6c-1.5-0.2-3.2-0.7-5-1.5c-1.2,2,0,3.2,1,4.5
		c-1.4,0.6-1.7,1.6-1.6,2.7c-0.6,0.4-1.3,0.4-2.3-0.3c-3,1.2-4.8,5.3-9.2,3c-1.2,2.3-2.5,4.6-1.6,6.2c-0.9-0.1-1.5,0.6-2.5,0.5
		c0.3-0.8,0.1-1.4-1-1.8c-0.8-0.3-1.1,0.9-1.8,0.8c-0.5-0.5-0.5-1.2-1.4-1.7c-1.7,1.1-1,3.1,0.2,4c2-0.1,4.5-0.3,7-0.2
		c-0.1,0.4,0,0.8,0.3,1.3c1.5,0.2,3.3-0.1,4.5-0.6c0.7,0.2,1.4,0.4,2.1,0.7c0,0.1,0,0.1,0,0.2c0.1,0,0.2,0,0.3,0
		c1.3,0.6,2.5,1.3,3.6,2.4c-0.1,0.1-0.2,0.2-0.3,0.3c-1.3-0.6-3.8-2.8-4.9-1.9c-0.1,0-0.1,0-0.2,0c-0.7,0.1-1.4,0.1-2.1,0.2
		c0.3,0.9-0.5,0.9-0.2,1.8c1,1,2.6,0.4,2.7-1c0.6,1.1,1.8,2.8,2.6,4.1c0,0,0,0,0,0.1c0,0,0.1,0,0.1,0.1c0.1,0.2,0.3,0.5,0.4,0.7
		c0.1-0.1,0.1-0.2,0.2-0.3c4.8-6.9,9.3-14.1,13.3-21.5c1.9-3.4,3.7-6.9,5.4-10.4c0.1-0.3,0.3-0.5,0.4-0.8c0.4-0.8,0.8-1.7,1.2-2.6
		c0.2-0.5,0.5-1,0.7-1.4c0.2-0.3,0.3-0.7,0.5-1c3.2-7.1,6-14.3,8.5-21.7c0.2-0.7,0.5-1.4,0.7-2.1c0.1-0.4,0.3-0.8,0.4-1.2
		c0.2-0.7,0.5-1.5,0.7-2.2c0.1-0.3,0.2-0.7,0.3-1.1c0.1-0.4,0.3-0.9,0.4-1.3c-0.1,0-0.2,0-0.4,0c0.5-1.6,0.5-3.5,0.6-5.5
		c0.4-0.9,1.2-1.5,1.9-2.1c0.2-0.8,0.4-1.5,0.6-2.3c-0.8,0.3-1.6,0.7-2.2,0.1c0-2.3,1.3-3.7,3-4.8c0,0.3,0,0.6,0.1,1
		c0.4-1.9,0.9-3.7,1.3-5.6c-0.4-0.2-0.8-0.5-1.3-0.7c-1.3,0.1-1.7,0.8-2.6,1.2c0.7,0.5,1.6,0.9,2.7,1c-1.3,1-3.1-0.1-3.4-1.2
		c-0.1,0-0.1,0.1-0.2,0.1c0.3-0.8,0.7-1.6,1.1-2.4c0.9-0.7,1.3-1.9,1.4-3.2c0.2-0.5,0.3-0.9,0.4-1.2c0.9,1,1.7,2.3,2.4,3.5
		c0.9-4.8,1.8-9.6,2.4-14.5c0-0.2,0.1-0.5,0.1-0.7c1-7.3,1.6-14.6,1.9-22.1c-0.7-0.5-0.7-0.8-1.5,0.3
		C476.5,247.4,476.6,247.4,477.9,246.5z"/>
	<path class="st1" d="M453,228.3c-4.6-0.8-8.2,0.7-8.3,4.2c-0.3,6.2,9,6.9,10.7,0.7C454.4,231.7,453.7,229.9,453,228.3z"/>
	<path class="st1" d="M418.1,224c-6.5,6.1,4.4,11.1,5.9,3.3C422.5,225.6,420.7,224.3,418.1,224z"/>
	<path class="st1" d="M456.5,146.1c0.4-2.8-3.4-3.7-4.5-1.9C452.9,145.5,454.1,146.4,456.5,146.1z"/>
	<path class="st1" d="M425.5,172.4c-0.3,0.4-0.8,0.7-1.2,1c-0.7,2.7,2.7,3.2,4.1,1.7C428.3,173.1,427.3,172.2,425.5,172.4z"/>
	<path class="st1" d="M449.7,196.1c0.4,0.4,1.5,0.2,2.3,0.1c0.1-1.2,0.2-1.2-0.5-2.1c-0.5,0-1.1,0.1-1.6,0.2
		C449.9,195,449.4,195.3,449.7,196.1z"/>
	<path class="st1" d="M450.2,188.8c1.2,0.7,3-0.3,2.5-1.8c-0.6-0.4-1.2-0.7-2.3-0.4C450,187.5,449.7,188,450.2,188.8z"/>
	<path class="st1" d="M451,138.8c-1.7-0.1-2.3,0.5-1.8,2C450.6,141.8,452.4,140,451,138.8z"/>
	<path class="st1" d="M447.6,138.8c-1.5,0-2.2,0.6-2.2,1.7c0.1,1,2.2,1,3,0.3C448.6,139.7,448.1,139.3,447.6,138.8z"/>
	<path class="st1" d="M453.1,163.3c-0.2,0-0.7,0.1-0.7-0.2c-1.3,0.1-1.7,0.7-1.5,1.9c0.5,0.3,1.2,0.2,1.7,0.4
		C453,164.9,453.4,164.3,453.1,163.3z"/>
	<path class="st1" d="M427.9,282.2c-2.1,2,2.7,3.7,1.7,0.1C428.8,282.5,428.8,281.8,427.9,282.2z"/>
	<path class="st1" d="M433.5,234.7c0.1-0.6,0.4-1.1,0.2-2.1c-0.8-0.5-1.9-0.5-3.4-0.3c-0.1,0.8-0.4,1.4-0.2,2.4
		C431.5,234.4,432.4,234.7,433.5,234.7z"/>
	<path class="st1" d="M429.7,321.5c-0.9,0.2-1.9,0.5-1.5,1.7c0.1,0.1,0.2,0.1,0.3,0.1c-0.1,0.1-0.2,0.3-0.2,0.6
		c0.2,0.6,1.5,1.1,2.1,0.9c0.4-0.6,0.7-1.3,0.5-1.7c-0.3-0.1-0.6-0.3-0.9-0.4C430.1,322.2,430.2,321.9,429.7,321.5z"/>
	<path class="st1" d="M474.2,196.5c0-0.2-0.1-0.4-0.1-0.6c0,0.1-0.1,0.1-0.1,0.2C473.8,196.3,473.9,196.5,474.2,196.5z"/>
	<path class="st1" d="M471.9,185.2c-0.1-0.5-0.2-0.9-0.3-1.4c-1.2-0.8-1.9-2.1-3.2-2.7C469.1,182.6,470.4,184,471.9,185.2z"/>
	<path class="st1" d="M467.1,167.4c-0.1-0.2-0.2-0.5-0.2-0.7c0,0.2,0,0.5,0.1,0.7C467,167.4,467,167.4,467.1,167.4z"/>
	<path class="st1" d="M427.3,250.4c0.7-1.1,2.3-1.4,2.1-3.2c-0.8-0.8-2-1.2-3.1-1.8C427.1,247.3,426,249.6,427.3,250.4z"/>
	<path class="st1" d="M423.3,302c0-0.7,0-1.5-0.4-1.8c-0.5,0-1.1,0.1-1.6,0.2c0,0.7-0.5,0.9-0.2,1.8
		C421.5,302.6,422.9,302.4,423.3,302z"/>
	<path class="st1" d="M426.3,221.9c-0.4,0.8-0.6,1.3-0.2,2.1c1.2,0.6,3.1-0.1,2.5-1.8C428.1,221.9,427.5,221.6,426.3,221.9z"/>
	<path class="st1" d="M420,232.2c-0.3,0.4-0.3,1.1-0.5,1.6c0.8,1,2,1.5,4.1,1.1C422.8,233.4,422.1,232,420,232.2z"/>
	<path class="st1" d="M427.9,239.2c-0.8-0.6-1.6,0.2-2.3,0.5C425.7,241.5,428.2,240.8,427.9,239.2z"/>
	<path class="st1" d="M424.3,335c1.4-0.3,3.7,0,4.6-0.8C428,331.9,424.4,331.9,424.3,335z"/>
	<path class="st1" d="M419.5,369.7c-1.7,1.8-5.4,2-6.3,4.3c0.8,1.4,2.1,2.2,4.2,2.3C417.1,373.4,420.5,372.3,419.5,369.7z"/>
	<path class="st1" d="M418,279.3c0.4,0,0.4,0.6,0.7,0.8c1.9,0,2.7-0.8,3.9-1.3C422.2,276.2,417.5,275.4,418,279.3z"/>
	<path class="st1" d="M414.8,370.2c0.8-0.1,1.5-0.2,2.3-0.3c0.1-1,0.4-1.1-0.1-2C415.3,367.4,413.7,368.7,414.8,370.2z"/>
	<path class="st1" d="M392.7,401.8c-1.1-2.8-5.9-2.9-7.3-1C385.4,404.4,391.2,407.5,392.7,401.8z"/>
	<path class="st1" d="M426.1,377.5c-1.4-0.7-3.9-0.3-5,0.8c0.8,0.7,2.6,1.3,4.3,1.1c0.5,0.3,1,0.6,1.6,0.7c-0.5,1.6,0.1,3.7,1.2,4.9
		c1.6-2,3.1-4.1,4.6-6.2c-1.2-0.2-2.6-0.2-4-0.1C428.4,378,427.2,377.5,426.1,377.5z"/>
	<path class="st1" d="M394.7,415.8c-0.1,0.5,0.1,0.9,0.1,1.4C399.5,420,397.3,412.7,394.7,415.8z"/>
	<path class="st1" d="M397.6,366.8c-0.3-1.1-2.7-2.2-3.1-0.4C394.2,368.1,397.2,368.6,397.6,366.8z"/>
	<path class="st1" d="M387.9,386.1c1.2-2.6,4.7-1.8,5.2-4.6c-2.3,0.7-5.6-1-7.6,0.5C385.4,383.7,386.1,385.1,387.9,386.1z"/>
	<path class="st1" d="M405.5,387.6c0.9,0.6,1.3,0.2,2,0.6c0.6-0.7-0.1-0.9,0.3-1.5C406.7,386,406,386.4,405.5,387.6z"/>
	<path class="st1" d="M399.9,384.1c3,2.3,8.3,2.8,6.4-1.7C404.3,383.2,400.1,380.7,399.9,384.1z"/>
	<path class="st1" d="M390.1,389.7c0.5,1.4,2.6,3.5,4.9,3.6C395.9,391.1,392.2,389.2,390.1,389.7z"/>
	<path class="st1" d="M437.4,239.9c-0.6,0.2-1.2,0.6-1.5,1.6c0.5,1.3,2.4,2.4,3.6,1.6C439.9,241.7,439.4,240.6,437.4,239.9z"/>
	<path class="st1" d="M384.9,405.8c-0.2-1.1-0.8-1.4-2.2-1.6c-0.7,1-1,1.3-0.7,2.3C383.3,407.2,384.3,407,384.9,405.8z"/>
	<path class="st1" d="M436,248.8c0.3,0.4,1,0.8,1.2,1.2c0.4-0.5,1-0.4,1.3-1.1C438.1,248,436.4,247.7,436,248.8z"/>
	<path class="st1" d="M431.8,356.4c0.2-1.3-0.7-2.4-0.8-3.7c-1.2-0.4-2,0.3-3.1,0.3c-0.3,1.6-2.1,2.3-1.7,3.5
		C427.8,355.8,430.2,354.9,431.8,356.4z"/>
	<path class="st1" d="M414.6,353.9c1.4,0.4,3.2,1.9,4.3,1.6C419.4,353.1,416.2,351.2,414.6,353.9z"/>
	<path class="st1" d="M420.9,363c0.9-0.2,1.8-0.5,2.8-0.3c1.7-2.6,0.5-4.3-0.8-5.9c-2.6-0.3-4.9-0.1-6.5,2c0.5,0.4,2,0.5,1.7,1.1
		c-1.2-0.6-3.1,2.9-2.1,3.6c1.7-0.9,3.6-1,5.2-1.6C421,362.2,420.5,362.7,420.9,363z"/>
	<path class="st1" d="M459.4,175.5c3.7,1.5,4.5,5.2,8.5,5.9C465.9,179.4,462.7,175.5,459.4,175.5z"/>
	<path class="st1" d="M426,344.9c-0.9-0.2-1.8-0.5-2.2,0.7c0.2,0.4,0.7,0.7,1.4,1C425.6,346,426.4,345.7,426,344.9z"/>
	<path class="st1" d="M428,238.9c1,1.4,3.6,2.5,4.9,1.3C433,238.5,428.6,236.7,428,238.9z"/>
	<path class="st1" d="M418.4,383.4c-0.1-1-0.1-1.9,0-3c0.4,0.5,0.4,1.1,1.5,1.4c1.1-0.1,2.5-1.6,1.8-2.8c-0.9-0.4-1.7-0.6-2.3-0.7
		c0-0.5-0.1-0.9-0.4-1.1c-1.3,0.1-2.1,0.6-1.9,1.9c-1.2,1.4-1.2,4.3-2.6,5.4c-2.5-1.8-4.9-6-8.2-6c3.9,4.1,8.8,4.1,2.1,9.9
		c0.4,0.2,0.1,2.6,0,3c-1,2.8-2.3-4.2-4.4-4c-0.1-0.1-0.1-0.1-0.2-0.1c-0.7-0.3-1.3-0.6-2-0.9c-0.2,0.9-0.9,0.6-1.1,1.5
		c0.4,1.3,2.1,1.7,2.9,0.5c0,1.1,0.1,2.9,0.2,4.4c-0.6-0.4-1.2-0.8-1.7-1.3c-0.7,0.4-3.1,0.2-2.5,1.2c1.3,0.3,2.7,1.2,4.1,1.9
		c-0.1,0.5-0.2,0.7-0.5,0.5c-0.7,0.8-1.7,1.1-2.6,1.5c-1.4-1.2-3.2-2.2-5.1-3.3c-2.8,0.5-3.6,4.8-2.5,6.7c1.2,1.5,6,2,5.4,4.1
		c-3.1-1-5.7-0.9-7.8,0.8c-0.8,5,5.2,6.8,9.8,6.4c-0.6,0.6-2.1,1.1-1.8,2.1c1,0.5,2.1,0.5,3,0.2c0.8-0.3,1.3-0.8,1.6-1.5
		c0.1-0.4,0.1-0.8,0-1.3c-0.9-0.4-1.4,0-2.2,0c-1.3-2.4,1.9-4.2,3.8-5.5c-0.8,2-0.7,3.8,0,5.4c6.5-6.3,12.6-12.9,18.4-19.9
		c0.5-0.6,1-1.2,1.5-1.8c0.7-0.8,1.4-1.7,2.1-2.6c-2,0.2-4,1.8-4.3,3.4c-0.1,0.1-0.3,0.2-0.5,0.3c0.1-2.6,0.4-2.8-2.2-3.7
		c3.2-1.4,2.6-2.9,7.2-0.2c0.1-0.2,0.2-0.3,0.4-0.5c-0.2-1.5-0.5-2.9-1.2-4.2C423.2,381.3,420.6,381.9,418.4,383.4z"/>
	<path class="st1" d="M287.2,453.7C282.4,452.3,287.6,458.6,287.2,453.7L287.2,453.7z"/>
	<path class="st1" d="M395.3,412.6c-0.3-1.1-2-1.8-2.7-0.7C392.3,413.2,394.7,414.4,395.3,412.6z"/>
	<path class="st1" d="M272.8,445.9c1.3,2.2,3.4,2.2,5,1.1C278.7,443.9,273.3,441.7,272.8,445.9z"/>
	<path class="st1" d="M381.4,393.9c0,1,2.2,2.4,0.7,3.2c0.7,0.3,1.3,0.4,2,0.4c0.1,0.8-0.7,1.8-0.3,2.6c0.9-0.3,1.8-0.6,2.4-1.5
		c-0.4-0.4-1.6-0.7-1.5-1.2c0.2,0,1.1-0.7,0.7-1.1c-0.6,0-2.1,0-2.3-0.4c0.4-0.6,1-0.9,1.4-1.7C383.5,394.2,382.3,393.7,381.4,393.9
		z"/>
	<path class="st1" d="M387.5,406.8c-1.2,0.2-1.4,1.4-1.4,2.3c-1-0.1-1.8,0.6-2.3,1.8c1,2.3,4.6,1.1,4-1
		C388.6,409.3,388.6,407.5,387.5,406.8z"/>
	<path class="st1" d="M377.8,420.7c-0.1,0.4-0.4,0.8-0.2,1.1c1.4-0.2,2.8,0,4.1-0.5C380.2,420.5,379,420.8,377.8,420.7z"/>
	<path class="st1" d="M279.7,471.6c0.9,0.4,2.1,1.6,2.9,1.6C283.2,471.4,281.1,469.8,279.7,471.6z"/>
	<path class="st1" d="M394.4,376c-0.7-0.1-1.3,0-1.8,0.9c0.3,1.1,2.1,2.1,2.6,0.4C394.9,376.9,395,376.4,394.4,376z"/>
	<path class="st1" d="M392.8,418.6c-1.5-0.1-3.3-1.2-4.2,0.4c0.4,0.2,0.8,0.3,1.1,0.5c0,0,0,0,0,0c-0.1,1.6,2.2,2.5,2.9,0.7
		c0,0,0-0.1,0-0.1c0.1,0,0.1,0,0.2,0C392.3,419.6,393.6,418.9,392.8,418.6z"/>
	<path class="st1" d="M281.9,456.5c0.6,1.3,2.4,1,2.2-0.4c-0.5-0.3-1.1-0.8-1.5-0.7C282.4,455.8,282.1,456.2,281.9,456.5z"/>
	<path class="st1" d="M373.2,354.9c0.9,0.9,2.9,2.3,4.1,2.5c0.4-0.5-2-1.9-1.5-2.9c1-0.4,2-0.3,3-0.7c-0.2,0.8-0.6,2.5,0.2,2.6
		c0.4-1.3,0.8-2.7,1.2-4c-1-0.7-1.7,0-2.8-1c0.3-0.4,0.6-0.9,0.5-1.2c-0.5-0.3-0.9-0.6-1.3-0.6c-0.5,1.1-1.8,1.5-2.8,2.5
		C373.3,353.2,374.5,354.3,373.2,354.9z"/>
	<path class="st1" d="M384.6,416.8c-1.2-0.1-2.2,0.4-3.1-0.4c-1.5-1.3,0-3.6-2.2-4.9c1.8-0.3,2.4-2.9,0.2-3.4
		c-1.2,0.7-0.2,3.1-1.3,3.7c-3.5-2.1-2.5-5-2-7.8c-0.9,1.3-1.7,2.7-2.8,3.3c-1.7-1.2-1-2.9-1.7-4.3c-0.7,3.9,1.7,9.4,7.2,10.7
		c1,4.4,8.5,5.7,10.8,3.1C388.4,417.8,386.2,417,384.6,416.8z"/>
	<path class="st1" d="M378.3,371.9c0.4,1.2,2.2,0.9,1.9-0.3C379.3,370.8,378.7,370.9,378.3,371.9z"/>
	<path class="st1" d="M377.9,371.7c0.6-0.6,0.5-1.1,0.4-1.5c-0.9-0.6-1.5-0.6-2,0C375.9,370.8,377.1,371.7,377.9,371.7z"/>
	<path class="st1" d="M327.7,436.7C332.5,439.1,328.3,432.3,327.7,436.7L327.7,436.7z"/>
	<path class="st1" d="M388.7,379.1c0,0,0.1-0.1,0.1-0.1c0,0.2,0,0.4,0,0.6c0.7,0.3,1.4,0.6,2.1,0.9c0.6-0.9,0.9-0.8,0.9-1.8
		c-0.3-0.3-0.6-0.5-0.9-0.6c0.4-0.2,0.8-0.4,1.2-0.7c-1.8,0-3.7-0.7-5.6-1.4C387.2,377,387.7,378.1,388.7,379.1z"/>
	<path class="st1" d="M378.5,375c-0.1,1.1,0.2,2.2,1.7,3.1C381.7,376.7,379.9,374.6,378.5,375z"/>
	<path class="st1" d="M394.5,383.9c-0.7-0.6-1.1-0.2-1.8-0.8C389.9,384.3,393.4,387.1,394.5,383.9z"/>
	<path class="st1" d="M382.9,389.6c1.4-0.1,2.9,0.4,4.2,0.1c-0.1-0.2-0.1-0.3-0.2-0.5c0.4,0.2,0.9,0.4,1.4,0.6
		c0.3-0.7,0.8-1.5,0.6-2c-1.2-0.5-2.2-0.6-2.6,0.8c0,0,0,0.1,0.1,0.1C385,388,382.6,388.7,382.9,389.6z"/>
	<path class="st1" d="M287.1,466.5c0.1,0.3,0.4,0.6,0.9,0.8c0.3-0.4,0.9-0.5,0.7-1.1C288.1,466,287.4,465.7,287.1,466.5z"/>
	<path class="st1" d="M378.4,395.6c0.3-0.4,0.8-0.5,1-1.1c-0.7-1-2-1.1-2.4,0.2C377.4,395.4,377.5,395,378.4,395.6z"/>
	<path class="st1" d="M304.7,443.1c-2.1,0.2,0,3.3,0.9,0.8C305.1,443.7,305.4,443.3,304.7,443.1z"/>
	<path class="st1" d="M318.4,436.2c2.7-2.9,5.5-6,1.8-8.4c-2.7-1.8-6.6,0.5-5.8,3.7C314.9,433.7,317.2,434.1,318.4,436.2z"/>
	<path class="st1" d="M293.5,452.3c0.3-0.4,0.6-0.9,0.5-1.2c-0.3-0.2-0.7-0.4-1-0.6c-0.3,0.4-0.7,0.3-0.9,0.9
		C292.2,451.9,293.1,452.4,293.5,452.3z"/>
	<path class="st1" d="M316.6,441.9c0.5-1.6-1.1-3.7-2.4-4.5c0.3,0.4,0.7,0.9,0.5,1.3c-0.7,0.4-1.5,0-2.2,0.7
		c0.6,0.9,0.7,1.8,1.4,2.6C314.8,442,315.8,442.3,316.6,441.9z"/>
	<path class="st1" d="M320.8,423.9c-0.1-0.8-0.7-1.6-1-2.4c-0.4,1.3-2,2.2-1.6,3.3C319,424.4,320.1,425,320.8,423.9z"/>
	<path class="st1" d="M331.2,409.3c-0.2-0.4-0.4-0.9-1.2-1.2c-0.6,0.3-0.9,0.5-1,1.1C329.4,410.1,330.8,410.6,331.2,409.3z"/>
	<path class="st1" d="M322,411.2c-0.4,0.1-0.7,0.5-1,0.7c0,0.9,0.5,1.7,1.8,2.4C323,413.2,323.2,412.1,322,411.2z"/>
	<path class="st1" d="M326.4,410.1c-0.1-1.6-0.6-3.1-1.9-4.4C318.1,406.4,322.1,413.9,326.4,410.1z"/>
	<path class="st1" d="M329.6,417.4c-0.2-0.6-0.9-1.1-1.8-1.6c-0.4,0.4-0.8,0.7-1.1,1.3c0.9,0.4,1.3,1,1.9,1.4
		C328.9,418.2,329.3,418,329.6,417.4z"/>
	<path class="st1" d="M323.4,418.6c-0.2-0.7-1-0.6-1.5-0.7C321.2,419,322.9,419.7,323.4,418.6z"/>
	<path class="st1" d="M316.5,404.8c0.2-0.9,1-1.8,1.1-2.6c-0.7-1.5-2-2.9-3.7-4.3C309.9,401.3,312.4,405.7,316.5,404.8z"/>
	<path class="st1" d="M355.9,404.7c0.6-0.7,0.7-0.7,0.6-1.4c-0.3-0.2-0.7-0.4-1-0.6c-0.3,0.4-0.7,0.3-0.9,0.9
		C354.7,404,355.4,404.4,355.9,404.7z"/>
	<path class="st1" d="M358,399.7c0.4,0.9,1.8,1.1,2.2,0.1c-0.2-0.4-0.4-0.9-1.2-1.2C358.5,398.9,358.1,399,358,399.7z"/>
	<path class="st1" d="M362.7,374.9c0.1,0.6,0.7,0.5,1.2,0.7c0.5-0.4,0-0.7,0.4-1C363.6,374.1,363.1,374.2,362.7,374.9z"/>
	<path class="st1" d="M374.6,419c0.3-0.5,0.6-0.9,0-1.3c-0.5-0.1-0.9,0.2-1.2,0.5C373.5,418.7,374.2,419.1,374.6,419z"/>
	<path class="st1" d="M300.4,438c1.1,0.9,1.9,0.7,2.8,1c0.9-1.7-1.5-4.2-2.9-1.8C300.6,437.4,300.3,437.7,300.4,438z"/>
	<path class="st1" d="M370.4,386c-0.8-0.5-1.3-0.3-1.7,0.4c0.2,0.3,0.6,0.7,0.8,1c0.5-0.1,0.9-0.2,1.2-1
		C370.6,386.2,370.3,386.1,370.4,386z"/>
	<path class="st1" d="M341.7,427.1c0-1.2,0.5-2.5,0.8-3.8c-2.2-2.5-5-3.2-6.6-1.3C333,425.5,338.1,429.9,341.7,427.1z"/>
	<path class="st1" d="M337.8,432.1c0.3-0.9,0.1-1.7-0.4-2.5c-1.6,0.5-2.8,2.5-4.9,1C333.5,432.7,336.3,432.8,337.8,432.1z"/>
	<path class="st1" d="M351.5,382.3c0.9-1.1,0.7-2-0.4-2.8c-0.4,0.1-0.8,0-1.1,0C348.3,380.8,350.1,382.6,351.5,382.3z"/>
	<path class="st1" d="M336.2,416.5c0.9,0.6,0.5,1.4,1.2,2c0.3,0.1,0.6,0,0.9,0.3c0.3-0.5,0.7-1,0.6-1.4c-1.1-0.4-1.1-1-1.6-1.5
		C337,416.3,336.4,415.8,336.2,416.5z"/>
	<path class="st1" d="M378.4,406c-0.5,0.6-0.7,0.5-0.8,1.3c0.4,0.3,0.9,0.6,1.4,0.9C380.1,407.3,379.8,406.2,378.4,406z"/>
	<path class="st1" d="M363.2,440.2c0.5,1.9,3.5,0.8,3-0.7C364.9,438.6,364,439.1,363.2,440.2z"/>
	<path class="st1" d="M370.5,433.1c-1.7,0.2-3.8,1.3-4.4,3.3c1.5,0.8,2.9,1.1,4.2,1.3C371,436,369.6,434.7,370.5,433.1z"/>
	<path class="st1" d="M289.3,472.2c-0.1,0.2-0.2,0.4-0.3,0.6c0.8-0.2,1.6-0.3,2.4-0.5C290.7,471.9,290,472.2,289.3,472.2z"/>
	<path class="st1" d="M378.9,426.4c-0.2-0.1-0.4-0.2-0.6-0.4c0.4-0.6,0.8-1.2,1.2-1.8c-1.4-0.8-2.4,0-3.4,0.4
		c0.3,0.7,1.5,1.3,1.8,2.1c-0.6,0.2-1.1,0.7-1.8,0.6c0-2.2-2.3-3.3-4.4-3.2c0.6-0.7,0-1.3,0.4-2c-0.6-0.4-0.9,0-1.5-0.4
		c0.2-0.4,0.7,0.1,0.9-0.4c-0.7-1.5-1.5-3-2.4-4.5c0.7,0,1.4-0.2,2-0.8c-1-0.4-1.5-2.4-2.5-1.8c-0.7,0.1,1,1.1,0.9,1.6
		c-1.1,1.6-3.1,0.1-4.7-0.2c-2.2,1.6-5.2,0.2-7.3,2c1.3,0.7,2.5,0.5,3.9,1.4c0,2-1.8,3.8-3.5,4.4c-0.9-0.5-1.9-1.1-2.3-1.7
		c-1.3,0.1-2.6,0.4-3.9,0.3c-0.3,1,0.2,1.9-0.2,2.9c-0.6,0.2-1.3,0.3-1.8,0.9c-0.3,0.7,0.4,1.1,0,1.8c-0.7-0.4-1.1,0-1.7,0
		c0.5,0.5,1.9,0.9,1.9,1.4c-1.6,0.5-3.1,1.9-5.1,0.9c1.6,2.1-1.2,4.3-2.9,5.7c-0.1-0.7,0.2-1.4,0.2-2.1c-2.3-1.1-5.1,0.8-7.5,0.2
		c-2-0.6-4-3-5.5-0.7c0.7,0.7,1.4,1.3,2.4,2c0.7-1,1.5-1.3,2.6-0.9c0.4,0.7,0.6,1.5,0.5,2.3c-1.8,0.6-2.1,1.9-2.7,3.6
		c-0.7-0.6-1.1-0.4-1.8-0.8c-0.5,0.8,1.5,2.2,0.9,3.1c-0.3,0.4-2.3,0-3,0.2c-2.3,0.7-4.7,3.3-7.1,1.7c-0.5,0.8-1,1.5-1.5,2.3
		c0.5,0.5,1,1.8,1.7,1.8c-0.1-0.3-0.1-1.3,0.5-1.2c0.4,0.4,0.9,0.9,1.1,1.4c-1-0.1-1.8,0.7-2.8,0.8c-2.4-2-0.7-5.6-3.6-7
		c-0.5,2.6,0.9,4.8,0.9,7.3c-0.8,0.8-2.5,1.3-2.6,2.7c-1.3-0.7-2,0.5-2.9,1c-0.7-0.3-0.5-0.8-1.3-1.1c-0.5,0.9-0.4,1.7-1.1,2.6
		c-2.4,0.9-4.2,1.9-7.2,1.4c-0.2,2.1-0.8,4.3-1.4,6.4c-0.7-0.2-0.4-0.6-0.9-0.8c-0.5,0.8-0.7,1.5-0.9,2.2c1.8,1.5,2.8,4.7,1.1,5.7
		c-1.7-1.8-4-6.2-7-4.6c0.7,1.4,1.1,2.9,3,4.1c0.7-0.3,1.3-0.9,2.1-1c0.3,0.7,0.7,1.4,1.2,2.1c6.3-1.6,12.5-3.5,18.6-5.6
		c-0.1,0-0.2,0-0.3-0.1c-0.2-0.4,0-1,0.4-1.5c0.9,0.9,1.4,0.4,2.2,0.6c-0.1,0.1-0.1,0.2-0.2,0.3c0.9-0.3,1.8-0.7,2.7-1c0,0,0,0,0,0
		c0.4-0.5,1.1-0.4,1.6-0.8c0,0.1,0.1,0.1,0.1,0.2c6.8-2.6,13.5-5.5,20-8.7c-0.1-0.7,0.5-1.5,0-2.2c0.7-1.3,2.1-0.5,3.1-0.9
		c0.4,0.4,0.5,0.8,0.6,1.2c0.2-0.1,0.5-0.3,0.7-0.4c0.2-0.7,0.5-1.4,0.7-2.3c0.5,0.3,0.8,0.8,1,1.4c0.9-0.5,1.9-1,2.8-1.5
		c-0.8-0.5-1.1-1.5-0.9-2.1c-0.7,0-0.9,1.2-1.4,1.7c-0.3-1.1-1.8-1.9-0.4-3.3c0.5,0.3,0.9,0.6,1.4,0.9c0.2-0.6,0.3-1.1,0.2-1.6
		c0.5-0.3,1.3,0.7,2,0.9c1.1-2.7,2.9-2.6,4.5-3.8c0.6,1.2-0.1,2.7,0.2,4c-1.5,1.3-3.4,1.3-5.2,1.8c0.2,0.3,0.3,0.7,0.4,1
		c3.7-2,7.3-4.2,10.9-6.4c-1.4-0.3-2.8-0.6-3.2-1.9c-0.6,0.2-1,0.7-1.6,0.7c1.4-0.3,1-1.9,1.2-2.3c0.1,0.4,0.6,0.7,1.1,0.9
		c0.9-1.3,1.6-2.6,2-3.8c-0.5-0.4-1.8-0.8-1.7-1.3c0.5,0.1,0.6-1,1.1-0.8c0.5,0.3,0.9,0.6,1.4,0.9c1.1-0.8,2.1-1.6,3-3.2
		c1.7,0.6,2.4-0.2,2.2-1.2c1.1,1,0,2.3,0.9,3.3c0.6-0.9,2.1-3.7,2.4-1.8c-1.1-0.9-1.4,1.4-2.2,2c1.2,0.8,1.1,1.8,1.6,2.8
		c0.6-0.7,0-1.1,0.5-1.7c0.8,0.3,1.4,0.1,2.2,0.2c0.1,0,0.1,0,0.2,0c0.1-0.1,0.1-0.2,0.1-0.3c0.1-0.6-0.8-1-0.6-1.6
		c0.3-0.1,0.6-0.3,0.8-0.8c0.8,0.2,1.5,0.3,2.3,0.5c1.4-1,2.8-2.1,4.2-3.1c0.6-0.9,1-1.9,1-2.8c-1.3-0.8-2.6-1.6-3.8-2.4
		C379.5,425.2,379.8,426.4,378.9,426.4z"/>
	<path class="st1" d="M298,470.7c0.1,0,0.2,0,0.3-0.1c-0.1,0-0.1-0.1-0.2-0.1C298,470.6,298,470.6,298,470.7z"/>
	<path class="st1" d="M90.7,426.9C90.8,426.9,90.8,426.9,90.7,426.9C90.8,426.9,90.8,426.8,90.7,426.9z"/>
	<path class="st1" d="M13.3,373.9C13.3,373.8,13.3,373.8,13.3,373.9C13.3,373.8,13.3,373.8,13.3,373.9z"/>
	<path class="st1" d="M136.5,424.4c0.2-0.4,0.3-0.8,0.5-1.2c-0.5-0.2-0.5-0.7-1.1-0.8c-0.4,0.2-0.6,0.9-0.9,1.5
		C135.7,424.5,135.7,424.6,136.5,424.4z"/>
	<path class="st1" d="M140.5,425.4c-0.9,0.6-0.9,2.1,0.3,2.3c0.4-0.2,0.9-0.5,1.1-1.4C141.5,425.8,141.3,425.4,140.5,425.4z"/>
	<path class="st1" d="M143.8,457.8c-0.1,0.1-0.3,0.2-0.4,0.3c0.4,0.2,0.8,0.3,1.2,0.5C144.4,458.3,144,458.1,143.8,457.8z"/>
	<path class="st1" d="M118.8,408.5c0.2-1.2,0.8-1.3,1.3-1.9c-0.4-0.3-0.1-1-0.8-1.1c-0.4,1.1-1.4,0.8-1.9,1.6c0,0.4,0.1,0.6-0.1,1
		C117.8,408.4,118.3,408.7,118.8,408.5z"/>
	<path class="st1" d="M52.1,355.8c-0.3,1-1.3,2.5-1.1,3.3C52.8,359.4,54.1,356.9,52.1,355.8z"/>
	<path class="st1" d="M57.9,363.7c0.5,0.3,0.7,0.8,1.3,0.5c0.2-0.7,0.3-1.4-0.6-1.6C58.3,362.8,58,363.1,57.9,363.7z"/>
	<path class="st1" d="M103.2,409.8c1,0.2,1.8-0.2,2.5-0.8c-0.8-1.6-3.1-2.5-1.9-5C101.8,405.4,102.1,408.3,103.2,409.8z"/>
	<path class="st1" d="M113.2,413.2c2.2-2.8,2.4-5.7,0.2-7.1c-4-2.4-7.8,3.6-4.3,6.9C110.3,412.8,111.8,413.1,113.2,413.2z"/>
	<path class="st1" d="M109,390.6c0.8-0.3,1.6-0.9,2.3-1.4c-1.5-0.2-2.7-1.8-3.7-1.2C108.1,388.9,107.7,390.1,109,390.6z"/>
	<path class="st1" d="M85.4,378.1c0.2-0.6,0.6-0.3,0.7-1.1C85.5,374.9,82.7,377.6,85.4,378.1z"/>
	<path class="st1" d="M96.7,400C95,405.4,101.3,399.8,96.7,400L96.7,400z"/>
	<path class="st1" d="M90.8,371.7c-0.7,1.3-0.5,2.1-0.5,3.1c1.9,0.7,4.1-2.2,1.4-3.3C91.4,371.8,91,371.6,90.8,371.7z"/>
	<path class="st1" d="M125.9,399c0.4-0.2,0.9-0.5,1.1-1.4c-0.4-0.5-0.7-0.9-1.4-0.9C124.8,397.3,124.6,398.8,125.9,399z"/>
	<path class="st1" d="M155.3,449.7c0.3,1.4,0.1,3.1,0.6,4.4C158,453.1,156.4,449.2,155.3,449.7z"/>
	<path class="st1" d="M53.4,368.2c0.2-0.9-0.2-1.5-0.3-2.3c-1.2-0.2-1.8-1.5-2.7-1.2c0.5,1.2,1.3,2.9,0.2,4.2
		C51.6,369,52.4,368.3,53.4,368.2z"/>
	<path class="st1" d="M115.3,390.7c-1.2-0.5-1.7,1.4-0.5,1.7C115.5,392.1,115.3,391.3,115.3,390.7z"/>
	<path class="st1" d="M45.3,360.8c0.2,0.7,0.4,1.3,0.3,2.1c2,1.3,3.3,0.3,4.5-0.8c0.1-1.9-0.1-3.7-1.7-4.9c-0.3,0.4-0.3,1.5-0.8,1.3
		c0.5-0.9-2.2-2.3-2.8-1.5c0.7,1.2,0.8,2.7,1.4,3.9C46,360.8,45.6,360.5,45.3,360.8z"/>
	<path class="st1" d="M139.2,440.3c-4.2-0.1-9.6,3.4-10,9.3c-0.6,0.2-1,0.5-1.5,0.9c0.6,0.3,1.1,0.6,1.7,0.9
		c0.9-0.2,1.8-0.6,2.2-1.8c0.6,1.8,3.5,2.1,3.6-0.3c-1-1.2-3.2,0.3-4.1-0.7c1.6-4,4.8-3.4,7.8-3.4c-1.6-0.7-3.1-1.3-4-2.3
		C136,440.9,137.9,441.3,139.2,440.3z"/>
	<path class="st1" d="M169.6,457.2c-0.3-1.8,0.1-3.9,0.5-6.1c-0.9,1-2,1.7-2.9,2.8C168.4,454.9,168.5,456.3,169.6,457.2z"/>
	<path class="st1" d="M169.8,442.7c-1.2,0.1-2.3,0.5-2.9,2.3C168.6,446.3,170.5,444,169.8,442.7z"/>
	<path class="st1" d="M167.8,427.7c0.4-0.8,0.2-1.3-0.6-1.6c-0.6,0.2-0.4,0.8-0.6,1.4C167.2,427.9,167.4,427.4,167.8,427.7z"/>
	<path class="st1" d="M147.2,450.2c-0.2,0.8-0.2,1.5-0.1,2.1c-0.8,0.2-2-0.5-2.8,0.1c0.5,0.9,1,1.7,2,2.3c0.4-0.5,0.5-1.8,1-1.8
		c0.1,0.2,1,1,1.2,0.5c-0.1-0.6-0.4-2.2,0-2.5c0.7,0.4,1.1,0.9,2,1.2c0-1.1,0.4-2.4-0.1-3.3C149.4,449.1,148.2,451.6,147.2,450.2z"
		/>
	<path class="st1" d="M148.2,446c0.4,0.3,0.6,0.7,1.4,0.9c0.9-0.8,0.9-2.2-0.7-2.5C148.3,444.9,148.7,445,148.2,446z"/>
	<path class="st1" d="M156.2,434.4c-0.4,0.2-0.6,0.7-0.9,1c0.2,0.4,0.5,0.9,1.3,1.1c0.1-0.1,0.2-0.5,0.4-0.4
		C157.4,435.2,157.1,434.7,156.2,434.4z"/>
	<path class="st1" d="M136,447.1c-0.2,0.5-0.4,1.1-0.7,1.6c1,1.1,2.1,0.5,2.2-1C136.7,447.3,136.7,447.1,136,447.1z"/>
	<path class="st1" d="M163.2,460.9c0.5-0.8,0.1-1.1,0.6-2C162,456.1,159.6,460.2,163.2,460.9z"/>
	<path class="st1" d="M123.7,444.7c-0.4,0.1-0.7,0.9-0.6,1.4c0.6,0.2,1.1,0.4,1.3-0.2C124.5,445.3,124.1,445,123.7,444.7z"/>
	<path class="st1" d="M157.6,415.7c1.3,0.7,2.2,0.4,2.8-0.9c-0.2-0.4-0.2-0.8-0.2-1.2C158.6,412.1,157.1,414.2,157.6,415.7z"/>
	<path class="st1" d="M125.6,440c-1.9-0.9-0.6-3.2-0.6-5c-2-2-1.1-5.4-3.4-7.3c-0.5,1.5-0.1,2.7-0.8,4.3c-2.1,0.4-4.3-1.2-5.2-2.9
		c0.4-1,0.8-2.1,1.4-2.7c-0.3-1.3-0.9-2.6-1-4c-1.1-0.2-1.9,0.5-3.1,0.3c-0.3-0.6-0.5-1.3-1.3-1.7c-0.7-0.2-1.1,0.6-1.8,0.3
		c0.3-0.7-0.2-1.2-0.2-1.8c-0.4,0.6-0.6,2.1-1.2,2.2c-0.8-1.6-2.5-2.9-1.8-5.2c-1.9,2-4.7-0.5-6.5-2.1c0.7-0.2,1.5,0,2.3-0.1
		c0.8-2.6-1.7-5.2-1.4-7.8c0.3-2.2,2.4-4.7-0.3-5.9c-0.6,0.9-1.2,1.7-1.7,2.9c1.1,0.6,1.6,1.4,1.4,2.6c-0.7,0.5-1.5,0.9-2.3,0.9
		c-0.9-1.8-2.3-1.9-4.2-2.2c0.5-0.8,0.2-1.2,0.6-2c-0.9-0.4-2,1.9-3.1,1.4c-0.5-0.3-0.4-2.4-0.7-3.1c-1.1-2.3-4.2-4.3-2.9-7.1
		c-0.9-0.4-1.8-0.8-2.7-1.2c-0.4,0.6-1.7,1.4-1.6,2c0.3-0.1,1.4-0.3,1.3,0.3c-0.4,0.5-0.8,1-1.3,1.3c0-1.1-1-1.8-1.3-2.8
		c1.7-2.9,5.8-1.7,6.7-5c-2.8-0.1-4.9,1.8-7.5,2.1c-0.9-0.7-1.8-2.4-3.3-2.3c0.5-1.4-0.9-2-1.5-2.9c0.2-0.8,0.7-0.6,0.9-1.5
		c-1-0.4-1.8-0.2-2.9-0.8c-1.3-2.3-2.7-4-2.7-7.3c-2.3,0.1-4.6-0.1-7-0.4c0.1-0.7,0.5-0.5,0.7-1.1c-0.9-0.4-1.7-0.5-2.5-0.6
		c-1.2,2.2-4.4,3.7-5.8,2.1c1.6-2,5.8-5.3,3.6-8.1c-1.4,1-2.8,1.6-3.8,3.8c0.4,0.7,1.1,1.3,1.4,2c-1,0.6-2,1.4-2.8,2.6
		c0.8,0.7,1.3,1.5,1.4,2.6c-0.8-0.6-1.2-0.1-2-0.6c0.1-1.1,0.4-2.4,1-3.8c-1.8-1-2.8,0.5-4,1.3c-0.5-1.1-2.6-1.5-1.3-3.4
		c-1-2.2-4.1-3.5-2.5-6.9c-1.8-0.9-3.5-1.7-4.8-1c0-0.7-0.5-1.1-0.5-1.8c0.6,0.2,1.1,0,1.3-0.8c0.2-0.6-0.7-0.8-0.7-1.4
		c0.4-0.4,0.9-0.4,1.2-1.1c-0.9-1.3-2.4-0.7-3.1,0.3c0.3,3.5,0.9,8.5-1.5,12.3c0.8,1.2,1.7,2.4,2.5,3.7c0,0,0,0,0,0
		c1.1,1.6,2.2,3.2,3.4,4.7c1.2,1.7,2.5,3.4,3.8,5c0.7,0.9,1.4,1.8,2.1,2.6c0.5,0.6,0.9,1.2,1.4,1.8c2.8,3.4,5.7,6.8,8.6,10
		c0.4,0.5,0.8,0.9,1.3,1.4c0.5,0.6,1,1.1,1.6,1.7c0.1,0.1,0.2,0.2,0.2,0.2c0.4,0.4,0.7,0.8,1.1,1.1c0,0,0,0,0,0
		c7.4,7.7,15.4,15,23.8,21.7c0.1,0.1,0.2,0.1,0.3,0.2c3,2.4,6.1,4.7,9.3,7c0.5,0.3,1,0.7,1.5,1c1,0.7,2.1,1.4,3.1,2.1
		c0.1-0.2,0.2-0.3,0.4-0.4c0,0.5,1.2,0.5,1,1c0,0.1-0.1,0.2-0.1,0.3c3.4,2.3,6.9,4.5,10.5,6.6c0,0.1-0.1,0.1-0.1,0.2
		c0.1,0,0.1-0.1,0.2-0.1c0.3,0.2,0.7,0.4,1,0.6c0-0.3,0-0.7-0.1-1c0.9,0.5,1.3-0.2,2.2,0.1c0.3-0.5,0-0.8,0.1-1.2
		c0.1-0.1,0.2-0.1,0.3-0.2c0.1,0.2,0,0.6,0.4,0.6c0.3-0.2,0.7-0.5,1-0.7c0,0.5,0,0.9,0,1.2c0.3-0.4,0.5-1,0.7-1.7
		c0.9-0.7,1.7-1.4,2.6-2.1c0.2,0.8,0.5,1.4,1.2,1.9c0.3-1.1,2.3-2,1.5-2.9C126.9,438,126.1,440,125.6,440z"/>
	<path class="st1" d="M33.3,360.7c-0.1-0.6-0.4-1.1-0.9-1.5C32.7,359.7,33,360.2,33.3,360.7z"/>
	<path class="st1" d="M29.2,353.6c0.3,0.5,0.5,0.9,0.8,1.4c1.4-1.5,3.1-3,3.1-4.9C32,351.3,30.7,352.6,29.2,353.6z"/>
	<path class="st1" d="M121.2,443.6c-0.1,0.1-0.2,0.2-0.3,0.3C121,444,121.1,443.8,121.2,443.6z"/>
	<path class="st1" d="M170.2,457.7c-1,0.5-1.8,2.6,0.1,2.8c0.4-0.4,0.9-0.4,1.2-1.1C171.4,458.6,171.2,458,170.2,457.7z"/>
	<path class="st1" d="M22.3,339.9c0.3,0.6,0.5,1.2,0.8,1.7c0.9-0.7,1.5-2.5,1.1-3.5C23.6,338.3,22.8,339,22.3,339.9z"/>
	<path class="st1" d="M173.1,441.9c-1.2,0.6-0.6,2.5,0.7,1.9C174.4,442.8,174.2,442.2,173.1,441.9z"/>
	<path class="st1" d="M174.5,439.5c-0.7-0.3-1.4,1.2-1.3,1.9c0.7,0.5,1.2,0.3,1.6,0.2C175.4,440.6,175.3,439.9,174.5,439.5z"/>
	<path class="st1" d="M192.8,433.9c-1.1-0.4-2,1.1-2.9-0.2c-0.8,1-1.9,3.4-2,4.7c0.6,0.3,1.7-2.4,2.8-2.1c0.5,1,0.7,2.1,1.2,3
		c-0.9,0-2.7-0.2-2.7,0.7c1.5,0.2,2.9,0.4,4.4,0.6c0.6-1.2-0.3-1.7,0.6-3.1c0.5,0.3,1,0.5,1.3,0.3c0.3-0.6,0.5-1.1,0.4-1.5
		C194.7,436,194.1,434.8,192.8,433.9z"/>
	<path class="st1" d="M179.7,403.2c-1.6-1.3-2.9,1.2-2.2,2.4c0.8,0.6,1.3,0.1,1.9,0c0.4-0.8,0.4-1.3,0.6-2
		C179.9,403.5,179.6,403.4,179.7,403.2z"/>
	<path class="st1" d="M37.1,366.9c0.6,0.9,1.2,1.9,1.8,2.8c0.7-0.8,0.8-2,0-2.9C38.3,366.4,37.6,366.6,37.1,366.9z"/>
	<path class="st1" d="M25.8,262.6c0.4,0.3,0.8,0.6,1.2,0.8c0.3-0.5,0.5-1,0.8-1.5c1,1,1.8,1.8,1.8,1.3c0.6-0.1,0.1-1.5-0.6-3.1
		c0.6-0.9,1.3-1.7,2.1-2.9c-0.7-0.5-1.3-1-2-1.4c-0.4,0.5-0.8,1.2-1.2,1.9c-0.4-1-0.6-1.7-0.1-1.6c5.5-3.7,9.3-12.9,1.9-15.4
		c-0.6,1.6-0.6,3.1-1.4,4.8c-0.7,0.7-2.7,1.1-2.8,0.5c0.5-0.7,1-1.5,1.5-2.2c-1.2-1.1-2.2-0.8-3.4-2c0.7-1.1,1.8-2.3,1.4-3.1
		c-1.2,0.7-2.6,0.9-3.7,1.8c1.1,2,3,3.8,3.7,5.9c-0.8-0.5-1.5-0.2-2.3-0.4c-0.4-2.1-1.5,0.9-1.1-1.5c0.9,0,0.7,0.2,0.5,0.3
		c0.1,0,0.2-0.1,0.4-0.1c-0.4-1.2-1.5-2.1-1.4-3.4c-1.2-0.7-2.1,0.8-3.3,0.1c0.8-0.7,0.1-1.1,0.9-1.9c-1.1-0.7-1.9,0.2-3-0.9
		c0.3-0.4,0.6-0.9,0.9-1.4c-1.4-0.6-1.4-0.7-1.2-2c1-0.4,2-0.9,2.9-1.6c-1.7-1.7-2.7,1.1-4.1,1.2c-4.7-2.1-8.2-9.2-12.6-7.7
		c1.4,1.8,2.1,3.7,3.7,5.5c-0.7,1.6-0.9,3.2-1.8,4.9c-1.2-0.6-2.3-1.2-3.5-1.7c0,1.1,0,2.2,0,3.2c0,2.7,0.1,5.5,0.2,8.2
		c0.1,0,0.3,0.1,0.4,0.1c-0.1,0.2-0.2,0.4-0.4,0.5c0,0.4,0,0.9,0.1,1.3c0.8,0.5,1.5,0.8,2.3,1.2c-0.7,0.8-0.3,1.5-1.2,2.4
		c-0.3-0.2-0.6-0.3-0.9-0.4c0.1,1.8,0.2,3.6,0.4,5.5c1.8-0.9,3.7-1.9,4.4,0.5c-0.5,0.6-1.1,0.9-1.6,1.3c0.6,0.7,2.2,1,2,1.8
		c-0.8,0.3-1.6,0.6-2.3,1.2c0.1,1-0.2,2.1,0.6,2.9c0.8-1.2,1.6-2.4,2.4-3.6c1,1,3.1,0.9,3.4,1.9c-1.1,1.7-3.6,2.1-4,3.8
		c1.6-0.1,3-0.8,4.3-2.7c0.1,0,0.2,0.1,0.3,0.1c0.7,1.3,1.4,2,2.2,1.2c-0.2-0.8,1.4,1.1,1.8,1.7c1-0.7,1.8-2.1,2.4-3.6
		c2.2,1.8,5.1,1.6,7.3,1.9C24.1,265.2,25.8,263.7,25.8,262.6z"/>
	<path class="st1" d="M22.2,244.9C21.9,245,22,245,22.2,244.9L22.2,244.9z"/>
	<path class="st1" d="M146.9,392.8c0-3.3,1.7-8-2.4-9.5c0.8-0.9,0.4-1.5-0.5-2c-0.9-0.7-1.4,1.9-2.3,1.2c-1.2-0.7-1.6-1.6-1.9-2.6
		c-1.6,3.2-3.8,5.7-6.2,7.1c-0.3-1.7,0.5-4.2-2-4.6c-0.8,2-0.1,3.8,0.7,5.4c2.8,0.9,4.6,4.9,8.7,6.5
		C143.1,394,145.1,394,146.9,392.8z"/>
	<path class="st1" d="M136.9,394.3c-0.9-0.5-1.7-0.6-2.6-1.5c-0.8,1.1-0.6,1.9-1.7,2.5c-0.8,0.1-1.8-1.3-2.6-1
		c1.5,1.2,1.9,3.4-0.3,4.7c1.4,0.2,3.1,2.3,4.6,2.4c-0.8-1.1-1.9-2-2.6-3.1C133.3,396,135.2,395.9,136.9,394.3z"/>
	<path class="st1" d="M14.3,268C14.2,268,14.2,268,14.3,268C14.4,268.3,14.4,268.2,14.3,268z"/>
	<path class="st1" d="M64.5,367.7c-0.6,0.1-1.1,1.1-1.6,1.8c0.4,1,0.9,1.5,2,1.4C65.8,369.5,66,368.4,64.5,367.7z"/>
	<path class="st1" d="M60.7,341.7c2.2-0.3,1.8-3.7-0.2-3c-0.4,0.6-0.7,1.1-1.1,1.7C60.1,340.8,59.9,341.4,60.7,341.7z"/>
	<path class="st1" d="M50.4,323.4c0.1-1-0.5-1.7,0-2.8c1.1-0.8,2.4,0,3.7,1c-1,0.8-2.2,0.5-3.1,1.4c0.6,1.1,2.3,2,3.5,2.9
		c-0.1,0.7-0.2,1.5-0.4,2.2c3.5,2.5,6.3,0.8,9.2-1.3c2.5,2.7,3.4,5.7,3.9,8.9c-1.3,0.8-2.4,3.1-2.1,4.2c0.6,1.1,2.1,0.1,1.9,0.9
		c-0.6,1.6-2,3.4-0.9,4.7c2-2.6,2-4.7,3.3-7.1c-0.2-1.2-1.2-2.2-1.4-3.4c1-1.7,1.8-3.4,2.2-5c-1.2-0.5-2.2,0.2-3.4-0.3
		c-0.7-2.7-1.3-5.4-1.4-8.3c-1.5,0.6-0.1,2.3-1.3,3.6c-2.6-0.6-2.3-3.5-2.5-5.5c0.6,0.1,1.1-0.5,1.6-1.3c0.2-1.1-0.4-2-0.2-3
		c0.7-0.1,1.6,0.7,2.3,0.4c-0.3-0.7-0.5-1.4-0.7-2.1c-1.9,0.6-3.8,1.5-5.9,0.7c-0.9-0.7-0.6-1.7-1.2-2.5c-1.6,1.7-3.5,1.9-5.3,1.5
		c0.3,0.9-0.6,2.2,0.2,3c1.2-0.9,2.4-2,3.7-2.3c3.3,1.8,6,4.9,3,7.4c-0.7-0.5-1.3-0.9-2-1.4c-0.5,0.7-1,1.5-1.5,2.2
		c0.8,0.7,1.5,0.9,2.1,1.1c-0.6,0.2-1.2,1.3-1.9,1.1c1.3-1.7-1.6-1.1-1.4-1.8c1-1.5,2-3,3-4.4c-2.5-0.9-4.8-0.5-7.2-0.6
		c0.4-0.8,0.6-1.7,1-2.6c-3.6-1.8-6.9-1.7-10.1-0.6c1.5,1,2.2,2.3,4,3.2c0.4-0.6,0.7-1.1,1.1-1.7c1.1,0.7,2.2,0.7,3.3,1.5
		c-0.3,6.3-5.8,8.7-9.6,3c0.6-0.1,1.1-1.5,1.8-1.6c0.5,0.2,0.7,1.8,1.4,0.6c1-1.6-1.4-1.4-2.3-2c-1.7,2.1-1,3.5-1.3,5.2
		C43.5,325.6,47,324.7,50.4,323.4z"/>
	<path class="st1" d="M89.7,379.3c-0.7-0.6-0.1-1.5-1.2-2C83.8,376.9,86.7,385.1,89.7,379.3z"/>
	<path class="st1" d="M50.3,325.3c-0.5,0.3-1.2,0.4-1.7,0.9C47.8,330.8,55.4,328,50.3,325.3z"/>
	<path class="st1" d="M59.4,351.8c-1.1,0.5-2.4-0.3-3.5,0.9C53.7,358.6,63,356.7,59.4,351.8z"/>
	<path class="st1" d="M71.6,341.2c0.3-0.4,0.6-0.9,0.9-1.4c-0.5-0.8-0.8-1-1.7-1.2c-0.4,0.6-0.7,1.1-1.1,1.7
		C70.3,340.7,71,341.3,71.6,341.2z"/>
	<path class="st1" d="M80.1,355c-1.6-0.5-3.1-0.8-4.7-1.7c-1,1.3-3.3,1.3-3.4,2.9c2.4-0.3,4.6-1.2,7-0.7c-0.9,2.1-3.1,3.1-3.3,5
		C79,359.9,80.6,358.7,80.1,355z"/>
	<path class="st1" d="M85.3,351.7c2.3-2,5-1.2,7.5-2c-2.6-3.6-6.3-1.7-9-0.7C84.7,349.7,84,350.9,85.3,351.7z"/>
	<path class="st1" d="M72.6,345.6c1.2-0.5,1.6-2.3,0-2.8c-0.6,0.2-1.4,1.3-1.3,2C71.8,345.1,72.2,345.4,72.6,345.6z"/>
	<path class="st1" d="M73,339c1.8-0.7,1.7-3.3,0-3.3C71.7,336.5,71.2,338.3,73,339z"/>
	<path class="st1" d="M55.1,331.6c-0.8-2.5-4.9-0.5-3.7,1.8C52.7,334.4,54.8,333.3,55.1,331.6z"/>
	<path class="st1" d="M29.2,181.2c-0.8,0.7-0.4,1.2-0.9,1.9c0.4,0.3,0.8,0.6,1.2,0.8c0.5-0.1,0.9-0.8,1.4-1.5
		C30.9,181.8,29.8,181,29.2,181.2z"/>
	<path class="st1" d="M31.9,232.1c1.9-1.9-0.1-2.8-1-4C28.6,229.4,29.8,232.6,31.9,232.1z"/>
	<path class="st1" d="M24.5,225.1c0.1-0.1,0.2-0.3,0.2-0.4c0,0-0.1-0.1-0.1-0.1c0-0.6-0.1-1.1,0.4-1.8c-1.2-1-2.2-0.9-3.3-1.1
		c-1,1.1-0.8,1.9-1.6,3c1.4,1.8,1.2,3.9,1.5,6c0.6-0.2,1.2-1.3,1.9-1.1c0,0.7-1,1.6-0.8,2.3c1.5,0.1,3,0.5,4.6,1.2
		c1.5-2.8,1.3-5.1,0.5-7.2c-0.5,0.4-0.8,1.9-1.4,1.5c-0.7-0.5-1.5-1-2.2-1.6C24.3,225.6,24.4,225.3,24.5,225.1z"/>
	<path class="st1" d="M22.3,233.5c-1.3,1.5-0.6,2.9,0.9,3.1c0.4-0.7,0.8-1.3,1.3-2C23.6,233.8,23.3,233.5,22.3,233.5z"/>
	<path class="st1" d="M40.1,298.1c-0.7-2.3-4.2-1.2-3.7,1.1C37.8,300,39.1,299.9,40.1,298.1z"/>
	<path class="st1" d="M41.6,239.3c0-1.4-1.9-2.1-2.9-1.6c-1.1,0.8-0.4,2.3-1,2.1c-0.3-0.2-0.7-0.5-1-0.7c0.5-0.8,1.1-1.7,1.7-2.5
		c2.8,1.2,6.7,0.1,6.9-4.4c-1.9-1-2.9-3.3-4.9-3.5c-0.2,1.1-1.1,2.4-1.7,3.7c0.9,0.7,2.9,1.1,3.1,1.8c-0.5,0.4-0.8,1.9-1.4,1.5
		c-0.7-2-4-4-2.5-5.9c-0.6,0.9-1.4,0.6-2,1.9c0.6,0.9,1,1.9,1.3,3c-1.5,0.2-3.1,0.1-4.7,0c-0.7,2.7,0.1,5,0.1,7.5
		c1.6,0.5,3.3,1.3,4.9,1.8c0.8-0.9,1.8-1.3,2.6-2.3c-0.3-0.2-0.7-0.4-0.5-0.8C40.3,241,41,240.4,41.6,239.3z"/>
	<path class="st1" d="M59.5,295c-0.9,0.6-1.2,1.4-1.2,2.4c0.6,0.7,1.1,0.3,1.6,0.7C61.3,296.8,61.2,295.7,59.5,295z"/>
	<path class="st1" d="M48.6,303.3c0.6,0.4,1.2,0.8,1.7,1.2c1.2-0.8,1.8-2.6,0-3.3C49.7,301.4,49.2,302.5,48.6,303.3z"/>
	<path class="st1" d="M23.6,296.3c-0.7,0.9-0.6,1.7,0.3,2.2c0.3-0.6,0.7-0.4,1-0.9C24.5,297,24.5,296,23.6,296.3z"/>
	<path class="st1" d="M32.5,261.6c-0.9,1.6,0,2.9,0.2,4.6c1,0,2.2,0.4,3.2,0.6C42,263.4,35.4,256.7,32.5,261.6z"/>
	<path class="st1" d="M30,289.3c1.6-2.1,4.5,0.3,4.3,2.2c-1.1,0.5-3.3,1-3.5,2.5c2.8-0.5,3.3,1.2,6.2,2.7c0.3-1,1.1-2.1,0.9-3
		c-1.2,0-2.3-0.8-3.1-1.8c1.6-1.9,0.1-3.1,0.7-4.8c1.5,0.1,1.8,1.7,2.1,2.8c2.4-2.6,5.1-3.2,8.2-0.3c-0.6,1.6-1.4,3.3-1.8,4.9
		c0.8,0.6,1.6,1.1,2.5,1.7c-1.1,1.7-2.4,3.5-3.5,5.3c3.4-0.1,5.8-7.8,9.2-7.8c0.8,1.5-0.8,3.6,0.2,5.1c1.7-0.9,1.9-3.4,3.3-5
		c1.9,0.7,3.9,1.4,5.6,0.3c-3.2-2.6-5.9-1.8-8.8-2.1c2-3.4,2.7-9.6-1.5-9.2c0.6,1.4,2.3,2.5,1.9,4.2c-2.7-0.2-5.3-0.1-8.1-0.4
		c-0.2-2.1,1.1-4.7,0-6.5c-1.1,1.4-2.3,1.6-3.5,2.5c1,0.6,1.7-0.5,2.6-0.2c1.9,4.1-4.4,3.6-6.9,4.9c0.5-1.6,0.9-3.2,1.8-4.9
		c-2.2-2,0.5-5.3,1.8-8.1c-0.8,0.4-1.9-0.9-2.6,0.2c0.3,0.4,1.5,0.6,1.1,1.1c-3,1.3-6.1,2.5-9,4.3c-2.1-1.4-3.9-1.5-6-3.5
		c0.1-1.6-0.1-3.1-0.2-4.6c-0.7,0.2-1.3,1.5-1.9,2.3c0.4,2.1,2.3,4,5,5.6c-1.4,1.7,0.2,2.6-1,4.2c-0.8-0.5-1.7-1.4-2.4-1.3
		c-0.8,0.9-0.6,1.5-0.8,2.3c1.2,1.4,2.2,0.5,3.3,1.1c0.8,1.1-0.5,2.4-1.6,3.4c-0.4-0.6-0.4-1.3-1.4-1.8c-1,1.2-2.1,0.8-3.1,1.9
		c0.6,0.7,1,1.3,1.6,1.9C25,289,28,290,30,293.8C30.6,292.1,29.4,291,30,289.3z"/>
	<path class="st1" d="M125.6,376.5c-0.3,0.4-0.6,1-0.9,1.4c0.2,1.4,1.8,1.8,2.9,1.6C129.5,377.8,126.8,376,125.6,376.5z"/>
	<path class="st1" d="M97.6,335.2c-0.1-0.2-0.3-0.4-0.4-0.6C97.3,334.8,97.4,335,97.6,335.2z"/>
	<path class="st1" d="M88.3,323.1c0.4-0.3,0.8-0.7,1.2-1.2c-0.4-0.8-0.9-1.6-1.3-2.3c-0.5,0.2-0.9,0.5-1.3,0.9
		C86.8,321.5,86.9,322.4,88.3,323.1z"/>
	<path class="st1" d="M8.3,228.9c2.2-0.2,2-3.7-0.2-3c-0.3,0.4-0.6,1-0.9,1.4C7.6,227.9,7.4,228.6,8.3,228.9z"/>
	<path class="st1" d="M120.2,396c-0.4,1.3-1,1-1.7,0.5c-0.4-0.3-0.8-0.7-1.5-0.9c-0.3,1-0.8,1.5-1.2,2.2c0.4,0.3,0.6,0.7,1.3,0.9
		c0.2-0.1,0.3-0.3,0.5-0.4c0.1,0.4,0.2,0.7,0.3,1.1c1.2-0.9,2.5-1.3,3.7-2.3C121.2,396.7,120.7,396.4,120.2,396z"/>
	<path class="st1" d="M90.8,362.9c0.9-1.8,2.9-3.6,3.1-4.8c-1.4,1.4-2.9,1.7-4.3,2.7C90.4,361.5,89.8,362.4,90.8,362.9z"/>
	<path class="st1" d="M81.5,308.2c0.3-0.1,0.5-0.4,0.8-0.6c-0.2-0.6-0.5-1.1-0.7-1.7C80.9,306.8,80.9,307.6,81.5,308.2z"/>
	<path class="st1" d="M68.3,228.8c0-0.6,0.1-1.2,0.1-1.8c-1.4-0.4-2.8-0.3-4.1,0.4c-0.6,1.3-0.7,2.5-1.5,3.8c0.4,1,1.1,2,1.6,3.1
		c-3.1-0.5-9,3.1-6.4,6.9c1.7-1.9,3.3-4.5,5.2-4.5c1.2,0.8,1.7,1.9,3.3,2.7c1.7-3-2.4-4.6,0.1-7.7c0.5,0.1,1.1,0.2,1.6,0.4
		c0-0.4,0-0.7,0-1.1c-0.8,0.3-1.9,0.1-2.7-0.9C66.3,228.9,67.3,228.8,68.3,228.8z"/>
	<path class="st1" d="M135.7,378.7c1,2.8,3.9,1.6,4.3-0.3c-0.8-0.5-1.5-1.1-2.2-1.6C137,377.4,136.4,378.1,135.7,378.7z"/>
	<path class="st1" d="M162.8,392.5c0-0.2,0-0.3-0.1-0.5c-0.7-0.3-1.3-0.6-2-1c-0.1,0.2-0.2,0.4-0.4,0.6c-0.6-0.2-1.2-1.4-1.6-0.3
		c-0.9,0.9,0.9,1.2,1.4,1.8C160.8,391,161.9,392.7,162.8,392.5z"/>
	<path class="st1" d="M21.2,182.9c-1.9,1.1-4.1-0.3-5.8,2.1C17.1,186.8,22.1,186.8,21.2,182.9z"/>
	<path class="st1" d="M96.9,348.4c-1.3,1.3-0.6,2.2-1.1,3.3c-1.2-0.6-2.5-0.8-3.7-0.5c0.5,1.6-0.8,3.6,1.1,4.8c1.1-1.4,1.4-3.9,3-4
		c0.1,0.4,0.4,0.8,1.1,1.1C99,351.2,99.1,348.6,96.9,348.4z"/>
	<path class="st1" d="M99.3,346c0.5,0.4,1,0.7,1.5,1c0.5-0.5,0.9-2,1.6-1.8c0.7,0.7,1,1.5,1.8,2.1c0.9-2.9-4.1-5.2-5.7-2.4
		c-0.2-1-0.7-1.9,0.2-3.1c1.2,0.5,2.9,0.7,2.6-1.1c-1.4,0.1-2.8,0.1-4.4-1.1c-0.5-0.9-0.2-2-0.6-2.9c0.4,3.2-4.2,4.3-3.8,6.3
		c0.2-1.6-1.8-1.4-2.8-1.5c0.5-0.7,1-1.5,1.5-2.2c1,0.4,2,0.7,3,0.4c-0.3-0.9-0.7-1.7-0.8-2.6c1,0,1.9-1.6,2.8-2.1
		c-1.7-0.6-3.1,1.2-4.9,0.2c-0.6-1.6-1.3-3.1-1.6-4.8c1,0.2,1.9,0,2.8-0.5c-6.4-1.6-12.2,1.8-18.6,1.2c0.7-1.3-0.4-2.2-0.7-3.3
		c-0.7,0.9-1,1.6-1.2,2.4c1,1.2,1.3,2.6,2.1,3.9c0.7-0.5,1.6-0.2,2.4-0.4c-1,2.8-2.1,5.7-1.4,8c2.9-1.8,1-4.4,1.8-6.5
		c1.5-0.6,3-0.7,4.5-1.3c0.9,2.3,1.6,4.6-0.7,7.7c-1.2,0.5-1.3-0.9-2.6-1c-1,0.7-0.7,1.1-1.5,2.2c1.7,1.5,2.9-0.5,4.5,0.3
		c-1.4,3-3.2,2.8-5.1,1.3c-0.6,1-1.1,1.5-1.7,2.1c3.4,0.1,6.6,3.8,8.4,6.4c1.1-1.8,0.6-3.2,0.2-4.7c3.7-0.6,8.2-4,11.9,0.6
		c0.6-1.1,0.8-2.1,1.8-3.3c1.1,0.8,2.1,1.4,3.1,1.4C99.4,346.8,99.3,346.4,99.3,346z"/>
	<path class="st1" d="M90.2,367c2.1,0.1,3,2.6,3.7,3.8C96.4,368.4,91,364.6,90.2,367z"/>
	<path class="st1" d="M95.1,377c2.6,0.6,2.6-4.4,3.1-6.4c-1.2,0.3-2.3,1.6-3.3,3.4c-1-0.1-1.1-2-1.7-0.7
		C92.2,375.1,94.3,376.9,95.1,377z"/>
	<path class="st1" d="M103.2,352.4c-1.5-1.3-2.8-1.2-4.1-0.9c0.8,1.2,0.5,2.7,0.1,4.2C101.1,356.3,103.3,354.9,103.2,352.4z"/>
	<path class="st1" d="M109.8,369.7c1.3,0.5,2.5-0.5,3.8,0.2c0.2,0.6,0.6,1.3,0,2.1c-1.1,0.3-2.1,0.6-3,2.4c0.4,0.6,0.2,1.4,0.9,1.9
		c0.5-0.8,0.3-1.5,0.8-2.3c0.6-0.1,1.4,0.6,2.1,1.1c0.4-1.6,1.9-2.9,2.9-4.9c-0.5-1.4-2,1-3.2-0.6c-0.6-1.2,0.4-2.7,1-4.2
		c2.3,0.9,2.5,3.6,3.9,4c-0.3-0.9-0.3-2,0.2-3.1c-2.8-1-4.7-2.8-6.4-1.3c0.4-0.3-0.1,2.4-0.1,2.3C112,368.7,110.3,368.4,109.8,369.7
		z"/>
	<path class="st1" d="M107.5,361.2c-0.6-0.5-0.6-1.3-1.5-1c-0.4,0.8-0.8,1.7,0.3,2.2C106.7,362.3,107.1,361.9,107.5,361.2z"/>
	<path class="st1" d="M112.5,380.8c1.2,1.1,3.5-0.6,3.4-2.9C113.7,376.1,111,379.4,112.5,380.8z"/>
	<path class="st1" d="M102.3,369c-0.6,1.1,0.3,2,0.2,3c-1.1-0.2-2,0.6-3,1.2c2.5,1.6,5.3-2,6.5-4.9
		C104.6,367.4,103.4,367.6,102.3,369z"/>
	<path class="st1" d="M77.5,300.7c0.1,0,0.3,0,0.4-0.1c0.5-0.2,0.9-0.4,1.4-0.6c-0.1-0.2-0.2-0.4-0.2-0.6c-0.2,0.2-0.4,0.4-0.7,0.5
		c-0.1-0.2-0.3-0.3-0.4-0.5c0.1-0.4,0.4-0.8,0.7-1.2c0-0.1-0.1-0.1-0.1-0.2c-0.3-0.7-0.5-1.5-0.8-2.2c-0.1-0.2-0.2-0.5-0.3-0.7
		c0-0.1-0.1-0.3-0.1-0.4c-0.3-0.8-0.6-1.7-0.8-2.5c-0.4,0.9-0.9,1.8-0.7,2.6c0.4-0.1,0.9,0,1.4,0.2c-0.1,0.6-0.1,1.2,0.2,1.8
		c-0.2,0.8-0.2,1.5-0.2,2.2c-0.7,0.2-0.8,0.7-0.6,1.1c-0.5,0.1-1-0.1-1.5,0.7C75.5,301.1,76.5,301,77.5,300.7z"/>
	<path class="st1" d="M69.1,116c2.7,2.8,3.7-3.1,0.6-2C69.3,114.7,69.2,115.3,69.1,116z"/>
	<path class="st1" d="M64.1,295.8c1.1-0.6,2.2-0.4,3.2-1c-0.4-0.9-0.2-2-1.1-2.8c-0.8,0.7-1.8,0-2.5,1.1
		C64.7,293.8,63.7,294.9,64.1,295.8z"/>
	<path class="st1" d="M67.8,240.8c-1.2-0.5-2.4-1.6-3.6-1.7c-1.6,1.7-0.6,2.8-1.4,4.3c-0.9-0.3-2-1.4-2.8-0.7
		C60.1,248.4,65.5,243.6,67.8,240.8z"/>
	<path class="st1" d="M40.3,261.4c1.4,0.7,4.4,1.3,6.4,1.3c0.1-0.2,0.2-0.4,0.4-0.6C44.5,260,42.2,259,40.3,261.4z"/>
	<path class="st1" d="M56.4,240.4c-4.9,4.4-11.2-1.8-15.7,5.6c-0.6,3.2-0.6,6.4,0.8,9.1c4.8,0.7,9.9,4,13.9-0.8
		c-1.2-3.5,0.6-7.9-1-11.4c0.7,0.6,1.4,0.2,2.1,1.1C57,242.8,56.8,241.6,56.4,240.4z"/>
	<path class="st1" d="M55.3,279.8c-0.9,1.1-0.3,1.8,0.5,2.4c0.5-0.7,0.9-1.3,0.9-1.9C56.1,279.6,55.8,280.3,55.3,279.8z"/>
	<path class="st1" d="M79.2,155.1c-1.2,1.4-1.1,2.4,0.4,3.2C81.4,157.6,81.1,154.8,79.2,155.1z"/>
	<path class="st1" d="M62.3,310.4c0.7-0.5,0.1-0.9,0.7-1.5c-0.5-0.5-1-0.6-1.4-0.6C60.6,309.5,61.4,310.3,62.3,310.4z"/>
	<path class="st1" d="M59.2,174.9c0.4,0.3,0.8,0.6,1.2,0.9c1-0.4,1.3-1.1,1.5-2.2c-0.4-0.3-0.8-0.5-1.2-0.9
		C59.6,173,59.1,173.7,59.2,174.9z"/>
	<path class="st1" d="M76.2,118.2c0.5,0.4,1,0.7,1.5,1c1.5-0.6,1.9-2.7,0.1-3.3C77.1,116.1,76.1,117.5,76.2,118.2z"/>
	<path class="st1" d="M69.8,315c1,0.7,2,1.4,3,2.1c-0.6,1-0.7,1.9-1.6,3c1.1,1,0.5,2.4,0.5,3.6c1.6,0.5,3.2,0.7,4.8,1
		c-0.4,0.7-0.1,1.1-0.9,1.9c0.8,0.7,1.6,1.1,2.4,1.3c4.3-4.4,1.4-7.1,3.2-10.8c0.6,1.2,0.4,2.5,1.2,3.7c1.1-0.6,2.4,0.3,3.5-0.4
		c0.1-1.1,0.5-2.2,0.8-3.3c0.1-0.3,0.2-0.6,0.2-0.9c-0.8-0.4-0.6-1-1.3-1.4c-0.1-0.1-0.1-0.2-0.2-0.3c-0.2-0.5-0.5-1-0.7-1.5
		c-0.1,0.1-0.1,0.2-0.2,0.3c-3.4-2-6.2,4.3-6.2,7.1c-2.1-1.2-3.9-0.2-5.8,0c0.7-1.2,0.3-2.1,1.1-3.3c1.3,0.2,2.7,1.2,3.9,0.7
		c0.3-1.6,1.2-3.4,1.6-5c-1.1-1.1-2-0.7-3-0.9c0.9-2.3,0.6-4.4-1.5-6c0.6-0.2,2.1-2,1.9-2.8c-2-0.9-3.4,3-5.8,0.4
		c-0.7,0.9-1,1.6-1.2,2.4c-0.5,0.4-1.3-1-1.9-0.5c0.7,1,1.8,3.2,3.3,3.2c0-0.4,0.4-2,0.9-1.9c0.3,0.8,1,1.5,1,2.3
		c-3.9,2.3-11.3-1.5-12.3,5.1c3.6-2.2,7.4-3.4,11.5-2.1c0.7,0.8,0.7,1.9,0.2,3C71.5,314.9,70.6,314.5,69.8,315z"/>
	<path class="st1" d="M155,394.8c-0.6,0.1-1.6,1.5-1.5,2.2c0.5,0.4,1,0.7,1.5,1C156.4,397.5,156.8,395.4,155,394.8z"/>
	<path class="st1" d="M11.5,272.6c-0.8,1.1-1.4,2.1-1.2,2.8c0.5,0.4,1,0.7,1.5,1c1.1-0.7,1.5-1.2,2-2.3
		C13.6,273.5,12.2,272.4,11.5,272.6z"/>
	<path class="st1" d="M10.8,189.8c0.2,0.2,0.1,0.4-0.1,0.7C14,193.6,13.5,186.4,10.8,189.8z"/>
	<path class="st1" d="M121.4,108c-1.1,0.1-2.3,0.3-3.3,2.2c0.3,1.9,2.5,1.8,3.8,1.9C121.8,110.7,122.8,109.1,121.4,108z"/>
	<path class="st1" d="M85.3,114.4c-0.6,0.1-1.6,1.5-1.5,2.2C85.5,118.9,88.2,115.2,85.3,114.4z"/>
	<path class="st1" d="M160.3,31.6c-0.6,0.1-1.6,1.5-1.5,2.2c0.5,0.4,1,0.7,1.5,1C161.7,34.2,162.2,32.2,160.3,31.6z"/>
	<path class="st1" d="M210.8,52c-0.4,0.6-0.7,1.1-1.1,1.7C211,57.2,214.5,52.1,210.8,52z"/>
	<path class="st1" d="M168.5,38.9c-1.8-1.4-5.5,1.8-2.6,3.5c0.2-0.2,0.4-0.2,0.7,0.1C167.8,41.7,168,40.1,168.5,38.9z"/>
	<path class="st1" d="M201.1,51.4c-1.3,7.9,10.2,4,6-1.9C205,49.4,203,50,201.1,51.4z"/>
	<path class="st1" d="M17.9,200.5c-0.1-1.2-1.4-2-2-3c-0.5,1.5-0.8,3,0.1,4.2C16.6,201.5,17.2,200.9,17.9,200.5z"/>
	<path class="st1" d="M35.1,217.6c-0.8,0.7-0.1,1.1-0.9,1.9c0.6,0.4,1.2,0.8,1.7,1.2C37.9,219,36.7,217,35.1,217.6z"/>
	<path class="st1" d="M24.3,213.7c-1,0.4-1.3,1-1.5,2.2C24.5,218.2,26.9,214.6,24.3,213.7z"/>
	<path class="st1" d="M25.8,144.4c-1.1-1.1-1.9-0.8-2.8-0.7C19.7,147.8,26.8,148.7,25.8,144.4z"/>
	<path class="st1" d="M35.5,211c1.4-0.6,2-2.7,0-3.3C34.1,208.5,33.6,210.3,35.5,211z"/>
	<path class="st1" d="M40.3,227.1C44.8,226.2,38.5,222.7,40.3,227.1L40.3,227.1z"/>
	<path class="st1" d="M46.2,191.5c-0.4,0.6-0.7,1.1-1.1,1.7C46.4,196.6,49.9,191.5,46.2,191.5z"/>
	<path class="st1" d="M64.5,289c0.4,0,0.7-0.3,1.1-0.6c-0.5-0.7-1.1-1-1.6-0.4C64.4,288.4,64,288.7,64.5,289z"/>
	<path class="st1" d="M108.9,69.8c-0.2-1.3-1.6-1.5-2.4-1C106.4,70,108,70.6,108.9,69.8z"/>
	<path class="st1" d="M130.8,57.1c-0.3-0.6-0.7-0.5-1-0.9c-0.3,0.2-0.5,0.4-0.8,0.6c0,0.4,0.3,0.8,0.7,1.2
		C130.2,58.1,130.9,57.5,130.8,57.1z"/>
	<path class="st1" d="M77.2,144.7c1.3,0.4,2.7,1,4.1,0.5c-1.1-1-2.3-0.9-3.4-1.6C77.4,144,76.8,144.3,77.2,144.7z"/>
	<path class="st1" d="M81.1,59.6c-0.2,0.2-0.4,0.3-0.6,0.5c0.7,0.4,1.3,0.7,2,0.8C82.2,60.4,81.4,60,81.1,59.6z"/>
	<path class="st1" d="M118.7,42.2c1.1,1.1,2.2,1.8,3.4,2.5c1.2-1.3,0.3-2.9,1.6-4.1C122.1,40.2,119.8,40.6,118.7,42.2z"/>
	<path class="st1" d="M136.9,25.9c-0.4,4.2,5.8,7.7,8.7,6c-1.4,0.4-3.1-1-4.5-1.6c-1-0.5-2.1-0.3-2.7-1.3c-1-1.6,1.1-3.2-0.5-5
		c1.4,0.2,2.6-1.3,1.8-2.4c-0.1-0.2-0.3-0.4-0.6-0.5c-0.6,0.1-0.9,0.7-1.1,1.3c-0.3,0.7-0.5,1.4-1.1,1.6c-0.2-0.3-0.4-0.5-0.6-0.8
		c-0.5,0.3-1.1,0.5-1.6,0.8C135.3,24.6,136,25.3,136.9,25.9z"/>
	<path class="st1" d="M83.8,64.2c0.7,1.1,1.4,1.1,2.1,0.6C86.1,63.5,84.1,62.9,83.8,64.2z"/>
	<path class="st1" d="M92.4,151c0-0.1-0.1-0.3-0.1-0.4c-0.4,0.7-0.7,1.3-0.9,2C91.7,152.1,92,151.5,92.4,151z"/>
	<path class="st1" d="M84.9,148.4c0.6-1,1.8-0.7,2.8-2c-0.3-1.3-1.5-0.7-2.2-0.8c0.1-0.3-0.1-0.7-0.1-1c-0.3,0.2-0.5,0.2-0.8,0
		c0.1-1.1-0.2-2.2-0.1-3.3c-2.2,1.4-0.5,3.7-1.8,4.8C84,145.6,85.3,147.3,84.9,148.4z"/>
	<path class="st1" d="M73.7,74.1c0.4,0.4,0.8,0.9,1.2,0.5c0.9-1.1-0.1-2.5-0.9-3.9c-1.7,0-3.4,2.1-5.1,1.4c-0.2-0.2-0.3-0.4-0.5-0.6
		c-0.3,0.3-0.6,0.7-1,1c0,0.1,0.1,0.3,0,0.4c-0.2,0.2-0.4,0.2-0.6,0.2c-0.2,0.2-0.4,0.4-0.6,0.6c1.5,0.9,2.9,1.3,4.3,2.7
		C71.9,76.3,73.3,75.1,73.7,74.1z"/>
	<path class="st1" d="M85.3,71.5c-0.1-0.4,0.1-0.8-0.5-1.3c-0.3,0.1-0.6,0.1-0.9,0.2C83.3,71.3,84.3,72.3,85.3,71.5z"/>
	<path class="st1" d="M6.5,273.2c0,1.2,1.7,1.5,1.8,0.3C7.7,272.5,7.2,272.4,6.5,273.2z"/>
	<path class="st1" d="M80.2,143c0.2,0.2,0.4,0.5,0.6,0.7c0.4,0.1,0.9-0.3,0.9-0.7C81.3,142.4,80.7,142.5,80.2,143z"/>
	<path class="st1" d="M60.5,157.5c0.8,0.1,1.5-0.1,2.3,0.2c-0.2,0.6-1.2,1-1,1.6c0.7-0.6,1.5-1.1,2.2-1.4c0-0.6-0.9-1.3-1.4-2
		C62,156.1,60.6,156.9,60.5,157.5z"/>
	<path class="st1" d="M88.1,61c2.1-1.1,2.4-2.6,3.6-3.9c2.1,1.8,1.1,3.1,0.5,4.4c1.1,0.9,3,0.2,3.1,2.1c-0.4-0.4-0.6-0.2-0.9-0.1
		c-1.9,0.3-4.1-0.2-5.4,0.8c1.3,0.3,2.5,1,3.7,1.6c-0.2,0.8-0.4,1.6-0.3,2.5c0.6-0.6,1.3-0.5,1.9-1.2c0.4-0.6-0.5-1.4,0.2-1.9
		c2.1,3,4.9,4.4,7.3,3.1c-0.5,0.1-0.9,0.3-1.4-0.1c0.1-0.5,0.4-1,1.1-1.5c0.9,1,1,1.9,1.9,1.3c-0.5,0.5-0.9,1-0.8,1.5
		c1.8-0.3,3.3-2.1,2.2-3.7c-0.7,0.3-0.5,1.4-1.1,1.2c1.2-2,0.9-3.8,3.8-5.2c0.3,1.3,1.6,0.2,2.1,0.9c0.7,1-1.4,2.7-1,4.5
		c0.3,1.4,1.5,1.4,1.4,2.9c0.7,0.4,1.4,0,2.1,0.6c-0.9,0.9-1.7,0.6-2.6,0.1c-0.7,0.9-2.1,0.9-2.2,1.8c0.9-0.1,1.7,0.5,2.5,0.9
		c-0.3,0.3-0.7,0.5-0.9,0.7c0.2,0.6,1.1,0.4,0.7,0.9c-5.6-0.8-6.6,5.9-0.6,5.9c-0.2,0.3-0.5,0.5-0.6,0.9c0,0,0,0.1,0,0.1
		c-0.8-0.8-1.6-0.7-2.5-0.4c0.4,0.7,0.9,0.5,1.3,1.3c-0.2,0.3-1.1,0.5-0.8,0.9c0.5-0.2,1.1-0.4,1.7-0.7c0,2.7,4.2,5.1,5.8,1
		c0.1,0.5,0.1,1.2,0.6,1.2c-0.9-2.5,3.8-3.6,4.7-6c-0.9-1.1-2.5-1.8-2.9-2.8c0.7-0.9,1.3,0.9,1.9,1.3c1-0.8,2-0.8,2.9-1.2
		c-0.2-1.2-0.8-2.4-2.1-3.8c-1.3,1.1-2,3.5-3.9,2.8c0.3-0.2-0.3-0.5-0.1-0.8c4.6-1.1,0.4-6.1,2.9-8.6c0.5,1.4,1.2-0.7,2-1
		c-0.1-0.8-1.1-1.7-1.2-2.4c1.2-0.8,1.6-2.1,2.8-1.4c0.3-0.8-0.1-1.6,0.4-2.3c0.5,0.1,1,0.1,1.5-0.1c-0.5-0.6-1.1-1.3-1.6-1.9
		c0.4-0.5,0.3-1.2,1.1-0.9c-0.7,0.1-1,0.6-0.5,1.3c0.8,0.6,2,0.8,2.5-0.2c-0.2-1-1.1-0.9-1.8-1.2c0.2-0.4,0.5-0.8,0.5-1.3
		c-0.4-0.6-0.9-0.5-1.3-1.3c2-1.5,3.8-1.9,5.7-0.4c0.5-0.6,1.8-1,1.8-1.7c-0.6,0-1.2,0.3-1.8,0c0.1-0.3,0.3-0.7-0.1-1
		c-1.6-0.2-3.9-1.4-5-2.6c-1.6,0.1-3.3,0.7-5,1.6c0.5-2.6-4.2-2.8-4.1-5.3c-0.6,0-1.1,0.3-1.7,0.2c1.4,0.2,1.4-1.4,1.8-1.7
		c0,0.4,0.3,0.8,0.7,1.2c1.2-0.9,2.2-1.9,2.9-2.8c-0.3-0.5-1.3-1.2-1.1-1.7c0.4,0.3,0.9-0.7,1.2-0.4c0.4,0.4,0.7,0.8,1,1.2
		c1.2-0.4,2.4-0.8,3.6-2c1.3,1.1,2.2,0.5,2.3-0.4c0.7,1.2-0.7,2.1-0.2,3.3c0.8-0.6,3-2.7,2.7-0.9c-0.8-1.1-1.7,0.8-2.5,1.1
		c0.9,1.1,0.4,2,0.6,3c0.7-0.4,0.3-1,1-1.3c0.7,0.6,1.4,0.5,2.1,0.9c0.6-0.5-0.3-1.2,0.1-1.8c0.3,0,0.6-0.1,1-0.4
		c0.7,0.5,1.5,0.8,2.2,1.4c-0.6,0.5-0.3,1.2-1,1.6c0.9,0.9,1.9,1,2.8,1.2c0.5-1.3,0.9-2.5,1.3-3.8c1.4-0.6,2.6-1.8,3.1-3
		c-0.9-1.1-1.8-2.2-2.7-3.3c-0.7,0.3-0.8,1.4-1.6,1.2c-0.1-0.2-0.3-0.3-0.4-0.5c0.5-0.4,1-0.8,1.6-1.2c-1-1.1-2.1-0.7-3.2-0.7
		c0.1,0.8,1,1.7,0.9,2.4c-0.6,0-1.2,0.3-1.8,0c0.6-1.9-1.1-3.6-3-4.2c0.7-0.4,0.5-0.9,0.8-1.4c0,0,0.1,0,0.1,0
		c0.1-0.3,0.5-0.2,0.7-0.4c0.3-1.4-0.2-2.1-0.4-3.1c-0.3,0-0.6,0.1-0.8,0.2c0-0.2-0.1-0.4-0.1-0.6c-0.7,0.3-1.3,0.7-2,1
		c0.1,0.4,0.3,0.9,0.7,1.4c-1.5,0-3,0.9-4.5,0.9c0-0.1,0-0.2,0.1-0.2c-7.4,4.1-14.5,8.7-21.4,13.5c0.2,0.1,0.3,0.1,0.5,0.2
		c-0.4,0.5-0.4,1.5-1.1,1.5c-0.1-0.3-0.2-0.6-0.4-0.9c-3,2.2-6,4.4-8.9,6.7c-0.5,0.4-0.9,0.8-1.4,1.1c-0.3,0.2-0.6,0.4-0.8,0.7
		c-0.8,0.6-1.6,1.3-2.4,1.9c-1.2,1-2.4,2-3.6,3.1c0.1,0.8,0.1,1.7,0.7,2.6C84.5,59.8,86.4,60.3,88.1,61z"/>
	<path class="st1" d="M61.2,206c-1.8,0.7,0.1,3.1,1.1,1.4C62.4,207,61.6,206.1,61.2,206z"/>
	<path class="st1" d="M80.8,65.7c0-0.5-0.8-1.4-1.3-1.6c-0.6,0.3-0.4,0.8-0.7,1.1C79.5,66.4,80.4,66.5,80.8,65.7z"/>
	<path class="st1" d="M73.4,84.3c0.4-0.3,0.9-0.8,1.3-0.7c-1.1-1.7-2.3-2-3.5-3.2c-0.5,0.5-0.9,0.6-1.4,0.8
		C70.4,83,72.2,83.4,73.4,84.3z"/>
	<path class="st1" d="M67,129.7c0.6,0.7,1.1,1.4,1.7,2.1c1.1-1,0-2.4-1-3.7c1.5-1.9,2.5-3.9,2.9-6c-2.4-5.8-7.8-7.4-11.9-8
		c-0.8,0.6-1.3,1.2-1.6,1.8c-1.2-0.3-2.3-1.4-3.5-0.1c0.3,1,1.3,2.6,1.8,3.1C52.1,123.9,61.3,133.2,67,129.7z"/>
	<path class="st1" d="M77.6,68.5c0.1-1.2,1.3,0.8,1.8,0.3c1-0.7,1.1-1.5,0-2.6c-0.9,0.4-1.8,0.7-2.7,1.5
		C77,67.9,77.2,68.8,77.6,68.5z"/>
	<path class="st1" d="M74.6,77.9c-0.8-0.4-1.5-0.5-2.2-0.8c-1.4,1.8,0.3,2.8,2.2,2.8c-0.1-0.3-0.9-0.8-0.6-1
		c0.3-0.3,0.7-0.5,0.9-0.7c0.3,0.2,0.5,0.2,0.7,0.6c0.3-0.3,0.6-0.5,0.9-0.7c0-0.7-0.4-1-1.2-1.4C74.7,77.1,74.7,77.5,74.6,77.9z"/>
	<path class="st1" d="M56.8,231.4c0.9,0.1,1.7,1.1,2.7,0.4c0.2-0.8,0.2-1.5-0.8-2.5C57.5,229.1,57.1,230.5,56.8,231.4z"/>
	<path class="st1" d="M131.6,29.2c0.4-0.4,0.8-0.7,0.4-1.1c-0.4-0.3-0.8-0.1-1.2,0.1C130.7,28.6,131.2,29.2,131.6,29.2z"/>
	<path class="st1" d="M70.8,159.5c0,0.4,0.3,0.8,0.7,1.2c0.6-0.5,0.6-0.2,0.9-0.8C71.9,159.2,71.4,159.2,70.8,159.5z"/>
	<path class="st1" d="M44.7,170.1c-1.2,4-5.8,3.6-7.9,1.6c0.4-0.4,0.7-0.1,1.1-0.3c-1-1.1-1.2-2.1-1.2-3c-0.6,0.4-1.2,0.9-1.7,1.4
		C35.2,175.9,45.6,176,44.7,170.1z"/>
	<path class="st1" d="M59.8,281.7c3.6-1.9-0.6-6.9-2.7-4.1C56,278.9,58,280.9,59.8,281.7z"/>
	<path class="st1" d="M73.1,141.4c-0.8-0.5-1.5-1.6-2.3-1.9c0.5,1.2,2.1,2.5,1.3,3.5c-0.5-0.6-1-1.2-1.6-1.9c-1,0.2-2.1,0.4-3.1,0.7
		c0.8,1.1,1.6,1.5,2.5,2.7c0.9-0.5,1.8-0.1,2.8-0.8C73,143,72.9,142.2,73.1,141.4z"/>
	<path class="st1" d="M115.1,44.7c-0.2,1.8,2.9,1.7,2.9,0.3C117.1,43.8,116.1,44,115.1,44.7z"/>
	<path class="st1" d="M79.3,82.5c0.7-0.3,0.7-0.8,0.8-1.2c-0.7-0.7-1.5-1-2.3-0.2C77.6,81.9,78.6,82.3,79.3,82.5z"/>
	<path class="st1" d="M76,131c1.2-0.3,1.3-1.4,0.1-2.1C74.8,129.3,74.8,130.1,76,131z"/>
	<path class="st1" d="M62.7,202.2c0-0.4-0.7-1.3-1.1-1.4c-0.3,0.3-0.7,0.5-0.9,0.7C60.8,202.6,62,203.3,62.7,202.2z"/>
	<path class="st1" d="M79.7,77.7c0.5-0.6-0.3-1.5-1-1.5c-0.7,0.4-0.4,0.9-0.4,1.5C78.8,77.5,79.2,78.1,79.7,77.7z"/>
	<path class="st1" d="M78.7,141.6c-0.4-0.3-0.9-0.1-1.4-0.1c-0.1,0.7,0.1,1.3,1,1.5C79,142.6,79.2,142.2,78.7,141.6z"/>
	<path class="st1" d="M137.1,33.4c-1-1.1-2.2-1.2-3.3-1.7c-0.2,0.3-0.6,0.6-0.5,1C134.6,32.8,135.9,33.5,137.1,33.4z"/>
	<path class="st1" d="M65.6,197.4c-0.4-0.4-0.8-0.5-1.2-0.8C62.1,197.8,65.7,199.6,65.6,197.4z"/>
	<path class="st1" d="M52.5,170.7c-0.2-0.6-0.6-1.2-1-1.8c-1.3,0.3-2.1,1.7-0.8,2.9C51.5,171.8,52.3,171.4,52.5,170.7z"/>
	<path class="st1" d="M54.4,163.5c0.9-0.5,0.9-1,1-1.6C53.4,158.9,51.5,163.3,54.4,163.5z"/>
	<path class="st1" d="M144,33.4c1.1,1,2.2,1.9,3.4,2.2c-0.2-0.5,1.1-0.7,0.5-1.3C146.6,33.7,145.3,32.2,144,33.4z"/>
	<path class="st1" d="M49.4,169.2c-0.5-1.1-1.6-2.2-2.6-3.4C45.4,166.9,47.5,170.8,49.4,169.2z"/>
	<path class="st1" d="M20.3,167.6c-0.3-0.3-0.6-0.7-0.9-1C17,166.7,19.6,169.9,20.3,167.6z"/>
	<path class="st1" d="M106.5,85c-0.3,0.3-0.7,0.5-0.9,0.7c0,1.3,1.9,1.7,2.1,0.3C107.3,85.7,107,85.1,106.5,85z"/>
	<path class="st1" d="M99.3,77.6c-1.4,0.7-0.9,1.8,0.2,2.1c0.3-0.3,0.6-0.5,0.9-0.7C100.2,78.2,99.9,78.2,99.3,77.6z"/>
	<path class="st1" d="M58.4,100.4c1.4,1.6,1.1,3.4-0.1,5.2c1.6-0.2,2.1-1.1,3-2.4c-0.7-4-5.7-5.1-5.5-8.5c-0.5-0.1-1.1-0.2-1.7,0.5
		c0.2,0.6,0.5,1,1.1,1.4c-0.5,0.4-0.1,1-0.7,1.4c-0.4-0.2-0.8-0.9-1.2-0.5C54.1,99.4,57,98.8,58.4,100.4z"/>
	<path class="st1" d="M60.5,89.9c-0.7,0.2-2.2-0.5-2.5,0.2c1.2,0.4,2.4,0.4,3.6,1.5c-1.2,1.3-2.2-0.2-3.4,0.4c0.6,0.3,1.2,1,1.7,1.8
		c-0.4,0.3-0.8,0.7-1.3,1c1.6,1.5,3.5,3.1,3.5,4.9c1.4-0.1,2.7,0.4,4.1-0.4c-0.5-0.7-0.9-2.1-1.7-2.4c0.5,0.8,0.2,2.8-1.2,2.4
		c-0.4-1,0.3-2.1-1.2-2.4c0-0.6-0.1-1.2,0.7-1.7c0.3,0.5-0.3,0.8,0.2,1.3c2.2,0.4,4.3,1,6.5,0.3c-1.5-1.9-3.1-2.7-4.7-2.5
		c0.1-0.3,0-0.6-0.3-0.9c-0.8,0.3-1.6,0.4-2.3,0.4c-0.2-0.5,0.5-0.8,0.5-1.3c-1.9-2.2-1.9-4.1-2.7-6.1c1.5,0.8,3.1-0.2,4.7,0.9
		c0.5,1,0,1.8,0.8,2.8c0.6-0.2,0.9-1.1,1.1-0.9c0.4,0.4,0.9,0.6,1.3,1.3c0.8,0.1,0.2-1.1,0.8-1.5c-3.6,0-0.8-2.7-2.5-5.2
		c-0.6-0.9-1.2-0.6-2-1.8c3.3-0.5,4.8-3.5,2.6-5.7c-0.6-0.5-1.2-0.8-1.9-0.9c-1.3,1.4-2.6,2.8-3.9,4.2c0.7,0.7,1.5,1.4,2.2,2
		c-1.6,0-3.2,0.3-4.8,0.8c-0.5,0.5-0.9,1-1.3,1.6c0.3,0,0.7,0.1,1,0.2C58.2,85.8,59.4,87.8,60.5,89.9z"/>
	<path class="st1" d="M120.1,68.5c0.5-0.4,1.2-0.8,1-1.3c-0.5-0.1-0.9-0.5-1.3-1c-0.7,1-1.4,2.1-1.4,3.3c1.4-0.1,2.3,1.2,3.2,2.6
		c0.6-0.2,1.1-0.3,1.7-0.8C123.1,70.1,121.1,69,120.1,68.5z"/>
	<path class="st1" d="M22.3,146.9c-0.9-0.6-1.8-1.1-2.7-0.7c0,0.4,0.2,0.9,0.4,1.4C20.7,147.8,21.5,147.1,22.3,146.9z"/>
	<path class="st1" d="M133.8,68.5c0.4-0.3,0.7-0.1,1.1-0.6c-0.2-0.4,0-0.8-0.5-1.3c-0.4-0.1-0.9,0.4-1.3,0.7
		C133.4,67.7,133.2,68.1,133.8,68.5z"/>
	<path class="st1" d="M137.9,71.5c-0.4-0.4-0.8,0.1-1.2,0.4c0.2,0.2,0.4,0.4,0.6,0.7C137.7,72.7,138.5,72,137.9,71.5z"/>
	<path class="st1" d="M35.3,195.4c0,1.3,1.9,1.6,2.1,0.3C36.7,194.7,36,194.6,35.3,195.4z"/>
	<path class="st1" d="M30.6,153.2c-0.3-1.4,1-2.5-0.2-4.1C28.9,149.8,27.9,153,30.6,153.2z"/>
	<path class="st1" d="M43.5,112.1c1.4-0.7,2.8-0.4,4.3-1.1c-0.5-0.7,0.1-1.2-0.5-1.9c-1.1,0.3-2.1-0.1-3.2-0.1
		C43.4,110,43.4,111,43.5,112.1z"/>
	<path class="st1" d="M27.7,144.9c-2.6,1.5,2.1,2.6,0.4,0.2C28,145.2,27.9,145.2,27.7,144.9z"/>
	<path class="st1" d="M146.8,59.3c-0.3-0.3-0.7,0-1.1-0.3c-0.6,0.7-0.2,1.6,0.7,1.8C147.1,60.4,147.3,59.9,146.8,59.3z"/>
	<path class="st1" d="M125.5,81.3c0.6,0.8,5,3.9,5.9,4.2c2.4,0.8,4.6-1.2,6.7-3c0.5-0.6,0-1.9,0-1.9c0.6-2.7-1.2-6.9-4.7-8.5
		c0.6-0.4,0.6-0.9,0.1-1.5c-0.9-0.3-1.3,0.6-1.3,1.3c-1.3-0.7-2.7-0.7-4-0.9C124.5,73.2,123,78.2,125.5,81.3z"/>
	<path class="st1" d="M58.4,103.2c-0.3-0.3-0.6-0.7-0.9-1c-0.6-0.1-1.2,0.7-1.4,1.1C56.4,105,58.4,104.5,58.4,103.2z"/>
	<path class="st1" d="M28.8,181c0.3-0.2,0.5-0.4,0.8-0.6c0-0.7-0.4-1.2-1.2-1.4c-0.3,0.2-0.5,0.4-0.8,0.6
		C27.8,180.4,28.1,180.7,28.8,181z"/>
	<path class="st1" d="M30.2,158.7c-0.3-0.6-0.7-0.5-1-0.9c-0.3,0.2-0.5,0.4-0.8,0.6c0,0.4,0.3,0.8,0.7,1.2
		C29.5,159.6,30.2,159.1,30.2,158.7z"/>
	<path class="st1" d="M132.5,68.3c-0.4-0.5-0.8-1.2-1.4-0.7c-0.4,0.4,0.3,1.1,0.7,1.2C132.1,68.6,132.3,68.4,132.5,68.3z"/>
	<path class="st1" d="M99.1,85.8c-0.2,0.9,1.1,2,1.9,1c0-0.5-0.2-1-0.8-1.6C99.8,85.7,99.4,85.3,99.1,85.8z"/>
	<path class="st1" d="M191.8,49.9c-0.4-0.4-0.7-1-1.2-1.1c-0.3,0.3-0.7,0.5-0.9,0.7C189.7,50.9,191.6,51.2,191.8,49.9z"/>
	<path class="st1" d="M86.9,73.1c0.3,2.7,3.9,1.6,2-0.4C88.3,72.3,87.6,72.6,86.9,73.1z"/>
	<path class="st1" d="M91.3,82.5c1.1-0.6,1.5-2,2.5-3.3c0.3,0.4,0.7,0.8,1,1.2c0.9-1.9-2.9-3.1-3.4-4.7c-1.8,0.2-3.7-1.1-5.2,0.7
		C84.2,78.6,87.9,84.3,91.3,82.5z"/>
	<path class="st1" d="M160.7,35.6c0.1,1.5,2.2,1.5,2,0.1c-0.2-0.3-0.5-0.6-0.7-0.9C161.6,34.8,161.2,35.3,160.7,35.6z"/>
	<path class="st1" d="M27.3,128c-0.3,0.5-0.5,1-0.8,1.5c0.3,0.1,0.5,0.1,0.8,0.1C27.3,129.1,27.3,128.5,27.3,128z"/>
	<path class="st1" d="M82.2,58.6c-0.2,0.2-0.4,0.3-0.5,0.5C82,59,82.3,58.9,82.2,58.6z"/>
	<path class="st1" d="M28.3,127.9c-0.2-0.2-0.4-0.5-0.5-0.9c-0.1,0.1-0.1,0.2-0.2,0.4C28,127.9,28.4,128.5,28.3,127.9z"/>
	<path class="st1" d="M64.4,148.3c0.2-0.7-0.1-1.1-0.8-1.6C61.7,147.3,63.2,149.5,64.4,148.3z"/>
	<path class="st1" d="M43.4,103.3c-0.2-0.3-0.5-0.6-0.7-0.7c-0.2,0.3-0.4,0.6-0.6,0.9c0,0.1,0.1,0.2,0.2,0.4
		C42.7,103.9,43.1,103.6,43.4,103.3z"/>
	<path class="st1" d="M36.4,112.2c-0.6,1-1.2,2-1.8,3c0.1,0,0.3,0,0.4,0C36.8,114.5,37,113.3,36.4,112.2z"/>
	<path class="st1" d="M193,46.6c0.4,0.7,1.6,1,1.5,1.4c-0.5,0.4-1,0.8-1.6,1.2c3.2-0.2,1.8,2.7,2.2,4.8c-0.9,0.5-3.2-0.6-3.1,0.4
		c3.9,2.4,5.6,0.8,4.6-3c0.6-0.3,1.1,0.2,1.7-0.2c0.2-1.2,0-2.4-0.1-3.6C196.5,47.1,194.8,46,193,46.6z"/>
	<path class="st1" d="M144.5,24.5c1.8,1.8,3.3-0.9,2.3-2.4C145.3,21.9,144.8,23.7,144.5,24.5z"/>
	<path class="st1" d="M89.6,67.8c0.7,1,1.3,1.3,2.1,0.6c-0.1-0.2-0.1-0.4,0-0.6C91.1,66.7,90,66.9,89.6,67.8z"/>
	<path class="st1" d="M97.3,80c0.5,0.9,0.8,1.7,1.7,2.4C101,81.3,98.7,78.8,97.3,80z"/>
	<path class="st1" d="M147.7,55.6c0,0.3,0.2,0.6,0.6,1c0.4,0,1.2-0.5,0.8-0.9C148.6,55.7,148.2,55,147.7,55.6z"/>
	<path class="st1" d="M44.6,168.7c0.4-0.6,0.4-1.2,0.5-1.8c-0.4,0.3-0.8,0.7-1.3,1C44.1,168.1,44.4,168.4,44.6,168.7z"/>
	<path class="st1" d="M67.2,147c0.8-1.8-1.4-3.9-3.2-2.9c0.6,0.9,1.2,0.7,1.7,1.5c-0.1,0.5-1.2,0.9-0.8,1.5
		C65.7,147.1,66.4,147.8,67.2,147z"/>
	<path class="st1" d="M149.7,28.3c-0.6,1.1,1.1,2.8,2.2,1.4C152,28.6,150.6,27.5,149.7,28.3z"/>
	<path class="st1" d="M85.5,80.8c-0.3,0.3-0.6,0.5-0.9,0.7c0,1.3,1.9,1.7,2.1,0.3C86.3,81.4,85.9,80.9,85.5,80.8z"/>
	<path class="st1" d="M85.9,67.8c1.9,3.2,4.2,3.2,5.9,3.9c0.3,0.6-0.6,1.1-0.1,1.8c0.7-0.8,0.5-1.6,1.2-2.4c0.6,0.2,1.2,0.3,1.8,0.9
		c0.2,0.6-0.4,1,0.4,1.7c0.3,0,0.6,0.1,0.9,0.1c0.9-0.4,0-1.1,0.8-1.5c-1.4-1.9-2.9-2.1-4.4-2.8c0.1,0.4-0.1,0.7-0.5,1
		c-1.4,0.3-2.7-1.6-4-3.2C87.2,67.4,86.6,67.2,85.9,67.8z"/>
</g>
</svg>
