<svg width="135" height="143" viewBox="0 0 135 143" fill="none" xmlns="http://www.w3.org/2000/svg">
<g opacity="0.15">
<path d="M79.7562 0.110194C79.7443 0.110194 79.7349 0.100707 79.7349 0.0888493C79.7349 0.0769913 79.7443 0.0675049 79.7562 0.0675049C79.7681 0.0675049 79.7776 0.0769913 79.7776 0.0888493C79.7776 0.100707 79.7681 0.110194 79.7562 0.110194Z" fill="#F4A61D"/>
<path d="M71.8782 0.153583C71.8409 0.153583 71.813 0.123314 71.813 0.088388C71.813 0.0511339 71.8433 0.0231934 71.8782 0.0231934C71.9154 0.0231934 71.9434 0.0534623 71.9434 0.088388C71.9434 0.123314 71.9131 0.153583 71.8782 0.153583Z" fill="#F4A61D"/>
<path d="M63.9977 0.174756C63.9488 0.174756 63.9092 0.135144 63.9092 0.0862127C63.9092 0.0372812 63.9488 0 63.9977 0C64.0467 0 64.0839 0.0396113 64.0839 0.0862127C64.0839 0.135144 64.0467 0.174756 63.9977 0.174756Z" fill="#F4A61D"/>
<path d="M56.1178 0.174756C56.0689 0.174756 56.0293 0.135144 56.0293 0.0862127C56.0293 0.0372812 56.0689 0 56.1178 0C56.1668 0 56.2041 0.0396113 56.2041 0.0862127C56.2064 0.135144 56.1668 0.174756 56.1178 0.174756Z" fill="#F4A61D"/>
<path d="M48.2401 0.110194C48.2282 0.110194 48.2188 0.100707 48.2188 0.0888493C48.2188 0.0769913 48.2282 0.0675049 48.2401 0.0675049C48.252 0.0675049 48.2614 0.0769913 48.2614 0.0888493C48.2614 0.100707 48.252 0.110194 48.2401 0.110194Z" fill="#F4A61D"/>
<path d="M95.5172 8.07376C95.4566 8.07376 95.4077 8.02483 95.4077 7.96425C95.4077 7.90367 95.4566 7.85474 95.5172 7.85474C95.5778 7.85474 95.6267 7.90367 95.6267 7.96425C95.6244 8.02483 95.5755 8.07376 95.5172 8.07376Z" fill="#F4A61D"/>
<path d="M87.6361 8.33691C87.4311 8.33691 87.2656 8.17148 87.2656 7.96643C87.2656 7.76138 87.4311 7.59595 87.6361 7.59595C87.8412 7.59595 88.0066 7.76138 88.0066 7.96643C88.0066 8.17148 87.8412 8.33691 87.6361 8.33691Z" fill="#F4A61D"/>
<path d="M79.7563 8.62127C79.3952 8.62127 79.1016 8.32768 79.1016 7.96652C79.1016 7.60536 79.3952 7.31177 79.7563 7.31177C80.1175 7.31177 80.4111 7.60536 80.4111 7.96652C80.4134 8.32768 80.1198 8.62127 79.7563 8.62127Z" fill="#F4A61D"/>
<path d="M71.8783 8.7961C71.4193 8.7961 71.0488 8.42329 71.0488 7.96659C71.0488 7.50757 71.4216 7.13708 71.8783 7.13708C72.3374 7.13708 72.7078 7.5099 72.7078 7.96659C72.7078 8.42329 72.335 8.7961 71.8783 8.7961Z" fill="#F4A61D"/>
<path d="M63.9978 8.8614C63.5038 8.8614 63.103 8.46062 63.103 7.96665C63.103 7.47267 63.5038 7.0719 63.9978 7.0719C64.4918 7.0719 64.8925 7.47267 64.8925 7.96665C64.8925 8.46062 64.4918 8.8614 63.9978 8.8614Z" fill="#F4A61D"/>
<path d="M56.1179 8.81719C55.6473 8.81719 55.2651 8.43505 55.2651 7.96438C55.2651 7.4937 55.6473 7.11157 56.1179 7.11157C56.5886 7.11157 56.9708 7.4937 56.9708 7.96438C56.9708 8.43738 56.5886 8.81719 56.1179 8.81719Z" fill="#F4A61D"/>
<path d="M48.2396 8.6415C47.8644 8.6415 47.5615 8.33859 47.5615 7.96345C47.5615 7.59064 47.8644 7.2854 48.2396 7.2854C48.6147 7.2854 48.9176 7.58831 48.9176 7.96345C48.9153 8.33859 48.6124 8.6415 48.2396 8.6415Z" fill="#F4A61D"/>
<path d="M40.3596 8.38102C40.1312 8.38102 39.9448 8.19461 39.9448 7.96627C39.9448 7.73792 40.1312 7.55151 40.3596 7.55151C40.5879 7.55151 40.7743 7.73792 40.7743 7.96627C40.7743 8.19461 40.5879 8.38102 40.3596 8.38102Z" fill="#F4A61D"/>
<path d="M32.4791 8.09715C32.4069 8.09715 32.3486 8.0389 32.3486 7.96667C32.3486 7.89443 32.4069 7.83618 32.4791 7.83618C32.5513 7.83618 32.6096 7.89443 32.6096 7.96667C32.6119 8.0389 32.5513 8.09715 32.4791 8.09715Z" fill="#F4A61D"/>
<path d="M111.275 15.8663C111.263 15.8663 111.254 15.8568 111.254 15.845C111.254 15.8331 111.263 15.8236 111.275 15.8236C111.287 15.8236 111.297 15.8331 111.297 15.845C111.297 15.8568 111.287 15.8663 111.275 15.8663Z" fill="#F4A61D"/>
<path d="M103.395 16.1705C103.214 16.1705 103.067 16.0237 103.067 15.842C103.067 15.6602 103.214 15.5134 103.395 15.5134C103.577 15.5134 103.724 15.6602 103.724 15.842C103.724 16.0237 103.577 16.1705 103.395 16.1705Z" fill="#F4A61D"/>
<path d="M95.5165 16.6743C95.0575 16.6743 94.687 16.3015 94.687 15.8448C94.687 15.3857 95.0598 15.0153 95.5165 15.0153C95.9755 15.0153 96.346 15.3881 96.346 15.8448C96.346 16.3015 95.9732 16.6743 95.5165 16.6743Z" fill="#F4A61D"/>
<path d="M87.6357 17.0889C86.9484 17.0889 86.3892 16.532 86.3892 15.8446C86.3892 15.1572 86.946 14.6003 87.6357 14.6003C88.3231 14.6003 88.88 15.1572 88.88 15.8446C88.88 16.532 88.3231 17.0889 87.6357 17.0889Z" fill="#F4A61D"/>
<path d="M79.7559 17.4173C78.8868 17.4173 78.1831 16.7136 78.1831 15.8445C78.1831 14.9754 78.8868 14.2717 79.7559 14.2717C80.625 14.2717 81.3287 14.9754 81.3287 15.8445C81.3287 16.7113 80.625 17.4173 79.7559 17.4173Z" fill="#F4A61D"/>
<path d="M71.8788 17.6132C70.9025 17.6132 70.1079 16.821 70.1079 15.8447C70.1079 14.8684 70.9001 14.0762 71.8788 14.0762C72.8551 14.0762 73.6496 14.8684 73.6496 15.8447C73.6473 16.821 72.8551 17.6132 71.8788 17.6132Z" fill="#F4A61D"/>
<path d="M63.9977 17.6784C62.9841 17.6784 62.1616 16.8559 62.1616 15.8423C62.1616 14.8287 62.9841 14.0062 63.9977 14.0062C65.0113 14.0062 65.8338 14.8287 65.8338 15.8423C65.8338 16.8582 65.0113 17.6784 63.9977 17.6784Z" fill="#F4A61D"/>
<path d="M56.1175 17.6132C55.1412 17.6132 54.3467 16.821 54.3467 15.8447C54.3467 14.8684 55.1389 14.0762 56.1175 14.0762C57.0938 14.0762 57.8884 14.8684 57.8884 15.8447C57.8884 16.821 57.0962 17.6132 56.1175 17.6132Z" fill="#F4A61D"/>
<path d="M48.2397 17.438C47.3589 17.438 46.6436 16.725 46.6436 15.8443C46.6436 14.9635 47.3566 14.2505 48.2397 14.2505C49.1228 14.2505 49.8358 14.9635 49.8358 15.8443C49.8334 16.725 49.1204 17.438 48.2397 17.438Z" fill="#F4A61D"/>
<path d="M40.3594 17.1097C39.6603 17.1097 39.0918 16.5435 39.0918 15.8421C39.0918 15.1431 39.658 14.5746 40.3594 14.5746C41.0584 14.5746 41.6269 15.1408 41.6269 15.8421C41.6269 16.5435 41.0584 17.1097 40.3594 17.1097Z" fill="#F4A61D"/>
<path d="M32.4788 16.7179C31.9964 16.7179 31.605 16.3264 31.605 15.8441C31.605 15.3618 31.9964 14.9703 32.4788 14.9703C32.9611 14.9703 33.3525 15.3618 33.3525 15.8441C33.3525 16.3264 32.9611 16.7179 32.4788 16.7179Z" fill="#F4A61D"/>
<path d="M24.601 16.215C24.3959 16.215 24.2305 16.0495 24.2305 15.8445C24.2305 15.6394 24.3959 15.474 24.601 15.474C24.806 15.474 24.9714 15.6394 24.9714 15.8445C24.9714 16.0495 24.806 16.215 24.601 16.215Z" fill="#F4A61D"/>
<path d="M16.7212 15.8877C16.6975 15.8877 16.6763 15.8688 16.6763 15.8428C16.6763 15.8191 16.6952 15.7979 16.7212 15.7979C16.7472 15.7979 16.7661 15.8168 16.7661 15.8428C16.7661 15.8688 16.7448 15.8877 16.7212 15.8877Z" fill="#F4A61D"/>
<path d="M119.156 23.7441C119.144 23.7441 119.135 23.7346 119.135 23.7228C119.135 23.7109 119.144 23.7014 119.156 23.7014C119.168 23.7014 119.177 23.7109 119.177 23.7228C119.177 23.7346 119.168 23.7441 119.156 23.7441Z" fill="#F4A61D"/>
<path d="M111.275 24.1582C111.033 24.1582 110.837 23.9625 110.837 23.7201C110.837 23.4778 111.033 23.2844 111.275 23.2844C111.518 23.2844 111.714 23.4802 111.714 23.7201C111.711 23.9625 111.518 24.1582 111.275 24.1582Z" fill="#F4A61D"/>
<path d="M103.395 24.7709C102.815 24.7709 102.346 24.3025 102.346 23.7224C102.346 23.1422 102.815 22.6738 103.395 22.6738C103.975 22.6738 104.443 23.1445 104.443 23.7224C104.443 24.3002 103.975 24.7709 103.395 24.7709Z" fill="#F4A61D"/>
<path d="M95.5165 25.3395C96.4096 25.3395 97.1336 24.6155 97.1336 23.7224C97.1336 22.8293 96.4096 22.1053 95.5165 22.1053C94.6234 22.1053 93.8994 22.8293 93.8994 23.7224C93.8994 24.6155 94.6234 25.3395 95.5165 25.3395Z" fill="#F4A61D"/>
<path d="M87.6366 25.8196C86.4786 25.8196 85.5396 24.8806 85.5396 23.7226C85.5396 22.5645 86.4786 21.6255 87.6366 21.6255C88.7947 21.6255 89.7337 22.5645 89.7337 23.7226C89.7337 24.8806 88.7947 25.8196 87.6366 25.8196Z" fill="#F4A61D"/>
<path d="M79.756 26.19C78.3929 26.19 77.2861 25.0855 77.2861 23.7224C77.2861 22.3593 78.3906 21.2549 79.756 21.2549C81.1191 21.2549 82.2259 22.3593 82.2259 23.7224C82.2259 25.0855 81.1191 26.19 79.756 26.19Z" fill="#F4A61D"/>
<path d="M71.8785 26.4088C70.3942 26.4088 69.1919 25.2065 69.1919 23.7222C69.1919 22.238 70.3942 21.0356 71.8785 21.0356C73.3627 21.0356 74.565 22.238 74.565 23.7222C74.565 25.2065 73.3627 26.4088 71.8785 26.4088Z" fill="#F4A61D"/>
<path d="M63.9978 26.4976C65.5304 26.4976 66.7729 25.2552 66.7729 23.7225C66.7729 22.1898 65.5304 20.9474 63.9978 20.9474C62.4651 20.9474 61.2227 22.1898 61.2227 23.7225C61.2227 25.2552 62.4651 26.4976 63.9978 26.4976Z" fill="#F4A61D"/>
<path d="M58.8289 23.7312C58.8337 22.2346 57.6244 21.0174 56.1278 21.0126C54.6311 21.0078 53.414 22.2171 53.4091 23.7137C53.4043 25.2103 54.6136 26.4275 56.1103 26.4323C57.6069 26.4372 58.8241 25.2278 58.8289 23.7312Z" fill="#F4A61D"/>
<path d="M48.2394 26.2135C49.615 26.2135 50.7302 25.0983 50.7302 23.7227C50.7302 22.347 49.615 21.2318 48.2394 21.2318C46.8637 21.2318 45.7485 22.347 45.7485 23.7227C45.7485 25.0983 46.8637 26.2135 48.2394 26.2135Z" fill="#F4A61D"/>
<path d="M40.3591 25.8641C39.1754 25.8641 38.2178 24.9064 38.2178 23.7228C38.2178 22.5414 39.1754 21.5814 40.3591 21.5814C41.5428 21.5814 42.5004 22.5391 42.5004 23.7228C42.5004 24.9041 41.5405 25.8641 40.3591 25.8641Z" fill="#F4A61D"/>
<path d="M32.4787 25.3816C31.5607 25.3816 30.8174 24.6384 30.8174 23.7203C30.8174 22.8046 31.5607 22.059 32.4787 22.059C33.3968 22.059 34.1401 22.8023 34.1401 23.7203C34.1401 24.6384 33.3968 25.3816 32.4787 25.3816Z" fill="#F4A61D"/>
<path d="M24.6011 24.8363C23.9859 24.8363 23.4873 24.3377 23.4873 23.7225C23.4873 23.1074 23.9859 22.6088 24.6011 22.6088C25.2162 22.6088 25.7149 23.1074 25.7149 23.7225C25.7149 24.3377 25.2162 24.8363 24.6011 24.8363Z" fill="#F4A61D"/>
<path d="M16.7212 24.2027C16.4556 24.2027 16.2412 23.9883 16.2412 23.7227C16.2412 23.457 16.4556 23.2427 16.7212 23.2427C16.9868 23.2427 17.2012 23.457 17.2012 23.7227C17.2012 23.9883 16.9868 24.2027 16.7212 24.2027Z" fill="#F4A61D"/>
<path d="M8.8408 23.7679C8.81717 23.7679 8.7959 23.749 8.7959 23.723C8.7959 23.6994 8.81481 23.6781 8.8408 23.6781C8.86444 23.6781 8.88571 23.697 8.88571 23.723C8.88571 23.7466 8.8668 23.7679 8.8408 23.7679Z" fill="#F4A61D"/>
<path d="M119.155 31.9291C118.973 31.9291 118.827 31.7823 118.827 31.6005C118.827 31.4188 118.973 31.272 119.155 31.272C119.337 31.272 119.484 31.4188 119.484 31.6005C119.481 31.7823 119.335 31.9291 119.155 31.9291Z" fill="#F4A61D"/>
<path d="M111.275 32.6491C110.694 32.6491 110.226 32.1807 110.226 31.6005C110.226 31.0203 110.694 30.552 111.275 30.552C111.855 30.552 112.323 31.0227 112.323 31.6005C112.323 32.1784 111.852 32.6491 111.275 32.6491Z" fill="#F4A61D"/>
<path d="M103.395 33.3481C102.43 33.3481 101.647 32.5652 101.647 31.6006C101.647 30.6359 102.43 29.853 103.395 29.853C104.359 29.853 105.142 30.6359 105.142 31.6006C105.142 32.5652 104.362 33.3481 103.395 33.3481Z" fill="#F4A61D"/>
<path d="M95.5166 33.9815C94.2001 33.9815 93.1353 32.9144 93.1353 31.6002C93.1353 30.286 94.2024 29.2189 95.5166 29.2189C96.8331 29.2189 97.8979 30.286 97.8979 31.6002C97.8979 32.9144 96.8308 33.9815 95.5166 33.9815Z" fill="#F4A61D"/>
<path d="M87.6364 34.527C86.0193 34.527 84.7075 33.2151 84.7075 31.6004C84.7075 29.9833 86.0193 28.6738 87.6364 28.6738C89.2535 28.6738 90.5653 29.9833 90.5653 31.6004C90.5653 33.2175 89.2535 34.527 87.6364 34.527Z" fill="#F4A61D"/>
<path d="M79.7567 34.9416C81.6034 34.9416 83.1004 33.4456 83.1004 31.6002C83.1004 29.7549 81.6034 28.2589 79.7567 28.2589C77.9101 28.2589 76.4131 29.7549 76.4131 31.6002C76.4131 33.4456 77.9101 34.9416 79.7567 34.9416Z" fill="#F4A61D"/>
<path d="M71.8781 35.205C69.8858 35.205 68.2734 33.5902 68.2734 31.6004C68.2734 29.6105 69.8882 27.9957 71.8781 27.9957C73.8679 27.9957 75.4827 29.6105 75.4827 31.6004C75.4827 33.5902 73.8679 35.205 71.8781 35.205Z" fill="#F4A61D"/>
<path d="M63.9973 35.3148C61.9469 35.3148 60.2832 33.6511 60.2832 31.6006C60.2832 29.5501 61.9469 27.8865 63.9973 27.8865C66.0478 27.8865 67.7115 29.5501 67.7115 31.6006C67.7115 33.6511 66.0478 35.3148 63.9973 35.3148Z" fill="#F4A61D"/>
<path d="M56.1177 35.2262C54.1138 35.2262 52.4897 33.6021 52.4897 31.6006C52.4897 29.5967 54.1138 27.975 56.1177 27.975C58.1215 27.975 59.7456 29.599 59.7456 31.6006C59.7456 33.6021 58.1215 35.2262 56.1177 35.2262Z" fill="#F4A61D"/>
<path d="M48.2396 34.965C46.3802 34.965 44.875 33.4597 44.875 31.6003C44.875 29.7433 46.3826 28.2357 48.2396 28.2357C50.099 28.2357 51.6043 29.7409 51.6043 31.6003C51.6043 33.4574 50.0967 34.965 48.2396 34.965Z" fill="#F4A61D"/>
<path d="M43.3105 31.6171C43.3202 29.9879 42.0074 28.6593 40.3783 28.6495C38.7491 28.6398 37.4205 29.9526 37.4107 31.5817C37.401 33.2109 38.7138 34.5395 40.3429 34.5493C41.9721 34.559 43.3007 33.2462 43.3105 31.6171Z" fill="#F4A61D"/>
<path d="M32.4984 34.0272C33.8381 34.0169 34.9157 32.9226 34.9054 31.583C34.8952 30.2434 33.8009 29.1657 32.4613 29.176C31.1216 29.1863 30.044 30.2806 30.0542 31.6202C30.0645 32.9598 31.1588 34.0375 32.4984 34.0272Z" fill="#F4A61D"/>
<path d="M24.6014 33.4133C23.5994 33.4133 22.7886 32.6024 22.7886 31.6005C22.7886 30.5986 23.5994 29.7877 24.6014 29.7877C25.6033 29.7877 26.4142 30.5986 26.4142 31.6005C26.4142 32.6024 25.601 33.4133 24.6014 33.4133Z" fill="#F4A61D"/>
<path d="M16.7207 32.7142C16.1056 32.7142 15.6069 32.2156 15.6069 31.6005C15.6069 30.9853 16.1056 30.4867 16.7207 30.4867C17.3358 30.4867 17.8345 30.9853 17.8345 31.6005C17.8345 32.2156 17.3358 32.7142 16.7207 32.7142Z" fill="#F4A61D"/>
<path d="M8.84007 31.9941C8.62337 31.9941 8.44629 31.817 8.44629 31.6003C8.44629 31.3836 8.62337 31.2065 8.84007 31.2065C9.05677 31.2065 9.23385 31.3836 9.23385 31.6003C9.23385 31.817 9.0591 31.9941 8.84007 31.9941Z" fill="#F4A61D"/>
<path d="M127.033 39.588C126.973 39.588 126.924 39.5391 126.924 39.4785C126.924 39.4179 126.973 39.369 127.033 39.369C127.094 39.369 127.143 39.4179 127.143 39.4785C127.143 39.5391 127.094 39.588 127.033 39.588Z" fill="#F4A61D"/>
<path d="M119.155 40.3079C118.696 40.3079 118.326 39.9351 118.326 39.4784C118.326 39.0194 118.698 38.6489 119.155 38.6489C119.614 38.6489 119.985 39.0217 119.985 39.4784C119.985 39.9375 119.612 40.3079 119.155 40.3079Z" fill="#F4A61D"/>
<path d="M111.275 41.0955C112.168 41.0955 112.892 40.3715 112.892 39.4784C112.892 38.5853 112.168 37.8613 111.275 37.8613C110.382 37.8613 109.658 38.5853 109.658 39.4784C109.658 40.3715 110.382 41.0955 111.275 41.0955Z" fill="#F4A61D"/>
<path d="M103.394 41.8597C102.078 41.8597 101.013 40.7925 101.013 39.4784C101.013 38.1642 102.08 37.097 103.394 37.097C104.711 37.097 105.775 38.1642 105.775 39.4784C105.775 40.7925 104.711 41.8597 103.394 41.8597Z" fill="#F4A61D"/>
<path d="M95.5169 42.5588C93.8159 42.5588 92.4365 41.1794 92.4365 39.4784C92.4365 37.7775 93.8159 36.3981 95.5169 36.3981C97.2178 36.3981 98.5972 37.7775 98.5972 39.4784C98.5972 41.1794 97.2178 42.5588 95.5169 42.5588Z" fill="#F4A61D"/>
<path d="M87.6365 43.1692C89.6762 43.1692 91.3297 41.5167 91.3297 39.4783C91.3297 37.4399 89.6762 35.7875 87.6365 35.7875C85.5968 35.7875 83.9434 37.4399 83.9434 39.4783C83.9434 41.5167 85.5968 43.1692 87.6365 43.1692Z" fill="#F4A61D"/>
<path d="M79.7561 43.6726C77.4401 43.6726 75.562 41.7945 75.562 39.4784C75.562 37.1623 77.4401 35.2843 79.7561 35.2843C82.0722 35.2843 83.9503 37.1623 83.9503 39.4784C83.9526 41.7945 82.0746 43.6726 79.7561 43.6726Z" fill="#F4A61D"/>
<path d="M71.8781 44.001C69.3803 44.001 67.3555 41.9762 67.3555 39.4784C67.3555 36.9805 69.3803 34.9557 71.8781 34.9557C74.376 34.9557 76.4008 36.9805 76.4008 39.4784C76.4008 41.9762 74.376 44.001 71.8781 44.001Z" fill="#F4A61D"/>
<path d="M63.9979 44.1316C61.4278 44.1316 59.3447 42.0485 59.3447 39.4785C59.3447 36.9084 61.4278 34.8253 63.9979 34.8253C66.568 34.8253 68.651 36.9084 68.651 39.4785C68.651 42.0485 66.568 44.1316 63.9979 44.1316Z" fill="#F4A61D"/>
<path d="M56.1179 44.0221C53.6084 44.0221 51.5742 41.9879 51.5742 39.4785C51.5742 36.969 53.6084 34.9348 56.1179 34.9348C58.6274 34.9348 60.6615 36.969 60.6615 39.4785C60.6638 41.9879 58.6297 44.0221 56.1179 44.0221Z" fill="#F4A61D"/>
<path d="M48.2389 43.7169C45.8972 43.7169 44.0005 41.8202 44.0005 39.4785C44.0005 37.1368 45.8972 35.2401 48.2389 35.2401C50.5806 35.2401 52.4773 37.1368 52.4773 39.4785C52.4773 41.8202 50.5783 43.7169 48.2389 43.7169Z" fill="#F4A61D"/>
<path d="M40.359 43.2135C38.2946 43.2135 36.6216 41.5405 36.6216 39.4784C36.6216 37.4163 38.2946 35.7433 40.359 35.7433C42.4235 35.7433 44.0965 37.4163 44.0965 39.4784C44.0941 41.5405 42.4235 43.2135 40.359 43.2135Z" fill="#F4A61D"/>
<path d="M32.4786 42.6242C30.7404 42.6242 29.333 41.2168 29.333 39.4786C29.333 37.7404 30.7427 36.333 32.4786 36.333C34.2145 36.333 35.6242 37.7404 35.6242 39.4786C35.6265 41.2168 34.2168 42.6242 32.4786 42.6242Z" fill="#F4A61D"/>
<path d="M24.6009 41.925C23.2494 41.925 22.1543 40.8299 22.1543 39.4784C22.1543 38.127 23.2494 37.0319 24.6009 37.0319C25.9523 37.0319 27.0475 38.127 27.0475 39.4784C27.0475 40.8299 25.9523 41.925 24.6009 41.925Z" fill="#F4A61D"/>
<path d="M16.7243 41.161C17.6534 41.159 18.405 40.4042 18.4029 39.4751C18.4009 38.546 17.6461 37.7944 16.717 37.7964C15.7879 37.7984 15.0363 38.5532 15.0383 39.4824C15.0403 40.4115 15.7952 41.163 16.7243 41.161Z" fill="#F4A61D"/>
<path d="M8.84044 40.3731C8.34646 40.3731 7.94336 39.9723 7.94336 39.4784C7.94336 38.9844 8.34413 38.5836 8.84044 38.5836C9.33441 38.5836 9.73519 38.9844 9.73519 39.4784C9.73752 39.9723 9.33674 40.3731 8.84044 40.3731Z" fill="#F4A61D"/>
<path d="M0.96189 39.6325C0.878008 39.6325 0.808105 39.5649 0.808105 39.4787C0.808105 39.3949 0.875678 39.325 0.96189 39.325C1.0481 39.325 1.11568 39.3925 1.11568 39.4787C1.11335 39.5626 1.04577 39.6325 0.96189 39.6325Z" fill="#F4A61D"/>
<path d="M127.033 47.7291C126.828 47.7291 126.663 47.5637 126.663 47.3586C126.663 47.1536 126.828 46.9882 127.033 46.9882C127.238 46.9882 127.404 47.1536 127.404 47.3586C127.406 47.5614 127.238 47.7291 127.033 47.7291Z" fill="#F4A61D"/>
<path d="M119.155 48.603C118.468 48.603 117.909 48.0461 117.909 47.3588C117.909 46.6714 118.466 46.1145 119.155 46.1145C119.843 46.1145 120.4 46.6714 120.4 47.3588C120.4 48.0438 119.843 48.603 119.155 48.603Z" fill="#F4A61D"/>
<path d="M111.275 49.4534C110.117 49.4534 109.178 48.5144 109.178 47.3563C109.178 46.1983 110.117 45.2593 111.275 45.2593C112.433 45.2593 113.372 46.1983 113.372 47.3563C113.372 48.5144 112.433 49.4534 111.275 49.4534Z" fill="#F4A61D"/>
<path d="M103.395 50.2832C101.778 50.2832 100.466 48.9714 100.466 47.3566C100.466 45.7419 101.778 44.4301 103.395 44.4301C105.012 44.4301 106.324 45.7396 106.324 47.3566C106.324 48.9737 105.012 50.2832 103.395 50.2832Z" fill="#F4A61D"/>
<path d="M95.5169 51.0473C97.5566 51.0473 99.2101 49.3949 99.2101 47.3565C99.2101 45.3181 97.5566 43.6656 95.5169 43.6656C93.4772 43.6656 91.8237 45.3181 91.8237 47.3565C91.8237 49.3949 93.4772 51.0473 95.5169 51.0473Z" fill="#F4A61D"/>
<path d="M87.6368 51.7698C85.1995 51.7698 83.2236 49.7939 83.2236 47.3566C83.2236 44.9194 85.1995 42.9435 87.6368 42.9435C90.074 42.9435 92.0499 44.9194 92.0499 47.3566C92.0499 49.7939 90.074 51.7698 87.6368 51.7698Z" fill="#F4A61D"/>
<path d="M79.7561 52.3591C76.9926 52.3591 74.7534 50.1199 74.7534 47.3564C74.7534 44.593 76.9926 42.3538 79.7561 42.3538C82.5196 42.3538 84.7588 44.593 84.7588 47.3564C84.7611 50.1199 82.5196 52.3591 79.7561 52.3591Z" fill="#F4A61D"/>
<path d="M77.2527 47.3726C77.2622 44.4051 74.8633 41.9917 71.8945 41.9821C68.9257 41.9725 66.5113 44.3704 66.5017 47.3379C66.4921 50.3054 68.8911 52.7188 71.8599 52.7284C74.8287 52.738 77.2431 50.3401 77.2527 47.3726Z" fill="#F4A61D"/>
<path d="M63.9978 52.8182C60.9804 52.8182 58.5361 50.3739 58.5361 47.3565C58.5361 44.339 60.9827 41.8948 63.9978 41.8948C67.0153 41.8948 69.4595 44.339 69.4595 47.3565C69.4595 50.3739 67.0153 52.8182 63.9978 52.8182Z" fill="#F4A61D"/>
<path d="M56.1176 52.7531C53.1375 52.7531 50.7212 50.3368 50.7212 47.3567C50.7212 44.3765 53.1375 41.9602 56.1176 41.9602C59.0978 41.9602 61.5141 44.3765 61.5141 47.3567C61.5141 50.3368 59.0978 52.7531 56.1176 52.7531Z" fill="#F4A61D"/>
<path d="M48.2403 52.4031C45.4535 52.4031 43.1934 50.1429 43.1934 47.3561C43.1934 44.5694 45.4535 42.3092 48.2403 42.3092C51.0271 42.3092 53.2872 44.5694 53.2872 47.3561C53.2872 50.1429 51.0271 52.4031 48.2403 52.4031Z" fill="#F4A61D"/>
<path d="M40.3593 51.8139C42.8211 51.8139 44.8167 49.8183 44.8167 47.3565C44.8167 44.8947 42.8211 42.899 40.3593 42.899C37.8975 42.899 35.9019 44.8947 35.9019 47.3565C35.9019 49.8183 37.8975 51.8139 40.3593 51.8139Z" fill="#F4A61D"/>
<path d="M32.4969 51.1155C34.5726 51.1057 36.2474 49.4151 36.2376 47.3394C36.2279 45.2637 34.5372 43.5889 32.4615 43.5986C30.3858 43.6084 28.711 45.299 28.7208 47.3747C28.7306 49.4505 30.4212 51.1252 32.4969 51.1155Z" fill="#F4A61D"/>
<path d="M24.6011 50.3503C22.9467 50.3503 21.6069 49.0105 21.6069 47.3585C21.6069 45.7065 22.9467 44.3667 24.6011 44.3667C26.2554 44.3667 27.5952 45.7065 27.5952 47.3585C27.5929 49.0082 26.2531 50.3503 24.6011 50.3503Z" fill="#F4A61D"/>
<path d="M16.7204 49.5186C15.5251 49.5186 14.5581 48.5493 14.5581 47.3563C14.5581 46.161 15.5274 45.194 16.7204 45.194C17.9157 45.194 18.8827 46.1633 18.8827 47.3563C18.8827 48.5516 17.9157 49.5186 16.7204 49.5186Z" fill="#F4A61D"/>
<path d="M8.84015 48.6682C8.1155 48.6682 7.52832 48.081 7.52832 47.3564C7.52832 46.6317 8.1155 46.0446 8.84015 46.0446C9.5648 46.0446 10.152 46.6317 10.152 47.3564C10.152 48.081 9.5648 48.6682 8.84015 48.6682Z" fill="#F4A61D"/>
<path d="M0.961954 47.8154C0.707976 47.8154 0.50293 47.6103 0.50293 47.3564C0.50293 47.1024 0.707976 46.8973 0.961954 46.8973C1.21593 46.8973 1.42098 47.1024 1.42098 47.3564C1.42098 47.6103 1.2136 47.8154 0.961954 47.8154Z" fill="#F4A61D"/>
<path d="M134.914 55.2585C134.902 55.2585 134.893 55.249 134.893 55.2372C134.893 55.2253 134.902 55.2158 134.914 55.2158C134.926 55.2158 134.935 55.2253 134.935 55.2372C134.935 55.249 134.926 55.2585 134.914 55.2585Z" fill="#F4A61D"/>
<path d="M127.034 55.8892C126.672 55.8892 126.379 55.5956 126.379 55.2345C126.379 54.8733 126.672 54.5797 127.034 54.5797C127.395 54.5797 127.688 54.8733 127.688 55.2345C127.691 55.598 127.397 55.8892 127.034 55.8892Z" fill="#F4A61D"/>
<path d="M119.156 56.8071C118.287 56.8071 117.583 56.1034 117.583 55.2343C117.583 54.3652 118.287 53.6615 119.156 53.6615C120.025 53.6615 120.729 54.3652 120.729 55.2343C120.729 56.1034 120.023 56.8071 119.156 56.8071Z" fill="#F4A61D"/>
<path d="M111.275 57.7044C109.911 57.7044 108.805 56.5999 108.805 55.2368C108.805 53.8737 109.909 52.7693 111.275 52.7693C112.638 52.7693 113.744 53.8737 113.744 55.2368C113.744 56.5976 112.638 57.7044 111.275 57.7044Z" fill="#F4A61D"/>
<path d="M106.74 55.2517C106.749 53.4064 105.26 51.9025 103.414 51.8927C101.567 51.8829 100.062 53.3709 100.052 55.2163C100.043 57.0617 101.532 58.5656 103.378 58.5753C105.225 58.5851 106.73 57.0971 106.74 55.2517Z" fill="#F4A61D"/>
<path d="M95.5169 59.4287C93.2008 59.4287 91.3228 57.5506 91.3228 55.2345C91.3228 52.9184 93.2008 51.0404 95.5169 51.0404C97.833 51.0404 99.711 52.9184 99.711 55.2345C99.711 57.5506 97.833 59.4287 95.5169 59.4287Z" fill="#F4A61D"/>
<path d="M87.6365 60.2369C84.873 60.2369 82.6338 57.9977 82.6338 55.2342C82.6338 52.4708 84.873 50.2316 87.6365 50.2316C90.3999 50.2316 92.6391 52.4708 92.6391 55.2342C92.6391 57.9977 90.3999 60.2369 87.6365 60.2369Z" fill="#F4A61D"/>
<path d="M79.7564 60.7614C76.704 60.7614 74.2295 58.2869 74.2295 55.2345C74.2295 52.1821 76.704 49.7075 79.7564 49.7075C82.8088 49.7075 85.2834 52.1821 85.2834 55.2345C85.2857 58.2869 82.8112 60.7614 79.7564 60.7614Z" fill="#F4A61D"/>
<path d="M71.8778 60.8057C68.7998 60.8057 66.3066 58.3126 66.3066 55.2345C66.3066 52.1588 68.8022 49.6633 71.8778 49.6633C74.9559 49.6633 77.4491 52.1565 77.4491 55.2345C77.4491 58.3126 74.9535 60.8057 71.8778 60.8057Z" fill="#F4A61D"/>
<path d="M63.998 60.8057C60.9199 60.8057 58.4268 58.3126 58.4268 55.2345C58.4268 52.1588 60.9223 49.6633 63.998 49.6633C67.076 49.6633 69.5692 52.1565 69.5692 55.2345C69.5692 58.3126 67.076 60.8057 63.998 60.8057Z" fill="#F4A61D"/>
<path d="M56.1171 60.8057C53.0391 60.8057 50.5459 58.3126 50.5459 55.2345C50.5459 52.1588 53.0414 49.6633 56.1171 49.6633C59.1951 49.6633 61.6883 52.1565 61.6883 55.2345C61.6883 58.3126 59.1951 60.8057 56.1171 60.8057Z" fill="#F4A61D"/>
<path d="M48.2392 60.7825C51.3045 60.7825 53.7894 58.2986 53.7894 55.2346C53.7894 52.1705 51.3045 49.6866 48.2392 49.6866C45.1739 49.6866 42.689 52.1705 42.689 55.2346C42.689 58.2986 45.1739 60.7825 48.2392 60.7825Z" fill="#F4A61D"/>
<path d="M40.3593 60.3023C37.5586 60.3023 35.2891 58.0328 35.2891 55.2344C35.2891 52.436 37.5586 50.1665 40.3593 50.1665C43.1577 50.1665 45.4295 52.436 45.4295 55.2344C45.4272 58.0328 43.1577 60.3023 40.3593 60.3023Z" fill="#F4A61D"/>
<path d="M32.4785 59.4935C30.1251 59.4935 28.2168 57.5875 28.2168 55.2341C28.2168 52.8807 30.1251 50.9747 32.4785 50.9747C34.8319 50.9747 36.7402 52.8831 36.7402 55.2341C36.7402 57.5875 34.8319 59.4935 32.4785 59.4935Z" fill="#F4A61D"/>
<path d="M28.0057 55.2711C28.0249 53.3886 26.5144 51.847 24.6319 51.8278C22.7494 51.8086 21.2078 53.3191 21.1886 55.2015C21.1694 57.084 22.6799 58.6257 24.5624 58.6449C26.4449 58.6641 27.9865 57.1536 28.0057 55.2711Z" fill="#F4A61D"/>
<path d="M16.7197 57.7696C18.1198 57.7696 19.2548 56.6346 19.2548 55.2345C19.2548 53.8344 18.1198 52.6993 16.7197 52.6993C15.3196 52.6993 14.1846 53.8344 14.1846 55.2345C14.1846 56.6346 15.3196 57.7696 16.7197 57.7696Z" fill="#F4A61D"/>
<path d="M8.84068 56.8724C7.93661 56.8724 7.20264 56.1384 7.20264 55.2344C7.20264 54.3303 7.93661 53.5963 8.84068 53.5963C9.74475 53.5963 10.4787 54.3303 10.4787 55.2344C10.4811 56.1408 9.74708 56.8724 8.84068 56.8724Z" fill="#F4A61D"/>
<path d="M0.962044 55.9776C0.551951 55.9776 0.21875 55.6444 0.21875 55.2343C0.21875 54.8242 0.551951 54.491 0.962044 54.491C1.37214 54.491 1.70534 54.8242 1.70534 55.2343C1.70301 55.6444 1.37214 55.9776 0.962044 55.9776Z" fill="#F4A61D"/>
<path d="M134.913 63.1775C134.876 63.1775 134.848 63.1472 134.848 63.1123C134.848 63.0774 134.878 63.0471 134.913 63.0471C134.951 63.0471 134.979 63.0774 134.979 63.1123C134.979 63.1496 134.948 63.1775 134.913 63.1775Z" fill="#F4A61D"/>
<path d="M127.034 63.9443C126.575 63.9443 126.204 63.5715 126.204 63.1148C126.204 62.6558 126.577 62.2853 127.034 62.2853C127.49 62.2853 127.863 62.6581 127.863 63.1148C127.865 63.5715 127.493 63.9443 127.034 63.9443Z" fill="#F4A61D"/>
<path d="M119.155 64.8833C118.179 64.8833 117.384 64.0911 117.384 63.1148C117.384 62.1385 118.177 61.3463 119.155 61.3463C120.131 61.3463 120.926 62.1385 120.926 63.1148C120.924 64.0911 120.131 64.8833 119.155 64.8833Z" fill="#F4A61D"/>
<path d="M111.275 65.8015C109.791 65.8015 108.588 64.5992 108.588 63.1149C108.588 61.6307 109.791 60.4283 111.275 60.4283C112.759 60.4283 113.962 61.6307 113.962 63.1149C113.962 64.5968 112.759 65.8015 111.275 65.8015Z" fill="#F4A61D"/>
<path d="M103.395 66.7171C101.402 66.7171 99.79 65.1023 99.79 63.1124C99.79 61.1226 101.405 59.5078 103.395 59.5078C105.385 59.5078 106.999 61.1226 106.999 63.1124C106.999 65.1046 105.387 66.7171 103.395 66.7171Z" fill="#F4A61D"/>
<path d="M95.5158 67.6348C93.018 67.6348 90.9932 65.61 90.9932 63.1121C90.9932 60.6143 93.018 58.5895 95.5158 58.5895C98.0137 58.5895 100.039 60.6143 100.039 63.1121C100.039 65.61 98.0137 67.6348 95.5158 67.6348Z" fill="#F4A61D"/>
<path d="M93.011 63.1298C93.0205 60.1623 90.6216 57.7489 87.6528 57.7394C84.684 57.7298 82.2696 60.1277 82.26 63.0952C82.2504 66.0627 84.6494 68.4761 87.6182 68.4857C90.587 68.4952 93.0014 66.0974 93.011 63.1298Z" fill="#F4A61D"/>
<path d="M79.7558 68.6838C76.6778 68.6838 74.1846 66.1906 74.1846 63.1126C74.1846 60.0369 76.6801 57.5414 79.7558 57.5414C82.8338 57.5414 85.327 60.0346 85.327 63.1126C85.327 66.1906 82.8338 68.6838 79.7558 68.6838Z" fill="#F4A61D"/>
<path d="M71.8778 68.6838C68.7998 68.6838 66.3066 66.1906 66.3066 63.1126C66.3066 60.0369 68.8022 57.5414 71.8778 57.5414C74.9559 57.5414 77.4491 60.0346 77.4491 63.1126C77.4491 66.1906 74.9535 68.6838 71.8778 68.6838Z" fill="#F4A61D"/>
<path d="M63.998 68.6838C60.9199 68.6838 58.4268 66.1906 58.4268 63.1126C58.4268 60.0369 60.9223 57.5414 63.998 57.5414C67.076 57.5414 69.5692 60.0346 69.5692 63.1126C69.5692 66.1906 67.076 68.6838 63.998 68.6838Z" fill="#F4A61D"/>
<path d="M56.1171 68.6838C53.0391 68.6838 50.5459 66.1906 50.5459 63.1126C50.5459 60.0369 53.0414 57.5414 56.1171 57.5414C59.1951 57.5414 61.6883 60.0346 61.6883 63.1126C61.6883 66.1906 59.1951 68.6838 56.1171 68.6838Z" fill="#F4A61D"/>
<path d="M48.2397 68.6838C45.1616 68.6838 42.6685 66.1906 42.6685 63.1126C42.6685 60.0369 45.164 57.5414 48.2397 57.5414C51.3177 57.5414 53.8109 60.0346 53.8109 63.1126C53.8109 66.1906 51.3154 68.6838 48.2397 68.6838Z" fill="#F4A61D"/>
<path d="M40.3592 68.5298C37.3674 68.5298 34.9395 66.1042 34.9395 63.1124C34.9395 60.1205 37.3651 57.6949 40.3592 57.6949C43.351 57.6949 45.779 60.1205 45.779 63.1124C45.779 66.1042 43.351 68.5298 40.3592 68.5298Z" fill="#F4A61D"/>
<path d="M32.4794 67.7235C29.9326 67.7235 27.8682 65.6591 27.8682 63.1146C27.8682 60.5679 29.9326 58.5057 32.4794 58.5057C35.0262 58.5057 37.0906 60.5702 37.0906 63.1146C37.0906 65.6591 35.0262 67.7235 32.4794 67.7235Z" fill="#F4A61D"/>
<path d="M24.6009 66.8033C26.6406 66.8033 28.294 65.1509 28.294 63.1125C28.294 61.0741 26.6406 59.4216 24.6009 59.4216C22.5612 59.4216 20.9077 61.0741 20.9077 63.1125C20.9077 65.1509 22.5612 66.8033 24.6009 66.8033Z" fill="#F4A61D"/>
<path d="M16.7204 65.8874C18.2531 65.8874 19.4955 64.6449 19.4955 63.1123C19.4955 61.5796 18.2531 60.3372 16.7204 60.3372C15.1878 60.3372 13.9453 61.5796 13.9453 63.1123C13.9453 64.6449 15.1878 65.8874 16.7204 65.8874Z" fill="#F4A61D"/>
<path d="M8.84049 64.9484C7.82691 64.9484 7.00439 64.1259 7.00439 63.1123C7.00439 62.0988 7.82691 61.2762 8.84049 61.2762C9.85407 61.2762 10.6766 62.0988 10.6766 63.1123C10.6766 64.1259 9.85407 64.9484 8.84049 64.9484Z" fill="#F4A61D"/>
<path d="M0.961995 64.0302C0.456368 64.0302 0.0439453 63.6202 0.0439453 63.1122C0.0439453 62.6066 0.454038 62.1942 0.961995 62.1942C1.46995 62.1942 1.88004 62.6042 1.88004 63.1122C1.87771 63.6202 1.46762 64.0302 0.961995 64.0302Z" fill="#F4A61D"/>
<path d="M134.914 71.0789C134.865 71.0789 134.825 71.0393 134.825 70.9904C134.825 70.9415 134.865 70.9042 134.914 70.9042C134.963 70.9042 135 70.9438 135 70.9904C135 71.0393 134.963 71.0789 134.914 71.0789Z" fill="#F4A61D"/>
<path d="M127.033 71.8875C126.539 71.8875 126.139 71.4867 126.139 70.9927C126.139 70.4987 126.539 70.098 127.033 70.098C127.527 70.098 127.928 70.4987 127.928 70.9927C127.931 71.4867 127.53 71.8875 127.033 71.8875Z" fill="#F4A61D"/>
<path d="M119.155 72.8265C118.142 72.8265 117.319 72.004 117.319 70.9904C117.319 69.9768 118.142 69.1543 119.155 69.1543C120.169 69.1543 120.992 69.9768 120.992 70.9904C120.989 72.004 120.169 72.8265 119.155 72.8265Z" fill="#F4A61D"/>
<path d="M111.275 73.7655C112.808 73.7655 114.05 72.523 114.05 70.9904C114.05 69.4577 112.808 68.2153 111.275 68.2153C109.742 68.2153 108.5 69.4577 108.5 70.9904C108.5 72.523 109.742 73.7655 111.275 73.7655Z" fill="#F4A61D"/>
<path d="M103.395 74.7048C101.344 74.7048 99.6807 73.0411 99.6807 70.9906C99.6807 68.9402 101.344 67.2765 103.395 67.2765C105.445 67.2765 107.109 68.9402 107.109 70.9906C107.109 73.0411 105.448 74.7048 103.395 74.7048Z" fill="#F4A61D"/>
<path d="M95.5169 75.6434C92.9469 75.6434 90.8638 73.5603 90.8638 70.9903C90.8638 68.4202 92.9469 66.3371 95.5169 66.3371C98.087 66.3371 100.17 68.4202 100.17 70.9903C100.17 73.5603 98.087 75.6434 95.5169 75.6434Z" fill="#F4A61D"/>
<path d="M87.6365 76.4519C84.619 76.4519 82.1748 74.0077 82.1748 70.9903C82.1748 67.9728 84.6214 65.5286 87.6365 65.5286C90.6539 65.5286 93.0982 67.9728 93.0982 70.9903C93.0982 74.0077 90.6539 76.4519 87.6365 76.4519Z" fill="#F4A61D"/>
<path d="M79.7558 76.5617C76.6778 76.5617 74.1846 74.0685 74.1846 70.9905C74.1846 67.9148 76.6801 65.4193 79.7558 65.4193C82.8338 65.4193 85.327 67.9125 85.327 70.9905C85.327 74.0685 82.8338 76.5617 79.7558 76.5617Z" fill="#F4A61D"/>
<path d="M71.8778 76.5617C68.7998 76.5617 66.3066 74.0685 66.3066 70.9905C66.3066 67.9148 68.8022 65.4193 71.8778 65.4193C74.9559 65.4193 77.4491 67.9125 77.4491 70.9905C77.4491 74.0685 74.9535 76.5617 71.8778 76.5617Z" fill="#F4A61D"/>
<path d="M63.998 76.5617C60.9199 76.5617 58.4268 74.0685 58.4268 70.9905C58.4268 67.9148 60.9223 65.4193 63.998 65.4193C67.076 65.4193 69.5692 67.9125 69.5692 70.9905C69.5692 74.0685 67.076 76.5617 63.998 76.5617Z" fill="#F4A61D"/>
<path d="M56.1171 76.5617C53.0391 76.5617 50.5459 74.0685 50.5459 70.9905C50.5459 67.9148 53.0414 65.4193 56.1171 65.4193C59.1951 65.4193 61.6883 67.9125 61.6883 70.9905C61.6883 74.0685 59.1951 76.5617 56.1171 76.5617Z" fill="#F4A61D"/>
<path d="M48.2397 76.5617C45.1616 76.5617 42.6685 74.0685 42.6685 70.9905C42.6685 67.9148 45.164 65.4193 48.2397 65.4193C51.3177 65.4193 53.8109 67.9125 53.8109 70.9905C53.8109 74.0685 51.3154 76.5617 48.2397 76.5617Z" fill="#F4A61D"/>
<path d="M40.3595 76.4964C37.3187 76.4964 34.8535 74.0312 34.8535 70.9905C34.8535 67.9497 37.3187 65.4845 40.3595 65.4845C43.4002 65.4845 45.8654 67.9497 45.8654 70.9905C45.8654 74.0312 43.4002 76.4964 40.3595 76.4964Z" fill="#F4A61D"/>
<path d="M32.479 75.7322C35.0978 75.7322 37.2207 73.6093 37.2207 70.9905C37.2207 68.3718 35.0978 66.2488 32.479 66.2488C29.8602 66.2488 27.7373 68.3718 27.7373 70.9905C27.7373 73.6093 29.8602 75.7322 32.479 75.7322Z" fill="#F4A61D"/>
<path d="M24.601 74.7931C22.5016 74.7931 20.7983 73.0921 20.7983 70.9927C20.7983 68.8933 22.5016 67.1924 24.601 67.1924C26.7004 67.1924 28.4037 68.8933 28.4037 70.9927C28.4014 73.0898 26.7004 74.7931 24.601 74.7931Z" fill="#F4A61D"/>
<path d="M16.7212 73.8538C15.1414 73.8538 13.8599 72.5723 13.8599 70.9925C13.8599 69.4127 15.1414 68.1312 16.7212 68.1312C18.301 68.1312 19.5825 69.4127 19.5825 70.9925C19.5825 72.5723 18.301 73.8538 16.7212 73.8538Z" fill="#F4A61D"/>
<path d="M8.8403 72.8918C7.78944 72.8918 6.93896 72.0414 6.93896 70.9905C6.93896 69.942 7.78944 69.0892 8.8403 69.0892C9.89117 69.0892 10.7416 69.9397 10.7416 70.9905C10.7416 72.0414 9.89117 72.8918 8.8403 72.8918Z" fill="#F4A61D"/>
<path d="M0.962321 71.9526C0.431064 71.9526 0 71.5216 0 70.9903C0 70.4591 0.431064 70.0303 0.962321 70.0303C1.49358 70.0303 1.92464 70.4614 1.92464 70.9903C1.92231 71.5216 1.49125 71.9526 0.962321 71.9526Z" fill="#F4A61D"/>
<path d="M134.914 78.957C134.865 78.957 134.825 78.9174 134.825 78.8684C134.825 78.8195 134.865 78.7822 134.914 78.7822C134.963 78.7822 135 78.8218 135 78.8684C135 78.9174 134.963 78.957 134.914 78.957Z" fill="#F4A61D"/>
<path d="M127.033 79.7212C126.563 79.7212 126.181 79.3391 126.181 78.8684C126.181 78.3978 126.563 78.0156 127.033 78.0156C127.504 78.0156 127.886 78.3978 127.886 78.8684C127.886 79.3391 127.504 79.7212 127.033 79.7212Z" fill="#F4A61D"/>
<path d="M119.155 80.6392C118.179 80.6392 117.384 79.8469 117.384 78.8706C117.384 77.8943 118.177 77.1021 119.155 77.1021C120.131 77.1021 120.926 77.8943 120.926 78.8706C120.924 79.8469 120.131 80.6392 119.155 80.6392Z" fill="#F4A61D"/>
<path d="M111.295 81.5798C112.792 81.5698 113.997 80.3485 113.987 78.8519C113.977 77.3553 112.756 76.1501 111.259 76.16C109.763 76.1699 108.557 77.3912 108.567 78.8879C108.577 80.3845 109.799 81.5897 111.295 81.5798Z" fill="#F4A61D"/>
<path d="M103.395 82.4962C101.391 82.4962 99.7671 80.8722 99.7671 78.8707C99.7671 76.8668 101.391 75.2451 103.395 75.2451C105.399 75.2451 107.023 76.8691 107.023 78.8707C107.023 80.8722 105.399 82.4962 103.395 82.4962Z" fill="#F4A61D"/>
<path d="M95.5168 83.4144C93.0073 83.4144 90.9731 81.3802 90.9731 78.8707C90.9731 76.3612 93.0073 74.3271 95.5168 74.3271C98.0263 74.3271 100.06 76.3612 100.06 78.8707C100.06 81.3802 98.0263 83.4144 95.5168 83.4144Z" fill="#F4A61D"/>
<path d="M87.6362 84.2648C84.656 84.2648 82.2397 81.8485 82.2397 78.8684C82.2397 75.8882 84.656 73.4719 87.6362 73.4719C90.6164 73.4719 93.0326 75.8882 93.0326 78.8684C93.0326 81.8509 90.6164 84.2648 87.6362 84.2648Z" fill="#F4A61D"/>
<path d="M79.7558 84.4397C76.6778 84.4397 74.1846 81.9465 74.1846 78.8685C74.1846 75.7928 76.6801 73.2972 79.7558 73.2972C82.8338 73.2972 85.327 75.7904 85.327 78.8685C85.327 81.9465 82.8338 84.4397 79.7558 84.4397Z" fill="#F4A61D"/>
<path d="M71.8778 84.4397C68.7998 84.4397 66.3066 81.9465 66.3066 78.8685C66.3066 75.7928 68.8022 73.2972 71.8778 73.2972C74.9559 73.2972 77.4491 75.7904 77.4491 78.8685C77.4491 81.9465 74.9535 84.4397 71.8778 84.4397Z" fill="#F4A61D"/>
<path d="M63.998 84.4397C60.9199 84.4397 58.4268 81.9465 58.4268 78.8685C58.4268 75.7928 60.9223 73.2972 63.998 73.2972C67.076 73.2972 69.5692 75.7904 69.5692 78.8685C69.5692 81.9465 67.076 84.4397 63.998 84.4397Z" fill="#F4A61D"/>
<path d="M56.1171 84.4397C53.0391 84.4397 50.5459 81.9465 50.5459 78.8685C50.5459 75.7928 53.0414 73.2972 56.1171 73.2972C59.1951 73.2972 61.6883 75.7904 61.6883 78.8685C61.6883 81.9465 59.1951 84.4397 56.1171 84.4397Z" fill="#F4A61D"/>
<path d="M48.2397 84.4397C45.1616 84.4397 42.6685 81.9465 42.6685 78.8685C42.6685 75.7928 45.164 73.2972 48.2397 73.2972C51.3177 73.2972 53.8109 75.7904 53.8109 78.8685C53.8109 81.9465 51.3154 84.4397 48.2397 84.4397Z" fill="#F4A61D"/>
<path d="M45.799 78.8864C45.8086 75.8816 43.3804 73.438 40.3755 73.4285C37.3707 73.419 34.9271 75.8472 34.9176 78.852C34.9081 81.8568 37.3363 84.3004 40.3411 84.3099C43.3459 84.3194 45.7895 81.8913 45.799 78.8864Z" fill="#F4A61D"/>
<path d="M32.4784 83.5006C35.0367 83.5006 37.1106 81.4267 37.1106 78.8685C37.1106 76.3102 35.0367 74.2363 32.4784 74.2363C29.9201 74.2363 27.8462 76.3102 27.8462 78.8685C27.8462 81.4267 29.9201 83.5006 32.4784 83.5006Z" fill="#F4A61D"/>
<path d="M24.6009 82.5826C22.5504 82.5826 20.8867 80.9189 20.8867 78.8684C20.8867 76.818 22.5504 75.1543 24.6009 75.1543C26.6513 75.1543 28.315 76.818 28.315 78.8684C28.315 80.9212 26.6513 82.5826 24.6009 82.5826Z" fill="#F4A61D"/>
<path d="M16.7204 81.6436C18.2531 81.6436 19.4955 80.4011 19.4955 78.8684C19.4955 77.3358 18.2531 76.0933 16.7204 76.0933C15.1878 76.0933 13.9453 77.3358 13.9453 78.8684C13.9453 80.4011 15.1878 81.6436 16.7204 81.6436Z" fill="#F4A61D"/>
<path d="M10.6974 78.8766C10.701 77.8509 9.87257 77.0165 8.84694 77.0129C7.82131 77.0092 6.98689 77.8376 6.98322 78.8633C6.97954 79.8889 7.808 80.7233 8.83363 80.727C9.85926 80.7307 10.6937 79.9022 10.6974 78.8766Z" fill="#F4A61D"/>
<path d="M0.961995 79.7864C0.456368 79.7864 0.0439453 79.3763 0.0439453 78.8683C0.0439453 78.3627 0.454038 77.9503 0.961995 77.9503C1.46995 77.9503 1.88004 78.3603 1.88004 78.8683C1.87771 79.3763 1.46762 79.7864 0.961995 79.7864Z" fill="#F4A61D"/>
<path d="M134.914 86.7705C134.902 86.7705 134.893 86.761 134.893 86.7492C134.893 86.7373 134.902 86.7278 134.914 86.7278C134.926 86.7278 134.935 86.7373 134.935 86.7492C134.935 86.761 134.926 86.7705 134.914 86.7705Z" fill="#F4A61D"/>
<path d="M127.033 87.4246C126.658 87.4246 126.355 87.1217 126.355 86.7465C126.355 86.3737 126.658 86.0685 127.033 86.0685C127.408 86.0685 127.711 86.3714 127.711 86.7465C127.711 87.1217 127.408 87.4246 127.033 87.4246Z" fill="#F4A61D"/>
<path d="M119.155 88.3425C118.274 88.3425 117.559 87.6295 117.559 86.7487C117.559 85.868 118.274 85.155 119.155 85.155C120.035 85.155 120.748 85.868 120.748 86.7487C120.748 87.6295 120.035 88.3425 119.155 88.3425Z" fill="#F4A61D"/>
<path d="M111.275 89.2396C112.651 89.2396 113.766 88.1244 113.766 86.7488C113.766 85.3731 112.651 84.2579 111.275 84.2579C109.899 84.2579 108.784 85.3731 108.784 86.7488C108.784 88.1244 109.899 89.2396 111.275 89.2396Z" fill="#F4A61D"/>
<path d="M103.394 90.1108C101.535 90.1108 100.03 88.6056 100.03 86.7462C100.03 84.8891 101.537 83.3815 103.394 83.3815C105.254 83.3815 106.759 84.8868 106.759 86.7462C106.759 88.6056 105.254 90.1108 103.394 90.1108Z" fill="#F4A61D"/>
<path d="M95.5167 90.9872C93.175 90.9872 91.2783 89.0905 91.2783 86.7488C91.2783 84.4071 93.175 82.5104 95.5167 82.5104C97.8585 82.5104 99.7551 84.4071 99.7551 86.7488C99.7551 89.0882 97.8561 90.9872 95.5167 90.9872Z" fill="#F4A61D"/>
<path d="M87.6358 91.7933C84.849 91.7933 82.5889 89.5331 82.5889 86.7463C82.5889 83.9596 84.849 81.6994 87.6358 81.6994C90.4226 81.6994 92.6827 83.9596 92.6827 86.7463C92.6827 89.5354 90.4226 91.7933 87.6358 91.7933Z" fill="#F4A61D"/>
<path d="M79.7558 92.2968C82.8211 92.2968 85.306 89.8129 85.306 86.7489C85.306 83.6849 82.8211 81.201 79.7558 81.201C76.6905 81.201 74.2056 83.6849 74.2056 86.7489C74.2056 89.8129 76.6905 92.2968 79.7558 92.2968Z" fill="#F4A61D"/>
<path d="M71.8778 92.3173C68.7998 92.3173 66.3066 89.8242 66.3066 86.7461C66.3066 83.6704 68.8022 81.1749 71.8778 81.1749C74.9559 81.1749 77.4491 83.6681 77.4491 86.7461C77.4491 89.8242 74.9535 92.3173 71.8778 92.3173Z" fill="#F4A61D"/>
<path d="M63.998 92.3173C60.9199 92.3173 58.4268 89.8242 58.4268 86.7461C58.4268 83.6704 60.9223 81.1749 63.998 81.1749C67.076 81.1749 69.5692 83.6681 69.5692 86.7461C69.5692 89.8242 67.076 92.3173 63.998 92.3173Z" fill="#F4A61D"/>
<path d="M56.1171 92.3173C53.0391 92.3173 50.5459 89.8242 50.5459 86.7461C50.5459 83.6704 53.0414 81.1749 56.1171 81.1749C59.1951 81.1749 61.6883 83.6681 61.6883 86.7461C61.6883 89.8242 59.1951 92.3173 56.1171 92.3173Z" fill="#F4A61D"/>
<path d="M48.2392 92.2968C51.3045 92.2968 53.7894 89.8129 53.7894 86.7489C53.7894 83.6849 51.3045 81.201 48.2392 81.201C45.1739 81.201 42.689 83.6849 42.689 86.7489C42.689 89.8129 45.1739 92.2968 48.2392 92.2968Z" fill="#F4A61D"/>
<path d="M40.3593 91.8607C37.5352 91.8607 35.2471 89.5726 35.2471 86.7485C35.2471 83.9245 37.5352 81.6364 40.3593 81.6364C43.1833 81.6364 45.4714 83.9245 45.4714 86.7485C45.4714 89.5703 43.1833 91.8607 40.3593 91.8607Z" fill="#F4A61D"/>
<path d="M32.4789 91.0525C30.1023 91.0525 28.1753 89.1255 28.1753 86.7488C28.1753 84.3722 30.1023 82.4452 32.4789 82.4452C34.8556 82.4452 36.7826 84.3722 36.7826 86.7488C36.7849 89.1255 34.8579 91.0525 32.4789 91.0525Z" fill="#F4A61D"/>
<path d="M24.6006 90.1995C22.6946 90.1995 21.1475 88.6546 21.1475 86.7486C21.1475 84.8426 22.6923 83.2978 24.6006 83.2978C26.509 83.2978 28.0538 84.8426 28.0538 86.7486C28.0515 88.6546 26.5066 90.1995 24.6006 90.1995Z" fill="#F4A61D"/>
<path d="M16.7206 89.3047C15.3086 89.3047 14.1646 88.1606 14.1646 86.7486C14.1646 85.3366 15.3086 84.1925 16.7206 84.1925C18.1327 84.1925 19.2767 85.3366 19.2767 86.7486C19.2767 88.1583 18.1327 89.3047 16.7206 89.3047Z" fill="#F4A61D"/>
<path d="M8.84005 88.4077C7.922 88.4077 7.17871 87.6644 7.17871 86.7464C7.17871 85.8283 7.922 85.085 8.84005 85.085C9.7581 85.085 10.5014 85.8283 10.5014 86.7464C10.5014 87.6644 9.7581 88.4077 8.84005 88.4077Z" fill="#F4A61D"/>
<path d="M0.962044 87.4898C0.551951 87.4898 0.21875 87.1566 0.21875 86.7465C0.21875 86.3364 0.551951 86.0032 0.962044 86.0032C1.37214 86.0032 1.70534 86.3364 1.70534 86.7465C1.70301 87.1589 1.37214 87.4898 0.962044 87.4898Z" fill="#F4A61D"/>
<path d="M127.033 95.0414C126.805 95.0414 126.619 94.855 126.619 94.6267C126.619 94.3983 126.805 94.2119 127.033 94.2119C127.262 94.2119 127.448 94.3983 127.448 94.6267C127.448 94.855 127.264 95.0414 127.033 95.0414Z" fill="#F4A61D"/>
<path d="M119.155 95.8919C118.456 95.8919 117.888 95.3257 117.888 94.6243C117.888 93.9253 118.454 93.3568 119.155 93.3568C119.854 93.3568 120.423 93.923 120.423 94.6243C120.42 95.3257 119.854 95.8919 119.155 95.8919Z" fill="#F4A61D"/>
<path d="M113.42 94.6396C113.43 93.457 112.479 92.4903 111.296 92.4805C110.114 92.4707 109.147 93.4215 109.137 94.6041C109.128 95.7868 110.078 96.7534 111.261 96.7632C112.444 96.773 113.41 95.8222 113.42 94.6396Z" fill="#F4A61D"/>
<path d="M106.347 94.6423C106.357 93.0131 105.044 91.6846 103.415 91.6749C101.786 91.6653 100.457 92.9781 100.448 94.6073C100.438 96.2365 101.751 97.565 103.38 97.5747C105.009 97.5843 106.338 96.2714 106.347 94.6423Z" fill="#F4A61D"/>
<path d="M95.5162 98.3618C93.4518 98.3618 91.7788 96.6888 91.7788 94.6266C91.7788 92.5645 93.4518 90.8915 95.5162 90.8915C97.5807 90.8915 99.2537 92.5645 99.2537 94.6266C99.2514 96.6888 97.5784 98.3618 95.5162 98.3618Z" fill="#F4A61D"/>
<path d="M87.6361 99.084C90.0979 99.084 92.0936 97.0884 92.0936 94.6266C92.0936 92.1648 90.0979 90.1692 87.6361 90.1692C85.1744 90.1692 83.1787 92.1648 83.1787 94.6266C83.1787 97.0884 85.1744 99.084 87.6361 99.084Z" fill="#F4A61D"/>
<path d="M79.7558 99.6945C76.955 99.6945 74.6855 97.425 74.6855 94.6266C74.6855 91.8282 76.955 89.5587 79.7558 89.5587C82.5565 89.5587 84.826 91.8282 84.826 94.6266C84.826 97.425 82.5565 99.6945 79.7558 99.6945Z" fill="#F4A61D"/>
<path d="M71.8773 100.044C68.8855 100.044 66.4575 97.6184 66.4575 94.6266C66.4575 91.6348 68.8831 89.2092 71.8773 89.2092C74.8691 89.2092 77.297 91.6348 77.297 94.6266C77.2947 97.6184 74.8691 100.044 71.8773 100.044Z" fill="#F4A61D"/>
<path d="M63.9982 100.131C60.9574 100.131 58.4922 97.6654 58.4922 94.6246C58.4922 91.5839 60.9574 89.1187 63.9982 89.1187C67.0389 89.1187 69.5041 91.5839 69.5041 94.6246C69.5041 97.6677 67.0389 100.131 63.9982 100.131Z" fill="#F4A61D"/>
<path d="M61.5599 94.6393C61.567 91.6345 59.1369 89.1928 56.1321 89.1857C53.1273 89.1785 50.6856 91.6086 50.6785 94.6135C50.6713 97.6183 53.1014 100.06 56.1062 100.067C59.1111 100.074 61.5528 97.6442 61.5599 94.6393Z" fill="#F4A61D"/>
<path d="M48.2401 99.7389C45.4161 99.7389 43.1279 97.4508 43.1279 94.6268C43.1279 91.8027 45.4161 89.5146 48.2401 89.5146C51.0642 89.5146 53.3523 91.8027 53.3523 94.6268C53.3523 97.4485 51.0618 99.7389 48.2401 99.7389Z" fill="#F4A61D"/>
<path d="M40.3591 99.1493C37.8613 99.1493 35.8364 97.1245 35.8364 94.6267C35.8364 92.1288 37.8613 90.104 40.3591 90.104C42.8569 90.104 44.8818 92.1288 44.8818 94.6267C44.8818 97.1245 42.8569 99.1493 40.3591 99.1493Z" fill="#F4A61D"/>
<path d="M32.4785 98.427C30.3791 98.427 28.6758 96.726 28.6758 94.6266C28.6758 92.5272 30.3791 90.8263 32.4785 90.8263C34.5779 90.8263 36.2811 92.5272 36.2811 94.6266C36.2811 96.726 34.5779 98.427 32.4785 98.427Z" fill="#F4A61D"/>
<path d="M24.6015 97.6629C22.9239 97.6629 21.5654 96.3045 21.5654 94.6268C21.5654 92.9492 22.9262 91.5908 24.6015 91.5908C26.2792 91.5908 27.6376 92.9492 27.6376 94.6268C27.6376 96.3022 26.2768 97.6629 24.6015 97.6629Z" fill="#F4A61D"/>
<path d="M16.7203 96.8334C15.5016 96.8334 14.5137 95.8455 14.5137 94.6269C14.5137 93.4082 15.5016 92.4203 16.7203 92.4203C17.9389 92.4203 18.9268 93.4082 18.9268 94.6269C18.9268 95.8455 17.9389 96.8334 16.7203 96.8334Z" fill="#F4A61D"/>
<path d="M8.84059 95.9804C8.09264 95.9804 7.48682 95.3746 7.48682 94.6267C7.48682 93.8787 8.09264 93.2729 8.84059 93.2729C9.58854 93.2729 10.1944 93.8787 10.1944 94.6267C10.1967 95.3746 9.58854 95.9804 8.84059 95.9804Z" fill="#F4A61D"/>
<path d="M0.962417 95.1065C0.696789 95.1065 0.482422 94.8922 0.482422 94.6265C0.482422 94.3609 0.696789 94.1465 0.962417 94.1465C1.22805 94.1465 1.44241 94.3609 1.44241 94.6265C1.44241 94.8922 1.22805 95.1065 0.962417 95.1065Z" fill="#F4A61D"/>
<path d="M127.033 102.635C126.961 102.635 126.903 102.577 126.903 102.505C126.903 102.432 126.961 102.374 127.033 102.374C127.106 102.374 127.164 102.432 127.164 102.505C127.166 102.577 127.106 102.635 127.033 102.635Z" fill="#F4A61D"/>
<path d="M119.156 103.378C118.673 103.378 118.282 102.987 118.282 102.505C118.282 102.022 118.673 101.631 119.156 101.631C119.638 101.631 120.029 102.022 120.029 102.505C120.029 102.987 119.638 103.378 119.156 103.378Z" fill="#F4A61D"/>
<path d="M111.275 104.164C110.357 104.164 109.614 103.421 109.614 102.502C109.614 101.584 110.357 100.841 111.275 100.841C112.193 100.841 112.936 101.584 112.936 102.502C112.936 103.421 112.193 104.164 111.275 104.164Z" fill="#F4A61D"/>
<path d="M105.824 102.52C105.834 101.18 104.755 100.086 103.416 100.077C102.076 100.067 100.983 101.146 100.973 102.485C100.964 103.825 102.042 104.919 103.382 104.928C104.721 104.938 105.815 103.859 105.824 102.52Z" fill="#F4A61D"/>
<path d="M95.5162 105.65C93.778 105.65 92.3706 104.243 92.3706 102.505C92.3706 100.766 93.7803 99.3591 95.5162 99.3591C97.2521 99.3591 98.6618 100.766 98.6618 102.505C98.6618 104.241 97.2521 105.65 95.5162 105.65Z" fill="#F4A61D"/>
<path d="M91.396 102.52C91.4055 100.445 89.7306 98.7541 87.6549 98.7445C85.5792 98.735 83.8887 100.41 83.8792 102.486C83.8696 104.561 85.5445 106.252 87.6202 106.261C89.6959 106.271 91.3864 104.596 91.396 102.52Z" fill="#F4A61D"/>
<path d="M79.7558 106.764C77.4025 106.764 75.4941 104.856 75.4941 102.505C75.4941 100.151 77.4025 98.2454 79.7558 98.2454C82.1092 98.2454 84.0175 100.154 84.0175 102.505C84.0175 104.858 82.1092 106.764 79.7558 106.764Z" fill="#F4A61D"/>
<path d="M71.8778 107.114C69.331 107.114 67.2666 105.049 67.2666 102.505C67.2666 99.9579 69.331 97.8958 71.8778 97.8958C74.4246 97.8958 76.489 99.9603 76.489 102.505C76.4867 105.049 74.4223 107.114 71.8778 107.114Z" fill="#F4A61D"/>
<path d="M63.998 107.246C66.6168 107.246 68.7398 105.123 68.7398 102.505C68.7398 99.8859 66.6168 97.7629 63.998 97.7629C61.3793 97.7629 59.2563 99.8859 59.2563 102.505C59.2563 105.123 61.3793 107.246 63.998 107.246Z" fill="#F4A61D"/>
<path d="M56.1175 107.137C58.6758 107.137 60.7497 105.063 60.7497 102.505C60.7497 99.9462 58.6758 97.8723 56.1175 97.8723C53.5593 97.8723 51.4854 99.9462 51.4854 102.505C51.4854 105.063 53.5593 107.137 56.1175 107.137Z" fill="#F4A61D"/>
<path d="M48.2397 106.808C45.863 106.808 43.936 104.881 43.936 102.505C43.936 100.128 45.863 98.201 48.2397 98.201C50.6164 98.201 52.5433 100.128 52.5433 102.505C52.5433 104.881 50.6164 106.808 48.2397 106.808Z" fill="#F4A61D"/>
<path d="M40.3593 106.305C38.2599 106.305 36.5566 104.604 36.5566 102.505C36.5566 100.405 38.2599 98.7042 40.3593 98.7042C42.4587 98.7042 44.162 100.405 44.162 102.505C44.162 104.604 42.4587 106.305 40.3593 106.305Z" fill="#F4A61D"/>
<path d="M32.4784 105.695C30.7169 105.695 29.2886 104.266 29.2886 102.505C29.2886 100.743 30.7169 99.3148 32.4784 99.3148C34.24 99.3148 35.6683 100.743 35.6683 102.505C35.6683 104.266 34.24 105.695 32.4784 105.695Z" fill="#F4A61D"/>
<path d="M24.6012 104.995C25.9769 104.995 27.092 103.88 27.092 102.505C27.092 101.129 25.9769 100.014 24.6012 100.014C23.2255 100.014 22.1104 101.129 22.1104 102.505C22.1104 103.88 23.2255 104.995 24.6012 104.995Z" fill="#F4A61D"/>
<path d="M16.7198 104.231C17.6733 104.231 18.4463 103.458 18.4463 102.505C18.4463 101.551 17.6733 100.778 16.7198 100.778C15.7662 100.778 14.9932 101.551 14.9932 102.505C14.9932 103.458 15.7662 104.231 16.7198 104.231Z" fill="#F4A61D"/>
<path d="M8.84039 103.444C8.32078 103.444 7.90137 103.024 7.90137 102.505C7.90137 101.985 8.32311 101.565 8.84039 101.565C9.35999 101.565 9.77941 101.985 9.77941 102.505C9.77941 103.022 9.35999 103.444 8.84039 103.444Z" fill="#F4A61D"/>
<path d="M0.962353 102.68C0.86682 102.68 0.787598 102.6 0.787598 102.505C0.787598 102.409 0.86682 102.33 0.962353 102.33C1.05789 102.33 1.13711 102.409 1.13711 102.505C1.13711 102.6 1.05789 102.68 0.962353 102.68Z" fill="#F4A61D"/>
<path d="M119.155 110.753C118.95 110.753 118.785 110.588 118.785 110.383C118.785 110.178 118.95 110.012 119.155 110.012C119.36 110.012 119.526 110.178 119.526 110.383C119.526 110.588 119.36 110.753 119.155 110.753Z" fill="#F4A61D"/>
<path d="M111.275 111.496C110.66 111.496 110.161 110.997 110.161 110.382C110.161 109.767 110.66 109.269 111.275 109.269C111.89 109.269 112.389 109.767 112.389 110.382C112.389 110.997 111.89 111.496 111.275 111.496Z" fill="#F4A61D"/>
<path d="M103.395 112.196C102.393 112.196 101.583 111.385 101.583 110.383C101.583 109.381 102.393 108.57 103.395 108.57C104.397 108.57 105.208 109.381 105.208 110.383C105.21 111.385 104.397 112.196 103.395 112.196Z" fill="#F4A61D"/>
<path d="M95.5164 112.829C94.165 112.829 93.0698 111.734 93.0698 110.383C93.0698 109.031 94.165 107.936 95.5164 107.936C96.8678 107.936 97.963 109.031 97.963 110.383C97.963 111.734 96.8678 112.829 95.5164 112.829Z" fill="#F4A61D"/>
<path d="M87.6367 113.374C85.9824 113.374 84.6426 112.035 84.6426 110.383C84.6426 108.731 85.9824 107.391 87.6367 107.391C89.2911 107.391 90.6309 108.731 90.6309 110.383C90.6309 112.035 89.2887 113.374 87.6367 113.374Z" fill="#F4A61D"/>
<path d="M83.1675 110.399C83.1769 108.517 81.6584 106.983 79.7757 106.973C77.893 106.964 76.3591 108.482 76.3497 110.365C76.3402 112.248 77.8587 113.781 79.7414 113.791C81.6241 113.8 83.158 112.282 83.1675 110.399Z" fill="#F4A61D"/>
<path d="M71.8782 114.076C73.9179 114.076 75.5714 112.422 75.5714 110.383C75.5714 108.343 73.9179 106.69 71.8782 106.69C69.8385 106.69 68.1851 108.343 68.1851 110.383C68.1851 112.422 69.8385 114.076 71.8782 114.076Z" fill="#F4A61D"/>
<path d="M63.998 114.183C61.8986 114.183 60.1953 112.482 60.1953 110.383C60.1953 108.283 61.8963 106.582 63.998 106.582C66.0974 106.582 67.8007 108.283 67.8007 110.383C67.8007 112.482 66.0974 114.183 63.998 114.183Z" fill="#F4A61D"/>
<path d="M56.1179 114.097C54.0675 114.097 52.4038 112.433 52.4038 110.383C52.4038 108.332 54.0675 106.668 56.1179 106.668C58.1684 106.668 59.8321 108.332 59.8321 110.383C59.8321 112.433 58.1707 114.097 56.1179 114.097Z" fill="#F4A61D"/>
<path d="M48.2393 113.833C46.3333 113.833 44.7861 112.289 44.7861 110.383C44.7861 108.477 46.331 106.932 48.2393 106.932C50.1476 106.932 51.6925 108.477 51.6925 110.383C51.6901 112.289 50.1453 113.833 48.2393 113.833Z" fill="#F4A61D"/>
<path d="M40.3593 113.419C38.6817 113.419 37.3232 112.06 37.3232 110.383C37.3232 108.705 38.684 107.347 40.3593 107.347C42.037 107.347 43.3954 108.705 43.3954 110.383C43.3954 112.06 42.037 113.419 40.3593 113.419Z" fill="#F4A61D"/>
<path d="M32.4791 112.873C33.8548 112.873 34.97 111.758 34.97 110.382C34.97 109.007 33.8548 107.892 32.4791 107.892C31.1035 107.892 29.9883 109.007 29.9883 110.382C29.9883 111.758 31.1035 112.873 32.4791 112.873Z" fill="#F4A61D"/>
<path d="M24.6007 112.24C25.6264 112.24 26.4578 111.408 26.4578 110.383C26.4578 109.357 25.6264 108.526 24.6007 108.526C23.5751 108.526 22.7437 109.357 22.7437 110.383C22.7437 111.408 23.5751 112.24 24.6007 112.24Z" fill="#F4A61D"/>
<path d="M16.7205 111.541C17.3601 111.541 17.8786 111.022 17.8786 110.383C17.8786 109.743 17.3601 109.225 16.7205 109.225C16.081 109.225 15.5625 109.743 15.5625 110.383C15.5625 111.022 16.081 111.541 16.7205 111.541Z" fill="#F4A61D"/>
<path d="M8.8404 110.818C8.59807 110.818 8.40234 110.623 8.40234 110.38C8.40234 110.138 8.59807 109.945 8.8404 109.945C9.08272 109.945 9.27845 110.14 9.27845 110.38C9.27845 110.623 9.08272 110.818 8.8404 110.818Z" fill="#F4A61D"/>
<path d="M119.156 118.306C119.132 118.306 119.111 118.287 119.111 118.261C119.111 118.238 119.13 118.216 119.156 118.216C119.182 118.216 119.201 118.235 119.201 118.261C119.198 118.285 119.179 118.306 119.156 118.306Z" fill="#F4A61D"/>
<path d="M111.275 118.741C111.009 118.741 110.795 118.526 110.795 118.261C110.795 117.995 111.009 117.781 111.275 117.781C111.541 117.781 111.755 117.995 111.755 118.261C111.755 118.526 111.541 118.741 111.275 118.741Z" fill="#F4A61D"/>
<path d="M103.395 119.374C102.78 119.374 102.281 118.876 102.281 118.261C102.281 117.645 102.78 117.147 103.395 117.147C104.01 117.147 104.509 117.645 104.509 118.261C104.509 118.876 104.01 119.374 103.395 119.374Z" fill="#F4A61D"/>
<path d="M95.5168 119.943C96.4459 119.943 97.1991 119.19 97.1991 118.261C97.1991 117.332 96.4459 116.578 95.5168 116.578C94.5877 116.578 93.8345 117.332 93.8345 118.261C93.8345 119.19 94.5877 119.943 95.5168 119.943Z" fill="#F4A61D"/>
<path d="M87.6359 120.423C86.4406 120.423 85.4736 119.454 85.4736 118.261C85.4736 117.065 86.4429 116.098 87.6359 116.098C88.8313 116.098 89.7983 117.068 89.7983 118.261C89.7983 119.456 88.8313 120.423 87.6359 120.423Z" fill="#F4A61D"/>
<path d="M79.7558 120.796C81.1559 120.796 82.2909 119.661 82.2909 118.261C82.2909 116.861 81.1559 115.726 79.7558 115.726C78.3557 115.726 77.2207 116.861 77.2207 118.261C77.2207 119.661 78.3557 120.796 79.7558 120.796Z" fill="#F4A61D"/>
<path d="M71.8781 121.036C73.4108 121.036 74.6533 119.793 74.6533 118.26C74.6533 116.728 73.4108 115.485 71.8781 115.485C70.3455 115.485 69.103 116.728 69.103 118.26C69.103 119.793 70.3455 121.036 71.8781 121.036Z" fill="#F4A61D"/>
<path d="M63.998 121.122C62.4183 121.122 61.1367 119.84 61.1367 118.261C61.1367 116.681 62.4183 115.399 63.998 115.399C65.5778 115.399 66.8594 116.681 66.8594 118.261C66.8594 119.84 65.5778 121.122 63.998 121.122Z" fill="#F4A61D"/>
<path d="M56.1217 121.036C57.6544 121.033 58.8949 119.789 58.8925 118.256C58.8901 116.724 57.6457 115.483 56.113 115.486C54.5804 115.488 53.3398 116.732 53.3422 118.265C53.3446 119.798 54.5891 121.038 56.1217 121.036Z" fill="#F4A61D"/>
<path d="M48.2397 120.817C46.8277 120.817 45.6836 119.673 45.6836 118.261C45.6836 116.849 46.8277 115.705 48.2397 115.705C49.6517 115.705 50.7958 116.849 50.7958 118.261C50.7958 119.673 49.6517 120.817 48.2397 120.817Z" fill="#F4A61D"/>
<path d="M40.3589 120.467C39.1403 120.467 38.1523 119.479 38.1523 118.261C38.1523 117.042 39.1403 116.054 40.3589 116.054C41.5776 116.054 42.5655 117.042 42.5655 118.261C42.5655 119.479 41.5776 120.467 40.3589 120.467Z" fill="#F4A61D"/>
<path d="M32.4827 119.988C33.4362 119.985 34.2075 119.211 34.2052 118.257C34.203 117.303 33.4282 116.532 32.4746 116.534C31.5211 116.537 30.7498 117.311 30.7521 118.265C30.7543 119.219 31.5291 119.99 32.4827 119.988Z" fill="#F4A61D"/>
<path d="M24.6004 119.419C25.24 119.419 25.7585 118.9 25.7585 118.261C25.7585 117.621 25.24 117.103 24.6004 117.103C23.9609 117.103 23.4424 117.621 23.4424 118.261C23.4424 118.9 23.9609 119.419 24.6004 119.419Z" fill="#F4A61D"/>
<path d="M16.721 118.806C16.4204 118.806 16.1758 118.561 16.1758 118.261C16.1758 117.96 16.4204 117.715 16.721 117.715C17.0216 117.715 17.2663 117.96 17.2663 118.261C17.2663 118.561 17.0216 118.806 16.721 118.806Z" fill="#F4A61D"/>
<path d="M8.8408 118.306C8.81717 118.306 8.7959 118.287 8.7959 118.261C8.7959 118.238 8.81481 118.216 8.8408 118.216C8.86444 118.216 8.88571 118.235 8.88571 118.261C8.88571 118.285 8.8668 118.306 8.8408 118.306Z" fill="#F4A61D"/>
<path d="M111.275 126.184C111.252 126.184 111.23 126.165 111.23 126.139C111.23 126.115 111.249 126.094 111.275 126.094C111.301 126.094 111.32 126.113 111.32 126.139C111.32 126.163 111.299 126.184 111.275 126.184Z" fill="#F4A61D"/>
<path d="M103.395 126.532C103.178 126.532 103.001 126.355 103.001 126.138C103.001 125.922 103.178 125.745 103.395 125.745C103.611 125.745 103.789 125.922 103.789 126.138C103.789 126.355 103.611 126.532 103.395 126.532Z" fill="#F4A61D"/>
<path d="M95.5168 127.036C95.0228 127.036 94.6221 126.635 94.6221 126.141C94.6221 125.647 95.0228 125.246 95.5168 125.246C96.0108 125.246 96.4116 125.647 96.4116 126.141C96.4116 126.632 96.0108 127.036 95.5168 127.036Z" fill="#F4A61D"/>
<path d="M87.6365 127.45C86.9119 127.45 86.3247 126.863 86.3247 126.139C86.3247 125.414 86.9119 124.827 87.6365 124.827C88.3612 124.827 88.9484 125.414 88.9484 126.139C88.9484 126.863 88.3612 127.45 87.6365 127.45Z" fill="#F4A61D"/>
<path d="M79.7562 127.777C78.8521 127.777 78.1182 127.043 78.1182 126.139C78.1182 125.235 78.8521 124.501 79.7562 124.501C80.6603 124.501 81.3942 125.235 81.3942 126.139C81.3966 127.043 80.6626 127.777 79.7562 127.777Z" fill="#F4A61D"/>
<path d="M71.8781 127.975C70.8645 127.975 70.042 127.152 70.042 126.139C70.042 125.125 70.8645 124.302 71.8781 124.302C72.8917 124.302 73.7142 125.125 73.7142 126.139C73.7119 127.152 72.8917 127.975 71.8781 127.975Z" fill="#F4A61D"/>
<path d="M65.9039 126.153C65.9133 125.103 65.0698 124.244 64.0197 124.235C62.9696 124.225 62.1107 125.069 62.1012 126.119C62.0917 127.169 62.9352 128.028 63.9853 128.037C65.0354 128.047 65.8944 127.203 65.9039 126.153Z" fill="#F4A61D"/>
<path d="M56.1173 127.996C55.0921 127.996 54.2603 127.164 54.2603 126.139C54.2603 125.113 55.0921 124.281 56.1173 124.281C57.1426 124.281 57.9744 125.113 57.9744 126.139C57.9744 127.164 57.1426 127.996 56.1173 127.996Z" fill="#F4A61D"/>
<path d="M48.2395 127.8C47.3214 127.8 46.5781 127.056 46.5781 126.138C46.5781 125.223 47.3214 124.477 48.2395 124.477C49.1575 124.477 49.9008 125.22 49.9008 126.138C49.8985 127.056 49.1552 127.8 48.2395 127.8Z" fill="#F4A61D"/>
<path d="M40.3591 127.492C39.6112 127.492 39.0054 126.887 39.0054 126.139C39.0054 125.391 39.6112 124.785 40.3591 124.785C41.1071 124.785 41.7129 125.391 41.7129 126.139C41.7129 126.887 41.1071 127.492 40.3591 127.492Z" fill="#F4A61D"/>
<path d="M32.4786 127.078C31.959 127.078 31.5396 126.658 31.5396 126.139C31.5396 125.619 31.9613 125.2 32.4786 125.2C32.9982 125.2 33.4176 125.619 33.4176 126.139C33.4176 126.658 32.9982 127.078 32.4786 127.078Z" fill="#F4A61D"/>
<path d="M24.6011 126.577C24.3588 126.577 24.1631 126.381 24.1631 126.138C24.1631 125.896 24.3588 125.703 24.6011 125.703C24.8435 125.703 25.0392 125.898 25.0392 126.138C25.0369 126.381 24.8411 126.577 24.6011 126.577Z" fill="#F4A61D"/>
<path d="M16.7212 126.184C16.6975 126.184 16.6763 126.165 16.6763 126.139C16.6763 126.115 16.6952 126.094 16.7212 126.094C16.7472 126.094 16.7661 126.113 16.7661 126.139C16.7661 126.163 16.7448 126.184 16.7212 126.184Z" fill="#F4A61D"/>
<path d="M95.5166 134.17C95.4327 134.17 95.3628 134.103 95.3628 134.017C95.3628 133.933 95.4304 133.863 95.5166 133.863C95.6028 133.863 95.6704 133.93 95.6704 134.017C95.668 134.101 95.6005 134.17 95.5166 134.17Z" fill="#F4A61D"/>
<path d="M87.6363 134.475C87.3823 134.475 87.1772 134.27 87.1772 134.016C87.1772 133.762 87.3823 133.557 87.6363 133.557C87.8902 133.557 88.0953 133.762 88.0953 134.016C88.0953 134.27 87.8902 134.475 87.6363 134.475Z" fill="#F4A61D"/>
<path d="M79.756 134.76C79.3459 134.76 79.0127 134.427 79.0127 134.016C79.0127 133.606 79.3459 133.273 79.756 133.273C80.1661 133.273 80.4993 133.606 80.4993 134.016C80.4993 134.427 80.1661 134.76 79.756 134.76Z" fill="#F4A61D"/>
<path d="M71.878 134.935C71.3724 134.935 70.96 134.525 70.96 134.017C70.96 133.511 71.3701 133.099 71.878 133.099C72.3836 133.099 72.7961 133.509 72.7961 134.017C72.7937 134.525 72.3836 134.935 71.878 134.935Z" fill="#F4A61D"/>
<path d="M63.998 134.979C63.4667 134.979 63.0356 134.548 63.0356 134.017C63.0356 133.485 63.4667 133.057 63.998 133.057C64.5292 133.057 64.9603 133.488 64.9603 134.017C64.9603 134.548 64.5292 134.979 63.998 134.979Z" fill="#F4A61D"/>
<path d="M56.1178 134.935C55.6121 134.935 55.1997 134.525 55.1997 134.017C55.1997 133.511 55.6098 133.099 56.1178 133.099C56.6234 133.099 57.0358 133.509 57.0358 134.017C57.0358 134.525 56.6257 134.935 56.1178 134.935Z" fill="#F4A61D"/>
<path d="M48.2394 134.76C47.8293 134.76 47.4961 134.427 47.4961 134.016C47.4961 133.606 47.8293 133.273 48.2394 133.273C48.6495 133.273 48.9827 133.606 48.9827 134.016C48.9804 134.427 48.6495 134.76 48.2394 134.76Z" fill="#F4A61D"/>
<path d="M40.3594 134.499C40.0938 134.499 39.8794 134.285 39.8794 134.019C39.8794 133.753 40.0938 133.539 40.3594 133.539C40.625 133.539 40.8394 133.753 40.8394 134.019C40.8394 134.282 40.625 134.499 40.3594 134.499Z" fill="#F4A61D"/>
<path d="M32.479 134.191C32.3834 134.191 32.3042 134.112 32.3042 134.016C32.3042 133.921 32.3834 133.842 32.479 133.842C32.5745 133.842 32.6537 133.921 32.6537 134.016C32.6537 134.114 32.5768 134.191 32.479 134.191Z" fill="#F4A61D"/>
<path d="M79.7568 141.94C79.7332 141.94 79.7119 141.921 79.7119 141.895C79.7119 141.871 79.7308 141.85 79.7568 141.85C79.7828 141.85 79.8017 141.869 79.8017 141.895C79.8017 141.921 79.7828 141.94 79.7568 141.94Z" fill="#F4A61D"/>
<path d="M71.8786 142.004C71.818 142.004 71.769 141.955 71.769 141.894C71.769 141.834 71.818 141.785 71.8786 141.785C71.9391 141.785 71.9881 141.834 71.9881 141.894C71.9881 141.955 71.9368 142.004 71.8786 142.004Z" fill="#F4A61D"/>
<path d="M63.9982 142.027C63.9259 142.027 63.8677 141.969 63.8677 141.897C63.8677 141.825 63.9259 141.766 63.9982 141.766C64.0704 141.766 64.1286 141.825 64.1286 141.897C64.1286 141.967 64.0704 142.027 63.9982 142.027Z" fill="#F4A61D"/>
<path d="M56.1178 142.004C56.0572 142.004 56.0083 141.955 56.0083 141.894C56.0083 141.834 56.0572 141.785 56.1178 141.785C56.1784 141.785 56.2273 141.834 56.2273 141.894C56.2273 141.955 56.1784 142.004 56.1178 142.004Z" fill="#F4A61D"/>
<path d="M48.2407 141.94C48.2171 141.94 48.1958 141.921 48.1958 141.895C48.1958 141.871 48.2147 141.85 48.2407 141.85C48.2667 141.85 48.2856 141.869 48.2856 141.895C48.2832 141.921 48.2643 141.94 48.2407 141.94Z" fill="#F4A61D"/>
</g>
</svg>
