<svg width="136" height="143" viewBox="0 0 136 143" fill="none" xmlns="http://www.w3.org/2000/svg">
<g opacity="0.15">
<path d="M80.3019 0.11037C80.2902 0.11037 80.2808 0.100953 80.2808 0.0891817C80.2808 0.0774103 80.2902 0.0679932 80.3019 0.0679932C80.3137 0.0679932 80.3231 0.0774103 80.3231 0.0891817C80.3231 0.100953 80.3137 0.11037 80.3019 0.11037Z" fill="#9B9892"/>
<path d="M72.3709 0.155773C72.333 0.155773 72.3047 0.125052 72.3047 0.0896052C72.3047 0.0517951 72.3354 0.0234375 72.3709 0.0234375C72.4087 0.0234375 72.437 0.0541582 72.437 0.0896052C72.437 0.125052 72.4063 0.155773 72.3709 0.155773Z" fill="#9B9892"/>
<path d="M64.4359 0.17605C64.3866 0.17605 64.3467 0.136145 64.3467 0.0868513C64.3467 0.0375573 64.3866 0 64.4359 0C64.4852 0 64.5227 0.0399047 64.5227 0.0868513C64.5227 0.136145 64.4852 0.17605 64.4359 0.17605Z" fill="#9B9892"/>
<path d="M56.5018 0.17605C56.4525 0.17605 56.4126 0.136145 56.4126 0.0868513C56.4126 0.0375573 56.4525 0 56.5018 0C56.5511 0 56.5886 0.0399047 56.5886 0.0868513C56.591 0.136145 56.5511 0.17605 56.5018 0.17605Z" fill="#9B9892"/>
<path d="M48.57 0.11037C48.5582 0.11037 48.5488 0.100953 48.5488 0.0891817C48.5488 0.0774103 48.5582 0.0679932 48.57 0.0679932C48.5818 0.0679932 48.5912 0.0774103 48.5912 0.0891817C48.5912 0.100953 48.5818 0.11037 48.57 0.11037Z" fill="#9B9892"/>
<path d="M96.1714 8.1291C96.1103 8.1291 96.061 8.0798 96.061 8.01877C96.061 7.95774 96.1103 7.90845 96.1714 7.90845C96.2324 7.90845 96.2817 7.95774 96.2817 8.01877C96.2793 8.0798 96.23 8.1291 96.1714 8.1291Z" fill="#9B9892"/>
<path d="M88.2365 8.39452C88.0299 8.39452 87.8633 8.22786 87.8633 8.0213C87.8633 7.81473 88.0299 7.64807 88.2365 7.64807C88.4431 7.64807 88.6097 7.81473 88.6097 8.0213C88.6097 8.22786 88.4431 8.39452 88.2365 8.39452Z" fill="#9B9892"/>
<path d="M80.3027 8.68114C79.9388 8.68114 79.6431 8.38538 79.6431 8.02154C79.6431 7.6577 79.9388 7.36194 80.3027 7.36194C80.6665 7.36194 80.9623 7.6577 80.9623 8.02154C80.9646 8.38538 80.6689 8.68114 80.3027 8.68114Z" fill="#9B9892"/>
<path d="M72.3708 8.85722C71.9084 8.85722 71.5352 8.48164 71.5352 8.02156C71.5352 7.55914 71.9107 7.18591 72.3708 7.18591C72.8332 7.18591 73.2065 7.56149 73.2065 8.02156C73.2065 8.48164 72.8309 8.85722 72.3708 8.85722Z" fill="#9B9892"/>
<path d="M64.436 8.92199C63.9387 8.92199 63.5352 8.51847 63.5352 8.02111C63.5352 7.52376 63.9387 7.12024 64.436 7.12024C64.9334 7.12024 65.3369 7.52376 65.3369 8.02111C65.3369 8.51847 64.9334 8.92199 64.436 8.92199Z" fill="#9B9892"/>
<path d="M56.5027 8.87853C56.0285 8.87853 55.6436 8.49356 55.6436 8.0194C55.6436 7.54524 56.0285 7.16028 56.5027 7.16028C56.9768 7.16028 57.3618 7.54524 57.3618 8.0194C57.3618 8.49591 56.9768 8.87853 56.5027 8.87853Z" fill="#9B9892"/>
<path d="M48.5703 8.70148C48.1924 8.70148 47.8872 8.39632 47.8872 8.0184C47.8872 7.64283 48.1924 7.33533 48.5703 7.33533C48.9482 7.33533 49.2534 7.64048 49.2534 8.0184C49.251 8.39632 48.9459 8.70148 48.5703 8.70148Z" fill="#9B9892"/>
<path d="M40.6361 8.43892C40.4061 8.43892 40.2183 8.25114 40.2183 8.0211C40.2183 7.79106 40.4061 7.60327 40.6361 7.60327C40.8661 7.60327 41.0539 7.79106 41.0539 8.0211C41.0539 8.25114 40.8661 8.43892 40.6361 8.43892Z" fill="#9B9892"/>
<path d="M32.7013 8.15279C32.6285 8.15279 32.5698 8.09411 32.5698 8.02134C32.5698 7.94858 32.6285 7.88989 32.7013 7.88989C32.774 7.88989 32.8327 7.94858 32.8327 8.02134C32.8351 8.09411 32.774 8.15279 32.7013 8.15279Z" fill="#9B9892"/>
<path d="M112.037 15.9744C112.026 15.9744 112.016 15.965 112.016 15.9532C112.016 15.9414 112.026 15.932 112.037 15.932C112.049 15.932 112.058 15.9414 112.058 15.9532C112.058 15.965 112.049 15.9744 112.037 15.9744Z" fill="#9B9892"/>
<path d="M104.103 16.2816C103.92 16.2816 103.772 16.1337 103.772 15.9506C103.772 15.7675 103.92 15.6196 104.103 15.6196C104.287 15.6196 104.434 15.7675 104.434 15.9506C104.434 16.1337 104.287 16.2816 104.103 16.2816Z" fill="#9B9892"/>
<path d="M96.1711 16.7893C95.7087 16.7893 95.3354 16.4138 95.3354 15.9537C95.3354 15.4913 95.711 15.118 96.1711 15.118C96.6335 15.118 97.0067 15.4936 97.0067 15.9537C97.0067 16.4138 96.6312 16.7893 96.1711 16.7893Z" fill="#9B9892"/>
<path d="M88.2361 17.2059C87.544 17.2059 86.981 16.6452 86.981 15.9531C86.981 15.261 87.5417 14.7003 88.2361 14.7003C88.9282 14.7003 89.4889 15.261 89.4889 15.9531C89.4889 16.6452 88.9282 17.2059 88.2361 17.2059Z" fill="#9B9892"/>
<path d="M80.3018 17.5366C79.4268 17.5366 78.7183 16.8281 78.7183 15.9531C78.7183 15.078 79.4268 14.3695 80.3018 14.3695C81.1769 14.3695 81.8854 15.078 81.8854 15.9531C81.8854 16.8258 81.1769 17.5366 80.3018 17.5366Z" fill="#9B9892"/>
<path d="M72.3709 17.7339C71.3879 17.7339 70.5879 16.9362 70.5879 15.9532C70.5879 14.9703 71.3855 14.1726 72.3709 14.1726C73.3539 14.1726 74.1539 14.9703 74.1539 15.9532C74.1515 16.9362 73.3539 17.7339 72.3709 17.7339Z" fill="#9B9892"/>
<path d="M64.4356 17.7995C63.4151 17.7995 62.5869 16.9714 62.5869 15.9508C62.5869 14.9303 63.4151 14.1022 64.4356 14.1022C65.4561 14.1022 66.2843 14.9303 66.2843 15.9508C66.2843 16.9737 65.4561 17.7995 64.4356 17.7995Z" fill="#9B9892"/>
<path d="M56.5017 17.7339C55.5187 17.7339 54.7188 16.9362 54.7188 15.9532C54.7188 14.9703 55.5164 14.1726 56.5017 14.1726C57.4847 14.1726 58.2847 14.9703 58.2847 15.9532C58.2847 16.9362 57.4871 17.7339 56.5017 17.7339Z" fill="#9B9892"/>
<path d="M48.5704 17.5574C47.6836 17.5574 46.9634 16.8395 46.9634 15.9527C46.9634 15.0659 47.6813 14.348 48.5704 14.348C49.4596 14.348 50.1774 15.0659 50.1774 15.9527C50.1751 16.8395 49.4572 17.5574 48.5704 17.5574Z" fill="#9B9892"/>
<path d="M40.6356 17.2269C39.9318 17.2269 39.3594 16.6568 39.3594 15.9507C39.3594 15.2469 39.9295 14.6744 40.6356 14.6744C41.3394 14.6744 41.9119 15.2445 41.9119 15.9507C41.9119 16.6568 41.3394 17.2269 40.6356 17.2269Z" fill="#9B9892"/>
<path d="M32.7015 16.8334C32.2156 16.8334 31.8213 16.439 31.8213 15.9531C31.8213 15.4672 32.2156 15.0729 32.7015 15.0729C33.1874 15.0729 33.5818 15.4672 33.5818 15.9531C33.5818 16.439 33.1874 16.8334 32.7015 16.8334Z" fill="#9B9892"/>
<path d="M24.7697 16.3264C24.5631 16.3264 24.3965 16.1597 24.3965 15.9532C24.3965 15.7466 24.5631 15.58 24.7697 15.58C24.9763 15.58 25.1429 15.7466 25.1429 15.9532C25.1429 16.1597 24.9763 16.3264 24.7697 16.3264Z" fill="#9B9892"/>
<path d="M16.8358 15.9965C16.812 15.9965 16.7905 15.9774 16.7905 15.9512C16.7905 15.9274 16.8096 15.906 16.8358 15.906C16.862 15.906 16.881 15.9251 16.881 15.9512C16.881 15.9774 16.8596 15.9965 16.8358 15.9965Z" fill="#9B9892"/>
<path d="M119.972 23.9061C119.96 23.9061 119.951 23.8967 119.951 23.885C119.951 23.8732 119.96 23.8638 119.972 23.8638C119.984 23.8638 119.993 23.8732 119.993 23.885C119.993 23.8967 119.984 23.9061 119.972 23.9061Z" fill="#9B9892"/>
<path d="M112.037 24.3241C111.793 24.3241 111.596 24.1269 111.596 23.8828C111.596 23.6387 111.793 23.4438 112.037 23.4438C112.282 23.4438 112.479 23.641 112.479 23.8828C112.476 24.1269 112.282 24.3241 112.037 24.3241Z" fill="#9B9892"/>
<path d="M104.103 24.9405C103.518 24.9405 103.047 24.469 103.047 23.8848C103.047 23.3007 103.518 22.8291 104.103 22.8291C104.687 22.8291 105.158 23.303 105.158 23.8848C105.158 24.4666 104.687 24.9405 104.103 24.9405Z" fill="#9B9892"/>
<path d="M96.1706 25.513C97.0698 25.513 97.7988 24.7841 97.7988 23.8849C97.7988 22.9857 97.0698 22.2567 96.1706 22.2567C95.2714 22.2567 94.5425 22.9857 94.5425 23.8849C94.5425 24.7841 95.2714 25.513 96.1706 25.513Z" fill="#9B9892"/>
<path d="M88.2369 25.9964C87.0709 25.9964 86.1255 25.051 86.1255 23.885C86.1255 22.719 87.0709 21.7736 88.2369 21.7736C89.4029 21.7736 90.3483 22.719 90.3483 23.885C90.3483 25.051 89.4029 25.9964 88.2369 25.9964Z" fill="#9B9892"/>
<path d="M80.3022 26.3693C78.9298 26.3693 77.8154 25.2573 77.8154 23.8848C77.8154 22.5124 78.9274 21.4004 80.3022 21.4004C81.6747 21.4004 82.789 22.5124 82.789 23.8848C82.789 25.2573 81.6747 26.3693 80.3022 26.3693Z" fill="#9B9892"/>
<path d="M72.3705 26.5896C70.8761 26.5896 69.6655 25.3791 69.6655 23.8847C69.6655 22.3902 70.8761 21.1797 72.3705 21.1797C73.8649 21.1797 75.0755 22.3902 75.0755 23.8847C75.0755 25.3791 73.8649 26.5896 72.3705 26.5896Z" fill="#9B9892"/>
<path d="M64.4362 26.6791C65.9794 26.6791 67.2303 25.4281 67.2303 23.8849C67.2303 22.3418 65.9794 21.0908 64.4362 21.0908C62.8931 21.0908 61.6421 22.3418 61.6421 23.8849C61.6421 25.4281 62.8931 26.6791 64.4362 26.6791Z" fill="#9B9892"/>
<path d="M59.2318 23.8938C59.2367 22.3869 58.019 21.1614 56.5122 21.1566C55.0053 21.1517 53.7798 22.3693 53.7749 23.8762C53.7701 25.3831 54.9877 26.6086 56.4945 26.6134C58.0014 26.6183 59.2269 25.4007 59.2318 23.8938Z" fill="#9B9892"/>
<path d="M48.5699 26.393C49.955 26.393 51.0778 25.2702 51.0778 23.8851C51.0778 22.5 49.955 21.3772 48.5699 21.3772C47.1848 21.3772 46.062 22.5 46.062 23.8851C46.062 25.2702 47.1848 26.393 48.5699 26.393Z" fill="#9B9892"/>
<path d="M40.6355 26.0411C39.4437 26.0411 38.4795 25.0769 38.4795 23.8851C38.4795 22.6957 39.4437 21.7291 40.6355 21.7291C41.8273 21.7291 42.7915 22.6933 42.7915 23.8851C42.7915 25.0746 41.8249 26.0411 40.6355 26.0411Z" fill="#9B9892"/>
<path d="M32.701 25.5555C31.7767 25.5555 31.0283 24.8071 31.0283 23.8828C31.0283 22.9608 31.7767 22.2101 32.701 22.2101C33.6254 22.2101 34.3738 22.9585 34.3738 23.8828C34.3738 24.8071 33.6254 25.5555 32.701 25.5555Z" fill="#9B9892"/>
<path d="M24.7698 25.0065C24.1505 25.0065 23.6484 24.5044 23.6484 23.8851C23.6484 23.2657 24.1505 22.7637 24.7698 22.7637C25.3892 22.7637 25.8912 23.2657 25.8912 23.8851C25.8912 24.5044 25.3892 25.0065 24.7698 25.0065Z" fill="#9B9892"/>
<path d="M16.8356 24.369C16.568 24.369 16.3521 24.153 16.3521 23.8854C16.3521 23.6178 16.568 23.4019 16.8356 23.4019C17.1032 23.4019 17.3192 23.6178 17.3192 23.8854C17.3192 24.153 17.1032 24.369 16.8356 24.369Z" fill="#9B9892"/>
<path d="M8.90168 23.9307C8.87787 23.9307 8.85645 23.9116 8.85645 23.8854C8.85645 23.8616 8.87549 23.8402 8.90168 23.8402C8.92549 23.8402 8.94692 23.8593 8.94692 23.8854C8.94692 23.9093 8.92787 23.9307 8.90168 23.9307Z" fill="#9B9892"/>
<path d="M119.972 32.148C119.789 32.148 119.641 32.0001 119.641 31.8171C119.641 31.634 119.789 31.4861 119.972 31.4861C120.155 31.4861 120.303 31.634 120.303 31.8171C120.3 32.0001 120.152 32.148 119.972 32.148Z" fill="#9B9892"/>
<path d="M112.037 32.8727C111.453 32.8727 110.981 32.4011 110.981 31.8169C110.981 31.2328 111.453 30.7612 112.037 30.7612C112.621 30.7612 113.092 31.2351 113.092 31.8169C113.092 32.3988 112.618 32.8727 112.037 32.8727Z" fill="#9B9892"/>
<path d="M104.103 33.5764C103.132 33.5764 102.343 32.7882 102.343 31.8169C102.343 30.8456 103.132 30.0574 104.103 30.0574C105.074 30.0574 105.862 30.8456 105.862 31.8169C105.862 32.7882 105.076 33.5764 104.103 33.5764Z" fill="#9B9892"/>
<path d="M96.1706 34.2144C94.8451 34.2144 93.7729 33.1399 93.7729 31.8167C93.7729 30.4935 94.8474 29.4191 96.1706 29.4191C97.4961 29.4191 98.5682 30.4935 98.5682 31.8167C98.5682 33.1399 97.4938 34.2144 96.1706 34.2144Z" fill="#9B9892"/>
<path d="M88.2366 34.7635C86.6084 34.7635 85.2876 33.4427 85.2876 31.8169C85.2876 30.1887 86.6084 28.8702 88.2366 28.8702C89.8647 28.8702 91.1855 30.1887 91.1855 31.8169C91.1855 33.445 89.8647 34.7635 88.2366 34.7635Z" fill="#9B9892"/>
<path d="M80.3026 35.1808C82.1619 35.1808 83.6691 33.6746 83.6691 31.8166C83.6691 29.9586 82.1619 28.4524 80.3026 28.4524C78.4433 28.4524 76.936 29.9586 76.936 31.8166C76.936 33.6746 78.4433 35.1808 80.3026 35.1808Z" fill="#9B9892"/>
<path d="M72.3705 35.446C70.3647 35.446 68.7412 33.8202 68.7412 31.8167C68.7412 29.8132 70.367 28.1874 72.3705 28.1874C74.374 28.1874 75.9998 29.8132 75.9998 31.8167C75.9998 33.8202 74.374 35.446 72.3705 35.446Z" fill="#9B9892"/>
<path d="M64.4359 35.5565C62.3714 35.5565 60.6963 33.8815 60.6963 31.817C60.6963 29.7525 62.3714 28.0774 64.4359 28.0774C66.5004 28.0774 68.1754 29.7525 68.1754 31.817C68.1754 33.8815 66.5004 35.5565 64.4359 35.5565Z" fill="#9B9892"/>
<path d="M56.5019 35.4675C54.4843 35.4675 52.8491 33.8323 52.8491 31.8171C52.8491 29.7995 54.4843 28.1666 56.5019 28.1666C58.5195 28.1666 60.1547 29.8018 60.1547 31.8171C60.1547 33.8323 58.5195 35.4675 56.5019 35.4675Z" fill="#9B9892"/>
<path d="M48.5698 35.2044C46.6977 35.2044 45.1821 33.6889 45.1821 31.8167C45.1821 29.947 46.7 28.4291 48.5698 28.4291C50.4419 28.4291 51.9575 29.9446 51.9575 31.8167C51.9575 33.6865 50.4396 35.2044 48.5698 35.2044Z" fill="#9B9892"/>
<path d="M43.6069 31.8337C43.6167 30.1934 42.2949 28.8556 40.6546 28.8458C39.0142 28.836 37.6765 30.1578 37.6667 31.7981C37.6569 33.4384 38.9787 34.7762 40.619 34.786C42.2593 34.7958 43.597 33.474 43.6069 31.8337Z" fill="#9B9892"/>
<path d="M32.7209 34.2601C34.0697 34.2498 35.1547 33.148 35.1444 31.7992C35.134 30.4504 34.0322 29.3654 32.6834 29.3757C31.3346 29.386 30.2496 30.4878 30.2599 31.8366C30.2703 33.1854 31.3721 34.2705 32.7209 34.2601Z" fill="#9B9892"/>
<path d="M24.7695 33.6421C23.7608 33.6421 22.9443 32.8257 22.9443 31.8169C22.9443 30.8081 23.7608 29.9917 24.7695 29.9917C25.7783 29.9917 26.5948 30.8081 26.5948 31.8169C26.5948 32.8257 25.776 33.6421 24.7695 33.6421Z" fill="#9B9892"/>
<path d="M16.8353 32.9384C16.2159 32.9384 15.7139 32.4363 15.7139 31.817C15.7139 31.1976 16.2159 30.6956 16.8353 30.6956C17.4546 30.6956 17.9567 31.1976 17.9567 31.817C17.9567 32.4363 17.4546 32.9384 16.8353 32.9384Z" fill="#9B9892"/>
<path d="M8.90109 32.2137C8.68279 32.2137 8.50439 32.0353 8.50439 31.817C8.50439 31.5987 8.68279 31.4203 8.90109 31.4203C9.1194 31.4203 9.29779 31.5987 9.29779 31.817C9.29779 32.0353 9.12174 32.2137 8.90109 32.2137Z" fill="#9B9892"/>
<path d="M127.903 39.8593C127.842 39.8593 127.793 39.81 127.793 39.749C127.793 39.688 127.842 39.6387 127.903 39.6387C127.964 39.6387 128.014 39.688 128.014 39.749C128.014 39.81 127.964 39.8593 127.903 39.8593Z" fill="#9B9892"/>
<path d="M119.971 40.585C119.509 40.585 119.136 40.2094 119.136 39.7493C119.136 39.2869 119.511 38.9137 119.971 38.9137C120.434 38.9137 120.807 39.2893 120.807 39.7493C120.807 40.2118 120.431 40.585 119.971 40.585Z" fill="#9B9892"/>
<path d="M112.037 41.3769C112.937 41.3769 113.665 40.6479 113.665 39.7487C113.665 38.8495 112.937 38.1206 112.037 38.1206C111.138 38.1206 110.409 38.8495 110.409 39.7487C110.409 40.6479 111.138 41.3769 112.037 41.3769Z" fill="#9B9892"/>
<path d="M104.102 42.1464C102.777 42.1464 101.705 41.0719 101.705 39.7487C101.705 38.4256 102.779 37.3511 104.102 37.3511C105.428 37.3511 106.5 38.4256 106.5 39.7487C106.5 41.0719 105.428 42.1464 104.102 42.1464Z" fill="#9B9892"/>
<path d="M96.1708 42.8502C94.4582 42.8502 93.0693 41.4614 93.0693 39.7488C93.0693 38.0362 94.4582 36.6473 96.1708 36.6473C97.8834 36.6473 99.2722 38.0362 99.2722 39.7488C99.2722 41.4614 97.8834 42.8502 96.1708 42.8502Z" fill="#9B9892"/>
<path d="M88.2365 43.4648C90.2902 43.4648 91.955 41.8011 91.955 39.7487C91.955 37.6964 90.2902 36.0326 88.2365 36.0326C86.1829 36.0326 84.5181 37.6964 84.5181 39.7487C84.5181 41.8011 86.1829 43.4648 88.2365 43.4648Z" fill="#9B9892"/>
<path d="M80.302 43.9717C77.97 43.9717 76.0791 42.0808 76.0791 39.7489C76.0791 37.4169 77.97 35.526 80.302 35.526C82.6339 35.526 84.5248 37.4169 84.5248 39.7489C84.5272 42.0808 82.6363 43.9717 80.302 43.9717Z" fill="#9B9892"/>
<path d="M72.3705 44.3024C69.8556 44.3024 67.8169 42.2637 67.8169 39.7487C67.8169 37.2338 69.8556 35.1951 72.3705 35.1951C74.8855 35.1951 76.9242 37.2338 76.9242 39.7487C76.9242 42.2637 74.8855 44.3024 72.3705 44.3024Z" fill="#9B9892"/>
<path d="M64.436 44.4339C61.8483 44.4339 59.751 42.3365 59.751 39.7489C59.751 37.1612 61.8483 35.0638 64.436 35.0638C67.0237 35.0638 69.121 37.1612 69.121 39.7489C69.121 42.3365 67.0237 44.4339 64.436 44.4339Z" fill="#9B9892"/>
<path d="M56.502 44.3236C53.9753 44.3236 51.9272 42.2755 51.9272 39.7488C51.9272 37.2222 53.9753 35.1741 56.502 35.1741C59.0287 35.1741 61.0768 37.2222 61.0768 39.7488C61.0791 42.2755 59.031 44.3236 56.502 44.3236Z" fill="#9B9892"/>
<path d="M48.5692 44.0163C46.2114 44.0163 44.3018 42.1066 44.3018 39.7489C44.3018 37.3911 46.2114 35.4814 48.5692 35.4814C50.927 35.4814 52.8366 37.3911 52.8366 39.7489C52.8366 42.1066 50.9246 44.0163 48.5692 44.0163Z" fill="#9B9892"/>
<path d="M40.6356 43.5094C38.557 43.5094 36.8726 41.825 36.8726 39.7487C36.8726 37.6725 38.557 35.988 40.6356 35.988C42.7142 35.988 44.3986 37.6725 44.3986 39.7487C44.3963 41.825 42.7142 43.5094 40.6356 43.5094Z" fill="#9B9892"/>
<path d="M32.7013 42.9161C30.9512 42.9161 29.5342 41.4991 29.5342 39.7489C29.5342 37.9988 30.9535 36.5818 32.7013 36.5818C34.4491 36.5818 35.8685 37.9988 35.8685 39.7489C35.8708 41.4991 34.4515 42.9161 32.7013 42.9161Z" fill="#9B9892"/>
<path d="M24.7695 42.2121C23.4088 42.2121 22.3062 41.1094 22.3062 39.7487C22.3062 38.388 23.4088 37.2854 24.7695 37.2854C26.1302 37.2854 27.2328 38.388 27.2328 39.7487C27.2328 41.1094 26.1302 42.2121 24.7695 42.2121Z" fill="#9B9892"/>
<path d="M16.8384 41.443C17.7739 41.4409 18.5306 40.6809 18.5285 39.7455C18.5265 38.81 17.7665 38.0533 16.831 38.0553C15.8956 38.0573 15.1388 38.8173 15.1409 39.7528C15.1429 40.6883 15.9029 41.445 16.8384 41.443Z" fill="#9B9892"/>
<path d="M8.90078 40.6497C8.40342 40.6497 7.99756 40.2461 7.99756 39.7488C7.99756 39.2514 8.40108 38.8479 8.90078 38.8479C9.39814 38.8479 9.80166 39.2514 9.80166 39.7488C9.804 40.2461 9.40048 40.6497 8.90078 40.6497Z" fill="#9B9892"/>
<path d="M0.968889 39.9041C0.884385 39.9041 0.813965 39.836 0.813965 39.7492C0.813965 39.6647 0.882038 39.5942 0.968889 39.5942C1.05574 39.5942 1.12381 39.6623 1.12381 39.7492C1.12147 39.8337 1.05339 39.9041 0.968889 39.9041Z" fill="#9B9892"/>
<path d="M127.903 48.0564C127.696 48.0564 127.53 47.8897 127.53 47.6832C127.53 47.4766 127.696 47.3099 127.903 47.3099C128.11 47.3099 128.276 47.4766 128.276 47.6832C128.279 47.8874 128.11 48.0564 127.903 48.0564Z" fill="#9B9892"/>
<path d="M119.971 48.9359C119.279 48.9359 118.716 48.3752 118.716 47.6831C118.716 46.991 119.277 46.4303 119.971 46.4303C120.664 46.4303 121.224 46.991 121.224 47.6831C121.224 48.3728 120.664 48.9359 119.971 48.9359Z" fill="#9B9892"/>
<path d="M112.037 49.7921C110.871 49.7921 109.926 48.8466 109.926 47.6806C109.926 46.5147 110.871 45.5692 112.037 45.5692C113.203 45.5692 114.149 46.5147 114.149 47.6806C114.149 48.8466 113.203 49.7921 112.037 49.7921Z" fill="#9B9892"/>
<path d="M104.103 50.6276C102.475 50.6276 101.154 49.3068 101.154 47.681C101.154 46.0552 102.475 44.7344 104.103 44.7344C105.731 44.7344 107.052 46.0528 107.052 47.681C107.052 49.3091 105.731 50.6276 104.103 50.6276Z" fill="#9B9892"/>
<path d="M96.1711 51.397C98.2247 51.397 99.8896 49.7332 99.8896 47.6808C99.8896 45.6285 98.2247 43.9647 96.1711 43.9647C94.1174 43.9647 92.4526 45.6285 92.4526 47.6808C92.4526 49.7332 94.1174 51.397 96.1711 51.397Z" fill="#9B9892"/>
<path d="M88.2373 52.1243C85.7834 52.1243 83.7939 50.1349 83.7939 47.6809C83.7939 45.227 85.7834 43.2375 88.2373 43.2375C90.6913 43.2375 92.6807 45.227 92.6807 47.6809C92.6807 50.1349 90.6913 52.1243 88.2373 52.1243Z" fill="#9B9892"/>
<path d="M80.3021 52.7177C77.5197 52.7177 75.2651 50.4631 75.2651 47.6807C75.2651 44.8983 77.5197 42.6438 80.3021 42.6438C83.0845 42.6438 85.339 44.8983 85.339 47.6807C85.3413 50.4631 83.0845 52.7177 80.3021 52.7177Z" fill="#9B9892"/>
<path d="M77.782 47.697C77.7916 44.7092 75.3763 42.2792 72.3871 42.2696C69.398 42.2599 66.967 44.6742 66.9574 47.6621C66.9478 50.6499 69.3631 53.0798 72.3522 53.0895C75.3414 53.0991 77.7723 50.6848 77.782 47.697Z" fill="#9B9892"/>
<path d="M64.4361 53.1798C61.398 53.1798 58.937 50.7188 58.937 47.6807C58.937 44.6426 61.4003 42.1816 64.4361 42.1816C67.4742 42.1816 69.9352 44.6426 69.9352 47.6807C69.9352 50.7188 67.4742 53.1798 64.4361 53.1798Z" fill="#9B9892"/>
<path d="M56.5018 53.1144C53.5012 53.1144 51.0684 50.6815 51.0684 47.681C51.0684 44.6804 53.5012 42.2476 56.5018 42.2476C59.5023 42.2476 61.9352 44.6804 61.9352 47.681C61.9352 50.6815 59.5023 53.1144 56.5018 53.1144Z" fill="#9B9892"/>
<path d="M48.5708 52.7619C45.7649 52.7619 43.4893 50.4862 43.4893 47.6804C43.4893 44.8745 45.7649 42.5989 48.5708 42.5989C51.3766 42.5989 53.6523 44.8745 53.6523 47.6804C53.6523 50.4862 51.3766 52.7619 48.5708 52.7619Z" fill="#9B9892"/>
<path d="M40.6359 52.1688C43.1145 52.1688 45.1239 50.1595 45.1239 47.6808C45.1239 45.2022 43.1145 43.1929 40.6359 43.1929C38.1573 43.1929 36.1479 45.2022 36.1479 47.6808C36.1479 50.1595 38.1573 52.1688 40.6359 52.1688Z" fill="#9B9892"/>
<path d="M32.7197 51.4655C34.8096 51.4557 36.4958 49.7535 36.486 47.6636C36.4762 45.5736 34.774 43.8874 32.6841 43.8972C30.5941 43.9071 28.9079 45.6093 28.9177 47.6992C28.9275 49.7891 30.6297 51.4754 32.7197 51.4655Z" fill="#9B9892"/>
<path d="M24.7695 50.6951C23.1039 50.6951 21.7549 49.3462 21.7549 47.6828C21.7549 46.0195 23.1039 44.6705 24.7695 44.6705C26.4352 44.6705 27.7842 46.0195 27.7842 47.6828C27.7818 49.3438 26.4329 50.6951 24.7695 50.6951Z" fill="#9B9892"/>
<path d="M16.8348 49.8577C15.6313 49.8577 14.6577 48.8817 14.6577 47.6805C14.6577 46.477 15.6337 45.5034 16.8348 45.5034C18.0383 45.5034 19.0119 46.4794 19.0119 47.6805C19.0119 48.884 18.0383 49.8577 16.8348 49.8577Z" fill="#9B9892"/>
<path d="M8.90089 49.0015C8.17128 49.0015 7.58008 48.4103 7.58008 47.6807C7.58008 46.9511 8.17128 46.3599 8.90089 46.3599C9.63051 46.3599 10.2217 46.9511 10.2217 47.6807C10.2217 48.4103 9.63051 49.0015 8.90089 49.0015Z" fill="#9B9892"/>
<path d="M0.968772 48.1434C0.712913 48.1434 0.506348 47.9368 0.506348 47.6809C0.506348 47.4251 0.712913 47.2185 0.968772 47.2185C1.22463 47.2185 1.4312 47.4251 1.4312 47.6809C1.4312 47.9368 1.22228 48.1434 0.968772 48.1434Z" fill="#9B9892"/>
<path d="M135.838 55.6362C135.826 55.6362 135.816 55.6268 135.816 55.6151C135.816 55.6033 135.826 55.5939 135.838 55.5939C135.849 55.5939 135.859 55.6033 135.859 55.6151C135.859 55.6268 135.849 55.6362 135.838 55.6362Z" fill="#9B9892"/>
<path d="M127.904 56.2727C127.54 56.2727 127.245 55.9769 127.245 55.6131C127.245 55.2493 127.54 54.9535 127.904 54.9535C128.268 54.9535 128.564 55.2493 128.564 55.6131C128.566 55.9793 128.27 56.2727 127.904 56.2727Z" fill="#9B9892"/>
<path d="M119.972 57.1962C119.097 57.1962 118.388 56.4877 118.388 55.6126C118.388 54.7376 119.097 54.0291 119.972 54.0291C120.847 54.0291 121.555 54.7376 121.555 55.6126C121.555 56.4877 120.844 57.1962 119.972 57.1962Z" fill="#9B9892"/>
<path d="M112.037 58.0996C110.664 58.0996 109.55 56.9876 109.55 55.6152C109.55 54.2428 110.662 53.1307 112.037 53.1307C113.409 53.1307 114.523 54.2428 114.523 55.6152C114.523 56.9853 113.409 58.0996 112.037 58.0996Z" fill="#9B9892"/>
<path d="M107.471 55.6301C107.481 53.7721 105.981 52.2579 104.122 52.248C102.263 52.2382 100.747 53.7364 100.738 55.5944C100.728 57.4524 102.227 58.9666 104.086 58.9765C105.946 58.9863 107.461 57.4881 107.471 55.6301Z" fill="#9B9892"/>
<path d="M96.1711 59.8357C93.8391 59.8357 91.9482 57.9448 91.9482 55.6129C91.9482 53.2809 93.8391 51.39 96.1711 51.39C98.5031 51.39 100.394 53.2809 100.394 55.6129C100.394 57.9448 98.5031 59.8357 96.1711 59.8357Z" fill="#9B9892"/>
<path d="M88.2366 60.6494C85.4542 60.6494 83.1997 58.3949 83.1997 55.6125C83.1997 52.8301 85.4542 50.5756 88.2366 50.5756C91.019 50.5756 93.2736 52.8301 93.2736 55.6125C93.2736 58.3949 91.019 60.6494 88.2366 60.6494Z" fill="#9B9892"/>
<path d="M80.3026 61.1775C77.2293 61.1775 74.7378 58.6861 74.7378 55.6128C74.7378 52.5395 77.2293 50.048 80.3026 50.048C83.3759 50.048 85.8674 52.5395 85.8674 55.6128C85.8697 58.6861 83.3782 61.1775 80.3026 61.1775Z" fill="#9B9892"/>
<path d="M72.3701 61.2221C69.271 61.2221 66.7607 58.7119 66.7607 55.6128C66.7607 52.516 69.2733 50.0034 72.3701 50.0034C75.4692 50.0034 77.9795 52.5137 77.9795 55.6128C77.9795 58.7119 75.4669 61.2221 72.3701 61.2221Z" fill="#9B9892"/>
<path d="M64.436 61.2221C61.3369 61.2221 58.8267 58.7119 58.8267 55.6128C58.8267 52.516 61.3393 50.0034 64.436 50.0034C67.5351 50.0034 70.0454 52.5137 70.0454 55.6128C70.0454 58.7119 67.5351 61.2221 64.436 61.2221Z" fill="#9B9892"/>
<path d="M56.5015 61.2221C53.4023 61.2221 50.8921 58.7119 50.8921 55.6128C50.8921 52.516 53.4047 50.0034 56.5015 50.0034C59.6006 50.0034 62.1108 52.5137 62.1108 55.6128C62.1108 58.7119 59.6006 61.2221 56.5015 61.2221Z" fill="#9B9892"/>
<path d="M48.5697 61.1988C51.656 61.1988 54.1579 58.6979 54.1579 55.6129C54.1579 52.5279 51.656 50.027 48.5697 50.027C45.4834 50.027 42.9814 52.5279 42.9814 55.6129C42.9814 58.6979 45.4834 61.1988 48.5697 61.1988Z" fill="#9B9892"/>
<path d="M40.6357 60.7154C37.8158 60.7154 35.5308 58.4303 35.5308 55.6128C35.5308 52.7952 37.8158 50.5101 40.6357 50.5101C43.4533 50.5101 45.7407 52.7952 45.7407 55.6128C45.7383 58.4303 43.4533 60.7154 40.6357 60.7154Z" fill="#9B9892"/>
<path d="M32.701 59.9009C30.3316 59.9009 28.4102 57.9819 28.4102 55.6124C28.4102 53.2429 30.3316 51.3239 32.701 51.3239C35.0705 51.3239 36.9919 53.2453 36.9919 55.6124C36.9919 57.9819 35.0705 59.9009 32.701 59.9009Z" fill="#9B9892"/>
<path d="M28.1976 55.6497C28.217 53.7543 26.6961 52.2021 24.8007 52.1828C22.9054 52.1635 21.3532 53.6843 21.3338 55.5797C21.3145 57.4751 22.8353 59.0273 24.7307 59.0466C26.6261 59.0659 28.1783 57.5451 28.1976 55.6497Z" fill="#9B9892"/>
<path d="M16.8342 58.1653C18.2439 58.1653 19.3867 57.0225 19.3867 55.6128C19.3867 54.2031 18.2439 53.0603 16.8342 53.0603C15.4245 53.0603 14.2817 54.2031 14.2817 55.6128C14.2817 57.0225 15.4245 58.1653 16.8342 58.1653Z" fill="#9B9892"/>
<path d="M8.90121 57.2619C7.99095 57.2619 7.25195 56.5229 7.25195 55.6126C7.25195 54.7024 7.99095 53.9634 8.90121 53.9634C9.81147 53.9634 10.5505 54.7024 10.5505 55.6126C10.5528 56.5252 9.81382 57.2619 8.90121 57.2619Z" fill="#9B9892"/>
<path d="M0.969014 56.3617C0.555884 56.3617 0.220215 56.0261 0.220215 55.6129C0.220215 55.1998 0.555884 54.8641 0.969014 54.8641C1.38214 54.8641 1.71781 55.1998 1.71781 55.6129C1.71547 56.0261 1.38214 56.3617 0.969014 56.3617Z" fill="#9B9892"/>
<path d="M135.838 63.6112C135.8 63.6112 135.771 63.5805 135.771 63.545C135.771 63.5096 135.802 63.4789 135.838 63.4789C135.875 63.4789 135.904 63.5096 135.904 63.545C135.904 63.5829 135.873 63.6112 135.838 63.6112Z" fill="#9B9892"/>
<path d="M127.904 64.3831C127.442 64.3831 127.068 64.0075 127.068 63.5474C127.068 63.085 127.444 62.7118 127.904 62.7118C128.364 62.7118 128.74 63.0874 128.74 63.5474C128.742 64.0075 128.366 64.3831 127.904 64.3831Z" fill="#9B9892"/>
<path d="M119.971 65.3276C118.988 65.3276 118.188 64.53 118.188 63.547C118.188 62.564 118.986 61.7664 119.971 61.7664C120.954 61.7664 121.754 62.564 121.754 63.547C121.752 64.53 120.954 65.3276 119.971 65.3276Z" fill="#9B9892"/>
<path d="M112.037 66.2521C110.543 66.2521 109.332 65.0416 109.332 63.5471C109.332 62.0527 110.543 60.8422 112.037 60.8422C113.531 60.8422 114.742 62.0527 114.742 63.5471C114.742 65.0392 113.531 66.2521 112.037 66.2521Z" fill="#9B9892"/>
<path d="M104.103 67.1739C102.097 67.1739 100.474 65.5481 100.474 63.5446C100.474 61.5411 102.099 59.9153 104.103 59.9153C106.106 59.9153 107.732 61.5411 107.732 63.5446C107.732 65.5504 106.109 67.1739 104.103 67.1739Z" fill="#9B9892"/>
<path d="M96.1699 68.098C93.6549 68.098 91.6162 66.0593 91.6162 63.5444C91.6162 61.0294 93.6549 58.9907 96.1699 58.9907C98.6848 58.9907 100.724 61.0294 100.724 63.5444C100.724 66.0593 98.6848 68.098 96.1699 68.098Z" fill="#9B9892"/>
<path d="M93.6482 63.5622C93.6578 60.5744 91.2425 58.1444 88.2533 58.1348C85.2642 58.1252 82.8332 60.5395 82.8236 63.5273C82.814 66.5151 85.2293 68.9451 88.2184 68.9547C91.2076 68.9644 93.6386 66.55 93.6482 63.5622Z" fill="#9B9892"/>
<path d="M80.3017 69.1541C77.2026 69.1541 74.6924 66.6439 74.6924 63.5448C74.6924 60.448 77.205 57.9354 80.3017 57.9354C83.4009 57.9354 85.9111 60.4457 85.9111 63.5448C85.9111 66.6439 83.4009 69.1541 80.3017 69.1541Z" fill="#9B9892"/>
<path d="M72.3701 69.1541C69.271 69.1541 66.7607 66.6439 66.7607 63.5448C66.7607 60.448 69.2733 57.9354 72.3701 57.9354C75.4692 57.9354 77.9795 60.4457 77.9795 63.5448C77.9795 66.6439 75.4669 69.1541 72.3701 69.1541Z" fill="#9B9892"/>
<path d="M64.436 69.1541C61.3369 69.1541 58.8267 66.6439 58.8267 63.5448C58.8267 60.448 61.3393 57.9354 64.436 57.9354C67.5351 57.9354 70.0454 60.4457 70.0454 63.5448C70.0454 66.6439 67.5351 69.1541 64.436 69.1541Z" fill="#9B9892"/>
<path d="M56.5015 69.1541C53.4023 69.1541 50.8921 66.6439 50.8921 63.5448C50.8921 60.448 53.4047 57.9354 56.5015 57.9354C59.6006 57.9354 62.1108 60.4457 62.1108 63.5448C62.1108 66.6439 59.6006 69.1541 56.5015 69.1541Z" fill="#9B9892"/>
<path d="M48.5698 69.1541C45.4707 69.1541 42.9604 66.6439 42.9604 63.5448C42.9604 60.448 45.4731 57.9354 48.5698 57.9354C51.6689 57.9354 54.1792 60.4457 54.1792 63.5448C54.1792 66.6439 51.6666 69.1541 48.5698 69.1541Z" fill="#9B9892"/>
<path d="M40.6356 68.9991C37.6233 68.9991 35.1787 66.5569 35.1787 63.5446C35.1787 60.5323 37.6209 58.0901 40.6356 58.0901C43.6479 58.0901 46.0924 60.5323 46.0924 63.5446C46.0924 66.5569 43.6479 68.9991 40.6356 68.9991Z" fill="#9B9892"/>
<path d="M32.7019 68.1874C30.1377 68.1874 28.0591 66.1088 28.0591 63.5469C28.0591 60.9827 30.1377 58.9065 32.7019 58.9065C35.2661 58.9065 37.3447 60.9851 37.3447 63.5469C37.3447 66.1088 35.2661 68.1874 32.7019 68.1874Z" fill="#9B9892"/>
<path d="M24.7692 67.2608C26.8229 67.2608 28.4877 65.5971 28.4877 63.5447C28.4877 61.4924 26.8229 59.8286 24.7692 59.8286C22.7156 59.8286 21.0508 61.4924 21.0508 63.5447C21.0508 65.5971 22.7156 67.2608 24.7692 67.2608Z" fill="#9B9892"/>
<path d="M16.8351 66.3386C18.3783 66.3386 19.6293 65.0876 19.6293 63.5445C19.6293 62.0013 18.3783 60.7504 16.8351 60.7504C15.292 60.7504 14.041 62.0013 14.041 63.5445C14.041 65.0876 15.292 66.3386 16.8351 66.3386Z" fill="#9B9892"/>
<path d="M8.90141 65.3933C7.88088 65.3933 7.05273 64.5651 7.05273 63.5446C7.05273 62.5241 7.88088 61.6959 8.90141 61.6959C9.92193 61.6959 10.7501 62.5241 10.7501 63.5446C10.7501 64.5651 9.92193 65.3933 8.90141 65.3933Z" fill="#9B9892"/>
<path d="M0.96877 64.4688C0.459681 64.4688 0.0444336 64.0559 0.0444336 63.5444C0.0444336 63.0354 0.457335 62.6201 0.96877 62.6201C1.4802 62.6201 1.89311 63.033 1.89311 63.5444C1.89076 64.0559 1.47786 64.4688 0.96877 64.4688Z" fill="#9B9892"/>
<path d="M135.838 71.5658C135.788 71.5658 135.749 71.5259 135.749 71.4766C135.749 71.4273 135.788 71.3898 135.838 71.3898C135.887 71.3898 135.925 71.4297 135.925 71.4766C135.925 71.5259 135.887 71.5658 135.838 71.5658Z" fill="#9B9892"/>
<path d="M127.903 72.3798C127.406 72.3798 127.002 71.9762 127.002 71.4789C127.002 70.9815 127.406 70.578 127.903 70.578C128.401 70.578 128.804 70.9815 128.804 71.4789C128.807 71.9762 128.403 72.3798 127.903 72.3798Z" fill="#9B9892"/>
<path d="M119.971 73.3253C118.951 73.3253 118.123 72.4971 118.123 71.4766C118.123 70.4561 118.951 69.6279 119.971 69.6279C120.992 69.6279 121.82 70.4561 121.82 71.4766C121.818 72.4971 120.992 73.3253 119.971 73.3253Z" fill="#9B9892"/>
<path d="M112.037 74.2706C113.58 74.2706 114.831 73.0196 114.831 71.4765C114.831 69.9333 113.58 68.6824 112.037 68.6824C110.494 68.6824 109.243 69.9333 109.243 71.4765C109.243 73.0196 110.494 74.2706 112.037 74.2706Z" fill="#9B9892"/>
<path d="M104.103 75.2163C102.038 75.2163 100.363 73.5413 100.363 71.4768C100.363 69.4122 102.038 67.7372 104.103 67.7372C106.167 67.7372 107.842 69.4122 107.842 71.4768C107.842 73.5413 106.17 75.2163 104.103 75.2163Z" fill="#9B9892"/>
<path d="M96.1714 76.1614C93.5837 76.1614 91.4863 74.0641 91.4863 71.4764C91.4863 68.8887 93.5837 66.7914 96.1714 66.7914C98.759 66.7914 100.856 68.8887 100.856 71.4764C100.856 74.0641 98.759 76.1614 96.1714 76.1614Z" fill="#9B9892"/>
<path d="M88.2364 76.9755C85.1983 76.9755 82.7373 74.5145 82.7373 71.4764C82.7373 68.4383 85.2006 65.9773 88.2364 65.9773C91.2745 65.9773 93.7355 68.4383 93.7355 71.4764C93.7355 74.5145 91.2745 76.9755 88.2364 76.9755Z" fill="#9B9892"/>
<path d="M80.3017 77.086C77.2026 77.086 74.6924 74.5758 74.6924 71.4767C74.6924 68.3799 77.205 65.8673 80.3017 65.8673C83.4009 65.8673 85.9111 68.3776 85.9111 71.4767C85.9111 74.5758 83.4009 77.086 80.3017 77.086Z" fill="#9B9892"/>
<path d="M72.3701 77.086C69.271 77.086 66.7607 74.5758 66.7607 71.4767C66.7607 68.3799 69.2733 65.8673 72.3701 65.8673C75.4692 65.8673 77.9795 68.3776 77.9795 71.4767C77.9795 74.5758 75.4669 77.086 72.3701 77.086Z" fill="#9B9892"/>
<path d="M64.436 77.086C61.3369 77.086 58.8267 74.5758 58.8267 71.4767C58.8267 68.3799 61.3393 65.8673 64.436 65.8673C67.5351 65.8673 70.0454 68.3776 70.0454 71.4767C70.0454 74.5758 67.5351 77.086 64.436 77.086Z" fill="#9B9892"/>
<path d="M56.5015 77.086C53.4023 77.086 50.8921 74.5758 50.8921 71.4767C50.8921 68.3799 53.4047 65.8673 56.5015 65.8673C59.6006 65.8673 62.1108 68.3776 62.1108 71.4767C62.1108 74.5758 59.6006 77.086 56.5015 77.086Z" fill="#9B9892"/>
<path d="M48.5698 77.086C45.4707 77.086 42.9604 74.5758 42.9604 71.4767C42.9604 68.3799 45.4731 65.8673 48.5698 65.8673C51.6689 65.8673 54.1792 68.3776 54.1792 71.4767C54.1792 74.5758 51.6666 77.086 48.5698 77.086Z" fill="#9B9892"/>
<path d="M40.636 77.0203C37.5744 77.0203 35.0923 74.5382 35.0923 71.4767C35.0923 68.4151 37.5744 65.933 40.636 65.933C43.6975 65.933 46.1796 68.4151 46.1796 71.4767C46.1796 74.5382 43.6975 77.0203 40.636 77.0203Z" fill="#9B9892"/>
<path d="M32.7014 76.2509C35.3381 76.2509 37.4756 74.1134 37.4756 71.4767C37.4756 68.84 35.3381 66.7025 32.7014 66.7025C30.0647 66.7025 27.9272 68.84 27.9272 71.4767C27.9272 74.1134 30.0647 76.2509 32.7014 76.2509Z" fill="#9B9892"/>
<path d="M24.7692 75.3053C22.6554 75.3053 20.9404 73.5927 20.9404 71.479C20.9404 69.3652 22.6554 67.6526 24.7692 67.6526C26.8829 67.6526 28.5979 69.3652 28.5979 71.479C28.5955 73.5904 26.8829 75.3053 24.7692 75.3053Z" fill="#9B9892"/>
<path d="M16.8355 74.3596C15.2449 74.3596 13.9546 73.0693 13.9546 71.4787C13.9546 69.8881 15.2449 68.5978 16.8355 68.5978C18.4261 68.5978 19.7164 69.8881 19.7164 71.4787C19.7164 73.0693 18.4261 74.3596 16.8355 74.3596Z" fill="#9B9892"/>
<path d="M8.90118 73.3911C7.84312 73.3911 6.98682 72.5348 6.98682 71.4767C6.98682 70.421 7.84312 69.5624 8.90118 69.5624C9.95924 69.5624 10.8155 70.4187 10.8155 71.4767C10.8155 72.5348 9.95924 73.3911 8.90118 73.3911Z" fill="#9B9892"/>
<path d="M0.968911 72.4455C0.434016 72.4455 0 72.0115 0 71.4766C0 70.9417 0.434016 70.51 0.968911 70.51C1.50381 70.51 1.93782 70.944 1.93782 71.4766C1.93548 72.0115 1.50146 72.4455 0.968911 72.4455Z" fill="#9B9892"/>
<path d="M135.838 79.4978C135.788 79.4978 135.749 79.4579 135.749 79.4086C135.749 79.3593 135.788 79.3218 135.838 79.3218C135.887 79.3218 135.925 79.3617 135.925 79.4086C135.925 79.4579 135.887 79.4978 135.838 79.4978Z" fill="#9B9892"/>
<path d="M127.904 80.2682C127.43 80.2682 127.045 79.8832 127.045 79.4091C127.045 78.9349 127.43 78.5499 127.904 78.5499C128.378 78.5499 128.763 78.9349 128.763 79.4091C128.763 79.8832 128.378 80.2682 127.904 80.2682Z" fill="#9B9892"/>
<path d="M119.971 81.1914C118.988 81.1914 118.188 80.3938 118.188 79.4108C118.188 78.4278 118.986 77.6301 119.971 77.6301C120.954 77.6301 121.754 78.4278 121.754 79.4108C121.752 80.3938 120.954 81.1914 119.971 81.1914Z" fill="#9B9892"/>
<path d="M112.058 82.1385C113.564 82.1285 114.778 80.8988 114.768 79.392C114.758 77.8851 113.528 76.6716 112.021 76.6816C110.515 76.6916 109.301 77.9213 109.311 79.4281C109.321 80.935 110.551 82.1485 112.058 82.1385Z" fill="#9B9892"/>
<path d="M104.103 83.0612C102.085 83.0612 100.45 81.426 100.45 79.4108C100.45 77.3932 102.085 75.7604 104.103 75.7604C106.121 75.7604 107.756 77.3956 107.756 79.4108C107.756 81.426 106.121 83.0612 104.103 83.0612Z" fill="#9B9892"/>
<path d="M96.171 83.9857C93.6443 83.9857 91.5962 81.9376 91.5962 79.4109C91.5962 76.8843 93.6443 74.8362 96.171 74.8362C98.6976 74.8362 100.746 76.8843 100.746 79.4109C100.746 81.9376 98.6976 83.9857 96.171 83.9857Z" fill="#9B9892"/>
<path d="M88.2361 84.8419C85.2356 84.8419 82.8027 82.4091 82.8027 79.4085C82.8027 76.4079 85.2356 73.9751 88.2361 73.9751C91.2367 73.9751 93.6695 76.4079 93.6695 79.4085C93.6695 82.4114 91.2367 84.8419 88.2361 84.8419Z" fill="#9B9892"/>
<path d="M80.3017 85.0179C77.2026 85.0179 74.6924 82.5077 74.6924 79.4086C74.6924 76.3118 77.205 73.7992 80.3017 73.7992C83.4009 73.7992 85.9111 76.3094 85.9111 79.4086C85.9111 82.5077 83.4009 85.0179 80.3017 85.0179Z" fill="#9B9892"/>
<path d="M72.3701 85.0179C69.271 85.0179 66.7607 82.5077 66.7607 79.4086C66.7607 76.3118 69.2733 73.7992 72.3701 73.7992C75.4692 73.7992 77.9795 76.3094 77.9795 79.4086C77.9795 82.5077 75.4669 85.0179 72.3701 85.0179Z" fill="#9B9892"/>
<path d="M64.436 85.0179C61.3369 85.0179 58.8267 82.5077 58.8267 79.4086C58.8267 76.3118 61.3393 73.7992 64.436 73.7992C67.5351 73.7992 70.0454 76.3094 70.0454 79.4086C70.0454 82.5077 67.5351 85.0179 64.436 85.0179Z" fill="#9B9892"/>
<path d="M56.5015 85.0179C53.4023 85.0179 50.8921 82.5077 50.8921 79.4086C50.8921 76.3118 53.4047 73.7992 56.5015 73.7992C59.6006 73.7992 62.1108 76.3094 62.1108 79.4086C62.1108 82.5077 59.6006 85.0179 56.5015 85.0179Z" fill="#9B9892"/>
<path d="M48.5698 85.0179C45.4707 85.0179 42.9604 82.5077 42.9604 79.4086C42.9604 76.3118 45.4731 73.7992 48.5698 73.7992C51.6689 73.7992 54.1792 76.3094 54.1792 79.4086C54.1792 82.5077 51.6666 85.0179 48.5698 85.0179Z" fill="#9B9892"/>
<path d="M46.1125 79.4267C46.122 76.4013 43.6772 73.9409 40.6518 73.9314C37.6264 73.9218 35.1661 76.3666 35.1565 79.392C35.1469 82.4174 37.5917 84.8778 40.6171 84.8873C43.6426 84.8969 46.1029 82.4521 46.1125 79.4267Z" fill="#9B9892"/>
<path d="M32.701 84.0724C35.2768 84.0724 37.3649 81.9843 37.3649 79.4085C37.3649 76.8327 35.2768 74.7446 32.701 74.7446C30.1252 74.7446 28.0371 76.8327 28.0371 79.4085C28.0371 81.9843 30.1252 84.0724 32.701 84.0724Z" fill="#9B9892"/>
<path d="M24.7694 83.1481C22.7049 83.1481 21.0298 81.473 21.0298 79.4085C21.0298 77.344 22.7049 75.6689 24.7694 75.6689C26.8339 75.6689 28.5089 77.344 28.5089 79.4085C28.5089 81.4754 26.8339 83.1481 24.7694 83.1481Z" fill="#9B9892"/>
<path d="M16.8351 82.2026C18.3783 82.2026 19.6293 80.9517 19.6293 79.4085C19.6293 77.8654 18.3783 76.6144 16.8351 76.6144C15.292 76.6144 14.041 77.8654 14.041 79.4085C14.041 80.9517 15.292 82.2026 16.8351 82.2026Z" fill="#9B9892"/>
<path d="M10.7702 79.4167C10.7739 78.384 9.93977 77.5439 8.90711 77.5402C7.87446 77.5365 7.03432 78.3706 7.03062 79.4033C7.02693 80.4359 7.86106 81.2761 8.89371 81.2798C9.92637 81.2835 10.7665 80.4493 10.7702 79.4167Z" fill="#9B9892"/>
<path d="M0.96877 80.3328C0.459681 80.3328 0.0444336 79.9199 0.0444336 79.4085C0.0444336 78.8994 0.457335 78.4841 0.96877 78.4841C1.4802 78.4841 1.89311 78.897 1.89311 79.4085C1.89076 79.9199 1.47786 80.3328 0.96877 80.3328Z" fill="#9B9892"/>
<path d="M135.838 87.3642C135.826 87.3642 135.816 87.3547 135.816 87.343C135.816 87.3312 135.826 87.3218 135.838 87.3218C135.849 87.3218 135.859 87.3312 135.859 87.343C135.859 87.3547 135.849 87.3642 135.838 87.3642Z" fill="#9B9892"/>
<path d="M127.904 88.0241C127.526 88.0241 127.221 87.719 127.221 87.341C127.221 86.9655 127.526 86.658 127.904 86.658C128.282 86.658 128.587 86.9631 128.587 87.341C128.587 87.719 128.282 88.0241 127.904 88.0241Z" fill="#9B9892"/>
<path d="M119.971 88.9475C119.084 88.9475 118.364 88.2296 118.364 87.3428C118.364 86.456 119.084 85.7382 119.971 85.7382C120.858 85.7382 121.575 86.456 121.575 87.3428C121.575 88.2296 120.858 88.9475 119.971 88.9475Z" fill="#9B9892"/>
<path d="M112.037 89.8508C113.422 89.8508 114.545 88.7279 114.545 87.3429C114.545 85.9578 113.422 84.835 112.037 84.835C110.652 84.835 109.529 85.9578 109.529 87.3429C109.529 88.7279 110.652 89.8508 112.037 89.8508Z" fill="#9B9892"/>
<path d="M104.103 90.7279C102.23 90.7279 100.715 89.2123 100.715 87.3402C100.715 85.4704 102.233 83.9525 104.103 83.9525C105.975 83.9525 107.49 85.4681 107.49 87.3402C107.49 89.2123 105.975 90.7279 104.103 90.7279Z" fill="#9B9892"/>
<path d="M96.1708 91.6103C93.813 91.6103 91.9033 89.7006 91.9033 87.3429C91.9033 84.9851 93.813 83.0754 96.1708 83.0754C98.5285 83.0754 100.438 84.9851 100.438 87.3429C100.438 89.6983 98.5262 91.6103 96.1708 91.6103Z" fill="#9B9892"/>
<path d="M88.2363 92.4219C85.4304 92.4219 83.1548 90.1463 83.1548 87.3404C83.1548 84.5346 85.4304 82.2589 88.2363 82.2589C91.0421 82.2589 93.3178 84.5346 93.3178 87.3404C93.3178 90.1486 91.0421 92.4219 88.2363 92.4219Z" fill="#9B9892"/>
<path d="M80.3021 92.9289C83.3884 92.9289 85.8904 90.428 85.8904 87.343C85.8904 84.258 83.3884 81.7571 80.3021 81.7571C77.2158 81.7571 74.7139 84.258 74.7139 87.343C74.7139 90.428 77.2158 92.9289 80.3021 92.9289Z" fill="#9B9892"/>
<path d="M72.3701 92.9496C69.271 92.9496 66.7607 90.4393 66.7607 87.3402C66.7607 84.2434 69.2733 81.7308 72.3701 81.7308C75.4692 81.7308 77.9795 84.2411 77.9795 87.3402C77.9795 90.4393 75.4669 92.9496 72.3701 92.9496Z" fill="#9B9892"/>
<path d="M64.436 92.9496C61.3369 92.9496 58.8267 90.4393 58.8267 87.3402C58.8267 84.2434 61.3393 81.7308 64.436 81.7308C67.5351 81.7308 70.0454 84.2411 70.0454 87.3402C70.0454 90.4393 67.5351 92.9496 64.436 92.9496Z" fill="#9B9892"/>
<path d="M56.5015 92.9496C53.4023 92.9496 50.8921 90.4393 50.8921 87.3402C50.8921 84.2434 53.4047 81.7308 56.5015 81.7308C59.6006 81.7308 62.1108 84.2411 62.1108 87.3402C62.1108 90.4393 59.6006 92.9496 56.5015 92.9496Z" fill="#9B9892"/>
<path d="M48.5697 92.9289C51.656 92.9289 54.1579 90.428 54.1579 87.343C54.1579 84.258 51.656 81.7571 48.5697 81.7571C45.4834 81.7571 42.9814 84.258 42.9814 87.343C42.9814 90.428 45.4834 92.9289 48.5697 92.9289Z" fill="#9B9892"/>
<path d="M40.6355 92.4898C37.7921 92.4898 35.4883 90.186 35.4883 87.3426C35.4883 84.4992 37.7921 82.1954 40.6355 82.1954C43.4789 82.1954 45.7827 84.4992 45.7827 87.3426C45.7827 90.1837 43.4789 92.4898 40.6355 92.4898Z" fill="#9B9892"/>
<path d="M32.7018 91.6761C30.3088 91.6761 28.3687 89.736 28.3687 87.343C28.3687 84.9501 30.3088 83.0099 32.7018 83.0099C35.0947 83.0099 37.0349 84.9501 37.0349 87.343C37.0372 89.736 35.0971 91.6761 32.7018 91.6761Z" fill="#9B9892"/>
<path d="M24.7693 90.8172C22.8502 90.8172 21.2925 89.2618 21.2925 87.3428C21.2925 85.4237 22.8479 83.8683 24.7693 83.8683C26.6907 83.8683 28.2461 85.4237 28.2461 87.3428C28.2438 89.2618 26.6884 90.8172 24.7693 90.8172Z" fill="#9B9892"/>
<path d="M16.8353 89.9162C15.4136 89.9162 14.2617 88.7643 14.2617 87.3426C14.2617 85.9209 15.4136 84.769 16.8353 84.769C18.257 84.769 19.4089 85.9209 19.4089 87.3426C19.4089 88.762 18.257 89.9162 16.8353 89.9162Z" fill="#9B9892"/>
<path d="M8.90075 89.0132C7.97641 89.0132 7.22803 88.2648 7.22803 87.3404C7.22803 86.4161 7.97641 85.6677 8.90075 85.6677C9.82508 85.6677 10.5735 86.4161 10.5735 87.3404C10.5735 88.2648 9.82508 89.0132 8.90075 89.0132Z" fill="#9B9892"/>
<path d="M0.969014 88.0898C0.555884 88.0898 0.220215 87.7541 0.220215 87.341C0.220215 86.9278 0.555884 86.5922 0.969014 86.5922C1.38214 86.5922 1.71781 86.9278 1.71781 87.341C1.71547 87.7564 1.38214 88.0898 0.969014 88.0898Z" fill="#9B9892"/>
<path d="M127.904 95.6927C127.674 95.6927 127.486 95.5049 127.486 95.2749C127.486 95.0448 127.674 94.8571 127.904 94.8571C128.134 94.8571 128.321 95.0448 128.321 95.2749C128.321 95.5049 128.136 95.6927 127.904 95.6927Z" fill="#9B9892"/>
<path d="M119.971 96.5486C119.267 96.5486 118.695 95.9785 118.695 95.2723C118.695 94.5685 119.265 93.9961 119.971 93.9961C120.675 93.9961 121.247 94.5662 121.247 95.2723C121.245 95.9785 120.675 96.5486 119.971 96.5486Z" fill="#9B9892"/>
<path d="M114.197 95.2878C114.206 94.0971 113.249 93.1238 112.058 93.1139C110.868 93.1041 109.894 94.0614 109.885 95.2521C109.875 96.4428 110.832 97.4161 112.023 97.4259C113.213 97.4358 114.187 96.4785 114.197 95.2878Z" fill="#9B9892"/>
<path d="M107.075 95.2905C107.085 93.6501 105.763 92.3125 104.123 92.3028C102.483 92.2931 101.145 93.6149 101.135 95.2553C101.126 96.8956 102.447 98.2332 104.088 98.2429C105.728 98.2527 107.066 96.9308 107.075 95.2905Z" fill="#9B9892"/>
<path d="M96.1703 99.0354C94.0917 99.0354 92.4072 97.351 92.4072 95.2747C92.4072 93.1985 94.0917 91.514 96.1703 91.514C98.2488 91.514 99.9333 93.1985 99.9333 95.2747C99.9309 97.351 98.2465 99.0354 96.1703 99.0354Z" fill="#9B9892"/>
<path d="M88.236 99.7627C90.7146 99.7627 92.724 97.7533 92.724 95.2747C92.724 92.7961 90.7146 90.7867 88.236 90.7867C85.7574 90.7867 83.748 92.7961 83.748 95.2747C83.748 97.7533 85.7574 99.7627 88.236 99.7627Z" fill="#9B9892"/>
<path d="M80.3022 100.377C77.4823 100.377 75.1973 98.0923 75.1973 95.2747C75.1973 92.4572 77.4823 90.1721 80.3022 90.1721C83.1222 90.1721 85.4072 92.4572 85.4072 95.2747C85.4072 98.0923 83.1222 100.377 80.3022 100.377Z" fill="#9B9892"/>
<path d="M72.37 100.729C69.3577 100.729 66.9131 98.2869 66.9131 95.2746C66.9131 92.2623 69.3553 89.8201 72.37 89.8201C75.3823 89.8201 77.8268 92.2623 77.8268 95.2746C77.8245 98.2869 75.3823 100.729 72.37 100.729Z" fill="#9B9892"/>
<path d="M64.4363 100.816C61.3747 100.816 58.8926 98.3342 58.8926 95.2727C58.8926 92.2111 61.3747 89.729 64.4363 89.729C67.4978 89.729 69.9799 92.2111 69.9799 95.2727C69.9799 98.3366 67.4978 100.816 64.4363 100.816Z" fill="#9B9892"/>
<path d="M61.9817 95.2874C61.9889 92.262 59.5421 89.8036 56.5167 89.7964C53.4913 89.7892 51.0329 92.236 51.0257 95.2614C51.0185 98.2868 53.4653 100.745 56.4907 100.752C59.5161 100.76 61.9745 98.3128 61.9817 95.2874Z" fill="#9B9892"/>
<path d="M48.5705 100.422C45.7271 100.422 43.4233 98.1183 43.4233 95.2749C43.4233 92.4315 45.7271 90.1277 48.5705 90.1277C51.4139 90.1277 53.7177 92.4315 53.7177 95.2749C53.7177 98.1159 51.4116 100.422 48.5705 100.422Z" fill="#9B9892"/>
<path d="M40.6357 99.8284C38.1207 99.8284 36.082 97.7897 36.082 95.2747C36.082 92.7598 38.1207 90.7211 40.6357 90.7211C43.1506 90.7211 45.1893 92.7598 45.1893 95.2747C45.1893 97.7897 43.1506 99.8284 40.6357 99.8284Z" fill="#9B9892"/>
<path d="M32.7008 99.1011C30.587 99.1011 28.8721 97.3885 28.8721 95.2747C28.8721 93.161 30.587 91.4484 32.7008 91.4484C34.8146 91.4484 36.5295 93.161 36.5295 95.2747C36.5295 97.3885 34.8146 99.1011 32.7008 99.1011Z" fill="#9B9892"/>
<path d="M24.7698 98.3318C23.0806 98.3318 21.7129 96.964 21.7129 95.2749C21.7129 93.5858 23.083 92.218 24.7698 92.218C26.4589 92.218 27.8266 93.5858 27.8266 95.2749C27.8266 96.9617 26.4566 98.3318 24.7698 98.3318Z" fill="#9B9892"/>
<path d="M16.835 97.4966C15.608 97.4966 14.6133 96.5019 14.6133 95.2749C14.6133 94.0479 15.608 93.0532 16.835 93.0532C18.0619 93.0532 19.0567 94.0479 19.0567 95.2749C19.0567 96.5019 18.0619 97.4966 16.835 97.4966Z" fill="#9B9892"/>
<path d="M8.90113 96.6377C8.14805 96.6377 7.53809 96.0277 7.53809 95.2747C7.53809 94.5216 8.14805 93.9116 8.90113 93.9116C9.65421 93.9116 10.2642 94.5216 10.2642 95.2747C10.2665 96.0277 9.65421 96.6377 8.90113 96.6377Z" fill="#9B9892"/>
<path d="M0.969391 95.7584C0.701795 95.7584 0.48584 95.5424 0.48584 95.2748C0.48584 95.0072 0.701795 94.7913 0.969391 94.7913C1.23699 94.7913 1.45294 95.0072 1.45294 95.2748C1.45294 95.5424 1.23699 95.7584 0.969391 95.7584Z" fill="#9B9892"/>
<path d="M127.903 103.338C127.831 103.338 127.772 103.279 127.772 103.207C127.772 103.134 127.831 103.075 127.903 103.075C127.976 103.075 128.035 103.134 128.035 103.207C128.037 103.279 127.976 103.338 127.903 103.338Z" fill="#9B9892"/>
<path d="M119.972 104.087C119.486 104.087 119.092 103.693 119.092 103.207C119.092 102.721 119.486 102.327 119.972 102.327C120.458 102.327 120.852 102.721 120.852 103.207C120.852 103.693 120.458 104.087 119.972 104.087Z" fill="#9B9892"/>
<path d="M112.037 104.877C111.113 104.877 110.364 104.129 110.364 103.204C110.364 102.28 111.113 101.532 112.037 101.532C112.961 101.532 113.71 102.28 113.71 103.204C113.71 104.129 112.961 104.877 112.037 104.877Z" fill="#9B9892"/>
<path d="M106.549 103.222C106.559 101.873 105.473 100.772 104.124 100.762C102.775 100.753 101.674 101.838 101.665 103.187C101.655 104.536 102.741 105.637 104.09 105.647C105.438 105.656 106.54 104.57 106.549 103.222Z" fill="#9B9892"/>
<path d="M96.1706 106.374C94.4204 106.374 93.0034 104.957 93.0034 103.207C93.0034 101.457 94.4228 100.04 96.1706 100.04C97.9184 100.04 99.3377 101.457 99.3377 103.207C99.3377 104.954 97.9184 106.374 96.1706 106.374Z" fill="#9B9892"/>
<path d="M92.0218 103.222C92.0314 101.133 90.345 99.4305 88.2551 99.4208C86.1652 99.4112 84.4631 101.098 84.4535 103.188C84.4439 105.277 86.1303 106.979 88.2202 106.989C90.3101 106.999 92.0121 105.312 92.0218 103.222Z" fill="#9B9892"/>
<path d="M80.3021 107.495C77.9326 107.495 76.0112 105.574 76.0112 103.207C76.0112 100.837 77.9326 98.9182 80.3021 98.9182C82.6716 98.9182 84.593 100.84 84.593 103.207C84.593 105.576 82.6716 107.495 80.3021 107.495Z" fill="#9B9892"/>
<path d="M72.3703 107.847C69.8061 107.847 67.7275 105.768 67.7275 103.207C67.7275 100.642 69.8061 98.5662 72.3703 98.5662C74.9345 98.5662 77.0131 100.645 77.0131 103.207C77.0108 105.768 74.9322 107.847 72.3703 107.847Z" fill="#9B9892"/>
<path d="M64.4363 107.981C67.073 107.981 69.2105 105.843 69.2105 103.207C69.2105 100.57 67.073 98.4325 64.4363 98.4325C61.7996 98.4325 59.6621 100.57 59.6621 103.207C59.6621 105.843 61.7996 107.981 64.4363 107.981Z" fill="#9B9892"/>
<path d="M56.5018 107.87C59.0776 107.87 61.1657 105.782 61.1657 103.207C61.1657 100.631 59.0776 98.5426 56.5018 98.5426C53.926 98.5426 51.8379 100.631 51.8379 103.207C51.8379 105.782 53.926 107.87 56.5018 107.87Z" fill="#9B9892"/>
<path d="M48.5699 107.54C46.177 107.54 44.2368 105.6 44.2368 103.207C44.2368 100.814 46.177 98.8735 48.5699 98.8735C50.9629 98.8735 52.9031 100.814 52.9031 103.207C52.9031 105.6 50.9629 107.54 48.5699 107.54Z" fill="#9B9892"/>
<path d="M40.6359 107.033C38.5221 107.033 36.8071 105.32 36.8071 103.207C36.8071 101.093 38.5221 99.3802 40.6359 99.3802C42.7496 99.3802 44.4646 101.093 44.4646 103.207C44.4646 105.32 42.7496 107.033 40.6359 107.033Z" fill="#9B9892"/>
<path d="M32.701 106.418C30.9274 106.418 29.4893 104.98 29.4893 103.207C29.4893 101.433 30.9274 99.995 32.701 99.995C34.4746 99.995 35.9127 101.433 35.9127 103.207C35.9127 104.98 34.4746 106.418 32.701 106.418Z" fill="#9B9892"/>
<path d="M24.7701 105.715C26.1552 105.715 27.278 104.592 27.278 103.207C27.278 101.822 26.1552 100.699 24.7701 100.699C23.385 100.699 22.2622 101.822 22.2622 103.207C22.2622 104.592 23.385 105.715 24.7701 105.715Z" fill="#9B9892"/>
<path d="M16.8346 104.945C17.7947 104.945 18.573 104.167 18.573 103.207C18.573 102.246 17.7947 101.468 16.8346 101.468C15.8745 101.468 15.0962 102.246 15.0962 103.207C15.0962 104.167 15.8745 104.945 16.8346 104.945Z" fill="#9B9892"/>
<path d="M8.90102 104.152C8.37785 104.152 7.95557 103.73 7.95557 103.206C7.95557 102.683 8.3802 102.261 8.90102 102.261C9.42418 102.261 9.84647 102.683 9.84647 103.206C9.84647 103.727 9.42418 104.152 8.90102 104.152Z" fill="#9B9892"/>
<path d="M0.969019 103.383C0.872778 103.383 0.792969 103.303 0.792969 103.207C0.792969 103.111 0.872778 103.031 0.969019 103.031C1.06526 103.031 1.14507 103.111 1.14507 103.207C1.14507 103.303 1.06526 103.383 0.969019 103.383Z" fill="#9B9892"/>
<path d="M119.971 111.512C119.765 111.512 119.598 111.345 119.598 111.139C119.598 110.932 119.765 110.766 119.971 110.766C120.178 110.766 120.345 110.932 120.345 111.139C120.345 111.345 120.178 111.512 119.971 111.512Z" fill="#9B9892"/>
<path d="M112.037 112.26C111.418 112.26 110.916 111.758 110.916 111.138C110.916 110.519 111.418 110.017 112.037 110.017C112.656 110.017 113.158 110.519 113.158 111.138C113.158 111.758 112.656 112.26 112.037 112.26Z" fill="#9B9892"/>
<path d="M104.103 112.964C103.094 112.964 102.278 112.147 102.278 111.139C102.278 110.13 103.094 109.313 104.103 109.313C105.112 109.313 105.928 110.13 105.928 111.139C105.931 112.147 105.112 112.964 104.103 112.964Z" fill="#9B9892"/>
<path d="M96.1704 113.602C94.8097 113.602 93.707 112.499 93.707 111.139C93.707 109.778 94.8097 108.675 96.1704 108.675C97.5311 108.675 98.6337 109.778 98.6337 111.139C98.6337 112.499 97.5311 113.602 96.1704 113.602Z" fill="#9B9892"/>
<path d="M88.2368 114.151C86.5711 114.151 85.2222 112.802 85.2222 111.139C85.2222 109.475 86.5711 108.126 88.2368 108.126C89.9025 108.126 91.2515 109.475 91.2515 111.139C91.2515 112.802 89.9001 114.151 88.2368 114.151Z" fill="#9B9892"/>
<path d="M83.7372 111.155C83.7468 109.26 82.2178 107.715 80.3223 107.706C78.4267 107.696 76.8823 109.225 76.8727 111.121C76.8632 113.016 78.3921 114.561 80.2877 114.57C82.1833 114.58 83.7277 113.051 83.7372 111.155Z" fill="#9B9892"/>
<path d="M72.3703 114.857C74.424 114.857 76.0888 113.192 76.0888 111.139C76.0888 109.085 74.424 107.42 72.3703 107.42C70.3167 107.42 68.6519 109.085 68.6519 111.139C68.6519 113.192 70.3167 114.857 72.3703 114.857Z" fill="#9B9892"/>
<path d="M64.4361 114.965C62.3224 114.965 60.6074 113.253 60.6074 111.139C60.6074 109.025 62.32 107.312 64.4361 107.312C66.5499 107.312 68.2649 109.025 68.2649 111.139C68.2649 113.253 66.5499 114.965 64.4361 114.965Z" fill="#9B9892"/>
<path d="M56.5023 114.878C54.4378 114.878 52.7627 113.203 52.7627 111.138C52.7627 109.074 54.4378 107.399 56.5023 107.399C58.5668 107.399 60.2418 109.074 60.2418 111.138C60.2418 113.203 58.5691 114.878 56.5023 114.878Z" fill="#9B9892"/>
<path d="M48.5696 114.613C46.6505 114.613 45.0928 113.058 45.0928 111.139C45.0928 109.219 46.6482 107.664 48.5696 107.664C50.491 107.664 52.0464 109.219 52.0464 111.139C52.0441 113.058 50.4886 114.613 48.5696 114.613Z" fill="#9B9892"/>
<path d="M40.636 114.196C38.9468 114.196 37.5791 112.828 37.5791 111.139C37.5791 109.45 38.9492 108.082 40.636 108.082C42.3251 108.082 43.6929 109.45 43.6929 111.139C43.6929 112.828 42.3251 114.196 40.636 114.196Z" fill="#9B9892"/>
<path d="M32.7018 113.646C34.0868 113.646 35.2097 112.523 35.2097 111.138C35.2097 109.753 34.0868 108.63 32.7018 108.63C31.3167 108.63 30.1938 109.753 30.1938 111.138C30.1938 112.523 31.3167 113.646 32.7018 113.646Z" fill="#9B9892"/>
<path d="M24.7692 113.008C25.8019 113.008 26.639 112.171 26.639 111.139C26.639 110.106 25.8019 109.269 24.7692 109.269C23.7365 109.269 22.8994 110.106 22.8994 111.139C22.8994 112.171 23.7365 113.008 24.7692 113.008Z" fill="#9B9892"/>
<path d="M16.8354 112.304C17.4794 112.304 18.0014 111.782 18.0014 111.139C18.0014 110.495 17.4794 109.973 16.8354 109.973C16.1915 109.973 15.6694 110.495 15.6694 111.139C15.6694 111.782 16.1915 112.304 16.8354 112.304Z" fill="#9B9892"/>
<path d="M8.90126 111.578C8.65714 111.578 8.45996 111.381 8.45996 111.136C8.45996 110.892 8.65714 110.698 8.90126 110.698C9.14538 110.698 9.34256 110.895 9.34256 111.136C9.34256 111.381 9.14538 111.578 8.90126 111.578Z" fill="#9B9892"/>
<path d="M119.972 119.116C119.948 119.116 119.927 119.097 119.927 119.071C119.927 119.047 119.946 119.026 119.972 119.026C119.998 119.026 120.017 119.045 120.017 119.071C120.015 119.095 119.996 119.116 119.972 119.116Z" fill="#9B9892"/>
<path d="M112.037 119.554C111.77 119.554 111.554 119.338 111.554 119.071C111.554 118.803 111.77 118.587 112.037 118.587C112.305 118.587 112.521 118.803 112.521 119.071C112.521 119.338 112.305 119.554 112.037 119.554Z" fill="#9B9892"/>
<path d="M104.103 120.192C103.484 120.192 102.982 119.69 102.982 119.07C102.982 118.451 103.484 117.949 104.103 117.949C104.723 117.949 105.225 118.451 105.225 119.07C105.225 119.69 104.723 120.192 104.103 120.192Z" fill="#9B9892"/>
<path d="M96.1709 120.765C97.1064 120.765 97.8647 120.006 97.8647 119.071C97.8647 118.135 97.1064 117.377 96.1709 117.377C95.2354 117.377 94.4771 118.135 94.4771 119.071C94.4771 120.006 95.2354 120.765 96.1709 120.765Z" fill="#9B9892"/>
<path d="M88.2362 121.248C87.0327 121.248 86.0591 120.272 86.0591 119.07C86.0591 117.867 87.035 116.893 88.2362 116.893C89.4397 116.893 90.4133 117.869 90.4133 119.07C90.4133 120.274 89.4397 121.248 88.2362 121.248Z" fill="#9B9892"/>
<path d="M80.302 121.623C81.7117 121.623 82.8545 120.48 82.8545 119.071C82.8545 117.661 81.7117 116.518 80.302 116.518C78.8923 116.518 77.7495 117.661 77.7495 119.071C77.7495 120.48 78.8923 121.623 80.302 121.623Z" fill="#9B9892"/>
<path d="M72.3703 121.864C73.9134 121.864 75.1644 120.614 75.1644 119.07C75.1644 117.527 73.9134 116.276 72.3703 116.276C70.8271 116.276 69.5762 117.527 69.5762 119.07C69.5762 120.614 70.8271 121.864 72.3703 121.864Z" fill="#9B9892"/>
<path d="M64.4361 121.951C62.8455 121.951 61.5552 120.661 61.5552 119.07C61.5552 117.48 62.8455 116.189 64.4361 116.189C66.0267 116.189 67.317 117.48 67.317 119.07C67.317 120.661 66.0267 121.951 64.4361 121.951Z" fill="#9B9892"/>
<path d="M56.506 121.865C58.0492 121.862 59.2982 120.609 59.2958 119.066C59.2933 117.523 58.0404 116.274 56.4972 116.277C54.9541 116.279 53.7051 117.532 53.7075 119.075C53.7099 120.618 54.9629 121.867 56.506 121.865Z" fill="#9B9892"/>
<path d="M48.5702 121.644C47.1485 121.644 45.9966 120.492 45.9966 119.071C45.9966 117.649 47.1485 116.497 48.5702 116.497C49.9919 116.497 51.1438 117.649 51.1438 119.071C51.1438 120.492 49.9919 121.644 48.5702 121.644Z" fill="#9B9892"/>
<path d="M40.6353 121.292C39.4083 121.292 38.4136 120.297 38.4136 119.07C38.4136 117.843 39.4083 116.849 40.6353 116.849C41.8622 116.849 42.857 117.843 42.857 119.07C42.857 120.297 41.8622 121.292 40.6353 121.292Z" fill="#9B9892"/>
<path d="M32.705 120.809C33.6651 120.807 34.4416 120.027 34.4394 119.067C34.4371 118.107 33.657 117.33 32.6969 117.333C31.7368 117.335 30.9603 118.115 30.9625 119.075C30.9648 120.035 31.7449 120.812 32.705 120.809Z" fill="#9B9892"/>
<path d="M24.769 120.236C25.413 120.236 25.935 119.714 25.935 119.071C25.935 118.427 25.413 117.905 24.769 117.905C24.1251 117.905 23.603 118.427 23.603 119.071C23.603 119.714 24.1251 120.236 24.769 120.236Z" fill="#9B9892"/>
<path d="M16.8359 119.62C16.5331 119.62 16.2866 119.374 16.2866 119.071C16.2866 118.768 16.5331 118.521 16.8359 118.521C17.1387 118.521 17.3852 118.768 17.3852 119.071C17.3852 119.374 17.1387 119.62 16.8359 119.62Z" fill="#9B9892"/>
<path d="M8.90168 119.116C8.87787 119.116 8.85645 119.097 8.85645 119.071C8.85645 119.047 8.87549 119.026 8.90168 119.026C8.92549 119.026 8.94692 119.045 8.94692 119.071C8.94692 119.095 8.92787 119.116 8.90168 119.116Z" fill="#9B9892"/>
<path d="M112.037 127.048C112.014 127.048 111.992 127.029 111.992 127.003C111.992 126.979 112.011 126.958 112.037 126.958C112.064 126.958 112.083 126.977 112.083 127.003C112.083 127.027 112.061 127.048 112.037 127.048Z" fill="#9B9892"/>
<path d="M104.103 127.399C103.885 127.399 103.707 127.221 103.707 127.003C103.707 126.784 103.885 126.606 104.103 126.606C104.322 126.606 104.5 126.784 104.5 127.003C104.5 127.221 104.322 127.399 104.103 127.399Z" fill="#9B9892"/>
<path d="M96.1709 127.906C95.6735 127.906 95.27 127.502 95.27 127.005C95.27 126.507 95.6735 126.104 96.1709 126.104C96.6683 126.104 97.0718 126.507 97.0718 127.005C97.0718 127.5 96.6683 127.906 96.1709 127.906Z" fill="#9B9892"/>
<path d="M88.2368 128.323C87.5072 128.323 86.916 127.732 86.916 127.002C86.916 126.273 87.5072 125.682 88.2368 125.682C88.9664 125.682 89.5576 126.273 89.5576 127.002C89.5576 127.732 88.9664 128.323 88.2368 128.323Z" fill="#9B9892"/>
<path d="M80.3021 128.652C79.3918 128.652 78.6528 127.913 78.6528 127.002C78.6528 126.092 79.3918 125.353 80.3021 125.353C81.2124 125.353 81.9514 126.092 81.9514 127.002C81.9537 127.913 81.2147 128.652 80.3021 128.652Z" fill="#9B9892"/>
<path d="M72.3702 128.851C71.3496 128.851 70.5215 128.023 70.5215 127.002C70.5215 125.982 71.3496 125.154 72.3702 125.154C73.3907 125.154 74.2188 125.982 74.2188 127.002C74.2165 128.023 73.3907 128.851 72.3702 128.851Z" fill="#9B9892"/>
<path d="M66.3548 127.017C66.3644 125.96 65.515 125.095 64.4578 125.086C63.4005 125.076 62.5356 125.925 62.5261 126.983C62.5165 128.04 63.3659 128.905 64.4231 128.914C65.4804 128.924 66.3453 128.074 66.3548 127.017Z" fill="#9B9892"/>
<path d="M56.5016 128.872C55.4694 128.872 54.6318 128.035 54.6318 127.002C54.6318 125.97 55.4694 125.133 56.5016 125.133C57.5339 125.133 58.3714 125.97 58.3714 127.002C58.3714 128.035 57.5339 128.872 56.5016 128.872Z" fill="#9B9892"/>
<path d="M48.5697 128.675C47.6454 128.675 46.897 127.927 46.897 127.002C46.897 126.08 47.6454 125.33 48.5697 125.33C49.494 125.33 50.2424 126.078 50.2424 127.002C50.2401 127.927 49.4917 128.675 48.5697 128.675Z" fill="#9B9892"/>
<path d="M40.6355 128.365C39.8824 128.365 39.2725 127.756 39.2725 127.002C39.2725 126.249 39.8824 125.639 40.6355 125.639C41.3886 125.639 41.9986 126.249 41.9986 127.002C41.9986 127.756 41.3886 128.365 40.6355 128.365Z" fill="#9B9892"/>
<path d="M32.7013 127.948C32.1781 127.948 31.7559 127.526 31.7559 127.003C31.7559 126.479 32.1805 126.057 32.7013 126.057C33.2245 126.057 33.6468 126.479 33.6468 127.003C33.6468 127.526 33.2245 127.948 32.7013 127.948Z" fill="#9B9892"/>
<path d="M24.7699 127.444C24.5258 127.444 24.3286 127.247 24.3286 127.003C24.3286 126.758 24.5258 126.564 24.7699 126.564C25.014 126.564 25.2112 126.761 25.2112 127.003C25.2089 127.247 25.0117 127.444 24.7699 127.444Z" fill="#9B9892"/>
<path d="M16.8358 127.048C16.812 127.048 16.7905 127.029 16.7905 127.003C16.7905 126.979 16.8096 126.958 16.8358 126.958C16.862 126.958 16.881 126.977 16.881 127.003C16.881 127.027 16.8596 127.048 16.8358 127.048Z" fill="#9B9892"/>
<path d="M96.1705 135.09C96.086 135.09 96.0156 135.021 96.0156 134.935C96.0156 134.85 96.0837 134.78 96.1705 134.78C96.2574 134.78 96.3255 134.848 96.3255 134.935C96.3231 135.019 96.2551 135.09 96.1705 135.09Z" fill="#9B9892"/>
<path d="M88.2368 135.397C87.981 135.397 87.7744 135.19 87.7744 134.934C87.7744 134.679 87.981 134.472 88.2368 134.472C88.4927 134.472 88.6993 134.679 88.6993 134.934C88.6993 135.19 88.4927 135.397 88.2368 135.397Z" fill="#9B9892"/>
<path d="M80.3025 135.683C79.8894 135.683 79.5537 135.348 79.5537 134.935C79.5537 134.521 79.8894 134.186 80.3025 134.186C80.7156 134.186 81.0513 134.521 81.0513 134.935C81.0513 135.348 80.7156 135.683 80.3025 135.683Z" fill="#9B9892"/>
<path d="M72.3706 135.859C71.8615 135.859 71.4463 135.446 71.4463 134.934C71.4463 134.425 71.8592 134.01 72.3706 134.01C72.8797 134.01 73.295 134.423 73.295 134.934C73.2926 135.446 72.8797 135.859 72.3706 135.859Z" fill="#9B9892"/>
<path d="M64.4362 135.903C63.9013 135.903 63.4673 135.469 63.4673 134.935C63.4673 134.4 63.9013 133.968 64.4362 133.968C64.9711 133.968 65.4051 134.402 65.4051 134.935C65.4051 135.469 64.9711 135.903 64.4362 135.903Z" fill="#9B9892"/>
<path d="M56.502 135.859C55.9929 135.859 55.5776 135.446 55.5776 134.934C55.5776 134.425 55.9905 134.01 56.502 134.01C57.0111 134.01 57.4263 134.423 57.4263 134.934C57.4263 135.446 57.0134 135.859 56.502 135.859Z" fill="#9B9892"/>
<path d="M48.5706 135.683C48.1574 135.683 47.8218 135.348 47.8218 134.935C47.8218 134.521 48.1574 134.186 48.5706 134.186C48.9837 134.186 49.3194 134.521 49.3194 134.935C49.317 135.348 48.9837 135.683 48.5706 135.683Z" fill="#9B9892"/>
<path d="M40.6359 135.421C40.3683 135.421 40.1523 135.205 40.1523 134.937C40.1523 134.669 40.3683 134.453 40.6359 134.453C40.9035 134.453 41.1194 134.669 41.1194 134.937C41.1194 135.202 40.9035 135.421 40.6359 135.421Z" fill="#9B9892"/>
<path d="M32.7014 135.11C32.6052 135.11 32.5254 135.031 32.5254 134.934C32.5254 134.838 32.6052 134.758 32.7014 134.758C32.7977 134.758 32.8775 134.838 32.8775 134.934C32.8775 135.033 32.8 135.11 32.7014 135.11Z" fill="#9B9892"/>
<path d="M80.3031 142.912C80.2792 142.912 80.2578 142.893 80.2578 142.867C80.2578 142.843 80.2769 142.822 80.3031 142.822C80.3292 142.822 80.3483 142.841 80.3483 142.867C80.3483 142.893 80.3292 142.912 80.3031 142.912Z" fill="#9B9892"/>
<path d="M72.3706 142.977C72.3095 142.977 72.2603 142.927 72.2603 142.866C72.2603 142.805 72.3095 142.756 72.3706 142.756C72.4316 142.756 72.4809 142.805 72.4809 142.866C72.4809 142.927 72.4293 142.977 72.3706 142.977Z" fill="#9B9892"/>
<path d="M64.4361 143C64.3634 143 64.3047 142.941 64.3047 142.869C64.3047 142.796 64.3634 142.737 64.4361 142.737C64.5089 142.737 64.5676 142.796 64.5676 142.869C64.5676 142.939 64.5089 143 64.4361 143Z" fill="#9B9892"/>
<path d="M56.5024 142.977C56.4414 142.977 56.3921 142.927 56.3921 142.866C56.3921 142.805 56.4414 142.756 56.5024 142.756C56.5634 142.756 56.6127 142.805 56.6127 142.866C56.6127 142.927 56.5634 142.977 56.5024 142.977Z" fill="#9B9892"/>
<path d="M48.5711 142.912C48.5473 142.912 48.5259 142.893 48.5259 142.867C48.5259 142.843 48.5449 142.822 48.5711 142.822C48.5973 142.822 48.6164 142.841 48.6164 142.867C48.614 142.893 48.5949 142.912 48.5711 142.912Z" fill="#9B9892"/>
</g>
</svg>
