<svg width="53" height="53" viewBox="0 0 53 53" fill="none" xmlns="http://www.w3.org/2000/svg">
<path d="M34.1482 18.5184L51.6509 24.8832C52.2609 25.105 52.6667 25.6844 52.6667 26.3333C52.6667 26.9823 52.2609 27.5617 51.6513 27.7835L34.1482 34.1482L27.7835 51.6509C27.5617 52.2609 26.9823 52.6667 26.3333 52.6667C25.6844 52.6667 25.105 52.2609 24.8832 51.6513L18.5184 34.1482L1.01579 27.7835C0.405833 27.5617 0 26.9823 0 26.3333C0 25.6844 0.405833 25.105 1.01579 24.8832L18.5184 18.5184L24.8832 1.01579C25.105 0.405833 25.6844 0 26.3333 0C26.9823 0 27.5617 0.405833 27.7835 1.01579L34.1482 18.5184Z" fill="#3D8AFF"/>
<path d="M34.1482 18.5184L51.6509 24.8832C52.2609 25.105 52.6667 25.6844 52.6667 26.3333C52.6667 26.9823 52.2609 27.5617 51.6513 27.7835L34.1482 34.1482L27.7835 51.6509C27.5617 52.2609 26.9823 52.6667 26.3333 52.6667C25.6844 52.6667 25.105 52.2609 24.8832 51.6513L18.5184 34.1482L1.01579 27.7835C0.405833 27.5617 0 26.9823 0 26.3333C0 25.6844 0.405833 25.105 1.01579 24.8832L18.5184 18.5184L24.8832 1.01579C25.105 0.405833 25.6844 0 26.3333 0C26.9823 0 27.5617 0.405833 27.7835 1.01579L34.1482 18.5184Z" fill="url(#paint0_radial_3041_144248)" fill-opacity="0.36"/>
<path d="M34.1482 18.5184L51.6509 24.8832C52.2609 25.105 52.6667 25.6844 52.6667 26.3333C52.6667 26.9823 52.2609 27.5617 51.6513 27.7835L34.1482 34.1482L27.7835 51.6509C27.5617 52.2609 26.9823 52.6667 26.3333 52.6667C25.6844 52.6667 25.105 52.2609 24.8832 51.6513L18.5184 34.1482L1.01579 27.7835C0.405833 27.5617 0 26.9823 0 26.3333C0 25.6844 0.405833 25.105 1.01579 24.8832L18.5184 18.5184L24.8832 1.01579C25.105 0.405833 25.6844 0 26.3333 0C26.9823 0 27.5617 0.405833 27.7835 1.01579L34.1482 18.5184Z" fill="url(#paint1_linear_3041_144248)" fill-opacity="0.24"/>
<path d="M40.7726 17.6433L42.6712 11.9468C42.8564 11.3923 42.7113 10.7811 42.2991 10.3676C41.8567 9.92644 41.2355 9.82357 40.7199 9.99555L35.0234 11.8941L36.5559 16.1108L40.7726 17.6433Z" fill="#3D8AFF"/>
<path d="M40.7726 17.6433L42.6712 11.9468C42.8564 11.3923 42.7113 10.7811 42.2991 10.3676C41.8567 9.92644 41.2355 9.82357 40.7199 9.99555L35.0234 11.8941L36.5559 16.1108L40.7726 17.6433Z" fill="url(#paint2_radial_3041_144248)" fill-opacity="0.36"/>
<path d="M40.7726 17.6433L42.6712 11.9468C42.8564 11.3923 42.7113 10.7811 42.2991 10.3676C41.8567 9.92644 41.2355 9.82357 40.7199 9.99555L35.0234 11.8941L36.5559 16.1108L40.7726 17.6433Z" fill="url(#paint3_linear_3041_144248)" fill-opacity="0.24"/>
<path d="M16.1108 16.1108L11.8941 17.6433L9.99556 11.9468C9.81033 11.3923 9.95538 10.7811 10.3676 10.3676C10.8068 9.92965 11.4284 9.82236 11.9468 9.99555L17.6433 11.8941L16.1108 16.1108Z" fill="#3D8AFF"/>
<path d="M16.1108 16.1108L11.8941 17.6433L9.99556 11.9468C9.81033 11.3923 9.95538 10.7811 10.3676 10.3676C10.8068 9.92965 11.4284 9.82236 11.9468 9.99555L17.6433 11.8941L16.1108 16.1108Z" fill="url(#paint4_radial_3041_144248)" fill-opacity="0.36"/>
<path d="M16.1108 16.1108L11.8941 17.6433L9.99556 11.9468C9.81033 11.3923 9.95538 10.7811 10.3676 10.3676C10.8068 9.92965 11.4284 9.82236 11.9468 9.99555L17.6433 11.8941L16.1108 16.1108Z" fill="url(#paint5_linear_3041_144248)" fill-opacity="0.24"/>
<path d="M11.8941 35.0234L9.99556 40.7199C9.81033 41.2744 9.95538 41.8856 10.3676 42.2991C10.8068 42.7371 11.4284 42.8443 11.9468 42.6712L17.6433 40.7726L16.1108 36.5559L11.8941 35.0234Z" fill="#3D8AFF"/>
<path d="M11.8941 35.0234L9.99556 40.7199C9.81033 41.2744 9.95538 41.8856 10.3676 42.2991C10.8068 42.7371 11.4284 42.8443 11.9468 42.6712L17.6433 40.7726L16.1108 36.5559L11.8941 35.0234Z" fill="url(#paint6_radial_3041_144248)" fill-opacity="0.36"/>
<path d="M11.8941 35.0234L9.99556 40.7199C9.81033 41.2744 9.95538 41.8856 10.3676 42.2991C10.8068 42.7371 11.4284 42.8443 11.9468 42.6712L17.6433 40.7726L16.1108 36.5559L11.8941 35.0234Z" fill="url(#paint7_linear_3041_144248)" fill-opacity="0.24"/>
<path d="M40.7726 35.0234L36.5559 36.5559L35.0234 40.7726L40.7199 42.6712C41.2355 42.8431 41.8567 42.7403 42.2991 42.2991C42.7113 41.8856 42.8564 41.2744 42.6712 40.7199L40.7726 35.0234Z" fill="#3D8AFF"/>
<path d="M40.7726 35.0234L36.5559 36.5559L35.0234 40.7726L40.7199 42.6712C41.2355 42.8431 41.8567 42.7403 42.2991 42.2991C42.7113 41.8856 42.8564 41.2744 42.6712 40.7199L40.7726 35.0234Z" fill="url(#paint8_radial_3041_144248)" fill-opacity="0.36"/>
<path d="M40.7726 35.0234L36.5559 36.5559L35.0234 40.7726L40.7199 42.6712C41.2355 42.8431 41.8567 42.7403 42.2991 42.2991C42.7113 41.8856 42.8564 41.2744 42.6712 40.7199L40.7726 35.0234Z" fill="url(#paint9_linear_3041_144248)" fill-opacity="0.24"/>
<path d="M33.595 25.9218L29.6161 23.3839L27.0782 16.405C26.9898 16.1618 26.7588 16 26.5 16C26.2412 16 26.0102 16.1618 25.9218 16.405L23.3839 23.3839L19.405 25.9218C19.1618 26.0102 19 26.2412 19 26.5C19 26.7588 19.1618 26.9898 19.405 27.0782L23.3839 29.6161L25.9218 36.5951C26.0102 36.8382 26.2412 37 26.5 37C26.7588 37 26.9898 36.8382 27.0782 36.595L29.6161 29.6161L33.5951 27.0782C33.8382 26.9898 34 26.7588 34 26.5C34 26.2412 33.8382 26.0102 33.595 25.9218Z" fill="black" fill-opacity="0.56"/>
<defs>
<radialGradient id="paint0_radial_3041_144248" cx="0" cy="0" r="1" gradientUnits="userSpaceOnUse" gradientTransform="translate(26.3333) rotate(90) scale(52.6667)">
<stop stop-color="#EFF6FF" stop-opacity="0.881019"/>
<stop offset="1" stop-color="#79B7FF" stop-opacity="0"/>
</radialGradient>
<linearGradient id="paint1_linear_3041_144248" x1="-1.56959e-06" y1="52.6667" x2="52.6667" y2="-1.56959e-06" gradientUnits="userSpaceOnUse">
<stop offset="0.200692" stop-color="white" stop-opacity="0"/>
<stop offset="0.413004" stop-color="white"/>
<stop offset="0.689282"/>
<stop offset="1" stop-color="white"/>
</linearGradient>
<radialGradient id="paint2_radial_3041_144248" cx="0" cy="0" r="1" gradientUnits="userSpaceOnUse" gradientTransform="translate(26.3333) rotate(90) scale(52.6667)">
<stop stop-color="#EFF6FF" stop-opacity="0.881019"/>
<stop offset="1" stop-color="#79B7FF" stop-opacity="0"/>
</radialGradient>
<linearGradient id="paint3_linear_3041_144248" x1="-1.56959e-06" y1="52.6667" x2="52.6667" y2="-1.56959e-06" gradientUnits="userSpaceOnUse">
<stop offset="0.200692" stop-color="white" stop-opacity="0"/>
<stop offset="0.413004" stop-color="white"/>
<stop offset="0.689282"/>
<stop offset="1" stop-color="white"/>
</linearGradient>
<radialGradient id="paint4_radial_3041_144248" cx="0" cy="0" r="1" gradientUnits="userSpaceOnUse" gradientTransform="translate(26.3333) rotate(90) scale(52.6667)">
<stop stop-color="#EFF6FF" stop-opacity="0.881019"/>
<stop offset="1" stop-color="#79B7FF" stop-opacity="0"/>
</radialGradient>
<linearGradient id="paint5_linear_3041_144248" x1="-1.56959e-06" y1="52.6667" x2="52.6667" y2="-1.56959e-06" gradientUnits="userSpaceOnUse">
<stop offset="0.200692" stop-color="white" stop-opacity="0"/>
<stop offset="0.413004" stop-color="white"/>
<stop offset="0.689282"/>
<stop offset="1" stop-color="white"/>
</linearGradient>
<radialGradient id="paint6_radial_3041_144248" cx="0" cy="0" r="1" gradientUnits="userSpaceOnUse" gradientTransform="translate(26.3333) rotate(90) scale(52.6667)">
<stop stop-color="#EFF6FF" stop-opacity="0.881019"/>
<stop offset="1" stop-color="#79B7FF" stop-opacity="0"/>
</radialGradient>
<linearGradient id="paint7_linear_3041_144248" x1="-1.56959e-06" y1="52.6667" x2="52.6667" y2="-1.56959e-06" gradientUnits="userSpaceOnUse">
<stop offset="0.200692" stop-color="white" stop-opacity="0"/>
<stop offset="0.413004" stop-color="white"/>
<stop offset="0.689282"/>
<stop offset="1" stop-color="white"/>
</linearGradient>
<radialGradient id="paint8_radial_3041_144248" cx="0" cy="0" r="1" gradientUnits="userSpaceOnUse" gradientTransform="translate(26.3333) rotate(90) scale(52.6667)">
<stop stop-color="#EFF6FF" stop-opacity="0.881019"/>
<stop offset="1" stop-color="#79B7FF" stop-opacity="0"/>
</radialGradient>
<linearGradient id="paint9_linear_3041_144248" x1="-1.56959e-06" y1="52.6667" x2="52.6667" y2="-1.56959e-06" gradientUnits="userSpaceOnUse">
<stop offset="0.200692" stop-color="white" stop-opacity="0"/>
<stop offset="0.413004" stop-color="white"/>
<stop offset="0.689282"/>
<stop offset="1" stop-color="white"/>
</linearGradient>
</defs>
</svg>
