<svg width="82" height="84" viewBox="0 0 82 84" fill="none" xmlns="http://www.w3.org/2000/svg">
<g filter="url(#filter0_d_126_97912)">
<path d="M21.4303 18.4265C21.3202 18.4147 21.2107 18.4091 21.1019 18.4091C20.2907 18.4091 19.5042 18.7288 18.9216 19.3129L21.4303 18.4265ZM21.4303 18.4265L27.7982 12.0586C27.7027 11.1651 27.9982 10.2363 28.6839 9.55055L32.0103 6.22422C34.4109 3.82355 37.6054 2.5 41.0008 2.5C44.3962 2.5 47.5891 3.8236 49.9897 6.22422L59.8975 16.132C60.384 16.6184 60.6929 17.2529 60.7778 17.9339L60.7779 17.9344L60.8764 18.7317L63.6344 21.4897C63.7433 21.4778 63.8525 21.4719 63.9624 21.4719C64.7671 21.4719 65.5553 21.7883 66.1427 22.3757L77.7758 34.0087C80.1765 36.4094 81.5 39.6039 81.5 42.9992C81.5 46.3946 80.1765 49.5891 77.7758 51.9897L75.1493 54.6163C74.5581 55.2074 73.7681 55.5201 72.9674 55.5201C72.8913 55.5201 72.8151 55.5172 72.7389 55.5114V55.7486C72.7389 56.5662 72.4133 57.3507 71.8351 57.929L67.6413 62.1227C67.0568 62.709 66.2683 63.027 65.4605 63.027C65.3509 63.027 65.2415 63.0211 65.1324 63.0093L64.3547 63.787C64.4535 64.7135 64.1283 65.6372 63.4692 66.2963L49.9897 79.7758C47.5891 82.1765 44.3946 83.5 40.9993 83.5C37.6039 83.5 34.4094 82.1765 32.0088 79.7758L25.9514 73.7184C25.3731 73.1401 25.0476 72.3556 25.0476 71.5381V71.1938L14.795 60.9413H14.4507C13.6332 60.9413 12.8487 60.6158 12.2704 60.0375L4.22422 51.9913C1.82355 49.5906 0.5 46.3961 0.5 43.0008C0.5 39.6054 1.82355 36.4109 4.22422 34.0103L4.57777 34.3638L4.22422 34.0103L4.30147 33.933C4.89255 33.3419 5.68101 33.0292 6.4833 33.0292C6.59202 33.0292 6.70106 33.0351 6.80985 33.0469L10.4077 29.449C10.3107 28.5396 10.6212 27.6133 11.2934 26.9411L18.921 19.3135L21.4303 18.4265ZM32.0312 12.1892L31.5744 11.7324L34.5472 8.75959L34.5474 8.75931C36.3281 6.97581 38.6635 6.08411 41.0008 6.08411C43.3379 6.08411 45.6735 6.97575 47.4574 8.75808C47.4574 8.75812 47.4575 8.75817 47.4575 8.75822L57.2436 18.5443L57.4512 20.2246L57.4723 20.3953L57.5939 20.5169L62.4107 25.3337L62.6334 25.5563L62.9304 25.4517L63.833 25.1337L75.2434 36.5441C78.8092 40.1099 78.8092 45.8901 75.2434 49.4559L72.8642 51.8351L72.0741 51.4676L71.757 51.3201L71.5097 51.5674L69.3042 53.7728L69.1578 53.9193V54.1264V55.5415L65.3057 59.3937L64.2561 59.1526L63.9863 59.0907L63.7906 59.2864L60.7748 62.3022L60.6049 62.4721L60.6314 62.7109L60.767 63.9323L47.4574 77.2419C45.6752 79.0241 43.3381 79.9159 41.0008 79.9159C38.6636 79.9159 36.328 79.0242 34.5441 77.2419C34.5441 77.2419 34.544 77.2418 34.544 77.2418L28.6332 71.331V69.9158V69.7087L28.4868 69.5623L16.4281 57.5036L16.2816 57.3571H16.0745H14.6594L6.7596 49.4574C3.24788 45.9457 3.19463 40.2862 6.59985 36.7094L7.42921 37.0664L7.74602 37.2028L7.98602 36.955C8.01775 36.9223 8.04702 36.8883 8.0655 36.8669C8.06782 36.8642 8.06998 36.8617 8.07195 36.8594C8.09347 36.8345 8.10278 36.8244 8.10961 36.8178L8.10965 36.8178L8.11527 36.8122L14.3468 30.5807L14.5946 30.3329L14.4463 30.0155L14.078 29.2272L21.2776 22.0276L22.4217 22.2125L22.6742 22.2533L22.855 22.0725L32.0312 12.8963L32.3848 12.5427L32.0312 12.1892Z" fill="#971335" stroke="#971335"/>
<path d="M47.544 9.7604L74.241 36.4574C77.8551 40.0715 77.8551 45.9289 74.241 49.543L47.544 76.24C43.9299 79.8541 38.0725 79.8541 34.4583 76.24L7.76137 49.543C4.14725 45.9289 4.14725 40.0715 7.76137 36.4574L34.4583 9.7604C38.0725 6.14627 43.9314 6.14627 47.544 9.7604Z" fill="#BA1B44"/>
<path d="M6.40578 49.8097L14.452 57.8559H19.9277L24.1553 62.953L28.1329 65.3144V71.5369L34.1903 77.5943C37.9514 81.3553 44.0481 81.3553 47.8092 77.5943L61.2887 64.1148L60.704 58.8511L65.4617 59.9432L69.656 55.7489V50.8943L72.9687 52.4347L75.5952 49.8082C79.3562 46.0472 79.3562 39.9504 75.5952 36.1894L63.9622 24.5563L58.7152 26.4027L57.717 18.3111L47.8092 8.40331C44.0481 4.64226 37.9514 4.64226 34.1903 8.40331L30.8655 11.7296L32.1121 12.9763L28.7555 18.1975L27.6361 22.5493L21.1031 21.492L13.475 29.1202L16.4469 35.4774L12.2193 36.2227V38.5841L6.48152 36.1106L6.40426 36.1878C2.64624 39.9519 2.64624 46.0487 6.40578 49.8097Z" fill="url(#paint0_radial_126_97912)"/>
</g>
<path d="M38.522 32.0946L41.0231 21.8363C41.1482 21.68 41.2315 21.7712 41.2576 21.8363C41.7265 24.1485 42.8051 29.3395 43.3679 31.6061C43.9306 33.8727 42.5602 34.3091 41.8047 34.244H40.3197C38.6314 34.244 38.4178 32.8111 38.522 32.0946Z" fill="#9F0F34"/>
<path d="M38.522 53.9054L41.0231 64.1637C41.1482 64.32 41.2315 64.2288 41.2576 64.1637C41.7265 61.8515 42.8051 56.6605 43.3679 54.3939C43.9306 52.1273 42.5602 51.6909 41.8047 51.756H40.3197C38.6314 51.756 38.4178 53.1889 38.522 53.9054Z" fill="#9F0F34"/>
<path d="M30.4046 39.2973L24.1411 30.9075C24.1085 30.6941 24.2404 30.6648 24.3105 30.6769C26.4685 31.5523 31.332 33.4924 33.5219 34.2493C35.7118 35.0061 35.0648 36.6061 34.4677 37.3115L33.3946 38.7719C32.1747 40.4322 30.893 39.8139 30.4046 39.2973Z" fill="#9F0F34"/>
<path d="M30.4046 45.8946L24.1411 54.2844C24.1085 54.4978 24.2404 54.527 24.3105 54.515C26.4685 53.6396 31.332 51.6995 33.5219 50.9426C35.7118 50.1858 35.0648 48.5858 34.4677 47.8804L33.3946 46.42C32.1747 44.7597 30.893 45.378 30.4046 45.8946Z" fill="#9F0F34"/>
<path d="M51.5954 39.2973L57.8589 30.9075C57.8915 30.6941 57.7596 30.6648 57.6895 30.6769C55.5315 31.5523 50.668 33.4924 48.4781 34.2493C46.2882 35.0061 46.9352 36.6061 47.5323 37.3115L48.6054 38.7719C49.8253 40.4322 51.107 39.8139 51.5954 39.2973Z" fill="#9F0F34"/>
<path d="M51.5954 45.8946L57.8589 54.2844C57.8915 54.4978 57.7596 54.527 57.6895 54.515C55.5315 53.6396 50.668 51.6995 48.4781 50.9426C46.2882 50.1858 46.9352 48.5858 47.5323 47.8804L48.6054 46.42C49.8253 44.7597 51.107 45.378 51.5954 45.8946Z" fill="#9F0F34"/>
<circle cx="41" cy="43" r="9.75" fill="#9F0F34" stroke="#F86560" stroke-width="2"/>
<circle cx="40.9328" cy="42.9811" r="3.60466" fill="#9F0F34" stroke="#F7645F"/>
<defs>
<filter id="filter0_d_126_97912" x="0" y="0" width="82" height="84" filterUnits="userSpaceOnUse" color-interpolation-filters="sRGB">
<feFlood flood-opacity="0" result="BackgroundImageFix"/>
<feColorMatrix in="SourceAlpha" type="matrix" values="0 0 0 0 0 0 0 0 0 0 0 0 0 0 0 0 0 0 127 0" result="hardAlpha"/>
<feOffset dy="-2"/>
<feComposite in2="hardAlpha" operator="out"/>
<feColorMatrix type="matrix" values="0 0 0 0 0.937255 0 0 0 0 0.160784 0 0 0 0 0.223529 0 0 0 1 0"/>
<feBlend mode="normal" in2="BackgroundImageFix" result="effect1_dropShadow_126_97912"/>
<feBlend mode="normal" in="SourceGraphic" in2="effect1_dropShadow_126_97912" result="shape"/>
</filter>
<radialGradient id="paint0_radial_126_97912" cx="0" cy="0" r="1" gradientUnits="userSpaceOnUse" gradientTransform="translate(41.001 42.9973) scale(37.4151 37.4158)">
<stop offset="0.229167" stop-color="#FB6B64"/>
<stop offset="1" stop-color="#D32437"/>
</radialGradient>
</defs>
</svg>
