<svg width="83" height="85" viewBox="0 0 83 85" fill="none" xmlns="http://www.w3.org/2000/svg">
<g filter="url(#filter0_d_126_97933)">
<path d="M47.516 9.51038L47.3796 9.82721L47.6273 10.0672C47.6604 10.0992 47.6946 10.1287 47.7163 10.1474L47.7239 10.154C47.7491 10.1758 47.7595 10.1853 47.7664 10.1925L47.7663 10.1925L47.772 10.1981L54.0815 16.5075L54.3293 16.7552L54.6467 16.6069L55.4489 16.2322L62.7439 23.527L62.5562 24.6885L62.5154 24.941L62.6963 25.1219L71.9889 34.4126L72.3424 34.7661L72.6959 34.4126L73.163 33.9455L76.1773 36.9584C76.1774 36.9584 76.1774 36.9584 76.1774 36.9585C79.7902 40.5712 79.7902 46.4274 76.1773 50.0401L66.2671 59.95L64.5636 60.1605L64.3929 60.1815L64.2713 60.3031L59.3942 65.18L59.1715 65.4027L59.2762 65.6997L59.5994 66.6174L48.0434 78.1729C46.2377 79.9786 43.8697 80.8821 41.5015 80.8821C39.1335 80.8821 36.767 79.9787 34.9596 78.1729C34.9596 78.1729 34.9595 78.1728 34.9595 78.1728L32.3709 75.5843L32.105 74.939L32.0694 74.8525L32.0048 74.7847L29.7414 72.408L29.6507 72.3128L29.525 72.2745L28.8577 72.0712L24.7508 67.9645L24.0263 66.6251L23.9916 66.561L23.9401 66.5094L21.6035 64.173L21.5356 64.105L21.4473 64.0671L20.406 63.6199L6.82573 50.0401C3.21287 46.4274 3.21287 40.5711 6.82573 36.9584L12.8125 30.9718H14.248H14.4551L14.6015 30.8254L26.8112 18.6162L26.9576 18.4698V18.2626V16.8257L34.9581 8.82554C36.7653 7.01837 39.1318 6.11637 41.5 6.11637C43.7975 6.11637 46.0937 6.96679 47.8791 8.66677L47.516 9.51038ZM20.1204 67.1578C20.2301 67.1578 20.3406 67.1527 20.4543 67.1404L21.2461 67.9323C21.1453 68.8634 21.4705 69.7991 22.141 70.4696L26.3878 74.7163C26.9722 75.3006 27.7649 75.6295 28.591 75.6295H28.8385C28.7703 76.5187 29.0853 77.4152 29.742 78.0718L32.4014 80.7311C34.8309 83.1606 38.0638 84.5 41.5 84.5C44.9362 84.5 48.1691 83.1606 50.5986 80.7311L62.3773 68.9529C63.0526 68.2777 63.372 67.3406 63.2721 66.4156L66.0685 63.6194L66.8779 63.5193L66.8784 63.5192C67.5665 63.4334 68.2076 63.1213 68.6992 62.6297L78.731 52.5983C81.1605 50.1688 82.5 46.9361 82.5 43.5C82.5 40.0639 81.1605 36.8312 78.731 34.4017L75.363 31.0339C74.755 30.4258 73.956 30.1206 73.1598 30.1206C73.0481 30.1206 72.9369 30.1267 72.8265 30.1384L66.3737 23.6859C66.4752 22.751 66.1476 21.8173 65.4784 21.1481L57.7548 13.4248C57.1574 12.8274 56.3591 12.5115 55.5501 12.5115C55.4389 12.5115 55.3277 12.5175 55.217 12.5296L51.5699 8.88266C51.6688 7.9613 51.3539 7.02414 50.6753 6.34555L50.5971 6.26733C48.169 3.83937 44.9361 2.5 41.5 2.5C38.0638 2.5 34.8309 3.83941 32.4014 6.26887L24.2545 14.4155C23.6701 14.9998 23.3412 15.7925 23.3412 16.6186V16.9697L12.9565 27.3539H12.6054C11.7793 27.3539 10.9866 27.6829 10.4022 28.2672L4.26902 34.4002C1.83947 36.8296 0.5 40.0624 0.5 43.4985C0.5 46.9345 1.83947 50.1673 4.26902 52.5968L17.9173 66.2445C18.5052 66.8324 19.2982 67.1578 20.1204 67.1578Z" fill="#1C2A9E" stroke="#1C2A9E"/>
<path d="M75.158 50.1237L48.1268 77.1538C44.4674 80.8131 38.5366 80.8131 34.8773 77.1538L7.84609 50.1237C4.18672 46.4644 4.18672 40.5339 7.84609 36.8747L34.8773 9.84452C38.5366 6.18529 44.4674 6.18529 48.1268 9.84452L75.158 36.8747C78.8158 40.5324 78.8158 46.4644 75.158 50.1237Z" fill="#3E4BC6"/>
<path d="M34.6072 8.47191L26.4587 16.6185V22.1626L21.2979 26.4429L18.9069 30.4702H12.6065L6.47329 36.6032C2.66515 40.4112 2.66515 46.5841 6.47329 50.392L20.1215 64.0398L22.03 65.3053L24.3453 68.2649L28.5921 72.5115L29.8184 73.8723L31.9478 75.8656L34.6072 78.5249C38.4153 82.3329 44.5884 82.3329 48.3965 78.5249L60.1752 66.7466L58.3057 61.4342L66.4986 60.4235L76.5304 50.392C80.3386 46.5841 80.3386 40.4112 76.5304 36.6032L73.1625 33.2369L71.9003 34.4991L66.6136 31.1006L62.2074 29.9672L63.2779 23.3527L55.5543 15.6293L49.1174 18.6383L48.3628 14.358H45.9718L48.4763 8.54859L48.3981 8.47038C44.5884 4.66392 38.4138 4.66392 34.6072 8.47191Z" fill="url(#paint0_radial_126_97933)"/>
<g filter="url(#filter1_d_126_97933)">
<path d="M56 37.8505C56 37.4153 55.6748 37.1448 55.0238 37.0388L46.2753 35.7511L42.3541 27.7233C42.1335 27.241 41.8486 27 41.5001 27C41.1517 27 40.867 27.241 40.6462 27.7233L36.7248 35.7511L27.9758 37.0388C27.3254 37.1448 27 37.4153 27 37.8505C27 38.0976 27.1453 38.3799 27.4358 38.6975L33.7796 44.9432L32.2808 53.7647C32.2576 53.9294 32.246 54.0474 32.246 54.1177C32.246 54.3647 32.307 54.5734 32.4289 54.744C32.5508 54.915 32.7337 55 32.9778 55C33.1871 55 33.4193 54.9297 33.6749 54.7885L41.4999 50.6242L49.3254 54.7885C49.5699 54.9297 49.8022 55 50.0223 55C50.2554 55 50.4322 54.915 50.5542 54.744C50.6758 54.5736 50.7367 54.3647 50.7367 54.1177C50.7367 53.965 50.7309 53.8474 50.7192 53.7647L49.2203 44.9432L55.5466 38.6975C55.8492 38.3917 56 38.1093 56 37.8505Z" fill="#1B2685"/>
</g>
</g>
<defs>
<filter id="filter0_d_126_97933" x="0" y="0" width="83" height="85" filterUnits="userSpaceOnUse" color-interpolation-filters="sRGB">
<feFlood flood-opacity="0" result="BackgroundImageFix"/>
<feColorMatrix in="SourceAlpha" type="matrix" values="0 0 0 0 0 0 0 0 0 0 0 0 0 0 0 0 0 0 127 0" result="hardAlpha"/>
<feOffset dy="-2"/>
<feComposite in2="hardAlpha" operator="out"/>
<feColorMatrix type="matrix" values="0 0 0 0 0.196078 0 0 0 0 0.266667 0 0 0 0 0.937255 0 0 0 1 0"/>
<feBlend mode="normal" in2="BackgroundImageFix" result="effect1_dropShadow_126_97933"/>
<feBlend mode="normal" in="SourceGraphic" in2="effect1_dropShadow_126_97933" result="shape"/>
</filter>
<filter id="filter1_d_126_97933" x="27" y="27" width="29" height="29.5" filterUnits="userSpaceOnUse" color-interpolation-filters="sRGB">
<feFlood flood-opacity="0" result="BackgroundImageFix"/>
<feColorMatrix in="SourceAlpha" type="matrix" values="0 0 0 0 0 0 0 0 0 0 0 0 0 0 0 0 0 0 127 0" result="hardAlpha"/>
<feOffset dy="1.5"/>
<feComposite in2="hardAlpha" operator="out"/>
<feColorMatrix type="matrix" values="0 0 0 0 0.65098 0 0 0 0 0.596078 0 0 0 0 0.992157 0 0 0 1 0"/>
<feBlend mode="normal" in2="BackgroundImageFix" result="effect1_dropShadow_126_97933"/>
<feBlend mode="normal" in="SourceGraphic" in2="effect1_dropShadow_126_97933" result="shape"/>
</filter>
<radialGradient id="paint0_radial_126_97933" cx="0" cy="0" r="1" gradientUnits="userSpaceOnUse" gradientTransform="translate(41.5014 43.4987) rotate(-90) scale(37.8828 37.8842)">
<stop offset="0.255208" stop-color="#7B7DFF"/>
<stop offset="1" stop-color="#283DED"/>
</radialGradient>
</defs>
</svg>
