<svg width="81" height="80" viewBox="0 0 81 80" fill="none" xmlns="http://www.w3.org/2000/svg">
<path d="M79.153 35.4485C79.6836 34.763 79.9723 33.9207 79.9738 33.0534V15.7732C79.9738 13.7027 79.5665 11.6525 78.7751 9.73961C77.9838 7.82675 76.8238 6.08876 75.3616 4.6249C73.8994 3.16104 72.1635 1.99999 70.2531 1.20806C68.3427 0.416132 66.2952 0.00883663 64.2276 0.00945711H58.4348C57.9248 0.00835995 57.4196 0.108411 56.9484 0.30381C56.4772 0.499208 56.0493 0.786103 55.6894 1.14794C55.6 1.23349 55.5164 1.32501 55.4394 1.42191H44.4293C44.0649 0.979539 43.6075 0.623167 43.0897 0.378198C42.5719 0.133229 42.0065 0.00569969 41.4339 0.00472855H28.1453C27.6355 0.00466513 27.1306 0.105183 26.6595 0.300523C26.1885 0.495862 25.7604 0.782213 25.3999 1.14321C25.3104 1.22876 25.2269 1.32028 25.1499 1.41718H18.9656C18.6014 0.97456 18.144 0.618 17.6261 0.373008C17.1083 0.128015 16.5428 0.000643793 15.9701 0H15.8333C11.6584 0 7.65449 1.66083 4.70239 4.61712C1.75029 7.5734 0.0918032 11.583 0.0918032 15.7638V29.7986C0.0924917 30.831 0.501204 31.8212 1.22865 32.5527L1.50226 32.8267V50.6312L1.22865 50.9052C0.501204 51.6367 0.0924917 52.6269 0.0918032 53.6592V64.222C0.0899426 66.2935 0.495917 68.345 1.28652 70.2592C2.07713 72.1735 3.23683 73.9128 4.69931 75.3778C6.16179 76.8428 7.89835 78.0047 9.80963 78.797C11.7209 79.5893 13.7694 79.9965 15.838 79.9952H39.3111C39.8217 79.9959 40.3275 79.8957 40.7994 79.7003C41.2713 79.505 41.7001 79.2183 42.0612 78.8568C42.1461 78.7717 42.2311 78.6772 42.3113 78.5828H43.5802C43.9449 79.026 44.403 79.3829 44.9217 79.6279C45.4404 79.873 46.0069 80 46.5804 79.9999H53.8827C54.9136 79.9993 55.9024 79.5899 56.6329 78.8615L56.7696 78.7197C57.1341 79.1229 57.5789 79.4452 58.0753 79.6657C58.5718 79.8862 59.1088 80 59.6519 79.9999H64.2276C68.2038 80.0108 72.0346 78.504 74.9405 75.7862C75.082 75.6587 75.2236 75.5216 75.3604 75.3846C76.8277 73.9245 77.991 72.1872 78.7829 70.2735C79.5749 68.3597 79.9796 66.3077 79.9738 64.2362V43.9468C79.9732 43.3726 79.8461 42.8056 79.6015 42.2863C79.3568 41.7669 79.0008 41.3081 78.5587 40.9424V36.2185L79.153 35.4485Z" fill="url(#paint0_linear_1_14235)"/>
<path d="M79.2852 36.1236C79.8118 35.4496 80.096 34.6174 80.0918 33.7616V16.8971C80.0918 14.8731 79.6936 12.869 78.92 10.9991C78.1464 9.12924 77.0126 7.43029 75.5832 5.99933C74.1538 4.56836 72.4569 3.43339 70.5895 2.65927C68.722 1.88515 66.7205 1.48703 64.6994 1.48765H59.0387C58.5402 1.48601 58.0464 1.58328 57.5857 1.77382C57.125 1.96436 56.7066 2.24439 56.3546 2.59777C56.2667 2.68174 56.1847 2.77171 56.1093 2.86704H45.3492C44.9941 2.43303 44.547 2.08366 44.0403 1.84425C43.5336 1.60485 42.9801 1.4814 42.4198 1.48292H29.4332C28.4265 1.48451 27.4614 1.88536 26.7491 2.59777C26.6612 2.68174 26.5792 2.77171 26.5038 2.86704H20.461C20.1059 2.43303 19.6588 2.08366 19.1521 1.84425C18.6454 1.60485 18.0918 1.4814 17.5315 1.48292H17.3995C13.3183 1.48543 9.40515 3.11039 6.5198 6.00071C3.63446 8.89103 2.01302 12.8102 2.01178 16.8971V30.5966C2.01169 31.0966 2.10994 31.5918 2.30096 32.0538C2.49198 32.5158 2.772 32.9356 3.12504 33.2892L3.39393 33.5585V50.9615L3.12504 51.2307C2.41276 51.9435 2.01233 52.9103 2.01178 53.9187V64.2452C2.00097 68.2286 3.5428 72.059 6.30919 74.9213C6.37523 74.9969 6.446 75.0677 6.52147 75.1433C7.94676 76.5782 9.64206 77.7157 11.5093 78.4901C13.3765 79.2645 15.3785 79.6603 17.3995 79.6547H40.3489C41.3551 79.6554 42.3205 79.2561 43.033 78.5446C43.1179 78.4595 43.1981 78.3698 43.2783 78.2753H44.519C44.8754 78.7078 45.3227 79.0561 45.8291 79.2954C46.3355 79.5347 46.8885 79.659 47.4484 79.6594H54.5998C55.6067 79.6589 56.5721 79.2579 57.2839 78.5446L57.4207 78.4076C57.7786 78.803 58.2155 79.1188 58.7031 79.3344C59.1907 79.5501 59.718 79.6608 60.251 79.6594H64.723C68.7951 79.6469 72.6965 78.0195 75.5733 75.1334C78.4501 72.2472 80.068 68.3373 80.0729 64.2594V44.4188C80.0725 43.8581 79.9483 43.3044 79.7094 42.7973C79.4705 42.2902 79.1227 41.8421 78.6908 41.4853V36.8558L79.2852 36.1236Z" fill="url(#paint1_radial_1_14235)"/>
<path d="M77.1387 34.9951C77.1387 34.9951 71.9497 38.2688 72.5865 38.2168C73.2233 38.1649 70.8175 39.96 70.8175 39.96L68.0909 41.944L73.5488 43.1486L76.615 41.9488H78.0302L77.1387 34.9951Z" fill="url(#paint2_linear_1_14235)"/>
<path d="M78.3792 41.2303V36.6811L79.0444 35.9536C79.637 35.337 79.9741 34.5182 79.9878 33.6625V17.0673C79.9878 13.0283 78.1339 9.22559 74.7988 6.36761C71.2656 3.44402 66.8103 1.872 62.2273 1.93182H59.6847C64.2677 1.872 68.7229 3.44402 72.2562 6.36761C75.6196 9.22559 77.4452 13.0283 77.4452 17.0673V33.6578C77.431 34.5134 77.094 35.332 76.5017 35.9489L75.8272 36.6811V41.2303C76.3055 41.5449 76.7004 41.9711 76.9781 42.4721C77.2558 42.9732 77.408 43.5343 77.4216 44.1072V63.584C77.4216 67.6229 75.5725 71.4304 72.2326 74.2884C68.6987 77.2103 64.2435 78.7806 59.6611 78.7195H62.2037C66.7861 78.7806 71.2413 77.2103 74.7752 74.2884C78.1292 71.454 79.9642 67.6229 79.9642 63.584V44.093C79.9494 43.5233 79.7976 42.9657 79.5216 42.4673C79.2457 41.969 78.8538 41.5446 78.3792 41.2303Z" fill="#101221"/>
<path d="M74.9405 75.7858C72.0338 78.5019 68.2031 80.0069 64.2276 79.9948H59.6518C59.1088 79.9949 58.5717 79.881 58.0753 79.6605C57.5788 79.44 57.134 79.1178 56.7696 78.7146L56.6328 78.8564C55.9023 79.5849 54.9135 79.9941 53.8826 79.9948H46.5803C46.0068 79.9949 45.4404 79.8679 44.9217 79.6228C44.403 79.3778 43.9449 79.0209 43.5801 78.5777H42.3348C42.2546 78.6721 42.1697 78.7666 42.0848 78.8516C41.7236 79.2132 41.2949 79.4999 40.823 79.6952C40.351 79.8906 39.8453 79.9908 39.3346 79.9901H18.5315L20.258 78.1005V74.6048L18.6494 72.8286L20.258 69.2101L21.7817 67.7645L22.7251 63.1823L27.1452 60.0126L34.5277 65.3081C34.9552 65.8798 35.5407 66.3134 36.2118 66.5552C37.4147 67.0276 40.9951 67.5 40.9951 67.5C40.9951 67.5 45.368 60.2015 47.052 59.989C48.7361 59.7764 54.5195 59.2473 54.5195 59.2473C54.5195 59.2473 56.4441 60.57 58.3735 55.2319C60.3028 49.8939 61.7463 46.0769 63.4303 46.4171C65.1144 46.7572 69.8128 56.394 69.8128 56.394C69.8128 56.394 69.4543 59.8661 69.8128 62.2328C70.1713 64.5995 71.379 64.8452 73.0677 66.5316C74.7565 68.218 74.681 71.9641 74.681 71.9641C74.681 71.9641 74.8839 73.8537 74.9405 75.7858Z" fill="url(#paint3_linear_1_14235)"/>
<path d="M45.3492 2.8679C45.3492 2.8679 46.4106 14.6352 50.9062 13.4495C55.4017 12.2638 56.3546 2.58447 56.3546 2.58447L45.3492 2.8679Z" fill="url(#paint4_linear_1_14235)"/>
<path d="M42.42 2.43259C42.8413 2.43071 43.2576 2.52304 43.6388 2.70284C44.0199 2.88263 44.3561 3.14537 44.6229 3.47186L44.906 3.81197H56.5529L56.8359 3.47186L57.0199 3.26874C57.2843 3.00235 57.599 2.79125 57.9456 2.64771C58.2922 2.50417 58.6638 2.43104 59.0389 2.43259H64.6996C68.5276 2.43759 72.1972 3.96362 74.9027 6.6756C77.6082 9.38758 79.1284 13.0638 79.1297 16.8973V33.7901C79.127 34.4265 78.9148 35.0441 78.5259 35.5474L77.9645 36.2702L77.7617 36.5253V41.9247L78.106 42.2082C78.4321 42.4754 78.6944 42.8121 78.874 43.1937C79.0535 43.5754 79.1457 43.9924 79.1438 44.4142V64.2548C79.1426 68.0915 77.6197 71.7706 74.9102 74.4832C72.2006 77.1957 68.5262 78.7195 64.6949 78.7195H60.2276C59.828 78.7207 59.4326 78.6371 59.0676 78.4743C58.7025 78.3114 58.376 78.073 58.1096 77.7747L57.4303 77.052L56.7274 77.7558L56.5906 77.8928C56.0527 78.4252 55.3279 78.7254 54.5716 78.729H47.4486C47.0281 78.7301 46.6126 78.6375 46.2324 78.4577C45.8521 78.2779 45.5166 78.0155 45.2503 77.6897L44.9673 77.3448H42.8351L42.5521 77.6897L42.3681 77.8928C42.1037 78.1592 41.789 78.3703 41.4424 78.5138C41.0958 78.6574 40.7242 78.7305 40.3491 78.729H17.4044C13.5723 78.729 9.89712 77.2045 7.18741 74.491C4.47771 71.7774 2.95541 68.0971 2.95541 64.2595V53.9377C2.95668 53.179 3.25868 52.4517 3.79507 51.9159L4.05924 51.6466L4.33757 51.3679V33.1807L4.05924 32.9067L3.79507 32.6375C3.26171 32.0999 2.96169 31.3734 2.96014 30.6156V16.9162C2.96139 13.0803 4.48359 9.40186 7.19214 6.68947C9.90069 3.97708 13.5739 2.45273 17.4044 2.45147H17.5317C17.953 2.4496 18.3694 2.54193 18.7505 2.72172C19.1317 2.90152 19.4679 3.16425 19.7347 3.49075L20.0177 3.83561H26.9521L27.2351 3.49548C27.2917 3.42462 27.3531 3.35848 27.4144 3.29235C27.6801 3.02646 27.9957 2.81573 28.343 2.67225C28.6903 2.52876 29.0624 2.45533 29.4381 2.4562H42.42M42.42 1.51141H29.4381C28.9385 1.50977 28.4436 1.60747 27.982 1.79885C27.5205 1.99022 27.1015 2.27146 26.7493 2.62626C26.6644 2.71129 26.5841 2.80107 26.504 2.89083H20.4611C20.1061 2.45682 19.659 2.10743 19.1523 1.86802C18.6456 1.62861 18.092 1.50517 17.5317 1.50669H17.4044C15.3835 1.50607 13.3822 1.90424 11.515 2.67842C9.6478 3.4526 7.95124 4.58762 6.52224 6.01865C5.09323 7.44968 3.95981 9.14864 3.18673 11.0185C2.41364 12.8883 2.01606 14.8924 2.01668 16.9162V30.6156C2.01505 31.1147 2.11215 31.6093 2.30242 32.0706C2.49269 32.532 2.77235 32.951 3.12523 33.3035L3.39412 33.5728V50.9805L3.12523 51.2451C2.77219 51.5987 2.49216 52.0185 2.30115 52.4805C2.11013 52.9425 2.01187 53.4377 2.01196 53.9377V64.2595C2.01321 68.3472 3.63529 72.2672 6.52166 75.1576C9.40803 78.0481 13.3224 79.6725 17.4044 79.6737H40.3491C40.8479 79.6748 41.3419 79.5767 41.8026 79.3854C42.2633 79.194 42.6816 78.9131 43.0332 78.5589C43.1197 78.4736 43.2016 78.3837 43.2785 78.2896H44.5192C44.8758 78.7219 45.3232 79.07 45.8295 79.3092C46.3359 79.5485 46.8887 79.673 47.4486 79.6737H54.5999C55.0987 79.6748 55.5927 79.5767 56.0534 79.3854C56.5142 79.194 56.9324 78.9131 57.2841 78.5589L57.4256 78.4219C57.7822 78.819 58.2189 79.1359 58.7067 79.3516C59.1946 79.5674 59.7226 79.6772 60.2559 79.6737H64.7232C68.7977 79.6637 72.7019 78.0358 75.5795 75.1471C78.4571 72.2583 80.0731 68.3446 80.0731 64.2642V44.4237C80.0746 43.8626 79.9514 43.3083 79.7123 42.8009C79.4733 42.2934 79.1244 41.8457 78.691 41.4901V36.8607L79.2712 36.119C79.7898 35.4501 80.0719 34.6275 80.0731 33.7806V16.8973C80.0731 12.8104 78.4519 8.89099 75.5662 6.00115C72.6804 3.11131 68.7665 1.4878 64.6854 1.4878H59.0247C58.526 1.48678 58.0319 1.5848 57.5712 1.77616C57.1105 1.96751 56.6922 2.24841 56.3406 2.60264C56.2557 2.68767 56.1708 2.77743 56.0953 2.86718H45.3494C44.9926 2.43556 44.545 2.08815 44.0386 1.84971C43.5322 1.61127 42.9795 1.48769 42.42 1.4878V1.51141Z" fill="#161828"/>
<path d="M20.2344 3.82593C20.4891 4.89826 22.8053 14.5682 24.5837 14.6579C25.1536 14.7023 25.7199 14.5341 26.1734 14.1855C26.3837 13.9728 26.5448 13.7164 26.6451 13.4344C26.9848 12.4896 27.164 8.76717 27.1168 3.73145L20.2344 3.82593Z" fill="url(#paint5_linear_1_14235)"/>
<g filter="url(#filter0_f_1_14235)">
<path d="M79.9737 43.8574V63.4618C79.976 65.47 79.5769 67.4583 78.8 69.3097C78.023 71.1611 76.884 72.8381 75.4499 74.2418C72.5426 77.1176 68.6159 78.7228 64.5294 78.7059H60.0386C59.5068 78.7079 58.9805 78.5989 58.4931 78.3858C58.0058 78.1727 57.5682 77.8602 57.2082 77.4683L57.0714 77.6052C56.3525 78.3117 55.3852 78.707 54.3779 78.7059H47.2077C46.6475 78.7073 46.0938 78.5853 45.586 78.3485C45.0781 78.1118 44.6284 77.7661 44.2688 77.336H43.0187C42.9456 77.4318 42.8634 77.5204 42.7734 77.6005C42.0578 78.3097 41.0914 78.7071 40.0846 78.7059H17.0549C12.9689 78.7207 9.04295 77.1159 6.13449 74.2418C4.69605 72.8979 3.56895 71.2548 2.83241 69.4281C1.87644 66.8662 1.75099 64.0678 2.47389 61.4305C2.4727 63.3936 2.86401 65.337 3.62476 67.1462C4.38551 68.9555 5.50032 70.5939 6.9034 71.9648C9.74521 74.78 13.586 76.3514 17.5833 76.3345H40.0987C41.0868 76.3341 42.0352 75.9457 42.7404 75.2527C42.8206 75.1724 42.9008 75.0874 42.981 74.9929H44.2216C44.5747 75.4118 45.0145 75.7487 45.5105 75.9804C46.0066 76.2121 46.5471 76.3329 47.0944 76.3345H54.0807C55.0654 76.3316 56.01 75.9434 56.7129 75.2527L56.8497 75.1204C57.2023 75.5024 57.6297 75.8074 58.1054 76.0163C58.5811 76.2252 59.0946 76.3335 59.614 76.3345H64.0011C67.9984 76.3514 71.8391 74.78 74.681 71.9648C76.0858 70.5971 77.203 68.9618 77.967 67.155C78.731 65.3483 79.1262 63.4067 79.1293 61.4446V42.2607C79.1309 41.9414 79.088 41.6234 79.002 41.3159C79.635 42.0096 79.9822 42.9177 79.9737 43.8574Z" fill="#4578DD"/>
</g>
<path d="M27.1452 32.2837L21.7581 37.4186L23.6874 41.7032C23.6874 41.7032 25.546 45.1564 27.1452 45.8603C28.7443 46.5642 30.919 49.6678 32.3577 48.8411C33.7965 48.0144 34.7682 48.0522 35.2494 45.8603C35.7306 43.6684 37.9005 42.237 37.4146 41.023C36.9288 39.8089 31.6926 38.7271 29.4944 36.8565C28.1671 35.6806 27.3288 34.0488 27.1452 32.2837Z" fill="url(#paint6_linear_1_14235)"/>
<path d="M36.1884 58.161H43.3492V50.6027H36.1884V58.161ZM27.452 33.9366L34.4336 33.8847C34.4336 32.5525 34.7543 30.6582 35.528 29.4205C36.3016 28.1829 37.6083 27.5688 39.4575 27.5688C41.3066 27.5688 42.6322 28.0695 43.3397 29.071C44.036 30.0427 44.4075 31.2101 44.4011 32.4061C44.4079 33.4525 44.077 34.4732 43.4577 35.316C43.0752 35.8606 42.6068 36.3392 42.0708 36.7332L40.3301 38.1031C38.6068 39.4479 37.5406 40.6383 37.1318 41.6744C36.7167 42.709 36.462 45.1985 36.3676 47.91H42.8539C42.8382 46.7513 42.9425 45.594 43.1652 44.4568C43.5028 43.4442 44.1455 42.5613 45.0049 41.9296L46.6984 40.6068C48.0033 39.6661 49.1758 38.5539 50.1845 37.3001C51.2564 35.7565 51.8008 33.9071 51.7365 32.0282C51.7365 28.6269 50.543 26.0603 48.1561 24.3281C45.7691 22.596 42.7815 21.73 39.1933 21.73C36.4478 21.73 34.1332 22.3394 32.2495 23.5581C29.2304 25.4619 27.6407 29.3686 27.452 33.9366Z" fill="#6C6AA5"/>
<path d="M37.132 58.4963H44.2928V51.5426H37.132V58.4963ZM28.3956 34.2152H35.3158C35.325 32.8476 35.7262 31.5113 36.4716 30.3652C37.2452 29.1338 38.555 28.5166 40.4011 28.5134C42.288 28.5134 43.5758 29.0142 44.2833 30.0156C44.9796 30.9874 45.3511 32.1548 45.3447 33.3507C45.3516 34.3972 45.0206 35.4179 44.4013 36.2607C44.0188 36.8053 43.5504 37.2839 43.0144 37.6779L41.2737 39.0478C39.5504 40.3926 38.4843 41.583 38.0754 42.6191C37.6666 43.6552 37.4056 45.5307 37.2924 48.2453H43.7786C43.7558 47.2909 43.8605 46.3377 44.0899 45.411C44.4275 44.3983 45.0703 43.5154 45.9297 42.8837L47.6232 41.561C48.928 40.6203 50.1005 39.508 51.1092 38.2542C52.1811 36.7107 52.7255 34.8613 52.6612 32.9823C52.6612 29.5811 51.4677 27.0144 49.0808 25.2822C46.6939 23.5501 43.7063 22.6841 40.118 22.6841C37.3726 22.6841 35.058 23.2935 33.1742 24.5123C30.1772 26.4144 28.5843 29.6488 28.3956 34.2152Z" fill="#101221"/>
<path d="M36.6602 58.1613H43.821V51.2077H36.6602V58.1613ZM27.9238 33.885H34.844C34.8532 32.5173 35.2544 31.1811 35.9998 30.035C36.7734 28.8036 38.0832 28.1863 39.9293 28.1832C41.8162 28.1832 43.104 28.6839 43.8115 29.6854C44.5078 30.6571 44.8793 31.8245 44.8729 33.0205C44.8798 34.067 44.5488 35.0876 43.9295 35.9305C43.5482 36.4761 43.0796 36.9549 42.5426 37.3477L40.8019 38.7223C39.0786 40.0671 38.0125 41.2575 37.6036 42.2936C37.1948 43.3297 36.9338 45.2036 36.8206 47.9151H43.3068C43.284 46.9606 43.3887 46.0074 43.6181 45.0807C43.9543 44.0674 44.5973 43.184 45.4579 42.5534L47.1514 41.2307C48.4562 40.29 49.6287 39.1778 50.6374 37.924C51.7189 36.3721 52.2669 34.5101 52.1988 32.619C52.1988 29.2177 51.0054 26.6511 48.6184 24.919C46.2315 23.1869 43.2439 22.3208 39.6556 22.3208C36.9102 22.3208 34.5956 22.9302 32.7118 24.149C29.7085 26.0669 28.1125 29.3122 27.9238 33.885Z" fill="#3A466B"/>
<defs>
<filter id="filter0_f_1_14235" x="1.0105" y="40.3159" width="79.9634" height="39.3901" filterUnits="userSpaceOnUse" color-interpolation-filters="sRGB">
<feFlood flood-opacity="0" result="BackgroundImageFix"/>
<feBlend mode="normal" in="SourceGraphic" in2="BackgroundImageFix" result="shape"/>
<feGaussianBlur stdDeviation="0.5" result="effect1_foregroundBlur_1_14235"/>
</filter>
<linearGradient id="paint0_linear_1_14235" x1="40.0328" y1="79.1638" x2="40.0328" y2="1.99823" gradientUnits="userSpaceOnUse">
<stop offset="0.26" stop-color="#313349"/>
<stop offset="0.68" stop-color="#2A2B41"/>
<stop offset="1" stop-color="#212238"/>
</linearGradient>
<radialGradient id="paint1_radial_1_14235" cx="0" cy="0" r="1" gradientUnits="userSpaceOnUse" gradientTransform="translate(77.2426 41.5372) scale(85.4531 85.5742)">
<stop offset="0.26" stop-color="#26273D" stop-opacity="0"/>
<stop offset="0.62" stop-color="#25263C" stop-opacity="0.05"/>
<stop offset="0.75" stop-color="#232438" stop-opacity="0.22"/>
<stop offset="0.84" stop-color="#1E1F32" stop-opacity="0.51"/>
<stop offset="0.92" stop-color="#17192A" stop-opacity="0.93"/>
<stop offset="0.93" stop-color="#161828"/>
</radialGradient>
<linearGradient id="paint2_linear_1_14235" x1="80.2001" y1="50.4235" x2="70.3826" y2="34.9983" gradientUnits="userSpaceOnUse">
<stop offset="0.26" stop-color="#313349" stop-opacity="0"/>
<stop offset="0.51" stop-color="#27293D" stop-opacity="0.47"/>
<stop offset="0.8" stop-color="#1E2033" stop-opacity="0.86"/>
<stop offset="1" stop-color="#1B1D30"/>
</linearGradient>
<linearGradient id="paint3_linear_1_14235" x1="51.8259" y1="86.4808" x2="37.8244" y2="53.2053" gradientUnits="userSpaceOnUse">
<stop offset="0.26" stop-color="#313349" stop-opacity="0"/>
<stop offset="0.51" stop-color="#27293D" stop-opacity="0.47"/>
<stop offset="0.8" stop-color="#1E2033" stop-opacity="0.86"/>
<stop offset="1" stop-color="#1B1D30"/>
</linearGradient>
<linearGradient id="paint4_linear_1_14235" x1="46.7408" y1="23.6391" x2="50.8466" y2="3.0591" gradientUnits="userSpaceOnUse">
<stop offset="0.26" stop-color="#313349" stop-opacity="0"/>
<stop offset="0.51" stop-color="#27293D" stop-opacity="0.47"/>
<stop offset="0.8" stop-color="#1E2033" stop-opacity="0.86"/>
<stop offset="1" stop-color="#1B1D30"/>
</linearGradient>
<linearGradient id="paint5_linear_1_14235" x1="32.7068" y1="29.4722" x2="23.4519" y2="3.91463" gradientUnits="userSpaceOnUse">
<stop offset="0.26" stop-color="#313349" stop-opacity="0"/>
<stop offset="0.51" stop-color="#27293D" stop-opacity="0.47"/>
<stop offset="0.8" stop-color="#1E2033" stop-opacity="0.86"/>
<stop offset="1" stop-color="#1B1D30"/>
</linearGradient>
<linearGradient id="paint6_linear_1_14235" x1="34.6456" y1="48.8694" x2="25.7105" y2="32.4785" gradientUnits="userSpaceOnUse">
<stop offset="0.26" stop-color="#313349" stop-opacity="0"/>
<stop offset="0.51" stop-color="#27293D" stop-opacity="0.47"/>
<stop offset="0.8" stop-color="#1E2033" stop-opacity="0.86"/>
<stop offset="1" stop-color="#1B1D30"/>
</linearGradient>
</defs>
</svg>
